<?xml version="1.0" encoding="UTF-8"?>
<!DOCTYPE xmeml>
<xmeml version="4">
	<sequence id="sequence-2" TL.SQAudioVisibleBase="0" TL.SQVideoVisibleBase="0" TL.SQVisibleBaseTime="0" TL.SQAVDividerPosition="0.606361806393" TL.SQHideShyTracks="0" TL.SQHeaderWidth="236" Monitor.ProgramZoomOut="54541468800000" Monitor.ProgramZoomIn="29139868800000" TL.SQTimePerPixel="0.15122016441693198" AM.TrackVScrollPosition="0" AM.TrackScrollPosition="36" MZ.EditLine="41840668800000" MZ.Sequence.PreviewFrameSizeHeight="3840" MZ.Sequence.PreviewFrameSizeWidth="3840" MZ.Sequence.AudioTimeDisplayFormat="200" MZ.Sequence.PreviewRenderingClassID="1061109567" MZ.Sequence.PreviewRenderingPresetCodec="1128679492" MZ.Sequence.PreviewRenderingPresetPath="EncoderPresets\SequencePreview\9678af98-a7b7-4bdb-b477-7ac9c8df4a4e\Quicktime GoPro CineForm (YUV 10-bit).epr" MZ.Sequence.PreviewUseMaxRenderQuality="false" MZ.Sequence.PreviewUseMaxBitDepth="false" MZ.Sequence.EditingModeGUID="9678af98-a7b7-4bdb-b477-7ac9c8df4a4e" MZ.Sequence.VideoTimeDisplayFormat="109" MZ.WorkOutPoint="15240960000000" MZ.WorkInPoint="0" explodedTracks="true">
		<uuid>6f067ea2-9f12-4002-b304-a30403f79efe</uuid>
		<duration>62310</duration>
		<rate>
			<timebase>60</timebase>
			<ntsc>FALSE</ntsc>
		</rate>
		<name>Edit 7_SWAPS</name>
		<media>
			<video>
				<format>
					<samplecharacteristics>
						<rate>
							<timebase>60</timebase>
							<ntsc>FALSE</ntsc>
						</rate>
						<codec>
							<name>Apple ProRes 422</name>
							<appspecificdata>
								<appname>Final Cut Pro</appname>
								<appmanufacturer>Apple Inc.</appmanufacturer>
								<appversion>7.0</appversion>
								<data>
									<qtcodec>
										<codecname>Apple ProRes 422</codecname>
										<codectypename>Apple ProRes 422</codectypename>
										<codectypecode>apcn</codectypecode>
										<codecvendorcode>appl</codecvendorcode>
										<spatialquality>1024</spatialquality>
										<temporalquality>0</temporalquality>
										<keyframerate>0</keyframerate>
										<datarate>0</datarate>
									</qtcodec>
								</data>
							</appspecificdata>
						</codec>
						<width>3840</width>
						<height>3840</height>
						<anamorphic>FALSE</anamorphic>
						<pixelaspectratio>square</pixelaspectratio>
						<fielddominance>none</fielddominance>
						<colordepth>24</colordepth>
					</samplecharacteristics>
				</format>
				<track TL.SQTrackShy="0" TL.SQTrackExpandedHeight="123" TL.SQTrackExpanded="0" MZ.TrackTargeted="1">
					<clipitem id="clipitem-444">
						<masterclipid>masterclip-51</masterclipid>
						<name>CMP2_KANDAO_20180508_113522</name>
						<enabled>TRUE</enabled>
						<duration>9243</duration>
						<rate>
							<timebase>60</timebase>
							<ntsc>FALSE</ntsc>
						</rate>
						<start>228</start>
						<end>4609</end>
						<in>236</in>
						<out>4617</out>
						<pproTicksIn>999129600000</pproTicksIn>
						<pproTicksOut>19546531200000</pproTicksOut>
						<alphatype>none</alphatype>
						<pixelaspectratio>square</pixelaspectratio>
						<anamorphic>FALSE</anamorphic>
						<file id="file-51">
							<name>CMP2_KANDAO_20180508_113522_v001_0001.png</name>
							<pathurl>file://Gladiator/HD/Departments/_Post/__Projects/035_Chimps_Part_2/6.VFX/KANDAO_20180508_113522/KANDAO_20180508_113822_v001/CMP2_KANDAO_20180508_113522_v001/CMP2_KANDAO_20180508_113522_v001_0001.png</pathurl>
							<rate>
								<timebase>60</timebase>
								<ntsc>FALSE</ntsc>
							</rate>
							<duration>4617</duration>
							<timecode>
								<rate>
									<timebase>60</timebase>
									<ntsc>FALSE</ntsc>
								</rate>
								<string>00:00:00:00</string>
								<frame>0</frame>
								<displayformat>NDF</displayformat>
								<reel>
									<name>tape name</name>
								</reel>
							</timecode>
							<media>
								<video>
									<samplecharacteristics>
										<rate>
											<timebase>60</timebase>
											<ntsc>FALSE</ntsc>
										</rate>
										<width>3840</width>
										<height>3840</height>
										<anamorphic>FALSE</anamorphic>
										<pixelaspectratio>square</pixelaspectratio>
										<fielddominance>none</fielddominance>
									</samplecharacteristics>
								</video>
							</media>
						</file>
						<filter>
							<effect>
								<name>Opacity</name>
								<effectid>opacity</effectid>
								<effectcategory>motion</effectcategory>
								<effecttype>motion</effecttype>
								<mediatype>video</mediatype>
								<pproBypass>false</pproBypass>
								<parameter authoringApp="PremierePro">
									<parameterid>opacity</parameterid>
									<name>opacity</name>
									<valuemin>0</valuemin>
									<valuemax>100</valuemax>
									<value>100</value>
									<keyframe>
										<when>236</when>
										<value>0</value>
									</keyframe>
									<keyframe>
										<when>415</when>
										<value>100</value>
									</keyframe>
									<keyframe>
										<when>1571</when>
										<value>100</value>
									</keyframe>
								</parameter>
							</effect>
						</filter>
						<filter>
							<effect>
								<name></name>
								<effectid>Lumetri</effectid>
								<effecttype>filter</effecttype>
								<mediatype>video</mediatype>
								<pproBypass>false</pproBypass>
								<parameter authoringApp="PremierePro">
									<parameterid>1</parameterid>
									<name>Blob</name>
									<hash>63866a15-9327-e4cb-ff31-c9ea0000000e</hash>
									<value>/v4=</value>
								</parameter>
								<parameter authoringApp="PremierePro">
									<parameterid>3</parameterid>
									<name> </name>
									<IsTimeVarying>false</IsTimeVarying>
									<ParameterControlType>4</ParameterControlType>
									<LowerBound>false</LowerBound>
									<UpperBound>true</UpperBound>
									<value>-91445760000000000,true,0,0,0,0,0,0</value>
								</parameter>
								<parameter authoringApp="PremierePro">
									<parameterid>4</parameterid>
									<name> </name>
									<hash>63866a15-9327-e4cb-ff31-c9ea0000000e</hash>
								</parameter>
								<parameter authoringApp="PremierePro">
									<parameterid>5</parameterid>
									<name>Input LUT</name>
									<IsTimeVarying>false</IsTimeVarying>
									<ParameterControlType>7</ParameterControlType>
									<LowerBound>0</LowerBound>
									<UpperBound>998</UpperBound>
									<value>-91445760000000000,0,0,0,0,0,0,0</value>
								</parameter>
								<parameter authoringApp="PremierePro">
									<parameterid>7</parameterid>
									<name>Temperature</name>
									<IsTimeVarying>false</IsTimeVarying>
									<ParameterControlType>8</ParameterControlType>
									<LowerBound>-300</LowerBound>
									<UpperBound>300</UpperBound>
									<LowerUIBound>-100</LowerUIBound>
									<UpperUIBound>100</UpperUIBound>
									<value>-91445760000000000,0.,0,0,0,0,0,0</value>
								</parameter>
								<parameter authoringApp="PremierePro">
									<parameterid>8</parameterid>
									<name>Tint</name>
									<IsTimeVarying>false</IsTimeVarying>
									<ParameterControlType>8</ParameterControlType>
									<LowerBound>-300</LowerBound>
									<UpperBound>300</UpperBound>
									<LowerUIBound>-100</LowerUIBound>
									<UpperUIBound>100</UpperUIBound>
									<value>-91445760000000000,0.,0,0,0,0,0,0</value>
								</parameter>
								<parameter authoringApp="PremierePro">
									<parameterid>11</parameterid>
									<name>Exposure</name>
									<IsTimeVarying>false</IsTimeVarying>
									<ParameterControlType>8</ParameterControlType>
									<LowerBound>-7</LowerBound>
									<UpperBound>7</UpperBound>
									<LowerUIBound>-5</LowerUIBound>
									<UpperUIBound>5</UpperUIBound>
									<value>-91445760000000000,0.,0,0,0,0,0,0</value>
								</parameter>
								<parameter authoringApp="PremierePro">
									<parameterid>12</parameterid>
									<name>Contrast</name>
									<IsTimeVarying>false</IsTimeVarying>
									<ParameterControlType>8</ParameterControlType>
									<LowerBound>-150</LowerBound>
									<UpperBound>150</UpperBound>
									<LowerUIBound>-100</LowerUIBound>
									<UpperUIBound>100</UpperUIBound>
									<value>-91445760000000000,91.80328369140625,0,0,0,0,0,0</value>
								</parameter>
								<parameter authoringApp="PremierePro">
									<parameterid>13</parameterid>
									<name>Highlights</name>
									<IsTimeVarying>false</IsTimeVarying>
									<ParameterControlType>8</ParameterControlType>
									<LowerBound>-150</LowerBound>
									<UpperBound>150</UpperBound>
									<LowerUIBound>-100</LowerUIBound>
									<UpperUIBound>100</UpperUIBound>
									<value>-91445760000000000,36.065582275390625,0,0,0,0,0,0</value>
								</parameter>
								<parameter authoringApp="PremierePro">
									<parameterid>14</parameterid>
									<name>Shadows</name>
									<IsTimeVarying>false</IsTimeVarying>
									<ParameterControlType>8</ParameterControlType>
									<LowerBound>-150</LowerBound>
									<UpperBound>150</UpperBound>
									<LowerUIBound>-100</LowerUIBound>
									<UpperUIBound>100</UpperUIBound>
									<value>-91445760000000000,0.,0,0,0,0,0,0</value>
								</parameter>
								<parameter authoringApp="PremierePro">
									<parameterid>15</parameterid>
									<name>Whites</name>
									<IsTimeVarying>false</IsTimeVarying>
									<ParameterControlType>8</ParameterControlType>
									<LowerBound>-150</LowerBound>
									<UpperBound>150</UpperBound>
									<LowerUIBound>-100</LowerUIBound>
									<UpperUIBound>100</UpperUIBound>
									<value>-91445760000000000,0.,0,0,0,0,0,0</value>
								</parameter>
								<parameter authoringApp="PremierePro">
									<parameterid>16</parameterid>
									<name>Blacks</name>
									<IsTimeVarying>false</IsTimeVarying>
									<ParameterControlType>8</ParameterControlType>
									<LowerBound>-150</LowerBound>
									<UpperBound>150</UpperBound>
									<LowerUIBound>-100</LowerUIBound>
									<UpperUIBound>100</UpperUIBound>
									<value>-91445760000000000,-55.737705230712890625,0,0,0,0,0,0</value>
								</parameter>
								<parameter authoringApp="PremierePro">
									<parameterid>20</parameterid>
									<name>Saturation</name>
									<IsTimeVarying>false</IsTimeVarying>
									<ParameterControlType>8</ParameterControlType>
									<LowerBound>0</LowerBound>
									<UpperBound>300</UpperBound>
									<UpperUIBound>200</UpperUIBound>
									<value>-91445760000000000,100.,0,0,0,0,0,0</value>
								</parameter>
								<parameter authoringApp="PremierePro">
									<parameterid>23</parameterid>
									<name> </name>
									<IsTimeVarying>false</IsTimeVarying>
									<ParameterControlType>4</ParameterControlType>
									<LowerBound>false</LowerBound>
									<UpperBound>true</UpperBound>
									<value>-91445760000000000,true,0,0,0,0,0,0</value>
								</parameter>
								<parameter authoringApp="PremierePro">
									<parameterid>24</parameterid>
									<name> </name>
									<hash>63866a15-9327-e4cb-ff31-c9ea0000000e</hash>
								</parameter>
								<parameter authoringApp="PremierePro">
									<parameterid>25</parameterid>
									<name>Look</name>
									<IsTimeVarying>false</IsTimeVarying>
									<ParameterControlType>7</ParameterControlType>
									<LowerBound>0</LowerBound>
									<UpperBound>998</UpperBound>
									<value>-91445760000000000,0,0,0,0,0,0,0</value>
								</parameter>
								<parameter authoringApp="PremierePro">
									<parameterid>26</parameterid>
									<name>Intensity</name>
									<IsTimeVarying>false</IsTimeVarying>
									<ParameterControlType>8</ParameterControlType>
									<LowerBound>0</LowerBound>
									<UpperBound>200</UpperBound>
									<value>-91445760000000000,100.,0,0,0,0,0,0</value>
								</parameter>
								<parameter authoringApp="PremierePro">
									<parameterid>28</parameterid>
									<name>Faded Film</name>
									<IsTimeVarying>false</IsTimeVarying>
									<ParameterControlType>8</ParameterControlType>
									<LowerBound>0</LowerBound>
									<UpperBound>150</UpperBound>
									<UpperUIBound>100</UpperUIBound>
									<value>-91445760000000000,0.,0,0,0,0,0,0</value>
								</parameter>
								<parameter authoringApp="PremierePro">
									<parameterid>29</parameterid>
									<name>Sharpen</name>
									<IsTimeVarying>false</IsTimeVarying>
									<ParameterControlType>8</ParameterControlType>
									<LowerBound>-100</LowerBound>
									<UpperBound>100</UpperBound>
									<value>-91445760000000000,0.,0,0,0,0,0,0</value>
								</parameter>
								<parameter authoringApp="PremierePro">
									<parameterid>30</parameterid>
									<name>Vibrance</name>
									<IsTimeVarying>false</IsTimeVarying>
									<ParameterControlType>8</ParameterControlType>
									<LowerBound>-100</LowerBound>
									<UpperBound>100</UpperBound>
									<value>-91445760000000000,0.,0,0,0,0,0,0</value>
								</parameter>
								<parameter authoringApp="PremierePro">
									<parameterid>31</parameterid>
									<name>Saturation</name>
									<IsTimeVarying>false</IsTimeVarying>
									<ParameterControlType>8</ParameterControlType>
									<LowerBound>0</LowerBound>
									<UpperBound>300</UpperBound>
									<UpperUIBound>200</UpperUIBound>
									<value>-91445760000000000,100.,0,0,0,0,0,0</value>
								</parameter>
								<parameter authoringApp="PremierePro">
									<parameterid>32</parameterid>
									<name></name>
									<hash>49d2fca5-ddd1-a393-0544-f6d80000002c</hash>
									<value>AAAAAAAAAAAAAAAAAAAAAAAAAAAAAAAAAAAAAAAAAAA=</value>
								</parameter>
								<parameter authoringApp="PremierePro">
									<parameterid>33</parameterid>
									<name>Tint Balance</name>
									<IsTimeVarying>false</IsTimeVarying>
									<ParameterControlType>8</ParameterControlType>
									<LowerBound>-150</LowerBound>
									<UpperBound>150</UpperBound>
									<LowerUIBound>-100</LowerUIBound>
									<UpperUIBound>100</UpperUIBound>
									<value>-91445760000000000,0.,0,0,0,0,0,0</value>
								</parameter>
								<parameter authoringApp="PremierePro">
									<parameterid>37</parameterid>
									<name> </name>
									<IsTimeVarying>false</IsTimeVarying>
									<ParameterControlType>4</ParameterControlType>
									<LowerBound>false</LowerBound>
									<UpperBound>true</UpperBound>
									<value>-91445760000000000,true,0,0,0,0,0,0</value>
								</parameter>
								<parameter authoringApp="PremierePro">
									<parameterid>39</parameterid>
									<name> </name>
									<hash>261f3840-e8cf-a8cd-fa5e-bac10000082c</hash>
									<value>AAAAAAIAAAAAAAAAAAAAAAAAAAAAAAAAAAAAAAAA8D8AAAAAAADwPwAAAAAAAAAAAAAAAAAAAAAAAAAAAAAAAAAAAAAAAAAAAAAAAAAAAAAAAAAAAAAAAAAAAAAAAAAAAAAAAAAAAAAAAAAAAAAAAAAAAAAAAAAAAAAAAAAAAAAAAAAAAAAAAAAAAAAAAAAAAAAAAAAAAAAAAAAAAAAAAAAAAAAAAAAAAAAAAAAAAAAAAAAAAAAAAAAAAAAAAAAAAAAAAAAAAAAAAAAAAAAAAAAAAAAAAAAAAAAAAAAAAAAAAAAAAAAAAAAAAAAAAAAAAAAAAAAAAAAAAAAAAAAAAAAAAAAAAAAAAAAAAAAAAAAAAAAAAAAAAAAAAAAAAAAAAAAAAAAAAAAAAAAAAAAAAAAAAAAAAAAAAAAAAAAAAAAAAAAAAAAAAAAAAAAAAAAAAAAAAAAAAAAAAAAAAAAAAAAAAAAAAAAAAAAAAAAAAAAAAAAAAAAAAAAAAAAAAAAAAAAAAAAAAAAAAAAAAAAAAAAAAAAAAAAAAAAAAAAAAAAAAAAAAAAAAAAAAAAAAAAAAAAAAAAAAAAAAAAAAAAAAAAAAAAAAAAAAAAAAAAAAAAAAAAAAAAAAAAAAAAAAAAAAAAAAAAAAAAAAAAAAAAAAAAAAAAAAAAAAAAAAAAAAAAAAAAAAAAAAAAAAAACAAAAAAAAAAAAAAAAAAAAAAAAAAAAAAAAAPA/AAAAAAAA8D8AAAAAAAAAAAAAAAAAAAAAAAAAAAAAAAAAAAAAAAAAAAAAAAAAAAAAAAAAAAAAAAAAAAAAAAAAAAAAAAAAAAAAAAAAAAAAAAAAAAAAAAAAAAAAAAAAAAAAAAAAAAAAAAAAAAAAAAAAAAAAAAAAAAAAAAAAAAAAAAAAAAAAAAAAAAAAAAAAAAAAAAAAAAAAAAAAAAAAAAAAAAAAAAAAAAAAAAAAAAAAAAAAAAAAAAAAAAAAAAAAAAAAAAAAAAAAAAAAAAAAAAAAAAAAAAAAAAAAAAAAAAAAAAAAAAAAAAAAAAAAAAAAAAAAAAAAAAAAAAAAAAAAAAAAAAAAAAAAAAAAAAAAAAAAAAAAAAAAAAAAAAAAAAAAAAAAAAAAAAAAAAAAAAAAAAAAAAAAAAAAAAAAAAAAAAAAAAAAAAAAAAAAAAAAAAAAAAAAAAAAAAAAAAAAAAAAAAAAAAAAAAAAAAAAAAAAAAAAAAAAAAAAAAAAAAAAAAAAAAAAAAAAAAAAAAAAAAAAAAAAAAAAAAAAAAAAAAAAAAAAAAAAAAAAAAAAAAAAAAAAAAAAAAAAAAAAAAAAAAAAAAAAAAAAAAAAAAAAAAAAAAAAAAAAAAAAAAAAAAAAAAAAAAAAAAAAAAAAAAAAAAAAAgAAAAAAAAAAAAAAAAAAAAAAAAAAAAAAAADwPwAAAAAAAPA/AAAAAAAAAAAAAAAAAAAAAAAAAAAAAAAAAAAAAAAAAAAAAAAAAAAAAAAAAAAAAAAAAAAAAAAAAAAAAAAAAAAAAAAAAAAAAAAAAAAAAAAAAAAAAAAAAAAAAAAAAAAAAAAAAAAAAAAAAAAAAAAAAAAAAAAAAAAAAAAAAAAAAAAAAAAAAAAAAAAAAAAAAAAAAAAAAAAAAAAAAAAAAAAAAAAAAAAAAAAAAAAAAAAAAAAAAAAAAAAAAAAAAAAAAAAAAAAAAAAAAAAAAAAAAAAAAAAAAAAAAAAAAAAAAAAAAAAAAAAAAAAAAAAAAAAAAAAAAAAAAAAAAAAAAAAAAAAAAAAAAAAAAAAAAAAAAAAAAAAAAAAAAAAAAAAAAAAAAAAAAAAAAAAAAAAAAAAAAAAAAAAAAAAAAAAAAAAAAAAAAAAAAAAAAAAAAAAAAAAAAAAAAAAAAAAAAAAAAAAAAAAAAAAAAAAAAAAAAAAAAAAAAAAAAAAAAAAAAAAAAAAAAAAAAAAAAAAAAAAAAAAAAAAAAAAAAAAAAAAAAAAAAAAAAAAAAAAAAAAAAAAAAAAAAAAAAAAAAAAAAAAAAAAAAAAAAAAAAAAAAAAAAAAAAAAAAAAAAAAAAAAAAAAAAAAAAAAAAAAAAAAAAAIAAAAAAAAAAAAAAAAAAAAAAAAAAAAAAAAA8D8AAAAAAADwPwAAAAAAAAAAAAAAAAAAAAAAAAAAAAAAAAAAAAAAAAAAAAAAAAAAAAAAAAAAAAAAAAAAAAAAAAAAAAAAAAAAAAAAAAAAAAAAAAAAAAAAAAAAAAAAAAAAAAAAAAAAAAAAAAAAAAAAAAAAAAAAAAAAAAAAAAAAAAAAAAAAAAAAAAAAAAAAAAAAAAAAAAAAAAAAAAAAAAAAAAAAAAAAAAAAAAAAAAAAAAAAAAAAAAAAAAAAAAAAAAAAAAAAAAAAAAAAAAAAAAAAAAAAAAAAAAAAAAAAAAAAAAAAAAAAAAAAAAAAAAAAAAAAAAAAAAAAAAAAAAAAAAAAAAAAAAAAAAAAAAAAAAAAAAAAAAAAAAAAAAAAAAAAAAAAAAAAAAAAAAAAAAAAAAAAAAAAAAAAAAAAAAAAAAAAAAAAAAAAAAAAAAAAAAAAAAAAAAAAAAAAAAAAAAAAAAAAAAAAAAAAAAAAAAAAAAAAAAAAAAAAAAAAAAAAAAAAAAAAAAAAAAAAAAAAAAAAAAAAAAAAAAAAAAAAAAAAAAAAAAAAAAAAAAAAAAAAAAAAAAAAAAAAAAAAAAAAAAAAAAAAAAAAAAAAAAAAAAAAAAAAAAAAAAAAAAAAAAAAAAAAAAAAAAAAAAAAAAAAAA==</value>
								</parameter>
								<parameter authoringApp="PremierePro">
									<parameterid>42</parameterid>
									<name> </name>
									<hash>ccfaa4df-d630-7661-76dd-3e4900000214</hash>
									<value>AQAAAAAAAAAAAAAAAAAAAAAAAAAAAAAAAAAAAAAA8D8AAAAAAADwPwAAAAAAAAAAAAAAAAAAAAAAAAAAAAAAAAAAAAAAAAAAAAAAAAAAAAAAAAAAAAAAAAAAAAAAAAAAAAAAAAAAAAAAAAAAAAAAAAAAAAAAAAAAAAAAAAAAAAAAAAAAAAAAAAAAAAAAAAAAAAAAAAAAAAAAAAAAAAAAAAAAAAAAAAAAAAAAAAAAAAAAAAAAAAAAAAAAAAAAAAAAAAAAAAAAAAAAAAAAAAAAAAAAAAAAAAAAAAAAAAAAAAAAAAAAAAAAAAAAAAAAAAAAAAAAAAAAAAAAAAAAAAAAAAAAAAAAAAAAAAAAAAAAAAAAAAAAAAAAAAAAAAAAAAAAAAAAAAAAAAAAAAAAAAAAAAAAAAAAAAAAAAAAAAAAAAAAAAAAAAAAAAAAAAAAAAAAAAAAAAAAAAAAAAAAAAAAAAAAAAAAAAAAAAAAAAAAAAAAAAAAAAAAAAAAAAAAAAAAAAAAAAAAAAAAAAAAAAAAAAAAAAAAAAAAAAAAAAAAAAAAAAAAAAAAAAAAAAAAAAAAAAAAAAAAAAAAAAAAAAAAAAAAAAAAAAAAAAAAAAAAAAAAAAAAAAAAAAAAAAAAAAAAAAAAAAAAAAAAAAAAAAAAAAAAAAAAAAAAAAAAAAAAAAAAAAAAAAAAAA==</value>
								</parameter>
								<parameter authoringApp="PremierePro">
									<parameterid>46</parameterid>
									<name> </name>
									<IsTimeVarying>false</IsTimeVarying>
									<ParameterControlType>4</ParameterControlType>
									<LowerBound>false</LowerBound>
									<UpperBound>true</UpperBound>
									<value>-91445760000000000,true,0,0,0,0,0,0</value>
								</parameter>
								<parameter authoringApp="PremierePro">
									<parameterid>47</parameterid>
									<name> </name>
									<hash>0b5436c4-bae0-bb64-a2f6-c8c40000006c</hash>
									<value>AAAAAAAAAAAAAAAAAADgPwAAAAAAAAAAAAAAAAAAAAAAAAAAAADgPwAAAAAAAAAAAAAAAAAAAAAAAAAAAADgPwAAAAAAAAAAAAAAAAAAAAAAAAAAAADgPwAAAAAAAAAA</value>
								</parameter>
								<parameter authoringApp="PremierePro">
									<parameterid>50</parameterid>
									<name> </name>
									<IsTimeVarying>false</IsTimeVarying>
									<ParameterControlType>4</ParameterControlType>
									<LowerBound>false</LowerBound>
									<UpperBound>true</UpperBound>
									<value>-91445760000000000,true,0,0,0,0,0,0</value>
								</parameter>
								<parameter authoringApp="PremierePro">
									<parameterid>51</parameterid>
									<name>Amount</name>
									<IsTimeVarying>false</IsTimeVarying>
									<ParameterControlType>8</ParameterControlType>
									<LowerBound>-5</LowerBound>
									<UpperBound>5</UpperBound>
									<LowerUIBound>-3</LowerUIBound>
									<UpperUIBound>3</UpperUIBound>
									<value>-91445760000000000,0.,0,0,0,0,0,0</value>
								</parameter>
								<parameter authoringApp="PremierePro">
									<parameterid>52</parameterid>
									<name>Midpoint</name>
									<IsTimeVarying>false</IsTimeVarying>
									<ParameterControlType>8</ParameterControlType>
									<LowerBound>0</LowerBound>
									<UpperBound>100</UpperBound>
									<value>-91445760000000000,50.,0,0,0,0,0,0</value>
								</parameter>
								<parameter authoringApp="PremierePro">
									<parameterid>53</parameterid>
									<name>Roundness</name>
									<IsTimeVarying>false</IsTimeVarying>
									<ParameterControlType>8</ParameterControlType>
									<LowerBound>-100</LowerBound>
									<UpperBound>100</UpperBound>
									<value>-91445760000000000,0.,0,0,0,0,0,0</value>
								</parameter>
								<parameter authoringApp="PremierePro">
									<parameterid>54</parameterid>
									<name>Feather</name>
									<IsTimeVarying>false</IsTimeVarying>
									<ParameterControlType>8</ParameterControlType>
									<LowerBound>0</LowerBound>
									<UpperBound>100</UpperBound>
									<value>-91445760000000000,50.,0,0,0,0,0,0</value>
								</parameter>
							</effect>
						</filter>
						<logginginfo>
							<description>description</description>
							<scene></scene>
							<shottake></shottake>
							<lognote>dis is a log note!</lognote>
							<good></good>
							<originalvideofilename></originalvideofilename>
							<originalaudiofilename></originalaudiofilename>
						</logginginfo>
						<colorinfo>
							<lut></lut>
							<lut1></lut1>
							<asc_sop></asc_sop>
							<asc_sat></asc_sat>
							<lut2></lut2>
						</colorinfo>
						<comments>
						</comments>
						<labels>
							<label2>Green</label2>
						</labels>
					</clipitem>
					<clipitem id="clipitem-445">
						<masterclipid>masterclip-52</masterclipid>
						<name>KANDAO_20180514_113822</name>
						<enabled>TRUE</enabled>
						<duration>11043</duration>
						<rate>
							<timebase>60</timebase>
							<ntsc>FALSE</ntsc>
						</rate>
						<start>4609</start>
						<end>9885</end>
						<in>0</in>
						<out>5276</out>
						<pproTicksIn>0</pproTicksIn>
						<pproTicksOut>22336473600000</pproTicksOut>
						<alphatype>none</alphatype>
						<pixelaspectratio>square</pixelaspectratio>
						<anamorphic>FALSE</anamorphic>
						<file id="file-52">
							<name>KANDAO_20180514_113822_v001_0001.png</name>
							<pathurl>file://localhost/G%3a/Departments/_Post/__Projects/035_Chimps_Part_2/6.VFX/KANDAO_20180508_113822/KANDAO_20180508_113822_v001/KANDAO_20180514_113822_v001_0001.png</pathurl>
							<rate>
								<timebase>60</timebase>
								<ntsc>FALSE</ntsc>
							</rate>
							<duration>5516</duration>
							<timecode>
								<rate>
									<timebase>60</timebase>
									<ntsc>FALSE</ntsc>
								</rate>
								<string>00:00:00:00</string>
								<frame>0</frame>
								<displayformat>NDF</displayformat>
							</timecode>
							<media>
								<video>
									<samplecharacteristics>
										<rate>
											<timebase>60</timebase>
											<ntsc>FALSE</ntsc>
										</rate>
										<width>3840</width>
										<height>3840</height>
										<anamorphic>FALSE</anamorphic>
										<pixelaspectratio>square</pixelaspectratio>
										<fielddominance>none</fielddominance>
									</samplecharacteristics>
								</video>
							</media>
						</file>
						<filter>
							<effect>
								<name></name>
								<effectid>Lumetri</effectid>
								<effecttype>filter</effecttype>
								<mediatype>video</mediatype>
								<pproBypass>false</pproBypass>
								<parameter authoringApp="PremierePro">
									<parameterid>1</parameterid>
									<name>Blob</name>
									<hash>63866a15-9327-e4cb-ff31-c9ea0000000e</hash>
								</parameter>
								<parameter authoringApp="PremierePro">
									<parameterid>3</parameterid>
									<name> </name>
									<IsTimeVarying>false</IsTimeVarying>
									<ParameterControlType>4</ParameterControlType>
									<LowerBound>false</LowerBound>
									<UpperBound>true</UpperBound>
									<value>-91445760000000000,true,0,0,0,0,0,0</value>
								</parameter>
								<parameter authoringApp="PremierePro">
									<parameterid>4</parameterid>
									<name> </name>
									<hash>63866a15-9327-e4cb-ff31-c9ea0000000e</hash>
								</parameter>
								<parameter authoringApp="PremierePro">
									<parameterid>5</parameterid>
									<name>Input LUT</name>
									<IsTimeVarying>false</IsTimeVarying>
									<ParameterControlType>7</ParameterControlType>
									<LowerBound>0</LowerBound>
									<UpperBound>998</UpperBound>
									<value>-91445760000000000,0,0,0,0,0,0,0</value>
								</parameter>
								<parameter authoringApp="PremierePro">
									<parameterid>7</parameterid>
									<name>Temperature</name>
									<IsTimeVarying>false</IsTimeVarying>
									<ParameterControlType>8</ParameterControlType>
									<LowerBound>-300</LowerBound>
									<UpperBound>300</UpperBound>
									<LowerUIBound>-100</LowerUIBound>
									<UpperUIBound>100</UpperUIBound>
									<value>-91445760000000000,0.,0,0,0,0,0,0</value>
								</parameter>
								<parameter authoringApp="PremierePro">
									<parameterid>8</parameterid>
									<name>Tint</name>
									<IsTimeVarying>false</IsTimeVarying>
									<ParameterControlType>8</ParameterControlType>
									<LowerBound>-300</LowerBound>
									<UpperBound>300</UpperBound>
									<LowerUIBound>-100</LowerUIBound>
									<UpperUIBound>100</UpperUIBound>
									<value>-91445760000000000,0.,0,0,0,0,0,0</value>
								</parameter>
								<parameter authoringApp="PremierePro">
									<parameterid>11</parameterid>
									<name>Exposure</name>
									<IsTimeVarying>false</IsTimeVarying>
									<ParameterControlType>8</ParameterControlType>
									<LowerBound>-7</LowerBound>
									<UpperBound>7</UpperBound>
									<LowerUIBound>-5</LowerUIBound>
									<UpperUIBound>5</UpperUIBound>
									<value>-91445760000000000,0.,0,0,0,0,0,0</value>
								</parameter>
								<parameter authoringApp="PremierePro">
									<parameterid>12</parameterid>
									<name>Contrast</name>
									<IsTimeVarying>false</IsTimeVarying>
									<ParameterControlType>8</ParameterControlType>
									<LowerBound>-150</LowerBound>
									<UpperBound>150</UpperBound>
									<LowerUIBound>-100</LowerUIBound>
									<UpperUIBound>100</UpperUIBound>
									<value>-91445760000000000,91.80328369140625,0,0,0,0,0,0</value>
								</parameter>
								<parameter authoringApp="PremierePro">
									<parameterid>13</parameterid>
									<name>Highlights</name>
									<IsTimeVarying>false</IsTimeVarying>
									<ParameterControlType>8</ParameterControlType>
									<LowerBound>-150</LowerBound>
									<UpperBound>150</UpperBound>
									<LowerUIBound>-100</LowerUIBound>
									<UpperUIBound>100</UpperUIBound>
									<value>-91445760000000000,36.065582275390625,0,0,0,0,0,0</value>
								</parameter>
								<parameter authoringApp="PremierePro">
									<parameterid>14</parameterid>
									<name>Shadows</name>
									<IsTimeVarying>false</IsTimeVarying>
									<ParameterControlType>8</ParameterControlType>
									<LowerBound>-150</LowerBound>
									<UpperBound>150</UpperBound>
									<LowerUIBound>-100</LowerUIBound>
									<UpperUIBound>100</UpperUIBound>
									<value>-91445760000000000,0.,0,0,0,0,0,0</value>
								</parameter>
								<parameter authoringApp="PremierePro">
									<parameterid>15</parameterid>
									<name>Whites</name>
									<IsTimeVarying>false</IsTimeVarying>
									<ParameterControlType>8</ParameterControlType>
									<LowerBound>-150</LowerBound>
									<UpperBound>150</UpperBound>
									<LowerUIBound>-100</LowerUIBound>
									<UpperUIBound>100</UpperUIBound>
									<value>-91445760000000000,0.,0,0,0,0,0,0</value>
								</parameter>
								<parameter authoringApp="PremierePro">
									<parameterid>16</parameterid>
									<name>Blacks</name>
									<IsTimeVarying>false</IsTimeVarying>
									<ParameterControlType>8</ParameterControlType>
									<LowerBound>-150</LowerBound>
									<UpperBound>150</UpperBound>
									<LowerUIBound>-100</LowerUIBound>
									<UpperUIBound>100</UpperUIBound>
									<value>-91445760000000000,-55.737705230712890625,0,0,0,0,0,0</value>
								</parameter>
								<parameter authoringApp="PremierePro">
									<parameterid>20</parameterid>
									<name>Saturation</name>
									<IsTimeVarying>false</IsTimeVarying>
									<ParameterControlType>8</ParameterControlType>
									<LowerBound>0</LowerBound>
									<UpperBound>300</UpperBound>
									<UpperUIBound>200</UpperUIBound>
									<value>-91445760000000000,100.,0,0,0,0,0,0</value>
								</parameter>
								<parameter authoringApp="PremierePro">
									<parameterid>23</parameterid>
									<name> </name>
									<IsTimeVarying>false</IsTimeVarying>
									<ParameterControlType>4</ParameterControlType>
									<LowerBound>false</LowerBound>
									<UpperBound>true</UpperBound>
									<value>-91445760000000000,true,0,0,0,0,0,0</value>
								</parameter>
								<parameter authoringApp="PremierePro">
									<parameterid>24</parameterid>
									<name> </name>
									<hash>63866a15-9327-e4cb-ff31-c9ea0000000e</hash>
								</parameter>
								<parameter authoringApp="PremierePro">
									<parameterid>25</parameterid>
									<name>Look</name>
									<IsTimeVarying>false</IsTimeVarying>
									<ParameterControlType>7</ParameterControlType>
									<LowerBound>0</LowerBound>
									<UpperBound>998</UpperBound>
									<value>-91445760000000000,0,0,0,0,0,0,0</value>
								</parameter>
								<parameter authoringApp="PremierePro">
									<parameterid>26</parameterid>
									<name>Intensity</name>
									<IsTimeVarying>false</IsTimeVarying>
									<ParameterControlType>8</ParameterControlType>
									<LowerBound>0</LowerBound>
									<UpperBound>200</UpperBound>
									<value>-91445760000000000,100.,0,0,0,0,0,0</value>
								</parameter>
								<parameter authoringApp="PremierePro">
									<parameterid>28</parameterid>
									<name>Faded Film</name>
									<IsTimeVarying>false</IsTimeVarying>
									<ParameterControlType>8</ParameterControlType>
									<LowerBound>0</LowerBound>
									<UpperBound>150</UpperBound>
									<UpperUIBound>100</UpperUIBound>
									<value>-91445760000000000,0.,0,0,0,0,0,0</value>
								</parameter>
								<parameter authoringApp="PremierePro">
									<parameterid>29</parameterid>
									<name>Sharpen</name>
									<IsTimeVarying>false</IsTimeVarying>
									<ParameterControlType>8</ParameterControlType>
									<LowerBound>-100</LowerBound>
									<UpperBound>100</UpperBound>
									<value>-91445760000000000,0.,0,0,0,0,0,0</value>
								</parameter>
								<parameter authoringApp="PremierePro">
									<parameterid>30</parameterid>
									<name>Vibrance</name>
									<IsTimeVarying>false</IsTimeVarying>
									<ParameterControlType>8</ParameterControlType>
									<LowerBound>-100</LowerBound>
									<UpperBound>100</UpperBound>
									<value>-91445760000000000,0.,0,0,0,0,0,0</value>
								</parameter>
								<parameter authoringApp="PremierePro">
									<parameterid>31</parameterid>
									<name>Saturation</name>
									<IsTimeVarying>false</IsTimeVarying>
									<ParameterControlType>8</ParameterControlType>
									<LowerBound>0</LowerBound>
									<UpperBound>300</UpperBound>
									<UpperUIBound>200</UpperUIBound>
									<value>-91445760000000000,100.,0,0,0,0,0,0</value>
								</parameter>
								<parameter authoringApp="PremierePro">
									<parameterid>32</parameterid>
									<name></name>
									<hash>49d2fca5-ddd1-a393-0544-f6d80000002c</hash>
								</parameter>
								<parameter authoringApp="PremierePro">
									<parameterid>33</parameterid>
									<name>Tint Balance</name>
									<IsTimeVarying>false</IsTimeVarying>
									<ParameterControlType>8</ParameterControlType>
									<LowerBound>-150</LowerBound>
									<UpperBound>150</UpperBound>
									<LowerUIBound>-100</LowerUIBound>
									<UpperUIBound>100</UpperUIBound>
									<value>-91445760000000000,0.,0,0,0,0,0,0</value>
								</parameter>
								<parameter authoringApp="PremierePro">
									<parameterid>37</parameterid>
									<name> </name>
									<IsTimeVarying>false</IsTimeVarying>
									<ParameterControlType>4</ParameterControlType>
									<LowerBound>false</LowerBound>
									<UpperBound>true</UpperBound>
									<value>-91445760000000000,true,0,0,0,0,0,0</value>
								</parameter>
								<parameter authoringApp="PremierePro">
									<parameterid>39</parameterid>
									<name> </name>
									<hash>261f3840-e8cf-a8cd-fa5e-bac10000082c</hash>
								</parameter>
								<parameter authoringApp="PremierePro">
									<parameterid>42</parameterid>
									<name> </name>
									<hash>ccfaa4df-d630-7661-76dd-3e4900000214</hash>
								</parameter>
								<parameter authoringApp="PremierePro">
									<parameterid>46</parameterid>
									<name> </name>
									<IsTimeVarying>false</IsTimeVarying>
									<ParameterControlType>4</ParameterControlType>
									<LowerBound>false</LowerBound>
									<UpperBound>true</UpperBound>
									<value>-91445760000000000,true,0,0,0,0,0,0</value>
								</parameter>
								<parameter authoringApp="PremierePro">
									<parameterid>47</parameterid>
									<name> </name>
									<hash>0b5436c4-bae0-bb64-a2f6-c8c40000006c</hash>
								</parameter>
								<parameter authoringApp="PremierePro">
									<parameterid>50</parameterid>
									<name> </name>
									<IsTimeVarying>false</IsTimeVarying>
									<ParameterControlType>4</ParameterControlType>
									<LowerBound>false</LowerBound>
									<UpperBound>true</UpperBound>
									<value>-91445760000000000,true,0,0,0,0,0,0</value>
								</parameter>
								<parameter authoringApp="PremierePro">
									<parameterid>51</parameterid>
									<name>Amount</name>
									<IsTimeVarying>false</IsTimeVarying>
									<ParameterControlType>8</ParameterControlType>
									<LowerBound>-5</LowerBound>
									<UpperBound>5</UpperBound>
									<LowerUIBound>-3</LowerUIBound>
									<UpperUIBound>3</UpperUIBound>
									<value>-91445760000000000,0.,0,0,0,0,0,0</value>
								</parameter>
								<parameter authoringApp="PremierePro">
									<parameterid>52</parameterid>
									<name>Midpoint</name>
									<IsTimeVarying>false</IsTimeVarying>
									<ParameterControlType>8</ParameterControlType>
									<LowerBound>0</LowerBound>
									<UpperBound>100</UpperBound>
									<value>-91445760000000000,50.,0,0,0,0,0,0</value>
								</parameter>
								<parameter authoringApp="PremierePro">
									<parameterid>53</parameterid>
									<name>Roundness</name>
									<IsTimeVarying>false</IsTimeVarying>
									<ParameterControlType>8</ParameterControlType>
									<LowerBound>-100</LowerBound>
									<UpperBound>100</UpperBound>
									<value>-91445760000000000,0.,0,0,0,0,0,0</value>
								</parameter>
								<parameter authoringApp="PremierePro">
									<parameterid>54</parameterid>
									<name>Feather</name>
									<IsTimeVarying>false</IsTimeVarying>
									<ParameterControlType>8</ParameterControlType>
									<LowerBound>0</LowerBound>
									<UpperBound>100</UpperBound>
									<value>-91445760000000000,50.,0,0,0,0,0,0</value>
								</parameter>
							</effect>
						</filter>
						<logginginfo>
							<description></description>
							<scene></scene>
							<shottake></shottake>
							<lognote></lognote>
							<good></good>
							<originalvideofilename></originalvideofilename>
							<originalaudiofilename></originalaudiofilename>
						</logginginfo>
						<colorinfo>
							<lut></lut>
							<lut1></lut1>
							<asc_sop></asc_sop>
							<asc_sat></asc_sat>
							<lut2></lut2>
						</colorinfo>
						<labels>
							<label2>Green</label2>
						</labels>
					</clipitem>
					<clipitem id="clipitem-446">
						<masterclipid>masterclip-53</masterclipid>
						<name>CMP2_ZCAM0080</name>
						<enabled>TRUE</enabled>
						<duration>1799</duration>
						<rate>
							<timebase>60</timebase>
							<ntsc>FALSE</ntsc>
						</rate>
						<start>9885</start>
						<end>11447</end>
						<in>237</in>
						<out>1799</out>
						<pproTicksIn>1003363200000</pproTicksIn>
						<pproTicksOut>7616246400000</pproTicksOut>
						<alphatype>none</alphatype>
						<pixelaspectratio>square</pixelaspectratio>
						<anamorphic>FALSE</anamorphic>
						<file id="file-53">
							<name>CMP2_ZCAM0080_v001_8101.png</name>
							<pathurl>file://localhost/G%3a/Departments/_Post/__Projects/035_Chimps_Part_2/6.VFX/CMP2_ZCAM0080/CMP2_ZCAM0080_v001/CMP2_ZCAM0080_v001_8101.png</pathurl>
							<rate>
								<timebase>30</timebase>
								<ntsc>TRUE</ntsc>
							</rate>
							<duration>899</duration>
							<timecode>
								<rate>
									<timebase>30</timebase>
									<ntsc>TRUE</ntsc>
								</rate>
								<string>00:00:00:00</string>
								<frame>0</frame>
								<displayformat>NDF</displayformat>
							</timecode>
							<media>
								<video>
									<samplecharacteristics>
										<rate>
											<timebase>30</timebase>
											<ntsc>TRUE</ntsc>
										</rate>
										<width>3840</width>
										<height>3840</height>
										<anamorphic>FALSE</anamorphic>
										<pixelaspectratio>square</pixelaspectratio>
										<fielddominance>none</fielddominance>
									</samplecharacteristics>
								</video>
							</media>
						</file>
						<logginginfo>
							<description></description>
							<scene></scene>
							<shottake></shottake>
							<lognote></lognote>
							<good></good>
							<originalvideofilename></originalvideofilename>
							<originalaudiofilename></originalaudiofilename>
						</logginginfo>
						<colorinfo>
							<lut></lut>
							<lut1></lut1>
							<asc_sop></asc_sop>
							<asc_sat></asc_sat>
							<lut2></lut2>
						</colorinfo>
						<labels>
							<label2>Green</label2>
						</labels>
					</clipitem>
					<clipitem id="clipitem-447">
						<masterclipid>masterclip-54</masterclipid>
						<name>CMP2_ZCAM0081</name>
						<enabled>TRUE</enabled>
						<duration>8678</duration>
						<rate>
							<timebase>60</timebase>
							<ntsc>FALSE</ntsc>
						</rate>
						<start>11447</start>
						<end>19881</end>
						<in>3</in>
						<out>8437</out>
						<pproTicksIn>12700800000</pproTicksIn>
						<pproTicksOut>35718883200000</pproTicksOut>
						<alphatype>none</alphatype>
						<pixelaspectratio>square</pixelaspectratio>
						<anamorphic>FALSE</anamorphic>
						<file id="file-54">
							<name>CMP2_ZCAM0081_v001_0000.png</name>
							<pathurl>file://localhost/G%3a/Departments/_Post/__Projects/035_Chimps_Part_2/6.VFX/CMP2_ZCAM0081/CMP2_ZCAM0081_v001/CMP2_ZCAM0081_v001_0000.png</pathurl>
							<rate>
								<timebase>30</timebase>
								<ntsc>TRUE</ntsc>
							</rate>
							<duration>4335</duration>
							<timecode>
								<rate>
									<timebase>30</timebase>
									<ntsc>TRUE</ntsc>
								</rate>
								<string>00:00:00:00</string>
								<frame>0</frame>
								<displayformat>NDF</displayformat>
							</timecode>
							<media>
								<video>
									<samplecharacteristics>
										<rate>
											<timebase>30</timebase>
											<ntsc>TRUE</ntsc>
										</rate>
										<width>3840</width>
										<height>3840</height>
										<anamorphic>FALSE</anamorphic>
										<pixelaspectratio>square</pixelaspectratio>
										<fielddominance>none</fielddominance>
									</samplecharacteristics>
								</video>
							</media>
						</file>
						<logginginfo>
							<description></description>
							<scene></scene>
							<shottake></shottake>
							<lognote></lognote>
							<good></good>
							<originalvideofilename></originalvideofilename>
							<originalaudiofilename></originalaudiofilename>
						</logginginfo>
						<colorinfo>
							<lut></lut>
							<lut1></lut1>
							<asc_sop></asc_sop>
							<asc_sat></asc_sat>
							<lut2></lut2>
						</colorinfo>
						<labels>
							<label2>Green</label2>
						</labels>
					</clipitem>
					<clipitem id="clipitem-448">
						<masterclipid>masterclip-55</masterclipid>
						<name>0001_20180508_114122_03</name>
						<enabled>TRUE</enabled>
						<duration>10800</duration>
						<rate>
							<timebase>60</timebase>
							<ntsc>FALSE</ntsc>
						</rate>
						<start>19881</start>
						<end>22866</end>
						<in>4718</in>
						<out>7703</out>
						<pproTicksIn>19974124800000</pproTicksIn>
						<pproTicksOut>32611420800000</pproTicksOut>
						<alphatype>none</alphatype>
						<pixelaspectratio>square</pixelaspectratio>
						<anamorphic>FALSE</anamorphic>
						<file id="file-55">
							<name>0001_20180508_114122_03_60FPS_AUDIO.mp4</name>
							<pathurl>file://localhost/G%3a/Departments/_Post/__Projects/035_Chimps_Part_2/1.Raw/Ingest/project_chimps_20180508/Kandao/video/03/0001_20180508_114122_03_60FPS_AUDIO.mp4</pathurl>
							<rate>
								<timebase>60</timebase>
								<ntsc>FALSE</ntsc>
							</rate>
							<duration>10800</duration>
							<timecode>
								<rate>
									<timebase>60</timebase>
									<ntsc>FALSE</ntsc>
								</rate>
								<string>00:00:00:00</string>
								<frame>0</frame>
								<displayformat>NDF</displayformat>
							</timecode>
							<media>
								<video>
									<samplecharacteristics>
										<rate>
											<timebase>60</timebase>
											<ntsc>FALSE</ntsc>
										</rate>
										<width>3840</width>
										<height>3840</height>
										<anamorphic>FALSE</anamorphic>
										<pixelaspectratio>square</pixelaspectratio>
										<fielddominance>none</fielddominance>
									</samplecharacteristics>
								</video>
								<audio>
									<samplecharacteristics>
										<depth>16</depth>
										<samplerate>48000</samplerate>
									</samplecharacteristics>
									<channelcount>1</channelcount>
									<audiochannel>
										<sourcechannel>1</sourcechannel>
									</audiochannel>
								</audio>
							</media>
						</file>
						<filter>
							<effect>
								<name>Opacity</name>
								<effectid>opacity</effectid>
								<effectcategory>motion</effectcategory>
								<effecttype>motion</effecttype>
								<mediatype>video</mediatype>
								<pproBypass>false</pproBypass>
								<parameter authoringApp="PremierePro">
									<parameterid>opacity</parameterid>
									<name>opacity</name>
									<valuemin>0</valuemin>
									<valuemax>100</valuemax>
									<value>100</value>
									<keyframe>
										<when>4667</when>
										<value>100</value>
									</keyframe>
									<keyframe>
										<when>8382</when>
										<value>100</value>
									</keyframe>
								</parameter>
							</effect>
						</filter>
						<link>
							<linkclipref>clipitem-448</linkclipref>
							<mediatype>video</mediatype>
							<trackindex>1</trackindex>
							<clipindex>5</clipindex>
						</link>
						<link>
							<linkclipref>clipitem-544</linkclipref>
							<mediatype>audio</mediatype>
							<trackindex>1</trackindex>
							<clipindex>5</clipindex>
							<groupindex>1</groupindex>
						</link>
						<logginginfo>
							<description></description>
							<scene></scene>
							<shottake></shottake>
							<lognote></lognote>
							<good></good>
							<originalvideofilename></originalvideofilename>
							<originalaudiofilename></originalaudiofilename>
						</logginginfo>
						<colorinfo>
							<lut></lut>
							<lut1></lut1>
							<asc_sop></asc_sop>
							<asc_sat></asc_sat>
							<lut2></lut2>
						</colorinfo>
						<labels>
							<label2>Blue</label2>
						</labels>
					</clipitem>
					<clipitem id="clipitem-449">
						<masterclipid>masterclip-56</masterclipid>
						<name>CMP2_ZCAM0081_v001_5825.png</name>
						<enabled>TRUE</enabled>
						<duration>6356</duration>
						<rate>
							<timebase>60</timebase>
							<ntsc>FALSE</ntsc>
						</rate>
						<start>22866</start>
						<end>29015</end>
						<in>3</in>
						<out>6152</out>
						<pproTicksIn>12700800000</pproTicksIn>
						<pproTicksOut>26045107200000</pproTicksOut>
						<alphatype>none</alphatype>
						<pixelaspectratio>square</pixelaspectratio>
						<anamorphic>FALSE</anamorphic>
						<file id="file-56">
							<name>CMP2_ZCAM0081_v001_5825.png</name>
							<pathurl>file://localhost/G%3a/Departments/_Post/__Projects/035_Chimps_Part_2/6.VFX/CMP2_ZCAM0081/CMP2_ZCAM0081_v001/CMP2_ZCAM0081_v001_5825.png</pathurl>
							<rate>
								<timebase>30</timebase>
								<ntsc>TRUE</ntsc>
							</rate>
							<duration>3175</duration>
							<timecode>
								<rate>
									<timebase>30</timebase>
									<ntsc>TRUE</ntsc>
								</rate>
								<string>00:00:00:00</string>
								<frame>0</frame>
								<displayformat>NDF</displayformat>
							</timecode>
							<media>
								<video>
									<samplecharacteristics>
										<rate>
											<timebase>30</timebase>
											<ntsc>TRUE</ntsc>
										</rate>
										<width>3840</width>
										<height>3840</height>
										<anamorphic>FALSE</anamorphic>
										<pixelaspectratio>square</pixelaspectratio>
										<fielddominance>none</fielddominance>
									</samplecharacteristics>
								</video>
							</media>
						</file>
						<logginginfo>
							<description></description>
							<scene></scene>
							<shottake></shottake>
							<lognote></lognote>
							<good></good>
							<originalvideofilename></originalvideofilename>
							<originalaudiofilename></originalaudiofilename>
						</logginginfo>
						<colorinfo>
							<lut></lut>
							<lut1></lut1>
							<asc_sop></asc_sop>
							<asc_sat></asc_sat>
							<lut2></lut2>
						</colorinfo>
						<labels>
							<label2>Green</label2>
						</labels>
					</clipitem>
					<clipitem id="clipitem-450">
						<masterclipid>masterclip-57</masterclipid>
						<name>KANDAO_20180508_114221_v001_0001.png</name>
						<enabled>TRUE</enabled>
						<duration>2054</duration>
						<rate>
							<timebase>60</timebase>
							<ntsc>FALSE</ntsc>
						</rate>
						<start>29015</start>
						<end>29561</end>
						<in>240</in>
						<out>786</out>
						<pproTicksIn>1016064000000</pproTicksIn>
						<pproTicksOut>3327609600000</pproTicksOut>
						<alphatype>none</alphatype>
						<pixelaspectratio>square</pixelaspectratio>
						<anamorphic>FALSE</anamorphic>
						<file id="file-57">
							<name>KANDAO_20180508_114221_v001_0001.png</name>
							<pathurl>file://localhost/G%3a/Departments/_Post/__Projects/035_Chimps_Part_2/6.VFX/KANDAO_20180508_114221/KANDAO_20180508_114221_v001/KANDAO_20180508_114221_v001_0001.png</pathurl>
							<rate>
								<timebase>60</timebase>
								<ntsc>FALSE</ntsc>
							</rate>
							<duration>1026</duration>
							<timecode>
								<rate>
									<timebase>60</timebase>
									<ntsc>FALSE</ntsc>
								</rate>
								<string>00:00:00:00</string>
								<frame>0</frame>
								<displayformat>NDF</displayformat>
							</timecode>
							<media>
								<video>
									<samplecharacteristics>
										<rate>
											<timebase>60</timebase>
											<ntsc>FALSE</ntsc>
										</rate>
										<width>3840</width>
										<height>3840</height>
										<anamorphic>FALSE</anamorphic>
										<pixelaspectratio>square</pixelaspectratio>
										<fielddominance>none</fielddominance>
									</samplecharacteristics>
								</video>
							</media>
						</file>
						<filter>
							<effect>
								<name></name>
								<effectid>Lumetri</effectid>
								<effecttype>filter</effecttype>
								<mediatype>video</mediatype>
								<pproBypass>false</pproBypass>
								<parameter authoringApp="PremierePro">
									<parameterid>1</parameterid>
									<name>Blob</name>
									<hash>63866a15-9327-e4cb-ff31-c9ea0000000e</hash>
								</parameter>
								<parameter authoringApp="PremierePro">
									<parameterid>3</parameterid>
									<name> </name>
									<IsTimeVarying>false</IsTimeVarying>
									<ParameterControlType>4</ParameterControlType>
									<LowerBound>false</LowerBound>
									<UpperBound>true</UpperBound>
									<value>-91445760000000000,true,0,0,0,0,0,0</value>
								</parameter>
								<parameter authoringApp="PremierePro">
									<parameterid>4</parameterid>
									<name> </name>
									<hash>63866a15-9327-e4cb-ff31-c9ea0000000e</hash>
								</parameter>
								<parameter authoringApp="PremierePro">
									<parameterid>5</parameterid>
									<name>Input LUT</name>
									<IsTimeVarying>false</IsTimeVarying>
									<ParameterControlType>7</ParameterControlType>
									<LowerBound>0</LowerBound>
									<UpperBound>998</UpperBound>
									<value>-91445760000000000,0,0,0,0,0,0,0</value>
								</parameter>
								<parameter authoringApp="PremierePro">
									<parameterid>7</parameterid>
									<name>Temperature</name>
									<IsTimeVarying>false</IsTimeVarying>
									<ParameterControlType>8</ParameterControlType>
									<LowerBound>-300</LowerBound>
									<UpperBound>300</UpperBound>
									<LowerUIBound>-100</LowerUIBound>
									<UpperUIBound>100</UpperUIBound>
									<value>-91445760000000000,0.,0,0,0,0,0,0</value>
								</parameter>
								<parameter authoringApp="PremierePro">
									<parameterid>8</parameterid>
									<name>Tint</name>
									<IsTimeVarying>false</IsTimeVarying>
									<ParameterControlType>8</ParameterControlType>
									<LowerBound>-300</LowerBound>
									<UpperBound>300</UpperBound>
									<LowerUIBound>-100</LowerUIBound>
									<UpperUIBound>100</UpperUIBound>
									<value>-91445760000000000,0.,0,0,0,0,0,0</value>
								</parameter>
								<parameter authoringApp="PremierePro">
									<parameterid>11</parameterid>
									<name>Exposure</name>
									<IsTimeVarying>false</IsTimeVarying>
									<ParameterControlType>8</ParameterControlType>
									<LowerBound>-7</LowerBound>
									<UpperBound>7</UpperBound>
									<LowerUIBound>-5</LowerUIBound>
									<UpperUIBound>5</UpperUIBound>
									<value>-91445760000000000,0.,0,0,0,0,0,0</value>
								</parameter>
								<parameter authoringApp="PremierePro">
									<parameterid>12</parameterid>
									<name>Contrast</name>
									<IsTimeVarying>false</IsTimeVarying>
									<ParameterControlType>8</ParameterControlType>
									<LowerBound>-150</LowerBound>
									<UpperBound>150</UpperBound>
									<LowerUIBound>-100</LowerUIBound>
									<UpperUIBound>100</UpperUIBound>
									<value>-91445760000000000,91.80328369140625,0,0,0,0,0,0</value>
								</parameter>
								<parameter authoringApp="PremierePro">
									<parameterid>13</parameterid>
									<name>Highlights</name>
									<IsTimeVarying>false</IsTimeVarying>
									<ParameterControlType>8</ParameterControlType>
									<LowerBound>-150</LowerBound>
									<UpperBound>150</UpperBound>
									<LowerUIBound>-100</LowerUIBound>
									<UpperUIBound>100</UpperUIBound>
									<value>-91445760000000000,36.065582275390625,0,0,0,0,0,0</value>
								</parameter>
								<parameter authoringApp="PremierePro">
									<parameterid>14</parameterid>
									<name>Shadows</name>
									<IsTimeVarying>false</IsTimeVarying>
									<ParameterControlType>8</ParameterControlType>
									<LowerBound>-150</LowerBound>
									<UpperBound>150</UpperBound>
									<LowerUIBound>-100</LowerUIBound>
									<UpperUIBound>100</UpperUIBound>
									<value>-91445760000000000,0.,0,0,0,0,0,0</value>
								</parameter>
								<parameter authoringApp="PremierePro">
									<parameterid>15</parameterid>
									<name>Whites</name>
									<IsTimeVarying>false</IsTimeVarying>
									<ParameterControlType>8</ParameterControlType>
									<LowerBound>-150</LowerBound>
									<UpperBound>150</UpperBound>
									<LowerUIBound>-100</LowerUIBound>
									<UpperUIBound>100</UpperUIBound>
									<value>-91445760000000000,0.,0,0,0,0,0,0</value>
								</parameter>
								<parameter authoringApp="PremierePro">
									<parameterid>16</parameterid>
									<name>Blacks</name>
									<IsTimeVarying>false</IsTimeVarying>
									<ParameterControlType>8</ParameterControlType>
									<LowerBound>-150</LowerBound>
									<UpperBound>150</UpperBound>
									<LowerUIBound>-100</LowerUIBound>
									<UpperUIBound>100</UpperUIBound>
									<value>-91445760000000000,-55.737705230712890625,0,0,0,0,0,0</value>
								</parameter>
								<parameter authoringApp="PremierePro">
									<parameterid>20</parameterid>
									<name>Saturation</name>
									<IsTimeVarying>false</IsTimeVarying>
									<ParameterControlType>8</ParameterControlType>
									<LowerBound>0</LowerBound>
									<UpperBound>300</UpperBound>
									<UpperUIBound>200</UpperUIBound>
									<value>-91445760000000000,100.,0,0,0,0,0,0</value>
								</parameter>
								<parameter authoringApp="PremierePro">
									<parameterid>23</parameterid>
									<name> </name>
									<IsTimeVarying>false</IsTimeVarying>
									<ParameterControlType>4</ParameterControlType>
									<LowerBound>false</LowerBound>
									<UpperBound>true</UpperBound>
									<value>-91445760000000000,true,0,0,0,0,0,0</value>
								</parameter>
								<parameter authoringApp="PremierePro">
									<parameterid>24</parameterid>
									<name> </name>
									<hash>63866a15-9327-e4cb-ff31-c9ea0000000e</hash>
								</parameter>
								<parameter authoringApp="PremierePro">
									<parameterid>25</parameterid>
									<name>Look</name>
									<IsTimeVarying>false</IsTimeVarying>
									<ParameterControlType>7</ParameterControlType>
									<LowerBound>0</LowerBound>
									<UpperBound>998</UpperBound>
									<value>-91445760000000000,0,0,0,0,0,0,0</value>
								</parameter>
								<parameter authoringApp="PremierePro">
									<parameterid>26</parameterid>
									<name>Intensity</name>
									<IsTimeVarying>false</IsTimeVarying>
									<ParameterControlType>8</ParameterControlType>
									<LowerBound>0</LowerBound>
									<UpperBound>200</UpperBound>
									<value>-91445760000000000,100.,0,0,0,0,0,0</value>
								</parameter>
								<parameter authoringApp="PremierePro">
									<parameterid>28</parameterid>
									<name>Faded Film</name>
									<IsTimeVarying>false</IsTimeVarying>
									<ParameterControlType>8</ParameterControlType>
									<LowerBound>0</LowerBound>
									<UpperBound>150</UpperBound>
									<UpperUIBound>100</UpperUIBound>
									<value>-91445760000000000,0.,0,0,0,0,0,0</value>
								</parameter>
								<parameter authoringApp="PremierePro">
									<parameterid>29</parameterid>
									<name>Sharpen</name>
									<IsTimeVarying>false</IsTimeVarying>
									<ParameterControlType>8</ParameterControlType>
									<LowerBound>-100</LowerBound>
									<UpperBound>100</UpperBound>
									<value>-91445760000000000,0.,0,0,0,0,0,0</value>
								</parameter>
								<parameter authoringApp="PremierePro">
									<parameterid>30</parameterid>
									<name>Vibrance</name>
									<IsTimeVarying>false</IsTimeVarying>
									<ParameterControlType>8</ParameterControlType>
									<LowerBound>-100</LowerBound>
									<UpperBound>100</UpperBound>
									<value>-91445760000000000,0.,0,0,0,0,0,0</value>
								</parameter>
								<parameter authoringApp="PremierePro">
									<parameterid>31</parameterid>
									<name>Saturation</name>
									<IsTimeVarying>false</IsTimeVarying>
									<ParameterControlType>8</ParameterControlType>
									<LowerBound>0</LowerBound>
									<UpperBound>300</UpperBound>
									<UpperUIBound>200</UpperUIBound>
									<value>-91445760000000000,100.,0,0,0,0,0,0</value>
								</parameter>
								<parameter authoringApp="PremierePro">
									<parameterid>32</parameterid>
									<name></name>
									<hash>49d2fca5-ddd1-a393-0544-f6d80000002c</hash>
								</parameter>
								<parameter authoringApp="PremierePro">
									<parameterid>33</parameterid>
									<name>Tint Balance</name>
									<IsTimeVarying>false</IsTimeVarying>
									<ParameterControlType>8</ParameterControlType>
									<LowerBound>-150</LowerBound>
									<UpperBound>150</UpperBound>
									<LowerUIBound>-100</LowerUIBound>
									<UpperUIBound>100</UpperUIBound>
									<value>-91445760000000000,0.,0,0,0,0,0,0</value>
								</parameter>
								<parameter authoringApp="PremierePro">
									<parameterid>37</parameterid>
									<name> </name>
									<IsTimeVarying>false</IsTimeVarying>
									<ParameterControlType>4</ParameterControlType>
									<LowerBound>false</LowerBound>
									<UpperBound>true</UpperBound>
									<value>-91445760000000000,true,0,0,0,0,0,0</value>
								</parameter>
								<parameter authoringApp="PremierePro">
									<parameterid>39</parameterid>
									<name> </name>
									<hash>261f3840-e8cf-a8cd-fa5e-bac10000082c</hash>
								</parameter>
								<parameter authoringApp="PremierePro">
									<parameterid>42</parameterid>
									<name> </name>
									<hash>ccfaa4df-d630-7661-76dd-3e4900000214</hash>
								</parameter>
								<parameter authoringApp="PremierePro">
									<parameterid>46</parameterid>
									<name> </name>
									<IsTimeVarying>false</IsTimeVarying>
									<ParameterControlType>4</ParameterControlType>
									<LowerBound>false</LowerBound>
									<UpperBound>true</UpperBound>
									<value>-91445760000000000,true,0,0,0,0,0,0</value>
								</parameter>
								<parameter authoringApp="PremierePro">
									<parameterid>47</parameterid>
									<name> </name>
									<hash>0b5436c4-bae0-bb64-a2f6-c8c40000006c</hash>
								</parameter>
								<parameter authoringApp="PremierePro">
									<parameterid>50</parameterid>
									<name> </name>
									<IsTimeVarying>false</IsTimeVarying>
									<ParameterControlType>4</ParameterControlType>
									<LowerBound>false</LowerBound>
									<UpperBound>true</UpperBound>
									<value>-91445760000000000,true,0,0,0,0,0,0</value>
								</parameter>
								<parameter authoringApp="PremierePro">
									<parameterid>51</parameterid>
									<name>Amount</name>
									<IsTimeVarying>false</IsTimeVarying>
									<ParameterControlType>8</ParameterControlType>
									<LowerBound>-5</LowerBound>
									<UpperBound>5</UpperBound>
									<LowerUIBound>-3</LowerUIBound>
									<UpperUIBound>3</UpperUIBound>
									<value>-91445760000000000,0.,0,0,0,0,0,0</value>
								</parameter>
								<parameter authoringApp="PremierePro">
									<parameterid>52</parameterid>
									<name>Midpoint</name>
									<IsTimeVarying>false</IsTimeVarying>
									<ParameterControlType>8</ParameterControlType>
									<LowerBound>0</LowerBound>
									<UpperBound>100</UpperBound>
									<value>-91445760000000000,50.,0,0,0,0,0,0</value>
								</parameter>
								<parameter authoringApp="PremierePro">
									<parameterid>53</parameterid>
									<name>Roundness</name>
									<IsTimeVarying>false</IsTimeVarying>
									<ParameterControlType>8</ParameterControlType>
									<LowerBound>-100</LowerBound>
									<UpperBound>100</UpperBound>
									<value>-91445760000000000,0.,0,0,0,0,0,0</value>
								</parameter>
								<parameter authoringApp="PremierePro">
									<parameterid>54</parameterid>
									<name>Feather</name>
									<IsTimeVarying>false</IsTimeVarying>
									<ParameterControlType>8</ParameterControlType>
									<LowerBound>0</LowerBound>
									<UpperBound>100</UpperBound>
									<value>-91445760000000000,50.,0,0,0,0,0,0</value>
								</parameter>
							</effect>
						</filter>
						<logginginfo>
							<description></description>
							<scene></scene>
							<shottake></shottake>
							<lognote></lognote>
							<good></good>
							<originalvideofilename></originalvideofilename>
							<originalaudiofilename></originalaudiofilename>
						</logginginfo>
						<colorinfo>
							<lut></lut>
							<lut1></lut1>
							<asc_sop></asc_sop>
							<asc_sat></asc_sat>
							<lut2></lut2>
						</colorinfo>
						<labels>
							<label2>Green</label2>
						</labels>
					</clipitem>
					<clipitem id="clipitem-451">
						<masterclipid>masterclip-58</masterclipid>
						<name>0005_20180510_110814_18_60FPS_AUDIO.mp4</name>
						<enabled>TRUE</enabled>
						<duration>10801</duration>
						<rate>
							<timebase>60</timebase>
							<ntsc>FALSE</ntsc>
						</rate>
						<start>29561</start>
						<end>29562</end>
						<in>3238</in>
						<out>3239</out>
						<pproTicksIn>13708396800000</pproTicksIn>
						<pproTicksOut>13712630400000</pproTicksOut>
						<alphatype>none</alphatype>
						<pixelaspectratio>square</pixelaspectratio>
						<anamorphic>FALSE</anamorphic>
						<file id="file-58">
							<name>0005_20180510_110814_18_60FPS_AUDIO.mp4</name>
							<pathurl>file://localhost/G%3a/Departments/_Post/__Projects/035_Chimps_Part_2/1.Raw/Ingest/project_chimps_20180510/Kandao/video/18/0005_20180510_110814_18_60FPS_AUDIO.mp4</pathurl>
							<rate>
								<timebase>60</timebase>
								<ntsc>FALSE</ntsc>
							</rate>
							<duration>10801</duration>
							<timecode>
								<rate>
									<timebase>60</timebase>
									<ntsc>FALSE</ntsc>
								</rate>
								<string>00:00:00:00</string>
								<frame>0</frame>
								<displayformat>NDF</displayformat>
							</timecode>
							<media>
								<video>
									<samplecharacteristics>
										<rate>
											<timebase>60</timebase>
											<ntsc>FALSE</ntsc>
										</rate>
										<width>3840</width>
										<height>3840</height>
										<anamorphic>FALSE</anamorphic>
										<pixelaspectratio>square</pixelaspectratio>
										<fielddominance>none</fielddominance>
									</samplecharacteristics>
								</video>
								<audio>
									<samplecharacteristics>
										<depth>16</depth>
										<samplerate>48000</samplerate>
									</samplecharacteristics>
									<channelcount>1</channelcount>
									<audiochannel>
										<sourcechannel>1</sourcechannel>
									</audiochannel>
								</audio>
							</media>
						</file>
						<filter>
							<effect>
								<name>Opacity</name>
								<effectid>opacity</effectid>
								<effectcategory>motion</effectcategory>
								<effecttype>motion</effecttype>
								<mediatype>video</mediatype>
								<pproBypass>false</pproBypass>
								<parameter authoringApp="PremierePro">
									<parameterid>opacity</parameterid>
									<name>opacity</name>
									<valuemin>0</valuemin>
									<valuemax>100</valuemax>
									<value>100</value>
									<keyframe>
										<when>0</when>
										<value>100</value>
									</keyframe>
									<keyframe>
										<when>6529</when>
										<value>100</value>
									</keyframe>
								</parameter>
							</effect>
						</filter>
						<link>
							<linkclipref>clipitem-451</linkclipref>
							<mediatype>video</mediatype>
							<trackindex>1</trackindex>
							<clipindex>8</clipindex>
						</link>
						<link>
							<linkclipref>clipitem-547</linkclipref>
							<mediatype>audio</mediatype>
							<trackindex>1</trackindex>
							<clipindex>8</clipindex>
							<groupindex>1</groupindex>
						</link>
						<logginginfo>
							<description></description>
							<scene></scene>
							<shottake></shottake>
							<lognote></lognote>
							<good></good>
							<originalvideofilename></originalvideofilename>
							<originalaudiofilename></originalaudiofilename>
						</logginginfo>
						<colorinfo>
							<lut></lut>
							<lut1></lut1>
							<asc_sop></asc_sop>
							<asc_sat></asc_sat>
							<lut2></lut2>
						</colorinfo>
						<labels>
							<label2>Tan</label2>
						</labels>
					</clipitem>
					<clipitem id="clipitem-452">
						<masterclipid>masterclip-59</masterclipid>
						<name>KANDAO_20180510_110814_v001_0001.png</name>
						<enabled>TRUE</enabled>
						<duration>5493</duration>
						<rate>
							<timebase>60</timebase>
							<ntsc>FALSE</ntsc>
						</rate>
						<start>29562</start>
						<end>31823</end>
						<in>240</in>
						<out>2501</out>
						<pproTicksIn>1016064000000</pproTicksIn>
						<pproTicksOut>10588233600000</pproTicksOut>
						<alphatype>none</alphatype>
						<pixelaspectratio>square</pixelaspectratio>
						<anamorphic>FALSE</anamorphic>
						<file id="file-59">
							<name>KANDAO_20180510_110814_v001_0001.png</name>
							<pathurl>file://localhost/G%3a/Departments/_Post/__Projects/035_Chimps_Part_2/6.VFX/KANDAO_20180510_110814/KANDAO_20180510_110814_v001/KANDAO_20180510_110814_v001_0001.png</pathurl>
							<rate>
								<timebase>60</timebase>
								<ntsc>FALSE</ntsc>
							</rate>
							<duration>2744</duration>
							<timecode>
								<rate>
									<timebase>60</timebase>
									<ntsc>FALSE</ntsc>
								</rate>
								<string>00:00:00:00</string>
								<frame>0</frame>
								<displayformat>NDF</displayformat>
							</timecode>
							<media>
								<video>
									<samplecharacteristics>
										<rate>
											<timebase>60</timebase>
											<ntsc>FALSE</ntsc>
										</rate>
										<width>3840</width>
										<height>3840</height>
										<anamorphic>FALSE</anamorphic>
										<pixelaspectratio>square</pixelaspectratio>
										<fielddominance>none</fielddominance>
									</samplecharacteristics>
								</video>
							</media>
						</file>
						<filter>
							<effect>
								<name></name>
								<effectid>Lumetri</effectid>
								<effecttype>filter</effecttype>
								<mediatype>video</mediatype>
								<pproBypass>false</pproBypass>
								<parameter authoringApp="PremierePro">
									<parameterid>1</parameterid>
									<name>Blob</name>
									<hash>63866a15-9327-e4cb-ff31-c9ea0000000e</hash>
								</parameter>
								<parameter authoringApp="PremierePro">
									<parameterid>3</parameterid>
									<name> </name>
									<IsTimeVarying>false</IsTimeVarying>
									<ParameterControlType>4</ParameterControlType>
									<LowerBound>false</LowerBound>
									<UpperBound>true</UpperBound>
									<value>-91445760000000000,true,0,0,0,0,0,0</value>
								</parameter>
								<parameter authoringApp="PremierePro">
									<parameterid>4</parameterid>
									<name> </name>
									<hash>63866a15-9327-e4cb-ff31-c9ea0000000e</hash>
								</parameter>
								<parameter authoringApp="PremierePro">
									<parameterid>5</parameterid>
									<name>Input LUT</name>
									<IsTimeVarying>false</IsTimeVarying>
									<ParameterControlType>7</ParameterControlType>
									<LowerBound>0</LowerBound>
									<UpperBound>998</UpperBound>
									<value>-91445760000000000,0,0,0,0,0,0,0</value>
								</parameter>
								<parameter authoringApp="PremierePro">
									<parameterid>7</parameterid>
									<name>Temperature</name>
									<IsTimeVarying>false</IsTimeVarying>
									<ParameterControlType>8</ParameterControlType>
									<LowerBound>-300</LowerBound>
									<UpperBound>300</UpperBound>
									<LowerUIBound>-100</LowerUIBound>
									<UpperUIBound>100</UpperUIBound>
									<value>-91445760000000000,0.,0,0,0,0,0,0</value>
								</parameter>
								<parameter authoringApp="PremierePro">
									<parameterid>8</parameterid>
									<name>Tint</name>
									<IsTimeVarying>false</IsTimeVarying>
									<ParameterControlType>8</ParameterControlType>
									<LowerBound>-300</LowerBound>
									<UpperBound>300</UpperBound>
									<LowerUIBound>-100</LowerUIBound>
									<UpperUIBound>100</UpperUIBound>
									<value>-91445760000000000,0.,0,0,0,0,0,0</value>
								</parameter>
								<parameter authoringApp="PremierePro">
									<parameterid>11</parameterid>
									<name>Exposure</name>
									<IsTimeVarying>false</IsTimeVarying>
									<ParameterControlType>8</ParameterControlType>
									<LowerBound>-7</LowerBound>
									<UpperBound>7</UpperBound>
									<LowerUIBound>-5</LowerUIBound>
									<UpperUIBound>5</UpperUIBound>
									<value>-91445760000000000,0.,0,0,0,0,0,0</value>
								</parameter>
								<parameter authoringApp="PremierePro">
									<parameterid>12</parameterid>
									<name>Contrast</name>
									<IsTimeVarying>false</IsTimeVarying>
									<ParameterControlType>8</ParameterControlType>
									<LowerBound>-150</LowerBound>
									<UpperBound>150</UpperBound>
									<LowerUIBound>-100</LowerUIBound>
									<UpperUIBound>100</UpperUIBound>
									<value>-91445760000000000,68.8524627685546875,0,0,0,0,0,0</value>
								</parameter>
								<parameter authoringApp="PremierePro">
									<parameterid>13</parameterid>
									<name>Highlights</name>
									<IsTimeVarying>false</IsTimeVarying>
									<ParameterControlType>8</ParameterControlType>
									<LowerBound>-150</LowerBound>
									<UpperBound>150</UpperBound>
									<LowerUIBound>-100</LowerUIBound>
									<UpperUIBound>100</UpperUIBound>
									<value>-91445760000000000,36.065582275390625,0,0,0,0,0,0</value>
								</parameter>
								<parameter authoringApp="PremierePro">
									<parameterid>14</parameterid>
									<name>Shadows</name>
									<IsTimeVarying>false</IsTimeVarying>
									<ParameterControlType>8</ParameterControlType>
									<LowerBound>-150</LowerBound>
									<UpperBound>150</UpperBound>
									<LowerUIBound>-100</LowerUIBound>
									<UpperUIBound>100</UpperUIBound>
									<value>-91445760000000000,0.,0,0,0,0,0,0</value>
								</parameter>
								<parameter authoringApp="PremierePro">
									<parameterid>15</parameterid>
									<name>Whites</name>
									<IsTimeVarying>false</IsTimeVarying>
									<ParameterControlType>8</ParameterControlType>
									<LowerBound>-150</LowerBound>
									<UpperBound>150</UpperBound>
									<LowerUIBound>-100</LowerUIBound>
									<UpperUIBound>100</UpperUIBound>
									<value>-91445760000000000,0.,0,0,0,0,0,0</value>
								</parameter>
								<parameter authoringApp="PremierePro">
									<parameterid>16</parameterid>
									<name>Blacks</name>
									<IsTimeVarying>false</IsTimeVarying>
									<ParameterControlType>8</ParameterControlType>
									<LowerBound>-150</LowerBound>
									<UpperBound>150</UpperBound>
									<LowerUIBound>-100</LowerUIBound>
									<UpperUIBound>100</UpperUIBound>
									<value>-91445760000000000,-24.5901641845703125,0,0,0,0,0,0</value>
								</parameter>
								<parameter authoringApp="PremierePro">
									<parameterid>20</parameterid>
									<name>Saturation</name>
									<IsTimeVarying>false</IsTimeVarying>
									<ParameterControlType>8</ParameterControlType>
									<LowerBound>0</LowerBound>
									<UpperBound>300</UpperBound>
									<UpperUIBound>200</UpperUIBound>
									<value>-91445760000000000,100.,0,0,0,0,0,0</value>
								</parameter>
								<parameter authoringApp="PremierePro">
									<parameterid>23</parameterid>
									<name> </name>
									<IsTimeVarying>false</IsTimeVarying>
									<ParameterControlType>4</ParameterControlType>
									<LowerBound>false</LowerBound>
									<UpperBound>true</UpperBound>
									<value>-91445760000000000,true,0,0,0,0,0,0</value>
								</parameter>
								<parameter authoringApp="PremierePro">
									<parameterid>24</parameterid>
									<name> </name>
									<hash>63866a15-9327-e4cb-ff31-c9ea0000000e</hash>
								</parameter>
								<parameter authoringApp="PremierePro">
									<parameterid>25</parameterid>
									<name>Look</name>
									<IsTimeVarying>false</IsTimeVarying>
									<ParameterControlType>7</ParameterControlType>
									<LowerBound>0</LowerBound>
									<UpperBound>998</UpperBound>
									<value>-91445760000000000,0,0,0,0,0,0,0</value>
								</parameter>
								<parameter authoringApp="PremierePro">
									<parameterid>26</parameterid>
									<name>Intensity</name>
									<IsTimeVarying>false</IsTimeVarying>
									<ParameterControlType>8</ParameterControlType>
									<LowerBound>0</LowerBound>
									<UpperBound>200</UpperBound>
									<value>-91445760000000000,100.,0,0,0,0,0,0</value>
								</parameter>
								<parameter authoringApp="PremierePro">
									<parameterid>28</parameterid>
									<name>Faded Film</name>
									<IsTimeVarying>false</IsTimeVarying>
									<ParameterControlType>8</ParameterControlType>
									<LowerBound>0</LowerBound>
									<UpperBound>150</UpperBound>
									<UpperUIBound>100</UpperUIBound>
									<value>-91445760000000000,0.,0,0,0,0,0,0</value>
								</parameter>
								<parameter authoringApp="PremierePro">
									<parameterid>29</parameterid>
									<name>Sharpen</name>
									<IsTimeVarying>false</IsTimeVarying>
									<ParameterControlType>8</ParameterControlType>
									<LowerBound>-100</LowerBound>
									<UpperBound>100</UpperBound>
									<value>-91445760000000000,0.,0,0,0,0,0,0</value>
								</parameter>
								<parameter authoringApp="PremierePro">
									<parameterid>30</parameterid>
									<name>Vibrance</name>
									<IsTimeVarying>false</IsTimeVarying>
									<ParameterControlType>8</ParameterControlType>
									<LowerBound>-100</LowerBound>
									<UpperBound>100</UpperBound>
									<value>-91445760000000000,0.,0,0,0,0,0,0</value>
								</parameter>
								<parameter authoringApp="PremierePro">
									<parameterid>31</parameterid>
									<name>Saturation</name>
									<IsTimeVarying>false</IsTimeVarying>
									<ParameterControlType>8</ParameterControlType>
									<LowerBound>0</LowerBound>
									<UpperBound>300</UpperBound>
									<UpperUIBound>200</UpperUIBound>
									<value>-91445760000000000,100.,0,0,0,0,0,0</value>
								</parameter>
								<parameter authoringApp="PremierePro">
									<parameterid>32</parameterid>
									<name></name>
									<hash>49d2fca5-ddd1-a393-0544-f6d80000002c</hash>
								</parameter>
								<parameter authoringApp="PremierePro">
									<parameterid>33</parameterid>
									<name>Tint Balance</name>
									<IsTimeVarying>false</IsTimeVarying>
									<ParameterControlType>8</ParameterControlType>
									<LowerBound>-150</LowerBound>
									<UpperBound>150</UpperBound>
									<LowerUIBound>-100</LowerUIBound>
									<UpperUIBound>100</UpperUIBound>
									<value>-91445760000000000,0.,0,0,0,0,0,0</value>
								</parameter>
								<parameter authoringApp="PremierePro">
									<parameterid>37</parameterid>
									<name> </name>
									<IsTimeVarying>false</IsTimeVarying>
									<ParameterControlType>4</ParameterControlType>
									<LowerBound>false</LowerBound>
									<UpperBound>true</UpperBound>
									<value>-91445760000000000,true,0,0,0,0,0,0</value>
								</parameter>
								<parameter authoringApp="PremierePro">
									<parameterid>39</parameterid>
									<name> </name>
									<hash>261f3840-e8cf-a8cd-fa5e-bac10000082c</hash>
								</parameter>
								<parameter authoringApp="PremierePro">
									<parameterid>42</parameterid>
									<name> </name>
									<hash>ccfaa4df-d630-7661-76dd-3e4900000214</hash>
								</parameter>
								<parameter authoringApp="PremierePro">
									<parameterid>46</parameterid>
									<name> </name>
									<IsTimeVarying>false</IsTimeVarying>
									<ParameterControlType>4</ParameterControlType>
									<LowerBound>false</LowerBound>
									<UpperBound>true</UpperBound>
									<value>-91445760000000000,true,0,0,0,0,0,0</value>
								</parameter>
								<parameter authoringApp="PremierePro">
									<parameterid>47</parameterid>
									<name> </name>
									<hash>0b5436c4-bae0-bb64-a2f6-c8c40000006c</hash>
								</parameter>
								<parameter authoringApp="PremierePro">
									<parameterid>50</parameterid>
									<name> </name>
									<IsTimeVarying>false</IsTimeVarying>
									<ParameterControlType>4</ParameterControlType>
									<LowerBound>false</LowerBound>
									<UpperBound>true</UpperBound>
									<value>-91445760000000000,true,0,0,0,0,0,0</value>
								</parameter>
								<parameter authoringApp="PremierePro">
									<parameterid>51</parameterid>
									<name>Amount</name>
									<IsTimeVarying>false</IsTimeVarying>
									<ParameterControlType>8</ParameterControlType>
									<LowerBound>-5</LowerBound>
									<UpperBound>5</UpperBound>
									<LowerUIBound>-3</LowerUIBound>
									<UpperUIBound>3</UpperUIBound>
									<value>-91445760000000000,0.,0,0,0,0,0,0</value>
								</parameter>
								<parameter authoringApp="PremierePro">
									<parameterid>52</parameterid>
									<name>Midpoint</name>
									<IsTimeVarying>false</IsTimeVarying>
									<ParameterControlType>8</ParameterControlType>
									<LowerBound>0</LowerBound>
									<UpperBound>100</UpperBound>
									<value>-91445760000000000,50.,0,0,0,0,0,0</value>
								</parameter>
								<parameter authoringApp="PremierePro">
									<parameterid>53</parameterid>
									<name>Roundness</name>
									<IsTimeVarying>false</IsTimeVarying>
									<ParameterControlType>8</ParameterControlType>
									<LowerBound>-100</LowerBound>
									<UpperBound>100</UpperBound>
									<value>-91445760000000000,0.,0,0,0,0,0,0</value>
								</parameter>
								<parameter authoringApp="PremierePro">
									<parameterid>54</parameterid>
									<name>Feather</name>
									<IsTimeVarying>false</IsTimeVarying>
									<ParameterControlType>8</ParameterControlType>
									<LowerBound>0</LowerBound>
									<UpperBound>100</UpperBound>
									<value>-91445760000000000,50.,0,0,0,0,0,0</value>
								</parameter>
							</effect>
						</filter>
						<logginginfo>
							<description></description>
							<scene></scene>
							<shottake></shottake>
							<lognote></lognote>
							<good></good>
							<originalvideofilename></originalvideofilename>
							<originalaudiofilename></originalaudiofilename>
						</logginginfo>
						<colorinfo>
							<lut></lut>
							<lut1></lut1>
							<asc_sop></asc_sop>
							<asc_sat></asc_sat>
							<lut2></lut2>
						</colorinfo>
						<labels>
							<label2>Green</label2>
						</labels>
					</clipitem>
					<clipitem id="clipitem-453">
						<masterclipid>masterclip-58</masterclipid>
						<name>0005_20180510_110814_18_60FPS_AUDIO.mp4</name>
						<enabled>TRUE</enabled>
						<duration>10801</duration>
						<rate>
							<timebase>60</timebase>
							<ntsc>FALSE</ntsc>
						</rate>
						<start>31823</start>
						<end>31825</end>
						<in>5500</in>
						<out>5502</out>
						<pproTicksIn>23284800000000</pproTicksIn>
						<pproTicksOut>23293267200000</pproTicksOut>
						<alphatype>none</alphatype>
						<file id="file-58"/>
						<filter>
							<effect>
								<name>Opacity</name>
								<effectid>opacity</effectid>
								<effectcategory>motion</effectcategory>
								<effecttype>motion</effecttype>
								<mediatype>video</mediatype>
								<pproBypass>false</pproBypass>
								<parameter authoringApp="PremierePro">
									<parameterid>opacity</parameterid>
									<name>opacity</name>
									<valuemin>0</valuemin>
									<valuemax>100</valuemax>
									<value>100</value>
									<keyframe>
										<when>0</when>
										<value>100</value>
									</keyframe>
									<keyframe>
										<when>6529</when>
										<value>100</value>
									</keyframe>
								</parameter>
							</effect>
						</filter>
						<logginginfo>
							<description></description>
							<scene></scene>
							<shottake></shottake>
							<lognote></lognote>
							<good></good>
							<originalvideofilename></originalvideofilename>
							<originalaudiofilename></originalaudiofilename>
						</logginginfo>
						<colorinfo>
							<lut></lut>
							<lut1></lut1>
							<asc_sop></asc_sop>
							<asc_sat></asc_sat>
							<lut2></lut2>
						</colorinfo>
						<labels>
							<label2>Tan</label2>
						</labels>
					</clipitem>
					<clipitem id="clipitem-454">
						<masterclipid>masterclip-60</masterclipid>
						<name>CMP2_ZCAM0084_v001_1774.png</name>
						<enabled>TRUE</enabled>
						<duration>6826</duration>
						<rate>
							<timebase>60</timebase>
							<ntsc>FALSE</ntsc>
						</rate>
						<start>31825</start>
						<end>38170</end>
						<in>243</in>
						<out>6588</out>
						<pproTicksIn>1028764800000</pproTicksIn>
						<pproTicksOut>27890956800000</pproTicksOut>
						<alphatype>none</alphatype>
						<pixelaspectratio>square</pixelaspectratio>
						<anamorphic>FALSE</anamorphic>
						<file id="file-60">
							<name>CMP2_ZCAM0084_v001_1774.png</name>
							<pathurl>file://localhost/G%3a/Departments/_Post/__Projects/035_Chimps_Part_2/6.VFX/CMP2_ZCAM0084/CMP2_ZCAM0084_v001/CMP2_ZCAM0084_v001_1774.png</pathurl>
							<rate>
								<timebase>30</timebase>
								<ntsc>TRUE</ntsc>
							</rate>
							<duration>3410</duration>
							<timecode>
								<rate>
									<timebase>30</timebase>
									<ntsc>TRUE</ntsc>
								</rate>
								<string>00:00:00:00</string>
								<frame>0</frame>
								<displayformat>NDF</displayformat>
							</timecode>
							<media>
								<video>
									<samplecharacteristics>
										<rate>
											<timebase>30</timebase>
											<ntsc>TRUE</ntsc>
										</rate>
										<width>3840</width>
										<height>3840</height>
										<anamorphic>FALSE</anamorphic>
										<pixelaspectratio>square</pixelaspectratio>
										<fielddominance>none</fielddominance>
									</samplecharacteristics>
								</video>
							</media>
						</file>
						<logginginfo>
							<description></description>
							<scene></scene>
							<shottake></shottake>
							<lognote></lognote>
							<good></good>
							<originalvideofilename></originalvideofilename>
							<originalaudiofilename></originalaudiofilename>
						</logginginfo>
						<colorinfo>
							<lut></lut>
							<lut1></lut1>
							<asc_sop></asc_sop>
							<asc_sat></asc_sat>
							<lut2></lut2>
						</colorinfo>
						<labels>
							<label2>Green</label2>
						</labels>
					</clipitem>
					<clipitem id="clipitem-455">
						<masterclipid>masterclip-61</masterclipid>
						<name>KANDAO_20180508_120345_v001_0001.png</name>
						<enabled>TRUE</enabled>
						<duration>798</duration>
						<rate>
							<timebase>60</timebase>
							<ntsc>FALSE</ntsc>
						</rate>
						<start>38170</start>
						<end>38332</end>
						<in>237</in>
						<out>399</out>
						<pproTicksIn>1003363200000</pproTicksIn>
						<pproTicksOut>1689206400000</pproTicksOut>
						<alphatype>none</alphatype>
						<pixelaspectratio>square</pixelaspectratio>
						<anamorphic>FALSE</anamorphic>
						<file id="file-61">
							<name>KANDAO_20180508_120345_v001_0001.png</name>
							<pathurl>file://localhost/G%3a/Departments/_Post/__Projects/035_Chimps_Part_2/6.VFX/KANDAO_20180508_120345/KANDAO_20180508_120345_v001/KANDAO_20180508_120345_v001_0001.png</pathurl>
							<rate>
								<timebase>60</timebase>
								<ntsc>FALSE</ntsc>
							</rate>
							<duration>399</duration>
							<timecode>
								<rate>
									<timebase>60</timebase>
									<ntsc>FALSE</ntsc>
								</rate>
								<string>00:00:00:00</string>
								<frame>0</frame>
								<displayformat>NDF</displayformat>
							</timecode>
							<media>
								<video>
									<samplecharacteristics>
										<rate>
											<timebase>60</timebase>
											<ntsc>FALSE</ntsc>
										</rate>
										<width>3840</width>
										<height>3840</height>
										<anamorphic>FALSE</anamorphic>
										<pixelaspectratio>square</pixelaspectratio>
										<fielddominance>none</fielddominance>
									</samplecharacteristics>
								</video>
							</media>
						</file>
						<filter>
							<effect>
								<name></name>
								<effectid>Lumetri</effectid>
								<effecttype>filter</effecttype>
								<mediatype>video</mediatype>
								<pproBypass>false</pproBypass>
								<parameter authoringApp="PremierePro">
									<parameterid>1</parameterid>
									<name>Blob</name>
									<hash>63866a15-9327-e4cb-ff31-c9ea0000000e</hash>
								</parameter>
								<parameter authoringApp="PremierePro">
									<parameterid>3</parameterid>
									<name> </name>
									<IsTimeVarying>false</IsTimeVarying>
									<ParameterControlType>4</ParameterControlType>
									<LowerBound>false</LowerBound>
									<UpperBound>true</UpperBound>
									<value>-91445760000000000,true,0,0,0,0,0,0</value>
								</parameter>
								<parameter authoringApp="PremierePro">
									<parameterid>4</parameterid>
									<name> </name>
									<hash>63866a15-9327-e4cb-ff31-c9ea0000000e</hash>
								</parameter>
								<parameter authoringApp="PremierePro">
									<parameterid>5</parameterid>
									<name>Input LUT</name>
									<IsTimeVarying>false</IsTimeVarying>
									<ParameterControlType>7</ParameterControlType>
									<LowerBound>0</LowerBound>
									<UpperBound>998</UpperBound>
									<value>-91445760000000000,0,0,0,0,0,0,0</value>
								</parameter>
								<parameter authoringApp="PremierePro">
									<parameterid>7</parameterid>
									<name>Temperature</name>
									<IsTimeVarying>false</IsTimeVarying>
									<ParameterControlType>8</ParameterControlType>
									<LowerBound>-300</LowerBound>
									<UpperBound>300</UpperBound>
									<LowerUIBound>-100</LowerUIBound>
									<UpperUIBound>100</UpperUIBound>
									<value>-91445760000000000,0.,0,0,0,0,0,0</value>
								</parameter>
								<parameter authoringApp="PremierePro">
									<parameterid>8</parameterid>
									<name>Tint</name>
									<IsTimeVarying>false</IsTimeVarying>
									<ParameterControlType>8</ParameterControlType>
									<LowerBound>-300</LowerBound>
									<UpperBound>300</UpperBound>
									<LowerUIBound>-100</LowerUIBound>
									<UpperUIBound>100</UpperUIBound>
									<value>-91445760000000000,0.,0,0,0,0,0,0</value>
								</parameter>
								<parameter authoringApp="PremierePro">
									<parameterid>11</parameterid>
									<name>Exposure</name>
									<IsTimeVarying>false</IsTimeVarying>
									<ParameterControlType>8</ParameterControlType>
									<LowerBound>-7</LowerBound>
									<UpperBound>7</UpperBound>
									<LowerUIBound>-5</LowerUIBound>
									<UpperUIBound>5</UpperUIBound>
									<value>-91445760000000000,0.,0,0,0,0,0,0</value>
								</parameter>
								<parameter authoringApp="PremierePro">
									<parameterid>12</parameterid>
									<name>Contrast</name>
									<IsTimeVarying>false</IsTimeVarying>
									<ParameterControlType>8</ParameterControlType>
									<LowerBound>-150</LowerBound>
									<UpperBound>150</UpperBound>
									<LowerUIBound>-100</LowerUIBound>
									<UpperUIBound>100</UpperUIBound>
									<value>-91445760000000000,91.80328369140625,0,0,0,0,0,0</value>
								</parameter>
								<parameter authoringApp="PremierePro">
									<parameterid>13</parameterid>
									<name>Highlights</name>
									<IsTimeVarying>false</IsTimeVarying>
									<ParameterControlType>8</ParameterControlType>
									<LowerBound>-150</LowerBound>
									<UpperBound>150</UpperBound>
									<LowerUIBound>-100</LowerUIBound>
									<UpperUIBound>100</UpperUIBound>
									<value>-91445760000000000,36.065582275390625,0,0,0,0,0,0</value>
								</parameter>
								<parameter authoringApp="PremierePro">
									<parameterid>14</parameterid>
									<name>Shadows</name>
									<IsTimeVarying>false</IsTimeVarying>
									<ParameterControlType>8</ParameterControlType>
									<LowerBound>-150</LowerBound>
									<UpperBound>150</UpperBound>
									<LowerUIBound>-100</LowerUIBound>
									<UpperUIBound>100</UpperUIBound>
									<value>-91445760000000000,0.,0,0,0,0,0,0</value>
								</parameter>
								<parameter authoringApp="PremierePro">
									<parameterid>15</parameterid>
									<name>Whites</name>
									<IsTimeVarying>false</IsTimeVarying>
									<ParameterControlType>8</ParameterControlType>
									<LowerBound>-150</LowerBound>
									<UpperBound>150</UpperBound>
									<LowerUIBound>-100</LowerUIBound>
									<UpperUIBound>100</UpperUIBound>
									<value>-91445760000000000,0.,0,0,0,0,0,0</value>
								</parameter>
								<parameter authoringApp="PremierePro">
									<parameterid>16</parameterid>
									<name>Blacks</name>
									<IsTimeVarying>false</IsTimeVarying>
									<ParameterControlType>8</ParameterControlType>
									<LowerBound>-150</LowerBound>
									<UpperBound>150</UpperBound>
									<LowerUIBound>-100</LowerUIBound>
									<UpperUIBound>100</UpperUIBound>
									<value>-91445760000000000,-55.737705230712890625,0,0,0,0,0,0</value>
								</parameter>
								<parameter authoringApp="PremierePro">
									<parameterid>20</parameterid>
									<name>Saturation</name>
									<IsTimeVarying>false</IsTimeVarying>
									<ParameterControlType>8</ParameterControlType>
									<LowerBound>0</LowerBound>
									<UpperBound>300</UpperBound>
									<UpperUIBound>200</UpperUIBound>
									<value>-91445760000000000,100.,0,0,0,0,0,0</value>
								</parameter>
								<parameter authoringApp="PremierePro">
									<parameterid>23</parameterid>
									<name> </name>
									<IsTimeVarying>false</IsTimeVarying>
									<ParameterControlType>4</ParameterControlType>
									<LowerBound>false</LowerBound>
									<UpperBound>true</UpperBound>
									<value>-91445760000000000,true,0,0,0,0,0,0</value>
								</parameter>
								<parameter authoringApp="PremierePro">
									<parameterid>24</parameterid>
									<name> </name>
									<hash>63866a15-9327-e4cb-ff31-c9ea0000000e</hash>
								</parameter>
								<parameter authoringApp="PremierePro">
									<parameterid>25</parameterid>
									<name>Look</name>
									<IsTimeVarying>false</IsTimeVarying>
									<ParameterControlType>7</ParameterControlType>
									<LowerBound>0</LowerBound>
									<UpperBound>998</UpperBound>
									<value>-91445760000000000,0,0,0,0,0,0,0</value>
								</parameter>
								<parameter authoringApp="PremierePro">
									<parameterid>26</parameterid>
									<name>Intensity</name>
									<IsTimeVarying>false</IsTimeVarying>
									<ParameterControlType>8</ParameterControlType>
									<LowerBound>0</LowerBound>
									<UpperBound>200</UpperBound>
									<value>-91445760000000000,100.,0,0,0,0,0,0</value>
								</parameter>
								<parameter authoringApp="PremierePro">
									<parameterid>28</parameterid>
									<name>Faded Film</name>
									<IsTimeVarying>false</IsTimeVarying>
									<ParameterControlType>8</ParameterControlType>
									<LowerBound>0</LowerBound>
									<UpperBound>150</UpperBound>
									<UpperUIBound>100</UpperUIBound>
									<value>-91445760000000000,0.,0,0,0,0,0,0</value>
								</parameter>
								<parameter authoringApp="PremierePro">
									<parameterid>29</parameterid>
									<name>Sharpen</name>
									<IsTimeVarying>false</IsTimeVarying>
									<ParameterControlType>8</ParameterControlType>
									<LowerBound>-100</LowerBound>
									<UpperBound>100</UpperBound>
									<value>-91445760000000000,0.,0,0,0,0,0,0</value>
								</parameter>
								<parameter authoringApp="PremierePro">
									<parameterid>30</parameterid>
									<name>Vibrance</name>
									<IsTimeVarying>false</IsTimeVarying>
									<ParameterControlType>8</ParameterControlType>
									<LowerBound>-100</LowerBound>
									<UpperBound>100</UpperBound>
									<value>-91445760000000000,0.,0,0,0,0,0,0</value>
								</parameter>
								<parameter authoringApp="PremierePro">
									<parameterid>31</parameterid>
									<name>Saturation</name>
									<IsTimeVarying>false</IsTimeVarying>
									<ParameterControlType>8</ParameterControlType>
									<LowerBound>0</LowerBound>
									<UpperBound>300</UpperBound>
									<UpperUIBound>200</UpperUIBound>
									<value>-91445760000000000,100.,0,0,0,0,0,0</value>
								</parameter>
								<parameter authoringApp="PremierePro">
									<parameterid>32</parameterid>
									<name></name>
									<hash>49d2fca5-ddd1-a393-0544-f6d80000002c</hash>
								</parameter>
								<parameter authoringApp="PremierePro">
									<parameterid>33</parameterid>
									<name>Tint Balance</name>
									<IsTimeVarying>false</IsTimeVarying>
									<ParameterControlType>8</ParameterControlType>
									<LowerBound>-150</LowerBound>
									<UpperBound>150</UpperBound>
									<LowerUIBound>-100</LowerUIBound>
									<UpperUIBound>100</UpperUIBound>
									<value>-91445760000000000,0.,0,0,0,0,0,0</value>
								</parameter>
								<parameter authoringApp="PremierePro">
									<parameterid>37</parameterid>
									<name> </name>
									<IsTimeVarying>false</IsTimeVarying>
									<ParameterControlType>4</ParameterControlType>
									<LowerBound>false</LowerBound>
									<UpperBound>true</UpperBound>
									<value>-91445760000000000,true,0,0,0,0,0,0</value>
								</parameter>
								<parameter authoringApp="PremierePro">
									<parameterid>39</parameterid>
									<name> </name>
									<hash>261f3840-e8cf-a8cd-fa5e-bac10000082c</hash>
								</parameter>
								<parameter authoringApp="PremierePro">
									<parameterid>42</parameterid>
									<name> </name>
									<hash>ccfaa4df-d630-7661-76dd-3e4900000214</hash>
								</parameter>
								<parameter authoringApp="PremierePro">
									<parameterid>46</parameterid>
									<name> </name>
									<IsTimeVarying>false</IsTimeVarying>
									<ParameterControlType>4</ParameterControlType>
									<LowerBound>false</LowerBound>
									<UpperBound>true</UpperBound>
									<value>-91445760000000000,true,0,0,0,0,0,0</value>
								</parameter>
								<parameter authoringApp="PremierePro">
									<parameterid>47</parameterid>
									<name> </name>
									<hash>0b5436c4-bae0-bb64-a2f6-c8c40000006c</hash>
								</parameter>
								<parameter authoringApp="PremierePro">
									<parameterid>50</parameterid>
									<name> </name>
									<IsTimeVarying>false</IsTimeVarying>
									<ParameterControlType>4</ParameterControlType>
									<LowerBound>false</LowerBound>
									<UpperBound>true</UpperBound>
									<value>-91445760000000000,true,0,0,0,0,0,0</value>
								</parameter>
								<parameter authoringApp="PremierePro">
									<parameterid>51</parameterid>
									<name>Amount</name>
									<IsTimeVarying>false</IsTimeVarying>
									<ParameterControlType>8</ParameterControlType>
									<LowerBound>-5</LowerBound>
									<UpperBound>5</UpperBound>
									<LowerUIBound>-3</LowerUIBound>
									<UpperUIBound>3</UpperUIBound>
									<value>-91445760000000000,0.,0,0,0,0,0,0</value>
								</parameter>
								<parameter authoringApp="PremierePro">
									<parameterid>52</parameterid>
									<name>Midpoint</name>
									<IsTimeVarying>false</IsTimeVarying>
									<ParameterControlType>8</ParameterControlType>
									<LowerBound>0</LowerBound>
									<UpperBound>100</UpperBound>
									<value>-91445760000000000,50.,0,0,0,0,0,0</value>
								</parameter>
								<parameter authoringApp="PremierePro">
									<parameterid>53</parameterid>
									<name>Roundness</name>
									<IsTimeVarying>false</IsTimeVarying>
									<ParameterControlType>8</ParameterControlType>
									<LowerBound>-100</LowerBound>
									<UpperBound>100</UpperBound>
									<value>-91445760000000000,0.,0,0,0,0,0,0</value>
								</parameter>
								<parameter authoringApp="PremierePro">
									<parameterid>54</parameterid>
									<name>Feather</name>
									<IsTimeVarying>false</IsTimeVarying>
									<ParameterControlType>8</ParameterControlType>
									<LowerBound>0</LowerBound>
									<UpperBound>100</UpperBound>
									<value>-91445760000000000,50.,0,0,0,0,0,0</value>
								</parameter>
							</effect>
						</filter>
						<logginginfo>
							<description></description>
							<scene></scene>
							<shottake></shottake>
							<lognote></lognote>
							<good></good>
							<originalvideofilename></originalvideofilename>
							<originalaudiofilename></originalaudiofilename>
						</logginginfo>
						<colorinfo>
							<lut></lut>
							<lut1></lut1>
							<asc_sop></asc_sop>
							<asc_sat></asc_sat>
							<lut2></lut2>
						</colorinfo>
						<labels>
							<label2>Green</label2>
						</labels>
					</clipitem>
					<clipitem id="clipitem-456">
						<masterclipid>masterclip-62</masterclipid>
						<name>KANDAO_20180508_120625_v001_0001.png</name>
						<enabled>TRUE</enabled>
						<duration>7297</duration>
						<rate>
							<timebase>60</timebase>
							<ntsc>FALSE</ntsc>
						</rate>
						<start>38332</start>
						<end>41737</end>
						<in>0</in>
						<out>3405</out>
						<pproTicksIn>0</pproTicksIn>
						<pproTicksOut>14415408000000</pproTicksOut>
						<alphatype>none</alphatype>
						<pixelaspectratio>square</pixelaspectratio>
						<anamorphic>FALSE</anamorphic>
						<file id="file-62">
							<name>KANDAO_20180508_120625_v001_0001.png</name>
							<pathurl>file://localhost/G%3a/Departments/_Post/__Projects/035_Chimps_Part_2/6.VFX/KANDAO_20180508_120625/KANDAO_20180508_120625_v001/KANDAO_20180508_120625_v001_0001.png</pathurl>
							<rate>
								<timebase>60</timebase>
								<ntsc>FALSE</ntsc>
							</rate>
							<duration>3645</duration>
							<timecode>
								<rate>
									<timebase>60</timebase>
									<ntsc>FALSE</ntsc>
								</rate>
								<string>00:00:00:00</string>
								<frame>0</frame>
								<displayformat>NDF</displayformat>
							</timecode>
							<media>
								<video>
									<samplecharacteristics>
										<rate>
											<timebase>60</timebase>
											<ntsc>FALSE</ntsc>
										</rate>
										<width>3840</width>
										<height>3840</height>
										<anamorphic>FALSE</anamorphic>
										<pixelaspectratio>square</pixelaspectratio>
										<fielddominance>none</fielddominance>
									</samplecharacteristics>
								</video>
							</media>
						</file>
						<filter>
							<effect>
								<name></name>
								<effectid>Lumetri</effectid>
								<effecttype>filter</effecttype>
								<mediatype>video</mediatype>
								<pproBypass>false</pproBypass>
								<parameter authoringApp="PremierePro">
									<parameterid>1</parameterid>
									<name>Blob</name>
									<hash>63866a15-9327-e4cb-ff31-c9ea0000000e</hash>
								</parameter>
								<parameter authoringApp="PremierePro">
									<parameterid>3</parameterid>
									<name> </name>
									<IsTimeVarying>false</IsTimeVarying>
									<ParameterControlType>4</ParameterControlType>
									<LowerBound>false</LowerBound>
									<UpperBound>true</UpperBound>
									<value>-91445760000000000,true,0,0,0,0,0,0</value>
								</parameter>
								<parameter authoringApp="PremierePro">
									<parameterid>4</parameterid>
									<name> </name>
									<hash>63866a15-9327-e4cb-ff31-c9ea0000000e</hash>
								</parameter>
								<parameter authoringApp="PremierePro">
									<parameterid>5</parameterid>
									<name>Input LUT</name>
									<IsTimeVarying>false</IsTimeVarying>
									<ParameterControlType>7</ParameterControlType>
									<LowerBound>0</LowerBound>
									<UpperBound>998</UpperBound>
									<value>-91445760000000000,0,0,0,0,0,0,0</value>
								</parameter>
								<parameter authoringApp="PremierePro">
									<parameterid>7</parameterid>
									<name>Temperature</name>
									<IsTimeVarying>false</IsTimeVarying>
									<ParameterControlType>8</ParameterControlType>
									<LowerBound>-300</LowerBound>
									<UpperBound>300</UpperBound>
									<LowerUIBound>-100</LowerUIBound>
									<UpperUIBound>100</UpperUIBound>
									<value>-91445760000000000,0.,0,0,0,0,0,0</value>
								</parameter>
								<parameter authoringApp="PremierePro">
									<parameterid>8</parameterid>
									<name>Tint</name>
									<IsTimeVarying>false</IsTimeVarying>
									<ParameterControlType>8</ParameterControlType>
									<LowerBound>-300</LowerBound>
									<UpperBound>300</UpperBound>
									<LowerUIBound>-100</LowerUIBound>
									<UpperUIBound>100</UpperUIBound>
									<value>-91445760000000000,0.,0,0,0,0,0,0</value>
								</parameter>
								<parameter authoringApp="PremierePro">
									<parameterid>11</parameterid>
									<name>Exposure</name>
									<IsTimeVarying>false</IsTimeVarying>
									<ParameterControlType>8</ParameterControlType>
									<LowerBound>-7</LowerBound>
									<UpperBound>7</UpperBound>
									<LowerUIBound>-5</LowerUIBound>
									<UpperUIBound>5</UpperUIBound>
									<value>-91445760000000000,0.,0,0,0,0,0,0</value>
								</parameter>
								<parameter authoringApp="PremierePro">
									<parameterid>12</parameterid>
									<name>Contrast</name>
									<IsTimeVarying>false</IsTimeVarying>
									<ParameterControlType>8</ParameterControlType>
									<LowerBound>-150</LowerBound>
									<UpperBound>150</UpperBound>
									<LowerUIBound>-100</LowerUIBound>
									<UpperUIBound>100</UpperUIBound>
									<value>-91445760000000000,91.80328369140625,0,0,0,0,0,0</value>
								</parameter>
								<parameter authoringApp="PremierePro">
									<parameterid>13</parameterid>
									<name>Highlights</name>
									<IsTimeVarying>false</IsTimeVarying>
									<ParameterControlType>8</ParameterControlType>
									<LowerBound>-150</LowerBound>
									<UpperBound>150</UpperBound>
									<LowerUIBound>-100</LowerUIBound>
									<UpperUIBound>100</UpperUIBound>
									<value>-91445760000000000,36.065582275390625,0,0,0,0,0,0</value>
								</parameter>
								<parameter authoringApp="PremierePro">
									<parameterid>14</parameterid>
									<name>Shadows</name>
									<IsTimeVarying>false</IsTimeVarying>
									<ParameterControlType>8</ParameterControlType>
									<LowerBound>-150</LowerBound>
									<UpperBound>150</UpperBound>
									<LowerUIBound>-100</LowerUIBound>
									<UpperUIBound>100</UpperUIBound>
									<value>-91445760000000000,0.,0,0,0,0,0,0</value>
								</parameter>
								<parameter authoringApp="PremierePro">
									<parameterid>15</parameterid>
									<name>Whites</name>
									<IsTimeVarying>false</IsTimeVarying>
									<ParameterControlType>8</ParameterControlType>
									<LowerBound>-150</LowerBound>
									<UpperBound>150</UpperBound>
									<LowerUIBound>-100</LowerUIBound>
									<UpperUIBound>100</UpperUIBound>
									<value>-91445760000000000,0.,0,0,0,0,0,0</value>
								</parameter>
								<parameter authoringApp="PremierePro">
									<parameterid>16</parameterid>
									<name>Blacks</name>
									<IsTimeVarying>false</IsTimeVarying>
									<ParameterControlType>8</ParameterControlType>
									<LowerBound>-150</LowerBound>
									<UpperBound>150</UpperBound>
									<LowerUIBound>-100</LowerUIBound>
									<UpperUIBound>100</UpperUIBound>
									<value>-91445760000000000,-55.737705230712890625,0,0,0,0,0,0</value>
								</parameter>
								<parameter authoringApp="PremierePro">
									<parameterid>20</parameterid>
									<name>Saturation</name>
									<IsTimeVarying>false</IsTimeVarying>
									<ParameterControlType>8</ParameterControlType>
									<LowerBound>0</LowerBound>
									<UpperBound>300</UpperBound>
									<UpperUIBound>200</UpperUIBound>
									<value>-91445760000000000,100.,0,0,0,0,0,0</value>
								</parameter>
								<parameter authoringApp="PremierePro">
									<parameterid>23</parameterid>
									<name> </name>
									<IsTimeVarying>false</IsTimeVarying>
									<ParameterControlType>4</ParameterControlType>
									<LowerBound>false</LowerBound>
									<UpperBound>true</UpperBound>
									<value>-91445760000000000,true,0,0,0,0,0,0</value>
								</parameter>
								<parameter authoringApp="PremierePro">
									<parameterid>24</parameterid>
									<name> </name>
									<hash>63866a15-9327-e4cb-ff31-c9ea0000000e</hash>
								</parameter>
								<parameter authoringApp="PremierePro">
									<parameterid>25</parameterid>
									<name>Look</name>
									<IsTimeVarying>false</IsTimeVarying>
									<ParameterControlType>7</ParameterControlType>
									<LowerBound>0</LowerBound>
									<UpperBound>998</UpperBound>
									<value>-91445760000000000,0,0,0,0,0,0,0</value>
								</parameter>
								<parameter authoringApp="PremierePro">
									<parameterid>26</parameterid>
									<name>Intensity</name>
									<IsTimeVarying>false</IsTimeVarying>
									<ParameterControlType>8</ParameterControlType>
									<LowerBound>0</LowerBound>
									<UpperBound>200</UpperBound>
									<value>-91445760000000000,100.,0,0,0,0,0,0</value>
								</parameter>
								<parameter authoringApp="PremierePro">
									<parameterid>28</parameterid>
									<name>Faded Film</name>
									<IsTimeVarying>false</IsTimeVarying>
									<ParameterControlType>8</ParameterControlType>
									<LowerBound>0</LowerBound>
									<UpperBound>150</UpperBound>
									<UpperUIBound>100</UpperUIBound>
									<value>-91445760000000000,0.,0,0,0,0,0,0</value>
								</parameter>
								<parameter authoringApp="PremierePro">
									<parameterid>29</parameterid>
									<name>Sharpen</name>
									<IsTimeVarying>false</IsTimeVarying>
									<ParameterControlType>8</ParameterControlType>
									<LowerBound>-100</LowerBound>
									<UpperBound>100</UpperBound>
									<value>-91445760000000000,0.,0,0,0,0,0,0</value>
								</parameter>
								<parameter authoringApp="PremierePro">
									<parameterid>30</parameterid>
									<name>Vibrance</name>
									<IsTimeVarying>false</IsTimeVarying>
									<ParameterControlType>8</ParameterControlType>
									<LowerBound>-100</LowerBound>
									<UpperBound>100</UpperBound>
									<value>-91445760000000000,0.,0,0,0,0,0,0</value>
								</parameter>
								<parameter authoringApp="PremierePro">
									<parameterid>31</parameterid>
									<name>Saturation</name>
									<IsTimeVarying>false</IsTimeVarying>
									<ParameterControlType>8</ParameterControlType>
									<LowerBound>0</LowerBound>
									<UpperBound>300</UpperBound>
									<UpperUIBound>200</UpperUIBound>
									<value>-91445760000000000,100.,0,0,0,0,0,0</value>
								</parameter>
								<parameter authoringApp="PremierePro">
									<parameterid>32</parameterid>
									<name></name>
									<hash>49d2fca5-ddd1-a393-0544-f6d80000002c</hash>
								</parameter>
								<parameter authoringApp="PremierePro">
									<parameterid>33</parameterid>
									<name>Tint Balance</name>
									<IsTimeVarying>false</IsTimeVarying>
									<ParameterControlType>8</ParameterControlType>
									<LowerBound>-150</LowerBound>
									<UpperBound>150</UpperBound>
									<LowerUIBound>-100</LowerUIBound>
									<UpperUIBound>100</UpperUIBound>
									<value>-91445760000000000,0.,0,0,0,0,0,0</value>
								</parameter>
								<parameter authoringApp="PremierePro">
									<parameterid>37</parameterid>
									<name> </name>
									<IsTimeVarying>false</IsTimeVarying>
									<ParameterControlType>4</ParameterControlType>
									<LowerBound>false</LowerBound>
									<UpperBound>true</UpperBound>
									<value>-91445760000000000,true,0,0,0,0,0,0</value>
								</parameter>
								<parameter authoringApp="PremierePro">
									<parameterid>39</parameterid>
									<name> </name>
									<hash>261f3840-e8cf-a8cd-fa5e-bac10000082c</hash>
								</parameter>
								<parameter authoringApp="PremierePro">
									<parameterid>42</parameterid>
									<name> </name>
									<hash>ccfaa4df-d630-7661-76dd-3e4900000214</hash>
								</parameter>
								<parameter authoringApp="PremierePro">
									<parameterid>46</parameterid>
									<name> </name>
									<IsTimeVarying>false</IsTimeVarying>
									<ParameterControlType>4</ParameterControlType>
									<LowerBound>false</LowerBound>
									<UpperBound>true</UpperBound>
									<value>-91445760000000000,true,0,0,0,0,0,0</value>
								</parameter>
								<parameter authoringApp="PremierePro">
									<parameterid>47</parameterid>
									<name> </name>
									<hash>0b5436c4-bae0-bb64-a2f6-c8c40000006c</hash>
								</parameter>
								<parameter authoringApp="PremierePro">
									<parameterid>50</parameterid>
									<name> </name>
									<IsTimeVarying>false</IsTimeVarying>
									<ParameterControlType>4</ParameterControlType>
									<LowerBound>false</LowerBound>
									<UpperBound>true</UpperBound>
									<value>-91445760000000000,true,0,0,0,0,0,0</value>
								</parameter>
								<parameter authoringApp="PremierePro">
									<parameterid>51</parameterid>
									<name>Amount</name>
									<IsTimeVarying>false</IsTimeVarying>
									<ParameterControlType>8</ParameterControlType>
									<LowerBound>-5</LowerBound>
									<UpperBound>5</UpperBound>
									<LowerUIBound>-3</LowerUIBound>
									<UpperUIBound>3</UpperUIBound>
									<value>-91445760000000000,0.,0,0,0,0,0,0</value>
								</parameter>
								<parameter authoringApp="PremierePro">
									<parameterid>52</parameterid>
									<name>Midpoint</name>
									<IsTimeVarying>false</IsTimeVarying>
									<ParameterControlType>8</ParameterControlType>
									<LowerBound>0</LowerBound>
									<UpperBound>100</UpperBound>
									<value>-91445760000000000,50.,0,0,0,0,0,0</value>
								</parameter>
								<parameter authoringApp="PremierePro">
									<parameterid>53</parameterid>
									<name>Roundness</name>
									<IsTimeVarying>false</IsTimeVarying>
									<ParameterControlType>8</ParameterControlType>
									<LowerBound>-100</LowerBound>
									<UpperBound>100</UpperBound>
									<value>-91445760000000000,0.,0,0,0,0,0,0</value>
								</parameter>
								<parameter authoringApp="PremierePro">
									<parameterid>54</parameterid>
									<name>Feather</name>
									<IsTimeVarying>false</IsTimeVarying>
									<ParameterControlType>8</ParameterControlType>
									<LowerBound>0</LowerBound>
									<UpperBound>100</UpperBound>
									<value>-91445760000000000,50.,0,0,0,0,0,0</value>
								</parameter>
							</effect>
						</filter>
						<logginginfo>
							<description></description>
							<scene></scene>
							<shottake></shottake>
							<lognote></lognote>
							<good></good>
							<originalvideofilename></originalvideofilename>
							<originalaudiofilename></originalaudiofilename>
						</logginginfo>
						<colorinfo>
							<lut></lut>
							<lut1></lut1>
							<asc_sop></asc_sop>
							<asc_sat></asc_sat>
							<lut2></lut2>
						</colorinfo>
						<labels>
							<label2>Rose</label2>
						</labels>
					</clipitem>
					<clipitem id="clipitem-457">
						<masterclipid>masterclip-63</masterclipid>
						<name>CMP2_ZCAM0087_v001_8287.png</name>
						<enabled>TRUE</enabled>
						<duration>1427</duration>
						<rate>
							<timebase>60</timebase>
							<ntsc>FALSE</ntsc>
						</rate>
						<start>41737</start>
						<end>42923</end>
						<in>241</in>
						<out>1427</out>
						<pproTicksIn>1020297600000</pproTicksIn>
						<pproTicksOut>6041347200000</pproTicksOut>
						<alphatype>none</alphatype>
						<pixelaspectratio>square</pixelaspectratio>
						<anamorphic>FALSE</anamorphic>
						<file id="file-63">
							<name>CMP2_ZCAM0087_v001_8287.png</name>
							<pathurl>file://localhost/G%3a/Departments/_Post/__Projects/035_Chimps_Part_2/6.VFX/CMP2_ZCAM0087/CMP2_ZCAM0087_v001/CMP2_ZCAM0087_v001_8287.png</pathurl>
							<rate>
								<timebase>30</timebase>
								<ntsc>TRUE</ntsc>
							</rate>
							<duration>713</duration>
							<timecode>
								<rate>
									<timebase>30</timebase>
									<ntsc>TRUE</ntsc>
								</rate>
								<string>00:00:00:00</string>
								<frame>0</frame>
								<displayformat>NDF</displayformat>
							</timecode>
							<media>
								<video>
									<samplecharacteristics>
										<rate>
											<timebase>30</timebase>
											<ntsc>TRUE</ntsc>
										</rate>
										<width>3840</width>
										<height>3840</height>
										<anamorphic>FALSE</anamorphic>
										<pixelaspectratio>square</pixelaspectratio>
										<fielddominance>none</fielddominance>
									</samplecharacteristics>
								</video>
							</media>
						</file>
						<logginginfo>
							<description></description>
							<scene></scene>
							<shottake></shottake>
							<lognote></lognote>
							<good></good>
							<originalvideofilename></originalvideofilename>
							<originalaudiofilename></originalaudiofilename>
						</logginginfo>
						<colorinfo>
							<lut></lut>
							<lut1></lut1>
							<asc_sop></asc_sop>
							<asc_sat></asc_sat>
							<lut2></lut2>
						</colorinfo>
						<labels>
							<label2>Green</label2>
						</labels>
					</clipitem>
					<clipitem id="clipitem-458">
						<masterclipid>masterclip-64</masterclipid>
						<name>CMP2_ZCAM0088_v001_0000.png</name>
						<enabled>TRUE</enabled>
						<duration>2476</duration>
						<rate>
							<timebase>60</timebase>
							<ntsc>FALSE</ntsc>
						</rate>
						<start>42923</start>
						<end>45259</end>
						<in>0</in>
						<out>2336</out>
						<pproTicksIn>0</pproTicksIn>
						<pproTicksOut>9889689600000</pproTicksOut>
						<alphatype>none</alphatype>
						<pixelaspectratio>square</pixelaspectratio>
						<anamorphic>FALSE</anamorphic>
						<file id="file-64">
							<name>CMP2_ZCAM0088_v001_0000.png</name>
							<pathurl>file://localhost/G%3a/Departments/_Post/__Projects/035_Chimps_Part_2/6.VFX/CMP2_ZCAM0088/CMP2_ZCAM0088_v001/CMP2_ZCAM0088_v001_0000.png</pathurl>
							<rate>
								<timebase>30</timebase>
								<ntsc>TRUE</ntsc>
							</rate>
							<duration>1237</duration>
							<timecode>
								<rate>
									<timebase>30</timebase>
									<ntsc>TRUE</ntsc>
								</rate>
								<string>00:00:00:00</string>
								<frame>0</frame>
								<displayformat>NDF</displayformat>
							</timecode>
							<media>
								<video>
									<samplecharacteristics>
										<rate>
											<timebase>30</timebase>
											<ntsc>TRUE</ntsc>
										</rate>
										<width>3840</width>
										<height>3840</height>
										<anamorphic>FALSE</anamorphic>
										<pixelaspectratio>square</pixelaspectratio>
										<fielddominance>none</fielddominance>
									</samplecharacteristics>
								</video>
							</media>
						</file>
						<logginginfo>
							<description></description>
							<scene></scene>
							<shottake></shottake>
							<lognote></lognote>
							<good></good>
							<originalvideofilename></originalvideofilename>
							<originalaudiofilename></originalaudiofilename>
						</logginginfo>
						<colorinfo>
							<lut></lut>
							<lut1></lut1>
							<asc_sop></asc_sop>
							<asc_sat></asc_sat>
							<lut2></lut2>
						</colorinfo>
						<labels>
							<label2>Green</label2>
						</labels>
					</clipitem>
					<clipitem id="clipitem-459">
						<masterclipid>masterclip-65</masterclipid>
						<name>KANDAO_20180508_115309_v001_0001.png</name>
						<enabled>TRUE</enabled>
						<duration>4702</duration>
						<rate>
							<timebase>60</timebase>
							<ntsc>FALSE</ntsc>
						</rate>
						<start>45259</start>
						<end>47170</end>
						<in>240</in>
						<out>2151</out>
						<pproTicksIn>1016064000000</pproTicksIn>
						<pproTicksOut>9106473600000</pproTicksOut>
						<alphatype>none</alphatype>
						<pixelaspectratio>square</pixelaspectratio>
						<anamorphic>FALSE</anamorphic>
						<file id="file-65">
							<name>KANDAO_20180508_115309_v001_0001.png</name>
							<pathurl>file://localhost/G%3a/Departments/_Post/__Projects/035_Chimps_Part_2/6.VFX/KANDAO_20180508_115309/KANDAO_20180508_115309_v001/KANDAO_20180508_115309_v001_0001.png</pathurl>
							<rate>
								<timebase>60</timebase>
								<ntsc>FALSE</ntsc>
							</rate>
							<duration>2349</duration>
							<timecode>
								<rate>
									<timebase>60</timebase>
									<ntsc>FALSE</ntsc>
								</rate>
								<string>00:00:00:00</string>
								<frame>0</frame>
								<displayformat>NDF</displayformat>
							</timecode>
							<media>
								<video>
									<samplecharacteristics>
										<rate>
											<timebase>60</timebase>
											<ntsc>FALSE</ntsc>
										</rate>
										<width>3840</width>
										<height>3840</height>
										<anamorphic>FALSE</anamorphic>
										<pixelaspectratio>square</pixelaspectratio>
										<fielddominance>none</fielddominance>
									</samplecharacteristics>
								</video>
							</media>
						</file>
						<filter>
							<effect>
								<name></name>
								<effectid>Lumetri</effectid>
								<effecttype>filter</effecttype>
								<mediatype>video</mediatype>
								<pproBypass>false</pproBypass>
								<parameter authoringApp="PremierePro">
									<parameterid>1</parameterid>
									<name>Blob</name>
									<hash>63866a15-9327-e4cb-ff31-c9ea0000000e</hash>
								</parameter>
								<parameter authoringApp="PremierePro">
									<parameterid>3</parameterid>
									<name> </name>
									<IsTimeVarying>false</IsTimeVarying>
									<ParameterControlType>4</ParameterControlType>
									<LowerBound>false</LowerBound>
									<UpperBound>true</UpperBound>
									<value>-91445760000000000,true,0,0,0,0,0,0</value>
								</parameter>
								<parameter authoringApp="PremierePro">
									<parameterid>4</parameterid>
									<name> </name>
									<hash>63866a15-9327-e4cb-ff31-c9ea0000000e</hash>
								</parameter>
								<parameter authoringApp="PremierePro">
									<parameterid>5</parameterid>
									<name>Input LUT</name>
									<IsTimeVarying>false</IsTimeVarying>
									<ParameterControlType>7</ParameterControlType>
									<LowerBound>0</LowerBound>
									<UpperBound>998</UpperBound>
									<value>-91445760000000000,0,0,0,0,0,0,0</value>
								</parameter>
								<parameter authoringApp="PremierePro">
									<parameterid>7</parameterid>
									<name>Temperature</name>
									<IsTimeVarying>false</IsTimeVarying>
									<ParameterControlType>8</ParameterControlType>
									<LowerBound>-300</LowerBound>
									<UpperBound>300</UpperBound>
									<LowerUIBound>-100</LowerUIBound>
									<UpperUIBound>100</UpperUIBound>
									<value>-91445760000000000,0.,0,0,0,0,0,0</value>
								</parameter>
								<parameter authoringApp="PremierePro">
									<parameterid>8</parameterid>
									<name>Tint</name>
									<IsTimeVarying>false</IsTimeVarying>
									<ParameterControlType>8</ParameterControlType>
									<LowerBound>-300</LowerBound>
									<UpperBound>300</UpperBound>
									<LowerUIBound>-100</LowerUIBound>
									<UpperUIBound>100</UpperUIBound>
									<value>-91445760000000000,0.,0,0,0,0,0,0</value>
								</parameter>
								<parameter authoringApp="PremierePro">
									<parameterid>11</parameterid>
									<name>Exposure</name>
									<IsTimeVarying>false</IsTimeVarying>
									<ParameterControlType>8</ParameterControlType>
									<LowerBound>-7</LowerBound>
									<UpperBound>7</UpperBound>
									<LowerUIBound>-5</LowerUIBound>
									<UpperUIBound>5</UpperUIBound>
									<value>-91445760000000000,0.,0,0,0,0,0,0</value>
								</parameter>
								<parameter authoringApp="PremierePro">
									<parameterid>12</parameterid>
									<name>Contrast</name>
									<IsTimeVarying>false</IsTimeVarying>
									<ParameterControlType>8</ParameterControlType>
									<LowerBound>-150</LowerBound>
									<UpperBound>150</UpperBound>
									<LowerUIBound>-100</LowerUIBound>
									<UpperUIBound>100</UpperUIBound>
									<value>-91445760000000000,72.1311492919921875,0,0,0,0,0,0</value>
								</parameter>
								<parameter authoringApp="PremierePro">
									<parameterid>13</parameterid>
									<name>Highlights</name>
									<IsTimeVarying>false</IsTimeVarying>
									<ParameterControlType>8</ParameterControlType>
									<LowerBound>-150</LowerBound>
									<UpperBound>150</UpperBound>
									<LowerUIBound>-100</LowerUIBound>
									<UpperUIBound>100</UpperUIBound>
									<value>-91445760000000000,36.065582275390625,0,0,0,0,0,0</value>
								</parameter>
								<parameter authoringApp="PremierePro">
									<parameterid>14</parameterid>
									<name>Shadows</name>
									<IsTimeVarying>false</IsTimeVarying>
									<ParameterControlType>8</ParameterControlType>
									<LowerBound>-150</LowerBound>
									<UpperBound>150</UpperBound>
									<LowerUIBound>-100</LowerUIBound>
									<UpperUIBound>100</UpperUIBound>
									<value>-91445760000000000,0.,0,0,0,0,0,0</value>
								</parameter>
								<parameter authoringApp="PremierePro">
									<parameterid>15</parameterid>
									<name>Whites</name>
									<IsTimeVarying>false</IsTimeVarying>
									<ParameterControlType>8</ParameterControlType>
									<LowerBound>-150</LowerBound>
									<UpperBound>150</UpperBound>
									<LowerUIBound>-100</LowerUIBound>
									<UpperUIBound>100</UpperUIBound>
									<value>-91445760000000000,0.,0,0,0,0,0,0</value>
								</parameter>
								<parameter authoringApp="PremierePro">
									<parameterid>16</parameterid>
									<name>Blacks</name>
									<IsTimeVarying>false</IsTimeVarying>
									<ParameterControlType>8</ParameterControlType>
									<LowerBound>-150</LowerBound>
									<UpperBound>150</UpperBound>
									<LowerUIBound>-100</LowerUIBound>
									<UpperUIBound>100</UpperUIBound>
									<value>-91445760000000000,-26.2295074462890625,0,0,0,0,0,0</value>
								</parameter>
								<parameter authoringApp="PremierePro">
									<parameterid>20</parameterid>
									<name>Saturation</name>
									<IsTimeVarying>false</IsTimeVarying>
									<ParameterControlType>8</ParameterControlType>
									<LowerBound>0</LowerBound>
									<UpperBound>300</UpperBound>
									<UpperUIBound>200</UpperUIBound>
									<value>-91445760000000000,100.,0,0,0,0,0,0</value>
								</parameter>
								<parameter authoringApp="PremierePro">
									<parameterid>23</parameterid>
									<name> </name>
									<IsTimeVarying>false</IsTimeVarying>
									<ParameterControlType>4</ParameterControlType>
									<LowerBound>false</LowerBound>
									<UpperBound>true</UpperBound>
									<value>-91445760000000000,true,0,0,0,0,0,0</value>
								</parameter>
								<parameter authoringApp="PremierePro">
									<parameterid>24</parameterid>
									<name> </name>
									<hash>63866a15-9327-e4cb-ff31-c9ea0000000e</hash>
								</parameter>
								<parameter authoringApp="PremierePro">
									<parameterid>25</parameterid>
									<name>Look</name>
									<IsTimeVarying>false</IsTimeVarying>
									<ParameterControlType>7</ParameterControlType>
									<LowerBound>0</LowerBound>
									<UpperBound>998</UpperBound>
									<value>-91445760000000000,0,0,0,0,0,0,0</value>
								</parameter>
								<parameter authoringApp="PremierePro">
									<parameterid>26</parameterid>
									<name>Intensity</name>
									<IsTimeVarying>false</IsTimeVarying>
									<ParameterControlType>8</ParameterControlType>
									<LowerBound>0</LowerBound>
									<UpperBound>200</UpperBound>
									<value>-91445760000000000,100.,0,0,0,0,0,0</value>
								</parameter>
								<parameter authoringApp="PremierePro">
									<parameterid>28</parameterid>
									<name>Faded Film</name>
									<IsTimeVarying>false</IsTimeVarying>
									<ParameterControlType>8</ParameterControlType>
									<LowerBound>0</LowerBound>
									<UpperBound>150</UpperBound>
									<UpperUIBound>100</UpperUIBound>
									<value>-91445760000000000,0.,0,0,0,0,0,0</value>
								</parameter>
								<parameter authoringApp="PremierePro">
									<parameterid>29</parameterid>
									<name>Sharpen</name>
									<IsTimeVarying>false</IsTimeVarying>
									<ParameterControlType>8</ParameterControlType>
									<LowerBound>-100</LowerBound>
									<UpperBound>100</UpperBound>
									<value>-91445760000000000,0.,0,0,0,0,0,0</value>
								</parameter>
								<parameter authoringApp="PremierePro">
									<parameterid>30</parameterid>
									<name>Vibrance</name>
									<IsTimeVarying>false</IsTimeVarying>
									<ParameterControlType>8</ParameterControlType>
									<LowerBound>-100</LowerBound>
									<UpperBound>100</UpperBound>
									<value>-91445760000000000,0.,0,0,0,0,0,0</value>
								</parameter>
								<parameter authoringApp="PremierePro">
									<parameterid>31</parameterid>
									<name>Saturation</name>
									<IsTimeVarying>false</IsTimeVarying>
									<ParameterControlType>8</ParameterControlType>
									<LowerBound>0</LowerBound>
									<UpperBound>300</UpperBound>
									<UpperUIBound>200</UpperUIBound>
									<value>-91445760000000000,100.,0,0,0,0,0,0</value>
								</parameter>
								<parameter authoringApp="PremierePro">
									<parameterid>32</parameterid>
									<name></name>
									<hash>49d2fca5-ddd1-a393-0544-f6d80000002c</hash>
								</parameter>
								<parameter authoringApp="PremierePro">
									<parameterid>33</parameterid>
									<name>Tint Balance</name>
									<IsTimeVarying>false</IsTimeVarying>
									<ParameterControlType>8</ParameterControlType>
									<LowerBound>-150</LowerBound>
									<UpperBound>150</UpperBound>
									<LowerUIBound>-100</LowerUIBound>
									<UpperUIBound>100</UpperUIBound>
									<value>-91445760000000000,0.,0,0,0,0,0,0</value>
								</parameter>
								<parameter authoringApp="PremierePro">
									<parameterid>37</parameterid>
									<name> </name>
									<IsTimeVarying>false</IsTimeVarying>
									<ParameterControlType>4</ParameterControlType>
									<LowerBound>false</LowerBound>
									<UpperBound>true</UpperBound>
									<value>-91445760000000000,true,0,0,0,0,0,0</value>
								</parameter>
								<parameter authoringApp="PremierePro">
									<parameterid>39</parameterid>
									<name> </name>
									<hash>261f3840-e8cf-a8cd-fa5e-bac10000082c</hash>
								</parameter>
								<parameter authoringApp="PremierePro">
									<parameterid>42</parameterid>
									<name> </name>
									<hash>ccfaa4df-d630-7661-76dd-3e4900000214</hash>
								</parameter>
								<parameter authoringApp="PremierePro">
									<parameterid>46</parameterid>
									<name> </name>
									<IsTimeVarying>false</IsTimeVarying>
									<ParameterControlType>4</ParameterControlType>
									<LowerBound>false</LowerBound>
									<UpperBound>true</UpperBound>
									<value>-91445760000000000,true,0,0,0,0,0,0</value>
								</parameter>
								<parameter authoringApp="PremierePro">
									<parameterid>47</parameterid>
									<name> </name>
									<hash>0b5436c4-bae0-bb64-a2f6-c8c40000006c</hash>
								</parameter>
								<parameter authoringApp="PremierePro">
									<parameterid>50</parameterid>
									<name> </name>
									<IsTimeVarying>false</IsTimeVarying>
									<ParameterControlType>4</ParameterControlType>
									<LowerBound>false</LowerBound>
									<UpperBound>true</UpperBound>
									<value>-91445760000000000,true,0,0,0,0,0,0</value>
								</parameter>
								<parameter authoringApp="PremierePro">
									<parameterid>51</parameterid>
									<name>Amount</name>
									<IsTimeVarying>false</IsTimeVarying>
									<ParameterControlType>8</ParameterControlType>
									<LowerBound>-5</LowerBound>
									<UpperBound>5</UpperBound>
									<LowerUIBound>-3</LowerUIBound>
									<UpperUIBound>3</UpperUIBound>
									<value>-91445760000000000,0.,0,0,0,0,0,0</value>
								</parameter>
								<parameter authoringApp="PremierePro">
									<parameterid>52</parameterid>
									<name>Midpoint</name>
									<IsTimeVarying>false</IsTimeVarying>
									<ParameterControlType>8</ParameterControlType>
									<LowerBound>0</LowerBound>
									<UpperBound>100</UpperBound>
									<value>-91445760000000000,50.,0,0,0,0,0,0</value>
								</parameter>
								<parameter authoringApp="PremierePro">
									<parameterid>53</parameterid>
									<name>Roundness</name>
									<IsTimeVarying>false</IsTimeVarying>
									<ParameterControlType>8</ParameterControlType>
									<LowerBound>-100</LowerBound>
									<UpperBound>100</UpperBound>
									<value>-91445760000000000,0.,0,0,0,0,0,0</value>
								</parameter>
								<parameter authoringApp="PremierePro">
									<parameterid>54</parameterid>
									<name>Feather</name>
									<IsTimeVarying>false</IsTimeVarying>
									<ParameterControlType>8</ParameterControlType>
									<LowerBound>0</LowerBound>
									<UpperBound>100</UpperBound>
									<value>-91445760000000000,50.,0,0,0,0,0,0</value>
								</parameter>
							</effect>
						</filter>
						<logginginfo>
							<description></description>
							<scene></scene>
							<shottake></shottake>
							<lognote></lognote>
							<good></good>
							<originalvideofilename></originalvideofilename>
							<originalaudiofilename></originalaudiofilename>
						</logginginfo>
						<colorinfo>
							<lut></lut>
							<lut1></lut1>
							<asc_sop></asc_sop>
							<asc_sat></asc_sat>
							<lut2></lut2>
						</colorinfo>
						<labels>
							<label2>Green</label2>
						</labels>
					</clipitem>
					<clipitem id="clipitem-460">
						<masterclipid>masterclip-66</masterclipid>
						<name>CMP2_ZCAM0139_v0020000.png</name>
						<enabled>TRUE</enabled>
						<duration>3959</duration>
						<rate>
							<timebase>60</timebase>
							<ntsc>FALSE</ntsc>
						</rate>
						<start>55523</start>
						<end>58579</end>
						<in>241</in>
						<out>3297</out>
						<pproTicksIn>1020297600000</pproTicksIn>
						<pproTicksOut>13958179200000</pproTicksOut>
						<alphatype>straight</alphatype>
						<pixelaspectratio>square</pixelaspectratio>
						<anamorphic>FALSE</anamorphic>
						<file id="file-66">
							<name>CMP2_ZCAM0139_v0020000.png</name>
							<pathurl>file://localhost/G%3a/Departments/_Post/__Projects/035_Chimps_Part_2/6.VFX/CMP2_ZCAM0139/CMP2_ZCAM0139_v002/CMP2_ZCAM0139_v0020000.png</pathurl>
							<rate>
								<timebase>30</timebase>
								<ntsc>TRUE</ntsc>
							</rate>
							<duration>1978</duration>
							<timecode>
								<rate>
									<timebase>30</timebase>
									<ntsc>TRUE</ntsc>
								</rate>
								<string>00:00:00:00</string>
								<frame>0</frame>
								<displayformat>NDF</displayformat>
							</timecode>
							<media>
								<video>
									<samplecharacteristics>
										<rate>
											<timebase>30</timebase>
											<ntsc>TRUE</ntsc>
										</rate>
										<width>3840</width>
										<height>3840</height>
										<anamorphic>FALSE</anamorphic>
										<pixelaspectratio>square</pixelaspectratio>
										<fielddominance>none</fielddominance>
									</samplecharacteristics>
								</video>
							</media>
						</file>
						<filter>
							<effect>
								<name></name>
								<effectid>Lumetri</effectid>
								<effecttype>filter</effecttype>
								<mediatype>video</mediatype>
								<pproBypass>false</pproBypass>
								<parameter authoringApp="PremierePro">
									<parameterid>1</parameterid>
									<name>Blob</name>
									<hash>63866a15-9327-e4cb-ff31-c9ea0000000e</hash>
								</parameter>
								<parameter authoringApp="PremierePro">
									<parameterid>3</parameterid>
									<name> </name>
									<IsTimeVarying>false</IsTimeVarying>
									<ParameterControlType>4</ParameterControlType>
									<LowerBound>false</LowerBound>
									<UpperBound>true</UpperBound>
									<value>-91445760000000000,true,0,0,0,0,0,0</value>
								</parameter>
								<parameter authoringApp="PremierePro">
									<parameterid>4</parameterid>
									<name> </name>
									<hash>63866a15-9327-e4cb-ff31-c9ea0000000e</hash>
								</parameter>
								<parameter authoringApp="PremierePro">
									<parameterid>5</parameterid>
									<name>Input LUT</name>
									<IsTimeVarying>false</IsTimeVarying>
									<ParameterControlType>7</ParameterControlType>
									<LowerBound>0</LowerBound>
									<UpperBound>998</UpperBound>
									<value>-91445760000000000,0,0,0,0,0,0,0</value>
								</parameter>
								<parameter authoringApp="PremierePro">
									<parameterid>7</parameterid>
									<name>Temperature</name>
									<IsTimeVarying>false</IsTimeVarying>
									<ParameterControlType>8</ParameterControlType>
									<LowerBound>-300</LowerBound>
									<UpperBound>300</UpperBound>
									<LowerUIBound>-100</LowerUIBound>
									<UpperUIBound>100</UpperUIBound>
									<value>-91445760000000000,0.,0,0,0,0,0,0</value>
								</parameter>
								<parameter authoringApp="PremierePro">
									<parameterid>8</parameterid>
									<name>Tint</name>
									<IsTimeVarying>false</IsTimeVarying>
									<ParameterControlType>8</ParameterControlType>
									<LowerBound>-300</LowerBound>
									<UpperBound>300</UpperBound>
									<LowerUIBound>-100</LowerUIBound>
									<UpperUIBound>100</UpperUIBound>
									<value>-91445760000000000,0.,0,0,0,0,0,0</value>
								</parameter>
								<parameter authoringApp="PremierePro">
									<parameterid>11</parameterid>
									<name>Exposure</name>
									<IsTimeVarying>false</IsTimeVarying>
									<ParameterControlType>8</ParameterControlType>
									<LowerBound>-7</LowerBound>
									<UpperBound>7</UpperBound>
									<LowerUIBound>-5</LowerUIBound>
									<UpperUIBound>5</UpperUIBound>
									<value>-91445760000000000,0.49180316925048828125,0,0,0,0,0,0</value>
								</parameter>
								<parameter authoringApp="PremierePro">
									<parameterid>12</parameterid>
									<name>Contrast</name>
									<IsTimeVarying>false</IsTimeVarying>
									<ParameterControlType>8</ParameterControlType>
									<LowerBound>-150</LowerBound>
									<UpperBound>150</UpperBound>
									<LowerUIBound>-100</LowerUIBound>
									<UpperUIBound>100</UpperUIBound>
									<value>-91445760000000000,68.8524627685546875,0,0,0,0,0,0</value>
								</parameter>
								<parameter authoringApp="PremierePro">
									<parameterid>13</parameterid>
									<name>Highlights</name>
									<IsTimeVarying>false</IsTimeVarying>
									<ParameterControlType>8</ParameterControlType>
									<LowerBound>-150</LowerBound>
									<UpperBound>150</UpperBound>
									<LowerUIBound>-100</LowerUIBound>
									<UpperUIBound>100</UpperUIBound>
									<value>-91445760000000000,0.,0,0,0,0,0,0</value>
								</parameter>
								<parameter authoringApp="PremierePro">
									<parameterid>14</parameterid>
									<name>Shadows</name>
									<IsTimeVarying>false</IsTimeVarying>
									<ParameterControlType>8</ParameterControlType>
									<LowerBound>-150</LowerBound>
									<UpperBound>150</UpperBound>
									<LowerUIBound>-100</LowerUIBound>
									<UpperUIBound>100</UpperUIBound>
									<value>-91445760000000000,42.622955322265625,0,0,0,0,0,0</value>
								</parameter>
								<parameter authoringApp="PremierePro">
									<parameterid>15</parameterid>
									<name>Whites</name>
									<IsTimeVarying>false</IsTimeVarying>
									<ParameterControlType>8</ParameterControlType>
									<LowerBound>-150</LowerBound>
									<UpperBound>150</UpperBound>
									<LowerUIBound>-100</LowerUIBound>
									<UpperUIBound>100</UpperUIBound>
									<value>-91445760000000000,0.,0,0,0,0,0,0</value>
								</parameter>
								<parameter authoringApp="PremierePro">
									<parameterid>16</parameterid>
									<name>Blacks</name>
									<IsTimeVarying>false</IsTimeVarying>
									<ParameterControlType>8</ParameterControlType>
									<LowerBound>-150</LowerBound>
									<UpperBound>150</UpperBound>
									<LowerUIBound>-100</LowerUIBound>
									<UpperUIBound>100</UpperUIBound>
									<value>-91445760000000000,0.,0,0,0,0,0,0</value>
								</parameter>
								<parameter authoringApp="PremierePro">
									<parameterid>20</parameterid>
									<name>Saturation</name>
									<IsTimeVarying>false</IsTimeVarying>
									<ParameterControlType>8</ParameterControlType>
									<LowerBound>0</LowerBound>
									<UpperBound>300</UpperBound>
									<UpperUIBound>200</UpperUIBound>
									<value>-91445760000000000,100.,0,0,0,0,0,0</value>
								</parameter>
								<parameter authoringApp="PremierePro">
									<parameterid>23</parameterid>
									<name> </name>
									<IsTimeVarying>false</IsTimeVarying>
									<ParameterControlType>4</ParameterControlType>
									<LowerBound>false</LowerBound>
									<UpperBound>true</UpperBound>
									<value>-91445760000000000,true,0,0,0,0,0,0</value>
								</parameter>
								<parameter authoringApp="PremierePro">
									<parameterid>24</parameterid>
									<name> </name>
									<hash>63866a15-9327-e4cb-ff31-c9ea0000000e</hash>
								</parameter>
								<parameter authoringApp="PremierePro">
									<parameterid>25</parameterid>
									<name>Look</name>
									<IsTimeVarying>false</IsTimeVarying>
									<ParameterControlType>7</ParameterControlType>
									<LowerBound>0</LowerBound>
									<UpperBound>998</UpperBound>
									<value>-91445760000000000,0,0,0,0,0,0,0</value>
								</parameter>
								<parameter authoringApp="PremierePro">
									<parameterid>26</parameterid>
									<name>Intensity</name>
									<IsTimeVarying>false</IsTimeVarying>
									<ParameterControlType>8</ParameterControlType>
									<LowerBound>0</LowerBound>
									<UpperBound>200</UpperBound>
									<value>-91445760000000000,100.,0,0,0,0,0,0</value>
								</parameter>
								<parameter authoringApp="PremierePro">
									<parameterid>28</parameterid>
									<name>Faded Film</name>
									<IsTimeVarying>false</IsTimeVarying>
									<ParameterControlType>8</ParameterControlType>
									<LowerBound>0</LowerBound>
									<UpperBound>150</UpperBound>
									<UpperUIBound>100</UpperUIBound>
									<value>-91445760000000000,0.,0,0,0,0,0,0</value>
								</parameter>
								<parameter authoringApp="PremierePro">
									<parameterid>29</parameterid>
									<name>Sharpen</name>
									<IsTimeVarying>false</IsTimeVarying>
									<ParameterControlType>8</ParameterControlType>
									<LowerBound>-100</LowerBound>
									<UpperBound>100</UpperBound>
									<value>-91445760000000000,0.,0,0,0,0,0,0</value>
								</parameter>
								<parameter authoringApp="PremierePro">
									<parameterid>30</parameterid>
									<name>Vibrance</name>
									<IsTimeVarying>false</IsTimeVarying>
									<ParameterControlType>8</ParameterControlType>
									<LowerBound>-100</LowerBound>
									<UpperBound>100</UpperBound>
									<value>-91445760000000000,0.,0,0,0,0,0,0</value>
								</parameter>
								<parameter authoringApp="PremierePro">
									<parameterid>31</parameterid>
									<name>Saturation</name>
									<IsTimeVarying>false</IsTimeVarying>
									<ParameterControlType>8</ParameterControlType>
									<LowerBound>0</LowerBound>
									<UpperBound>300</UpperBound>
									<UpperUIBound>200</UpperUIBound>
									<value>-91445760000000000,100.,0,0,0,0,0,0</value>
								</parameter>
								<parameter authoringApp="PremierePro">
									<parameterid>32</parameterid>
									<name></name>
									<hash>49d2fca5-ddd1-a393-0544-f6d80000002c</hash>
								</parameter>
								<parameter authoringApp="PremierePro">
									<parameterid>33</parameterid>
									<name>Tint Balance</name>
									<IsTimeVarying>false</IsTimeVarying>
									<ParameterControlType>8</ParameterControlType>
									<LowerBound>-150</LowerBound>
									<UpperBound>150</UpperBound>
									<LowerUIBound>-100</LowerUIBound>
									<UpperUIBound>100</UpperUIBound>
									<value>-91445760000000000,0.,0,0,0,0,0,0</value>
								</parameter>
								<parameter authoringApp="PremierePro">
									<parameterid>37</parameterid>
									<name> </name>
									<IsTimeVarying>false</IsTimeVarying>
									<ParameterControlType>4</ParameterControlType>
									<LowerBound>false</LowerBound>
									<UpperBound>true</UpperBound>
									<value>-91445760000000000,true,0,0,0,0,0,0</value>
								</parameter>
								<parameter authoringApp="PremierePro">
									<parameterid>39</parameterid>
									<name> </name>
									<hash>261f3840-e8cf-a8cd-fa5e-bac10000082c</hash>
								</parameter>
								<parameter authoringApp="PremierePro">
									<parameterid>42</parameterid>
									<name> </name>
									<hash>ccfaa4df-d630-7661-76dd-3e4900000214</hash>
								</parameter>
								<parameter authoringApp="PremierePro">
									<parameterid>46</parameterid>
									<name> </name>
									<IsTimeVarying>false</IsTimeVarying>
									<ParameterControlType>4</ParameterControlType>
									<LowerBound>false</LowerBound>
									<UpperBound>true</UpperBound>
									<value>-91445760000000000,true,0,0,0,0,0,0</value>
								</parameter>
								<parameter authoringApp="PremierePro">
									<parameterid>47</parameterid>
									<name> </name>
									<hash>0b5436c4-bae0-bb64-a2f6-c8c40000006c</hash>
								</parameter>
								<parameter authoringApp="PremierePro">
									<parameterid>50</parameterid>
									<name> </name>
									<IsTimeVarying>false</IsTimeVarying>
									<ParameterControlType>4</ParameterControlType>
									<LowerBound>false</LowerBound>
									<UpperBound>true</UpperBound>
									<value>-91445760000000000,true,0,0,0,0,0,0</value>
								</parameter>
								<parameter authoringApp="PremierePro">
									<parameterid>51</parameterid>
									<name>Amount</name>
									<IsTimeVarying>false</IsTimeVarying>
									<ParameterControlType>8</ParameterControlType>
									<LowerBound>-5</LowerBound>
									<UpperBound>5</UpperBound>
									<LowerUIBound>-3</LowerUIBound>
									<UpperUIBound>3</UpperUIBound>
									<value>-91445760000000000,0.,0,0,0,0,0,0</value>
								</parameter>
								<parameter authoringApp="PremierePro">
									<parameterid>52</parameterid>
									<name>Midpoint</name>
									<IsTimeVarying>false</IsTimeVarying>
									<ParameterControlType>8</ParameterControlType>
									<LowerBound>0</LowerBound>
									<UpperBound>100</UpperBound>
									<value>-91445760000000000,50.,0,0,0,0,0,0</value>
								</parameter>
								<parameter authoringApp="PremierePro">
									<parameterid>53</parameterid>
									<name>Roundness</name>
									<IsTimeVarying>false</IsTimeVarying>
									<ParameterControlType>8</ParameterControlType>
									<LowerBound>-100</LowerBound>
									<UpperBound>100</UpperBound>
									<value>-91445760000000000,0.,0,0,0,0,0,0</value>
								</parameter>
								<parameter authoringApp="PremierePro">
									<parameterid>54</parameterid>
									<name>Feather</name>
									<IsTimeVarying>false</IsTimeVarying>
									<ParameterControlType>8</ParameterControlType>
									<LowerBound>0</LowerBound>
									<UpperBound>100</UpperBound>
									<value>-91445760000000000,50.,0,0,0,0,0,0</value>
								</parameter>
							</effect>
						</filter>
						<logginginfo>
							<description></description>
							<scene></scene>
							<shottake></shottake>
							<lognote></lognote>
							<good></good>
							<originalvideofilename></originalvideofilename>
							<originalaudiofilename></originalaudiofilename>
						</logginginfo>
						<colorinfo>
							<lut></lut>
							<lut1></lut1>
							<asc_sop></asc_sop>
							<asc_sat></asc_sat>
							<lut2></lut2>
						</colorinfo>
						<labels>
							<label2>Green</label2>
						</labels>
					</clipitem>
					<clipitem id="clipitem-461">
						<masterclipid>masterclip-67</masterclipid>
						<name>CMP2_ZCAM0126_v002_0000.png</name>
						<enabled>TRUE</enabled>
						<duration>4270</duration>
						<rate>
							<timebase>60</timebase>
							<ntsc>FALSE</ntsc>
						</rate>
						<start>58579</start>
						<end>61911</end>
						<in>0</in>
						<out>3332</out>
						<pproTicksIn>0</pproTicksIn>
						<pproTicksOut>14106355200000</pproTicksOut>
						<alphatype>none</alphatype>
						<pixelaspectratio>square</pixelaspectratio>
						<anamorphic>FALSE</anamorphic>
						<file id="file-67">
							<name>CMP2_ZCAM0126_v002_0000.png</name>
							<pathurl>file://localhost/G%3a/Departments/_Post/__Projects/035_Chimps_Part_2/6.VFX/CMP2_ZCAM0126/CMP2_ZCAM0126_v002/CMP2_ZCAM0126_v002_0000.png</pathurl>
							<rate>
								<timebase>30</timebase>
								<ntsc>TRUE</ntsc>
							</rate>
							<duration>2133</duration>
							<timecode>
								<rate>
									<timebase>30</timebase>
									<ntsc>TRUE</ntsc>
								</rate>
								<string>00:00:00:00</string>
								<frame>0</frame>
								<displayformat>NDF</displayformat>
							</timecode>
							<media>
								<video>
									<samplecharacteristics>
										<rate>
											<timebase>30</timebase>
											<ntsc>TRUE</ntsc>
										</rate>
										<width>3840</width>
										<height>3840</height>
										<anamorphic>FALSE</anamorphic>
										<pixelaspectratio>square</pixelaspectratio>
										<fielddominance>none</fielddominance>
									</samplecharacteristics>
								</video>
							</media>
						</file>
						<filter>
							<effect>
								<name>Opacity</name>
								<effectid>opacity</effectid>
								<effectcategory>motion</effectcategory>
								<effecttype>motion</effecttype>
								<mediatype>video</mediatype>
								<pproBypass>false</pproBypass>
								<parameter authoringApp="PremierePro">
									<parameterid>opacity</parameterid>
									<name>opacity</name>
									<valuemin>0</valuemin>
									<valuemax>100</valuemax>
									<value>100</value>
									<keyframe>
										<when>-180</when>
										<value>0</value>
									</keyframe>
									<keyframe>
										<when>0</when>
										<value>100</value>
									</keyframe>
									<keyframe>
										<when>3032</when>
										<value>100</value>
									</keyframe>
									<keyframe>
										<when>3332</when>
										<value>0</value>
									</keyframe>
									<keyframe>
										<when>4796</when>
										<value>100</value>
									</keyframe>
									<keyframe>
										<when>4971</when>
										<value>0</value>
									</keyframe>
								</parameter>
							</effect>
						</filter>
						<logginginfo>
							<description></description>
							<scene></scene>
							<shottake></shottake>
							<lognote></lognote>
							<good></good>
							<originalvideofilename></originalvideofilename>
							<originalaudiofilename></originalaudiofilename>
						</logginginfo>
						<colorinfo>
							<lut></lut>
							<lut1></lut1>
							<asc_sop></asc_sop>
							<asc_sat></asc_sat>
							<lut2></lut2>
						</colorinfo>
						<labels>
							<label2>Green</label2>
						</labels>
					</clipitem>
					<clipitem id="clipitem-462">
						<masterclipid>masterclip-68</masterclipid>
						<name>ZCAM0126_5509_combined_3d180_05_23_2018__13_24_31.mp4</name>
						<enabled>TRUE</enabled>
						<duration>18018</duration>
						<rate>
							<timebase>60</timebase>
							<ntsc>FALSE</ntsc>
						</rate>
						<start>61911</start>
						<end>61912</end>
						<in>11262</in>
						<out>11263</out>
						<pproTicksIn>47678803200000</pproTicksIn>
						<pproTicksOut>47683036800000</pproTicksOut>
						<alphatype>none</alphatype>
						<pixelaspectratio>square</pixelaspectratio>
						<anamorphic>FALSE</anamorphic>
						<file id="file-68">
							<name>ZCAM0126_5509_combined_3d180_05_23_2018__13_24_31.mp4</name>
							<pathurl>file://localhost/G%3a/Departments/_Post/__Projects/035_Chimps_Part_2/1.Raw/Ingest/project_chimps_20180516/Zcam_K1/video/201805161000/ZCAM0126_5509/ZCAM0126_5509_combined_3d180_05_23_2018__13_24_31.mp4</pathurl>
							<rate>
								<timebase>30</timebase>
								<ntsc>TRUE</ntsc>
							</rate>
							<duration>9000</duration>
							<timecode>
								<rate>
									<timebase>30</timebase>
									<ntsc>TRUE</ntsc>
								</rate>
								<string>00:00:00:00</string>
								<frame>0</frame>
								<displayformat>NDF</displayformat>
							</timecode>
							<media>
								<video>
									<samplecharacteristics>
										<rate>
											<timebase>30</timebase>
											<ntsc>TRUE</ntsc>
										</rate>
										<width>2048</width>
										<height>4096</height>
										<anamorphic>FALSE</anamorphic>
										<pixelaspectratio>square</pixelaspectratio>
										<fielddominance>none</fielddominance>
									</samplecharacteristics>
								</video>
								<audio>
									<samplecharacteristics>
										<depth>16</depth>
										<samplerate>48000</samplerate>
									</samplecharacteristics>
									<channelcount>2</channelcount>
								</audio>
							</media>
						</file>
						<filter>
							<effect>
								<name>Basic Motion</name>
								<effectid>basic</effectid>
								<effectcategory>motion</effectcategory>
								<effecttype>motion</effecttype>
								<mediatype>video</mediatype>
								<pproBypass>false</pproBypass>
								<parameter authoringApp="PremierePro">
									<parameterid>scale</parameterid>
									<name>Scale</name>
									<valuemin>0</valuemin>
									<valuemax>1000</valuemax>
									<value>93.8</value>
								</parameter>
								<parameter authoringApp="PremierePro">
									<parameterid>rotation</parameterid>
									<name>Rotation</name>
									<valuemin>-8640</valuemin>
									<valuemax>8640</valuemax>
									<value>0</value>
								</parameter>
								<parameter authoringApp="PremierePro">
									<parameterid>center</parameterid>
									<name>Center</name>
									<value>
										<horiz>0</horiz>
										<vert>0</vert>
									</value>
								</parameter>
								<parameter authoringApp="PremierePro">
									<parameterid>centerOffset</parameterid>
									<name>Anchor Point</name>
									<value>
										<horiz>0</horiz>
										<vert>0</vert>
									</value>
								</parameter>
								<parameter authoringApp="PremierePro">
									<parameterid>antiflicker</parameterid>
									<name>Anti-flicker Filter</name>
									<valuemin>0.0</valuemin>
									<valuemax>1.0</valuemax>
									<value>0</value>
								</parameter>
							</effect>
						</filter>
						<filter>
							<effect>
								<name>Opacity</name>
								<effectid>opacity</effectid>
								<effectcategory>motion</effectcategory>
								<effecttype>motion</effecttype>
								<mediatype>video</mediatype>
								<pproBypass>false</pproBypass>
								<parameter authoringApp="PremierePro">
									<parameterid>opacity</parameterid>
									<name>opacity</name>
									<valuemin>0</valuemin>
									<valuemax>100</valuemax>
									<value>100</value>
									<keyframe>
										<when>7751</when>
										<value>0</value>
									</keyframe>
									<keyframe>
										<when>7930</when>
										<value>100</value>
									</keyframe>
									<keyframe>
										<when>10963</when>
										<value>100</value>
									</keyframe>
									<keyframe>
										<when>11263</when>
										<value>100</value>
									</keyframe>
									<keyframe>
										<when>12727</when>
										<value>100</value>
									</keyframe>
									<keyframe>
										<when>12902</when>
										<value>0</value>
									</keyframe>
								</parameter>
							</effect>
						</filter>
						<logginginfo>
							<description></description>
							<scene></scene>
							<shottake></shottake>
							<lognote></lognote>
							<good></good>
							<originalvideofilename></originalvideofilename>
							<originalaudiofilename></originalaudiofilename>
						</logginginfo>
						<colorinfo>
							<lut></lut>
							<lut1></lut1>
							<asc_sop></asc_sop>
							<asc_sat></asc_sat>
							<lut2></lut2>
						</colorinfo>
						<labels>
							<label2>Green</label2>
						</labels>
					</clipitem>
					<clipitem id="clipitem-463">
						<masterclipid>masterclip-69</masterclipid>
						<name>Chimps&amp;C1_LOGOS_3840sq.mov</name>
						<enabled>TRUE</enabled>
						<duration>398</duration>
						<rate>
							<timebase>60</timebase>
							<ntsc>FALSE</ntsc>
						</rate>
						<start>61912</start>
						<end>62310</end>
						<in>0</in>
						<out>398</out>
						<pproTicksIn>0</pproTicksIn>
						<pproTicksOut>1684972800000</pproTicksOut>
						<alphatype>none</alphatype>
						<pixelaspectratio>square</pixelaspectratio>
						<anamorphic>FALSE</anamorphic>
						<file id="file-69">
							<name>Chimps&amp;C1_LOGOS_3840sq.mov</name>
							<pathurl>file://localhost/G%3a/Departments/_Post/__Projects/035_Chimps_Part_2/4.Graphics/Logos/Chimps&amp;C1_LOGOS_3840sq.mov</pathurl>
							<rate>
								<timebase>30</timebase>
								<ntsc>TRUE</ntsc>
							</rate>
							<duration>199</duration>
							<timecode>
								<rate>
									<timebase>30</timebase>
									<ntsc>TRUE</ntsc>
								</rate>
								<string>00:10:36:13</string>
								<frame>19093</frame>
								<displayformat>NDF</displayformat>
							</timecode>
							<media>
								<video>
									<samplecharacteristics>
										<rate>
											<timebase>30</timebase>
											<ntsc>TRUE</ntsc>
										</rate>
										<width>3840</width>
										<height>3840</height>
										<anamorphic>FALSE</anamorphic>
										<pixelaspectratio>square</pixelaspectratio>
										<fielddominance>none</fielddominance>
									</samplecharacteristics>
								</video>
							</media>
						</file>
						<logginginfo>
							<description></description>
							<scene></scene>
							<shottake></shottake>
							<lognote></lognote>
							<good></good>
							<originalvideofilename></originalvideofilename>
							<originalaudiofilename></originalaudiofilename>
						</logginginfo>
						<colorinfo>
							<lut></lut>
							<lut1></lut1>
							<asc_sop></asc_sop>
							<asc_sat></asc_sat>
							<lut2></lut2>
						</colorinfo>
						<labels>
							<label2>Green</label2>
						</labels>
					</clipitem>
					<enabled>TRUE</enabled>
					<locked>FALSE</locked>
				</track>
				<track TL.SQTrackShy="0" TL.SQTrackExpandedHeight="49" TL.SQTrackExpanded="0" MZ.TrackTargeted="1">
					<clipitem id="clipitem-464">
						<masterclipid>masterclip-70</masterclipid>
						<name>c1_Logo_ChimpsHead_Timed.mov</name>
						<enabled>TRUE</enabled>
						<duration>228</duration>
						<rate>
							<timebase>60</timebase>
							<ntsc>FALSE</ntsc>
						</rate>
						<start>0</start>
						<end>228</end>
						<in>0</in>
						<out>228</out>
						<pproTicksIn>0</pproTicksIn>
						<pproTicksOut>965260800000</pproTicksOut>
						<alphatype>none</alphatype>
						<pixelaspectratio>square</pixelaspectratio>
						<anamorphic>FALSE</anamorphic>
						<file id="file-70">
							<name>c1_Logo_ChimpsHead_Timed.mov</name>
							<pathurl>file://localhost/G%3a/Departments/_Post/__Projects/035_Chimps_Part_2/7.Exports/Renders/c1_Logo_ChimpsHead_Timed.mov</pathurl>
							<rate>
								<timebase>30</timebase>
								<ntsc>TRUE</ntsc>
							</rate>
							<duration>114</duration>
							<timecode>
								<rate>
									<timebase>30</timebase>
									<ntsc>TRUE</ntsc>
								</rate>
								<string>00:00:00:00</string>
								<frame>0</frame>
								<displayformat>NDF</displayformat>
							</timecode>
							<media>
								<video>
									<samplecharacteristics>
										<rate>
											<timebase>30</timebase>
											<ntsc>TRUE</ntsc>
										</rate>
										<width>3840</width>
										<height>3840</height>
										<anamorphic>FALSE</anamorphic>
										<pixelaspectratio>square</pixelaspectratio>
										<fielddominance>none</fielddominance>
									</samplecharacteristics>
								</video>
							</media>
						</file>
						<logginginfo>
							<description></description>
							<scene></scene>
							<shottake></shottake>
							<lognote></lognote>
							<good></good>
							<originalvideofilename></originalvideofilename>
							<originalaudiofilename></originalaudiofilename>
						</logginginfo>
						<colorinfo>
							<lut></lut>
							<lut1></lut1>
							<asc_sop></asc_sop>
							<asc_sat></asc_sat>
							<lut2></lut2>
						</colorinfo>
						<labels>
							<label2>Violet</label2>
						</labels>
					</clipitem>
					<clipitem id="clipitem-465">
						<masterclipid>masterclip-71</masterclipid>
						<name>01_root/CMP2_graphics.aep</name>
						<enabled>TRUE</enabled>
						<duration>480</duration>
						<rate>
							<timebase>60</timebase>
							<ntsc>FALSE</ntsc>
						</rate>
						<start>409</start>
						<end>889</end>
						<in>0</in>
						<out>480</out>
						<pproTicksIn>0</pproTicksIn>
						<pproTicksOut>2032128000000</pproTicksOut>
						<alphatype>straight</alphatype>
						<pixelaspectratio>square</pixelaspectratio>
						<anamorphic>FALSE</anamorphic>
						<file id="file-71">
							<name>01_root/CMP2_graphics.aep</name>
							<pathurl>file://localhost/G%3a/Departments/_Post/__Projects/035_Chimps_Part_2/4.Graphics/CMP2_graphics.aep</pathurl>
							<rate>
								<timebase>60</timebase>
								<ntsc>FALSE</ntsc>
							</rate>
							<duration>480</duration>
							<timecode>
								<rate>
									<timebase>60</timebase>
									<ntsc>FALSE</ntsc>
								</rate>
								<string>00:00:00:00</string>
								<frame>0</frame>
								<displayformat>NDF</displayformat>
							</timecode>
							<media>
								<video>
									<samplecharacteristics>
										<rate>
											<timebase>60</timebase>
											<ntsc>FALSE</ntsc>
										</rate>
										<width>3840</width>
										<height>3840</height>
										<anamorphic>FALSE</anamorphic>
										<pixelaspectratio>square</pixelaspectratio>
										<fielddominance>lower</fielddominance>
									</samplecharacteristics>
								</video>
							</media>
						</file>
						<logginginfo>
							<description></description>
							<scene></scene>
							<shottake></shottake>
							<lognote></lognote>
							<good></good>
							<originalvideofilename></originalvideofilename>
							<originalaudiofilename></originalaudiofilename>
						</logginginfo>
						<colorinfo>
							<lut></lut>
							<lut1></lut1>
							<asc_sop></asc_sop>
							<asc_sat></asc_sat>
							<lut2></lut2>
						</colorinfo>
						<labels>
							<label2>Rose</label2>
						</labels>
					</clipitem>
					<clipitem id="clipitem-466">
						<masterclipid>masterclip-72</masterclipid>
						<name>02_root/CMP2_graphics.aep</name>
						<enabled>TRUE</enabled>
						<duration>390</duration>
						<rate>
							<timebase>60</timebase>
							<ntsc>FALSE</ntsc>
						</rate>
						<start>902</start>
						<end>1292</end>
						<in>0</in>
						<out>390</out>
						<pproTicksIn>0</pproTicksIn>
						<pproTicksOut>1651104000000</pproTicksOut>
						<alphatype>straight</alphatype>
						<pixelaspectratio>square</pixelaspectratio>
						<anamorphic>FALSE</anamorphic>
						<file id="file-72">
							<name>02_root/CMP2_graphics.aep</name>
							<pathurl>file://localhost/G%3a/Departments/_Post/__Projects/035_Chimps_Part_2/4.Graphics/CMP2_graphics.aep</pathurl>
							<rate>
								<timebase>60</timebase>
								<ntsc>FALSE</ntsc>
							</rate>
							<duration>390</duration>
							<timecode>
								<rate>
									<timebase>60</timebase>
									<ntsc>FALSE</ntsc>
								</rate>
								<string>00:00:00:00</string>
								<frame>0</frame>
								<displayformat>NDF</displayformat>
							</timecode>
							<media>
								<video>
									<samplecharacteristics>
										<rate>
											<timebase>60</timebase>
											<ntsc>FALSE</ntsc>
										</rate>
										<width>3840</width>
										<height>3840</height>
										<anamorphic>FALSE</anamorphic>
										<pixelaspectratio>square</pixelaspectratio>
										<fielddominance>lower</fielddominance>
									</samplecharacteristics>
								</video>
							</media>
						</file>
						<logginginfo>
							<description></description>
							<scene></scene>
							<shottake></shottake>
							<lognote></lognote>
							<good></good>
							<originalvideofilename></originalvideofilename>
							<originalaudiofilename></originalaudiofilename>
						</logginginfo>
						<colorinfo>
							<lut></lut>
							<lut1></lut1>
							<asc_sop></asc_sop>
							<asc_sat></asc_sat>
							<lut2></lut2>
						</colorinfo>
						<labels>
							<label2>Rose</label2>
						</labels>
					</clipitem>
					<clipitem id="clipitem-467">
						<masterclipid>masterclip-73</masterclipid>
						<name>03_root/CMP2_graphics.aep</name>
						<enabled>TRUE</enabled>
						<duration>448</duration>
						<rate>
							<timebase>60</timebase>
							<ntsc>FALSE</ntsc>
						</rate>
						<start>1323</start>
						<end>1771</end>
						<in>0</in>
						<out>448</out>
						<pproTicksIn>0</pproTicksIn>
						<pproTicksOut>1896652800000</pproTicksOut>
						<alphatype>straight</alphatype>
						<pixelaspectratio>square</pixelaspectratio>
						<anamorphic>FALSE</anamorphic>
						<file id="file-73">
							<name>03_root/CMP2_graphics.aep</name>
							<pathurl>file://localhost/G%3a/Departments/_Post/__Projects/035_Chimps_Part_2/4.Graphics/CMP2_graphics.aep</pathurl>
							<rate>
								<timebase>60</timebase>
								<ntsc>FALSE</ntsc>
							</rate>
							<duration>448</duration>
							<timecode>
								<rate>
									<timebase>60</timebase>
									<ntsc>FALSE</ntsc>
								</rate>
								<string>00:00:00:00</string>
								<frame>0</frame>
								<displayformat>NDF</displayformat>
							</timecode>
							<media>
								<video>
									<samplecharacteristics>
										<rate>
											<timebase>60</timebase>
											<ntsc>FALSE</ntsc>
										</rate>
										<width>3840</width>
										<height>3840</height>
										<anamorphic>FALSE</anamorphic>
										<pixelaspectratio>square</pixelaspectratio>
										<fielddominance>lower</fielddominance>
									</samplecharacteristics>
								</video>
							</media>
						</file>
						<logginginfo>
							<description></description>
							<scene></scene>
							<shottake></shottake>
							<lognote></lognote>
							<good></good>
							<originalvideofilename></originalvideofilename>
							<originalaudiofilename></originalaudiofilename>
						</logginginfo>
						<colorinfo>
							<lut></lut>
							<lut1></lut1>
							<asc_sop></asc_sop>
							<asc_sat></asc_sat>
							<lut2></lut2>
						</colorinfo>
						<labels>
							<label2>Rose</label2>
						</labels>
					</clipitem>
					<clipitem id="clipitem-468">
						<masterclipid>masterclip-74</masterclipid>
						<name>BLINK_TEST_24frames.mov</name>
						<enabled>TRUE</enabled>
						<duration>24</duration>
						<rate>
							<timebase>60</timebase>
							<ntsc>FALSE</ntsc>
						</rate>
						<start>9883</start>
						<end>9884</end>
						<in>7</in>
						<out>8</out>
						<pproTicksIn>29635200000</pproTicksIn>
						<pproTicksOut>33868800000</pproTicksOut>
						<alphatype>straight</alphatype>
						<pixelaspectratio>square</pixelaspectratio>
						<anamorphic>FALSE</anamorphic>
						<file id="file-74">
							<name>BLINK_TEST_24frames.mov</name>
							<pathurl>file://localhost/G%3a/Users/Kelsey/BLINK_TESTS/BLINK_TEST_24frames.mov</pathurl>
							<rate>
								<timebase>60</timebase>
								<ntsc>FALSE</ntsc>
							</rate>
							<duration>24</duration>
							<timecode>
								<rate>
									<timebase>60</timebase>
									<ntsc>FALSE</ntsc>
								</rate>
								<string>00:00:00:00</string>
								<frame>0</frame>
								<displayformat>NDF</displayformat>
							</timecode>
							<media>
								<video>
									<samplecharacteristics>
										<rate>
											<timebase>60</timebase>
											<ntsc>FALSE</ntsc>
										</rate>
										<width>3840</width>
										<height>3840</height>
										<anamorphic>FALSE</anamorphic>
										<pixelaspectratio>square</pixelaspectratio>
										<fielddominance>none</fielddominance>
									</samplecharacteristics>
								</video>
							</media>
						</file>
						<filter>
							<effect>
								<name>Basic Motion</name>
								<effectid>basic</effectid>
								<effectcategory>motion</effectcategory>
								<effecttype>motion</effecttype>
								<mediatype>video</mediatype>
								<pproBypass>false</pproBypass>
								<parameter authoringApp="PremierePro">
									<parameterid>scale</parameterid>
									<name>Scale</name>
									<valuemin>0</valuemin>
									<valuemax>1000</valuemax>
									<value>100</value>
								</parameter>
								<parameter authoringApp="PremierePro">
									<parameterid>rotation</parameterid>
									<name>Rotation</name>
									<valuemin>-8640</valuemin>
									<valuemax>8640</valuemax>
									<value>0</value>
								</parameter>
								<parameter authoringApp="PremierePro">
									<parameterid>center</parameterid>
									<name>Center</name>
									<value>
										<horiz>0</horiz>
										<vert>0.25</vert>
									</value>
								</parameter>
								<parameter authoringApp="PremierePro">
									<parameterid>centerOffset</parameterid>
									<name>Anchor Point</name>
									<value>
										<horiz>0</horiz>
										<vert>0</vert>
									</value>
								</parameter>
								<parameter authoringApp="PremierePro">
									<parameterid>antiflicker</parameterid>
									<name>Anti-flicker Filter</name>
									<valuemin>0.0</valuemin>
									<valuemax>1.0</valuemax>
									<value>0</value>
								</parameter>
							</effect>
						</filter>
						<filter>
							<effect>
								<name>Distort</name>
								<effectid>deformation</effectid>
								<effectcategory>motion</effectcategory>
								<effecttype>motion</effecttype>
								<mediatype>video</mediatype>
								<parameter authoringApp="PremierePro">
									<parameterid>aspect</parameterid>
									<name>Aspect</name>
									<valuemin>-10000</valuemin>
									<valuemax>10000</valuemax>
									<value>-100</value>
								</parameter>
							</effect>
						</filter>
						<filter>
							<effect>
								<name>Crop</name>
								<effectid>crop</effectid>
								<effectcategory>motion</effectcategory>
								<effecttype>motion</effecttype>
								<mediatype>video</mediatype>
								<pproBypass>false</pproBypass>
								<parameter authoringApp="PremierePro">
									<parameterid>left</parameterid>
									<name>left</name>
									<valuemin>0</valuemin>
									<valuemax>100</valuemax>
									<value>0</value>
								</parameter>
								<parameter authoringApp="PremierePro">
									<parameterid>right</parameterid>
									<name>right</name>
									<valuemin>0</valuemin>
									<valuemax>100</valuemax>
									<value>0</value>
								</parameter>
								<parameter authoringApp="PremierePro">
									<parameterid>top</parameterid>
									<name>top</name>
									<valuemin>0</valuemin>
									<valuemax>100</valuemax>
									<value>0</value>
								</parameter>
								<parameter authoringApp="PremierePro">
									<parameterid>bottom</parameterid>
									<name>bottom</name>
									<valuemin>0</valuemin>
									<valuemax>100</valuemax>
									<value>42</value>
								</parameter>
							</effect>
						</filter>
						<logginginfo>
							<description></description>
							<scene></scene>
							<shottake></shottake>
							<lognote></lognote>
							<good></good>
							<originalvideofilename></originalvideofilename>
							<originalaudiofilename></originalaudiofilename>
						</logginginfo>
						<colorinfo>
							<lut></lut>
							<lut1></lut1>
							<asc_sop></asc_sop>
							<asc_sat></asc_sat>
							<lut2></lut2>
						</colorinfo>
						<labels>
							<label2>Lavender</label2>
						</labels>
					</clipitem>
					<clipitem id="clipitem-469">
						<masterclipid>masterclip-75</masterclipid>
						<name>BLINK_TEST_24frames_ALT.mov</name>
						<enabled>TRUE</enabled>
						<duration>24</duration>
						<rate>
							<timebase>60</timebase>
							<ntsc>FALSE</ntsc>
						</rate>
						<start>9884</start>
						<end>9885</end>
						<in>12</in>
						<out>13</out>
						<pproTicksIn>50803200000</pproTicksIn>
						<pproTicksOut>55036800000</pproTicksOut>
						<alphatype>straight</alphatype>
						<pixelaspectratio>square</pixelaspectratio>
						<anamorphic>FALSE</anamorphic>
						<file id="file-75">
							<name>BLINK_TEST_24frames_ALT.mov</name>
							<pathurl>file://localhost/G%3a/Users/Kelsey/BLINK_TESTS/BLINK_TEST_24frames_ALT.mov</pathurl>
							<rate>
								<timebase>60</timebase>
								<ntsc>FALSE</ntsc>
							</rate>
							<duration>24</duration>
							<timecode>
								<rate>
									<timebase>60</timebase>
									<ntsc>FALSE</ntsc>
								</rate>
								<string>00:00:00:00</string>
								<frame>0</frame>
								<displayformat>NDF</displayformat>
							</timecode>
							<media>
								<video>
									<samplecharacteristics>
										<rate>
											<timebase>60</timebase>
											<ntsc>FALSE</ntsc>
										</rate>
										<width>3840</width>
										<height>3840</height>
										<anamorphic>FALSE</anamorphic>
										<pixelaspectratio>square</pixelaspectratio>
										<fielddominance>none</fielddominance>
									</samplecharacteristics>
								</video>
							</media>
						</file>
						<logginginfo>
							<description></description>
							<scene></scene>
							<shottake></shottake>
							<lognote></lognote>
							<good></good>
							<originalvideofilename></originalvideofilename>
							<originalaudiofilename></originalaudiofilename>
						</logginginfo>
						<colorinfo>
							<lut></lut>
							<lut1></lut1>
							<asc_sop></asc_sop>
							<asc_sat></asc_sat>
							<lut2></lut2>
						</colorinfo>
						<labels>
							<label2>Lavender</label2>
						</labels>
					</clipitem>
					<clipitem id="clipitem-470">
						<masterclipid>masterclip-74</masterclipid>
						<name>BLINK_TEST_24frames.mov</name>
						<enabled>TRUE</enabled>
						<duration>24</duration>
						<rate>
							<timebase>60</timebase>
							<ntsc>FALSE</ntsc>
						</rate>
						<start>9885</start>
						<end>9886</end>
						<in>7</in>
						<out>8</out>
						<pproTicksIn>29635200000</pproTicksIn>
						<pproTicksOut>33868800000</pproTicksOut>
						<alphatype>straight</alphatype>
						<file id="file-74"/>
						<filter>
							<effect>
								<name>Basic Motion</name>
								<effectid>basic</effectid>
								<effectcategory>motion</effectcategory>
								<effecttype>motion</effecttype>
								<mediatype>video</mediatype>
								<pproBypass>false</pproBypass>
								<parameter authoringApp="PremierePro">
									<parameterid>scale</parameterid>
									<name>Scale</name>
									<valuemin>0</valuemin>
									<valuemax>1000</valuemax>
									<value>100</value>
								</parameter>
								<parameter authoringApp="PremierePro">
									<parameterid>rotation</parameterid>
									<name>Rotation</name>
									<valuemin>-8640</valuemin>
									<valuemax>8640</valuemax>
									<value>0</value>
								</parameter>
								<parameter authoringApp="PremierePro">
									<parameterid>center</parameterid>
									<name>Center</name>
									<value>
										<horiz>0</horiz>
										<vert>0.25</vert>
									</value>
								</parameter>
								<parameter authoringApp="PremierePro">
									<parameterid>centerOffset</parameterid>
									<name>Anchor Point</name>
									<value>
										<horiz>0</horiz>
										<vert>0</vert>
									</value>
								</parameter>
								<parameter authoringApp="PremierePro">
									<parameterid>antiflicker</parameterid>
									<name>Anti-flicker Filter</name>
									<valuemin>0.0</valuemin>
									<valuemax>1.0</valuemax>
									<value>0</value>
								</parameter>
							</effect>
						</filter>
						<filter>
							<effect>
								<name>Distort</name>
								<effectid>deformation</effectid>
								<effectcategory>motion</effectcategory>
								<effecttype>motion</effecttype>
								<mediatype>video</mediatype>
								<parameter authoringApp="PremierePro">
									<parameterid>aspect</parameterid>
									<name>Aspect</name>
									<valuemin>-10000</valuemin>
									<valuemax>10000</valuemax>
									<value>-100</value>
								</parameter>
							</effect>
						</filter>
						<filter>
							<effect>
								<name>Crop</name>
								<effectid>crop</effectid>
								<effectcategory>motion</effectcategory>
								<effecttype>motion</effecttype>
								<mediatype>video</mediatype>
								<pproBypass>false</pproBypass>
								<parameter authoringApp="PremierePro">
									<parameterid>left</parameterid>
									<name>left</name>
									<valuemin>0</valuemin>
									<valuemax>100</valuemax>
									<value>0</value>
								</parameter>
								<parameter authoringApp="PremierePro">
									<parameterid>right</parameterid>
									<name>right</name>
									<valuemin>0</valuemin>
									<valuemax>100</valuemax>
									<value>0</value>
								</parameter>
								<parameter authoringApp="PremierePro">
									<parameterid>top</parameterid>
									<name>top</name>
									<valuemin>0</valuemin>
									<valuemax>100</valuemax>
									<value>0</value>
								</parameter>
								<parameter authoringApp="PremierePro">
									<parameterid>bottom</parameterid>
									<name>bottom</name>
									<valuemin>0</valuemin>
									<valuemax>100</valuemax>
									<value>42</value>
								</parameter>
							</effect>
						</filter>
						<logginginfo>
							<description></description>
							<scene></scene>
							<shottake></shottake>
							<lognote></lognote>
							<good></good>
							<originalvideofilename></originalvideofilename>
							<originalaudiofilename></originalaudiofilename>
						</logginginfo>
						<colorinfo>
							<lut></lut>
							<lut1></lut1>
							<asc_sop></asc_sop>
							<asc_sat></asc_sat>
							<lut2></lut2>
						</colorinfo>
						<labels>
							<label2>Lavender</label2>
						</labels>
					</clipitem>
					<clipitem id="clipitem-471">
						<masterclipid>masterclip-74</masterclipid>
						<name>BLINK_TEST_24frames.mov</name>
						<enabled>TRUE</enabled>
						<duration>24</duration>
						<rate>
							<timebase>60</timebase>
							<ntsc>FALSE</ntsc>
						</rate>
						<start>19879</start>
						<end>19880</end>
						<in>7</in>
						<out>8</out>
						<pproTicksIn>29635200000</pproTicksIn>
						<pproTicksOut>33868800000</pproTicksOut>
						<alphatype>straight</alphatype>
						<file id="file-74"/>
						<filter>
							<effect>
								<name>Basic Motion</name>
								<effectid>basic</effectid>
								<effectcategory>motion</effectcategory>
								<effecttype>motion</effecttype>
								<mediatype>video</mediatype>
								<pproBypass>false</pproBypass>
								<parameter authoringApp="PremierePro">
									<parameterid>scale</parameterid>
									<name>Scale</name>
									<valuemin>0</valuemin>
									<valuemax>1000</valuemax>
									<value>100</value>
								</parameter>
								<parameter authoringApp="PremierePro">
									<parameterid>rotation</parameterid>
									<name>Rotation</name>
									<valuemin>-8640</valuemin>
									<valuemax>8640</valuemax>
									<value>0</value>
								</parameter>
								<parameter authoringApp="PremierePro">
									<parameterid>center</parameterid>
									<name>Center</name>
									<value>
										<horiz>0</horiz>
										<vert>0.25</vert>
									</value>
								</parameter>
								<parameter authoringApp="PremierePro">
									<parameterid>centerOffset</parameterid>
									<name>Anchor Point</name>
									<value>
										<horiz>0</horiz>
										<vert>0</vert>
									</value>
								</parameter>
								<parameter authoringApp="PremierePro">
									<parameterid>antiflicker</parameterid>
									<name>Anti-flicker Filter</name>
									<valuemin>0.0</valuemin>
									<valuemax>1.0</valuemax>
									<value>0</value>
								</parameter>
							</effect>
						</filter>
						<filter>
							<effect>
								<name>Distort</name>
								<effectid>deformation</effectid>
								<effectcategory>motion</effectcategory>
								<effecttype>motion</effecttype>
								<mediatype>video</mediatype>
								<parameter authoringApp="PremierePro">
									<parameterid>aspect</parameterid>
									<name>Aspect</name>
									<valuemin>-10000</valuemin>
									<valuemax>10000</valuemax>
									<value>-100</value>
								</parameter>
							</effect>
						</filter>
						<filter>
							<effect>
								<name>Crop</name>
								<effectid>crop</effectid>
								<effectcategory>motion</effectcategory>
								<effecttype>motion</effecttype>
								<mediatype>video</mediatype>
								<pproBypass>false</pproBypass>
								<parameter authoringApp="PremierePro">
									<parameterid>left</parameterid>
									<name>left</name>
									<valuemin>0</valuemin>
									<valuemax>100</valuemax>
									<value>0</value>
								</parameter>
								<parameter authoringApp="PremierePro">
									<parameterid>right</parameterid>
									<name>right</name>
									<valuemin>0</valuemin>
									<valuemax>100</valuemax>
									<value>0</value>
								</parameter>
								<parameter authoringApp="PremierePro">
									<parameterid>top</parameterid>
									<name>top</name>
									<valuemin>0</valuemin>
									<valuemax>100</valuemax>
									<value>0</value>
								</parameter>
								<parameter authoringApp="PremierePro">
									<parameterid>bottom</parameterid>
									<name>bottom</name>
									<valuemin>0</valuemin>
									<valuemax>100</valuemax>
									<value>42</value>
								</parameter>
							</effect>
						</filter>
						<logginginfo>
							<description></description>
							<scene></scene>
							<shottake></shottake>
							<lognote></lognote>
							<good></good>
							<originalvideofilename></originalvideofilename>
							<originalaudiofilename></originalaudiofilename>
						</logginginfo>
						<colorinfo>
							<lut></lut>
							<lut1></lut1>
							<asc_sop></asc_sop>
							<asc_sat></asc_sat>
							<lut2></lut2>
						</colorinfo>
						<labels>
							<label2>Lavender</label2>
						</labels>
					</clipitem>
					<clipitem id="clipitem-472">
						<masterclipid>masterclip-75</masterclipid>
						<name>BLINK_TEST_24frames_ALT.mov</name>
						<enabled>TRUE</enabled>
						<duration>24</duration>
						<rate>
							<timebase>60</timebase>
							<ntsc>FALSE</ntsc>
						</rate>
						<start>19880</start>
						<end>19881</end>
						<in>12</in>
						<out>13</out>
						<pproTicksIn>50803200000</pproTicksIn>
						<pproTicksOut>55036800000</pproTicksOut>
						<alphatype>straight</alphatype>
						<file id="file-75"/>
						<logginginfo>
							<description></description>
							<scene></scene>
							<shottake></shottake>
							<lognote></lognote>
							<good></good>
							<originalvideofilename></originalvideofilename>
							<originalaudiofilename></originalaudiofilename>
						</logginginfo>
						<colorinfo>
							<lut></lut>
							<lut1></lut1>
							<asc_sop></asc_sop>
							<asc_sat></asc_sat>
							<lut2></lut2>
						</colorinfo>
						<labels>
							<label2>Lavender</label2>
						</labels>
					</clipitem>
					<clipitem id="clipitem-473">
						<masterclipid>masterclip-74</masterclipid>
						<name>BLINK_TEST_24frames.mov</name>
						<enabled>TRUE</enabled>
						<duration>24</duration>
						<rate>
							<timebase>60</timebase>
							<ntsc>FALSE</ntsc>
						</rate>
						<start>19881</start>
						<end>19882</end>
						<in>7</in>
						<out>8</out>
						<pproTicksIn>29635200000</pproTicksIn>
						<pproTicksOut>33868800000</pproTicksOut>
						<alphatype>straight</alphatype>
						<file id="file-74"/>
						<filter>
							<effect>
								<name>Basic Motion</name>
								<effectid>basic</effectid>
								<effectcategory>motion</effectcategory>
								<effecttype>motion</effecttype>
								<mediatype>video</mediatype>
								<pproBypass>false</pproBypass>
								<parameter authoringApp="PremierePro">
									<parameterid>scale</parameterid>
									<name>Scale</name>
									<valuemin>0</valuemin>
									<valuemax>1000</valuemax>
									<value>100</value>
								</parameter>
								<parameter authoringApp="PremierePro">
									<parameterid>rotation</parameterid>
									<name>Rotation</name>
									<valuemin>-8640</valuemin>
									<valuemax>8640</valuemax>
									<value>0</value>
								</parameter>
								<parameter authoringApp="PremierePro">
									<parameterid>center</parameterid>
									<name>Center</name>
									<value>
										<horiz>0</horiz>
										<vert>0.25</vert>
									</value>
								</parameter>
								<parameter authoringApp="PremierePro">
									<parameterid>centerOffset</parameterid>
									<name>Anchor Point</name>
									<value>
										<horiz>0</horiz>
										<vert>0</vert>
									</value>
								</parameter>
								<parameter authoringApp="PremierePro">
									<parameterid>antiflicker</parameterid>
									<name>Anti-flicker Filter</name>
									<valuemin>0.0</valuemin>
									<valuemax>1.0</valuemax>
									<value>0</value>
								</parameter>
							</effect>
						</filter>
						<filter>
							<effect>
								<name>Distort</name>
								<effectid>deformation</effectid>
								<effectcategory>motion</effectcategory>
								<effecttype>motion</effecttype>
								<mediatype>video</mediatype>
								<parameter authoringApp="PremierePro">
									<parameterid>aspect</parameterid>
									<name>Aspect</name>
									<valuemin>-10000</valuemin>
									<valuemax>10000</valuemax>
									<value>-100</value>
								</parameter>
							</effect>
						</filter>
						<filter>
							<effect>
								<name>Crop</name>
								<effectid>crop</effectid>
								<effectcategory>motion</effectcategory>
								<effecttype>motion</effecttype>
								<mediatype>video</mediatype>
								<pproBypass>false</pproBypass>
								<parameter authoringApp="PremierePro">
									<parameterid>left</parameterid>
									<name>left</name>
									<valuemin>0</valuemin>
									<valuemax>100</valuemax>
									<value>0</value>
								</parameter>
								<parameter authoringApp="PremierePro">
									<parameterid>right</parameterid>
									<name>right</name>
									<valuemin>0</valuemin>
									<valuemax>100</valuemax>
									<value>0</value>
								</parameter>
								<parameter authoringApp="PremierePro">
									<parameterid>top</parameterid>
									<name>top</name>
									<valuemin>0</valuemin>
									<valuemax>100</valuemax>
									<value>0</value>
								</parameter>
								<parameter authoringApp="PremierePro">
									<parameterid>bottom</parameterid>
									<name>bottom</name>
									<valuemin>0</valuemin>
									<valuemax>100</valuemax>
									<value>42</value>
								</parameter>
							</effect>
						</filter>
						<logginginfo>
							<description></description>
							<scene></scene>
							<shottake></shottake>
							<lognote></lognote>
							<good></good>
							<originalvideofilename></originalvideofilename>
							<originalaudiofilename></originalaudiofilename>
						</logginginfo>
						<colorinfo>
							<lut></lut>
							<lut1></lut1>
							<asc_sop></asc_sop>
							<asc_sat></asc_sat>
							<lut2></lut2>
						</colorinfo>
						<labels>
							<label2>Lavender</label2>
						</labels>
					</clipitem>
					<clipitem id="clipitem-474">
						<masterclipid>masterclip-74</masterclipid>
						<name>BLINK_TEST_24frames.mov</name>
						<enabled>TRUE</enabled>
						<duration>24</duration>
						<rate>
							<timebase>60</timebase>
							<ntsc>FALSE</ntsc>
						</rate>
						<start>22864</start>
						<end>22865</end>
						<in>7</in>
						<out>8</out>
						<pproTicksIn>29635200000</pproTicksIn>
						<pproTicksOut>33868800000</pproTicksOut>
						<alphatype>straight</alphatype>
						<file id="file-74"/>
						<filter>
							<effect>
								<name>Basic Motion</name>
								<effectid>basic</effectid>
								<effectcategory>motion</effectcategory>
								<effecttype>motion</effecttype>
								<mediatype>video</mediatype>
								<pproBypass>false</pproBypass>
								<parameter authoringApp="PremierePro">
									<parameterid>scale</parameterid>
									<name>Scale</name>
									<valuemin>0</valuemin>
									<valuemax>1000</valuemax>
									<value>100</value>
								</parameter>
								<parameter authoringApp="PremierePro">
									<parameterid>rotation</parameterid>
									<name>Rotation</name>
									<valuemin>-8640</valuemin>
									<valuemax>8640</valuemax>
									<value>0</value>
								</parameter>
								<parameter authoringApp="PremierePro">
									<parameterid>center</parameterid>
									<name>Center</name>
									<value>
										<horiz>0</horiz>
										<vert>0.25</vert>
									</value>
								</parameter>
								<parameter authoringApp="PremierePro">
									<parameterid>centerOffset</parameterid>
									<name>Anchor Point</name>
									<value>
										<horiz>0</horiz>
										<vert>0</vert>
									</value>
								</parameter>
								<parameter authoringApp="PremierePro">
									<parameterid>antiflicker</parameterid>
									<name>Anti-flicker Filter</name>
									<valuemin>0.0</valuemin>
									<valuemax>1.0</valuemax>
									<value>0</value>
								</parameter>
							</effect>
						</filter>
						<filter>
							<effect>
								<name>Distort</name>
								<effectid>deformation</effectid>
								<effectcategory>motion</effectcategory>
								<effecttype>motion</effecttype>
								<mediatype>video</mediatype>
								<parameter authoringApp="PremierePro">
									<parameterid>aspect</parameterid>
									<name>Aspect</name>
									<valuemin>-10000</valuemin>
									<valuemax>10000</valuemax>
									<value>-100</value>
								</parameter>
							</effect>
						</filter>
						<filter>
							<effect>
								<name>Crop</name>
								<effectid>crop</effectid>
								<effectcategory>motion</effectcategory>
								<effecttype>motion</effecttype>
								<mediatype>video</mediatype>
								<pproBypass>false</pproBypass>
								<parameter authoringApp="PremierePro">
									<parameterid>left</parameterid>
									<name>left</name>
									<valuemin>0</valuemin>
									<valuemax>100</valuemax>
									<value>0</value>
								</parameter>
								<parameter authoringApp="PremierePro">
									<parameterid>right</parameterid>
									<name>right</name>
									<valuemin>0</valuemin>
									<valuemax>100</valuemax>
									<value>0</value>
								</parameter>
								<parameter authoringApp="PremierePro">
									<parameterid>top</parameterid>
									<name>top</name>
									<valuemin>0</valuemin>
									<valuemax>100</valuemax>
									<value>0</value>
								</parameter>
								<parameter authoringApp="PremierePro">
									<parameterid>bottom</parameterid>
									<name>bottom</name>
									<valuemin>0</valuemin>
									<valuemax>100</valuemax>
									<value>42</value>
								</parameter>
							</effect>
						</filter>
						<logginginfo>
							<description></description>
							<scene></scene>
							<shottake></shottake>
							<lognote></lognote>
							<good></good>
							<originalvideofilename></originalvideofilename>
							<originalaudiofilename></originalaudiofilename>
						</logginginfo>
						<colorinfo>
							<lut></lut>
							<lut1></lut1>
							<asc_sop></asc_sop>
							<asc_sat></asc_sat>
							<lut2></lut2>
						</colorinfo>
						<labels>
							<label2>Lavender</label2>
						</labels>
					</clipitem>
					<clipitem id="clipitem-475">
						<masterclipid>masterclip-75</masterclipid>
						<name>BLINK_TEST_24frames_ALT.mov</name>
						<enabled>TRUE</enabled>
						<duration>24</duration>
						<rate>
							<timebase>60</timebase>
							<ntsc>FALSE</ntsc>
						</rate>
						<start>22865</start>
						<end>22866</end>
						<in>12</in>
						<out>13</out>
						<pproTicksIn>50803200000</pproTicksIn>
						<pproTicksOut>55036800000</pproTicksOut>
						<alphatype>straight</alphatype>
						<file id="file-75"/>
						<logginginfo>
							<description></description>
							<scene></scene>
							<shottake></shottake>
							<lognote></lognote>
							<good></good>
							<originalvideofilename></originalvideofilename>
							<originalaudiofilename></originalaudiofilename>
						</logginginfo>
						<colorinfo>
							<lut></lut>
							<lut1></lut1>
							<asc_sop></asc_sop>
							<asc_sat></asc_sat>
							<lut2></lut2>
						</colorinfo>
						<labels>
							<label2>Lavender</label2>
						</labels>
					</clipitem>
					<clipitem id="clipitem-476">
						<masterclipid>masterclip-74</masterclipid>
						<name>BLINK_TEST_24frames.mov</name>
						<enabled>TRUE</enabled>
						<duration>24</duration>
						<rate>
							<timebase>60</timebase>
							<ntsc>FALSE</ntsc>
						</rate>
						<start>22866</start>
						<end>22867</end>
						<in>7</in>
						<out>8</out>
						<pproTicksIn>29635200000</pproTicksIn>
						<pproTicksOut>33868800000</pproTicksOut>
						<alphatype>straight</alphatype>
						<file id="file-74"/>
						<filter>
							<effect>
								<name>Basic Motion</name>
								<effectid>basic</effectid>
								<effectcategory>motion</effectcategory>
								<effecttype>motion</effecttype>
								<mediatype>video</mediatype>
								<pproBypass>false</pproBypass>
								<parameter authoringApp="PremierePro">
									<parameterid>scale</parameterid>
									<name>Scale</name>
									<valuemin>0</valuemin>
									<valuemax>1000</valuemax>
									<value>100</value>
								</parameter>
								<parameter authoringApp="PremierePro">
									<parameterid>rotation</parameterid>
									<name>Rotation</name>
									<valuemin>-8640</valuemin>
									<valuemax>8640</valuemax>
									<value>0</value>
								</parameter>
								<parameter authoringApp="PremierePro">
									<parameterid>center</parameterid>
									<name>Center</name>
									<value>
										<horiz>0</horiz>
										<vert>0.25</vert>
									</value>
								</parameter>
								<parameter authoringApp="PremierePro">
									<parameterid>centerOffset</parameterid>
									<name>Anchor Point</name>
									<value>
										<horiz>0</horiz>
										<vert>0</vert>
									</value>
								</parameter>
								<parameter authoringApp="PremierePro">
									<parameterid>antiflicker</parameterid>
									<name>Anti-flicker Filter</name>
									<valuemin>0.0</valuemin>
									<valuemax>1.0</valuemax>
									<value>0</value>
								</parameter>
							</effect>
						</filter>
						<filter>
							<effect>
								<name>Distort</name>
								<effectid>deformation</effectid>
								<effectcategory>motion</effectcategory>
								<effecttype>motion</effecttype>
								<mediatype>video</mediatype>
								<parameter authoringApp="PremierePro">
									<parameterid>aspect</parameterid>
									<name>Aspect</name>
									<valuemin>-10000</valuemin>
									<valuemax>10000</valuemax>
									<value>-100</value>
								</parameter>
							</effect>
						</filter>
						<filter>
							<effect>
								<name>Crop</name>
								<effectid>crop</effectid>
								<effectcategory>motion</effectcategory>
								<effecttype>motion</effecttype>
								<mediatype>video</mediatype>
								<pproBypass>false</pproBypass>
								<parameter authoringApp="PremierePro">
									<parameterid>left</parameterid>
									<name>left</name>
									<valuemin>0</valuemin>
									<valuemax>100</valuemax>
									<value>0</value>
								</parameter>
								<parameter authoringApp="PremierePro">
									<parameterid>right</parameterid>
									<name>right</name>
									<valuemin>0</valuemin>
									<valuemax>100</valuemax>
									<value>0</value>
								</parameter>
								<parameter authoringApp="PremierePro">
									<parameterid>top</parameterid>
									<name>top</name>
									<valuemin>0</valuemin>
									<valuemax>100</valuemax>
									<value>0</value>
								</parameter>
								<parameter authoringApp="PremierePro">
									<parameterid>bottom</parameterid>
									<name>bottom</name>
									<valuemin>0</valuemin>
									<valuemax>100</valuemax>
									<value>42</value>
								</parameter>
							</effect>
						</filter>
						<logginginfo>
							<description></description>
							<scene></scene>
							<shottake></shottake>
							<lognote></lognote>
							<good></good>
							<originalvideofilename></originalvideofilename>
							<originalaudiofilename></originalaudiofilename>
						</logginginfo>
						<colorinfo>
							<lut></lut>
							<lut1></lut1>
							<asc_sop></asc_sop>
							<asc_sat></asc_sat>
							<lut2></lut2>
						</colorinfo>
						<labels>
							<label2>Lavender</label2>
						</labels>
					</clipitem>
					<clipitem id="clipitem-477">
						<masterclipid>masterclip-74</masterclipid>
						<name>BLINK_TEST_24frames.mov</name>
						<enabled>TRUE</enabled>
						<duration>24</duration>
						<rate>
							<timebase>60</timebase>
							<ntsc>FALSE</ntsc>
						</rate>
						<start>29013</start>
						<end>29014</end>
						<in>7</in>
						<out>8</out>
						<pproTicksIn>29635200000</pproTicksIn>
						<pproTicksOut>33868800000</pproTicksOut>
						<alphatype>straight</alphatype>
						<file id="file-74"/>
						<filter>
							<effect>
								<name>Basic Motion</name>
								<effectid>basic</effectid>
								<effectcategory>motion</effectcategory>
								<effecttype>motion</effecttype>
								<mediatype>video</mediatype>
								<pproBypass>false</pproBypass>
								<parameter authoringApp="PremierePro">
									<parameterid>scale</parameterid>
									<name>Scale</name>
									<valuemin>0</valuemin>
									<valuemax>1000</valuemax>
									<value>100</value>
								</parameter>
								<parameter authoringApp="PremierePro">
									<parameterid>rotation</parameterid>
									<name>Rotation</name>
									<valuemin>-8640</valuemin>
									<valuemax>8640</valuemax>
									<value>0</value>
								</parameter>
								<parameter authoringApp="PremierePro">
									<parameterid>center</parameterid>
									<name>Center</name>
									<value>
										<horiz>0</horiz>
										<vert>0.25</vert>
									</value>
								</parameter>
								<parameter authoringApp="PremierePro">
									<parameterid>centerOffset</parameterid>
									<name>Anchor Point</name>
									<value>
										<horiz>0</horiz>
										<vert>0</vert>
									</value>
								</parameter>
								<parameter authoringApp="PremierePro">
									<parameterid>antiflicker</parameterid>
									<name>Anti-flicker Filter</name>
									<valuemin>0.0</valuemin>
									<valuemax>1.0</valuemax>
									<value>0</value>
								</parameter>
							</effect>
						</filter>
						<filter>
							<effect>
								<name>Distort</name>
								<effectid>deformation</effectid>
								<effectcategory>motion</effectcategory>
								<effecttype>motion</effecttype>
								<mediatype>video</mediatype>
								<parameter authoringApp="PremierePro">
									<parameterid>aspect</parameterid>
									<name>Aspect</name>
									<valuemin>-10000</valuemin>
									<valuemax>10000</valuemax>
									<value>-100</value>
								</parameter>
							</effect>
						</filter>
						<filter>
							<effect>
								<name>Crop</name>
								<effectid>crop</effectid>
								<effectcategory>motion</effectcategory>
								<effecttype>motion</effecttype>
								<mediatype>video</mediatype>
								<pproBypass>false</pproBypass>
								<parameter authoringApp="PremierePro">
									<parameterid>left</parameterid>
									<name>left</name>
									<valuemin>0</valuemin>
									<valuemax>100</valuemax>
									<value>0</value>
								</parameter>
								<parameter authoringApp="PremierePro">
									<parameterid>right</parameterid>
									<name>right</name>
									<valuemin>0</valuemin>
									<valuemax>100</valuemax>
									<value>0</value>
								</parameter>
								<parameter authoringApp="PremierePro">
									<parameterid>top</parameterid>
									<name>top</name>
									<valuemin>0</valuemin>
									<valuemax>100</valuemax>
									<value>0</value>
								</parameter>
								<parameter authoringApp="PremierePro">
									<parameterid>bottom</parameterid>
									<name>bottom</name>
									<valuemin>0</valuemin>
									<valuemax>100</valuemax>
									<value>42</value>
								</parameter>
							</effect>
						</filter>
						<logginginfo>
							<description></description>
							<scene></scene>
							<shottake></shottake>
							<lognote></lognote>
							<good></good>
							<originalvideofilename></originalvideofilename>
							<originalaudiofilename></originalaudiofilename>
						</logginginfo>
						<colorinfo>
							<lut></lut>
							<lut1></lut1>
							<asc_sop></asc_sop>
							<asc_sat></asc_sat>
							<lut2></lut2>
						</colorinfo>
						<labels>
							<label2>Lavender</label2>
						</labels>
					</clipitem>
					<clipitem id="clipitem-478">
						<masterclipid>masterclip-75</masterclipid>
						<name>BLINK_TEST_24frames_ALT.mov</name>
						<enabled>TRUE</enabled>
						<duration>24</duration>
						<rate>
							<timebase>60</timebase>
							<ntsc>FALSE</ntsc>
						</rate>
						<start>29014</start>
						<end>29015</end>
						<in>12</in>
						<out>13</out>
						<pproTicksIn>50803200000</pproTicksIn>
						<pproTicksOut>55036800000</pproTicksOut>
						<alphatype>straight</alphatype>
						<file id="file-75"/>
						<logginginfo>
							<description></description>
							<scene></scene>
							<shottake></shottake>
							<lognote></lognote>
							<good></good>
							<originalvideofilename></originalvideofilename>
							<originalaudiofilename></originalaudiofilename>
						</logginginfo>
						<colorinfo>
							<lut></lut>
							<lut1></lut1>
							<asc_sop></asc_sop>
							<asc_sat></asc_sat>
							<lut2></lut2>
						</colorinfo>
						<labels>
							<label2>Lavender</label2>
						</labels>
					</clipitem>
					<clipitem id="clipitem-479">
						<masterclipid>masterclip-74</masterclipid>
						<name>BLINK_TEST_24frames.mov</name>
						<enabled>TRUE</enabled>
						<duration>24</duration>
						<rate>
							<timebase>60</timebase>
							<ntsc>FALSE</ntsc>
						</rate>
						<start>29015</start>
						<end>29016</end>
						<in>7</in>
						<out>8</out>
						<pproTicksIn>29635200000</pproTicksIn>
						<pproTicksOut>33868800000</pproTicksOut>
						<alphatype>straight</alphatype>
						<file id="file-74"/>
						<filter>
							<effect>
								<name>Basic Motion</name>
								<effectid>basic</effectid>
								<effectcategory>motion</effectcategory>
								<effecttype>motion</effecttype>
								<mediatype>video</mediatype>
								<pproBypass>false</pproBypass>
								<parameter authoringApp="PremierePro">
									<parameterid>scale</parameterid>
									<name>Scale</name>
									<valuemin>0</valuemin>
									<valuemax>1000</valuemax>
									<value>100</value>
								</parameter>
								<parameter authoringApp="PremierePro">
									<parameterid>rotation</parameterid>
									<name>Rotation</name>
									<valuemin>-8640</valuemin>
									<valuemax>8640</valuemax>
									<value>0</value>
								</parameter>
								<parameter authoringApp="PremierePro">
									<parameterid>center</parameterid>
									<name>Center</name>
									<value>
										<horiz>0</horiz>
										<vert>0.25</vert>
									</value>
								</parameter>
								<parameter authoringApp="PremierePro">
									<parameterid>centerOffset</parameterid>
									<name>Anchor Point</name>
									<value>
										<horiz>0</horiz>
										<vert>0</vert>
									</value>
								</parameter>
								<parameter authoringApp="PremierePro">
									<parameterid>antiflicker</parameterid>
									<name>Anti-flicker Filter</name>
									<valuemin>0.0</valuemin>
									<valuemax>1.0</valuemax>
									<value>0</value>
								</parameter>
							</effect>
						</filter>
						<filter>
							<effect>
								<name>Distort</name>
								<effectid>deformation</effectid>
								<effectcategory>motion</effectcategory>
								<effecttype>motion</effecttype>
								<mediatype>video</mediatype>
								<parameter authoringApp="PremierePro">
									<parameterid>aspect</parameterid>
									<name>Aspect</name>
									<valuemin>-10000</valuemin>
									<valuemax>10000</valuemax>
									<value>-100</value>
								</parameter>
							</effect>
						</filter>
						<filter>
							<effect>
								<name>Crop</name>
								<effectid>crop</effectid>
								<effectcategory>motion</effectcategory>
								<effecttype>motion</effecttype>
								<mediatype>video</mediatype>
								<pproBypass>false</pproBypass>
								<parameter authoringApp="PremierePro">
									<parameterid>left</parameterid>
									<name>left</name>
									<valuemin>0</valuemin>
									<valuemax>100</valuemax>
									<value>0</value>
								</parameter>
								<parameter authoringApp="PremierePro">
									<parameterid>right</parameterid>
									<name>right</name>
									<valuemin>0</valuemin>
									<valuemax>100</valuemax>
									<value>0</value>
								</parameter>
								<parameter authoringApp="PremierePro">
									<parameterid>top</parameterid>
									<name>top</name>
									<valuemin>0</valuemin>
									<valuemax>100</valuemax>
									<value>0</value>
								</parameter>
								<parameter authoringApp="PremierePro">
									<parameterid>bottom</parameterid>
									<name>bottom</name>
									<valuemin>0</valuemin>
									<valuemax>100</valuemax>
									<value>42</value>
								</parameter>
							</effect>
						</filter>
						<logginginfo>
							<description></description>
							<scene></scene>
							<shottake></shottake>
							<lognote></lognote>
							<good></good>
							<originalvideofilename></originalvideofilename>
							<originalaudiofilename></originalaudiofilename>
						</logginginfo>
						<colorinfo>
							<lut></lut>
							<lut1></lut1>
							<asc_sop></asc_sop>
							<asc_sat></asc_sat>
							<lut2></lut2>
						</colorinfo>
						<labels>
							<label2>Lavender</label2>
						</labels>
					</clipitem>
					<clipitem id="clipitem-480">
						<masterclipid>masterclip-74</masterclipid>
						<name>BLINK_TEST_24frames.mov</name>
						<enabled>TRUE</enabled>
						<duration>24</duration>
						<rate>
							<timebase>60</timebase>
							<ntsc>FALSE</ntsc>
						</rate>
						<start>29559</start>
						<end>29560</end>
						<in>7</in>
						<out>8</out>
						<pproTicksIn>29635200000</pproTicksIn>
						<pproTicksOut>33868800000</pproTicksOut>
						<alphatype>straight</alphatype>
						<file id="file-74"/>
						<filter>
							<effect>
								<name>Basic Motion</name>
								<effectid>basic</effectid>
								<effectcategory>motion</effectcategory>
								<effecttype>motion</effecttype>
								<mediatype>video</mediatype>
								<pproBypass>false</pproBypass>
								<parameter authoringApp="PremierePro">
									<parameterid>scale</parameterid>
									<name>Scale</name>
									<valuemin>0</valuemin>
									<valuemax>1000</valuemax>
									<value>100</value>
								</parameter>
								<parameter authoringApp="PremierePro">
									<parameterid>rotation</parameterid>
									<name>Rotation</name>
									<valuemin>-8640</valuemin>
									<valuemax>8640</valuemax>
									<value>0</value>
								</parameter>
								<parameter authoringApp="PremierePro">
									<parameterid>center</parameterid>
									<name>Center</name>
									<value>
										<horiz>0</horiz>
										<vert>0.25</vert>
									</value>
								</parameter>
								<parameter authoringApp="PremierePro">
									<parameterid>centerOffset</parameterid>
									<name>Anchor Point</name>
									<value>
										<horiz>0</horiz>
										<vert>0</vert>
									</value>
								</parameter>
								<parameter authoringApp="PremierePro">
									<parameterid>antiflicker</parameterid>
									<name>Anti-flicker Filter</name>
									<valuemin>0.0</valuemin>
									<valuemax>1.0</valuemax>
									<value>0</value>
								</parameter>
							</effect>
						</filter>
						<filter>
							<effect>
								<name>Distort</name>
								<effectid>deformation</effectid>
								<effectcategory>motion</effectcategory>
								<effecttype>motion</effecttype>
								<mediatype>video</mediatype>
								<parameter authoringApp="PremierePro">
									<parameterid>aspect</parameterid>
									<name>Aspect</name>
									<valuemin>-10000</valuemin>
									<valuemax>10000</valuemax>
									<value>-100</value>
								</parameter>
							</effect>
						</filter>
						<filter>
							<effect>
								<name>Crop</name>
								<effectid>crop</effectid>
								<effectcategory>motion</effectcategory>
								<effecttype>motion</effecttype>
								<mediatype>video</mediatype>
								<pproBypass>false</pproBypass>
								<parameter authoringApp="PremierePro">
									<parameterid>left</parameterid>
									<name>left</name>
									<valuemin>0</valuemin>
									<valuemax>100</valuemax>
									<value>0</value>
								</parameter>
								<parameter authoringApp="PremierePro">
									<parameterid>right</parameterid>
									<name>right</name>
									<valuemin>0</valuemin>
									<valuemax>100</valuemax>
									<value>0</value>
								</parameter>
								<parameter authoringApp="PremierePro">
									<parameterid>top</parameterid>
									<name>top</name>
									<valuemin>0</valuemin>
									<valuemax>100</valuemax>
									<value>0</value>
								</parameter>
								<parameter authoringApp="PremierePro">
									<parameterid>bottom</parameterid>
									<name>bottom</name>
									<valuemin>0</valuemin>
									<valuemax>100</valuemax>
									<value>42</value>
								</parameter>
							</effect>
						</filter>
						<logginginfo>
							<description></description>
							<scene></scene>
							<shottake></shottake>
							<lognote></lognote>
							<good></good>
							<originalvideofilename></originalvideofilename>
							<originalaudiofilename></originalaudiofilename>
						</logginginfo>
						<colorinfo>
							<lut></lut>
							<lut1></lut1>
							<asc_sop></asc_sop>
							<asc_sat></asc_sat>
							<lut2></lut2>
						</colorinfo>
						<labels>
							<label2>Lavender</label2>
						</labels>
					</clipitem>
					<clipitem id="clipitem-481">
						<masterclipid>masterclip-75</masterclipid>
						<name>BLINK_TEST_24frames_ALT.mov</name>
						<enabled>TRUE</enabled>
						<duration>24</duration>
						<rate>
							<timebase>60</timebase>
							<ntsc>FALSE</ntsc>
						</rate>
						<start>29560</start>
						<end>29561</end>
						<in>12</in>
						<out>13</out>
						<pproTicksIn>50803200000</pproTicksIn>
						<pproTicksOut>55036800000</pproTicksOut>
						<alphatype>straight</alphatype>
						<file id="file-75"/>
						<logginginfo>
							<description></description>
							<scene></scene>
							<shottake></shottake>
							<lognote></lognote>
							<good></good>
							<originalvideofilename></originalvideofilename>
							<originalaudiofilename></originalaudiofilename>
						</logginginfo>
						<colorinfo>
							<lut></lut>
							<lut1></lut1>
							<asc_sop></asc_sop>
							<asc_sat></asc_sat>
							<lut2></lut2>
						</colorinfo>
						<labels>
							<label2>Lavender</label2>
						</labels>
					</clipitem>
					<clipitem id="clipitem-482">
						<masterclipid>masterclip-74</masterclipid>
						<name>BLINK_TEST_24frames.mov</name>
						<enabled>TRUE</enabled>
						<duration>24</duration>
						<rate>
							<timebase>60</timebase>
							<ntsc>FALSE</ntsc>
						</rate>
						<start>29561</start>
						<end>29562</end>
						<in>7</in>
						<out>8</out>
						<pproTicksIn>29635200000</pproTicksIn>
						<pproTicksOut>33868800000</pproTicksOut>
						<alphatype>straight</alphatype>
						<file id="file-74"/>
						<filter>
							<effect>
								<name>Basic Motion</name>
								<effectid>basic</effectid>
								<effectcategory>motion</effectcategory>
								<effecttype>motion</effecttype>
								<mediatype>video</mediatype>
								<pproBypass>false</pproBypass>
								<parameter authoringApp="PremierePro">
									<parameterid>scale</parameterid>
									<name>Scale</name>
									<valuemin>0</valuemin>
									<valuemax>1000</valuemax>
									<value>100</value>
								</parameter>
								<parameter authoringApp="PremierePro">
									<parameterid>rotation</parameterid>
									<name>Rotation</name>
									<valuemin>-8640</valuemin>
									<valuemax>8640</valuemax>
									<value>0</value>
								</parameter>
								<parameter authoringApp="PremierePro">
									<parameterid>center</parameterid>
									<name>Center</name>
									<value>
										<horiz>0</horiz>
										<vert>0.25</vert>
									</value>
								</parameter>
								<parameter authoringApp="PremierePro">
									<parameterid>centerOffset</parameterid>
									<name>Anchor Point</name>
									<value>
										<horiz>0</horiz>
										<vert>0</vert>
									</value>
								</parameter>
								<parameter authoringApp="PremierePro">
									<parameterid>antiflicker</parameterid>
									<name>Anti-flicker Filter</name>
									<valuemin>0.0</valuemin>
									<valuemax>1.0</valuemax>
									<value>0</value>
								</parameter>
							</effect>
						</filter>
						<filter>
							<effect>
								<name>Distort</name>
								<effectid>deformation</effectid>
								<effectcategory>motion</effectcategory>
								<effecttype>motion</effecttype>
								<mediatype>video</mediatype>
								<parameter authoringApp="PremierePro">
									<parameterid>aspect</parameterid>
									<name>Aspect</name>
									<valuemin>-10000</valuemin>
									<valuemax>10000</valuemax>
									<value>-100</value>
								</parameter>
							</effect>
						</filter>
						<filter>
							<effect>
								<name>Crop</name>
								<effectid>crop</effectid>
								<effectcategory>motion</effectcategory>
								<effecttype>motion</effecttype>
								<mediatype>video</mediatype>
								<pproBypass>false</pproBypass>
								<parameter authoringApp="PremierePro">
									<parameterid>left</parameterid>
									<name>left</name>
									<valuemin>0</valuemin>
									<valuemax>100</valuemax>
									<value>0</value>
								</parameter>
								<parameter authoringApp="PremierePro">
									<parameterid>right</parameterid>
									<name>right</name>
									<valuemin>0</valuemin>
									<valuemax>100</valuemax>
									<value>0</value>
								</parameter>
								<parameter authoringApp="PremierePro">
									<parameterid>top</parameterid>
									<name>top</name>
									<valuemin>0</valuemin>
									<valuemax>100</valuemax>
									<value>0</value>
								</parameter>
								<parameter authoringApp="PremierePro">
									<parameterid>bottom</parameterid>
									<name>bottom</name>
									<valuemin>0</valuemin>
									<valuemax>100</valuemax>
									<value>42</value>
								</parameter>
							</effect>
						</filter>
						<logginginfo>
							<description></description>
							<scene></scene>
							<shottake></shottake>
							<lognote></lognote>
							<good></good>
							<originalvideofilename></originalvideofilename>
							<originalaudiofilename></originalaudiofilename>
						</logginginfo>
						<colorinfo>
							<lut></lut>
							<lut1></lut1>
							<asc_sop></asc_sop>
							<asc_sat></asc_sat>
							<lut2></lut2>
						</colorinfo>
						<labels>
							<label2>Lavender</label2>
						</labels>
					</clipitem>
					<clipitem id="clipitem-483">
						<masterclipid>masterclip-74</masterclipid>
						<name>BLINK_TEST_24frames.mov</name>
						<enabled>TRUE</enabled>
						<duration>24</duration>
						<rate>
							<timebase>60</timebase>
							<ntsc>FALSE</ntsc>
						</rate>
						<start>31823</start>
						<end>31824</end>
						<in>7</in>
						<out>8</out>
						<pproTicksIn>29635200000</pproTicksIn>
						<pproTicksOut>33868800000</pproTicksOut>
						<alphatype>straight</alphatype>
						<file id="file-74"/>
						<filter>
							<effect>
								<name>Basic Motion</name>
								<effectid>basic</effectid>
								<effectcategory>motion</effectcategory>
								<effecttype>motion</effecttype>
								<mediatype>video</mediatype>
								<pproBypass>false</pproBypass>
								<parameter authoringApp="PremierePro">
									<parameterid>scale</parameterid>
									<name>Scale</name>
									<valuemin>0</valuemin>
									<valuemax>1000</valuemax>
									<value>100</value>
								</parameter>
								<parameter authoringApp="PremierePro">
									<parameterid>rotation</parameterid>
									<name>Rotation</name>
									<valuemin>-8640</valuemin>
									<valuemax>8640</valuemax>
									<value>0</value>
								</parameter>
								<parameter authoringApp="PremierePro">
									<parameterid>center</parameterid>
									<name>Center</name>
									<value>
										<horiz>0</horiz>
										<vert>0.25</vert>
									</value>
								</parameter>
								<parameter authoringApp="PremierePro">
									<parameterid>centerOffset</parameterid>
									<name>Anchor Point</name>
									<value>
										<horiz>0</horiz>
										<vert>0</vert>
									</value>
								</parameter>
								<parameter authoringApp="PremierePro">
									<parameterid>antiflicker</parameterid>
									<name>Anti-flicker Filter</name>
									<valuemin>0.0</valuemin>
									<valuemax>1.0</valuemax>
									<value>0</value>
								</parameter>
							</effect>
						</filter>
						<filter>
							<effect>
								<name>Distort</name>
								<effectid>deformation</effectid>
								<effectcategory>motion</effectcategory>
								<effecttype>motion</effecttype>
								<mediatype>video</mediatype>
								<parameter authoringApp="PremierePro">
									<parameterid>aspect</parameterid>
									<name>Aspect</name>
									<valuemin>-10000</valuemin>
									<valuemax>10000</valuemax>
									<value>-100</value>
								</parameter>
							</effect>
						</filter>
						<filter>
							<effect>
								<name>Crop</name>
								<effectid>crop</effectid>
								<effectcategory>motion</effectcategory>
								<effecttype>motion</effecttype>
								<mediatype>video</mediatype>
								<pproBypass>false</pproBypass>
								<parameter authoringApp="PremierePro">
									<parameterid>left</parameterid>
									<name>left</name>
									<valuemin>0</valuemin>
									<valuemax>100</valuemax>
									<value>0</value>
								</parameter>
								<parameter authoringApp="PremierePro">
									<parameterid>right</parameterid>
									<name>right</name>
									<valuemin>0</valuemin>
									<valuemax>100</valuemax>
									<value>0</value>
								</parameter>
								<parameter authoringApp="PremierePro">
									<parameterid>top</parameterid>
									<name>top</name>
									<valuemin>0</valuemin>
									<valuemax>100</valuemax>
									<value>0</value>
								</parameter>
								<parameter authoringApp="PremierePro">
									<parameterid>bottom</parameterid>
									<name>bottom</name>
									<valuemin>0</valuemin>
									<valuemax>100</valuemax>
									<value>42</value>
								</parameter>
							</effect>
						</filter>
						<logginginfo>
							<description></description>
							<scene></scene>
							<shottake></shottake>
							<lognote></lognote>
							<good></good>
							<originalvideofilename></originalvideofilename>
							<originalaudiofilename></originalaudiofilename>
						</logginginfo>
						<colorinfo>
							<lut></lut>
							<lut1></lut1>
							<asc_sop></asc_sop>
							<asc_sat></asc_sat>
							<lut2></lut2>
						</colorinfo>
						<labels>
							<label2>Lavender</label2>
						</labels>
					</clipitem>
					<clipitem id="clipitem-484">
						<masterclipid>masterclip-75</masterclipid>
						<name>BLINK_TEST_24frames_ALT.mov</name>
						<enabled>TRUE</enabled>
						<duration>24</duration>
						<rate>
							<timebase>60</timebase>
							<ntsc>FALSE</ntsc>
						</rate>
						<start>31824</start>
						<end>31825</end>
						<in>12</in>
						<out>13</out>
						<pproTicksIn>50803200000</pproTicksIn>
						<pproTicksOut>55036800000</pproTicksOut>
						<alphatype>straight</alphatype>
						<file id="file-75"/>
						<logginginfo>
							<description></description>
							<scene></scene>
							<shottake></shottake>
							<lognote></lognote>
							<good></good>
							<originalvideofilename></originalvideofilename>
							<originalaudiofilename></originalaudiofilename>
						</logginginfo>
						<colorinfo>
							<lut></lut>
							<lut1></lut1>
							<asc_sop></asc_sop>
							<asc_sat></asc_sat>
							<lut2></lut2>
						</colorinfo>
						<labels>
							<label2>Lavender</label2>
						</labels>
					</clipitem>
					<clipitem id="clipitem-485">
						<masterclipid>masterclip-74</masterclipid>
						<name>BLINK_TEST_24frames.mov</name>
						<enabled>TRUE</enabled>
						<duration>24</duration>
						<rate>
							<timebase>60</timebase>
							<ntsc>FALSE</ntsc>
						</rate>
						<start>31825</start>
						<end>31826</end>
						<in>7</in>
						<out>8</out>
						<pproTicksIn>29635200000</pproTicksIn>
						<pproTicksOut>33868800000</pproTicksOut>
						<alphatype>straight</alphatype>
						<file id="file-74"/>
						<filter>
							<effect>
								<name>Basic Motion</name>
								<effectid>basic</effectid>
								<effectcategory>motion</effectcategory>
								<effecttype>motion</effecttype>
								<mediatype>video</mediatype>
								<pproBypass>false</pproBypass>
								<parameter authoringApp="PremierePro">
									<parameterid>scale</parameterid>
									<name>Scale</name>
									<valuemin>0</valuemin>
									<valuemax>1000</valuemax>
									<value>100</value>
								</parameter>
								<parameter authoringApp="PremierePro">
									<parameterid>rotation</parameterid>
									<name>Rotation</name>
									<valuemin>-8640</valuemin>
									<valuemax>8640</valuemax>
									<value>0</value>
								</parameter>
								<parameter authoringApp="PremierePro">
									<parameterid>center</parameterid>
									<name>Center</name>
									<value>
										<horiz>0</horiz>
										<vert>0.25</vert>
									</value>
								</parameter>
								<parameter authoringApp="PremierePro">
									<parameterid>centerOffset</parameterid>
									<name>Anchor Point</name>
									<value>
										<horiz>0</horiz>
										<vert>0</vert>
									</value>
								</parameter>
								<parameter authoringApp="PremierePro">
									<parameterid>antiflicker</parameterid>
									<name>Anti-flicker Filter</name>
									<valuemin>0.0</valuemin>
									<valuemax>1.0</valuemax>
									<value>0</value>
								</parameter>
							</effect>
						</filter>
						<filter>
							<effect>
								<name>Distort</name>
								<effectid>deformation</effectid>
								<effectcategory>motion</effectcategory>
								<effecttype>motion</effecttype>
								<mediatype>video</mediatype>
								<parameter authoringApp="PremierePro">
									<parameterid>aspect</parameterid>
									<name>Aspect</name>
									<valuemin>-10000</valuemin>
									<valuemax>10000</valuemax>
									<value>-100</value>
								</parameter>
							</effect>
						</filter>
						<filter>
							<effect>
								<name>Crop</name>
								<effectid>crop</effectid>
								<effectcategory>motion</effectcategory>
								<effecttype>motion</effecttype>
								<mediatype>video</mediatype>
								<pproBypass>false</pproBypass>
								<parameter authoringApp="PremierePro">
									<parameterid>left</parameterid>
									<name>left</name>
									<valuemin>0</valuemin>
									<valuemax>100</valuemax>
									<value>0</value>
								</parameter>
								<parameter authoringApp="PremierePro">
									<parameterid>right</parameterid>
									<name>right</name>
									<valuemin>0</valuemin>
									<valuemax>100</valuemax>
									<value>0</value>
								</parameter>
								<parameter authoringApp="PremierePro">
									<parameterid>top</parameterid>
									<name>top</name>
									<valuemin>0</valuemin>
									<valuemax>100</valuemax>
									<value>0</value>
								</parameter>
								<parameter authoringApp="PremierePro">
									<parameterid>bottom</parameterid>
									<name>bottom</name>
									<valuemin>0</valuemin>
									<valuemax>100</valuemax>
									<value>42</value>
								</parameter>
							</effect>
						</filter>
						<logginginfo>
							<description></description>
							<scene></scene>
							<shottake></shottake>
							<lognote></lognote>
							<good></good>
							<originalvideofilename></originalvideofilename>
							<originalaudiofilename></originalaudiofilename>
						</logginginfo>
						<colorinfo>
							<lut></lut>
							<lut1></lut1>
							<asc_sop></asc_sop>
							<asc_sat></asc_sat>
							<lut2></lut2>
						</colorinfo>
						<labels>
							<label2>Lavender</label2>
						</labels>
					</clipitem>
					<clipitem id="clipitem-486">
						<masterclipid>masterclip-74</masterclipid>
						<name>BLINK_TEST_24frames.mov</name>
						<enabled>TRUE</enabled>
						<duration>24</duration>
						<rate>
							<timebase>60</timebase>
							<ntsc>FALSE</ntsc>
						</rate>
						<start>38168</start>
						<end>38169</end>
						<in>7</in>
						<out>8</out>
						<pproTicksIn>29635200000</pproTicksIn>
						<pproTicksOut>33868800000</pproTicksOut>
						<alphatype>straight</alphatype>
						<file id="file-74"/>
						<filter>
							<effect>
								<name>Basic Motion</name>
								<effectid>basic</effectid>
								<effectcategory>motion</effectcategory>
								<effecttype>motion</effecttype>
								<mediatype>video</mediatype>
								<pproBypass>false</pproBypass>
								<parameter authoringApp="PremierePro">
									<parameterid>scale</parameterid>
									<name>Scale</name>
									<valuemin>0</valuemin>
									<valuemax>1000</valuemax>
									<value>100</value>
								</parameter>
								<parameter authoringApp="PremierePro">
									<parameterid>rotation</parameterid>
									<name>Rotation</name>
									<valuemin>-8640</valuemin>
									<valuemax>8640</valuemax>
									<value>0</value>
								</parameter>
								<parameter authoringApp="PremierePro">
									<parameterid>center</parameterid>
									<name>Center</name>
									<value>
										<horiz>0</horiz>
										<vert>0.25</vert>
									</value>
								</parameter>
								<parameter authoringApp="PremierePro">
									<parameterid>centerOffset</parameterid>
									<name>Anchor Point</name>
									<value>
										<horiz>0</horiz>
										<vert>0</vert>
									</value>
								</parameter>
								<parameter authoringApp="PremierePro">
									<parameterid>antiflicker</parameterid>
									<name>Anti-flicker Filter</name>
									<valuemin>0.0</valuemin>
									<valuemax>1.0</valuemax>
									<value>0</value>
								</parameter>
							</effect>
						</filter>
						<filter>
							<effect>
								<name>Distort</name>
								<effectid>deformation</effectid>
								<effectcategory>motion</effectcategory>
								<effecttype>motion</effecttype>
								<mediatype>video</mediatype>
								<parameter authoringApp="PremierePro">
									<parameterid>aspect</parameterid>
									<name>Aspect</name>
									<valuemin>-10000</valuemin>
									<valuemax>10000</valuemax>
									<value>-100</value>
								</parameter>
							</effect>
						</filter>
						<filter>
							<effect>
								<name>Crop</name>
								<effectid>crop</effectid>
								<effectcategory>motion</effectcategory>
								<effecttype>motion</effecttype>
								<mediatype>video</mediatype>
								<pproBypass>false</pproBypass>
								<parameter authoringApp="PremierePro">
									<parameterid>left</parameterid>
									<name>left</name>
									<valuemin>0</valuemin>
									<valuemax>100</valuemax>
									<value>0</value>
								</parameter>
								<parameter authoringApp="PremierePro">
									<parameterid>right</parameterid>
									<name>right</name>
									<valuemin>0</valuemin>
									<valuemax>100</valuemax>
									<value>0</value>
								</parameter>
								<parameter authoringApp="PremierePro">
									<parameterid>top</parameterid>
									<name>top</name>
									<valuemin>0</valuemin>
									<valuemax>100</valuemax>
									<value>0</value>
								</parameter>
								<parameter authoringApp="PremierePro">
									<parameterid>bottom</parameterid>
									<name>bottom</name>
									<valuemin>0</valuemin>
									<valuemax>100</valuemax>
									<value>42</value>
								</parameter>
							</effect>
						</filter>
						<logginginfo>
							<description></description>
							<scene></scene>
							<shottake></shottake>
							<lognote></lognote>
							<good></good>
							<originalvideofilename></originalvideofilename>
							<originalaudiofilename></originalaudiofilename>
						</logginginfo>
						<colorinfo>
							<lut></lut>
							<lut1></lut1>
							<asc_sop></asc_sop>
							<asc_sat></asc_sat>
							<lut2></lut2>
						</colorinfo>
						<labels>
							<label2>Lavender</label2>
						</labels>
					</clipitem>
					<clipitem id="clipitem-487">
						<masterclipid>masterclip-75</masterclipid>
						<name>BLINK_TEST_24frames_ALT.mov</name>
						<enabled>TRUE</enabled>
						<duration>24</duration>
						<rate>
							<timebase>60</timebase>
							<ntsc>FALSE</ntsc>
						</rate>
						<start>38169</start>
						<end>38170</end>
						<in>12</in>
						<out>13</out>
						<pproTicksIn>50803200000</pproTicksIn>
						<pproTicksOut>55036800000</pproTicksOut>
						<alphatype>straight</alphatype>
						<file id="file-75"/>
						<logginginfo>
							<description></description>
							<scene></scene>
							<shottake></shottake>
							<lognote></lognote>
							<good></good>
							<originalvideofilename></originalvideofilename>
							<originalaudiofilename></originalaudiofilename>
						</logginginfo>
						<colorinfo>
							<lut></lut>
							<lut1></lut1>
							<asc_sop></asc_sop>
							<asc_sat></asc_sat>
							<lut2></lut2>
						</colorinfo>
						<labels>
							<label2>Lavender</label2>
						</labels>
					</clipitem>
					<clipitem id="clipitem-488">
						<masterclipid>masterclip-74</masterclipid>
						<name>BLINK_TEST_24frames.mov</name>
						<enabled>TRUE</enabled>
						<duration>24</duration>
						<rate>
							<timebase>60</timebase>
							<ntsc>FALSE</ntsc>
						</rate>
						<start>38170</start>
						<end>38171</end>
						<in>7</in>
						<out>8</out>
						<pproTicksIn>29635200000</pproTicksIn>
						<pproTicksOut>33868800000</pproTicksOut>
						<alphatype>straight</alphatype>
						<file id="file-74"/>
						<filter>
							<effect>
								<name>Basic Motion</name>
								<effectid>basic</effectid>
								<effectcategory>motion</effectcategory>
								<effecttype>motion</effecttype>
								<mediatype>video</mediatype>
								<pproBypass>false</pproBypass>
								<parameter authoringApp="PremierePro">
									<parameterid>scale</parameterid>
									<name>Scale</name>
									<valuemin>0</valuemin>
									<valuemax>1000</valuemax>
									<value>100</value>
								</parameter>
								<parameter authoringApp="PremierePro">
									<parameterid>rotation</parameterid>
									<name>Rotation</name>
									<valuemin>-8640</valuemin>
									<valuemax>8640</valuemax>
									<value>0</value>
								</parameter>
								<parameter authoringApp="PremierePro">
									<parameterid>center</parameterid>
									<name>Center</name>
									<value>
										<horiz>0</horiz>
										<vert>0.25</vert>
									</value>
								</parameter>
								<parameter authoringApp="PremierePro">
									<parameterid>centerOffset</parameterid>
									<name>Anchor Point</name>
									<value>
										<horiz>0</horiz>
										<vert>0</vert>
									</value>
								</parameter>
								<parameter authoringApp="PremierePro">
									<parameterid>antiflicker</parameterid>
									<name>Anti-flicker Filter</name>
									<valuemin>0.0</valuemin>
									<valuemax>1.0</valuemax>
									<value>0</value>
								</parameter>
							</effect>
						</filter>
						<filter>
							<effect>
								<name>Distort</name>
								<effectid>deformation</effectid>
								<effectcategory>motion</effectcategory>
								<effecttype>motion</effecttype>
								<mediatype>video</mediatype>
								<parameter authoringApp="PremierePro">
									<parameterid>aspect</parameterid>
									<name>Aspect</name>
									<valuemin>-10000</valuemin>
									<valuemax>10000</valuemax>
									<value>-100</value>
								</parameter>
							</effect>
						</filter>
						<filter>
							<effect>
								<name>Crop</name>
								<effectid>crop</effectid>
								<effectcategory>motion</effectcategory>
								<effecttype>motion</effecttype>
								<mediatype>video</mediatype>
								<pproBypass>false</pproBypass>
								<parameter authoringApp="PremierePro">
									<parameterid>left</parameterid>
									<name>left</name>
									<valuemin>0</valuemin>
									<valuemax>100</valuemax>
									<value>0</value>
								</parameter>
								<parameter authoringApp="PremierePro">
									<parameterid>right</parameterid>
									<name>right</name>
									<valuemin>0</valuemin>
									<valuemax>100</valuemax>
									<value>0</value>
								</parameter>
								<parameter authoringApp="PremierePro">
									<parameterid>top</parameterid>
									<name>top</name>
									<valuemin>0</valuemin>
									<valuemax>100</valuemax>
									<value>0</value>
								</parameter>
								<parameter authoringApp="PremierePro">
									<parameterid>bottom</parameterid>
									<name>bottom</name>
									<valuemin>0</valuemin>
									<valuemax>100</valuemax>
									<value>42</value>
								</parameter>
							</effect>
						</filter>
						<logginginfo>
							<description></description>
							<scene></scene>
							<shottake></shottake>
							<lognote></lognote>
							<good></good>
							<originalvideofilename></originalvideofilename>
							<originalaudiofilename></originalaudiofilename>
						</logginginfo>
						<colorinfo>
							<lut></lut>
							<lut1></lut1>
							<asc_sop></asc_sop>
							<asc_sat></asc_sat>
							<lut2></lut2>
						</colorinfo>
						<labels>
							<label2>Lavender</label2>
						</labels>
					</clipitem>
					<clipitem id="clipitem-489">
						<masterclipid>masterclip-74</masterclipid>
						<name>BLINK_TEST_24frames.mov</name>
						<enabled>TRUE</enabled>
						<duration>24</duration>
						<rate>
							<timebase>60</timebase>
							<ntsc>FALSE</ntsc>
						</rate>
						<start>41735</start>
						<end>41736</end>
						<in>7</in>
						<out>8</out>
						<pproTicksIn>29635200000</pproTicksIn>
						<pproTicksOut>33868800000</pproTicksOut>
						<alphatype>straight</alphatype>
						<file id="file-74"/>
						<filter>
							<effect>
								<name>Basic Motion</name>
								<effectid>basic</effectid>
								<effectcategory>motion</effectcategory>
								<effecttype>motion</effecttype>
								<mediatype>video</mediatype>
								<pproBypass>false</pproBypass>
								<parameter authoringApp="PremierePro">
									<parameterid>scale</parameterid>
									<name>Scale</name>
									<valuemin>0</valuemin>
									<valuemax>1000</valuemax>
									<value>100</value>
								</parameter>
								<parameter authoringApp="PremierePro">
									<parameterid>rotation</parameterid>
									<name>Rotation</name>
									<valuemin>-8640</valuemin>
									<valuemax>8640</valuemax>
									<value>0</value>
								</parameter>
								<parameter authoringApp="PremierePro">
									<parameterid>center</parameterid>
									<name>Center</name>
									<value>
										<horiz>0</horiz>
										<vert>0.25</vert>
									</value>
								</parameter>
								<parameter authoringApp="PremierePro">
									<parameterid>centerOffset</parameterid>
									<name>Anchor Point</name>
									<value>
										<horiz>0</horiz>
										<vert>0</vert>
									</value>
								</parameter>
								<parameter authoringApp="PremierePro">
									<parameterid>antiflicker</parameterid>
									<name>Anti-flicker Filter</name>
									<valuemin>0.0</valuemin>
									<valuemax>1.0</valuemax>
									<value>0</value>
								</parameter>
							</effect>
						</filter>
						<filter>
							<effect>
								<name>Distort</name>
								<effectid>deformation</effectid>
								<effectcategory>motion</effectcategory>
								<effecttype>motion</effecttype>
								<mediatype>video</mediatype>
								<parameter authoringApp="PremierePro">
									<parameterid>aspect</parameterid>
									<name>Aspect</name>
									<valuemin>-10000</valuemin>
									<valuemax>10000</valuemax>
									<value>-100</value>
								</parameter>
							</effect>
						</filter>
						<filter>
							<effect>
								<name>Crop</name>
								<effectid>crop</effectid>
								<effectcategory>motion</effectcategory>
								<effecttype>motion</effecttype>
								<mediatype>video</mediatype>
								<pproBypass>false</pproBypass>
								<parameter authoringApp="PremierePro">
									<parameterid>left</parameterid>
									<name>left</name>
									<valuemin>0</valuemin>
									<valuemax>100</valuemax>
									<value>0</value>
								</parameter>
								<parameter authoringApp="PremierePro">
									<parameterid>right</parameterid>
									<name>right</name>
									<valuemin>0</valuemin>
									<valuemax>100</valuemax>
									<value>0</value>
								</parameter>
								<parameter authoringApp="PremierePro">
									<parameterid>top</parameterid>
									<name>top</name>
									<valuemin>0</valuemin>
									<valuemax>100</valuemax>
									<value>0</value>
								</parameter>
								<parameter authoringApp="PremierePro">
									<parameterid>bottom</parameterid>
									<name>bottom</name>
									<valuemin>0</valuemin>
									<valuemax>100</valuemax>
									<value>42</value>
								</parameter>
							</effect>
						</filter>
						<logginginfo>
							<description></description>
							<scene></scene>
							<shottake></shottake>
							<lognote></lognote>
							<good></good>
							<originalvideofilename></originalvideofilename>
							<originalaudiofilename></originalaudiofilename>
						</logginginfo>
						<colorinfo>
							<lut></lut>
							<lut1></lut1>
							<asc_sop></asc_sop>
							<asc_sat></asc_sat>
							<lut2></lut2>
						</colorinfo>
						<labels>
							<label2>Lavender</label2>
						</labels>
					</clipitem>
					<clipitem id="clipitem-490">
						<masterclipid>masterclip-75</masterclipid>
						<name>BLINK_TEST_24frames_ALT.mov</name>
						<enabled>TRUE</enabled>
						<duration>24</duration>
						<rate>
							<timebase>60</timebase>
							<ntsc>FALSE</ntsc>
						</rate>
						<start>41736</start>
						<end>41737</end>
						<in>12</in>
						<out>13</out>
						<pproTicksIn>50803200000</pproTicksIn>
						<pproTicksOut>55036800000</pproTicksOut>
						<alphatype>straight</alphatype>
						<file id="file-75"/>
						<logginginfo>
							<description></description>
							<scene></scene>
							<shottake></shottake>
							<lognote></lognote>
							<good></good>
							<originalvideofilename></originalvideofilename>
							<originalaudiofilename></originalaudiofilename>
						</logginginfo>
						<colorinfo>
							<lut></lut>
							<lut1></lut1>
							<asc_sop></asc_sop>
							<asc_sat></asc_sat>
							<lut2></lut2>
						</colorinfo>
						<labels>
							<label2>Lavender</label2>
						</labels>
					</clipitem>
					<clipitem id="clipitem-491">
						<masterclipid>masterclip-74</masterclipid>
						<name>BLINK_TEST_24frames.mov</name>
						<enabled>TRUE</enabled>
						<duration>24</duration>
						<rate>
							<timebase>60</timebase>
							<ntsc>FALSE</ntsc>
						</rate>
						<start>41737</start>
						<end>41738</end>
						<in>7</in>
						<out>8</out>
						<pproTicksIn>29635200000</pproTicksIn>
						<pproTicksOut>33868800000</pproTicksOut>
						<alphatype>straight</alphatype>
						<file id="file-74"/>
						<filter>
							<effect>
								<name>Basic Motion</name>
								<effectid>basic</effectid>
								<effectcategory>motion</effectcategory>
								<effecttype>motion</effecttype>
								<mediatype>video</mediatype>
								<pproBypass>false</pproBypass>
								<parameter authoringApp="PremierePro">
									<parameterid>scale</parameterid>
									<name>Scale</name>
									<valuemin>0</valuemin>
									<valuemax>1000</valuemax>
									<value>100</value>
								</parameter>
								<parameter authoringApp="PremierePro">
									<parameterid>rotation</parameterid>
									<name>Rotation</name>
									<valuemin>-8640</valuemin>
									<valuemax>8640</valuemax>
									<value>0</value>
								</parameter>
								<parameter authoringApp="PremierePro">
									<parameterid>center</parameterid>
									<name>Center</name>
									<value>
										<horiz>0</horiz>
										<vert>0.25</vert>
									</value>
								</parameter>
								<parameter authoringApp="PremierePro">
									<parameterid>centerOffset</parameterid>
									<name>Anchor Point</name>
									<value>
										<horiz>0</horiz>
										<vert>0</vert>
									</value>
								</parameter>
								<parameter authoringApp="PremierePro">
									<parameterid>antiflicker</parameterid>
									<name>Anti-flicker Filter</name>
									<valuemin>0.0</valuemin>
									<valuemax>1.0</valuemax>
									<value>0</value>
								</parameter>
							</effect>
						</filter>
						<filter>
							<effect>
								<name>Distort</name>
								<effectid>deformation</effectid>
								<effectcategory>motion</effectcategory>
								<effecttype>motion</effecttype>
								<mediatype>video</mediatype>
								<parameter authoringApp="PremierePro">
									<parameterid>aspect</parameterid>
									<name>Aspect</name>
									<valuemin>-10000</valuemin>
									<valuemax>10000</valuemax>
									<value>-100</value>
								</parameter>
							</effect>
						</filter>
						<filter>
							<effect>
								<name>Crop</name>
								<effectid>crop</effectid>
								<effectcategory>motion</effectcategory>
								<effecttype>motion</effecttype>
								<mediatype>video</mediatype>
								<pproBypass>false</pproBypass>
								<parameter authoringApp="PremierePro">
									<parameterid>left</parameterid>
									<name>left</name>
									<valuemin>0</valuemin>
									<valuemax>100</valuemax>
									<value>0</value>
								</parameter>
								<parameter authoringApp="PremierePro">
									<parameterid>right</parameterid>
									<name>right</name>
									<valuemin>0</valuemin>
									<valuemax>100</valuemax>
									<value>0</value>
								</parameter>
								<parameter authoringApp="PremierePro">
									<parameterid>top</parameterid>
									<name>top</name>
									<valuemin>0</valuemin>
									<valuemax>100</valuemax>
									<value>0</value>
								</parameter>
								<parameter authoringApp="PremierePro">
									<parameterid>bottom</parameterid>
									<name>bottom</name>
									<valuemin>0</valuemin>
									<valuemax>100</valuemax>
									<value>42</value>
								</parameter>
							</effect>
						</filter>
						<logginginfo>
							<description></description>
							<scene></scene>
							<shottake></shottake>
							<lognote></lognote>
							<good></good>
							<originalvideofilename></originalvideofilename>
							<originalaudiofilename></originalaudiofilename>
						</logginginfo>
						<colorinfo>
							<lut></lut>
							<lut1></lut1>
							<asc_sop></asc_sop>
							<asc_sat></asc_sat>
							<lut2></lut2>
						</colorinfo>
						<labels>
							<label2>Lavender</label2>
						</labels>
					</clipitem>
					<clipitem id="clipitem-492">
						<masterclipid>masterclip-74</masterclipid>
						<name>BLINK_TEST_24frames.mov</name>
						<enabled>TRUE</enabled>
						<duration>24</duration>
						<rate>
							<timebase>60</timebase>
							<ntsc>FALSE</ntsc>
						</rate>
						<start>45257</start>
						<end>45258</end>
						<in>7</in>
						<out>8</out>
						<pproTicksIn>29635200000</pproTicksIn>
						<pproTicksOut>33868800000</pproTicksOut>
						<alphatype>straight</alphatype>
						<file id="file-74"/>
						<filter>
							<effect>
								<name>Basic Motion</name>
								<effectid>basic</effectid>
								<effectcategory>motion</effectcategory>
								<effecttype>motion</effecttype>
								<mediatype>video</mediatype>
								<pproBypass>false</pproBypass>
								<parameter authoringApp="PremierePro">
									<parameterid>scale</parameterid>
									<name>Scale</name>
									<valuemin>0</valuemin>
									<valuemax>1000</valuemax>
									<value>100</value>
								</parameter>
								<parameter authoringApp="PremierePro">
									<parameterid>rotation</parameterid>
									<name>Rotation</name>
									<valuemin>-8640</valuemin>
									<valuemax>8640</valuemax>
									<value>0</value>
								</parameter>
								<parameter authoringApp="PremierePro">
									<parameterid>center</parameterid>
									<name>Center</name>
									<value>
										<horiz>0</horiz>
										<vert>0.25</vert>
									</value>
								</parameter>
								<parameter authoringApp="PremierePro">
									<parameterid>centerOffset</parameterid>
									<name>Anchor Point</name>
									<value>
										<horiz>0</horiz>
										<vert>0</vert>
									</value>
								</parameter>
								<parameter authoringApp="PremierePro">
									<parameterid>antiflicker</parameterid>
									<name>Anti-flicker Filter</name>
									<valuemin>0.0</valuemin>
									<valuemax>1.0</valuemax>
									<value>0</value>
								</parameter>
							</effect>
						</filter>
						<filter>
							<effect>
								<name>Distort</name>
								<effectid>deformation</effectid>
								<effectcategory>motion</effectcategory>
								<effecttype>motion</effecttype>
								<mediatype>video</mediatype>
								<parameter authoringApp="PremierePro">
									<parameterid>aspect</parameterid>
									<name>Aspect</name>
									<valuemin>-10000</valuemin>
									<valuemax>10000</valuemax>
									<value>-100</value>
								</parameter>
							</effect>
						</filter>
						<filter>
							<effect>
								<name>Crop</name>
								<effectid>crop</effectid>
								<effectcategory>motion</effectcategory>
								<effecttype>motion</effecttype>
								<mediatype>video</mediatype>
								<pproBypass>false</pproBypass>
								<parameter authoringApp="PremierePro">
									<parameterid>left</parameterid>
									<name>left</name>
									<valuemin>0</valuemin>
									<valuemax>100</valuemax>
									<value>0</value>
								</parameter>
								<parameter authoringApp="PremierePro">
									<parameterid>right</parameterid>
									<name>right</name>
									<valuemin>0</valuemin>
									<valuemax>100</valuemax>
									<value>0</value>
								</parameter>
								<parameter authoringApp="PremierePro">
									<parameterid>top</parameterid>
									<name>top</name>
									<valuemin>0</valuemin>
									<valuemax>100</valuemax>
									<value>0</value>
								</parameter>
								<parameter authoringApp="PremierePro">
									<parameterid>bottom</parameterid>
									<name>bottom</name>
									<valuemin>0</valuemin>
									<valuemax>100</valuemax>
									<value>42</value>
								</parameter>
							</effect>
						</filter>
						<logginginfo>
							<description></description>
							<scene></scene>
							<shottake></shottake>
							<lognote></lognote>
							<good></good>
							<originalvideofilename></originalvideofilename>
							<originalaudiofilename></originalaudiofilename>
						</logginginfo>
						<colorinfo>
							<lut></lut>
							<lut1></lut1>
							<asc_sop></asc_sop>
							<asc_sat></asc_sat>
							<lut2></lut2>
						</colorinfo>
						<labels>
							<label2>Lavender</label2>
						</labels>
					</clipitem>
					<clipitem id="clipitem-493">
						<masterclipid>masterclip-75</masterclipid>
						<name>BLINK_TEST_24frames_ALT.mov</name>
						<enabled>TRUE</enabled>
						<duration>24</duration>
						<rate>
							<timebase>60</timebase>
							<ntsc>FALSE</ntsc>
						</rate>
						<start>45258</start>
						<end>45259</end>
						<in>12</in>
						<out>13</out>
						<pproTicksIn>50803200000</pproTicksIn>
						<pproTicksOut>55036800000</pproTicksOut>
						<alphatype>straight</alphatype>
						<file id="file-75"/>
						<logginginfo>
							<description></description>
							<scene></scene>
							<shottake></shottake>
							<lognote></lognote>
							<good></good>
							<originalvideofilename></originalvideofilename>
							<originalaudiofilename></originalaudiofilename>
						</logginginfo>
						<colorinfo>
							<lut></lut>
							<lut1></lut1>
							<asc_sop></asc_sop>
							<asc_sat></asc_sat>
							<lut2></lut2>
						</colorinfo>
						<labels>
							<label2>Lavender</label2>
						</labels>
					</clipitem>
					<clipitem id="clipitem-494">
						<masterclipid>masterclip-74</masterclipid>
						<name>BLINK_TEST_24frames.mov</name>
						<enabled>TRUE</enabled>
						<duration>24</duration>
						<rate>
							<timebase>60</timebase>
							<ntsc>FALSE</ntsc>
						</rate>
						<start>45259</start>
						<end>45260</end>
						<in>7</in>
						<out>8</out>
						<pproTicksIn>29635200000</pproTicksIn>
						<pproTicksOut>33868800000</pproTicksOut>
						<alphatype>straight</alphatype>
						<file id="file-74"/>
						<filter>
							<effect>
								<name>Basic Motion</name>
								<effectid>basic</effectid>
								<effectcategory>motion</effectcategory>
								<effecttype>motion</effecttype>
								<mediatype>video</mediatype>
								<pproBypass>false</pproBypass>
								<parameter authoringApp="PremierePro">
									<parameterid>scale</parameterid>
									<name>Scale</name>
									<valuemin>0</valuemin>
									<valuemax>1000</valuemax>
									<value>100</value>
								</parameter>
								<parameter authoringApp="PremierePro">
									<parameterid>rotation</parameterid>
									<name>Rotation</name>
									<valuemin>-8640</valuemin>
									<valuemax>8640</valuemax>
									<value>0</value>
								</parameter>
								<parameter authoringApp="PremierePro">
									<parameterid>center</parameterid>
									<name>Center</name>
									<value>
										<horiz>0</horiz>
										<vert>0.25</vert>
									</value>
								</parameter>
								<parameter authoringApp="PremierePro">
									<parameterid>centerOffset</parameterid>
									<name>Anchor Point</name>
									<value>
										<horiz>0</horiz>
										<vert>0</vert>
									</value>
								</parameter>
								<parameter authoringApp="PremierePro">
									<parameterid>antiflicker</parameterid>
									<name>Anti-flicker Filter</name>
									<valuemin>0.0</valuemin>
									<valuemax>1.0</valuemax>
									<value>0</value>
								</parameter>
							</effect>
						</filter>
						<filter>
							<effect>
								<name>Distort</name>
								<effectid>deformation</effectid>
								<effectcategory>motion</effectcategory>
								<effecttype>motion</effecttype>
								<mediatype>video</mediatype>
								<parameter authoringApp="PremierePro">
									<parameterid>aspect</parameterid>
									<name>Aspect</name>
									<valuemin>-10000</valuemin>
									<valuemax>10000</valuemax>
									<value>-100</value>
								</parameter>
							</effect>
						</filter>
						<filter>
							<effect>
								<name>Crop</name>
								<effectid>crop</effectid>
								<effectcategory>motion</effectcategory>
								<effecttype>motion</effecttype>
								<mediatype>video</mediatype>
								<pproBypass>false</pproBypass>
								<parameter authoringApp="PremierePro">
									<parameterid>left</parameterid>
									<name>left</name>
									<valuemin>0</valuemin>
									<valuemax>100</valuemax>
									<value>0</value>
								</parameter>
								<parameter authoringApp="PremierePro">
									<parameterid>right</parameterid>
									<name>right</name>
									<valuemin>0</valuemin>
									<valuemax>100</valuemax>
									<value>0</value>
								</parameter>
								<parameter authoringApp="PremierePro">
									<parameterid>top</parameterid>
									<name>top</name>
									<valuemin>0</valuemin>
									<valuemax>100</valuemax>
									<value>0</value>
								</parameter>
								<parameter authoringApp="PremierePro">
									<parameterid>bottom</parameterid>
									<name>bottom</name>
									<valuemin>0</valuemin>
									<valuemax>100</valuemax>
									<value>42</value>
								</parameter>
							</effect>
						</filter>
						<logginginfo>
							<description></description>
							<scene></scene>
							<shottake></shottake>
							<lognote></lognote>
							<good></good>
							<originalvideofilename></originalvideofilename>
							<originalaudiofilename></originalaudiofilename>
						</logginginfo>
						<colorinfo>
							<lut></lut>
							<lut1></lut1>
							<asc_sop></asc_sop>
							<asc_sat></asc_sat>
							<lut2></lut2>
						</colorinfo>
						<labels>
							<label2>Lavender</label2>
						</labels>
					</clipitem>
					<clipitem id="clipitem-495">
						<masterclipid>masterclip-76</masterclipid>
						<name>0001_20180514_101903_60FPS_AUDIO.mp4</name>
						<enabled>TRUE</enabled>
						<duration>10800</duration>
						<rate>
							<timebase>60</timebase>
							<ntsc>FALSE</ntsc>
						</rate>
						<start>47170</start>
						<end>55523</end>
						<in>852</in>
						<out>9205</out>
						<pproTicksIn>3607027200000</pproTicksIn>
						<pproTicksOut>38970288000000</pproTicksOut>
						<alphatype>none</alphatype>
						<pixelaspectratio>square</pixelaspectratio>
						<anamorphic>FALSE</anamorphic>
						<file id="file-76">
							<name>0001_20180514_101903_60FPS_AUDIO.mp4</name>
							<pathurl>file://localhost/G%3a/Departments/_Post/__Projects/035_Chimps_Part_2/1.Raw/Ingest/project_chimps_20180514/Kandao/video/0001_20180514_101903_60FPS_AUDIO.mp4</pathurl>
							<rate>
								<timebase>60</timebase>
								<ntsc>FALSE</ntsc>
							</rate>
							<duration>10800</duration>
							<timecode>
								<rate>
									<timebase>60</timebase>
									<ntsc>FALSE</ntsc>
								</rate>
								<string>00:00:00:00</string>
								<frame>0</frame>
								<displayformat>NDF</displayformat>
							</timecode>
							<media>
								<video>
									<samplecharacteristics>
										<rate>
											<timebase>60</timebase>
											<ntsc>FALSE</ntsc>
										</rate>
										<width>3840</width>
										<height>3840</height>
										<anamorphic>FALSE</anamorphic>
										<pixelaspectratio>square</pixelaspectratio>
										<fielddominance>none</fielddominance>
									</samplecharacteristics>
								</video>
								<audio>
									<samplecharacteristics>
										<depth>16</depth>
										<samplerate>48000</samplerate>
									</samplecharacteristics>
									<channelcount>1</channelcount>
									<audiochannel>
										<sourcechannel>1</sourcechannel>
									</audiochannel>
								</audio>
							</media>
						</file>
						<filter>
							<effect>
								<name>Opacity</name>
								<effectid>opacity</effectid>
								<effectcategory>motion</effectcategory>
								<effecttype>motion</effecttype>
								<mediatype>video</mediatype>
								<pproBypass>false</pproBypass>
								<parameter authoringApp="PremierePro">
									<parameterid>opacity</parameterid>
									<name>opacity</name>
									<valuemin>0</valuemin>
									<valuemax>100</valuemax>
									<value>100</value>
									<keyframe>
										<when>672</when>
										<value>0</value>
									</keyframe>
									<keyframe>
										<when>851</when>
										<value>100</value>
									</keyframe>
									<keyframe>
										<when>9204</when>
										<value>100</value>
									</keyframe>
									<keyframe>
										<when>9385</when>
										<value>0</value>
									</keyframe>
								</parameter>
							</effect>
						</filter>
						<link>
							<linkclipref>clipitem-495</linkclipref>
							<mediatype>video</mediatype>
							<trackindex>2</trackindex>
							<clipindex>32</clipindex>
						</link>
						<link>
							<linkclipref>clipitem-661</linkclipref>
							<mediatype>audio</mediatype>
							<trackindex>13</trackindex>
							<clipindex>22</clipindex>
							<groupindex>1</groupindex>
						</link>
						<logginginfo>
							<description></description>
							<scene></scene>
							<shottake></shottake>
							<lognote></lognote>
							<good></good>
							<originalvideofilename></originalvideofilename>
							<originalaudiofilename></originalaudiofilename>
						</logginginfo>
						<colorinfo>
							<lut></lut>
							<lut1></lut1>
							<asc_sop></asc_sop>
							<asc_sat></asc_sat>
							<lut2></lut2>
						</colorinfo>
						<labels>
							<label2>Yellow</label2>
						</labels>
					</clipitem>
					<enabled>TRUE</enabled>
					<locked>FALSE</locked>
				</track>
				<track TL.SQTrackShy="0" TL.SQTrackExpandedHeight="49" TL.SQTrackExpanded="0" MZ.TrackTargeted="0">
					<clipitem id="clipitem-496">
						<masterclipid>masterclip-74</masterclipid>
						<name>BLINK_TEST_24frames.mov</name>
						<enabled>TRUE</enabled>
						<duration>24</duration>
						<rate>
							<timebase>60</timebase>
							<ntsc>FALSE</ntsc>
						</rate>
						<start>9883</start>
						<end>9884</end>
						<in>7</in>
						<out>8</out>
						<pproTicksIn>29635200000</pproTicksIn>
						<pproTicksOut>33868800000</pproTicksOut>
						<alphatype>straight</alphatype>
						<file id="file-74"/>
						<filter>
							<effect>
								<name>Basic Motion</name>
								<effectid>basic</effectid>
								<effectcategory>motion</effectcategory>
								<effecttype>motion</effecttype>
								<mediatype>video</mediatype>
								<pproBypass>false</pproBypass>
								<parameter authoringApp="PremierePro">
									<parameterid>scale</parameterid>
									<name>Scale</name>
									<valuemin>0</valuemin>
									<valuemax>1000</valuemax>
									<value>100</value>
								</parameter>
								<parameter authoringApp="PremierePro">
									<parameterid>rotation</parameterid>
									<name>Rotation</name>
									<valuemin>-8640</valuemin>
									<valuemax>8640</valuemax>
									<value>0</value>
								</parameter>
								<parameter authoringApp="PremierePro">
									<parameterid>center</parameterid>
									<name>Center</name>
									<value>
										<horiz>0</horiz>
										<vert>-0.25</vert>
									</value>
								</parameter>
								<parameter authoringApp="PremierePro">
									<parameterid>centerOffset</parameterid>
									<name>Anchor Point</name>
									<value>
										<horiz>0</horiz>
										<vert>0</vert>
									</value>
								</parameter>
								<parameter authoringApp="PremierePro">
									<parameterid>antiflicker</parameterid>
									<name>Anti-flicker Filter</name>
									<valuemin>0.0</valuemin>
									<valuemax>1.0</valuemax>
									<value>0</value>
								</parameter>
							</effect>
						</filter>
						<filter>
							<effect>
								<name>Distort</name>
								<effectid>deformation</effectid>
								<effectcategory>motion</effectcategory>
								<effecttype>motion</effecttype>
								<mediatype>video</mediatype>
								<parameter authoringApp="PremierePro">
									<parameterid>aspect</parameterid>
									<name>Aspect</name>
									<valuemin>-10000</valuemin>
									<valuemax>10000</valuemax>
									<value>-100</value>
								</parameter>
							</effect>
						</filter>
						<filter>
							<effect>
								<name>Crop</name>
								<effectid>crop</effectid>
								<effectcategory>motion</effectcategory>
								<effecttype>motion</effecttype>
								<mediatype>video</mediatype>
								<pproBypass>false</pproBypass>
								<parameter authoringApp="PremierePro">
									<parameterid>left</parameterid>
									<name>left</name>
									<valuemin>0</valuemin>
									<valuemax>100</valuemax>
									<value>0</value>
								</parameter>
								<parameter authoringApp="PremierePro">
									<parameterid>right</parameterid>
									<name>right</name>
									<valuemin>0</valuemin>
									<valuemax>100</valuemax>
									<value>0</value>
								</parameter>
								<parameter authoringApp="PremierePro">
									<parameterid>top</parameterid>
									<name>top</name>
									<valuemin>0</valuemin>
									<valuemax>100</valuemax>
									<value>0</value>
								</parameter>
								<parameter authoringApp="PremierePro">
									<parameterid>bottom</parameterid>
									<name>bottom</name>
									<valuemin>0</valuemin>
									<valuemax>100</valuemax>
									<value>42</value>
								</parameter>
							</effect>
						</filter>
						<logginginfo>
							<description></description>
							<scene></scene>
							<shottake></shottake>
							<lognote></lognote>
							<good></good>
							<originalvideofilename></originalvideofilename>
							<originalaudiofilename></originalaudiofilename>
						</logginginfo>
						<colorinfo>
							<lut></lut>
							<lut1></lut1>
							<asc_sop></asc_sop>
							<asc_sat></asc_sat>
							<lut2></lut2>
						</colorinfo>
						<labels>
							<label2>Lavender</label2>
						</labels>
					</clipitem>
					<clipitem id="clipitem-497">
						<masterclipid>masterclip-75</masterclipid>
						<name>BLINK_TEST_24frames_ALT.mov</name>
						<enabled>TRUE</enabled>
						<duration>24</duration>
						<rate>
							<timebase>60</timebase>
							<ntsc>FALSE</ntsc>
						</rate>
						<start>9884</start>
						<end>9885</end>
						<in>12</in>
						<out>13</out>
						<pproTicksIn>50803200000</pproTicksIn>
						<pproTicksOut>55036800000</pproTicksOut>
						<alphatype>straight</alphatype>
						<file id="file-75"/>
						<logginginfo>
							<description></description>
							<scene></scene>
							<shottake></shottake>
							<lognote></lognote>
							<good></good>
							<originalvideofilename></originalvideofilename>
							<originalaudiofilename></originalaudiofilename>
						</logginginfo>
						<colorinfo>
							<lut></lut>
							<lut1></lut1>
							<asc_sop></asc_sop>
							<asc_sat></asc_sat>
							<lut2></lut2>
						</colorinfo>
						<labels>
							<label2>Lavender</label2>
						</labels>
					</clipitem>
					<clipitem id="clipitem-498">
						<masterclipid>masterclip-74</masterclipid>
						<name>BLINK_TEST_24frames.mov</name>
						<enabled>TRUE</enabled>
						<duration>24</duration>
						<rate>
							<timebase>60</timebase>
							<ntsc>FALSE</ntsc>
						</rate>
						<start>9885</start>
						<end>9886</end>
						<in>7</in>
						<out>8</out>
						<pproTicksIn>29635200000</pproTicksIn>
						<pproTicksOut>33868800000</pproTicksOut>
						<alphatype>straight</alphatype>
						<file id="file-74"/>
						<filter>
							<effect>
								<name>Basic Motion</name>
								<effectid>basic</effectid>
								<effectcategory>motion</effectcategory>
								<effecttype>motion</effecttype>
								<mediatype>video</mediatype>
								<pproBypass>false</pproBypass>
								<parameter authoringApp="PremierePro">
									<parameterid>scale</parameterid>
									<name>Scale</name>
									<valuemin>0</valuemin>
									<valuemax>1000</valuemax>
									<value>100</value>
								</parameter>
								<parameter authoringApp="PremierePro">
									<parameterid>rotation</parameterid>
									<name>Rotation</name>
									<valuemin>-8640</valuemin>
									<valuemax>8640</valuemax>
									<value>0</value>
								</parameter>
								<parameter authoringApp="PremierePro">
									<parameterid>center</parameterid>
									<name>Center</name>
									<value>
										<horiz>0</horiz>
										<vert>-0.25</vert>
									</value>
								</parameter>
								<parameter authoringApp="PremierePro">
									<parameterid>centerOffset</parameterid>
									<name>Anchor Point</name>
									<value>
										<horiz>0</horiz>
										<vert>0</vert>
									</value>
								</parameter>
								<parameter authoringApp="PremierePro">
									<parameterid>antiflicker</parameterid>
									<name>Anti-flicker Filter</name>
									<valuemin>0.0</valuemin>
									<valuemax>1.0</valuemax>
									<value>0</value>
								</parameter>
							</effect>
						</filter>
						<filter>
							<effect>
								<name>Distort</name>
								<effectid>deformation</effectid>
								<effectcategory>motion</effectcategory>
								<effecttype>motion</effecttype>
								<mediatype>video</mediatype>
								<parameter authoringApp="PremierePro">
									<parameterid>aspect</parameterid>
									<name>Aspect</name>
									<valuemin>-10000</valuemin>
									<valuemax>10000</valuemax>
									<value>-100</value>
								</parameter>
							</effect>
						</filter>
						<filter>
							<effect>
								<name>Crop</name>
								<effectid>crop</effectid>
								<effectcategory>motion</effectcategory>
								<effecttype>motion</effecttype>
								<mediatype>video</mediatype>
								<pproBypass>false</pproBypass>
								<parameter authoringApp="PremierePro">
									<parameterid>left</parameterid>
									<name>left</name>
									<valuemin>0</valuemin>
									<valuemax>100</valuemax>
									<value>0</value>
								</parameter>
								<parameter authoringApp="PremierePro">
									<parameterid>right</parameterid>
									<name>right</name>
									<valuemin>0</valuemin>
									<valuemax>100</valuemax>
									<value>0</value>
								</parameter>
								<parameter authoringApp="PremierePro">
									<parameterid>top</parameterid>
									<name>top</name>
									<valuemin>0</valuemin>
									<valuemax>100</valuemax>
									<value>0</value>
								</parameter>
								<parameter authoringApp="PremierePro">
									<parameterid>bottom</parameterid>
									<name>bottom</name>
									<valuemin>0</valuemin>
									<valuemax>100</valuemax>
									<value>42</value>
								</parameter>
							</effect>
						</filter>
						<logginginfo>
							<description></description>
							<scene></scene>
							<shottake></shottake>
							<lognote></lognote>
							<good></good>
							<originalvideofilename></originalvideofilename>
							<originalaudiofilename></originalaudiofilename>
						</logginginfo>
						<colorinfo>
							<lut></lut>
							<lut1></lut1>
							<asc_sop></asc_sop>
							<asc_sat></asc_sat>
							<lut2></lut2>
						</colorinfo>
						<labels>
							<label2>Lavender</label2>
						</labels>
					</clipitem>
					<clipitem id="clipitem-499">
						<masterclipid>masterclip-74</masterclipid>
						<name>BLINK_TEST_24frames.mov</name>
						<enabled>TRUE</enabled>
						<duration>24</duration>
						<rate>
							<timebase>60</timebase>
							<ntsc>FALSE</ntsc>
						</rate>
						<start>19879</start>
						<end>19880</end>
						<in>7</in>
						<out>8</out>
						<pproTicksIn>29635200000</pproTicksIn>
						<pproTicksOut>33868800000</pproTicksOut>
						<alphatype>straight</alphatype>
						<file id="file-74"/>
						<filter>
							<effect>
								<name>Basic Motion</name>
								<effectid>basic</effectid>
								<effectcategory>motion</effectcategory>
								<effecttype>motion</effecttype>
								<mediatype>video</mediatype>
								<pproBypass>false</pproBypass>
								<parameter authoringApp="PremierePro">
									<parameterid>scale</parameterid>
									<name>Scale</name>
									<valuemin>0</valuemin>
									<valuemax>1000</valuemax>
									<value>100</value>
								</parameter>
								<parameter authoringApp="PremierePro">
									<parameterid>rotation</parameterid>
									<name>Rotation</name>
									<valuemin>-8640</valuemin>
									<valuemax>8640</valuemax>
									<value>0</value>
								</parameter>
								<parameter authoringApp="PremierePro">
									<parameterid>center</parameterid>
									<name>Center</name>
									<value>
										<horiz>0</horiz>
										<vert>-0.25</vert>
									</value>
								</parameter>
								<parameter authoringApp="PremierePro">
									<parameterid>centerOffset</parameterid>
									<name>Anchor Point</name>
									<value>
										<horiz>0</horiz>
										<vert>0</vert>
									</value>
								</parameter>
								<parameter authoringApp="PremierePro">
									<parameterid>antiflicker</parameterid>
									<name>Anti-flicker Filter</name>
									<valuemin>0.0</valuemin>
									<valuemax>1.0</valuemax>
									<value>0</value>
								</parameter>
							</effect>
						</filter>
						<filter>
							<effect>
								<name>Distort</name>
								<effectid>deformation</effectid>
								<effectcategory>motion</effectcategory>
								<effecttype>motion</effecttype>
								<mediatype>video</mediatype>
								<parameter authoringApp="PremierePro">
									<parameterid>aspect</parameterid>
									<name>Aspect</name>
									<valuemin>-10000</valuemin>
									<valuemax>10000</valuemax>
									<value>-100</value>
								</parameter>
							</effect>
						</filter>
						<filter>
							<effect>
								<name>Crop</name>
								<effectid>crop</effectid>
								<effectcategory>motion</effectcategory>
								<effecttype>motion</effecttype>
								<mediatype>video</mediatype>
								<pproBypass>false</pproBypass>
								<parameter authoringApp="PremierePro">
									<parameterid>left</parameterid>
									<name>left</name>
									<valuemin>0</valuemin>
									<valuemax>100</valuemax>
									<value>0</value>
								</parameter>
								<parameter authoringApp="PremierePro">
									<parameterid>right</parameterid>
									<name>right</name>
									<valuemin>0</valuemin>
									<valuemax>100</valuemax>
									<value>0</value>
								</parameter>
								<parameter authoringApp="PremierePro">
									<parameterid>top</parameterid>
									<name>top</name>
									<valuemin>0</valuemin>
									<valuemax>100</valuemax>
									<value>0</value>
								</parameter>
								<parameter authoringApp="PremierePro">
									<parameterid>bottom</parameterid>
									<name>bottom</name>
									<valuemin>0</valuemin>
									<valuemax>100</valuemax>
									<value>42</value>
								</parameter>
							</effect>
						</filter>
						<logginginfo>
							<description></description>
							<scene></scene>
							<shottake></shottake>
							<lognote></lognote>
							<good></good>
							<originalvideofilename></originalvideofilename>
							<originalaudiofilename></originalaudiofilename>
						</logginginfo>
						<colorinfo>
							<lut></lut>
							<lut1></lut1>
							<asc_sop></asc_sop>
							<asc_sat></asc_sat>
							<lut2></lut2>
						</colorinfo>
						<labels>
							<label2>Lavender</label2>
						</labels>
					</clipitem>
					<clipitem id="clipitem-500">
						<masterclipid>masterclip-75</masterclipid>
						<name>BLINK_TEST_24frames_ALT.mov</name>
						<enabled>TRUE</enabled>
						<duration>24</duration>
						<rate>
							<timebase>60</timebase>
							<ntsc>FALSE</ntsc>
						</rate>
						<start>19880</start>
						<end>19881</end>
						<in>12</in>
						<out>13</out>
						<pproTicksIn>50803200000</pproTicksIn>
						<pproTicksOut>55036800000</pproTicksOut>
						<alphatype>straight</alphatype>
						<file id="file-75"/>
						<logginginfo>
							<description></description>
							<scene></scene>
							<shottake></shottake>
							<lognote></lognote>
							<good></good>
							<originalvideofilename></originalvideofilename>
							<originalaudiofilename></originalaudiofilename>
						</logginginfo>
						<colorinfo>
							<lut></lut>
							<lut1></lut1>
							<asc_sop></asc_sop>
							<asc_sat></asc_sat>
							<lut2></lut2>
						</colorinfo>
						<labels>
							<label2>Lavender</label2>
						</labels>
					</clipitem>
					<clipitem id="clipitem-501">
						<masterclipid>masterclip-74</masterclipid>
						<name>BLINK_TEST_24frames.mov</name>
						<enabled>TRUE</enabled>
						<duration>24</duration>
						<rate>
							<timebase>60</timebase>
							<ntsc>FALSE</ntsc>
						</rate>
						<start>19881</start>
						<end>19882</end>
						<in>7</in>
						<out>8</out>
						<pproTicksIn>29635200000</pproTicksIn>
						<pproTicksOut>33868800000</pproTicksOut>
						<alphatype>straight</alphatype>
						<file id="file-74"/>
						<filter>
							<effect>
								<name>Basic Motion</name>
								<effectid>basic</effectid>
								<effectcategory>motion</effectcategory>
								<effecttype>motion</effecttype>
								<mediatype>video</mediatype>
								<pproBypass>false</pproBypass>
								<parameter authoringApp="PremierePro">
									<parameterid>scale</parameterid>
									<name>Scale</name>
									<valuemin>0</valuemin>
									<valuemax>1000</valuemax>
									<value>100</value>
								</parameter>
								<parameter authoringApp="PremierePro">
									<parameterid>rotation</parameterid>
									<name>Rotation</name>
									<valuemin>-8640</valuemin>
									<valuemax>8640</valuemax>
									<value>0</value>
								</parameter>
								<parameter authoringApp="PremierePro">
									<parameterid>center</parameterid>
									<name>Center</name>
									<value>
										<horiz>0</horiz>
										<vert>-0.25</vert>
									</value>
								</parameter>
								<parameter authoringApp="PremierePro">
									<parameterid>centerOffset</parameterid>
									<name>Anchor Point</name>
									<value>
										<horiz>0</horiz>
										<vert>0</vert>
									</value>
								</parameter>
								<parameter authoringApp="PremierePro">
									<parameterid>antiflicker</parameterid>
									<name>Anti-flicker Filter</name>
									<valuemin>0.0</valuemin>
									<valuemax>1.0</valuemax>
									<value>0</value>
								</parameter>
							</effect>
						</filter>
						<filter>
							<effect>
								<name>Distort</name>
								<effectid>deformation</effectid>
								<effectcategory>motion</effectcategory>
								<effecttype>motion</effecttype>
								<mediatype>video</mediatype>
								<parameter authoringApp="PremierePro">
									<parameterid>aspect</parameterid>
									<name>Aspect</name>
									<valuemin>-10000</valuemin>
									<valuemax>10000</valuemax>
									<value>-100</value>
								</parameter>
							</effect>
						</filter>
						<filter>
							<effect>
								<name>Crop</name>
								<effectid>crop</effectid>
								<effectcategory>motion</effectcategory>
								<effecttype>motion</effecttype>
								<mediatype>video</mediatype>
								<pproBypass>false</pproBypass>
								<parameter authoringApp="PremierePro">
									<parameterid>left</parameterid>
									<name>left</name>
									<valuemin>0</valuemin>
									<valuemax>100</valuemax>
									<value>0</value>
								</parameter>
								<parameter authoringApp="PremierePro">
									<parameterid>right</parameterid>
									<name>right</name>
									<valuemin>0</valuemin>
									<valuemax>100</valuemax>
									<value>0</value>
								</parameter>
								<parameter authoringApp="PremierePro">
									<parameterid>top</parameterid>
									<name>top</name>
									<valuemin>0</valuemin>
									<valuemax>100</valuemax>
									<value>0</value>
								</parameter>
								<parameter authoringApp="PremierePro">
									<parameterid>bottom</parameterid>
									<name>bottom</name>
									<valuemin>0</valuemin>
									<valuemax>100</valuemax>
									<value>42</value>
								</parameter>
							</effect>
						</filter>
						<logginginfo>
							<description></description>
							<scene></scene>
							<shottake></shottake>
							<lognote></lognote>
							<good></good>
							<originalvideofilename></originalvideofilename>
							<originalaudiofilename></originalaudiofilename>
						</logginginfo>
						<colorinfo>
							<lut></lut>
							<lut1></lut1>
							<asc_sop></asc_sop>
							<asc_sat></asc_sat>
							<lut2></lut2>
						</colorinfo>
						<labels>
							<label2>Lavender</label2>
						</labels>
					</clipitem>
					<clipitem id="clipitem-502">
						<masterclipid>masterclip-74</masterclipid>
						<name>BLINK_TEST_24frames.mov</name>
						<enabled>TRUE</enabled>
						<duration>24</duration>
						<rate>
							<timebase>60</timebase>
							<ntsc>FALSE</ntsc>
						</rate>
						<start>22864</start>
						<end>22865</end>
						<in>7</in>
						<out>8</out>
						<pproTicksIn>29635200000</pproTicksIn>
						<pproTicksOut>33868800000</pproTicksOut>
						<alphatype>straight</alphatype>
						<file id="file-74"/>
						<filter>
							<effect>
								<name>Basic Motion</name>
								<effectid>basic</effectid>
								<effectcategory>motion</effectcategory>
								<effecttype>motion</effecttype>
								<mediatype>video</mediatype>
								<pproBypass>false</pproBypass>
								<parameter authoringApp="PremierePro">
									<parameterid>scale</parameterid>
									<name>Scale</name>
									<valuemin>0</valuemin>
									<valuemax>1000</valuemax>
									<value>100</value>
								</parameter>
								<parameter authoringApp="PremierePro">
									<parameterid>rotation</parameterid>
									<name>Rotation</name>
									<valuemin>-8640</valuemin>
									<valuemax>8640</valuemax>
									<value>0</value>
								</parameter>
								<parameter authoringApp="PremierePro">
									<parameterid>center</parameterid>
									<name>Center</name>
									<value>
										<horiz>0</horiz>
										<vert>-0.25</vert>
									</value>
								</parameter>
								<parameter authoringApp="PremierePro">
									<parameterid>centerOffset</parameterid>
									<name>Anchor Point</name>
									<value>
										<horiz>0</horiz>
										<vert>0</vert>
									</value>
								</parameter>
								<parameter authoringApp="PremierePro">
									<parameterid>antiflicker</parameterid>
									<name>Anti-flicker Filter</name>
									<valuemin>0.0</valuemin>
									<valuemax>1.0</valuemax>
									<value>0</value>
								</parameter>
							</effect>
						</filter>
						<filter>
							<effect>
								<name>Distort</name>
								<effectid>deformation</effectid>
								<effectcategory>motion</effectcategory>
								<effecttype>motion</effecttype>
								<mediatype>video</mediatype>
								<parameter authoringApp="PremierePro">
									<parameterid>aspect</parameterid>
									<name>Aspect</name>
									<valuemin>-10000</valuemin>
									<valuemax>10000</valuemax>
									<value>-100</value>
								</parameter>
							</effect>
						</filter>
						<filter>
							<effect>
								<name>Crop</name>
								<effectid>crop</effectid>
								<effectcategory>motion</effectcategory>
								<effecttype>motion</effecttype>
								<mediatype>video</mediatype>
								<pproBypass>false</pproBypass>
								<parameter authoringApp="PremierePro">
									<parameterid>left</parameterid>
									<name>left</name>
									<valuemin>0</valuemin>
									<valuemax>100</valuemax>
									<value>0</value>
								</parameter>
								<parameter authoringApp="PremierePro">
									<parameterid>right</parameterid>
									<name>right</name>
									<valuemin>0</valuemin>
									<valuemax>100</valuemax>
									<value>0</value>
								</parameter>
								<parameter authoringApp="PremierePro">
									<parameterid>top</parameterid>
									<name>top</name>
									<valuemin>0</valuemin>
									<valuemax>100</valuemax>
									<value>0</value>
								</parameter>
								<parameter authoringApp="PremierePro">
									<parameterid>bottom</parameterid>
									<name>bottom</name>
									<valuemin>0</valuemin>
									<valuemax>100</valuemax>
									<value>42</value>
								</parameter>
							</effect>
						</filter>
						<logginginfo>
							<description></description>
							<scene></scene>
							<shottake></shottake>
							<lognote></lognote>
							<good></good>
							<originalvideofilename></originalvideofilename>
							<originalaudiofilename></originalaudiofilename>
						</logginginfo>
						<colorinfo>
							<lut></lut>
							<lut1></lut1>
							<asc_sop></asc_sop>
							<asc_sat></asc_sat>
							<lut2></lut2>
						</colorinfo>
						<labels>
							<label2>Lavender</label2>
						</labels>
					</clipitem>
					<clipitem id="clipitem-503">
						<masterclipid>masterclip-75</masterclipid>
						<name>BLINK_TEST_24frames_ALT.mov</name>
						<enabled>TRUE</enabled>
						<duration>24</duration>
						<rate>
							<timebase>60</timebase>
							<ntsc>FALSE</ntsc>
						</rate>
						<start>22865</start>
						<end>22866</end>
						<in>12</in>
						<out>13</out>
						<pproTicksIn>50803200000</pproTicksIn>
						<pproTicksOut>55036800000</pproTicksOut>
						<alphatype>straight</alphatype>
						<file id="file-75"/>
						<logginginfo>
							<description></description>
							<scene></scene>
							<shottake></shottake>
							<lognote></lognote>
							<good></good>
							<originalvideofilename></originalvideofilename>
							<originalaudiofilename></originalaudiofilename>
						</logginginfo>
						<colorinfo>
							<lut></lut>
							<lut1></lut1>
							<asc_sop></asc_sop>
							<asc_sat></asc_sat>
							<lut2></lut2>
						</colorinfo>
						<labels>
							<label2>Lavender</label2>
						</labels>
					</clipitem>
					<clipitem id="clipitem-504">
						<masterclipid>masterclip-74</masterclipid>
						<name>BLINK_TEST_24frames.mov</name>
						<enabled>TRUE</enabled>
						<duration>24</duration>
						<rate>
							<timebase>60</timebase>
							<ntsc>FALSE</ntsc>
						</rate>
						<start>22866</start>
						<end>22867</end>
						<in>7</in>
						<out>8</out>
						<pproTicksIn>29635200000</pproTicksIn>
						<pproTicksOut>33868800000</pproTicksOut>
						<alphatype>straight</alphatype>
						<file id="file-74"/>
						<filter>
							<effect>
								<name>Basic Motion</name>
								<effectid>basic</effectid>
								<effectcategory>motion</effectcategory>
								<effecttype>motion</effecttype>
								<mediatype>video</mediatype>
								<pproBypass>false</pproBypass>
								<parameter authoringApp="PremierePro">
									<parameterid>scale</parameterid>
									<name>Scale</name>
									<valuemin>0</valuemin>
									<valuemax>1000</valuemax>
									<value>100</value>
								</parameter>
								<parameter authoringApp="PremierePro">
									<parameterid>rotation</parameterid>
									<name>Rotation</name>
									<valuemin>-8640</valuemin>
									<valuemax>8640</valuemax>
									<value>0</value>
								</parameter>
								<parameter authoringApp="PremierePro">
									<parameterid>center</parameterid>
									<name>Center</name>
									<value>
										<horiz>0</horiz>
										<vert>-0.25</vert>
									</value>
								</parameter>
								<parameter authoringApp="PremierePro">
									<parameterid>centerOffset</parameterid>
									<name>Anchor Point</name>
									<value>
										<horiz>0</horiz>
										<vert>0</vert>
									</value>
								</parameter>
								<parameter authoringApp="PremierePro">
									<parameterid>antiflicker</parameterid>
									<name>Anti-flicker Filter</name>
									<valuemin>0.0</valuemin>
									<valuemax>1.0</valuemax>
									<value>0</value>
								</parameter>
							</effect>
						</filter>
						<filter>
							<effect>
								<name>Distort</name>
								<effectid>deformation</effectid>
								<effectcategory>motion</effectcategory>
								<effecttype>motion</effecttype>
								<mediatype>video</mediatype>
								<parameter authoringApp="PremierePro">
									<parameterid>aspect</parameterid>
									<name>Aspect</name>
									<valuemin>-10000</valuemin>
									<valuemax>10000</valuemax>
									<value>-100</value>
								</parameter>
							</effect>
						</filter>
						<filter>
							<effect>
								<name>Crop</name>
								<effectid>crop</effectid>
								<effectcategory>motion</effectcategory>
								<effecttype>motion</effecttype>
								<mediatype>video</mediatype>
								<pproBypass>false</pproBypass>
								<parameter authoringApp="PremierePro">
									<parameterid>left</parameterid>
									<name>left</name>
									<valuemin>0</valuemin>
									<valuemax>100</valuemax>
									<value>0</value>
								</parameter>
								<parameter authoringApp="PremierePro">
									<parameterid>right</parameterid>
									<name>right</name>
									<valuemin>0</valuemin>
									<valuemax>100</valuemax>
									<value>0</value>
								</parameter>
								<parameter authoringApp="PremierePro">
									<parameterid>top</parameterid>
									<name>top</name>
									<valuemin>0</valuemin>
									<valuemax>100</valuemax>
									<value>0</value>
								</parameter>
								<parameter authoringApp="PremierePro">
									<parameterid>bottom</parameterid>
									<name>bottom</name>
									<valuemin>0</valuemin>
									<valuemax>100</valuemax>
									<value>42</value>
								</parameter>
							</effect>
						</filter>
						<logginginfo>
							<description></description>
							<scene></scene>
							<shottake></shottake>
							<lognote></lognote>
							<good></good>
							<originalvideofilename></originalvideofilename>
							<originalaudiofilename></originalaudiofilename>
						</logginginfo>
						<colorinfo>
							<lut></lut>
							<lut1></lut1>
							<asc_sop></asc_sop>
							<asc_sat></asc_sat>
							<lut2></lut2>
						</colorinfo>
						<labels>
							<label2>Lavender</label2>
						</labels>
					</clipitem>
					<clipitem id="clipitem-505">
						<masterclipid>masterclip-74</masterclipid>
						<name>BLINK_TEST_24frames.mov</name>
						<enabled>TRUE</enabled>
						<duration>24</duration>
						<rate>
							<timebase>60</timebase>
							<ntsc>FALSE</ntsc>
						</rate>
						<start>29013</start>
						<end>29014</end>
						<in>7</in>
						<out>8</out>
						<pproTicksIn>29635200000</pproTicksIn>
						<pproTicksOut>33868800000</pproTicksOut>
						<alphatype>straight</alphatype>
						<file id="file-74"/>
						<filter>
							<effect>
								<name>Basic Motion</name>
								<effectid>basic</effectid>
								<effectcategory>motion</effectcategory>
								<effecttype>motion</effecttype>
								<mediatype>video</mediatype>
								<pproBypass>false</pproBypass>
								<parameter authoringApp="PremierePro">
									<parameterid>scale</parameterid>
									<name>Scale</name>
									<valuemin>0</valuemin>
									<valuemax>1000</valuemax>
									<value>100</value>
								</parameter>
								<parameter authoringApp="PremierePro">
									<parameterid>rotation</parameterid>
									<name>Rotation</name>
									<valuemin>-8640</valuemin>
									<valuemax>8640</valuemax>
									<value>0</value>
								</parameter>
								<parameter authoringApp="PremierePro">
									<parameterid>center</parameterid>
									<name>Center</name>
									<value>
										<horiz>0</horiz>
										<vert>-0.25</vert>
									</value>
								</parameter>
								<parameter authoringApp="PremierePro">
									<parameterid>centerOffset</parameterid>
									<name>Anchor Point</name>
									<value>
										<horiz>0</horiz>
										<vert>0</vert>
									</value>
								</parameter>
								<parameter authoringApp="PremierePro">
									<parameterid>antiflicker</parameterid>
									<name>Anti-flicker Filter</name>
									<valuemin>0.0</valuemin>
									<valuemax>1.0</valuemax>
									<value>0</value>
								</parameter>
							</effect>
						</filter>
						<filter>
							<effect>
								<name>Distort</name>
								<effectid>deformation</effectid>
								<effectcategory>motion</effectcategory>
								<effecttype>motion</effecttype>
								<mediatype>video</mediatype>
								<parameter authoringApp="PremierePro">
									<parameterid>aspect</parameterid>
									<name>Aspect</name>
									<valuemin>-10000</valuemin>
									<valuemax>10000</valuemax>
									<value>-100</value>
								</parameter>
							</effect>
						</filter>
						<filter>
							<effect>
								<name>Crop</name>
								<effectid>crop</effectid>
								<effectcategory>motion</effectcategory>
								<effecttype>motion</effecttype>
								<mediatype>video</mediatype>
								<pproBypass>false</pproBypass>
								<parameter authoringApp="PremierePro">
									<parameterid>left</parameterid>
									<name>left</name>
									<valuemin>0</valuemin>
									<valuemax>100</valuemax>
									<value>0</value>
								</parameter>
								<parameter authoringApp="PremierePro">
									<parameterid>right</parameterid>
									<name>right</name>
									<valuemin>0</valuemin>
									<valuemax>100</valuemax>
									<value>0</value>
								</parameter>
								<parameter authoringApp="PremierePro">
									<parameterid>top</parameterid>
									<name>top</name>
									<valuemin>0</valuemin>
									<valuemax>100</valuemax>
									<value>0</value>
								</parameter>
								<parameter authoringApp="PremierePro">
									<parameterid>bottom</parameterid>
									<name>bottom</name>
									<valuemin>0</valuemin>
									<valuemax>100</valuemax>
									<value>42</value>
								</parameter>
							</effect>
						</filter>
						<logginginfo>
							<description></description>
							<scene></scene>
							<shottake></shottake>
							<lognote></lognote>
							<good></good>
							<originalvideofilename></originalvideofilename>
							<originalaudiofilename></originalaudiofilename>
						</logginginfo>
						<colorinfo>
							<lut></lut>
							<lut1></lut1>
							<asc_sop></asc_sop>
							<asc_sat></asc_sat>
							<lut2></lut2>
						</colorinfo>
						<labels>
							<label2>Lavender</label2>
						</labels>
					</clipitem>
					<clipitem id="clipitem-506">
						<masterclipid>masterclip-75</masterclipid>
						<name>BLINK_TEST_24frames_ALT.mov</name>
						<enabled>TRUE</enabled>
						<duration>24</duration>
						<rate>
							<timebase>60</timebase>
							<ntsc>FALSE</ntsc>
						</rate>
						<start>29014</start>
						<end>29015</end>
						<in>12</in>
						<out>13</out>
						<pproTicksIn>50803200000</pproTicksIn>
						<pproTicksOut>55036800000</pproTicksOut>
						<alphatype>straight</alphatype>
						<file id="file-75"/>
						<logginginfo>
							<description></description>
							<scene></scene>
							<shottake></shottake>
							<lognote></lognote>
							<good></good>
							<originalvideofilename></originalvideofilename>
							<originalaudiofilename></originalaudiofilename>
						</logginginfo>
						<colorinfo>
							<lut></lut>
							<lut1></lut1>
							<asc_sop></asc_sop>
							<asc_sat></asc_sat>
							<lut2></lut2>
						</colorinfo>
						<labels>
							<label2>Lavender</label2>
						</labels>
					</clipitem>
					<clipitem id="clipitem-507">
						<masterclipid>masterclip-74</masterclipid>
						<name>BLINK_TEST_24frames.mov</name>
						<enabled>TRUE</enabled>
						<duration>24</duration>
						<rate>
							<timebase>60</timebase>
							<ntsc>FALSE</ntsc>
						</rate>
						<start>29015</start>
						<end>29016</end>
						<in>7</in>
						<out>8</out>
						<pproTicksIn>29635200000</pproTicksIn>
						<pproTicksOut>33868800000</pproTicksOut>
						<alphatype>straight</alphatype>
						<file id="file-74"/>
						<filter>
							<effect>
								<name>Basic Motion</name>
								<effectid>basic</effectid>
								<effectcategory>motion</effectcategory>
								<effecttype>motion</effecttype>
								<mediatype>video</mediatype>
								<pproBypass>false</pproBypass>
								<parameter authoringApp="PremierePro">
									<parameterid>scale</parameterid>
									<name>Scale</name>
									<valuemin>0</valuemin>
									<valuemax>1000</valuemax>
									<value>100</value>
								</parameter>
								<parameter authoringApp="PremierePro">
									<parameterid>rotation</parameterid>
									<name>Rotation</name>
									<valuemin>-8640</valuemin>
									<valuemax>8640</valuemax>
									<value>0</value>
								</parameter>
								<parameter authoringApp="PremierePro">
									<parameterid>center</parameterid>
									<name>Center</name>
									<value>
										<horiz>0</horiz>
										<vert>-0.25</vert>
									</value>
								</parameter>
								<parameter authoringApp="PremierePro">
									<parameterid>centerOffset</parameterid>
									<name>Anchor Point</name>
									<value>
										<horiz>0</horiz>
										<vert>0</vert>
									</value>
								</parameter>
								<parameter authoringApp="PremierePro">
									<parameterid>antiflicker</parameterid>
									<name>Anti-flicker Filter</name>
									<valuemin>0.0</valuemin>
									<valuemax>1.0</valuemax>
									<value>0</value>
								</parameter>
							</effect>
						</filter>
						<filter>
							<effect>
								<name>Distort</name>
								<effectid>deformation</effectid>
								<effectcategory>motion</effectcategory>
								<effecttype>motion</effecttype>
								<mediatype>video</mediatype>
								<parameter authoringApp="PremierePro">
									<parameterid>aspect</parameterid>
									<name>Aspect</name>
									<valuemin>-10000</valuemin>
									<valuemax>10000</valuemax>
									<value>-100</value>
								</parameter>
							</effect>
						</filter>
						<filter>
							<effect>
								<name>Crop</name>
								<effectid>crop</effectid>
								<effectcategory>motion</effectcategory>
								<effecttype>motion</effecttype>
								<mediatype>video</mediatype>
								<pproBypass>false</pproBypass>
								<parameter authoringApp="PremierePro">
									<parameterid>left</parameterid>
									<name>left</name>
									<valuemin>0</valuemin>
									<valuemax>100</valuemax>
									<value>0</value>
								</parameter>
								<parameter authoringApp="PremierePro">
									<parameterid>right</parameterid>
									<name>right</name>
									<valuemin>0</valuemin>
									<valuemax>100</valuemax>
									<value>0</value>
								</parameter>
								<parameter authoringApp="PremierePro">
									<parameterid>top</parameterid>
									<name>top</name>
									<valuemin>0</valuemin>
									<valuemax>100</valuemax>
									<value>0</value>
								</parameter>
								<parameter authoringApp="PremierePro">
									<parameterid>bottom</parameterid>
									<name>bottom</name>
									<valuemin>0</valuemin>
									<valuemax>100</valuemax>
									<value>42</value>
								</parameter>
							</effect>
						</filter>
						<logginginfo>
							<description></description>
							<scene></scene>
							<shottake></shottake>
							<lognote></lognote>
							<good></good>
							<originalvideofilename></originalvideofilename>
							<originalaudiofilename></originalaudiofilename>
						</logginginfo>
						<colorinfo>
							<lut></lut>
							<lut1></lut1>
							<asc_sop></asc_sop>
							<asc_sat></asc_sat>
							<lut2></lut2>
						</colorinfo>
						<labels>
							<label2>Lavender</label2>
						</labels>
					</clipitem>
					<clipitem id="clipitem-508">
						<masterclipid>masterclip-74</masterclipid>
						<name>BLINK_TEST_24frames.mov</name>
						<enabled>TRUE</enabled>
						<duration>24</duration>
						<rate>
							<timebase>60</timebase>
							<ntsc>FALSE</ntsc>
						</rate>
						<start>29559</start>
						<end>29560</end>
						<in>7</in>
						<out>8</out>
						<pproTicksIn>29635200000</pproTicksIn>
						<pproTicksOut>33868800000</pproTicksOut>
						<alphatype>straight</alphatype>
						<file id="file-74"/>
						<filter>
							<effect>
								<name>Basic Motion</name>
								<effectid>basic</effectid>
								<effectcategory>motion</effectcategory>
								<effecttype>motion</effecttype>
								<mediatype>video</mediatype>
								<pproBypass>false</pproBypass>
								<parameter authoringApp="PremierePro">
									<parameterid>scale</parameterid>
									<name>Scale</name>
									<valuemin>0</valuemin>
									<valuemax>1000</valuemax>
									<value>100</value>
								</parameter>
								<parameter authoringApp="PremierePro">
									<parameterid>rotation</parameterid>
									<name>Rotation</name>
									<valuemin>-8640</valuemin>
									<valuemax>8640</valuemax>
									<value>0</value>
								</parameter>
								<parameter authoringApp="PremierePro">
									<parameterid>center</parameterid>
									<name>Center</name>
									<value>
										<horiz>0</horiz>
										<vert>-0.25</vert>
									</value>
								</parameter>
								<parameter authoringApp="PremierePro">
									<parameterid>centerOffset</parameterid>
									<name>Anchor Point</name>
									<value>
										<horiz>0</horiz>
										<vert>0</vert>
									</value>
								</parameter>
								<parameter authoringApp="PremierePro">
									<parameterid>antiflicker</parameterid>
									<name>Anti-flicker Filter</name>
									<valuemin>0.0</valuemin>
									<valuemax>1.0</valuemax>
									<value>0</value>
								</parameter>
							</effect>
						</filter>
						<filter>
							<effect>
								<name>Distort</name>
								<effectid>deformation</effectid>
								<effectcategory>motion</effectcategory>
								<effecttype>motion</effecttype>
								<mediatype>video</mediatype>
								<parameter authoringApp="PremierePro">
									<parameterid>aspect</parameterid>
									<name>Aspect</name>
									<valuemin>-10000</valuemin>
									<valuemax>10000</valuemax>
									<value>-100</value>
								</parameter>
							</effect>
						</filter>
						<filter>
							<effect>
								<name>Crop</name>
								<effectid>crop</effectid>
								<effectcategory>motion</effectcategory>
								<effecttype>motion</effecttype>
								<mediatype>video</mediatype>
								<pproBypass>false</pproBypass>
								<parameter authoringApp="PremierePro">
									<parameterid>left</parameterid>
									<name>left</name>
									<valuemin>0</valuemin>
									<valuemax>100</valuemax>
									<value>0</value>
								</parameter>
								<parameter authoringApp="PremierePro">
									<parameterid>right</parameterid>
									<name>right</name>
									<valuemin>0</valuemin>
									<valuemax>100</valuemax>
									<value>0</value>
								</parameter>
								<parameter authoringApp="PremierePro">
									<parameterid>top</parameterid>
									<name>top</name>
									<valuemin>0</valuemin>
									<valuemax>100</valuemax>
									<value>0</value>
								</parameter>
								<parameter authoringApp="PremierePro">
									<parameterid>bottom</parameterid>
									<name>bottom</name>
									<valuemin>0</valuemin>
									<valuemax>100</valuemax>
									<value>42</value>
								</parameter>
							</effect>
						</filter>
						<logginginfo>
							<description></description>
							<scene></scene>
							<shottake></shottake>
							<lognote></lognote>
							<good></good>
							<originalvideofilename></originalvideofilename>
							<originalaudiofilename></originalaudiofilename>
						</logginginfo>
						<colorinfo>
							<lut></lut>
							<lut1></lut1>
							<asc_sop></asc_sop>
							<asc_sat></asc_sat>
							<lut2></lut2>
						</colorinfo>
						<labels>
							<label2>Lavender</label2>
						</labels>
					</clipitem>
					<clipitem id="clipitem-509">
						<masterclipid>masterclip-75</masterclipid>
						<name>BLINK_TEST_24frames_ALT.mov</name>
						<enabled>TRUE</enabled>
						<duration>24</duration>
						<rate>
							<timebase>60</timebase>
							<ntsc>FALSE</ntsc>
						</rate>
						<start>29560</start>
						<end>29561</end>
						<in>12</in>
						<out>13</out>
						<pproTicksIn>50803200000</pproTicksIn>
						<pproTicksOut>55036800000</pproTicksOut>
						<alphatype>straight</alphatype>
						<file id="file-75"/>
						<logginginfo>
							<description></description>
							<scene></scene>
							<shottake></shottake>
							<lognote></lognote>
							<good></good>
							<originalvideofilename></originalvideofilename>
							<originalaudiofilename></originalaudiofilename>
						</logginginfo>
						<colorinfo>
							<lut></lut>
							<lut1></lut1>
							<asc_sop></asc_sop>
							<asc_sat></asc_sat>
							<lut2></lut2>
						</colorinfo>
						<labels>
							<label2>Lavender</label2>
						</labels>
					</clipitem>
					<clipitem id="clipitem-510">
						<masterclipid>masterclip-74</masterclipid>
						<name>BLINK_TEST_24frames.mov</name>
						<enabled>TRUE</enabled>
						<duration>24</duration>
						<rate>
							<timebase>60</timebase>
							<ntsc>FALSE</ntsc>
						</rate>
						<start>29561</start>
						<end>29562</end>
						<in>7</in>
						<out>8</out>
						<pproTicksIn>29635200000</pproTicksIn>
						<pproTicksOut>33868800000</pproTicksOut>
						<alphatype>straight</alphatype>
						<file id="file-74"/>
						<filter>
							<effect>
								<name>Basic Motion</name>
								<effectid>basic</effectid>
								<effectcategory>motion</effectcategory>
								<effecttype>motion</effecttype>
								<mediatype>video</mediatype>
								<pproBypass>false</pproBypass>
								<parameter authoringApp="PremierePro">
									<parameterid>scale</parameterid>
									<name>Scale</name>
									<valuemin>0</valuemin>
									<valuemax>1000</valuemax>
									<value>100</value>
								</parameter>
								<parameter authoringApp="PremierePro">
									<parameterid>rotation</parameterid>
									<name>Rotation</name>
									<valuemin>-8640</valuemin>
									<valuemax>8640</valuemax>
									<value>0</value>
								</parameter>
								<parameter authoringApp="PremierePro">
									<parameterid>center</parameterid>
									<name>Center</name>
									<value>
										<horiz>0</horiz>
										<vert>-0.25</vert>
									</value>
								</parameter>
								<parameter authoringApp="PremierePro">
									<parameterid>centerOffset</parameterid>
									<name>Anchor Point</name>
									<value>
										<horiz>0</horiz>
										<vert>0</vert>
									</value>
								</parameter>
								<parameter authoringApp="PremierePro">
									<parameterid>antiflicker</parameterid>
									<name>Anti-flicker Filter</name>
									<valuemin>0.0</valuemin>
									<valuemax>1.0</valuemax>
									<value>0</value>
								</parameter>
							</effect>
						</filter>
						<filter>
							<effect>
								<name>Distort</name>
								<effectid>deformation</effectid>
								<effectcategory>motion</effectcategory>
								<effecttype>motion</effecttype>
								<mediatype>video</mediatype>
								<parameter authoringApp="PremierePro">
									<parameterid>aspect</parameterid>
									<name>Aspect</name>
									<valuemin>-10000</valuemin>
									<valuemax>10000</valuemax>
									<value>-100</value>
								</parameter>
							</effect>
						</filter>
						<filter>
							<effect>
								<name>Crop</name>
								<effectid>crop</effectid>
								<effectcategory>motion</effectcategory>
								<effecttype>motion</effecttype>
								<mediatype>video</mediatype>
								<pproBypass>false</pproBypass>
								<parameter authoringApp="PremierePro">
									<parameterid>left</parameterid>
									<name>left</name>
									<valuemin>0</valuemin>
									<valuemax>100</valuemax>
									<value>0</value>
								</parameter>
								<parameter authoringApp="PremierePro">
									<parameterid>right</parameterid>
									<name>right</name>
									<valuemin>0</valuemin>
									<valuemax>100</valuemax>
									<value>0</value>
								</parameter>
								<parameter authoringApp="PremierePro">
									<parameterid>top</parameterid>
									<name>top</name>
									<valuemin>0</valuemin>
									<valuemax>100</valuemax>
									<value>0</value>
								</parameter>
								<parameter authoringApp="PremierePro">
									<parameterid>bottom</parameterid>
									<name>bottom</name>
									<valuemin>0</valuemin>
									<valuemax>100</valuemax>
									<value>42</value>
								</parameter>
							</effect>
						</filter>
						<logginginfo>
							<description></description>
							<scene></scene>
							<shottake></shottake>
							<lognote></lognote>
							<good></good>
							<originalvideofilename></originalvideofilename>
							<originalaudiofilename></originalaudiofilename>
						</logginginfo>
						<colorinfo>
							<lut></lut>
							<lut1></lut1>
							<asc_sop></asc_sop>
							<asc_sat></asc_sat>
							<lut2></lut2>
						</colorinfo>
						<labels>
							<label2>Lavender</label2>
						</labels>
					</clipitem>
					<clipitem id="clipitem-511">
						<masterclipid>masterclip-74</masterclipid>
						<name>BLINK_TEST_24frames.mov</name>
						<enabled>TRUE</enabled>
						<duration>24</duration>
						<rate>
							<timebase>60</timebase>
							<ntsc>FALSE</ntsc>
						</rate>
						<start>31823</start>
						<end>31824</end>
						<in>7</in>
						<out>8</out>
						<pproTicksIn>29635200000</pproTicksIn>
						<pproTicksOut>33868800000</pproTicksOut>
						<alphatype>straight</alphatype>
						<file id="file-74"/>
						<filter>
							<effect>
								<name>Basic Motion</name>
								<effectid>basic</effectid>
								<effectcategory>motion</effectcategory>
								<effecttype>motion</effecttype>
								<mediatype>video</mediatype>
								<pproBypass>false</pproBypass>
								<parameter authoringApp="PremierePro">
									<parameterid>scale</parameterid>
									<name>Scale</name>
									<valuemin>0</valuemin>
									<valuemax>1000</valuemax>
									<value>100</value>
								</parameter>
								<parameter authoringApp="PremierePro">
									<parameterid>rotation</parameterid>
									<name>Rotation</name>
									<valuemin>-8640</valuemin>
									<valuemax>8640</valuemax>
									<value>0</value>
								</parameter>
								<parameter authoringApp="PremierePro">
									<parameterid>center</parameterid>
									<name>Center</name>
									<value>
										<horiz>0</horiz>
										<vert>-0.25</vert>
									</value>
								</parameter>
								<parameter authoringApp="PremierePro">
									<parameterid>centerOffset</parameterid>
									<name>Anchor Point</name>
									<value>
										<horiz>0</horiz>
										<vert>0</vert>
									</value>
								</parameter>
								<parameter authoringApp="PremierePro">
									<parameterid>antiflicker</parameterid>
									<name>Anti-flicker Filter</name>
									<valuemin>0.0</valuemin>
									<valuemax>1.0</valuemax>
									<value>0</value>
								</parameter>
							</effect>
						</filter>
						<filter>
							<effect>
								<name>Distort</name>
								<effectid>deformation</effectid>
								<effectcategory>motion</effectcategory>
								<effecttype>motion</effecttype>
								<mediatype>video</mediatype>
								<parameter authoringApp="PremierePro">
									<parameterid>aspect</parameterid>
									<name>Aspect</name>
									<valuemin>-10000</valuemin>
									<valuemax>10000</valuemax>
									<value>-100</value>
								</parameter>
							</effect>
						</filter>
						<filter>
							<effect>
								<name>Crop</name>
								<effectid>crop</effectid>
								<effectcategory>motion</effectcategory>
								<effecttype>motion</effecttype>
								<mediatype>video</mediatype>
								<pproBypass>false</pproBypass>
								<parameter authoringApp="PremierePro">
									<parameterid>left</parameterid>
									<name>left</name>
									<valuemin>0</valuemin>
									<valuemax>100</valuemax>
									<value>0</value>
								</parameter>
								<parameter authoringApp="PremierePro">
									<parameterid>right</parameterid>
									<name>right</name>
									<valuemin>0</valuemin>
									<valuemax>100</valuemax>
									<value>0</value>
								</parameter>
								<parameter authoringApp="PremierePro">
									<parameterid>top</parameterid>
									<name>top</name>
									<valuemin>0</valuemin>
									<valuemax>100</valuemax>
									<value>0</value>
								</parameter>
								<parameter authoringApp="PremierePro">
									<parameterid>bottom</parameterid>
									<name>bottom</name>
									<valuemin>0</valuemin>
									<valuemax>100</valuemax>
									<value>42</value>
								</parameter>
							</effect>
						</filter>
						<logginginfo>
							<description></description>
							<scene></scene>
							<shottake></shottake>
							<lognote></lognote>
							<good></good>
							<originalvideofilename></originalvideofilename>
							<originalaudiofilename></originalaudiofilename>
						</logginginfo>
						<colorinfo>
							<lut></lut>
							<lut1></lut1>
							<asc_sop></asc_sop>
							<asc_sat></asc_sat>
							<lut2></lut2>
						</colorinfo>
						<labels>
							<label2>Lavender</label2>
						</labels>
					</clipitem>
					<clipitem id="clipitem-512">
						<masterclipid>masterclip-75</masterclipid>
						<name>BLINK_TEST_24frames_ALT.mov</name>
						<enabled>TRUE</enabled>
						<duration>24</duration>
						<rate>
							<timebase>60</timebase>
							<ntsc>FALSE</ntsc>
						</rate>
						<start>31824</start>
						<end>31825</end>
						<in>12</in>
						<out>13</out>
						<pproTicksIn>50803200000</pproTicksIn>
						<pproTicksOut>55036800000</pproTicksOut>
						<alphatype>straight</alphatype>
						<file id="file-75"/>
						<logginginfo>
							<description></description>
							<scene></scene>
							<shottake></shottake>
							<lognote></lognote>
							<good></good>
							<originalvideofilename></originalvideofilename>
							<originalaudiofilename></originalaudiofilename>
						</logginginfo>
						<colorinfo>
							<lut></lut>
							<lut1></lut1>
							<asc_sop></asc_sop>
							<asc_sat></asc_sat>
							<lut2></lut2>
						</colorinfo>
						<labels>
							<label2>Lavender</label2>
						</labels>
					</clipitem>
					<clipitem id="clipitem-513">
						<masterclipid>masterclip-74</masterclipid>
						<name>BLINK_TEST_24frames.mov</name>
						<enabled>TRUE</enabled>
						<duration>24</duration>
						<rate>
							<timebase>60</timebase>
							<ntsc>FALSE</ntsc>
						</rate>
						<start>31825</start>
						<end>31826</end>
						<in>7</in>
						<out>8</out>
						<pproTicksIn>29635200000</pproTicksIn>
						<pproTicksOut>33868800000</pproTicksOut>
						<alphatype>straight</alphatype>
						<file id="file-74"/>
						<filter>
							<effect>
								<name>Basic Motion</name>
								<effectid>basic</effectid>
								<effectcategory>motion</effectcategory>
								<effecttype>motion</effecttype>
								<mediatype>video</mediatype>
								<pproBypass>false</pproBypass>
								<parameter authoringApp="PremierePro">
									<parameterid>scale</parameterid>
									<name>Scale</name>
									<valuemin>0</valuemin>
									<valuemax>1000</valuemax>
									<value>100</value>
								</parameter>
								<parameter authoringApp="PremierePro">
									<parameterid>rotation</parameterid>
									<name>Rotation</name>
									<valuemin>-8640</valuemin>
									<valuemax>8640</valuemax>
									<value>0</value>
								</parameter>
								<parameter authoringApp="PremierePro">
									<parameterid>center</parameterid>
									<name>Center</name>
									<value>
										<horiz>0</horiz>
										<vert>-0.25</vert>
									</value>
								</parameter>
								<parameter authoringApp="PremierePro">
									<parameterid>centerOffset</parameterid>
									<name>Anchor Point</name>
									<value>
										<horiz>0</horiz>
										<vert>0</vert>
									</value>
								</parameter>
								<parameter authoringApp="PremierePro">
									<parameterid>antiflicker</parameterid>
									<name>Anti-flicker Filter</name>
									<valuemin>0.0</valuemin>
									<valuemax>1.0</valuemax>
									<value>0</value>
								</parameter>
							</effect>
						</filter>
						<filter>
							<effect>
								<name>Distort</name>
								<effectid>deformation</effectid>
								<effectcategory>motion</effectcategory>
								<effecttype>motion</effecttype>
								<mediatype>video</mediatype>
								<parameter authoringApp="PremierePro">
									<parameterid>aspect</parameterid>
									<name>Aspect</name>
									<valuemin>-10000</valuemin>
									<valuemax>10000</valuemax>
									<value>-100</value>
								</parameter>
							</effect>
						</filter>
						<filter>
							<effect>
								<name>Crop</name>
								<effectid>crop</effectid>
								<effectcategory>motion</effectcategory>
								<effecttype>motion</effecttype>
								<mediatype>video</mediatype>
								<pproBypass>false</pproBypass>
								<parameter authoringApp="PremierePro">
									<parameterid>left</parameterid>
									<name>left</name>
									<valuemin>0</valuemin>
									<valuemax>100</valuemax>
									<value>0</value>
								</parameter>
								<parameter authoringApp="PremierePro">
									<parameterid>right</parameterid>
									<name>right</name>
									<valuemin>0</valuemin>
									<valuemax>100</valuemax>
									<value>0</value>
								</parameter>
								<parameter authoringApp="PremierePro">
									<parameterid>top</parameterid>
									<name>top</name>
									<valuemin>0</valuemin>
									<valuemax>100</valuemax>
									<value>0</value>
								</parameter>
								<parameter authoringApp="PremierePro">
									<parameterid>bottom</parameterid>
									<name>bottom</name>
									<valuemin>0</valuemin>
									<valuemax>100</valuemax>
									<value>42</value>
								</parameter>
							</effect>
						</filter>
						<logginginfo>
							<description></description>
							<scene></scene>
							<shottake></shottake>
							<lognote></lognote>
							<good></good>
							<originalvideofilename></originalvideofilename>
							<originalaudiofilename></originalaudiofilename>
						</logginginfo>
						<colorinfo>
							<lut></lut>
							<lut1></lut1>
							<asc_sop></asc_sop>
							<asc_sat></asc_sat>
							<lut2></lut2>
						</colorinfo>
						<labels>
							<label2>Lavender</label2>
						</labels>
					</clipitem>
					<clipitem id="clipitem-514">
						<masterclipid>masterclip-74</masterclipid>
						<name>BLINK_TEST_24frames.mov</name>
						<enabled>TRUE</enabled>
						<duration>24</duration>
						<rate>
							<timebase>60</timebase>
							<ntsc>FALSE</ntsc>
						</rate>
						<start>38168</start>
						<end>38169</end>
						<in>7</in>
						<out>8</out>
						<pproTicksIn>29635200000</pproTicksIn>
						<pproTicksOut>33868800000</pproTicksOut>
						<alphatype>straight</alphatype>
						<file id="file-74"/>
						<filter>
							<effect>
								<name>Basic Motion</name>
								<effectid>basic</effectid>
								<effectcategory>motion</effectcategory>
								<effecttype>motion</effecttype>
								<mediatype>video</mediatype>
								<pproBypass>false</pproBypass>
								<parameter authoringApp="PremierePro">
									<parameterid>scale</parameterid>
									<name>Scale</name>
									<valuemin>0</valuemin>
									<valuemax>1000</valuemax>
									<value>100</value>
								</parameter>
								<parameter authoringApp="PremierePro">
									<parameterid>rotation</parameterid>
									<name>Rotation</name>
									<valuemin>-8640</valuemin>
									<valuemax>8640</valuemax>
									<value>0</value>
								</parameter>
								<parameter authoringApp="PremierePro">
									<parameterid>center</parameterid>
									<name>Center</name>
									<value>
										<horiz>0</horiz>
										<vert>-0.25</vert>
									</value>
								</parameter>
								<parameter authoringApp="PremierePro">
									<parameterid>centerOffset</parameterid>
									<name>Anchor Point</name>
									<value>
										<horiz>0</horiz>
										<vert>0</vert>
									</value>
								</parameter>
								<parameter authoringApp="PremierePro">
									<parameterid>antiflicker</parameterid>
									<name>Anti-flicker Filter</name>
									<valuemin>0.0</valuemin>
									<valuemax>1.0</valuemax>
									<value>0</value>
								</parameter>
							</effect>
						</filter>
						<filter>
							<effect>
								<name>Distort</name>
								<effectid>deformation</effectid>
								<effectcategory>motion</effectcategory>
								<effecttype>motion</effecttype>
								<mediatype>video</mediatype>
								<parameter authoringApp="PremierePro">
									<parameterid>aspect</parameterid>
									<name>Aspect</name>
									<valuemin>-10000</valuemin>
									<valuemax>10000</valuemax>
									<value>-100</value>
								</parameter>
							</effect>
						</filter>
						<filter>
							<effect>
								<name>Crop</name>
								<effectid>crop</effectid>
								<effectcategory>motion</effectcategory>
								<effecttype>motion</effecttype>
								<mediatype>video</mediatype>
								<pproBypass>false</pproBypass>
								<parameter authoringApp="PremierePro">
									<parameterid>left</parameterid>
									<name>left</name>
									<valuemin>0</valuemin>
									<valuemax>100</valuemax>
									<value>0</value>
								</parameter>
								<parameter authoringApp="PremierePro">
									<parameterid>right</parameterid>
									<name>right</name>
									<valuemin>0</valuemin>
									<valuemax>100</valuemax>
									<value>0</value>
								</parameter>
								<parameter authoringApp="PremierePro">
									<parameterid>top</parameterid>
									<name>top</name>
									<valuemin>0</valuemin>
									<valuemax>100</valuemax>
									<value>0</value>
								</parameter>
								<parameter authoringApp="PremierePro">
									<parameterid>bottom</parameterid>
									<name>bottom</name>
									<valuemin>0</valuemin>
									<valuemax>100</valuemax>
									<value>42</value>
								</parameter>
							</effect>
						</filter>
						<logginginfo>
							<description></description>
							<scene></scene>
							<shottake></shottake>
							<lognote></lognote>
							<good></good>
							<originalvideofilename></originalvideofilename>
							<originalaudiofilename></originalaudiofilename>
						</logginginfo>
						<colorinfo>
							<lut></lut>
							<lut1></lut1>
							<asc_sop></asc_sop>
							<asc_sat></asc_sat>
							<lut2></lut2>
						</colorinfo>
						<labels>
							<label2>Lavender</label2>
						</labels>
					</clipitem>
					<clipitem id="clipitem-515">
						<masterclipid>masterclip-75</masterclipid>
						<name>BLINK_TEST_24frames_ALT.mov</name>
						<enabled>TRUE</enabled>
						<duration>24</duration>
						<rate>
							<timebase>60</timebase>
							<ntsc>FALSE</ntsc>
						</rate>
						<start>38169</start>
						<end>38170</end>
						<in>12</in>
						<out>13</out>
						<pproTicksIn>50803200000</pproTicksIn>
						<pproTicksOut>55036800000</pproTicksOut>
						<alphatype>straight</alphatype>
						<file id="file-75"/>
						<logginginfo>
							<description></description>
							<scene></scene>
							<shottake></shottake>
							<lognote></lognote>
							<good></good>
							<originalvideofilename></originalvideofilename>
							<originalaudiofilename></originalaudiofilename>
						</logginginfo>
						<colorinfo>
							<lut></lut>
							<lut1></lut1>
							<asc_sop></asc_sop>
							<asc_sat></asc_sat>
							<lut2></lut2>
						</colorinfo>
						<labels>
							<label2>Lavender</label2>
						</labels>
					</clipitem>
					<clipitem id="clipitem-516">
						<masterclipid>masterclip-74</masterclipid>
						<name>BLINK_TEST_24frames.mov</name>
						<enabled>TRUE</enabled>
						<duration>24</duration>
						<rate>
							<timebase>60</timebase>
							<ntsc>FALSE</ntsc>
						</rate>
						<start>38170</start>
						<end>38171</end>
						<in>7</in>
						<out>8</out>
						<pproTicksIn>29635200000</pproTicksIn>
						<pproTicksOut>33868800000</pproTicksOut>
						<alphatype>straight</alphatype>
						<file id="file-74"/>
						<filter>
							<effect>
								<name>Basic Motion</name>
								<effectid>basic</effectid>
								<effectcategory>motion</effectcategory>
								<effecttype>motion</effecttype>
								<mediatype>video</mediatype>
								<pproBypass>false</pproBypass>
								<parameter authoringApp="PremierePro">
									<parameterid>scale</parameterid>
									<name>Scale</name>
									<valuemin>0</valuemin>
									<valuemax>1000</valuemax>
									<value>100</value>
								</parameter>
								<parameter authoringApp="PremierePro">
									<parameterid>rotation</parameterid>
									<name>Rotation</name>
									<valuemin>-8640</valuemin>
									<valuemax>8640</valuemax>
									<value>0</value>
								</parameter>
								<parameter authoringApp="PremierePro">
									<parameterid>center</parameterid>
									<name>Center</name>
									<value>
										<horiz>0</horiz>
										<vert>-0.25</vert>
									</value>
								</parameter>
								<parameter authoringApp="PremierePro">
									<parameterid>centerOffset</parameterid>
									<name>Anchor Point</name>
									<value>
										<horiz>0</horiz>
										<vert>0</vert>
									</value>
								</parameter>
								<parameter authoringApp="PremierePro">
									<parameterid>antiflicker</parameterid>
									<name>Anti-flicker Filter</name>
									<valuemin>0.0</valuemin>
									<valuemax>1.0</valuemax>
									<value>0</value>
								</parameter>
							</effect>
						</filter>
						<filter>
							<effect>
								<name>Distort</name>
								<effectid>deformation</effectid>
								<effectcategory>motion</effectcategory>
								<effecttype>motion</effecttype>
								<mediatype>video</mediatype>
								<parameter authoringApp="PremierePro">
									<parameterid>aspect</parameterid>
									<name>Aspect</name>
									<valuemin>-10000</valuemin>
									<valuemax>10000</valuemax>
									<value>-100</value>
								</parameter>
							</effect>
						</filter>
						<filter>
							<effect>
								<name>Crop</name>
								<effectid>crop</effectid>
								<effectcategory>motion</effectcategory>
								<effecttype>motion</effecttype>
								<mediatype>video</mediatype>
								<pproBypass>false</pproBypass>
								<parameter authoringApp="PremierePro">
									<parameterid>left</parameterid>
									<name>left</name>
									<valuemin>0</valuemin>
									<valuemax>100</valuemax>
									<value>0</value>
								</parameter>
								<parameter authoringApp="PremierePro">
									<parameterid>right</parameterid>
									<name>right</name>
									<valuemin>0</valuemin>
									<valuemax>100</valuemax>
									<value>0</value>
								</parameter>
								<parameter authoringApp="PremierePro">
									<parameterid>top</parameterid>
									<name>top</name>
									<valuemin>0</valuemin>
									<valuemax>100</valuemax>
									<value>0</value>
								</parameter>
								<parameter authoringApp="PremierePro">
									<parameterid>bottom</parameterid>
									<name>bottom</name>
									<valuemin>0</valuemin>
									<valuemax>100</valuemax>
									<value>42</value>
								</parameter>
							</effect>
						</filter>
						<logginginfo>
							<description></description>
							<scene></scene>
							<shottake></shottake>
							<lognote></lognote>
							<good></good>
							<originalvideofilename></originalvideofilename>
							<originalaudiofilename></originalaudiofilename>
						</logginginfo>
						<colorinfo>
							<lut></lut>
							<lut1></lut1>
							<asc_sop></asc_sop>
							<asc_sat></asc_sat>
							<lut2></lut2>
						</colorinfo>
						<labels>
							<label2>Lavender</label2>
						</labels>
					</clipitem>
					<clipitem id="clipitem-517">
						<masterclipid>masterclip-74</masterclipid>
						<name>BLINK_TEST_24frames.mov</name>
						<enabled>TRUE</enabled>
						<duration>24</duration>
						<rate>
							<timebase>60</timebase>
							<ntsc>FALSE</ntsc>
						</rate>
						<start>41735</start>
						<end>41736</end>
						<in>7</in>
						<out>8</out>
						<pproTicksIn>29635200000</pproTicksIn>
						<pproTicksOut>33868800000</pproTicksOut>
						<alphatype>straight</alphatype>
						<file id="file-74"/>
						<filter>
							<effect>
								<name>Basic Motion</name>
								<effectid>basic</effectid>
								<effectcategory>motion</effectcategory>
								<effecttype>motion</effecttype>
								<mediatype>video</mediatype>
								<pproBypass>false</pproBypass>
								<parameter authoringApp="PremierePro">
									<parameterid>scale</parameterid>
									<name>Scale</name>
									<valuemin>0</valuemin>
									<valuemax>1000</valuemax>
									<value>100</value>
								</parameter>
								<parameter authoringApp="PremierePro">
									<parameterid>rotation</parameterid>
									<name>Rotation</name>
									<valuemin>-8640</valuemin>
									<valuemax>8640</valuemax>
									<value>0</value>
								</parameter>
								<parameter authoringApp="PremierePro">
									<parameterid>center</parameterid>
									<name>Center</name>
									<value>
										<horiz>0</horiz>
										<vert>-0.25</vert>
									</value>
								</parameter>
								<parameter authoringApp="PremierePro">
									<parameterid>centerOffset</parameterid>
									<name>Anchor Point</name>
									<value>
										<horiz>0</horiz>
										<vert>0</vert>
									</value>
								</parameter>
								<parameter authoringApp="PremierePro">
									<parameterid>antiflicker</parameterid>
									<name>Anti-flicker Filter</name>
									<valuemin>0.0</valuemin>
									<valuemax>1.0</valuemax>
									<value>0</value>
								</parameter>
							</effect>
						</filter>
						<filter>
							<effect>
								<name>Distort</name>
								<effectid>deformation</effectid>
								<effectcategory>motion</effectcategory>
								<effecttype>motion</effecttype>
								<mediatype>video</mediatype>
								<parameter authoringApp="PremierePro">
									<parameterid>aspect</parameterid>
									<name>Aspect</name>
									<valuemin>-10000</valuemin>
									<valuemax>10000</valuemax>
									<value>-100</value>
								</parameter>
							</effect>
						</filter>
						<filter>
							<effect>
								<name>Crop</name>
								<effectid>crop</effectid>
								<effectcategory>motion</effectcategory>
								<effecttype>motion</effecttype>
								<mediatype>video</mediatype>
								<pproBypass>false</pproBypass>
								<parameter authoringApp="PremierePro">
									<parameterid>left</parameterid>
									<name>left</name>
									<valuemin>0</valuemin>
									<valuemax>100</valuemax>
									<value>0</value>
								</parameter>
								<parameter authoringApp="PremierePro">
									<parameterid>right</parameterid>
									<name>right</name>
									<valuemin>0</valuemin>
									<valuemax>100</valuemax>
									<value>0</value>
								</parameter>
								<parameter authoringApp="PremierePro">
									<parameterid>top</parameterid>
									<name>top</name>
									<valuemin>0</valuemin>
									<valuemax>100</valuemax>
									<value>0</value>
								</parameter>
								<parameter authoringApp="PremierePro">
									<parameterid>bottom</parameterid>
									<name>bottom</name>
									<valuemin>0</valuemin>
									<valuemax>100</valuemax>
									<value>42</value>
								</parameter>
							</effect>
						</filter>
						<logginginfo>
							<description></description>
							<scene></scene>
							<shottake></shottake>
							<lognote></lognote>
							<good></good>
							<originalvideofilename></originalvideofilename>
							<originalaudiofilename></originalaudiofilename>
						</logginginfo>
						<colorinfo>
							<lut></lut>
							<lut1></lut1>
							<asc_sop></asc_sop>
							<asc_sat></asc_sat>
							<lut2></lut2>
						</colorinfo>
						<labels>
							<label2>Lavender</label2>
						</labels>
					</clipitem>
					<clipitem id="clipitem-518">
						<masterclipid>masterclip-75</masterclipid>
						<name>BLINK_TEST_24frames_ALT.mov</name>
						<enabled>TRUE</enabled>
						<duration>24</duration>
						<rate>
							<timebase>60</timebase>
							<ntsc>FALSE</ntsc>
						</rate>
						<start>41736</start>
						<end>41737</end>
						<in>12</in>
						<out>13</out>
						<pproTicksIn>50803200000</pproTicksIn>
						<pproTicksOut>55036800000</pproTicksOut>
						<alphatype>straight</alphatype>
						<file id="file-75"/>
						<logginginfo>
							<description></description>
							<scene></scene>
							<shottake></shottake>
							<lognote></lognote>
							<good></good>
							<originalvideofilename></originalvideofilename>
							<originalaudiofilename></originalaudiofilename>
						</logginginfo>
						<colorinfo>
							<lut></lut>
							<lut1></lut1>
							<asc_sop></asc_sop>
							<asc_sat></asc_sat>
							<lut2></lut2>
						</colorinfo>
						<labels>
							<label2>Lavender</label2>
						</labels>
					</clipitem>
					<clipitem id="clipitem-519">
						<masterclipid>masterclip-74</masterclipid>
						<name>BLINK_TEST_24frames.mov</name>
						<enabled>TRUE</enabled>
						<duration>24</duration>
						<rate>
							<timebase>60</timebase>
							<ntsc>FALSE</ntsc>
						</rate>
						<start>41737</start>
						<end>41738</end>
						<in>7</in>
						<out>8</out>
						<pproTicksIn>29635200000</pproTicksIn>
						<pproTicksOut>33868800000</pproTicksOut>
						<alphatype>straight</alphatype>
						<file id="file-74"/>
						<filter>
							<effect>
								<name>Basic Motion</name>
								<effectid>basic</effectid>
								<effectcategory>motion</effectcategory>
								<effecttype>motion</effecttype>
								<mediatype>video</mediatype>
								<pproBypass>false</pproBypass>
								<parameter authoringApp="PremierePro">
									<parameterid>scale</parameterid>
									<name>Scale</name>
									<valuemin>0</valuemin>
									<valuemax>1000</valuemax>
									<value>100</value>
								</parameter>
								<parameter authoringApp="PremierePro">
									<parameterid>rotation</parameterid>
									<name>Rotation</name>
									<valuemin>-8640</valuemin>
									<valuemax>8640</valuemax>
									<value>0</value>
								</parameter>
								<parameter authoringApp="PremierePro">
									<parameterid>center</parameterid>
									<name>Center</name>
									<value>
										<horiz>0</horiz>
										<vert>-0.25</vert>
									</value>
								</parameter>
								<parameter authoringApp="PremierePro">
									<parameterid>centerOffset</parameterid>
									<name>Anchor Point</name>
									<value>
										<horiz>0</horiz>
										<vert>0</vert>
									</value>
								</parameter>
								<parameter authoringApp="PremierePro">
									<parameterid>antiflicker</parameterid>
									<name>Anti-flicker Filter</name>
									<valuemin>0.0</valuemin>
									<valuemax>1.0</valuemax>
									<value>0</value>
								</parameter>
							</effect>
						</filter>
						<filter>
							<effect>
								<name>Distort</name>
								<effectid>deformation</effectid>
								<effectcategory>motion</effectcategory>
								<effecttype>motion</effecttype>
								<mediatype>video</mediatype>
								<parameter authoringApp="PremierePro">
									<parameterid>aspect</parameterid>
									<name>Aspect</name>
									<valuemin>-10000</valuemin>
									<valuemax>10000</valuemax>
									<value>-100</value>
								</parameter>
							</effect>
						</filter>
						<filter>
							<effect>
								<name>Crop</name>
								<effectid>crop</effectid>
								<effectcategory>motion</effectcategory>
								<effecttype>motion</effecttype>
								<mediatype>video</mediatype>
								<pproBypass>false</pproBypass>
								<parameter authoringApp="PremierePro">
									<parameterid>left</parameterid>
									<name>left</name>
									<valuemin>0</valuemin>
									<valuemax>100</valuemax>
									<value>0</value>
								</parameter>
								<parameter authoringApp="PremierePro">
									<parameterid>right</parameterid>
									<name>right</name>
									<valuemin>0</valuemin>
									<valuemax>100</valuemax>
									<value>0</value>
								</parameter>
								<parameter authoringApp="PremierePro">
									<parameterid>top</parameterid>
									<name>top</name>
									<valuemin>0</valuemin>
									<valuemax>100</valuemax>
									<value>0</value>
								</parameter>
								<parameter authoringApp="PremierePro">
									<parameterid>bottom</parameterid>
									<name>bottom</name>
									<valuemin>0</valuemin>
									<valuemax>100</valuemax>
									<value>42</value>
								</parameter>
							</effect>
						</filter>
						<logginginfo>
							<description></description>
							<scene></scene>
							<shottake></shottake>
							<lognote></lognote>
							<good></good>
							<originalvideofilename></originalvideofilename>
							<originalaudiofilename></originalaudiofilename>
						</logginginfo>
						<colorinfo>
							<lut></lut>
							<lut1></lut1>
							<asc_sop></asc_sop>
							<asc_sat></asc_sat>
							<lut2></lut2>
						</colorinfo>
						<labels>
							<label2>Lavender</label2>
						</labels>
					</clipitem>
					<clipitem id="clipitem-520">
						<masterclipid>masterclip-74</masterclipid>
						<name>BLINK_TEST_24frames.mov</name>
						<enabled>TRUE</enabled>
						<duration>24</duration>
						<rate>
							<timebase>60</timebase>
							<ntsc>FALSE</ntsc>
						</rate>
						<start>45257</start>
						<end>45258</end>
						<in>7</in>
						<out>8</out>
						<pproTicksIn>29635200000</pproTicksIn>
						<pproTicksOut>33868800000</pproTicksOut>
						<alphatype>straight</alphatype>
						<file id="file-74"/>
						<filter>
							<effect>
								<name>Basic Motion</name>
								<effectid>basic</effectid>
								<effectcategory>motion</effectcategory>
								<effecttype>motion</effecttype>
								<mediatype>video</mediatype>
								<pproBypass>false</pproBypass>
								<parameter authoringApp="PremierePro">
									<parameterid>scale</parameterid>
									<name>Scale</name>
									<valuemin>0</valuemin>
									<valuemax>1000</valuemax>
									<value>100</value>
								</parameter>
								<parameter authoringApp="PremierePro">
									<parameterid>rotation</parameterid>
									<name>Rotation</name>
									<valuemin>-8640</valuemin>
									<valuemax>8640</valuemax>
									<value>0</value>
								</parameter>
								<parameter authoringApp="PremierePro">
									<parameterid>center</parameterid>
									<name>Center</name>
									<value>
										<horiz>0</horiz>
										<vert>-0.25</vert>
									</value>
								</parameter>
								<parameter authoringApp="PremierePro">
									<parameterid>centerOffset</parameterid>
									<name>Anchor Point</name>
									<value>
										<horiz>0</horiz>
										<vert>0</vert>
									</value>
								</parameter>
								<parameter authoringApp="PremierePro">
									<parameterid>antiflicker</parameterid>
									<name>Anti-flicker Filter</name>
									<valuemin>0.0</valuemin>
									<valuemax>1.0</valuemax>
									<value>0</value>
								</parameter>
							</effect>
						</filter>
						<filter>
							<effect>
								<name>Distort</name>
								<effectid>deformation</effectid>
								<effectcategory>motion</effectcategory>
								<effecttype>motion</effecttype>
								<mediatype>video</mediatype>
								<parameter authoringApp="PremierePro">
									<parameterid>aspect</parameterid>
									<name>Aspect</name>
									<valuemin>-10000</valuemin>
									<valuemax>10000</valuemax>
									<value>-100</value>
								</parameter>
							</effect>
						</filter>
						<filter>
							<effect>
								<name>Crop</name>
								<effectid>crop</effectid>
								<effectcategory>motion</effectcategory>
								<effecttype>motion</effecttype>
								<mediatype>video</mediatype>
								<pproBypass>false</pproBypass>
								<parameter authoringApp="PremierePro">
									<parameterid>left</parameterid>
									<name>left</name>
									<valuemin>0</valuemin>
									<valuemax>100</valuemax>
									<value>0</value>
								</parameter>
								<parameter authoringApp="PremierePro">
									<parameterid>right</parameterid>
									<name>right</name>
									<valuemin>0</valuemin>
									<valuemax>100</valuemax>
									<value>0</value>
								</parameter>
								<parameter authoringApp="PremierePro">
									<parameterid>top</parameterid>
									<name>top</name>
									<valuemin>0</valuemin>
									<valuemax>100</valuemax>
									<value>0</value>
								</parameter>
								<parameter authoringApp="PremierePro">
									<parameterid>bottom</parameterid>
									<name>bottom</name>
									<valuemin>0</valuemin>
									<valuemax>100</valuemax>
									<value>42</value>
								</parameter>
							</effect>
						</filter>
						<logginginfo>
							<description></description>
							<scene></scene>
							<shottake></shottake>
							<lognote></lognote>
							<good></good>
							<originalvideofilename></originalvideofilename>
							<originalaudiofilename></originalaudiofilename>
						</logginginfo>
						<colorinfo>
							<lut></lut>
							<lut1></lut1>
							<asc_sop></asc_sop>
							<asc_sat></asc_sat>
							<lut2></lut2>
						</colorinfo>
						<labels>
							<label2>Lavender</label2>
						</labels>
					</clipitem>
					<clipitem id="clipitem-521">
						<masterclipid>masterclip-75</masterclipid>
						<name>BLINK_TEST_24frames_ALT.mov</name>
						<enabled>TRUE</enabled>
						<duration>24</duration>
						<rate>
							<timebase>60</timebase>
							<ntsc>FALSE</ntsc>
						</rate>
						<start>45258</start>
						<end>45259</end>
						<in>12</in>
						<out>13</out>
						<pproTicksIn>50803200000</pproTicksIn>
						<pproTicksOut>55036800000</pproTicksOut>
						<alphatype>straight</alphatype>
						<file id="file-75"/>
						<logginginfo>
							<description></description>
							<scene></scene>
							<shottake></shottake>
							<lognote></lognote>
							<good></good>
							<originalvideofilename></originalvideofilename>
							<originalaudiofilename></originalaudiofilename>
						</logginginfo>
						<colorinfo>
							<lut></lut>
							<lut1></lut1>
							<asc_sop></asc_sop>
							<asc_sat></asc_sat>
							<lut2></lut2>
						</colorinfo>
						<labels>
							<label2>Lavender</label2>
						</labels>
					</clipitem>
					<clipitem id="clipitem-522">
						<masterclipid>masterclip-74</masterclipid>
						<name>BLINK_TEST_24frames.mov</name>
						<enabled>TRUE</enabled>
						<duration>24</duration>
						<rate>
							<timebase>60</timebase>
							<ntsc>FALSE</ntsc>
						</rate>
						<start>45259</start>
						<end>45260</end>
						<in>7</in>
						<out>8</out>
						<pproTicksIn>29635200000</pproTicksIn>
						<pproTicksOut>33868800000</pproTicksOut>
						<alphatype>straight</alphatype>
						<file id="file-74"/>
						<filter>
							<effect>
								<name>Basic Motion</name>
								<effectid>basic</effectid>
								<effectcategory>motion</effectcategory>
								<effecttype>motion</effecttype>
								<mediatype>video</mediatype>
								<pproBypass>false</pproBypass>
								<parameter authoringApp="PremierePro">
									<parameterid>scale</parameterid>
									<name>Scale</name>
									<valuemin>0</valuemin>
									<valuemax>1000</valuemax>
									<value>100</value>
								</parameter>
								<parameter authoringApp="PremierePro">
									<parameterid>rotation</parameterid>
									<name>Rotation</name>
									<valuemin>-8640</valuemin>
									<valuemax>8640</valuemax>
									<value>0</value>
								</parameter>
								<parameter authoringApp="PremierePro">
									<parameterid>center</parameterid>
									<name>Center</name>
									<value>
										<horiz>0</horiz>
										<vert>-0.25</vert>
									</value>
								</parameter>
								<parameter authoringApp="PremierePro">
									<parameterid>centerOffset</parameterid>
									<name>Anchor Point</name>
									<value>
										<horiz>0</horiz>
										<vert>0</vert>
									</value>
								</parameter>
								<parameter authoringApp="PremierePro">
									<parameterid>antiflicker</parameterid>
									<name>Anti-flicker Filter</name>
									<valuemin>0.0</valuemin>
									<valuemax>1.0</valuemax>
									<value>0</value>
								</parameter>
							</effect>
						</filter>
						<filter>
							<effect>
								<name>Distort</name>
								<effectid>deformation</effectid>
								<effectcategory>motion</effectcategory>
								<effecttype>motion</effecttype>
								<mediatype>video</mediatype>
								<parameter authoringApp="PremierePro">
									<parameterid>aspect</parameterid>
									<name>Aspect</name>
									<valuemin>-10000</valuemin>
									<valuemax>10000</valuemax>
									<value>-100</value>
								</parameter>
							</effect>
						</filter>
						<filter>
							<effect>
								<name>Crop</name>
								<effectid>crop</effectid>
								<effectcategory>motion</effectcategory>
								<effecttype>motion</effecttype>
								<mediatype>video</mediatype>
								<pproBypass>false</pproBypass>
								<parameter authoringApp="PremierePro">
									<parameterid>left</parameterid>
									<name>left</name>
									<valuemin>0</valuemin>
									<valuemax>100</valuemax>
									<value>0</value>
								</parameter>
								<parameter authoringApp="PremierePro">
									<parameterid>right</parameterid>
									<name>right</name>
									<valuemin>0</valuemin>
									<valuemax>100</valuemax>
									<value>0</value>
								</parameter>
								<parameter authoringApp="PremierePro">
									<parameterid>top</parameterid>
									<name>top</name>
									<valuemin>0</valuemin>
									<valuemax>100</valuemax>
									<value>0</value>
								</parameter>
								<parameter authoringApp="PremierePro">
									<parameterid>bottom</parameterid>
									<name>bottom</name>
									<valuemin>0</valuemin>
									<valuemax>100</valuemax>
									<value>42</value>
								</parameter>
							</effect>
						</filter>
						<logginginfo>
							<description></description>
							<scene></scene>
							<shottake></shottake>
							<lognote></lognote>
							<good></good>
							<originalvideofilename></originalvideofilename>
							<originalaudiofilename></originalaudiofilename>
						</logginginfo>
						<colorinfo>
							<lut></lut>
							<lut1></lut1>
							<asc_sop></asc_sop>
							<asc_sat></asc_sat>
							<lut2></lut2>
						</colorinfo>
						<labels>
							<label2>Lavender</label2>
						</labels>
					</clipitem>
					<clipitem id="clipitem-523">
						<masterclipid>masterclip-77</masterclipid>
						<name>04_root/CMP2_graphics.aep</name>
						<enabled>TRUE</enabled>
						<duration>411</duration>
						<rate>
							<timebase>60</timebase>
							<ntsc>FALSE</ntsc>
						</rate>
						<start>47170</start>
						<end>47581</end>
						<in>0</in>
						<out>411</out>
						<pproTicksIn>0</pproTicksIn>
						<pproTicksOut>1740009600000</pproTicksOut>
						<alphatype>straight</alphatype>
						<pixelaspectratio>square</pixelaspectratio>
						<anamorphic>FALSE</anamorphic>
						<file id="file-77">
							<name>04_root/CMP2_graphics.aep</name>
							<pathurl>file://localhost/G%3a/Departments/_Post/__Projects/035_Chimps_Part_2/4.Graphics/CMP2_graphics.aep</pathurl>
							<rate>
								<timebase>60</timebase>
								<ntsc>FALSE</ntsc>
							</rate>
							<duration>411</duration>
							<timecode>
								<rate>
									<timebase>60</timebase>
									<ntsc>FALSE</ntsc>
								</rate>
								<string>00:00:00:00</string>
								<frame>0</frame>
								<displayformat>NDF</displayformat>
							</timecode>
							<media>
								<video>
									<samplecharacteristics>
										<rate>
											<timebase>60</timebase>
											<ntsc>FALSE</ntsc>
										</rate>
										<width>3840</width>
										<height>3840</height>
										<anamorphic>FALSE</anamorphic>
										<pixelaspectratio>square</pixelaspectratio>
										<fielddominance>lower</fielddominance>
									</samplecharacteristics>
								</video>
								<audio>
									<samplecharacteristics>
										<depth>16</depth>
										<samplerate>48000</samplerate>
									</samplecharacteristics>
									<channelcount>2</channelcount>
								</audio>
							</media>
						</file>
						<link>
							<linkclipref>clipitem-523</linkclipref>
							<mediatype>video</mediatype>
							<trackindex>3</trackindex>
							<clipindex>28</clipindex>
						</link>
						<link>
							<linkclipref>clipitem-632</linkclipref>
							<mediatype>audio</mediatype>
							<trackindex>11</trackindex>
							<clipindex>17</clipindex>
							<groupindex>1</groupindex>
						</link>
						<link>
							<linkclipref>clipitem-646</linkclipref>
							<mediatype>audio</mediatype>
							<trackindex>12</trackindex>
							<clipindex>17</clipindex>
							<groupindex>1</groupindex>
						</link>
						<logginginfo>
							<description></description>
							<scene></scene>
							<shottake></shottake>
							<lognote></lognote>
							<good></good>
							<originalvideofilename></originalvideofilename>
							<originalaudiofilename></originalaudiofilename>
						</logginginfo>
						<colorinfo>
							<lut></lut>
							<lut1></lut1>
							<asc_sop></asc_sop>
							<asc_sat></asc_sat>
							<lut2></lut2>
						</colorinfo>
						<labels>
							<label2>Green</label2>
						</labels>
					</clipitem>
					<clipitem id="clipitem-524">
						<masterclipid>masterclip-78</masterclipid>
						<name>05_root/CMP2_graphics.aep</name>
						<enabled>TRUE</enabled>
						<duration>415</duration>
						<rate>
							<timebase>60</timebase>
							<ntsc>FALSE</ntsc>
						</rate>
						<start>55523</start>
						<end>55938</end>
						<in>0</in>
						<out>415</out>
						<pproTicksIn>0</pproTicksIn>
						<pproTicksOut>1756944000000</pproTicksOut>
						<alphatype>straight</alphatype>
						<pixelaspectratio>square</pixelaspectratio>
						<anamorphic>FALSE</anamorphic>
						<file id="file-78">
							<name>05_root/CMP2_graphics.aep</name>
							<pathurl>file://localhost/G%3a/Departments/_Post/__Projects/035_Chimps_Part_2/4.Graphics/CMP2_graphics.aep</pathurl>
							<rate>
								<timebase>60</timebase>
								<ntsc>FALSE</ntsc>
							</rate>
							<duration>415</duration>
							<timecode>
								<rate>
									<timebase>60</timebase>
									<ntsc>FALSE</ntsc>
								</rate>
								<string>00:00:00:00</string>
								<frame>0</frame>
								<displayformat>NDF</displayformat>
							</timecode>
							<media>
								<video>
									<samplecharacteristics>
										<rate>
											<timebase>60</timebase>
											<ntsc>FALSE</ntsc>
										</rate>
										<width>3840</width>
										<height>3840</height>
										<anamorphic>FALSE</anamorphic>
										<pixelaspectratio>square</pixelaspectratio>
										<fielddominance>lower</fielddominance>
									</samplecharacteristics>
								</video>
							</media>
						</file>
						<logginginfo>
							<description></description>
							<scene></scene>
							<shottake></shottake>
							<lognote></lognote>
							<good></good>
							<originalvideofilename></originalvideofilename>
							<originalaudiofilename></originalaudiofilename>
						</logginginfo>
						<colorinfo>
							<lut></lut>
							<lut1></lut1>
							<asc_sop></asc_sop>
							<asc_sat></asc_sat>
							<lut2></lut2>
						</colorinfo>
						<labels>
							<label2>Green</label2>
						</labels>
					</clipitem>
					<clipitem id="clipitem-525">
						<masterclipid>masterclip-74</masterclipid>
						<name>BLINK_TEST_24frames.mov</name>
						<enabled>TRUE</enabled>
						<duration>24</duration>
						<rate>
							<timebase>60</timebase>
							<ntsc>FALSE</ntsc>
						</rate>
						<start>58578</start>
						<end>58579</end>
						<in>7</in>
						<out>8</out>
						<pproTicksIn>29635200000</pproTicksIn>
						<pproTicksOut>33868800000</pproTicksOut>
						<alphatype>straight</alphatype>
						<file id="file-74"/>
						<filter>
							<effect>
								<name>Basic Motion</name>
								<effectid>basic</effectid>
								<effectcategory>motion</effectcategory>
								<effecttype>motion</effecttype>
								<mediatype>video</mediatype>
								<pproBypass>false</pproBypass>
								<parameter authoringApp="PremierePro">
									<parameterid>scale</parameterid>
									<name>Scale</name>
									<valuemin>0</valuemin>
									<valuemax>1000</valuemax>
									<value>100</value>
								</parameter>
								<parameter authoringApp="PremierePro">
									<parameterid>rotation</parameterid>
									<name>Rotation</name>
									<valuemin>-8640</valuemin>
									<valuemax>8640</valuemax>
									<value>0</value>
								</parameter>
								<parameter authoringApp="PremierePro">
									<parameterid>center</parameterid>
									<name>Center</name>
									<value>
										<horiz>0</horiz>
										<vert>0.25</vert>
									</value>
								</parameter>
								<parameter authoringApp="PremierePro">
									<parameterid>centerOffset</parameterid>
									<name>Anchor Point</name>
									<value>
										<horiz>0</horiz>
										<vert>0</vert>
									</value>
								</parameter>
								<parameter authoringApp="PremierePro">
									<parameterid>antiflicker</parameterid>
									<name>Anti-flicker Filter</name>
									<valuemin>0.0</valuemin>
									<valuemax>1.0</valuemax>
									<value>0</value>
								</parameter>
							</effect>
						</filter>
						<filter>
							<effect>
								<name>Distort</name>
								<effectid>deformation</effectid>
								<effectcategory>motion</effectcategory>
								<effecttype>motion</effecttype>
								<mediatype>video</mediatype>
								<parameter authoringApp="PremierePro">
									<parameterid>aspect</parameterid>
									<name>Aspect</name>
									<valuemin>-10000</valuemin>
									<valuemax>10000</valuemax>
									<value>-100</value>
								</parameter>
							</effect>
						</filter>
						<filter>
							<effect>
								<name>Crop</name>
								<effectid>crop</effectid>
								<effectcategory>motion</effectcategory>
								<effecttype>motion</effecttype>
								<mediatype>video</mediatype>
								<pproBypass>false</pproBypass>
								<parameter authoringApp="PremierePro">
									<parameterid>left</parameterid>
									<name>left</name>
									<valuemin>0</valuemin>
									<valuemax>100</valuemax>
									<value>0</value>
								</parameter>
								<parameter authoringApp="PremierePro">
									<parameterid>right</parameterid>
									<name>right</name>
									<valuemin>0</valuemin>
									<valuemax>100</valuemax>
									<value>0</value>
								</parameter>
								<parameter authoringApp="PremierePro">
									<parameterid>top</parameterid>
									<name>top</name>
									<valuemin>0</valuemin>
									<valuemax>100</valuemax>
									<value>0</value>
								</parameter>
								<parameter authoringApp="PremierePro">
									<parameterid>bottom</parameterid>
									<name>bottom</name>
									<valuemin>0</valuemin>
									<valuemax>100</valuemax>
									<value>42</value>
								</parameter>
							</effect>
						</filter>
						<logginginfo>
							<description></description>
							<scene></scene>
							<shottake></shottake>
							<lognote></lognote>
							<good></good>
							<originalvideofilename></originalvideofilename>
							<originalaudiofilename></originalaudiofilename>
						</logginginfo>
						<colorinfo>
							<lut></lut>
							<lut1></lut1>
							<asc_sop></asc_sop>
							<asc_sat></asc_sat>
							<lut2></lut2>
						</colorinfo>
						<labels>
							<label2>Lavender</label2>
						</labels>
					</clipitem>
					<clipitem id="clipitem-526">
						<masterclipid>masterclip-75</masterclipid>
						<name>BLINK_TEST_24frames_ALT.mov</name>
						<enabled>TRUE</enabled>
						<duration>24</duration>
						<rate>
							<timebase>60</timebase>
							<ntsc>FALSE</ntsc>
						</rate>
						<start>58579</start>
						<end>58580</end>
						<in>12</in>
						<out>13</out>
						<pproTicksIn>50803200000</pproTicksIn>
						<pproTicksOut>55036800000</pproTicksOut>
						<alphatype>straight</alphatype>
						<file id="file-75"/>
						<logginginfo>
							<description></description>
							<scene></scene>
							<shottake></shottake>
							<lognote></lognote>
							<good></good>
							<originalvideofilename></originalvideofilename>
							<originalaudiofilename></originalaudiofilename>
						</logginginfo>
						<colorinfo>
							<lut></lut>
							<lut1></lut1>
							<asc_sop></asc_sop>
							<asc_sat></asc_sat>
							<lut2></lut2>
						</colorinfo>
						<labels>
							<label2>Lavender</label2>
						</labels>
					</clipitem>
					<clipitem id="clipitem-527">
						<masterclipid>masterclip-74</masterclipid>
						<name>BLINK_TEST_24frames.mov</name>
						<enabled>TRUE</enabled>
						<duration>24</duration>
						<rate>
							<timebase>60</timebase>
							<ntsc>FALSE</ntsc>
						</rate>
						<start>58580</start>
						<end>58581</end>
						<in>7</in>
						<out>8</out>
						<pproTicksIn>29635200000</pproTicksIn>
						<pproTicksOut>33868800000</pproTicksOut>
						<alphatype>straight</alphatype>
						<file id="file-74"/>
						<filter>
							<effect>
								<name>Basic Motion</name>
								<effectid>basic</effectid>
								<effectcategory>motion</effectcategory>
								<effecttype>motion</effecttype>
								<mediatype>video</mediatype>
								<pproBypass>false</pproBypass>
								<parameter authoringApp="PremierePro">
									<parameterid>scale</parameterid>
									<name>Scale</name>
									<valuemin>0</valuemin>
									<valuemax>1000</valuemax>
									<value>100</value>
								</parameter>
								<parameter authoringApp="PremierePro">
									<parameterid>rotation</parameterid>
									<name>Rotation</name>
									<valuemin>-8640</valuemin>
									<valuemax>8640</valuemax>
									<value>0</value>
								</parameter>
								<parameter authoringApp="PremierePro">
									<parameterid>center</parameterid>
									<name>Center</name>
									<value>
										<horiz>0</horiz>
										<vert>0.25</vert>
									</value>
								</parameter>
								<parameter authoringApp="PremierePro">
									<parameterid>centerOffset</parameterid>
									<name>Anchor Point</name>
									<value>
										<horiz>0</horiz>
										<vert>0</vert>
									</value>
								</parameter>
								<parameter authoringApp="PremierePro">
									<parameterid>antiflicker</parameterid>
									<name>Anti-flicker Filter</name>
									<valuemin>0.0</valuemin>
									<valuemax>1.0</valuemax>
									<value>0</value>
								</parameter>
							</effect>
						</filter>
						<filter>
							<effect>
								<name>Distort</name>
								<effectid>deformation</effectid>
								<effectcategory>motion</effectcategory>
								<effecttype>motion</effecttype>
								<mediatype>video</mediatype>
								<parameter authoringApp="PremierePro">
									<parameterid>aspect</parameterid>
									<name>Aspect</name>
									<valuemin>-10000</valuemin>
									<valuemax>10000</valuemax>
									<value>-100</value>
								</parameter>
							</effect>
						</filter>
						<filter>
							<effect>
								<name>Crop</name>
								<effectid>crop</effectid>
								<effectcategory>motion</effectcategory>
								<effecttype>motion</effecttype>
								<mediatype>video</mediatype>
								<pproBypass>false</pproBypass>
								<parameter authoringApp="PremierePro">
									<parameterid>left</parameterid>
									<name>left</name>
									<valuemin>0</valuemin>
									<valuemax>100</valuemax>
									<value>0</value>
								</parameter>
								<parameter authoringApp="PremierePro">
									<parameterid>right</parameterid>
									<name>right</name>
									<valuemin>0</valuemin>
									<valuemax>100</valuemax>
									<value>0</value>
								</parameter>
								<parameter authoringApp="PremierePro">
									<parameterid>top</parameterid>
									<name>top</name>
									<valuemin>0</valuemin>
									<valuemax>100</valuemax>
									<value>0</value>
								</parameter>
								<parameter authoringApp="PremierePro">
									<parameterid>bottom</parameterid>
									<name>bottom</name>
									<valuemin>0</valuemin>
									<valuemax>100</valuemax>
									<value>42</value>
								</parameter>
							</effect>
						</filter>
						<logginginfo>
							<description></description>
							<scene></scene>
							<shottake></shottake>
							<lognote></lognote>
							<good></good>
							<originalvideofilename></originalvideofilename>
							<originalaudiofilename></originalaudiofilename>
						</logginginfo>
						<colorinfo>
							<lut></lut>
							<lut1></lut1>
							<asc_sop></asc_sop>
							<asc_sat></asc_sat>
							<lut2></lut2>
						</colorinfo>
						<labels>
							<label2>Lavender</label2>
						</labels>
					</clipitem>
					<enabled>TRUE</enabled>
					<locked>FALSE</locked>
				</track>
				<track TL.SQTrackShy="0" TL.SQTrackExpandedHeight="66" TL.SQTrackExpanded="0" MZ.TrackTargeted="1">
					<clipitem id="clipitem-528">
						<masterclipid>masterclip-74</masterclipid>
						<name>BLINK_TEST_24frames.mov</name>
						<enabled>TRUE</enabled>
						<duration>24</duration>
						<rate>
							<timebase>60</timebase>
							<ntsc>FALSE</ntsc>
						</rate>
						<start>55521</start>
						<end>55522</end>
						<in>7</in>
						<out>8</out>
						<pproTicksIn>29635200000</pproTicksIn>
						<pproTicksOut>33868800000</pproTicksOut>
						<alphatype>straight</alphatype>
						<file id="file-74"/>
						<filter>
							<effect>
								<name>Basic Motion</name>
								<effectid>basic</effectid>
								<effectcategory>motion</effectcategory>
								<effecttype>motion</effecttype>
								<mediatype>video</mediatype>
								<pproBypass>false</pproBypass>
								<parameter authoringApp="PremierePro">
									<parameterid>scale</parameterid>
									<name>Scale</name>
									<valuemin>0</valuemin>
									<valuemax>1000</valuemax>
									<value>100</value>
								</parameter>
								<parameter authoringApp="PremierePro">
									<parameterid>rotation</parameterid>
									<name>Rotation</name>
									<valuemin>-8640</valuemin>
									<valuemax>8640</valuemax>
									<value>0</value>
								</parameter>
								<parameter authoringApp="PremierePro">
									<parameterid>center</parameterid>
									<name>Center</name>
									<value>
										<horiz>0</horiz>
										<vert>0.25</vert>
									</value>
								</parameter>
								<parameter authoringApp="PremierePro">
									<parameterid>centerOffset</parameterid>
									<name>Anchor Point</name>
									<value>
										<horiz>0</horiz>
										<vert>0</vert>
									</value>
								</parameter>
								<parameter authoringApp="PremierePro">
									<parameterid>antiflicker</parameterid>
									<name>Anti-flicker Filter</name>
									<valuemin>0.0</valuemin>
									<valuemax>1.0</valuemax>
									<value>0</value>
								</parameter>
							</effect>
						</filter>
						<filter>
							<effect>
								<name>Distort</name>
								<effectid>deformation</effectid>
								<effectcategory>motion</effectcategory>
								<effecttype>motion</effecttype>
								<mediatype>video</mediatype>
								<parameter authoringApp="PremierePro">
									<parameterid>aspect</parameterid>
									<name>Aspect</name>
									<valuemin>-10000</valuemin>
									<valuemax>10000</valuemax>
									<value>-100</value>
								</parameter>
							</effect>
						</filter>
						<filter>
							<effect>
								<name>Crop</name>
								<effectid>crop</effectid>
								<effectcategory>motion</effectcategory>
								<effecttype>motion</effecttype>
								<mediatype>video</mediatype>
								<pproBypass>false</pproBypass>
								<parameter authoringApp="PremierePro">
									<parameterid>left</parameterid>
									<name>left</name>
									<valuemin>0</valuemin>
									<valuemax>100</valuemax>
									<value>0</value>
								</parameter>
								<parameter authoringApp="PremierePro">
									<parameterid>right</parameterid>
									<name>right</name>
									<valuemin>0</valuemin>
									<valuemax>100</valuemax>
									<value>0</value>
								</parameter>
								<parameter authoringApp="PremierePro">
									<parameterid>top</parameterid>
									<name>top</name>
									<valuemin>0</valuemin>
									<valuemax>100</valuemax>
									<value>0</value>
								</parameter>
								<parameter authoringApp="PremierePro">
									<parameterid>bottom</parameterid>
									<name>bottom</name>
									<valuemin>0</valuemin>
									<valuemax>100</valuemax>
									<value>42</value>
								</parameter>
							</effect>
						</filter>
						<logginginfo>
							<description></description>
							<scene></scene>
							<shottake></shottake>
							<lognote></lognote>
							<good></good>
							<originalvideofilename></originalvideofilename>
							<originalaudiofilename></originalaudiofilename>
						</logginginfo>
						<colorinfo>
							<lut></lut>
							<lut1></lut1>
							<asc_sop></asc_sop>
							<asc_sat></asc_sat>
							<lut2></lut2>
						</colorinfo>
						<labels>
							<label2>Lavender</label2>
						</labels>
					</clipitem>
					<clipitem id="clipitem-529">
						<masterclipid>masterclip-75</masterclipid>
						<name>BLINK_TEST_24frames_ALT.mov</name>
						<enabled>TRUE</enabled>
						<duration>24</duration>
						<rate>
							<timebase>60</timebase>
							<ntsc>FALSE</ntsc>
						</rate>
						<start>55522</start>
						<end>55523</end>
						<in>12</in>
						<out>13</out>
						<pproTicksIn>50803200000</pproTicksIn>
						<pproTicksOut>55036800000</pproTicksOut>
						<alphatype>straight</alphatype>
						<file id="file-75"/>
						<logginginfo>
							<description></description>
							<scene></scene>
							<shottake></shottake>
							<lognote></lognote>
							<good></good>
							<originalvideofilename></originalvideofilename>
							<originalaudiofilename></originalaudiofilename>
						</logginginfo>
						<colorinfo>
							<lut></lut>
							<lut1></lut1>
							<asc_sop></asc_sop>
							<asc_sat></asc_sat>
							<lut2></lut2>
						</colorinfo>
						<labels>
							<label2>Lavender</label2>
						</labels>
					</clipitem>
					<clipitem id="clipitem-530">
						<masterclipid>masterclip-74</masterclipid>
						<name>BLINK_TEST_24frames.mov</name>
						<enabled>TRUE</enabled>
						<duration>24</duration>
						<rate>
							<timebase>60</timebase>
							<ntsc>FALSE</ntsc>
						</rate>
						<start>55523</start>
						<end>55524</end>
						<in>7</in>
						<out>8</out>
						<pproTicksIn>29635200000</pproTicksIn>
						<pproTicksOut>33868800000</pproTicksOut>
						<alphatype>straight</alphatype>
						<file id="file-74"/>
						<filter>
							<effect>
								<name>Basic Motion</name>
								<effectid>basic</effectid>
								<effectcategory>motion</effectcategory>
								<effecttype>motion</effecttype>
								<mediatype>video</mediatype>
								<pproBypass>false</pproBypass>
								<parameter authoringApp="PremierePro">
									<parameterid>scale</parameterid>
									<name>Scale</name>
									<valuemin>0</valuemin>
									<valuemax>1000</valuemax>
									<value>100</value>
								</parameter>
								<parameter authoringApp="PremierePro">
									<parameterid>rotation</parameterid>
									<name>Rotation</name>
									<valuemin>-8640</valuemin>
									<valuemax>8640</valuemax>
									<value>0</value>
								</parameter>
								<parameter authoringApp="PremierePro">
									<parameterid>center</parameterid>
									<name>Center</name>
									<value>
										<horiz>0</horiz>
										<vert>0.25</vert>
									</value>
								</parameter>
								<parameter authoringApp="PremierePro">
									<parameterid>centerOffset</parameterid>
									<name>Anchor Point</name>
									<value>
										<horiz>0</horiz>
										<vert>0</vert>
									</value>
								</parameter>
								<parameter authoringApp="PremierePro">
									<parameterid>antiflicker</parameterid>
									<name>Anti-flicker Filter</name>
									<valuemin>0.0</valuemin>
									<valuemax>1.0</valuemax>
									<value>0</value>
								</parameter>
							</effect>
						</filter>
						<filter>
							<effect>
								<name>Distort</name>
								<effectid>deformation</effectid>
								<effectcategory>motion</effectcategory>
								<effecttype>motion</effecttype>
								<mediatype>video</mediatype>
								<parameter authoringApp="PremierePro">
									<parameterid>aspect</parameterid>
									<name>Aspect</name>
									<valuemin>-10000</valuemin>
									<valuemax>10000</valuemax>
									<value>-100</value>
								</parameter>
							</effect>
						</filter>
						<filter>
							<effect>
								<name>Crop</name>
								<effectid>crop</effectid>
								<effectcategory>motion</effectcategory>
								<effecttype>motion</effecttype>
								<mediatype>video</mediatype>
								<pproBypass>false</pproBypass>
								<parameter authoringApp="PremierePro">
									<parameterid>left</parameterid>
									<name>left</name>
									<valuemin>0</valuemin>
									<valuemax>100</valuemax>
									<value>0</value>
								</parameter>
								<parameter authoringApp="PremierePro">
									<parameterid>right</parameterid>
									<name>right</name>
									<valuemin>0</valuemin>
									<valuemax>100</valuemax>
									<value>0</value>
								</parameter>
								<parameter authoringApp="PremierePro">
									<parameterid>top</parameterid>
									<name>top</name>
									<valuemin>0</valuemin>
									<valuemax>100</valuemax>
									<value>0</value>
								</parameter>
								<parameter authoringApp="PremierePro">
									<parameterid>bottom</parameterid>
									<name>bottom</name>
									<valuemin>0</valuemin>
									<valuemax>100</valuemax>
									<value>42</value>
								</parameter>
							</effect>
						</filter>
						<logginginfo>
							<description></description>
							<scene></scene>
							<shottake></shottake>
							<lognote></lognote>
							<good></good>
							<originalvideofilename></originalvideofilename>
							<originalaudiofilename></originalaudiofilename>
						</logginginfo>
						<colorinfo>
							<lut></lut>
							<lut1></lut1>
							<asc_sop></asc_sop>
							<asc_sat></asc_sat>
							<lut2></lut2>
						</colorinfo>
						<labels>
							<label2>Lavender</label2>
						</labels>
					</clipitem>
					<clipitem id="clipitem-531">
						<masterclipid>masterclip-74</masterclipid>
						<name>BLINK_TEST_24frames.mov</name>
						<enabled>TRUE</enabled>
						<duration>24</duration>
						<rate>
							<timebase>60</timebase>
							<ntsc>FALSE</ntsc>
						</rate>
						<start>58578</start>
						<end>58579</end>
						<in>7</in>
						<out>8</out>
						<pproTicksIn>29635200000</pproTicksIn>
						<pproTicksOut>33868800000</pproTicksOut>
						<alphatype>straight</alphatype>
						<file id="file-74"/>
						<filter>
							<effect>
								<name>Basic Motion</name>
								<effectid>basic</effectid>
								<effectcategory>motion</effectcategory>
								<effecttype>motion</effecttype>
								<mediatype>video</mediatype>
								<pproBypass>false</pproBypass>
								<parameter authoringApp="PremierePro">
									<parameterid>scale</parameterid>
									<name>Scale</name>
									<valuemin>0</valuemin>
									<valuemax>1000</valuemax>
									<value>100</value>
								</parameter>
								<parameter authoringApp="PremierePro">
									<parameterid>rotation</parameterid>
									<name>Rotation</name>
									<valuemin>-8640</valuemin>
									<valuemax>8640</valuemax>
									<value>0</value>
								</parameter>
								<parameter authoringApp="PremierePro">
									<parameterid>center</parameterid>
									<name>Center</name>
									<value>
										<horiz>0</horiz>
										<vert>-0.25</vert>
									</value>
								</parameter>
								<parameter authoringApp="PremierePro">
									<parameterid>centerOffset</parameterid>
									<name>Anchor Point</name>
									<value>
										<horiz>0</horiz>
										<vert>0</vert>
									</value>
								</parameter>
								<parameter authoringApp="PremierePro">
									<parameterid>antiflicker</parameterid>
									<name>Anti-flicker Filter</name>
									<valuemin>0.0</valuemin>
									<valuemax>1.0</valuemax>
									<value>0</value>
								</parameter>
							</effect>
						</filter>
						<filter>
							<effect>
								<name>Distort</name>
								<effectid>deformation</effectid>
								<effectcategory>motion</effectcategory>
								<effecttype>motion</effecttype>
								<mediatype>video</mediatype>
								<parameter authoringApp="PremierePro">
									<parameterid>aspect</parameterid>
									<name>Aspect</name>
									<valuemin>-10000</valuemin>
									<valuemax>10000</valuemax>
									<value>-100</value>
								</parameter>
							</effect>
						</filter>
						<filter>
							<effect>
								<name>Crop</name>
								<effectid>crop</effectid>
								<effectcategory>motion</effectcategory>
								<effecttype>motion</effecttype>
								<mediatype>video</mediatype>
								<pproBypass>false</pproBypass>
								<parameter authoringApp="PremierePro">
									<parameterid>left</parameterid>
									<name>left</name>
									<valuemin>0</valuemin>
									<valuemax>100</valuemax>
									<value>0</value>
								</parameter>
								<parameter authoringApp="PremierePro">
									<parameterid>right</parameterid>
									<name>right</name>
									<valuemin>0</valuemin>
									<valuemax>100</valuemax>
									<value>0</value>
								</parameter>
								<parameter authoringApp="PremierePro">
									<parameterid>top</parameterid>
									<name>top</name>
									<valuemin>0</valuemin>
									<valuemax>100</valuemax>
									<value>0</value>
								</parameter>
								<parameter authoringApp="PremierePro">
									<parameterid>bottom</parameterid>
									<name>bottom</name>
									<valuemin>0</valuemin>
									<valuemax>100</valuemax>
									<value>42</value>
								</parameter>
							</effect>
						</filter>
						<logginginfo>
							<description></description>
							<scene></scene>
							<shottake></shottake>
							<lognote></lognote>
							<good></good>
							<originalvideofilename></originalvideofilename>
							<originalaudiofilename></originalaudiofilename>
						</logginginfo>
						<colorinfo>
							<lut></lut>
							<lut1></lut1>
							<asc_sop></asc_sop>
							<asc_sat></asc_sat>
							<lut2></lut2>
						</colorinfo>
						<labels>
							<label2>Lavender</label2>
						</labels>
					</clipitem>
					<clipitem id="clipitem-532">
						<masterclipid>masterclip-75</masterclipid>
						<name>BLINK_TEST_24frames_ALT.mov</name>
						<enabled>TRUE</enabled>
						<duration>24</duration>
						<rate>
							<timebase>60</timebase>
							<ntsc>FALSE</ntsc>
						</rate>
						<start>58579</start>
						<end>58580</end>
						<in>12</in>
						<out>13</out>
						<pproTicksIn>50803200000</pproTicksIn>
						<pproTicksOut>55036800000</pproTicksOut>
						<alphatype>straight</alphatype>
						<file id="file-75"/>
						<logginginfo>
							<description></description>
							<scene></scene>
							<shottake></shottake>
							<lognote></lognote>
							<good></good>
							<originalvideofilename></originalvideofilename>
							<originalaudiofilename></originalaudiofilename>
						</logginginfo>
						<colorinfo>
							<lut></lut>
							<lut1></lut1>
							<asc_sop></asc_sop>
							<asc_sat></asc_sat>
							<lut2></lut2>
						</colorinfo>
						<labels>
							<label2>Lavender</label2>
						</labels>
					</clipitem>
					<clipitem id="clipitem-533">
						<masterclipid>masterclip-74</masterclipid>
						<name>BLINK_TEST_24frames.mov</name>
						<enabled>TRUE</enabled>
						<duration>24</duration>
						<rate>
							<timebase>60</timebase>
							<ntsc>FALSE</ntsc>
						</rate>
						<start>58580</start>
						<end>58581</end>
						<in>7</in>
						<out>8</out>
						<pproTicksIn>29635200000</pproTicksIn>
						<pproTicksOut>33868800000</pproTicksOut>
						<alphatype>straight</alphatype>
						<file id="file-74"/>
						<filter>
							<effect>
								<name>Basic Motion</name>
								<effectid>basic</effectid>
								<effectcategory>motion</effectcategory>
								<effecttype>motion</effecttype>
								<mediatype>video</mediatype>
								<pproBypass>false</pproBypass>
								<parameter authoringApp="PremierePro">
									<parameterid>scale</parameterid>
									<name>Scale</name>
									<valuemin>0</valuemin>
									<valuemax>1000</valuemax>
									<value>100</value>
								</parameter>
								<parameter authoringApp="PremierePro">
									<parameterid>rotation</parameterid>
									<name>Rotation</name>
									<valuemin>-8640</valuemin>
									<valuemax>8640</valuemax>
									<value>0</value>
								</parameter>
								<parameter authoringApp="PremierePro">
									<parameterid>center</parameterid>
									<name>Center</name>
									<value>
										<horiz>0</horiz>
										<vert>-0.25</vert>
									</value>
								</parameter>
								<parameter authoringApp="PremierePro">
									<parameterid>centerOffset</parameterid>
									<name>Anchor Point</name>
									<value>
										<horiz>0</horiz>
										<vert>0</vert>
									</value>
								</parameter>
								<parameter authoringApp="PremierePro">
									<parameterid>antiflicker</parameterid>
									<name>Anti-flicker Filter</name>
									<valuemin>0.0</valuemin>
									<valuemax>1.0</valuemax>
									<value>0</value>
								</parameter>
							</effect>
						</filter>
						<filter>
							<effect>
								<name>Distort</name>
								<effectid>deformation</effectid>
								<effectcategory>motion</effectcategory>
								<effecttype>motion</effecttype>
								<mediatype>video</mediatype>
								<parameter authoringApp="PremierePro">
									<parameterid>aspect</parameterid>
									<name>Aspect</name>
									<valuemin>-10000</valuemin>
									<valuemax>10000</valuemax>
									<value>-100</value>
								</parameter>
							</effect>
						</filter>
						<filter>
							<effect>
								<name>Crop</name>
								<effectid>crop</effectid>
								<effectcategory>motion</effectcategory>
								<effecttype>motion</effecttype>
								<mediatype>video</mediatype>
								<pproBypass>false</pproBypass>
								<parameter authoringApp="PremierePro">
									<parameterid>left</parameterid>
									<name>left</name>
									<valuemin>0</valuemin>
									<valuemax>100</valuemax>
									<value>0</value>
								</parameter>
								<parameter authoringApp="PremierePro">
									<parameterid>right</parameterid>
									<name>right</name>
									<valuemin>0</valuemin>
									<valuemax>100</valuemax>
									<value>0</value>
								</parameter>
								<parameter authoringApp="PremierePro">
									<parameterid>top</parameterid>
									<name>top</name>
									<valuemin>0</valuemin>
									<valuemax>100</valuemax>
									<value>0</value>
								</parameter>
								<parameter authoringApp="PremierePro">
									<parameterid>bottom</parameterid>
									<name>bottom</name>
									<valuemin>0</valuemin>
									<valuemax>100</valuemax>
									<value>42</value>
								</parameter>
							</effect>
						</filter>
						<logginginfo>
							<description></description>
							<scene></scene>
							<shottake></shottake>
							<lognote></lognote>
							<good></good>
							<originalvideofilename></originalvideofilename>
							<originalaudiofilename></originalaudiofilename>
						</logginginfo>
						<colorinfo>
							<lut></lut>
							<lut1></lut1>
							<asc_sop></asc_sop>
							<asc_sat></asc_sat>
							<lut2></lut2>
						</colorinfo>
						<labels>
							<label2>Lavender</label2>
						</labels>
					</clipitem>
					<enabled>TRUE</enabled>
					<locked>FALSE</locked>
				</track>
				<track TL.SQTrackShy="0" TL.SQTrackExpandedHeight="16" TL.SQTrackExpanded="0" MZ.TrackTargeted="0">
					<clipitem id="clipitem-534">
						<masterclipid>masterclip-74</masterclipid>
						<name>BLINK_TEST_24frames.mov</name>
						<enabled>TRUE</enabled>
						<duration>24</duration>
						<rate>
							<timebase>60</timebase>
							<ntsc>FALSE</ntsc>
						</rate>
						<start>47168</start>
						<end>47169</end>
						<in>7</in>
						<out>8</out>
						<pproTicksIn>29635200000</pproTicksIn>
						<pproTicksOut>33868800000</pproTicksOut>
						<alphatype>straight</alphatype>
						<file id="file-74"/>
						<filter>
							<effect>
								<name>Basic Motion</name>
								<effectid>basic</effectid>
								<effectcategory>motion</effectcategory>
								<effecttype>motion</effecttype>
								<mediatype>video</mediatype>
								<pproBypass>false</pproBypass>
								<parameter authoringApp="PremierePro">
									<parameterid>scale</parameterid>
									<name>Scale</name>
									<valuemin>0</valuemin>
									<valuemax>1000</valuemax>
									<value>100</value>
								</parameter>
								<parameter authoringApp="PremierePro">
									<parameterid>rotation</parameterid>
									<name>Rotation</name>
									<valuemin>-8640</valuemin>
									<valuemax>8640</valuemax>
									<value>0</value>
								</parameter>
								<parameter authoringApp="PremierePro">
									<parameterid>center</parameterid>
									<name>Center</name>
									<value>
										<horiz>0</horiz>
										<vert>-0.25</vert>
									</value>
								</parameter>
								<parameter authoringApp="PremierePro">
									<parameterid>centerOffset</parameterid>
									<name>Anchor Point</name>
									<value>
										<horiz>0</horiz>
										<vert>0</vert>
									</value>
								</parameter>
								<parameter authoringApp="PremierePro">
									<parameterid>antiflicker</parameterid>
									<name>Anti-flicker Filter</name>
									<valuemin>0.0</valuemin>
									<valuemax>1.0</valuemax>
									<value>0</value>
								</parameter>
							</effect>
						</filter>
						<filter>
							<effect>
								<name>Distort</name>
								<effectid>deformation</effectid>
								<effectcategory>motion</effectcategory>
								<effecttype>motion</effecttype>
								<mediatype>video</mediatype>
								<parameter authoringApp="PremierePro">
									<parameterid>aspect</parameterid>
									<name>Aspect</name>
									<valuemin>-10000</valuemin>
									<valuemax>10000</valuemax>
									<value>-100</value>
								</parameter>
							</effect>
						</filter>
						<filter>
							<effect>
								<name>Crop</name>
								<effectid>crop</effectid>
								<effectcategory>motion</effectcategory>
								<effecttype>motion</effecttype>
								<mediatype>video</mediatype>
								<pproBypass>false</pproBypass>
								<parameter authoringApp="PremierePro">
									<parameterid>left</parameterid>
									<name>left</name>
									<valuemin>0</valuemin>
									<valuemax>100</valuemax>
									<value>0</value>
								</parameter>
								<parameter authoringApp="PremierePro">
									<parameterid>right</parameterid>
									<name>right</name>
									<valuemin>0</valuemin>
									<valuemax>100</valuemax>
									<value>0</value>
								</parameter>
								<parameter authoringApp="PremierePro">
									<parameterid>top</parameterid>
									<name>top</name>
									<valuemin>0</valuemin>
									<valuemax>100</valuemax>
									<value>0</value>
								</parameter>
								<parameter authoringApp="PremierePro">
									<parameterid>bottom</parameterid>
									<name>bottom</name>
									<valuemin>0</valuemin>
									<valuemax>100</valuemax>
									<value>42</value>
								</parameter>
							</effect>
						</filter>
						<logginginfo>
							<description></description>
							<scene></scene>
							<shottake></shottake>
							<lognote></lognote>
							<good></good>
							<originalvideofilename></originalvideofilename>
							<originalaudiofilename></originalaudiofilename>
						</logginginfo>
						<colorinfo>
							<lut></lut>
							<lut1></lut1>
							<asc_sop></asc_sop>
							<asc_sat></asc_sat>
							<lut2></lut2>
						</colorinfo>
						<labels>
							<label2>Lavender</label2>
						</labels>
					</clipitem>
					<clipitem id="clipitem-535">
						<masterclipid>masterclip-75</masterclipid>
						<name>BLINK_TEST_24frames_ALT.mov</name>
						<enabled>TRUE</enabled>
						<duration>24</duration>
						<rate>
							<timebase>60</timebase>
							<ntsc>FALSE</ntsc>
						</rate>
						<start>47169</start>
						<end>47170</end>
						<in>12</in>
						<out>13</out>
						<pproTicksIn>50803200000</pproTicksIn>
						<pproTicksOut>55036800000</pproTicksOut>
						<alphatype>straight</alphatype>
						<file id="file-75"/>
						<logginginfo>
							<description></description>
							<scene></scene>
							<shottake></shottake>
							<lognote></lognote>
							<good></good>
							<originalvideofilename></originalvideofilename>
							<originalaudiofilename></originalaudiofilename>
						</logginginfo>
						<colorinfo>
							<lut></lut>
							<lut1></lut1>
							<asc_sop></asc_sop>
							<asc_sat></asc_sat>
							<lut2></lut2>
						</colorinfo>
						<labels>
							<label2>Lavender</label2>
						</labels>
					</clipitem>
					<clipitem id="clipitem-536">
						<masterclipid>masterclip-74</masterclipid>
						<name>BLINK_TEST_24frames.mov</name>
						<enabled>TRUE</enabled>
						<duration>24</duration>
						<rate>
							<timebase>60</timebase>
							<ntsc>FALSE</ntsc>
						</rate>
						<start>47170</start>
						<end>47171</end>
						<in>7</in>
						<out>8</out>
						<pproTicksIn>29635200000</pproTicksIn>
						<pproTicksOut>33868800000</pproTicksOut>
						<alphatype>straight</alphatype>
						<file id="file-74"/>
						<filter>
							<effect>
								<name>Basic Motion</name>
								<effectid>basic</effectid>
								<effectcategory>motion</effectcategory>
								<effecttype>motion</effecttype>
								<mediatype>video</mediatype>
								<pproBypass>false</pproBypass>
								<parameter authoringApp="PremierePro">
									<parameterid>scale</parameterid>
									<name>Scale</name>
									<valuemin>0</valuemin>
									<valuemax>1000</valuemax>
									<value>100</value>
								</parameter>
								<parameter authoringApp="PremierePro">
									<parameterid>rotation</parameterid>
									<name>Rotation</name>
									<valuemin>-8640</valuemin>
									<valuemax>8640</valuemax>
									<value>0</value>
								</parameter>
								<parameter authoringApp="PremierePro">
									<parameterid>center</parameterid>
									<name>Center</name>
									<value>
										<horiz>0</horiz>
										<vert>-0.25</vert>
									</value>
								</parameter>
								<parameter authoringApp="PremierePro">
									<parameterid>centerOffset</parameterid>
									<name>Anchor Point</name>
									<value>
										<horiz>0</horiz>
										<vert>0</vert>
									</value>
								</parameter>
								<parameter authoringApp="PremierePro">
									<parameterid>antiflicker</parameterid>
									<name>Anti-flicker Filter</name>
									<valuemin>0.0</valuemin>
									<valuemax>1.0</valuemax>
									<value>0</value>
								</parameter>
							</effect>
						</filter>
						<filter>
							<effect>
								<name>Distort</name>
								<effectid>deformation</effectid>
								<effectcategory>motion</effectcategory>
								<effecttype>motion</effecttype>
								<mediatype>video</mediatype>
								<parameter authoringApp="PremierePro">
									<parameterid>aspect</parameterid>
									<name>Aspect</name>
									<valuemin>-10000</valuemin>
									<valuemax>10000</valuemax>
									<value>-100</value>
								</parameter>
							</effect>
						</filter>
						<filter>
							<effect>
								<name>Crop</name>
								<effectid>crop</effectid>
								<effectcategory>motion</effectcategory>
								<effecttype>motion</effecttype>
								<mediatype>video</mediatype>
								<pproBypass>false</pproBypass>
								<parameter authoringApp="PremierePro">
									<parameterid>left</parameterid>
									<name>left</name>
									<valuemin>0</valuemin>
									<valuemax>100</valuemax>
									<value>0</value>
								</parameter>
								<parameter authoringApp="PremierePro">
									<parameterid>right</parameterid>
									<name>right</name>
									<valuemin>0</valuemin>
									<valuemax>100</valuemax>
									<value>0</value>
								</parameter>
								<parameter authoringApp="PremierePro">
									<parameterid>top</parameterid>
									<name>top</name>
									<valuemin>0</valuemin>
									<valuemax>100</valuemax>
									<value>0</value>
								</parameter>
								<parameter authoringApp="PremierePro">
									<parameterid>bottom</parameterid>
									<name>bottom</name>
									<valuemin>0</valuemin>
									<valuemax>100</valuemax>
									<value>42</value>
								</parameter>
							</effect>
						</filter>
						<logginginfo>
							<description></description>
							<scene></scene>
							<shottake></shottake>
							<lognote></lognote>
							<good></good>
							<originalvideofilename></originalvideofilename>
							<originalaudiofilename></originalaudiofilename>
						</logginginfo>
						<colorinfo>
							<lut></lut>
							<lut1></lut1>
							<asc_sop></asc_sop>
							<asc_sat></asc_sat>
							<lut2></lut2>
						</colorinfo>
						<labels>
							<label2>Lavender</label2>
						</labels>
					</clipitem>
					<clipitem id="clipitem-537">
						<masterclipid>masterclip-74</masterclipid>
						<name>BLINK_TEST_24frames.mov</name>
						<enabled>TRUE</enabled>
						<duration>24</duration>
						<rate>
							<timebase>60</timebase>
							<ntsc>FALSE</ntsc>
						</rate>
						<start>55521</start>
						<end>55522</end>
						<in>7</in>
						<out>8</out>
						<pproTicksIn>29635200000</pproTicksIn>
						<pproTicksOut>33868800000</pproTicksOut>
						<alphatype>straight</alphatype>
						<file id="file-74"/>
						<filter>
							<effect>
								<name>Basic Motion</name>
								<effectid>basic</effectid>
								<effectcategory>motion</effectcategory>
								<effecttype>motion</effecttype>
								<mediatype>video</mediatype>
								<pproBypass>false</pproBypass>
								<parameter authoringApp="PremierePro">
									<parameterid>scale</parameterid>
									<name>Scale</name>
									<valuemin>0</valuemin>
									<valuemax>1000</valuemax>
									<value>100</value>
								</parameter>
								<parameter authoringApp="PremierePro">
									<parameterid>rotation</parameterid>
									<name>Rotation</name>
									<valuemin>-8640</valuemin>
									<valuemax>8640</valuemax>
									<value>0</value>
								</parameter>
								<parameter authoringApp="PremierePro">
									<parameterid>center</parameterid>
									<name>Center</name>
									<value>
										<horiz>0</horiz>
										<vert>-0.25</vert>
									</value>
								</parameter>
								<parameter authoringApp="PremierePro">
									<parameterid>centerOffset</parameterid>
									<name>Anchor Point</name>
									<value>
										<horiz>0</horiz>
										<vert>0</vert>
									</value>
								</parameter>
								<parameter authoringApp="PremierePro">
									<parameterid>antiflicker</parameterid>
									<name>Anti-flicker Filter</name>
									<valuemin>0.0</valuemin>
									<valuemax>1.0</valuemax>
									<value>0</value>
								</parameter>
							</effect>
						</filter>
						<filter>
							<effect>
								<name>Distort</name>
								<effectid>deformation</effectid>
								<effectcategory>motion</effectcategory>
								<effecttype>motion</effecttype>
								<mediatype>video</mediatype>
								<parameter authoringApp="PremierePro">
									<parameterid>aspect</parameterid>
									<name>Aspect</name>
									<valuemin>-10000</valuemin>
									<valuemax>10000</valuemax>
									<value>-100</value>
								</parameter>
							</effect>
						</filter>
						<filter>
							<effect>
								<name>Crop</name>
								<effectid>crop</effectid>
								<effectcategory>motion</effectcategory>
								<effecttype>motion</effecttype>
								<mediatype>video</mediatype>
								<pproBypass>false</pproBypass>
								<parameter authoringApp="PremierePro">
									<parameterid>left</parameterid>
									<name>left</name>
									<valuemin>0</valuemin>
									<valuemax>100</valuemax>
									<value>0</value>
								</parameter>
								<parameter authoringApp="PremierePro">
									<parameterid>right</parameterid>
									<name>right</name>
									<valuemin>0</valuemin>
									<valuemax>100</valuemax>
									<value>0</value>
								</parameter>
								<parameter authoringApp="PremierePro">
									<parameterid>top</parameterid>
									<name>top</name>
									<valuemin>0</valuemin>
									<valuemax>100</valuemax>
									<value>0</value>
								</parameter>
								<parameter authoringApp="PremierePro">
									<parameterid>bottom</parameterid>
									<name>bottom</name>
									<valuemin>0</valuemin>
									<valuemax>100</valuemax>
									<value>42</value>
								</parameter>
							</effect>
						</filter>
						<logginginfo>
							<description></description>
							<scene></scene>
							<shottake></shottake>
							<lognote></lognote>
							<good></good>
							<originalvideofilename></originalvideofilename>
							<originalaudiofilename></originalaudiofilename>
						</logginginfo>
						<colorinfo>
							<lut></lut>
							<lut1></lut1>
							<asc_sop></asc_sop>
							<asc_sat></asc_sat>
							<lut2></lut2>
						</colorinfo>
						<labels>
							<label2>Lavender</label2>
						</labels>
					</clipitem>
					<clipitem id="clipitem-538">
						<masterclipid>masterclip-75</masterclipid>
						<name>BLINK_TEST_24frames_ALT.mov</name>
						<enabled>TRUE</enabled>
						<duration>24</duration>
						<rate>
							<timebase>60</timebase>
							<ntsc>FALSE</ntsc>
						</rate>
						<start>55522</start>
						<end>55523</end>
						<in>12</in>
						<out>13</out>
						<pproTicksIn>50803200000</pproTicksIn>
						<pproTicksOut>55036800000</pproTicksOut>
						<alphatype>straight</alphatype>
						<file id="file-75"/>
						<logginginfo>
							<description></description>
							<scene></scene>
							<shottake></shottake>
							<lognote></lognote>
							<good></good>
							<originalvideofilename></originalvideofilename>
							<originalaudiofilename></originalaudiofilename>
						</logginginfo>
						<colorinfo>
							<lut></lut>
							<lut1></lut1>
							<asc_sop></asc_sop>
							<asc_sat></asc_sat>
							<lut2></lut2>
						</colorinfo>
						<labels>
							<label2>Lavender</label2>
						</labels>
					</clipitem>
					<clipitem id="clipitem-539">
						<masterclipid>masterclip-74</masterclipid>
						<name>BLINK_TEST_24frames.mov</name>
						<enabled>TRUE</enabled>
						<duration>24</duration>
						<rate>
							<timebase>60</timebase>
							<ntsc>FALSE</ntsc>
						</rate>
						<start>55523</start>
						<end>55524</end>
						<in>7</in>
						<out>8</out>
						<pproTicksIn>29635200000</pproTicksIn>
						<pproTicksOut>33868800000</pproTicksOut>
						<alphatype>straight</alphatype>
						<file id="file-74"/>
						<filter>
							<effect>
								<name>Basic Motion</name>
								<effectid>basic</effectid>
								<effectcategory>motion</effectcategory>
								<effecttype>motion</effecttype>
								<mediatype>video</mediatype>
								<pproBypass>false</pproBypass>
								<parameter authoringApp="PremierePro">
									<parameterid>scale</parameterid>
									<name>Scale</name>
									<valuemin>0</valuemin>
									<valuemax>1000</valuemax>
									<value>100</value>
								</parameter>
								<parameter authoringApp="PremierePro">
									<parameterid>rotation</parameterid>
									<name>Rotation</name>
									<valuemin>-8640</valuemin>
									<valuemax>8640</valuemax>
									<value>0</value>
								</parameter>
								<parameter authoringApp="PremierePro">
									<parameterid>center</parameterid>
									<name>Center</name>
									<value>
										<horiz>0</horiz>
										<vert>-0.25</vert>
									</value>
								</parameter>
								<parameter authoringApp="PremierePro">
									<parameterid>centerOffset</parameterid>
									<name>Anchor Point</name>
									<value>
										<horiz>0</horiz>
										<vert>0</vert>
									</value>
								</parameter>
								<parameter authoringApp="PremierePro">
									<parameterid>antiflicker</parameterid>
									<name>Anti-flicker Filter</name>
									<valuemin>0.0</valuemin>
									<valuemax>1.0</valuemax>
									<value>0</value>
								</parameter>
							</effect>
						</filter>
						<filter>
							<effect>
								<name>Distort</name>
								<effectid>deformation</effectid>
								<effectcategory>motion</effectcategory>
								<effecttype>motion</effecttype>
								<mediatype>video</mediatype>
								<parameter authoringApp="PremierePro">
									<parameterid>aspect</parameterid>
									<name>Aspect</name>
									<valuemin>-10000</valuemin>
									<valuemax>10000</valuemax>
									<value>-100</value>
								</parameter>
							</effect>
						</filter>
						<filter>
							<effect>
								<name>Crop</name>
								<effectid>crop</effectid>
								<effectcategory>motion</effectcategory>
								<effecttype>motion</effecttype>
								<mediatype>video</mediatype>
								<pproBypass>false</pproBypass>
								<parameter authoringApp="PremierePro">
									<parameterid>left</parameterid>
									<name>left</name>
									<valuemin>0</valuemin>
									<valuemax>100</valuemax>
									<value>0</value>
								</parameter>
								<parameter authoringApp="PremierePro">
									<parameterid>right</parameterid>
									<name>right</name>
									<valuemin>0</valuemin>
									<valuemax>100</valuemax>
									<value>0</value>
								</parameter>
								<parameter authoringApp="PremierePro">
									<parameterid>top</parameterid>
									<name>top</name>
									<valuemin>0</valuemin>
									<valuemax>100</valuemax>
									<value>0</value>
								</parameter>
								<parameter authoringApp="PremierePro">
									<parameterid>bottom</parameterid>
									<name>bottom</name>
									<valuemin>0</valuemin>
									<valuemax>100</valuemax>
									<value>42</value>
								</parameter>
							</effect>
						</filter>
						<logginginfo>
							<description></description>
							<scene></scene>
							<shottake></shottake>
							<lognote></lognote>
							<good></good>
							<originalvideofilename></originalvideofilename>
							<originalaudiofilename></originalaudiofilename>
						</logginginfo>
						<colorinfo>
							<lut></lut>
							<lut1></lut1>
							<asc_sop></asc_sop>
							<asc_sat></asc_sat>
							<lut2></lut2>
						</colorinfo>
						<labels>
							<label2>Lavender</label2>
						</labels>
					</clipitem>
					<enabled>TRUE</enabled>
					<locked>FALSE</locked>
				</track>
				<track TL.SQTrackShy="0" TL.SQTrackExpandedHeight="66" TL.SQTrackExpanded="0" MZ.TrackTargeted="1">
					<enabled>TRUE</enabled>
					<locked>FALSE</locked>
				</track>
			</video>
			<audio>
				<numOutputChannels>16</numOutputChannels>
				<format>
					<samplecharacteristics>
						<depth>16</depth>
						<samplerate>48000</samplerate>
					</samplecharacteristics>
				</format>
				<outputs>
					<group>
						<index>1</index>
						<numchannels>1</numchannels>
						<downmix>0</downmix>
						<channel>
							<index>1</index>
						</channel>
					</group>
					<group>
						<index>2</index>
						<numchannels>1</numchannels>
						<downmix>0</downmix>
						<channel>
							<index>2</index>
						</channel>
					</group>
					<group>
						<index>3</index>
						<numchannels>1</numchannels>
						<downmix>0</downmix>
						<channel>
							<index>3</index>
						</channel>
					</group>
					<group>
						<index>4</index>
						<numchannels>1</numchannels>
						<downmix>0</downmix>
						<channel>
							<index>4</index>
						</channel>
					</group>
					<group>
						<index>5</index>
						<numchannels>1</numchannels>
						<downmix>0</downmix>
						<channel>
							<index>5</index>
						</channel>
					</group>
					<group>
						<index>6</index>
						<numchannels>1</numchannels>
						<downmix>0</downmix>
						<channel>
							<index>6</index>
						</channel>
					</group>
					<group>
						<index>7</index>
						<numchannels>1</numchannels>
						<downmix>0</downmix>
						<channel>
							<index>7</index>
						</channel>
					</group>
					<group>
						<index>8</index>
						<numchannels>1</numchannels>
						<downmix>0</downmix>
						<channel>
							<index>8</index>
						</channel>
					</group>
					<group>
						<index>9</index>
						<numchannels>1</numchannels>
						<downmix>0</downmix>
						<channel>
							<index>9</index>
						</channel>
					</group>
					<group>
						<index>10</index>
						<numchannels>1</numchannels>
						<downmix>0</downmix>
						<channel>
							<index>10</index>
						</channel>
					</group>
					<group>
						<index>11</index>
						<numchannels>1</numchannels>
						<downmix>0</downmix>
						<channel>
							<index>11</index>
						</channel>
					</group>
					<group>
						<index>12</index>
						<numchannels>1</numchannels>
						<downmix>0</downmix>
						<channel>
							<index>12</index>
						</channel>
					</group>
					<group>
						<index>13</index>
						<numchannels>1</numchannels>
						<downmix>0</downmix>
						<channel>
							<index>13</index>
						</channel>
					</group>
					<group>
						<index>14</index>
						<numchannels>1</numchannels>
						<downmix>0</downmix>
						<channel>
							<index>14</index>
						</channel>
					</group>
					<group>
						<index>15</index>
						<numchannels>1</numchannels>
						<downmix>0</downmix>
						<channel>
							<index>15</index>
						</channel>
					</group>
					<group>
						<index>16</index>
						<numchannels>1</numchannels>
						<downmix>0</downmix>
						<channel>
							<index>16</index>
						</channel>
					</group>
				</outputs>
				<track TL.SQTrackAudioKeyframeStyle="0" TL.SQTrackShy="0" TL.SQTrackExpandedHeight="15" TL.SQTrackExpanded="0" MZ.TrackTargeted="1" PannerCurrentValue="0.5" PannerIsInverted="true" PannerStartKeyframe="-91445760000000000,0.5,0,0,0,0,0,0" PannerName="Balance" currentExplodedTrackIndex="0" totalExplodedTrackCount="2" premiereTrackType="SixteenChannel">
					<clipitem id="clipitem-540" premiereChannelType="mono">
						<masterclipid>masterclip-79</masterclipid>
						<name>0001_20180508_113522_01_60FPS_AUDIO.mp4</name>
						<enabled>TRUE</enabled>
						<duration>10800</duration>
						<rate>
							<timebase>60</timebase>
							<ntsc>FALSE</ntsc>
						</rate>
						<start>228</start>
						<end>4609</end>
						<in>6419</in>
						<out>10800</out>
						<pproTicksIn>27175478400000</pproTicksIn>
						<pproTicksOut>45722880000000</pproTicksOut>
						<pixelaspectratio>square</pixelaspectratio>
						<anamorphic>FALSE</anamorphic>
						<file id="file-79">
							<name>0001_20180508_113522_01_60FPS_AUDIO.mp4</name>
							<pathurl>file://localhost/G%3a/Departments/_Post/__Projects/035_Chimps_Part_2/1.Raw/Ingest/project_chimps_20180508/Kandao/video/01/0001_20180508_113522_01_60FPS_AUDIO.mp4</pathurl>
							<rate>
								<timebase>60</timebase>
								<ntsc>FALSE</ntsc>
							</rate>
							<duration>10800</duration>
							<timecode>
								<rate>
									<timebase>60</timebase>
									<ntsc>FALSE</ntsc>
								</rate>
								<string>00:00:00:00</string>
								<frame>0</frame>
								<displayformat>NDF</displayformat>
							</timecode>
							<media>
								<video>
									<samplecharacteristics>
										<rate>
											<timebase>60</timebase>
											<ntsc>FALSE</ntsc>
										</rate>
										<width>3840</width>
										<height>3840</height>
										<anamorphic>FALSE</anamorphic>
										<pixelaspectratio>square</pixelaspectratio>
										<fielddominance>none</fielddominance>
									</samplecharacteristics>
								</video>
								<audio>
									<samplecharacteristics>
										<depth>16</depth>
										<samplerate>48000</samplerate>
									</samplecharacteristics>
									<channelcount>1</channelcount>
									<audiochannel>
										<sourcechannel>1</sourcechannel>
									</audiochannel>
								</audio>
							</media>
						</file>
						<sourcetrack>
							<mediatype>audio</mediatype>
							<trackindex>1</trackindex>
						</sourcetrack>
						<logginginfo>
							<description></description>
							<scene></scene>
							<shottake></shottake>
							<lognote></lognote>
							<good></good>
							<originalvideofilename></originalvideofilename>
							<originalaudiofilename></originalaudiofilename>
						</logginginfo>
						<colorinfo>
							<lut></lut>
							<lut1></lut1>
							<asc_sop></asc_sop>
							<asc_sat></asc_sat>
							<lut2></lut2>
						</colorinfo>
						<labels>
							<label2>Blue</label2>
						</labels>
					</clipitem>
					<clipitem id="clipitem-541" premiereChannelType="mono">
						<masterclipid>masterclip-80</masterclipid>
						<name>0001_20180508_113822_02_60FPS_AUDIO.mp4</name>
						<enabled>TRUE</enabled>
						<duration>10800</duration>
						<rate>
							<timebase>60</timebase>
							<ntsc>FALSE</ntsc>
						</rate>
						<start>4609</start>
						<end>9885</end>
						<in>0</in>
						<out>5276</out>
						<pproTicksIn>0</pproTicksIn>
						<pproTicksOut>22336473600000</pproTicksOut>
						<pixelaspectratio>square</pixelaspectratio>
						<anamorphic>FALSE</anamorphic>
						<file id="file-80">
							<name>0001_20180508_113822_02_60FPS_AUDIO.mp4</name>
							<pathurl>file://localhost/G%3a/Departments/_Post/__Projects/035_Chimps_Part_2/1.Raw/Ingest/project_chimps_20180508/Kandao/video/02/0001_20180508_113822_02_60FPS_AUDIO.mp4</pathurl>
							<rate>
								<timebase>60</timebase>
								<ntsc>FALSE</ntsc>
							</rate>
							<duration>10800</duration>
							<timecode>
								<rate>
									<timebase>60</timebase>
									<ntsc>FALSE</ntsc>
								</rate>
								<string>00:00:00:00</string>
								<frame>0</frame>
								<displayformat>NDF</displayformat>
							</timecode>
							<media>
								<video>
									<samplecharacteristics>
										<rate>
											<timebase>60</timebase>
											<ntsc>FALSE</ntsc>
										</rate>
										<width>3840</width>
										<height>3840</height>
										<anamorphic>FALSE</anamorphic>
										<pixelaspectratio>square</pixelaspectratio>
										<fielddominance>none</fielddominance>
									</samplecharacteristics>
								</video>
								<audio>
									<samplecharacteristics>
										<depth>16</depth>
										<samplerate>48000</samplerate>
									</samplecharacteristics>
									<channelcount>1</channelcount>
									<audiochannel>
										<sourcechannel>1</sourcechannel>
									</audiochannel>
								</audio>
							</media>
						</file>
						<sourcetrack>
							<mediatype>audio</mediatype>
							<trackindex>1</trackindex>
						</sourcetrack>
						<logginginfo>
							<description></description>
							<scene></scene>
							<shottake></shottake>
							<lognote></lognote>
							<good></good>
							<originalvideofilename></originalvideofilename>
							<originalaudiofilename></originalaudiofilename>
						</logginginfo>
						<colorinfo>
							<lut></lut>
							<lut1></lut1>
							<asc_sop></asc_sop>
							<asc_sat></asc_sat>
							<lut2></lut2>
						</colorinfo>
						<labels>
							<label2>Blue</label2>
						</labels>
					</clipitem>
					<clipitem id="clipitem-542" premiereChannelType="stereo">
						<masterclipid>masterclip-81</masterclipid>
						<name>ZCAM0080_5351_combined_3d180_05_18_2018__15_01_25.mp4</name>
						<enabled>TRUE</enabled>
						<duration>18018</duration>
						<rate>
							<timebase>60</timebase>
							<ntsc>FALSE</ntsc>
						</rate>
						<start>9885</start>
						<end>11444</end>
						<in>16459</in>
						<out>18018</out>
						<pproTicksIn>69680822400000</pproTicksIn>
						<pproTicksOut>76281004800000</pproTicksOut>
						<pixelaspectratio>square</pixelaspectratio>
						<anamorphic>FALSE</anamorphic>
						<file id="file-81">
							<name>ZCAM0080_5351_combined_3d180_05_18_2018__15_01_25.mp4</name>
							<pathurl>file://localhost/G%3a/Departments/_Post/__Projects/035_Chimps_Part_2/1.Raw/Ingest/project_chimps_20180508/Zcam_K1/video/v_02/201805081135/ZCAM0080_5351/ZCAM0080_5351_combined_3d180_05_18_2018__15_01_25.mp4</pathurl>
							<rate>
								<timebase>30</timebase>
								<ntsc>TRUE</ntsc>
							</rate>
							<duration>9000</duration>
							<timecode>
								<rate>
									<timebase>30</timebase>
									<ntsc>TRUE</ntsc>
								</rate>
								<string>00:00:00:00</string>
								<frame>0</frame>
								<displayformat>NDF</displayformat>
							</timecode>
							<media>
								<video>
									<samplecharacteristics>
										<rate>
											<timebase>30</timebase>
											<ntsc>TRUE</ntsc>
										</rate>
										<width>2048</width>
										<height>4096</height>
										<anamorphic>FALSE</anamorphic>
										<pixelaspectratio>square</pixelaspectratio>
										<fielddominance>none</fielddominance>
									</samplecharacteristics>
								</video>
								<audio>
									<samplecharacteristics>
										<depth>16</depth>
										<samplerate>48000</samplerate>
									</samplecharacteristics>
									<channelcount>2</channelcount>
								</audio>
							</media>
						</file>
						<sourcetrack>
							<mediatype>audio</mediatype>
							<trackindex>1</trackindex>
						</sourcetrack>
						<link>
							<linkclipref>clipitem-542</linkclipref>
							<mediatype>audio</mediatype>
							<trackindex>1</trackindex>
							<clipindex>3</clipindex>
							<groupindex>1</groupindex>
						</link>
						<link>
							<linkclipref>clipitem-554</linkclipref>
							<mediatype>audio</mediatype>
							<trackindex>2</trackindex>
							<clipindex>1</clipindex>
							<groupindex>1</groupindex>
						</link>
						<logginginfo>
							<description></description>
							<scene></scene>
							<shottake></shottake>
							<lognote></lognote>
							<good></good>
							<originalvideofilename></originalvideofilename>
							<originalaudiofilename></originalaudiofilename>
						</logginginfo>
						<colorinfo>
							<lut></lut>
							<lut1></lut1>
							<asc_sop></asc_sop>
							<asc_sat></asc_sat>
							<lut2></lut2>
						</colorinfo>
						<labels>
							<label2>Mango</label2>
						</labels>
					</clipitem>
					<clipitem id="clipitem-543" premiereChannelType="stereo">
						<masterclipid>masterclip-82</masterclipid>
						<name>ZCAM0081_5351_combined_3d180_05_18_2018__15_22_36.mp4</name>
						<enabled>TRUE</enabled>
						<duration>18018</duration>
						<rate>
							<timebase>60</timebase>
							<ntsc>FALSE</ntsc>
						</rate>
						<start>11444</start>
						<end>19881</end>
						<in>0</in>
						<out>8437</out>
						<pproTicksIn>0</pproTicksIn>
						<pproTicksOut>35718883200000</pproTicksOut>
						<pixelaspectratio>square</pixelaspectratio>
						<anamorphic>FALSE</anamorphic>
						<file id="file-82">
							<name>ZCAM0081_5351_combined_3d180_05_18_2018__15_22_36.mp4</name>
							<pathurl>file://localhost/G%3a/Departments/_Post/__Projects/035_Chimps_Part_2/1.Raw/Ingest/project_chimps_20180508/Zcam_K1/video/v_02/201805081135/ZCAM0081_5351/ZCAM0081_5351_combined_3d180_05_18_2018__15_22_36.mp4</pathurl>
							<rate>
								<timebase>30</timebase>
								<ntsc>TRUE</ntsc>
							</rate>
							<duration>9000</duration>
							<timecode>
								<rate>
									<timebase>30</timebase>
									<ntsc>TRUE</ntsc>
								</rate>
								<string>00:00:00:00</string>
								<frame>0</frame>
								<displayformat>NDF</displayformat>
							</timecode>
							<media>
								<video>
									<samplecharacteristics>
										<rate>
											<timebase>30</timebase>
											<ntsc>TRUE</ntsc>
										</rate>
										<width>2048</width>
										<height>4096</height>
										<anamorphic>FALSE</anamorphic>
										<pixelaspectratio>square</pixelaspectratio>
										<fielddominance>none</fielddominance>
									</samplecharacteristics>
								</video>
								<audio>
									<samplecharacteristics>
										<depth>16</depth>
										<samplerate>48000</samplerate>
									</samplecharacteristics>
									<channelcount>2</channelcount>
								</audio>
							</media>
						</file>
						<sourcetrack>
							<mediatype>audio</mediatype>
							<trackindex>1</trackindex>
						</sourcetrack>
						<link>
							<linkclipref>clipitem-543</linkclipref>
							<mediatype>audio</mediatype>
							<trackindex>1</trackindex>
							<clipindex>4</clipindex>
							<groupindex>1</groupindex>
						</link>
						<link>
							<linkclipref>clipitem-555</linkclipref>
							<mediatype>audio</mediatype>
							<trackindex>2</trackindex>
							<clipindex>2</clipindex>
							<groupindex>1</groupindex>
						</link>
						<logginginfo>
							<description></description>
							<scene></scene>
							<shottake></shottake>
							<lognote></lognote>
							<good></good>
							<originalvideofilename></originalvideofilename>
							<originalaudiofilename></originalaudiofilename>
						</logginginfo>
						<colorinfo>
							<lut></lut>
							<lut1></lut1>
							<asc_sop></asc_sop>
							<asc_sat></asc_sat>
							<lut2></lut2>
						</colorinfo>
						<labels>
							<label2>Mango</label2>
						</labels>
					</clipitem>
					<clipitem id="clipitem-544" premiereChannelType="mono">
						<masterclipid>masterclip-55</masterclipid>
						<name>0001_20180508_114122_03</name>
						<enabled>TRUE</enabled>
						<duration>10800</duration>
						<rate>
							<timebase>60</timebase>
							<ntsc>FALSE</ntsc>
						</rate>
						<start>19881</start>
						<end>22866</end>
						<in>4718</in>
						<out>7703</out>
						<pproTicksIn>19974124800000</pproTicksIn>
						<pproTicksOut>32611420800000</pproTicksOut>
						<file id="file-55"/>
						<sourcetrack>
							<mediatype>audio</mediatype>
							<trackindex>1</trackindex>
						</sourcetrack>
						<link>
							<linkclipref>clipitem-448</linkclipref>
							<mediatype>video</mediatype>
							<trackindex>1</trackindex>
							<clipindex>5</clipindex>
						</link>
						<link>
							<linkclipref>clipitem-544</linkclipref>
							<mediatype>audio</mediatype>
							<trackindex>1</trackindex>
							<clipindex>5</clipindex>
							<groupindex>1</groupindex>
						</link>
						<logginginfo>
							<description></description>
							<scene></scene>
							<shottake></shottake>
							<lognote></lognote>
							<good></good>
							<originalvideofilename></originalvideofilename>
							<originalaudiofilename></originalaudiofilename>
						</logginginfo>
						<colorinfo>
							<lut></lut>
							<lut1></lut1>
							<asc_sop></asc_sop>
							<asc_sat></asc_sat>
							<lut2></lut2>
						</colorinfo>
						<labels>
							<label2>Blue</label2>
						</labels>
					</clipitem>
					<clipitem id="clipitem-545" premiereChannelType="stereo">
						<masterclipid>masterclip-82</masterclipid>
						<name>ZCAM0081_5351_combined_3d180_05_18_2018__15_22_36.mp4</name>
						<enabled>TRUE</enabled>
						<duration>18018</duration>
						<rate>
							<timebase>60</timebase>
							<ntsc>FALSE</ntsc>
						</rate>
						<start>22866</start>
						<end>29015</end>
						<in>11663</in>
						<out>17812</out>
						<pproTicksIn>49376476800000</pproTicksIn>
						<pproTicksOut>75408883200000</pproTicksOut>
						<file id="file-82"/>
						<sourcetrack>
							<mediatype>audio</mediatype>
							<trackindex>1</trackindex>
						</sourcetrack>
						<link>
							<linkclipref>clipitem-545</linkclipref>
							<mediatype>audio</mediatype>
							<trackindex>1</trackindex>
							<clipindex>6</clipindex>
							<groupindex>1</groupindex>
						</link>
						<link>
							<linkclipref>clipitem-556</linkclipref>
							<mediatype>audio</mediatype>
							<trackindex>2</trackindex>
							<clipindex>3</clipindex>
							<groupindex>1</groupindex>
						</link>
						<logginginfo>
							<description></description>
							<scene></scene>
							<shottake></shottake>
							<lognote></lognote>
							<good></good>
							<originalvideofilename></originalvideofilename>
							<originalaudiofilename></originalaudiofilename>
						</logginginfo>
						<colorinfo>
							<lut></lut>
							<lut1></lut1>
							<asc_sop></asc_sop>
							<asc_sat></asc_sat>
							<lut2></lut2>
						</colorinfo>
						<labels>
							<label2>Rose</label2>
						</labels>
					</clipitem>
					<clipitem id="clipitem-546" premiereChannelType="mono">
						<masterclipid>masterclip-83</masterclipid>
						<name>0001_20180508_114221_04_60FPS_AUDIO.mp4</name>
						<enabled>TRUE</enabled>
						<duration>10800</duration>
						<rate>
							<timebase>60</timebase>
							<ntsc>FALSE</ntsc>
						</rate>
						<start>29015</start>
						<end>29561</end>
						<in>3051</in>
						<out>3597</out>
						<pproTicksIn>12916713600000</pproTicksIn>
						<pproTicksOut>15228259200000</pproTicksOut>
						<pixelaspectratio>square</pixelaspectratio>
						<anamorphic>FALSE</anamorphic>
						<file id="file-83">
							<name>0001_20180508_114221_04_60FPS_AUDIO.mp4</name>
							<pathurl>file://localhost/G%3a/Departments/_Post/__Projects/035_Chimps_Part_2/1.Raw/Ingest/project_chimps_20180508/Kandao/video/04/0001_20180508_114221_04_60FPS_AUDIO.mp4</pathurl>
							<rate>
								<timebase>60</timebase>
								<ntsc>FALSE</ntsc>
							</rate>
							<duration>10800</duration>
							<timecode>
								<rate>
									<timebase>60</timebase>
									<ntsc>FALSE</ntsc>
								</rate>
								<string>00:00:00:00</string>
								<frame>0</frame>
								<displayformat>NDF</displayformat>
							</timecode>
							<media>
								<video>
									<samplecharacteristics>
										<rate>
											<timebase>60</timebase>
											<ntsc>FALSE</ntsc>
										</rate>
										<width>3840</width>
										<height>3840</height>
										<anamorphic>FALSE</anamorphic>
										<pixelaspectratio>square</pixelaspectratio>
										<fielddominance>none</fielddominance>
									</samplecharacteristics>
								</video>
								<audio>
									<samplecharacteristics>
										<depth>16</depth>
										<samplerate>48000</samplerate>
									</samplecharacteristics>
									<channelcount>1</channelcount>
									<audiochannel>
										<sourcechannel>1</sourcechannel>
									</audiochannel>
								</audio>
							</media>
						</file>
						<sourcetrack>
							<mediatype>audio</mediatype>
							<trackindex>1</trackindex>
						</sourcetrack>
						<logginginfo>
							<description></description>
							<scene></scene>
							<shottake></shottake>
							<lognote></lognote>
							<good></good>
							<originalvideofilename></originalvideofilename>
							<originalaudiofilename></originalaudiofilename>
						</logginginfo>
						<colorinfo>
							<lut></lut>
							<lut1></lut1>
							<asc_sop></asc_sop>
							<asc_sat></asc_sat>
							<lut2></lut2>
						</colorinfo>
						<labels>
							<label2>Blue</label2>
						</labels>
					</clipitem>
					<clipitem id="clipitem-547" premiereChannelType="mono">
						<masterclipid>masterclip-58</masterclipid>
						<name>0005_20180510_110814_18_60FPS_AUDIO.mp4</name>
						<enabled>TRUE</enabled>
						<duration>10801</duration>
						<rate>
							<timebase>60</timebase>
							<ntsc>FALSE</ntsc>
						</rate>
						<start>29561</start>
						<end>31825</end>
						<in>3238</in>
						<out>5502</out>
						<pproTicksIn>13708396800000</pproTicksIn>
						<pproTicksOut>23293267200000</pproTicksOut>
						<file id="file-58"/>
						<sourcetrack>
							<mediatype>audio</mediatype>
							<trackindex>1</trackindex>
						</sourcetrack>
						<link>
							<linkclipref>clipitem-451</linkclipref>
							<mediatype>video</mediatype>
							<trackindex>1</trackindex>
							<clipindex>8</clipindex>
						</link>
						<link>
							<linkclipref>clipitem-547</linkclipref>
							<mediatype>audio</mediatype>
							<trackindex>1</trackindex>
							<clipindex>8</clipindex>
							<groupindex>1</groupindex>
						</link>
						<logginginfo>
							<description></description>
							<scene></scene>
							<shottake></shottake>
							<lognote></lognote>
							<good></good>
							<originalvideofilename></originalvideofilename>
							<originalaudiofilename></originalaudiofilename>
						</logginginfo>
						<colorinfo>
							<lut></lut>
							<lut1></lut1>
							<asc_sop></asc_sop>
							<asc_sat></asc_sat>
							<lut2></lut2>
						</colorinfo>
						<labels>
							<label2>Tan</label2>
						</labels>
					</clipitem>
					<clipitem id="clipitem-548" premiereChannelType="stereo">
						<masterclipid>masterclip-84</masterclipid>
						<name>ZCAM0084_5351_combined_3d180_05_18_2018__16_27_09.mp4</name>
						<enabled>TRUE</enabled>
						<duration>18018</duration>
						<rate>
							<timebase>60</timebase>
							<ntsc>FALSE</ntsc>
						</rate>
						<start>31825</start>
						<end>38170</end>
						<in>3793</in>
						<out>10138</out>
						<pproTicksIn>16058044800000</pproTicksIn>
						<pproTicksOut>42920236800000</pproTicksOut>
						<pixelaspectratio>square</pixelaspectratio>
						<anamorphic>FALSE</anamorphic>
						<file id="file-84">
							<name>ZCAM0084_5351_combined_3d180_05_18_2018__16_27_09.mp4</name>
							<pathurl>file://localhost/G%3a/Departments/_Post/__Projects/035_Chimps_Part_2/1.Raw/Ingest/project_chimps_20180508/Zcam_K1/video/v_02/201805081135/ZCAM0084_5351/ZCAM0084_5351_combined_3d180_05_18_2018__16_27_09.mp4</pathurl>
							<rate>
								<timebase>30</timebase>
								<ntsc>TRUE</ntsc>
							</rate>
							<duration>9000</duration>
							<timecode>
								<rate>
									<timebase>30</timebase>
									<ntsc>TRUE</ntsc>
								</rate>
								<string>00:00:00:00</string>
								<frame>0</frame>
								<displayformat>NDF</displayformat>
							</timecode>
							<media>
								<video>
									<samplecharacteristics>
										<rate>
											<timebase>30</timebase>
											<ntsc>TRUE</ntsc>
										</rate>
										<width>2048</width>
										<height>4096</height>
										<anamorphic>FALSE</anamorphic>
										<pixelaspectratio>square</pixelaspectratio>
										<fielddominance>none</fielddominance>
									</samplecharacteristics>
								</video>
								<audio>
									<samplecharacteristics>
										<depth>16</depth>
										<samplerate>48000</samplerate>
									</samplecharacteristics>
									<channelcount>2</channelcount>
								</audio>
							</media>
						</file>
						<sourcetrack>
							<mediatype>audio</mediatype>
							<trackindex>1</trackindex>
						</sourcetrack>
						<link>
							<linkclipref>clipitem-548</linkclipref>
							<mediatype>audio</mediatype>
							<trackindex>1</trackindex>
							<clipindex>9</clipindex>
							<groupindex>1</groupindex>
						</link>
						<link>
							<linkclipref>clipitem-557</linkclipref>
							<mediatype>audio</mediatype>
							<trackindex>2</trackindex>
							<clipindex>4</clipindex>
							<groupindex>1</groupindex>
						</link>
						<logginginfo>
							<description></description>
							<scene></scene>
							<shottake></shottake>
							<lognote></lognote>
							<good></good>
							<originalvideofilename></originalvideofilename>
							<originalaudiofilename></originalaudiofilename>
						</logginginfo>
						<colorinfo>
							<lut></lut>
							<lut1></lut1>
							<asc_sop></asc_sop>
							<asc_sat></asc_sat>
							<lut2></lut2>
						</colorinfo>
						<labels>
							<label2>Mango</label2>
						</labels>
					</clipitem>
					<clipitem id="clipitem-549" premiereChannelType="mono">
						<masterclipid>masterclip-85</masterclipid>
						<name>0001_20180508_120345_11_60FPS_AUDIO.mp4</name>
						<enabled>TRUE</enabled>
						<duration>10800</duration>
						<rate>
							<timebase>60</timebase>
							<ntsc>FALSE</ntsc>
						</rate>
						<start>38170</start>
						<end>38332</end>
						<in>10638</in>
						<out>10800</out>
						<pproTicksIn>45037036800000</pproTicksIn>
						<pproTicksOut>45722880000000</pproTicksOut>
						<pixelaspectratio>square</pixelaspectratio>
						<anamorphic>FALSE</anamorphic>
						<file id="file-85">
							<name>0001_20180508_120345_11_60FPS_AUDIO.mp4</name>
							<pathurl>file://localhost/G%3a/Departments/_Post/__Projects/035_Chimps_Part_2/1.Raw/Ingest/project_chimps_20180508/Kandao/video/11/0001_20180508_120345_11_60FPS_AUDIO.mp4</pathurl>
							<rate>
								<timebase>60</timebase>
								<ntsc>FALSE</ntsc>
							</rate>
							<duration>10800</duration>
							<timecode>
								<rate>
									<timebase>60</timebase>
									<ntsc>FALSE</ntsc>
								</rate>
								<string>00:00:00:00</string>
								<frame>0</frame>
								<displayformat>NDF</displayformat>
							</timecode>
							<media>
								<video>
									<samplecharacteristics>
										<rate>
											<timebase>60</timebase>
											<ntsc>FALSE</ntsc>
										</rate>
										<width>3840</width>
										<height>3840</height>
										<anamorphic>FALSE</anamorphic>
										<pixelaspectratio>square</pixelaspectratio>
										<fielddominance>none</fielddominance>
									</samplecharacteristics>
								</video>
								<audio>
									<samplecharacteristics>
										<depth>16</depth>
										<samplerate>48000</samplerate>
									</samplecharacteristics>
									<channelcount>1</channelcount>
									<audiochannel>
										<sourcechannel>1</sourcechannel>
									</audiochannel>
								</audio>
							</media>
						</file>
						<sourcetrack>
							<mediatype>audio</mediatype>
							<trackindex>1</trackindex>
						</sourcetrack>
						<logginginfo>
							<description></description>
							<scene></scene>
							<shottake></shottake>
							<lognote></lognote>
							<good></good>
							<originalvideofilename></originalvideofilename>
							<originalaudiofilename></originalaudiofilename>
						</logginginfo>
						<colorinfo>
							<lut></lut>
							<lut1></lut1>
							<asc_sop></asc_sop>
							<asc_sat></asc_sat>
							<lut2></lut2>
						</colorinfo>
						<labels>
							<label2>Blue</label2>
						</labels>
					</clipitem>
					<clipitem id="clipitem-550" premiereChannelType="mono">
						<masterclipid>masterclip-86</masterclipid>
						<name>0001_20180508_120625_12_60FPS_AUDIO.mp4</name>
						<enabled>TRUE</enabled>
						<duration>10800</duration>
						<rate>
							<timebase>60</timebase>
							<ntsc>FALSE</ntsc>
						</rate>
						<start>38332</start>
						<end>41737</end>
						<in>0</in>
						<out>3405</out>
						<pproTicksIn>0</pproTicksIn>
						<pproTicksOut>14415408000000</pproTicksOut>
						<pixelaspectratio>square</pixelaspectratio>
						<anamorphic>FALSE</anamorphic>
						<file id="file-86">
							<name>0001_20180508_120625_12_60FPS_AUDIO.mp4</name>
							<pathurl>file://localhost/G%3a/Departments/_Post/__Projects/035_Chimps_Part_2/1.Raw/Ingest/project_chimps_20180508/Kandao/video/12/0001_20180508_120625_12_60FPS_AUDIO.mp4</pathurl>
							<rate>
								<timebase>60</timebase>
								<ntsc>FALSE</ntsc>
							</rate>
							<duration>10800</duration>
							<timecode>
								<rate>
									<timebase>60</timebase>
									<ntsc>FALSE</ntsc>
								</rate>
								<string>00:00:00:00</string>
								<frame>0</frame>
								<displayformat>NDF</displayformat>
							</timecode>
							<media>
								<video>
									<samplecharacteristics>
										<rate>
											<timebase>60</timebase>
											<ntsc>FALSE</ntsc>
										</rate>
										<width>3840</width>
										<height>3840</height>
										<anamorphic>FALSE</anamorphic>
										<pixelaspectratio>square</pixelaspectratio>
										<fielddominance>none</fielddominance>
									</samplecharacteristics>
								</video>
								<audio>
									<samplecharacteristics>
										<depth>16</depth>
										<samplerate>48000</samplerate>
									</samplecharacteristics>
									<channelcount>1</channelcount>
									<audiochannel>
										<sourcechannel>1</sourcechannel>
									</audiochannel>
								</audio>
							</media>
						</file>
						<sourcetrack>
							<mediatype>audio</mediatype>
							<trackindex>1</trackindex>
						</sourcetrack>
						<logginginfo>
							<description></description>
							<scene></scene>
							<shottake></shottake>
							<lognote></lognote>
							<good></good>
							<originalvideofilename></originalvideofilename>
							<originalaudiofilename></originalaudiofilename>
						</logginginfo>
						<colorinfo>
							<lut></lut>
							<lut1></lut1>
							<asc_sop></asc_sop>
							<asc_sat></asc_sat>
							<lut2></lut2>
						</colorinfo>
						<labels>
							<label2>Blue</label2>
						</labels>
					</clipitem>
					<clipitem id="clipitem-551" premiereChannelType="stereo">
						<masterclipid>masterclip-87</masterclipid>
						<name>ZCAM0087_5351_combined_3d180_05_18_2018__17_47_46.mp4</name>
						<enabled>TRUE</enabled>
						<duration>18018</duration>
						<rate>
							<timebase>60</timebase>
							<ntsc>FALSE</ntsc>
						</rate>
						<start>41737</start>
						<end>42923</end>
						<in>16832</in>
						<out>18018</out>
						<pproTicksIn>71259955200000</pproTicksIn>
						<pproTicksOut>76281004800000</pproTicksOut>
						<pixelaspectratio>square</pixelaspectratio>
						<anamorphic>FALSE</anamorphic>
						<file id="file-87">
							<name>ZCAM0087_5351_combined_3d180_05_18_2018__17_47_46.mp4</name>
							<pathurl>file://localhost/G%3a/Departments/_Post/__Projects/035_Chimps_Part_2/1.Raw/Ingest/project_chimps_20180508/Zcam_K1/video/v_02/201805081135/ZCAM0087_5351/ZCAM0087_5351_combined_3d180_05_18_2018__17_47_46.mp4</pathurl>
							<rate>
								<timebase>30</timebase>
								<ntsc>TRUE</ntsc>
							</rate>
							<duration>9000</duration>
							<timecode>
								<rate>
									<timebase>30</timebase>
									<ntsc>TRUE</ntsc>
								</rate>
								<string>00:00:00:00</string>
								<frame>0</frame>
								<displayformat>NDF</displayformat>
							</timecode>
							<media>
								<video>
									<samplecharacteristics>
										<rate>
											<timebase>30</timebase>
											<ntsc>TRUE</ntsc>
										</rate>
										<width>2048</width>
										<height>4096</height>
										<anamorphic>FALSE</anamorphic>
										<pixelaspectratio>square</pixelaspectratio>
										<fielddominance>none</fielddominance>
									</samplecharacteristics>
								</video>
								<audio>
									<samplecharacteristics>
										<depth>16</depth>
										<samplerate>48000</samplerate>
									</samplecharacteristics>
									<channelcount>2</channelcount>
								</audio>
							</media>
						</file>
						<sourcetrack>
							<mediatype>audio</mediatype>
							<trackindex>1</trackindex>
						</sourcetrack>
						<link>
							<linkclipref>clipitem-551</linkclipref>
							<mediatype>audio</mediatype>
							<trackindex>1</trackindex>
							<clipindex>12</clipindex>
							<groupindex>1</groupindex>
						</link>
						<link>
							<linkclipref>clipitem-558</linkclipref>
							<mediatype>audio</mediatype>
							<trackindex>2</trackindex>
							<clipindex>5</clipindex>
							<groupindex>1</groupindex>
						</link>
						<logginginfo>
							<description></description>
							<scene></scene>
							<shottake></shottake>
							<lognote></lognote>
							<good></good>
							<originalvideofilename></originalvideofilename>
							<originalaudiofilename></originalaudiofilename>
						</logginginfo>
						<colorinfo>
							<lut></lut>
							<lut1></lut1>
							<asc_sop></asc_sop>
							<asc_sat></asc_sat>
							<lut2></lut2>
						</colorinfo>
						<labels>
							<label2>Mango</label2>
						</labels>
					</clipitem>
					<clipitem id="clipitem-552" premiereChannelType="stereo">
						<masterclipid>masterclip-88</masterclipid>
						<name>ZCAM0088_5351_combined_3d180_05_18_2018__18_05_09.mp4</name>
						<enabled>TRUE</enabled>
						<duration>18018</duration>
						<rate>
							<timebase>60</timebase>
							<ntsc>FALSE</ntsc>
						</rate>
						<start>42923</start>
						<end>45259</end>
						<in>0</in>
						<out>2336</out>
						<pproTicksIn>0</pproTicksIn>
						<pproTicksOut>9889689600000</pproTicksOut>
						<pixelaspectratio>square</pixelaspectratio>
						<anamorphic>FALSE</anamorphic>
						<file id="file-88">
							<name>ZCAM0088_5351_combined_3d180_05_18_2018__18_05_09.mp4</name>
							<pathurl>file://localhost/G%3a/Departments/_Post/__Projects/035_Chimps_Part_2/1.Raw/Ingest/project_chimps_20180508/Zcam_K1/video/v_02/201805081135/ZCAM0088_5351/ZCAM0088_5351_combined_3d180_05_18_2018__18_05_09.mp4</pathurl>
							<rate>
								<timebase>30</timebase>
								<ntsc>TRUE</ntsc>
							</rate>
							<duration>9000</duration>
							<timecode>
								<rate>
									<timebase>30</timebase>
									<ntsc>TRUE</ntsc>
								</rate>
								<string>00:00:00:00</string>
								<frame>0</frame>
								<displayformat>NDF</displayformat>
							</timecode>
							<media>
								<video>
									<samplecharacteristics>
										<rate>
											<timebase>30</timebase>
											<ntsc>TRUE</ntsc>
										</rate>
										<width>2048</width>
										<height>4096</height>
										<anamorphic>FALSE</anamorphic>
										<pixelaspectratio>square</pixelaspectratio>
										<fielddominance>none</fielddominance>
									</samplecharacteristics>
								</video>
								<audio>
									<samplecharacteristics>
										<depth>16</depth>
										<samplerate>48000</samplerate>
									</samplecharacteristics>
									<channelcount>2</channelcount>
								</audio>
							</media>
						</file>
						<sourcetrack>
							<mediatype>audio</mediatype>
							<trackindex>1</trackindex>
						</sourcetrack>
						<link>
							<linkclipref>clipitem-552</linkclipref>
							<mediatype>audio</mediatype>
							<trackindex>1</trackindex>
							<clipindex>13</clipindex>
							<groupindex>1</groupindex>
						</link>
						<link>
							<linkclipref>clipitem-559</linkclipref>
							<mediatype>audio</mediatype>
							<trackindex>2</trackindex>
							<clipindex>6</clipindex>
							<groupindex>1</groupindex>
						</link>
						<logginginfo>
							<description></description>
							<scene></scene>
							<shottake></shottake>
							<lognote></lognote>
							<good></good>
							<originalvideofilename></originalvideofilename>
							<originalaudiofilename></originalaudiofilename>
						</logginginfo>
						<colorinfo>
							<lut></lut>
							<lut1></lut1>
							<asc_sop></asc_sop>
							<asc_sat></asc_sat>
							<lut2></lut2>
						</colorinfo>
						<labels>
							<label2>Mango</label2>
						</labels>
					</clipitem>
					<clipitem id="clipitem-553" premiereChannelType="mono">
						<masterclipid>masterclip-89</masterclipid>
						<name>0001_20180508_115309_07_60FPS_AUDIO.mp4</name>
						<enabled>TRUE</enabled>
						<duration>10800</duration>
						<rate>
							<timebase>60</timebase>
							<ntsc>FALSE</ntsc>
						</rate>
						<start>45259</start>
						<end>47170</end>
						<in>8687</in>
						<out>10598</out>
						<pproTicksIn>36777283200000</pproTicksIn>
						<pproTicksOut>44867692800000</pproTicksOut>
						<pixelaspectratio>square</pixelaspectratio>
						<anamorphic>FALSE</anamorphic>
						<file id="file-89">
							<name>0001_20180508_115309_07_60FPS_AUDIO.mp4</name>
							<pathurl>file://localhost/G%3a/Departments/_Post/__Projects/035_Chimps_Part_2/1.Raw/Ingest/project_chimps_20180508/Kandao/video/07/0001_20180508_115309_07_60FPS_AUDIO.mp4</pathurl>
							<rate>
								<timebase>60</timebase>
								<ntsc>FALSE</ntsc>
							</rate>
							<duration>10800</duration>
							<timecode>
								<rate>
									<timebase>60</timebase>
									<ntsc>FALSE</ntsc>
								</rate>
								<string>00:00:00:00</string>
								<frame>0</frame>
								<displayformat>NDF</displayformat>
							</timecode>
							<media>
								<video>
									<samplecharacteristics>
										<rate>
											<timebase>60</timebase>
											<ntsc>FALSE</ntsc>
										</rate>
										<width>3840</width>
										<height>3840</height>
										<anamorphic>FALSE</anamorphic>
										<pixelaspectratio>square</pixelaspectratio>
										<fielddominance>none</fielddominance>
									</samplecharacteristics>
								</video>
								<audio>
									<samplecharacteristics>
										<depth>16</depth>
										<samplerate>48000</samplerate>
									</samplecharacteristics>
									<channelcount>1</channelcount>
									<audiochannel>
										<sourcechannel>1</sourcechannel>
									</audiochannel>
								</audio>
							</media>
						</file>
						<sourcetrack>
							<mediatype>audio</mediatype>
							<trackindex>1</trackindex>
						</sourcetrack>
						<logginginfo>
							<description></description>
							<scene></scene>
							<shottake></shottake>
							<lognote></lognote>
							<good></good>
							<originalvideofilename></originalvideofilename>
							<originalaudiofilename></originalaudiofilename>
						</logginginfo>
						<colorinfo>
							<lut></lut>
							<lut1></lut1>
							<asc_sop></asc_sop>
							<asc_sat></asc_sat>
							<lut2></lut2>
						</colorinfo>
						<labels>
							<label2>Blue</label2>
						</labels>
					</clipitem>
					<enabled>FALSE</enabled>
					<locked>FALSE</locked>
					<outputchannelindex>1</outputchannelindex>
				</track>
				<track TL.SQTrackAudioKeyframeStyle="0" TL.SQTrackShy="0" TL.SQTrackExpandedHeight="15" TL.SQTrackExpanded="0" MZ.TrackTargeted="1" PannerCurrentValue="0.5" PannerIsInverted="true" PannerStartKeyframe="-91445760000000000,0.5,0,0,0,0,0,0" PannerName="Balance" currentExplodedTrackIndex="1" totalExplodedTrackCount="2" premiereTrackType="SixteenChannel">
					<clipitem id="clipitem-554" premiereChannelType="stereo">
						<masterclipid>masterclip-81</masterclipid>
						<name>ZCAM0080_5351_combined_3d180_05_18_2018__15_01_25.mp4</name>
						<enabled>TRUE</enabled>
						<duration>18018</duration>
						<rate>
							<timebase>60</timebase>
							<ntsc>FALSE</ntsc>
						</rate>
						<start>9885</start>
						<end>11444</end>
						<in>16459</in>
						<out>18018</out>
						<pproTicksIn>69680822400000</pproTicksIn>
						<pproTicksOut>76281004800000</pproTicksOut>
						<file id="file-81"/>
						<sourcetrack>
							<mediatype>audio</mediatype>
							<trackindex>2</trackindex>
						</sourcetrack>
						<link>
							<linkclipref>clipitem-542</linkclipref>
							<mediatype>audio</mediatype>
							<trackindex>1</trackindex>
							<clipindex>3</clipindex>
							<groupindex>1</groupindex>
						</link>
						<link>
							<linkclipref>clipitem-554</linkclipref>
							<mediatype>audio</mediatype>
							<trackindex>2</trackindex>
							<clipindex>1</clipindex>
							<groupindex>1</groupindex>
						</link>
						<logginginfo>
							<description></description>
							<scene></scene>
							<shottake></shottake>
							<lognote></lognote>
							<good></good>
							<originalvideofilename></originalvideofilename>
							<originalaudiofilename></originalaudiofilename>
						</logginginfo>
						<colorinfo>
							<lut></lut>
							<lut1></lut1>
							<asc_sop></asc_sop>
							<asc_sat></asc_sat>
							<lut2></lut2>
						</colorinfo>
						<labels>
							<label2>Mango</label2>
						</labels>
					</clipitem>
					<clipitem id="clipitem-555" premiereChannelType="stereo">
						<masterclipid>masterclip-82</masterclipid>
						<name>ZCAM0081_5351_combined_3d180_05_18_2018__15_22_36.mp4</name>
						<enabled>TRUE</enabled>
						<duration>18018</duration>
						<rate>
							<timebase>60</timebase>
							<ntsc>FALSE</ntsc>
						</rate>
						<start>11444</start>
						<end>19881</end>
						<in>0</in>
						<out>8437</out>
						<pproTicksIn>0</pproTicksIn>
						<pproTicksOut>35718883200000</pproTicksOut>
						<file id="file-82"/>
						<sourcetrack>
							<mediatype>audio</mediatype>
							<trackindex>2</trackindex>
						</sourcetrack>
						<link>
							<linkclipref>clipitem-543</linkclipref>
							<mediatype>audio</mediatype>
							<trackindex>1</trackindex>
							<clipindex>4</clipindex>
							<groupindex>1</groupindex>
						</link>
						<link>
							<linkclipref>clipitem-555</linkclipref>
							<mediatype>audio</mediatype>
							<trackindex>2</trackindex>
							<clipindex>2</clipindex>
							<groupindex>1</groupindex>
						</link>
						<logginginfo>
							<description></description>
							<scene></scene>
							<shottake></shottake>
							<lognote></lognote>
							<good></good>
							<originalvideofilename></originalvideofilename>
							<originalaudiofilename></originalaudiofilename>
						</logginginfo>
						<colorinfo>
							<lut></lut>
							<lut1></lut1>
							<asc_sop></asc_sop>
							<asc_sat></asc_sat>
							<lut2></lut2>
						</colorinfo>
						<labels>
							<label2>Mango</label2>
						</labels>
					</clipitem>
					<clipitem id="clipitem-556" premiereChannelType="stereo">
						<masterclipid>masterclip-82</masterclipid>
						<name>ZCAM0081_5351_combined_3d180_05_18_2018__15_22_36.mp4</name>
						<enabled>TRUE</enabled>
						<duration>18018</duration>
						<rate>
							<timebase>60</timebase>
							<ntsc>FALSE</ntsc>
						</rate>
						<start>22866</start>
						<end>29015</end>
						<in>11663</in>
						<out>17812</out>
						<pproTicksIn>49376476800000</pproTicksIn>
						<pproTicksOut>75408883200000</pproTicksOut>
						<file id="file-82"/>
						<sourcetrack>
							<mediatype>audio</mediatype>
							<trackindex>2</trackindex>
						</sourcetrack>
						<link>
							<linkclipref>clipitem-545</linkclipref>
							<mediatype>audio</mediatype>
							<trackindex>1</trackindex>
							<clipindex>6</clipindex>
							<groupindex>1</groupindex>
						</link>
						<link>
							<linkclipref>clipitem-556</linkclipref>
							<mediatype>audio</mediatype>
							<trackindex>2</trackindex>
							<clipindex>3</clipindex>
							<groupindex>1</groupindex>
						</link>
						<logginginfo>
							<description></description>
							<scene></scene>
							<shottake></shottake>
							<lognote></lognote>
							<good></good>
							<originalvideofilename></originalvideofilename>
							<originalaudiofilename></originalaudiofilename>
						</logginginfo>
						<colorinfo>
							<lut></lut>
							<lut1></lut1>
							<asc_sop></asc_sop>
							<asc_sat></asc_sat>
							<lut2></lut2>
						</colorinfo>
						<labels>
							<label2>Rose</label2>
						</labels>
					</clipitem>
					<clipitem id="clipitem-557" premiereChannelType="stereo">
						<masterclipid>masterclip-84</masterclipid>
						<name>ZCAM0084_5351_combined_3d180_05_18_2018__16_27_09.mp4</name>
						<enabled>TRUE</enabled>
						<duration>18018</duration>
						<rate>
							<timebase>60</timebase>
							<ntsc>FALSE</ntsc>
						</rate>
						<start>31825</start>
						<end>38170</end>
						<in>3793</in>
						<out>10138</out>
						<pproTicksIn>16058044800000</pproTicksIn>
						<pproTicksOut>42920236800000</pproTicksOut>
						<file id="file-84"/>
						<sourcetrack>
							<mediatype>audio</mediatype>
							<trackindex>2</trackindex>
						</sourcetrack>
						<link>
							<linkclipref>clipitem-548</linkclipref>
							<mediatype>audio</mediatype>
							<trackindex>1</trackindex>
							<clipindex>9</clipindex>
							<groupindex>1</groupindex>
						</link>
						<link>
							<linkclipref>clipitem-557</linkclipref>
							<mediatype>audio</mediatype>
							<trackindex>2</trackindex>
							<clipindex>4</clipindex>
							<groupindex>1</groupindex>
						</link>
						<logginginfo>
							<description></description>
							<scene></scene>
							<shottake></shottake>
							<lognote></lognote>
							<good></good>
							<originalvideofilename></originalvideofilename>
							<originalaudiofilename></originalaudiofilename>
						</logginginfo>
						<colorinfo>
							<lut></lut>
							<lut1></lut1>
							<asc_sop></asc_sop>
							<asc_sat></asc_sat>
							<lut2></lut2>
						</colorinfo>
						<labels>
							<label2>Mango</label2>
						</labels>
					</clipitem>
					<clipitem id="clipitem-558" premiereChannelType="stereo">
						<masterclipid>masterclip-87</masterclipid>
						<name>ZCAM0087_5351_combined_3d180_05_18_2018__17_47_46.mp4</name>
						<enabled>TRUE</enabled>
						<duration>18018</duration>
						<rate>
							<timebase>60</timebase>
							<ntsc>FALSE</ntsc>
						</rate>
						<start>41737</start>
						<end>42923</end>
						<in>16832</in>
						<out>18018</out>
						<pproTicksIn>71259955200000</pproTicksIn>
						<pproTicksOut>76281004800000</pproTicksOut>
						<file id="file-87"/>
						<sourcetrack>
							<mediatype>audio</mediatype>
							<trackindex>2</trackindex>
						</sourcetrack>
						<link>
							<linkclipref>clipitem-551</linkclipref>
							<mediatype>audio</mediatype>
							<trackindex>1</trackindex>
							<clipindex>12</clipindex>
							<groupindex>1</groupindex>
						</link>
						<link>
							<linkclipref>clipitem-558</linkclipref>
							<mediatype>audio</mediatype>
							<trackindex>2</trackindex>
							<clipindex>5</clipindex>
							<groupindex>1</groupindex>
						</link>
						<logginginfo>
							<description></description>
							<scene></scene>
							<shottake></shottake>
							<lognote></lognote>
							<good></good>
							<originalvideofilename></originalvideofilename>
							<originalaudiofilename></originalaudiofilename>
						</logginginfo>
						<colorinfo>
							<lut></lut>
							<lut1></lut1>
							<asc_sop></asc_sop>
							<asc_sat></asc_sat>
							<lut2></lut2>
						</colorinfo>
						<labels>
							<label2>Mango</label2>
						</labels>
					</clipitem>
					<clipitem id="clipitem-559" premiereChannelType="stereo">
						<masterclipid>masterclip-88</masterclipid>
						<name>ZCAM0088_5351_combined_3d180_05_18_2018__18_05_09.mp4</name>
						<enabled>TRUE</enabled>
						<duration>18018</duration>
						<rate>
							<timebase>60</timebase>
							<ntsc>FALSE</ntsc>
						</rate>
						<start>42923</start>
						<end>45259</end>
						<in>0</in>
						<out>2336</out>
						<pproTicksIn>0</pproTicksIn>
						<pproTicksOut>9889689600000</pproTicksOut>
						<file id="file-88"/>
						<sourcetrack>
							<mediatype>audio</mediatype>
							<trackindex>2</trackindex>
						</sourcetrack>
						<link>
							<linkclipref>clipitem-552</linkclipref>
							<mediatype>audio</mediatype>
							<trackindex>1</trackindex>
							<clipindex>13</clipindex>
							<groupindex>1</groupindex>
						</link>
						<link>
							<linkclipref>clipitem-559</linkclipref>
							<mediatype>audio</mediatype>
							<trackindex>2</trackindex>
							<clipindex>6</clipindex>
							<groupindex>1</groupindex>
						</link>
						<logginginfo>
							<description></description>
							<scene></scene>
							<shottake></shottake>
							<lognote></lognote>
							<good></good>
							<originalvideofilename></originalvideofilename>
							<originalaudiofilename></originalaudiofilename>
						</logginginfo>
						<colorinfo>
							<lut></lut>
							<lut1></lut1>
							<asc_sop></asc_sop>
							<asc_sat></asc_sat>
							<lut2></lut2>
						</colorinfo>
						<labels>
							<label2>Mango</label2>
						</labels>
					</clipitem>
					<enabled>FALSE</enabled>
					<locked>FALSE</locked>
					<outputchannelindex>2</outputchannelindex>
				</track>
				<track TL.SQTrackAudioKeyframeStyle="0" TL.SQTrackShy="0" TL.SQTrackExpandedHeight="15" TL.SQTrackExpanded="0" MZ.TrackTargeted="1" PannerCurrentValue="0.5" PannerIsInverted="true" PannerStartKeyframe="-91445760000000000,0.5,0,0,0,0,0,0" PannerName="Balance" currentExplodedTrackIndex="0" totalExplodedTrackCount="4" premiereTrackType="SixteenChannel">
					<clipitem id="clipitem-560" premiereChannelType="adaptive">
						<masterclipid>masterclip-90</masterclipid>
						<name>SR001_ambiX.wav</name>
						<enabled>TRUE</enabled>
						<duration>134521</duration>
						<rate>
							<timebase>60</timebase>
							<ntsc>FALSE</ntsc>
						</rate>
						<start>228</start>
						<end>3739</end>
						<in>6425</in>
						<out>9936</out>
						<pproTicksIn>27200880000000</pproTicksIn>
						<pproTicksOut>42065049600000</pproTicksOut>
						<file id="file-90">
							<name>SR001_ambiX.wav</name>
							<pathurl>file://localhost/G%3a/Departments/_Post/__Projects/035_Chimps_Part_2/1.Raw/Ingest/project_chimps_20180508/Kandao/audio/4CH/FOLDER01/SR001_ambiX.wav</pathurl>
							<rate>
								<timebase>30</timebase>
								<ntsc>TRUE</ntsc>
							</rate>
							<duration>67193</duration>
							<timecode>
								<rate>
									<timebase>30</timebase>
									<ntsc>TRUE</ntsc>
								</rate>
								<string>00;00;00;00</string>
								<frame>0</frame>
								<displayformat>DF</displayformat>
							</timecode>
							<media>
								<audio>
									<samplecharacteristics>
										<depth>16</depth>
										<samplerate>48000</samplerate>
									</samplecharacteristics>
								</audio>
							</media>
						</file>
						<sourcetrack>
							<mediatype>audio</mediatype>
							<trackindex>1</trackindex>
						</sourcetrack>
						<filter>
							<effect>
								<name>Gain</name>
								<effectid>{61756678, 4761696e, 4b657947}</effectid>
								<effecttype>filter</effecttype>
								<mediatype>audio</mediatype>
								<parameter authoringApp="PremierePro">
									<parameterid>Gain(dB)</parameterid>
									<name>Gain(dB)</name>
									<valuemin>-96</valuemin>
									<valuemax>96</valuemax>
									<value>2</value>
								</parameter>
							</effect>
						</filter>
						<filter>
							<effect>
								<name>Audio Levels</name>
								<effectid>audiolevels</effectid>
								<effectcategory>audiolevels</effectcategory>
								<effecttype>audiolevels</effecttype>
								<mediatype>audio</mediatype>
								<pproBypass>false</pproBypass>
								<parameter authoringApp="PremierePro">
									<parameterid>level</parameterid>
									<name>Level</name>
									<valuemin>0</valuemin>
									<valuemax>3.98109</valuemax>
									<value>2</value>
								</parameter>
							</effect>
						</filter>
						<link>
							<linkclipref>clipitem-560</linkclipref>
							<mediatype>audio</mediatype>
							<trackindex>3</trackindex>
							<clipindex>1</clipindex>
							<groupindex>1</groupindex>
						</link>
						<link>
							<linkclipref>clipitem-574</linkclipref>
							<mediatype>audio</mediatype>
							<trackindex>4</trackindex>
							<clipindex>1</clipindex>
							<groupindex>1</groupindex>
						</link>
						<link>
							<linkclipref>clipitem-588</linkclipref>
							<mediatype>audio</mediatype>
							<trackindex>5</trackindex>
							<clipindex>1</clipindex>
							<groupindex>1</groupindex>
						</link>
						<link>
							<linkclipref>clipitem-600</linkclipref>
							<mediatype>audio</mediatype>
							<trackindex>6</trackindex>
							<clipindex>1</clipindex>
							<groupindex>1</groupindex>
						</link>
						<logginginfo>
							<description></description>
							<scene></scene>
							<shottake></shottake>
							<lognote></lognote>
							<good></good>
							<originalvideofilename></originalvideofilename>
							<originalaudiofilename></originalaudiofilename>
						</logginginfo>
						<colorinfo>
							<lut></lut>
							<lut1></lut1>
							<asc_sop></asc_sop>
							<asc_sat></asc_sat>
							<lut2></lut2>
						</colorinfo>
						<labels>
							<label2>Blue</label2>
						</labels>
					</clipitem>
					<clipitem id="clipitem-561" premiereChannelType="adaptive">
						<masterclipid>masterclip-90</masterclipid>
						<name>SR001_ambiX.wav</name>
						<enabled>TRUE</enabled>
						<duration>134521</duration>
						<rate>
							<timebase>60</timebase>
							<ntsc>FALSE</ntsc>
						</rate>
						<start>3739</start>
						<end>7105</end>
						<in>9936</in>
						<out>13302</out>
						<pproTicksIn>42065049600000</pproTicksIn>
						<pproTicksOut>56315347200000</pproTicksOut>
						<file id="file-90"/>
						<sourcetrack>
							<mediatype>audio</mediatype>
							<trackindex>1</trackindex>
						</sourcetrack>
						<filter>
							<effect>
								<name>Gain</name>
								<effectid>{61756678, 4761696e, 4b657947}</effectid>
								<effecttype>filter</effecttype>
								<mediatype>audio</mediatype>
								<parameter authoringApp="PremierePro">
									<parameterid>Gain(dB)</parameterid>
									<name>Gain(dB)</name>
									<valuemin>-96</valuemin>
									<valuemax>96</valuemax>
									<value>2</value>
								</parameter>
							</effect>
						</filter>
						<filter>
							<effect>
								<name>Audio Levels</name>
								<effectid>audiolevels</effectid>
								<effectcategory>audiolevels</effectcategory>
								<effecttype>audiolevels</effecttype>
								<mediatype>audio</mediatype>
								<pproBypass>false</pproBypass>
								<parameter authoringApp="PremierePro">
									<parameterid>level</parameterid>
									<name>Level</name>
									<valuemin>0</valuemin>
									<valuemax>3.98109</valuemax>
									<value>2</value>
								</parameter>
							</effect>
						</filter>
						<link>
							<linkclipref>clipitem-561</linkclipref>
							<mediatype>audio</mediatype>
							<trackindex>3</trackindex>
							<clipindex>2</clipindex>
							<groupindex>1</groupindex>
						</link>
						<link>
							<linkclipref>clipitem-575</linkclipref>
							<mediatype>audio</mediatype>
							<trackindex>4</trackindex>
							<clipindex>2</clipindex>
							<groupindex>1</groupindex>
						</link>
						<link>
							<linkclipref>clipitem-589</linkclipref>
							<mediatype>audio</mediatype>
							<trackindex>5</trackindex>
							<clipindex>2</clipindex>
							<groupindex>1</groupindex>
						</link>
						<link>
							<linkclipref>clipitem-601</linkclipref>
							<mediatype>audio</mediatype>
							<trackindex>6</trackindex>
							<clipindex>2</clipindex>
							<groupindex>1</groupindex>
						</link>
						<logginginfo>
							<description></description>
							<scene></scene>
							<shottake></shottake>
							<lognote></lognote>
							<good></good>
							<originalvideofilename></originalvideofilename>
							<originalaudiofilename></originalaudiofilename>
						</logginginfo>
						<colorinfo>
							<lut></lut>
							<lut1></lut1>
							<asc_sop></asc_sop>
							<asc_sat></asc_sat>
							<lut2></lut2>
						</colorinfo>
						<labels>
							<label2>Blue</label2>
						</labels>
					</clipitem>
					<clipitem id="clipitem-562" premiereChannelType="adaptive">
						<masterclipid>masterclip-90</masterclipid>
						<name>SR001_ambiX.wav</name>
						<enabled>TRUE</enabled>
						<duration>134521</duration>
						<rate>
							<timebase>60</timebase>
							<ntsc>FALSE</ntsc>
						</rate>
						<start>7105</start>
						<end>9116</end>
						<in>13302</in>
						<out>15313</out>
						<pproTicksIn>56315347200000</pproTicksIn>
						<pproTicksOut>64829116800000</pproTicksOut>
						<file id="file-90"/>
						<sourcetrack>
							<mediatype>audio</mediatype>
							<trackindex>1</trackindex>
						</sourcetrack>
						<filter>
							<effect>
								<name>Gain</name>
								<effectid>{61756678, 4761696e, 4b657947}</effectid>
								<effecttype>filter</effecttype>
								<mediatype>audio</mediatype>
								<parameter authoringApp="PremierePro">
									<parameterid>Gain(dB)</parameterid>
									<name>Gain(dB)</name>
									<valuemin>-96</valuemin>
									<valuemax>96</valuemax>
									<value>2</value>
								</parameter>
							</effect>
						</filter>
						<filter>
							<effect>
								<name>Audio Levels</name>
								<effectid>audiolevels</effectid>
								<effectcategory>audiolevels</effectcategory>
								<effecttype>audiolevels</effecttype>
								<mediatype>audio</mediatype>
								<pproBypass>false</pproBypass>
								<parameter authoringApp="PremierePro">
									<parameterid>level</parameterid>
									<name>Level</name>
									<valuemin>0</valuemin>
									<valuemax>3.98109</valuemax>
									<value>2</value>
								</parameter>
							</effect>
						</filter>
						<link>
							<linkclipref>clipitem-562</linkclipref>
							<mediatype>audio</mediatype>
							<trackindex>3</trackindex>
							<clipindex>3</clipindex>
							<groupindex>1</groupindex>
						</link>
						<link>
							<linkclipref>clipitem-576</linkclipref>
							<mediatype>audio</mediatype>
							<trackindex>4</trackindex>
							<clipindex>3</clipindex>
							<groupindex>1</groupindex>
						</link>
						<link>
							<linkclipref>clipitem-590</linkclipref>
							<mediatype>audio</mediatype>
							<trackindex>5</trackindex>
							<clipindex>3</clipindex>
							<groupindex>1</groupindex>
						</link>
						<link>
							<linkclipref>clipitem-602</linkclipref>
							<mediatype>audio</mediatype>
							<trackindex>6</trackindex>
							<clipindex>3</clipindex>
							<groupindex>1</groupindex>
						</link>
						<logginginfo>
							<description></description>
							<scene></scene>
							<shottake></shottake>
							<lognote></lognote>
							<good></good>
							<originalvideofilename></originalvideofilename>
							<originalaudiofilename></originalaudiofilename>
						</logginginfo>
						<colorinfo>
							<lut></lut>
							<lut1></lut1>
							<asc_sop></asc_sop>
							<asc_sat></asc_sat>
							<lut2></lut2>
						</colorinfo>
						<labels>
							<label2>Blue</label2>
						</labels>
					</clipitem>
					<clipitem id="clipitem-563" premiereChannelType="adaptive">
						<masterclipid>masterclip-90</masterclipid>
						<name>SR001_ambiX.wav</name>
						<enabled>TRUE</enabled>
						<duration>134521</duration>
						<rate>
							<timebase>60</timebase>
							<ntsc>FALSE</ntsc>
						</rate>
						<start>9116</start>
						<end>9885</end>
						<in>15313</in>
						<out>16082</out>
						<pproTicksIn>64829116800000</pproTicksIn>
						<pproTicksOut>68084755200000</pproTicksOut>
						<file id="file-90"/>
						<sourcetrack>
							<mediatype>audio</mediatype>
							<trackindex>1</trackindex>
						</sourcetrack>
						<filter>
							<effect>
								<name>Gain</name>
								<effectid>{61756678, 4761696e, 4b657947}</effectid>
								<effecttype>filter</effecttype>
								<mediatype>audio</mediatype>
								<parameter authoringApp="PremierePro">
									<parameterid>Gain(dB)</parameterid>
									<name>Gain(dB)</name>
									<valuemin>-96</valuemin>
									<valuemax>96</valuemax>
									<value>2</value>
								</parameter>
							</effect>
						</filter>
						<filter>
							<effect>
								<name>Audio Levels</name>
								<effectid>audiolevels</effectid>
								<effectcategory>audiolevels</effectcategory>
								<effecttype>audiolevels</effecttype>
								<mediatype>audio</mediatype>
								<pproBypass>false</pproBypass>
								<parameter authoringApp="PremierePro">
									<parameterid>level</parameterid>
									<name>Level</name>
									<valuemin>0</valuemin>
									<valuemax>3.98109</valuemax>
									<value>1</value>
									<keyframe>
										<when>15498</when>
										<value>2</value>
									</keyframe>
									<keyframe>
										<when>15575</when>
										<value>1</value>
									</keyframe>
								</parameter>
							</effect>
						</filter>
						<link>
							<linkclipref>clipitem-563</linkclipref>
							<mediatype>audio</mediatype>
							<trackindex>3</trackindex>
							<clipindex>4</clipindex>
							<groupindex>1</groupindex>
						</link>
						<link>
							<linkclipref>clipitem-577</linkclipref>
							<mediatype>audio</mediatype>
							<trackindex>4</trackindex>
							<clipindex>4</clipindex>
							<groupindex>1</groupindex>
						</link>
						<link>
							<linkclipref>clipitem-591</linkclipref>
							<mediatype>audio</mediatype>
							<trackindex>5</trackindex>
							<clipindex>4</clipindex>
							<groupindex>1</groupindex>
						</link>
						<link>
							<linkclipref>clipitem-603</linkclipref>
							<mediatype>audio</mediatype>
							<trackindex>6</trackindex>
							<clipindex>4</clipindex>
							<groupindex>1</groupindex>
						</link>
						<logginginfo>
							<description></description>
							<scene></scene>
							<shottake></shottake>
							<lognote></lognote>
							<good></good>
							<originalvideofilename></originalvideofilename>
							<originalaudiofilename></originalaudiofilename>
						</logginginfo>
						<colorinfo>
							<lut></lut>
							<lut1></lut1>
							<asc_sop></asc_sop>
							<asc_sat></asc_sat>
							<lut2></lut2>
						</colorinfo>
						<labels>
							<label2>Blue</label2>
						</labels>
					</clipitem>
					<clipitem id="clipitem-564" premiereChannelType="adaptive">
						<masterclipid>masterclip-91</masterclipid>
						<name>SR001_ambiX.wav</name>
						<enabled>TRUE</enabled>
						<duration>447365</duration>
						<rate>
							<timebase>60</timebase>
							<ntsc>FALSE</ntsc>
						</rate>
						<start>9885</start>
						<end>19881</end>
						<in>69497</in>
						<out>79493</out>
						<pproTicksIn>294222499200000</pproTicksIn>
						<pproTicksOut>336541564800000</pproTicksOut>
						<file id="file-91">
							<name>SR001_ambiX.wav</name>
							<pathurl>file://localhost/G%3a/Departments/_Post/__Projects/035_Chimps_Part_2/1.Raw/Ingest/project_chimps_20180508/Zcam_K1/audio/4CH/FOLDER01/SR001_ambiX.wav</pathurl>
							<rate>
								<timebase>30</timebase>
								<ntsc>TRUE</ntsc>
							</rate>
							<duration>223459</duration>
							<timecode>
								<rate>
									<timebase>30</timebase>
									<ntsc>TRUE</ntsc>
								</rate>
								<string>00;43;58;24</string>
								<frame>79086</frame>
								<displayformat>DF</displayformat>
							</timecode>
							<media>
								<audio>
									<samplecharacteristics>
										<depth>16</depth>
										<samplerate>48000</samplerate>
									</samplecharacteristics>
								</audio>
							</media>
						</file>
						<sourcetrack>
							<mediatype>audio</mediatype>
							<trackindex>1</trackindex>
						</sourcetrack>
						<filter>
							<effect>
								<name>Audio Levels</name>
								<effectid>audiolevels</effectid>
								<effectcategory>audiolevels</effectcategory>
								<effecttype>audiolevels</effecttype>
								<mediatype>audio</mediatype>
								<pproBypass>false</pproBypass>
								<parameter authoringApp="PremierePro">
									<parameterid>level</parameterid>
									<name>Level</name>
									<valuemin>0</valuemin>
									<valuemax>3.98109</valuemax>
									<value>1</value>
									<keyframe>
										<when>68590</when>
										<value>2</value>
									</keyframe>
									<keyframe>
										<when>68934</when>
										<value>1</value>
									</keyframe>
									<keyframe>
										<when>70180</when>
										<value>1</value>
									</keyframe>
									<keyframe>
										<when>70317</when>
										<value>0.438596</value>
									</keyframe>
									<keyframe>
										<when>70640</when>
										<value>0.438596</value>
									</keyframe>
									<keyframe>
										<when>70737</when>
										<value>0.719298</value>
									</keyframe>
									<keyframe>
										<when>71049</when>
										<value>0.719298</value>
									</keyframe>
									<keyframe>
										<when>71325</when>
										<value>1</value>
									</keyframe>
									<keyframe>
										<when>72428</when>
										<value>1</value>
									</keyframe>
									<keyframe>
										<when>72575</when>
										<value>0.649123</value>
									</keyframe>
									<keyframe>
										<when>73412</when>
										<value>0.649123</value>
									</keyframe>
									<keyframe>
										<when>73533</when>
										<value>1</value>
									</keyframe>
									<keyframe>
										<when>77304</when>
										<value>1</value>
									</keyframe>
									<keyframe>
										<when>77451</when>
										<value>0.684211</value>
									</keyframe>
									<keyframe>
										<when>79230</when>
										<value>0.684211</value>
									</keyframe>
									<keyframe>
										<when>79296</when>
										<value>1</value>
									</keyframe>
								</parameter>
							</effect>
						</filter>
						<link>
							<linkclipref>clipitem-564</linkclipref>
							<mediatype>audio</mediatype>
							<trackindex>3</trackindex>
							<clipindex>5</clipindex>
							<groupindex>1</groupindex>
						</link>
						<link>
							<linkclipref>clipitem-578</linkclipref>
							<mediatype>audio</mediatype>
							<trackindex>4</trackindex>
							<clipindex>5</clipindex>
							<groupindex>1</groupindex>
						</link>
						<link>
							<linkclipref>clipitem-592</linkclipref>
							<mediatype>audio</mediatype>
							<trackindex>5</trackindex>
							<clipindex>5</clipindex>
							<groupindex>1</groupindex>
						</link>
						<link>
							<linkclipref>clipitem-604</linkclipref>
							<mediatype>audio</mediatype>
							<trackindex>6</trackindex>
							<clipindex>5</clipindex>
							<groupindex>1</groupindex>
						</link>
						<logginginfo>
							<description></description>
							<scene></scene>
							<shottake></shottake>
							<lognote></lognote>
							<good></good>
							<originalvideofilename></originalvideofilename>
							<originalaudiofilename></originalaudiofilename>
						</logginginfo>
						<colorinfo>
							<lut></lut>
							<lut1></lut1>
							<asc_sop></asc_sop>
							<asc_sat></asc_sat>
							<lut2></lut2>
						</colorinfo>
						<labels>
							<label2>Mango</label2>
						</labels>
					</clipitem>
					<clipitem id="clipitem-565" premiereChannelType="adaptive">
						<masterclipid>masterclip-90</masterclipid>
						<name>SR001_ambiX.wav</name>
						<enabled>TRUE</enabled>
						<duration>134521</duration>
						<rate>
							<timebase>60</timebase>
							<ntsc>FALSE</ntsc>
						</rate>
						<start>19881</start>
						<end>-1</end>
						<in>26324</in>
						<out>29310</out>
						<pproTicksIn>111445286400000</pproTicksIn>
						<pproTicksOut>124086816000000</pproTicksOut>
						<file id="file-90"/>
						<sourcetrack>
							<mediatype>audio</mediatype>
							<trackindex>1</trackindex>
						</sourcetrack>
						<filter>
							<effect>
								<name>Gain</name>
								<effectid>{61756678, 4761696e, 4b657947}</effectid>
								<effecttype>filter</effecttype>
								<mediatype>audio</mediatype>
								<parameter authoringApp="PremierePro">
									<parameterid>Gain(dB)</parameterid>
									<name>Gain(dB)</name>
									<valuemin>-96</valuemin>
									<valuemax>96</valuemax>
									<value>9</value>
								</parameter>
							</effect>
						</filter>
						<filter>
							<effect>
								<name>Audio Levels</name>
								<effectid>audiolevels</effectid>
								<effectcategory>audiolevels</effectcategory>
								<effecttype>audiolevels</effecttype>
								<mediatype>audio</mediatype>
								<pproBypass>false</pproBypass>
								<parameter authoringApp="PremierePro">
									<parameterid>level</parameterid>
									<name>Level</name>
									<valuemin>0</valuemin>
									<valuemax>3.98109</valuemax>
									<value>1</value>
									<keyframe>
										<when>29808</when>
										<value>1</value>
									</keyframe>
									<keyframe>
										<when>29988</when>
										<value>0</value>
									</keyframe>
								</parameter>
							</effect>
						</filter>
						<link>
							<linkclipref>clipitem-565</linkclipref>
							<mediatype>audio</mediatype>
							<trackindex>3</trackindex>
							<clipindex>6</clipindex>
							<groupindex>1</groupindex>
						</link>
						<link>
							<linkclipref>clipitem-579</linkclipref>
							<mediatype>audio</mediatype>
							<trackindex>4</trackindex>
							<clipindex>6</clipindex>
							<groupindex>1</groupindex>
						</link>
						<link>
							<linkclipref>clipitem-593</linkclipref>
							<mediatype>audio</mediatype>
							<trackindex>5</trackindex>
							<clipindex>6</clipindex>
							<groupindex>1</groupindex>
						</link>
						<link>
							<linkclipref>clipitem-605</linkclipref>
							<mediatype>audio</mediatype>
							<trackindex>6</trackindex>
							<clipindex>6</clipindex>
							<groupindex>1</groupindex>
						</link>
						<logginginfo>
							<description></description>
							<scene></scene>
							<shottake></shottake>
							<lognote></lognote>
							<good></good>
							<originalvideofilename></originalvideofilename>
							<originalaudiofilename></originalaudiofilename>
						</logginginfo>
						<colorinfo>
							<lut></lut>
							<lut1></lut1>
							<asc_sop></asc_sop>
							<asc_sat></asc_sat>
							<lut2></lut2>
						</colorinfo>
						<labels>
							<label2>Blue</label2>
						</labels>
					</clipitem>
					<transitionitem>
						<start>22865</start>
						<end>22867</end>
						<alignment>center</alignment>
						<cutPointTicks>4233600000</cutPointTicks>
						<rate>
							<timebase>60</timebase>
							<ntsc>FALSE</ntsc>
						</rate>
						<effect>
							<name>Cross Fade (+3dB)</name>
							<effectid>KGAudioTransCrossFade3dB</effectid>
							<effecttype>transition</effecttype>
							<mediatype>audio</mediatype>
							<wipecode>0</wipecode>
							<wipeaccuracy>100</wipeaccuracy>
							<startratio>0</startratio>
							<endratio>1</endratio>
							<reverse>FALSE</reverse>
						</effect>
					</transitionitem>
					<clipitem id="clipitem-566" premiereChannelType="adaptive">
						<masterclipid>masterclip-91</masterclipid>
						<name>SR001_ambiX.wav</name>
						<enabled>TRUE</enabled>
						<duration>447365</duration>
						<rate>
							<timebase>60</timebase>
							<ntsc>FALSE</ntsc>
						</rate>
						<start>-1</start>
						<end>29015</end>
						<in>82718</in>
						<out>88868</out>
						<pproTicksIn>350194924800000</pproTicksIn>
						<pproTicksOut>376231564800000</pproTicksOut>
						<file id="file-91"/>
						<sourcetrack>
							<mediatype>audio</mediatype>
							<trackindex>1</trackindex>
						</sourcetrack>
						<filter>
							<effect>
								<name>Gain</name>
								<effectid>{61756678, 4761696e, 4b657947}</effectid>
								<effecttype>filter</effecttype>
								<mediatype>audio</mediatype>
								<parameter authoringApp="PremierePro">
									<parameterid>Gain(dB)</parameterid>
									<name>Gain(dB)</name>
									<valuemin>-96</valuemin>
									<valuemax>96</valuemax>
									<value>16</value>
								</parameter>
							</effect>
						</filter>
						<filter>
							<effect>
								<name>Audio Levels</name>
								<effectid>audiolevels</effectid>
								<effectcategory>audiolevels</effectcategory>
								<effecttype>audiolevels</effecttype>
								<mediatype>audio</mediatype>
								<pproBypass>false</pproBypass>
								<parameter authoringApp="PremierePro">
									<parameterid>level</parameterid>
									<name>Level</name>
									<valuemin>0</valuemin>
									<valuemax>3.98109</valuemax>
									<value>2</value>
									<keyframe>
										<when>68590</when>
										<value>2</value>
									</keyframe>
									<keyframe>
										<when>68934</when>
										<value>1</value>
									</keyframe>
									<keyframe>
										<when>70180</when>
										<value>1</value>
									</keyframe>
									<keyframe>
										<when>70317</when>
										<value>0.719298</value>
									</keyframe>
									<keyframe>
										<when>71049</when>
										<value>0.719298</value>
									</keyframe>
									<keyframe>
										<when>71325</when>
										<value>1</value>
									</keyframe>
								</parameter>
							</effect>
						</filter>
						<link>
							<linkclipref>clipitem-566</linkclipref>
							<mediatype>audio</mediatype>
							<trackindex>3</trackindex>
							<clipindex>8</clipindex>
							<groupindex>1</groupindex>
						</link>
						<link>
							<linkclipref>clipitem-580</linkclipref>
							<mediatype>audio</mediatype>
							<trackindex>4</trackindex>
							<clipindex>8</clipindex>
							<groupindex>1</groupindex>
						</link>
						<link>
							<linkclipref>clipitem-594</linkclipref>
							<mediatype>audio</mediatype>
							<trackindex>5</trackindex>
							<clipindex>8</clipindex>
							<groupindex>1</groupindex>
						</link>
						<link>
							<linkclipref>clipitem-606</linkclipref>
							<mediatype>audio</mediatype>
							<trackindex>6</trackindex>
							<clipindex>8</clipindex>
							<groupindex>1</groupindex>
						</link>
						<logginginfo>
							<description></description>
							<scene></scene>
							<shottake></shottake>
							<lognote></lognote>
							<good></good>
							<originalvideofilename></originalvideofilename>
							<originalaudiofilename></originalaudiofilename>
						</logginginfo>
						<colorinfo>
							<lut></lut>
							<lut1></lut1>
							<asc_sop></asc_sop>
							<asc_sat></asc_sat>
							<lut2></lut2>
						</colorinfo>
						<labels>
							<label2>Mango</label2>
						</labels>
					</clipitem>
					<clipitem id="clipitem-567" premiereChannelType="adaptive">
						<masterclipid>masterclip-90</masterclipid>
						<name>SR001_ambiX.wav</name>
						<enabled>TRUE</enabled>
						<duration>134521</duration>
						<rate>
							<timebase>60</timebase>
							<ntsc>FALSE</ntsc>
						</rate>
						<start>29015</start>
						<end>29561</end>
						<in>46257</in>
						<out>46803</out>
						<pproTicksIn>195833635200000</pproTicksIn>
						<pproTicksOut>198145180800000</pproTicksOut>
						<file id="file-90"/>
						<sourcetrack>
							<mediatype>audio</mediatype>
							<trackindex>1</trackindex>
						</sourcetrack>
						<filter>
							<effect>
								<name>Gain</name>
								<effectid>{61756678, 4761696e, 4b657947}</effectid>
								<effecttype>filter</effecttype>
								<mediatype>audio</mediatype>
								<parameter authoringApp="PremierePro">
									<parameterid>Gain(dB)</parameterid>
									<name>Gain(dB)</name>
									<valuemin>-96</valuemin>
									<valuemax>96</valuemax>
									<value>2</value>
								</parameter>
							</effect>
						</filter>
						<link>
							<linkclipref>clipitem-567</linkclipref>
							<mediatype>audio</mediatype>
							<trackindex>3</trackindex>
							<clipindex>9</clipindex>
							<groupindex>1</groupindex>
						</link>
						<link>
							<linkclipref>clipitem-581</linkclipref>
							<mediatype>audio</mediatype>
							<trackindex>4</trackindex>
							<clipindex>9</clipindex>
							<groupindex>1</groupindex>
						</link>
						<link>
							<linkclipref>clipitem-595</linkclipref>
							<mediatype>audio</mediatype>
							<trackindex>5</trackindex>
							<clipindex>9</clipindex>
							<groupindex>1</groupindex>
						</link>
						<link>
							<linkclipref>clipitem-607</linkclipref>
							<mediatype>audio</mediatype>
							<trackindex>6</trackindex>
							<clipindex>9</clipindex>
							<groupindex>1</groupindex>
						</link>
						<logginginfo>
							<description></description>
							<scene></scene>
							<shottake></shottake>
							<lognote></lognote>
							<good></good>
							<originalvideofilename></originalvideofilename>
							<originalaudiofilename></originalaudiofilename>
						</logginginfo>
						<colorinfo>
							<lut></lut>
							<lut1></lut1>
							<asc_sop></asc_sop>
							<asc_sat></asc_sat>
							<lut2></lut2>
						</colorinfo>
						<labels>
							<label2>Blue</label2>
						</labels>
					</clipitem>
					<clipitem id="clipitem-568" premiereChannelType="adaptive">
						<masterclipid>masterclip-91</masterclipid>
						<name>SR001_ambiX.wav</name>
						<enabled>TRUE</enabled>
						<duration>447365</duration>
						<rate>
							<timebase>60</timebase>
							<ntsc>FALSE</ntsc>
						</rate>
						<start>31825</start>
						<end>38170</end>
						<in>128903</in>
						<out>135248</out>
						<pproTicksIn>545723740800000</pproTicksIn>
						<pproTicksOut>572585932800000</pproTicksOut>
						<file id="file-91"/>
						<sourcetrack>
							<mediatype>audio</mediatype>
							<trackindex>1</trackindex>
						</sourcetrack>
						<filter>
							<effect>
								<name>Gain</name>
								<effectid>{61756678, 4761696e, 4b657947}</effectid>
								<effecttype>filter</effecttype>
								<mediatype>audio</mediatype>
								<parameter authoringApp="PremierePro">
									<parameterid>Gain(dB)</parameterid>
									<name>Gain(dB)</name>
									<valuemin>-96</valuemin>
									<valuemax>96</valuemax>
									<value>1</value>
								</parameter>
							</effect>
						</filter>
						<filter>
							<effect>
								<name>Audio Levels</name>
								<effectid>audiolevels</effectid>
								<effectcategory>audiolevels</effectcategory>
								<effecttype>audiolevels</effecttype>
								<mediatype>audio</mediatype>
								<pproBypass>false</pproBypass>
								<parameter authoringApp="PremierePro">
									<parameterid>level</parameterid>
									<name>Level</name>
									<valuemin>0</valuemin>
									<valuemax>3.98109</valuemax>
									<value>2</value>
									<keyframe>
										<when>68590</when>
										<value>2</value>
									</keyframe>
									<keyframe>
										<when>68934</when>
										<value>1</value>
									</keyframe>
									<keyframe>
										<when>70180</when>
										<value>1</value>
									</keyframe>
									<keyframe>
										<when>70317</when>
										<value>0.719298</value>
									</keyframe>
									<keyframe>
										<when>71049</when>
										<value>0.719298</value>
									</keyframe>
									<keyframe>
										<when>71325</when>
										<value>1</value>
									</keyframe>
								</parameter>
							</effect>
						</filter>
						<link>
							<linkclipref>clipitem-568</linkclipref>
							<mediatype>audio</mediatype>
							<trackindex>3</trackindex>
							<clipindex>10</clipindex>
							<groupindex>1</groupindex>
						</link>
						<link>
							<linkclipref>clipitem-582</linkclipref>
							<mediatype>audio</mediatype>
							<trackindex>4</trackindex>
							<clipindex>10</clipindex>
							<groupindex>1</groupindex>
						</link>
						<link>
							<linkclipref>clipitem-596</linkclipref>
							<mediatype>audio</mediatype>
							<trackindex>5</trackindex>
							<clipindex>10</clipindex>
							<groupindex>1</groupindex>
						</link>
						<link>
							<linkclipref>clipitem-608</linkclipref>
							<mediatype>audio</mediatype>
							<trackindex>6</trackindex>
							<clipindex>10</clipindex>
							<groupindex>1</groupindex>
						</link>
						<logginginfo>
							<description></description>
							<scene></scene>
							<shottake></shottake>
							<lognote></lognote>
							<good></good>
							<originalvideofilename></originalvideofilename>
							<originalaudiofilename></originalaudiofilename>
						</logginginfo>
						<colorinfo>
							<lut></lut>
							<lut1></lut1>
							<asc_sop></asc_sop>
							<asc_sat></asc_sat>
							<lut2></lut2>
						</colorinfo>
						<labels>
							<label2>Mango</label2>
						</labels>
					</clipitem>
					<clipitem id="clipitem-569" premiereChannelType="adaptive">
						<masterclipid>masterclip-91</masterclipid>
						<name>SR001_ambiX.wav</name>
						<enabled>TRUE</enabled>
						<duration>447365</duration>
						<rate>
							<timebase>60</timebase>
							<ntsc>FALSE</ntsc>
						</rate>
						<start>41737</start>
						<end>45259</end>
						<in>195996</in>
						<out>199518</out>
						<pproTicksIn>829768665600000</pproTicksIn>
						<pproTicksOut>844679404800000</pproTicksOut>
						<file id="file-91"/>
						<sourcetrack>
							<mediatype>audio</mediatype>
							<trackindex>1</trackindex>
						</sourcetrack>
						<filter>
							<effect>
								<name>Gain</name>
								<effectid>{61756678, 4761696e, 4b657947}</effectid>
								<effecttype>filter</effecttype>
								<mediatype>audio</mediatype>
								<parameter authoringApp="PremierePro">
									<parameterid>Gain(dB)</parameterid>
									<name>Gain(dB)</name>
									<valuemin>-96</valuemin>
									<valuemax>96</valuemax>
									<value>16</value>
								</parameter>
							</effect>
						</filter>
						<filter>
							<effect>
								<name>Audio Levels</name>
								<effectid>audiolevels</effectid>
								<effectcategory>audiolevels</effectcategory>
								<effecttype>audiolevels</effecttype>
								<mediatype>audio</mediatype>
								<pproBypass>false</pproBypass>
								<parameter authoringApp="PremierePro">
									<parameterid>level</parameterid>
									<name>Level</name>
									<valuemin>0</valuemin>
									<valuemax>3.98109</valuemax>
									<value>2</value>
									<keyframe>
										<when>68590</when>
										<value>2</value>
									</keyframe>
									<keyframe>
										<when>68934</when>
										<value>1</value>
									</keyframe>
									<keyframe>
										<when>70180</when>
										<value>1</value>
									</keyframe>
									<keyframe>
										<when>70317</when>
										<value>0.719298</value>
									</keyframe>
									<keyframe>
										<when>71049</when>
										<value>0.719298</value>
									</keyframe>
									<keyframe>
										<when>71325</when>
										<value>2</value>
									</keyframe>
									<keyframe>
										<when>195996</when>
										<value>0</value>
									</keyframe>
									<keyframe>
										<when>196190</when>
										<value>2</value>
									</keyframe>
									<keyframe>
										<when>196499</when>
										<value>2</value>
									</keyframe>
									<keyframe>
										<when>196703</when>
										<value>1</value>
									</keyframe>
									<keyframe>
										<when>197508</when>
										<value>1</value>
									</keyframe>
									<keyframe>
										<when>197653</when>
										<value>0.54386</value>
									</keyframe>
									<keyframe>
										<when>197755</when>
										<value>0.54386</value>
									</keyframe>
									<keyframe>
										<when>197917</when>
										<value>1</value>
									</keyframe>
								</parameter>
							</effect>
						</filter>
						<link>
							<linkclipref>clipitem-569</linkclipref>
							<mediatype>audio</mediatype>
							<trackindex>3</trackindex>
							<clipindex>11</clipindex>
							<groupindex>1</groupindex>
						</link>
						<link>
							<linkclipref>clipitem-583</linkclipref>
							<mediatype>audio</mediatype>
							<trackindex>4</trackindex>
							<clipindex>11</clipindex>
							<groupindex>1</groupindex>
						</link>
						<link>
							<linkclipref>clipitem-597</linkclipref>
							<mediatype>audio</mediatype>
							<trackindex>5</trackindex>
							<clipindex>11</clipindex>
							<groupindex>1</groupindex>
						</link>
						<link>
							<linkclipref>clipitem-609</linkclipref>
							<mediatype>audio</mediatype>
							<trackindex>6</trackindex>
							<clipindex>11</clipindex>
							<groupindex>1</groupindex>
						</link>
						<logginginfo>
							<description></description>
							<scene></scene>
							<shottake></shottake>
							<lognote></lognote>
							<good></good>
							<originalvideofilename></originalvideofilename>
							<originalaudiofilename></originalaudiofilename>
						</logginginfo>
						<colorinfo>
							<lut></lut>
							<lut1></lut1>
							<asc_sop></asc_sop>
							<asc_sat></asc_sat>
							<lut2></lut2>
						</colorinfo>
						<labels>
							<label2>Mango</label2>
						</labels>
					</clipitem>
					<clipitem id="clipitem-570" premiereChannelType="adaptive">
						<masterclipid>masterclip-90</masterclipid>
						<name>SR001_ambiX.wav</name>
						<enabled>TRUE</enabled>
						<duration>134521</duration>
						<rate>
							<timebase>60</timebase>
							<ntsc>FALSE</ntsc>
						</rate>
						<start>45259</start>
						<end>47150</end>
						<in>73493</in>
						<out>75384</out>
						<pproTicksIn>311139964800000</pproTicksIn>
						<pproTicksOut>319145702400000</pproTicksOut>
						<file id="file-90"/>
						<sourcetrack>
							<mediatype>audio</mediatype>
							<trackindex>1</trackindex>
						</sourcetrack>
						<filter>
							<effect>
								<name>Gain</name>
								<effectid>{61756678, 4761696e, 4b657947}</effectid>
								<effecttype>filter</effecttype>
								<mediatype>audio</mediatype>
								<parameter authoringApp="PremierePro">
									<parameterid>Gain(dB)</parameterid>
									<name>Gain(dB)</name>
									<valuemin>-96</valuemin>
									<valuemax>96</valuemax>
									<value>2</value>
								</parameter>
							</effect>
						</filter>
						<filter>
							<effect>
								<name>Audio Levels</name>
								<effectid>audiolevels</effectid>
								<effectcategory>audiolevels</effectcategory>
								<effecttype>audiolevels</effecttype>
								<mediatype>audio</mediatype>
								<pproBypass>false</pproBypass>
								<parameter authoringApp="PremierePro">
									<parameterid>level</parameterid>
									<name>Level</name>
									<valuemin>0</valuemin>
									<valuemax>3.98109</valuemax>
									<value>1</value>
									<keyframe>
										<when>75249</when>
										<value>1</value>
									</keyframe>
									<keyframe>
										<when>75384</when>
										<value>0</value>
									</keyframe>
								</parameter>
							</effect>
						</filter>
						<link>
							<linkclipref>clipitem-570</linkclipref>
							<mediatype>audio</mediatype>
							<trackindex>3</trackindex>
							<clipindex>12</clipindex>
							<groupindex>1</groupindex>
						</link>
						<link>
							<linkclipref>clipitem-584</linkclipref>
							<mediatype>audio</mediatype>
							<trackindex>4</trackindex>
							<clipindex>12</clipindex>
							<groupindex>1</groupindex>
						</link>
						<link>
							<linkclipref>clipitem-598</linkclipref>
							<mediatype>audio</mediatype>
							<trackindex>5</trackindex>
							<clipindex>12</clipindex>
							<groupindex>1</groupindex>
						</link>
						<link>
							<linkclipref>clipitem-610</linkclipref>
							<mediatype>audio</mediatype>
							<trackindex>6</trackindex>
							<clipindex>12</clipindex>
							<groupindex>1</groupindex>
						</link>
						<logginginfo>
							<description></description>
							<scene></scene>
							<shottake></shottake>
							<lognote></lognote>
							<good></good>
							<originalvideofilename></originalvideofilename>
							<originalaudiofilename></originalaudiofilename>
						</logginginfo>
						<colorinfo>
							<lut></lut>
							<lut1></lut1>
							<asc_sop></asc_sop>
							<asc_sat></asc_sat>
							<lut2></lut2>
						</colorinfo>
						<labels>
							<label2>Blue</label2>
						</labels>
					</clipitem>
					<clipitem id="clipitem-571" premiereChannelType="adaptive">
						<masterclipid>masterclip-92</masterclipid>
						<name>SR008_ambiX.wav</name>
						<enabled>TRUE</enabled>
						<duration>447365</duration>
						<rate>
							<timebase>60</timebase>
							<ntsc>FALSE</ntsc>
						</rate>
						<start>47170</start>
						<end>55523</end>
						<in>129576</in>
						<out>137929</out>
						<pproTicksIn>548572953600000</pproTicksIn>
						<pproTicksOut>583936214400000</pproTicksOut>
						<file id="file-92">
							<name>SR008_ambiX.wav</name>
							<pathurl>file://localhost/G%3a/Departments/_Post/__Projects/035_Chimps_Part_2/1.Raw/Ingest/project_chimps_20180511/Kandao/audio/4CH/FOLDER01/SR008_ambiX.wav</pathurl>
							<rate>
								<timebase>30</timebase>
								<ntsc>TRUE</ntsc>
							</rate>
							<duration>223459</duration>
							<timecode>
								<rate>
									<timebase>30</timebase>
									<ntsc>TRUE</ntsc>
								</rate>
								<string>07;31;47;13</string>
								<frame>812411</frame>
								<displayformat>DF</displayformat>
							</timecode>
							<media>
								<audio>
									<samplecharacteristics>
										<depth>16</depth>
										<samplerate>48000</samplerate>
									</samplecharacteristics>
								</audio>
							</media>
						</file>
						<sourcetrack>
							<mediatype>audio</mediatype>
							<trackindex>1</trackindex>
						</sourcetrack>
						<filter>
							<effect>
								<name>Gain</name>
								<effectid>{61756678, 4761696e, 4b657947}</effectid>
								<effecttype>filter</effecttype>
								<mediatype>audio</mediatype>
								<parameter authoringApp="PremierePro">
									<parameterid>Gain(dB)</parameterid>
									<name>Gain(dB)</name>
									<valuemin>-96</valuemin>
									<valuemax>96</valuemax>
									<value>16</value>
								</parameter>
							</effect>
						</filter>
						<filter>
							<effect>
								<name>Audio Levels</name>
								<effectid>audiolevels</effectid>
								<effectcategory>audiolevels</effectcategory>
								<effecttype>audiolevels</effecttype>
								<mediatype>audio</mediatype>
								<pproBypass>false</pproBypass>
								<parameter authoringApp="PremierePro">
									<parameterid>level</parameterid>
									<name>Level</name>
									<valuemin>0</valuemin>
									<valuemax>3.98109</valuemax>
									<value>0</value>
									<keyframe>
										<when>129354</when>
										<value>0</value>
									</keyframe>
									<keyframe>
										<when>129574</when>
										<value>1</value>
									</keyframe>
									<keyframe>
										<when>144185</when>
										<value>1</value>
									</keyframe>
									<keyframe>
										<when>144604</when>
										<value>0</value>
									</keyframe>
									<keyframe>
										<when>154026</when>
										<value>1</value>
									</keyframe>
									<keyframe>
										<when>154214</when>
										<value>0</value>
									</keyframe>
								</parameter>
							</effect>
						</filter>
						<link>
							<linkclipref>clipitem-571</linkclipref>
							<mediatype>audio</mediatype>
							<trackindex>3</trackindex>
							<clipindex>13</clipindex>
							<groupindex>1</groupindex>
						</link>
						<link>
							<linkclipref>clipitem-585</linkclipref>
							<mediatype>audio</mediatype>
							<trackindex>4</trackindex>
							<clipindex>13</clipindex>
							<groupindex>1</groupindex>
						</link>
						<link>
							<linkclipref>clipitem-599</linkclipref>
							<mediatype>audio</mediatype>
							<trackindex>5</trackindex>
							<clipindex>13</clipindex>
							<groupindex>1</groupindex>
						</link>
						<link>
							<linkclipref>clipitem-611</linkclipref>
							<mediatype>audio</mediatype>
							<trackindex>6</trackindex>
							<clipindex>13</clipindex>
							<groupindex>1</groupindex>
						</link>
						<logginginfo>
							<description></description>
							<scene></scene>
							<shottake></shottake>
							<lognote></lognote>
							<good></good>
							<originalvideofilename></originalvideofilename>
							<originalaudiofilename></originalaudiofilename>
						</logginginfo>
						<colorinfo>
							<lut></lut>
							<lut1></lut1>
							<asc_sop></asc_sop>
							<asc_sat></asc_sat>
							<lut2></lut2>
						</colorinfo>
						<labels>
							<label2>Violet</label2>
						</labels>
					</clipitem>
					<clipitem id="clipitem-572" premiereChannelType="stereo">
						<masterclipid>masterclip-93</masterclipid>
						<name>ZCAM0139_5912_combined_3d180_05_23_2018__13_44_01.mp4</name>
						<enabled>TRUE</enabled>
						<duration>7305</duration>
						<rate>
							<timebase>60</timebase>
							<ntsc>FALSE</ntsc>
						</rate>
						<start>55523</start>
						<end>58580</end>
						<in>241</in>
						<out>3298</out>
						<pproTicksIn>1020297600000</pproTicksIn>
						<pproTicksOut>13962412800000</pproTicksOut>
						<pixelaspectratio>square</pixelaspectratio>
						<anamorphic>FALSE</anamorphic>
						<file id="file-93">
							<name>ZCAM0139_5912_combined_3d180_05_23_2018__13_44_01.mp4</name>
							<pathurl>file://localhost/G%3a/Departments/_Post/__Projects/035_Chimps_Part_2/1.Raw/Ingest/project_chimps_20180517/ZCamK1/201805171102/ZCAM0139_5912/ZCAM0139_5912_combined_3d180_05_23_2018__13_44_01.mp4</pathurl>
							<rate>
								<timebase>30</timebase>
								<ntsc>TRUE</ntsc>
							</rate>
							<duration>3649</duration>
							<timecode>
								<rate>
									<timebase>30</timebase>
									<ntsc>TRUE</ntsc>
								</rate>
								<string>00:00:00:00</string>
								<frame>0</frame>
								<displayformat>NDF</displayformat>
							</timecode>
							<media>
								<video>
									<samplecharacteristics>
										<rate>
											<timebase>30</timebase>
											<ntsc>TRUE</ntsc>
										</rate>
										<width>2048</width>
										<height>4096</height>
										<anamorphic>FALSE</anamorphic>
										<pixelaspectratio>square</pixelaspectratio>
										<fielddominance>none</fielddominance>
									</samplecharacteristics>
								</video>
								<audio>
									<samplecharacteristics>
										<depth>16</depth>
										<samplerate>48000</samplerate>
									</samplecharacteristics>
									<channelcount>2</channelcount>
								</audio>
							</media>
						</file>
						<sourcetrack>
							<mediatype>audio</mediatype>
							<trackindex>1</trackindex>
						</sourcetrack>
						<filter>
							<effect>
								<name>Audio Levels</name>
								<effectid>audiolevels</effectid>
								<effectcategory>audiolevels</effectcategory>
								<effecttype>audiolevels</effecttype>
								<mediatype>audio</mediatype>
								<pproBypass>false</pproBypass>
								<parameter authoringApp="PremierePro">
									<parameterid>level</parameterid>
									<name>Level</name>
									<valuemin>0</valuemin>
									<valuemax>3.98109</valuemax>
									<value>0</value>
									<keyframe>
										<when>0</when>
										<value>0.982456</value>
									</keyframe>
									<keyframe>
										<when>185</when>
										<value>1</value>
									</keyframe>
									<keyframe>
										<when>3288</when>
										<value>1</value>
									</keyframe>
									<keyframe>
										<when>3458</when>
										<value>0</value>
									</keyframe>
								</parameter>
							</effect>
						</filter>
						<link>
							<linkclipref>clipitem-572</linkclipref>
							<mediatype>audio</mediatype>
							<trackindex>3</trackindex>
							<clipindex>14</clipindex>
							<groupindex>1</groupindex>
						</link>
						<link>
							<linkclipref>clipitem-586</linkclipref>
							<mediatype>audio</mediatype>
							<trackindex>4</trackindex>
							<clipindex>14</clipindex>
							<groupindex>1</groupindex>
						</link>
						<logginginfo>
							<description></description>
							<scene></scene>
							<shottake></shottake>
							<lognote></lognote>
							<good></good>
							<originalvideofilename></originalvideofilename>
							<originalaudiofilename></originalaudiofilename>
						</logginginfo>
						<colorinfo>
							<lut></lut>
							<lut1></lut1>
							<asc_sop></asc_sop>
							<asc_sat></asc_sat>
							<lut2></lut2>
						</colorinfo>
						<labels>
							<label2>Teal</label2>
						</labels>
					</clipitem>
					<clipitem id="clipitem-573" premiereChannelType="stereo">
						<masterclipid>masterclip-68</masterclipid>
						<name>ZCAM0126_5509_combined_3d180_05_23_2018__13_24_31.mp4</name>
						<enabled>TRUE</enabled>
						<duration>18018</duration>
						<rate>
							<timebase>60</timebase>
							<ntsc>FALSE</ntsc>
						</rate>
						<start>58580</start>
						<end>61912</end>
						<in>7931</in>
						<out>11263</out>
						<pproTicksIn>33576681600000</pproTicksIn>
						<pproTicksOut>47683036800000</pproTicksOut>
						<file id="file-68"/>
						<sourcetrack>
							<mediatype>audio</mediatype>
							<trackindex>1</trackindex>
						</sourcetrack>
						<filter>
							<effect>
								<name>Audio Levels</name>
								<effectid>audiolevels</effectid>
								<effectcategory>audiolevels</effectcategory>
								<effecttype>audiolevels</effecttype>
								<mediatype>audio</mediatype>
								<pproBypass>false</pproBypass>
								<parameter authoringApp="PremierePro">
									<parameterid>level</parameterid>
									<name>Level</name>
									<valuemin>0</valuemin>
									<valuemax>3.98109</valuemax>
									<value>1</value>
									<keyframe>
										<when>7751</when>
										<value>0</value>
									</keyframe>
									<keyframe>
										<when>7929</when>
										<value>1</value>
									</keyframe>
									<keyframe>
										<when>10959</when>
										<value>1</value>
									</keyframe>
									<keyframe>
										<when>11212</when>
										<value>0</value>
									</keyframe>
									<keyframe>
										<when>12620</when>
										<value>1</value>
									</keyframe>
									<keyframe>
										<when>12906</when>
										<value>0</value>
									</keyframe>
									<keyframe>
										<when>12908</when>
										<value>0</value>
									</keyframe>
								</parameter>
							</effect>
						</filter>
						<link>
							<linkclipref>clipitem-573</linkclipref>
							<mediatype>audio</mediatype>
							<trackindex>3</trackindex>
							<clipindex>15</clipindex>
							<groupindex>1</groupindex>
						</link>
						<link>
							<linkclipref>clipitem-587</linkclipref>
							<mediatype>audio</mediatype>
							<trackindex>4</trackindex>
							<clipindex>15</clipindex>
							<groupindex>1</groupindex>
						</link>
						<logginginfo>
							<description></description>
							<scene></scene>
							<shottake></shottake>
							<lognote></lognote>
							<good></good>
							<originalvideofilename></originalvideofilename>
							<originalaudiofilename></originalaudiofilename>
						</logginginfo>
						<colorinfo>
							<lut></lut>
							<lut1></lut1>
							<asc_sop></asc_sop>
							<asc_sat></asc_sat>
							<lut2></lut2>
						</colorinfo>
						<labels>
							<label2>Yellow</label2>
						</labels>
					</clipitem>
					<enabled>TRUE</enabled>
					<locked>FALSE</locked>
					<outputchannelindex>1</outputchannelindex>
				</track>
				<track TL.SQTrackAudioKeyframeStyle="0" TL.SQTrackShy="0" TL.SQTrackExpandedHeight="15" TL.SQTrackExpanded="0" MZ.TrackTargeted="1" PannerCurrentValue="0.5" PannerIsInverted="true" PannerStartKeyframe="-91445760000000000,0.5,0,0,0,0,0,0" PannerName="Balance" currentExplodedTrackIndex="1" totalExplodedTrackCount="4" premiereTrackType="SixteenChannel">
					<clipitem id="clipitem-574" premiereChannelType="adaptive">
						<masterclipid>masterclip-90</masterclipid>
						<name>SR001_ambiX.wav</name>
						<enabled>TRUE</enabled>
						<duration>134521</duration>
						<rate>
							<timebase>60</timebase>
							<ntsc>FALSE</ntsc>
						</rate>
						<start>228</start>
						<end>3739</end>
						<in>6425</in>
						<out>9936</out>
						<pproTicksIn>27200880000000</pproTicksIn>
						<pproTicksOut>42065049600000</pproTicksOut>
						<file id="file-90"/>
						<sourcetrack>
							<mediatype>audio</mediatype>
							<trackindex>2</trackindex>
						</sourcetrack>
						<filter>
							<effect>
								<name>Gain</name>
								<effectid>{61756678, 4761696e, 4b657947}</effectid>
								<effecttype>filter</effecttype>
								<mediatype>audio</mediatype>
								<parameter authoringApp="PremierePro">
									<parameterid>Gain(dB)</parameterid>
									<name>Gain(dB)</name>
									<valuemin>-96</valuemin>
									<valuemax>96</valuemax>
									<value>2</value>
								</parameter>
							</effect>
						</filter>
						<filter>
							<effect>
								<name>Audio Levels</name>
								<effectid>audiolevels</effectid>
								<effectcategory>audiolevels</effectcategory>
								<effecttype>audiolevels</effecttype>
								<mediatype>audio</mediatype>
								<pproBypass>false</pproBypass>
								<parameter authoringApp="PremierePro">
									<parameterid>level</parameterid>
									<name>Level</name>
									<valuemin>0</valuemin>
									<valuemax>3.98109</valuemax>
									<value>2</value>
								</parameter>
							</effect>
						</filter>
						<link>
							<linkclipref>clipitem-560</linkclipref>
							<mediatype>audio</mediatype>
							<trackindex>3</trackindex>
							<clipindex>1</clipindex>
							<groupindex>1</groupindex>
						</link>
						<link>
							<linkclipref>clipitem-574</linkclipref>
							<mediatype>audio</mediatype>
							<trackindex>4</trackindex>
							<clipindex>1</clipindex>
							<groupindex>1</groupindex>
						</link>
						<link>
							<linkclipref>clipitem-588</linkclipref>
							<mediatype>audio</mediatype>
							<trackindex>5</trackindex>
							<clipindex>1</clipindex>
							<groupindex>1</groupindex>
						</link>
						<link>
							<linkclipref>clipitem-600</linkclipref>
							<mediatype>audio</mediatype>
							<trackindex>6</trackindex>
							<clipindex>1</clipindex>
							<groupindex>1</groupindex>
						</link>
						<logginginfo>
							<description></description>
							<scene></scene>
							<shottake></shottake>
							<lognote></lognote>
							<good></good>
							<originalvideofilename></originalvideofilename>
							<originalaudiofilename></originalaudiofilename>
						</logginginfo>
						<colorinfo>
							<lut></lut>
							<lut1></lut1>
							<asc_sop></asc_sop>
							<asc_sat></asc_sat>
							<lut2></lut2>
						</colorinfo>
						<labels>
							<label2>Blue</label2>
						</labels>
					</clipitem>
					<clipitem id="clipitem-575" premiereChannelType="adaptive">
						<masterclipid>masterclip-90</masterclipid>
						<name>SR001_ambiX.wav</name>
						<enabled>TRUE</enabled>
						<duration>134521</duration>
						<rate>
							<timebase>60</timebase>
							<ntsc>FALSE</ntsc>
						</rate>
						<start>3739</start>
						<end>7105</end>
						<in>9936</in>
						<out>13302</out>
						<pproTicksIn>42065049600000</pproTicksIn>
						<pproTicksOut>56315347200000</pproTicksOut>
						<file id="file-90"/>
						<sourcetrack>
							<mediatype>audio</mediatype>
							<trackindex>2</trackindex>
						</sourcetrack>
						<filter>
							<effect>
								<name>Gain</name>
								<effectid>{61756678, 4761696e, 4b657947}</effectid>
								<effecttype>filter</effecttype>
								<mediatype>audio</mediatype>
								<parameter authoringApp="PremierePro">
									<parameterid>Gain(dB)</parameterid>
									<name>Gain(dB)</name>
									<valuemin>-96</valuemin>
									<valuemax>96</valuemax>
									<value>2</value>
								</parameter>
							</effect>
						</filter>
						<filter>
							<effect>
								<name>Audio Levels</name>
								<effectid>audiolevels</effectid>
								<effectcategory>audiolevels</effectcategory>
								<effecttype>audiolevels</effecttype>
								<mediatype>audio</mediatype>
								<pproBypass>false</pproBypass>
								<parameter authoringApp="PremierePro">
									<parameterid>level</parameterid>
									<name>Level</name>
									<valuemin>0</valuemin>
									<valuemax>3.98109</valuemax>
									<value>2</value>
								</parameter>
							</effect>
						</filter>
						<link>
							<linkclipref>clipitem-561</linkclipref>
							<mediatype>audio</mediatype>
							<trackindex>3</trackindex>
							<clipindex>2</clipindex>
							<groupindex>1</groupindex>
						</link>
						<link>
							<linkclipref>clipitem-575</linkclipref>
							<mediatype>audio</mediatype>
							<trackindex>4</trackindex>
							<clipindex>2</clipindex>
							<groupindex>1</groupindex>
						</link>
						<link>
							<linkclipref>clipitem-589</linkclipref>
							<mediatype>audio</mediatype>
							<trackindex>5</trackindex>
							<clipindex>2</clipindex>
							<groupindex>1</groupindex>
						</link>
						<link>
							<linkclipref>clipitem-601</linkclipref>
							<mediatype>audio</mediatype>
							<trackindex>6</trackindex>
							<clipindex>2</clipindex>
							<groupindex>1</groupindex>
						</link>
						<logginginfo>
							<description></description>
							<scene></scene>
							<shottake></shottake>
							<lognote></lognote>
							<good></good>
							<originalvideofilename></originalvideofilename>
							<originalaudiofilename></originalaudiofilename>
						</logginginfo>
						<colorinfo>
							<lut></lut>
							<lut1></lut1>
							<asc_sop></asc_sop>
							<asc_sat></asc_sat>
							<lut2></lut2>
						</colorinfo>
						<labels>
							<label2>Blue</label2>
						</labels>
					</clipitem>
					<clipitem id="clipitem-576" premiereChannelType="adaptive">
						<masterclipid>masterclip-90</masterclipid>
						<name>SR001_ambiX.wav</name>
						<enabled>TRUE</enabled>
						<duration>134521</duration>
						<rate>
							<timebase>60</timebase>
							<ntsc>FALSE</ntsc>
						</rate>
						<start>7105</start>
						<end>9116</end>
						<in>13302</in>
						<out>15313</out>
						<pproTicksIn>56315347200000</pproTicksIn>
						<pproTicksOut>64829116800000</pproTicksOut>
						<file id="file-90"/>
						<sourcetrack>
							<mediatype>audio</mediatype>
							<trackindex>2</trackindex>
						</sourcetrack>
						<filter>
							<effect>
								<name>Gain</name>
								<effectid>{61756678, 4761696e, 4b657947}</effectid>
								<effecttype>filter</effecttype>
								<mediatype>audio</mediatype>
								<parameter authoringApp="PremierePro">
									<parameterid>Gain(dB)</parameterid>
									<name>Gain(dB)</name>
									<valuemin>-96</valuemin>
									<valuemax>96</valuemax>
									<value>2</value>
								</parameter>
							</effect>
						</filter>
						<filter>
							<effect>
								<name>Audio Levels</name>
								<effectid>audiolevels</effectid>
								<effectcategory>audiolevels</effectcategory>
								<effecttype>audiolevels</effecttype>
								<mediatype>audio</mediatype>
								<pproBypass>false</pproBypass>
								<parameter authoringApp="PremierePro">
									<parameterid>level</parameterid>
									<name>Level</name>
									<valuemin>0</valuemin>
									<valuemax>3.98109</valuemax>
									<value>2</value>
								</parameter>
							</effect>
						</filter>
						<link>
							<linkclipref>clipitem-562</linkclipref>
							<mediatype>audio</mediatype>
							<trackindex>3</trackindex>
							<clipindex>3</clipindex>
							<groupindex>1</groupindex>
						</link>
						<link>
							<linkclipref>clipitem-576</linkclipref>
							<mediatype>audio</mediatype>
							<trackindex>4</trackindex>
							<clipindex>3</clipindex>
							<groupindex>1</groupindex>
						</link>
						<link>
							<linkclipref>clipitem-590</linkclipref>
							<mediatype>audio</mediatype>
							<trackindex>5</trackindex>
							<clipindex>3</clipindex>
							<groupindex>1</groupindex>
						</link>
						<link>
							<linkclipref>clipitem-602</linkclipref>
							<mediatype>audio</mediatype>
							<trackindex>6</trackindex>
							<clipindex>3</clipindex>
							<groupindex>1</groupindex>
						</link>
						<logginginfo>
							<description></description>
							<scene></scene>
							<shottake></shottake>
							<lognote></lognote>
							<good></good>
							<originalvideofilename></originalvideofilename>
							<originalaudiofilename></originalaudiofilename>
						</logginginfo>
						<colorinfo>
							<lut></lut>
							<lut1></lut1>
							<asc_sop></asc_sop>
							<asc_sat></asc_sat>
							<lut2></lut2>
						</colorinfo>
						<labels>
							<label2>Blue</label2>
						</labels>
					</clipitem>
					<clipitem id="clipitem-577" premiereChannelType="adaptive">
						<masterclipid>masterclip-90</masterclipid>
						<name>SR001_ambiX.wav</name>
						<enabled>TRUE</enabled>
						<duration>134521</duration>
						<rate>
							<timebase>60</timebase>
							<ntsc>FALSE</ntsc>
						</rate>
						<start>9116</start>
						<end>9885</end>
						<in>15313</in>
						<out>16082</out>
						<pproTicksIn>64829116800000</pproTicksIn>
						<pproTicksOut>68084755200000</pproTicksOut>
						<file id="file-90"/>
						<sourcetrack>
							<mediatype>audio</mediatype>
							<trackindex>2</trackindex>
						</sourcetrack>
						<filter>
							<effect>
								<name>Gain</name>
								<effectid>{61756678, 4761696e, 4b657947}</effectid>
								<effecttype>filter</effecttype>
								<mediatype>audio</mediatype>
								<parameter authoringApp="PremierePro">
									<parameterid>Gain(dB)</parameterid>
									<name>Gain(dB)</name>
									<valuemin>-96</valuemin>
									<valuemax>96</valuemax>
									<value>2</value>
								</parameter>
							</effect>
						</filter>
						<filter>
							<effect>
								<name>Audio Levels</name>
								<effectid>audiolevels</effectid>
								<effectcategory>audiolevels</effectcategory>
								<effecttype>audiolevels</effecttype>
								<mediatype>audio</mediatype>
								<pproBypass>false</pproBypass>
								<parameter authoringApp="PremierePro">
									<parameterid>level</parameterid>
									<name>Level</name>
									<valuemin>0</valuemin>
									<valuemax>3.98109</valuemax>
									<value>1</value>
									<keyframe>
										<when>15498</when>
										<value>2</value>
									</keyframe>
									<keyframe>
										<when>15575</when>
										<value>1</value>
									</keyframe>
								</parameter>
							</effect>
						</filter>
						<link>
							<linkclipref>clipitem-563</linkclipref>
							<mediatype>audio</mediatype>
							<trackindex>3</trackindex>
							<clipindex>4</clipindex>
							<groupindex>1</groupindex>
						</link>
						<link>
							<linkclipref>clipitem-577</linkclipref>
							<mediatype>audio</mediatype>
							<trackindex>4</trackindex>
							<clipindex>4</clipindex>
							<groupindex>1</groupindex>
						</link>
						<link>
							<linkclipref>clipitem-591</linkclipref>
							<mediatype>audio</mediatype>
							<trackindex>5</trackindex>
							<clipindex>4</clipindex>
							<groupindex>1</groupindex>
						</link>
						<link>
							<linkclipref>clipitem-603</linkclipref>
							<mediatype>audio</mediatype>
							<trackindex>6</trackindex>
							<clipindex>4</clipindex>
							<groupindex>1</groupindex>
						</link>
						<logginginfo>
							<description></description>
							<scene></scene>
							<shottake></shottake>
							<lognote></lognote>
							<good></good>
							<originalvideofilename></originalvideofilename>
							<originalaudiofilename></originalaudiofilename>
						</logginginfo>
						<colorinfo>
							<lut></lut>
							<lut1></lut1>
							<asc_sop></asc_sop>
							<asc_sat></asc_sat>
							<lut2></lut2>
						</colorinfo>
						<labels>
							<label2>Blue</label2>
						</labels>
					</clipitem>
					<clipitem id="clipitem-578" premiereChannelType="adaptive">
						<masterclipid>masterclip-91</masterclipid>
						<name>SR001_ambiX.wav</name>
						<enabled>TRUE</enabled>
						<duration>447365</duration>
						<rate>
							<timebase>60</timebase>
							<ntsc>FALSE</ntsc>
						</rate>
						<start>9885</start>
						<end>19881</end>
						<in>69497</in>
						<out>79493</out>
						<pproTicksIn>294222499200000</pproTicksIn>
						<pproTicksOut>336541564800000</pproTicksOut>
						<file id="file-91"/>
						<sourcetrack>
							<mediatype>audio</mediatype>
							<trackindex>2</trackindex>
						</sourcetrack>
						<filter>
							<effect>
								<name>Audio Levels</name>
								<effectid>audiolevels</effectid>
								<effectcategory>audiolevels</effectcategory>
								<effecttype>audiolevels</effecttype>
								<mediatype>audio</mediatype>
								<pproBypass>false</pproBypass>
								<parameter authoringApp="PremierePro">
									<parameterid>level</parameterid>
									<name>Level</name>
									<valuemin>0</valuemin>
									<valuemax>3.98109</valuemax>
									<value>1</value>
									<keyframe>
										<when>68590</when>
										<value>2</value>
									</keyframe>
									<keyframe>
										<when>68934</when>
										<value>1</value>
									</keyframe>
									<keyframe>
										<when>70180</when>
										<value>1</value>
									</keyframe>
									<keyframe>
										<when>70317</when>
										<value>0.438596</value>
									</keyframe>
									<keyframe>
										<when>70640</when>
										<value>0.438596</value>
									</keyframe>
									<keyframe>
										<when>70737</when>
										<value>0.719298</value>
									</keyframe>
									<keyframe>
										<when>71049</when>
										<value>0.719298</value>
									</keyframe>
									<keyframe>
										<when>71325</when>
										<value>1</value>
									</keyframe>
									<keyframe>
										<when>72428</when>
										<value>1</value>
									</keyframe>
									<keyframe>
										<when>72575</when>
										<value>0.649123</value>
									</keyframe>
									<keyframe>
										<when>73412</when>
										<value>0.649123</value>
									</keyframe>
									<keyframe>
										<when>73533</when>
										<value>1</value>
									</keyframe>
									<keyframe>
										<when>77304</when>
										<value>1</value>
									</keyframe>
									<keyframe>
										<when>77451</when>
										<value>0.684211</value>
									</keyframe>
									<keyframe>
										<when>79230</when>
										<value>0.684211</value>
									</keyframe>
									<keyframe>
										<when>79296</when>
										<value>1</value>
									</keyframe>
								</parameter>
							</effect>
						</filter>
						<link>
							<linkclipref>clipitem-564</linkclipref>
							<mediatype>audio</mediatype>
							<trackindex>3</trackindex>
							<clipindex>5</clipindex>
							<groupindex>1</groupindex>
						</link>
						<link>
							<linkclipref>clipitem-578</linkclipref>
							<mediatype>audio</mediatype>
							<trackindex>4</trackindex>
							<clipindex>5</clipindex>
							<groupindex>1</groupindex>
						</link>
						<link>
							<linkclipref>clipitem-592</linkclipref>
							<mediatype>audio</mediatype>
							<trackindex>5</trackindex>
							<clipindex>5</clipindex>
							<groupindex>1</groupindex>
						</link>
						<link>
							<linkclipref>clipitem-604</linkclipref>
							<mediatype>audio</mediatype>
							<trackindex>6</trackindex>
							<clipindex>5</clipindex>
							<groupindex>1</groupindex>
						</link>
						<logginginfo>
							<description></description>
							<scene></scene>
							<shottake></shottake>
							<lognote></lognote>
							<good></good>
							<originalvideofilename></originalvideofilename>
							<originalaudiofilename></originalaudiofilename>
						</logginginfo>
						<colorinfo>
							<lut></lut>
							<lut1></lut1>
							<asc_sop></asc_sop>
							<asc_sat></asc_sat>
							<lut2></lut2>
						</colorinfo>
						<labels>
							<label2>Mango</label2>
						</labels>
					</clipitem>
					<clipitem id="clipitem-579" premiereChannelType="adaptive">
						<masterclipid>masterclip-90</masterclipid>
						<name>SR001_ambiX.wav</name>
						<enabled>TRUE</enabled>
						<duration>134521</duration>
						<rate>
							<timebase>60</timebase>
							<ntsc>FALSE</ntsc>
						</rate>
						<start>19881</start>
						<end>-1</end>
						<in>26324</in>
						<out>29310</out>
						<pproTicksIn>111445286400000</pproTicksIn>
						<pproTicksOut>124086816000000</pproTicksOut>
						<file id="file-90"/>
						<sourcetrack>
							<mediatype>audio</mediatype>
							<trackindex>2</trackindex>
						</sourcetrack>
						<filter>
							<effect>
								<name>Gain</name>
								<effectid>{61756678, 4761696e, 4b657947}</effectid>
								<effecttype>filter</effecttype>
								<mediatype>audio</mediatype>
								<parameter authoringApp="PremierePro">
									<parameterid>Gain(dB)</parameterid>
									<name>Gain(dB)</name>
									<valuemin>-96</valuemin>
									<valuemax>96</valuemax>
									<value>9</value>
								</parameter>
							</effect>
						</filter>
						<filter>
							<effect>
								<name>Audio Levels</name>
								<effectid>audiolevels</effectid>
								<effectcategory>audiolevels</effectcategory>
								<effecttype>audiolevels</effecttype>
								<mediatype>audio</mediatype>
								<pproBypass>false</pproBypass>
								<parameter authoringApp="PremierePro">
									<parameterid>level</parameterid>
									<name>Level</name>
									<valuemin>0</valuemin>
									<valuemax>3.98109</valuemax>
									<value>1</value>
									<keyframe>
										<when>29808</when>
										<value>1</value>
									</keyframe>
									<keyframe>
										<when>29988</when>
										<value>0</value>
									</keyframe>
								</parameter>
							</effect>
						</filter>
						<link>
							<linkclipref>clipitem-565</linkclipref>
							<mediatype>audio</mediatype>
							<trackindex>3</trackindex>
							<clipindex>6</clipindex>
							<groupindex>1</groupindex>
						</link>
						<link>
							<linkclipref>clipitem-579</linkclipref>
							<mediatype>audio</mediatype>
							<trackindex>4</trackindex>
							<clipindex>6</clipindex>
							<groupindex>1</groupindex>
						</link>
						<link>
							<linkclipref>clipitem-593</linkclipref>
							<mediatype>audio</mediatype>
							<trackindex>5</trackindex>
							<clipindex>6</clipindex>
							<groupindex>1</groupindex>
						</link>
						<link>
							<linkclipref>clipitem-605</linkclipref>
							<mediatype>audio</mediatype>
							<trackindex>6</trackindex>
							<clipindex>6</clipindex>
							<groupindex>1</groupindex>
						</link>
						<logginginfo>
							<description></description>
							<scene></scene>
							<shottake></shottake>
							<lognote></lognote>
							<good></good>
							<originalvideofilename></originalvideofilename>
							<originalaudiofilename></originalaudiofilename>
						</logginginfo>
						<colorinfo>
							<lut></lut>
							<lut1></lut1>
							<asc_sop></asc_sop>
							<asc_sat></asc_sat>
							<lut2></lut2>
						</colorinfo>
						<labels>
							<label2>Blue</label2>
						</labels>
					</clipitem>
					<transitionitem>
						<start>22865</start>
						<end>22867</end>
						<alignment>center</alignment>
						<cutPointTicks>4233600000</cutPointTicks>
						<rate>
							<timebase>60</timebase>
							<ntsc>FALSE</ntsc>
						</rate>
						<effect>
							<name>Cross Fade (+3dB)</name>
							<effectid>KGAudioTransCrossFade3dB</effectid>
							<effecttype>transition</effecttype>
							<mediatype>audio</mediatype>
							<wipecode>0</wipecode>
							<wipeaccuracy>100</wipeaccuracy>
							<startratio>0</startratio>
							<endratio>1</endratio>
							<reverse>FALSE</reverse>
						</effect>
					</transitionitem>
					<clipitem id="clipitem-580" premiereChannelType="adaptive">
						<masterclipid>masterclip-91</masterclipid>
						<name>SR001_ambiX.wav</name>
						<enabled>TRUE</enabled>
						<duration>447365</duration>
						<rate>
							<timebase>60</timebase>
							<ntsc>FALSE</ntsc>
						</rate>
						<start>-1</start>
						<end>29015</end>
						<in>82718</in>
						<out>88868</out>
						<pproTicksIn>350194924800000</pproTicksIn>
						<pproTicksOut>376231564800000</pproTicksOut>
						<file id="file-91"/>
						<sourcetrack>
							<mediatype>audio</mediatype>
							<trackindex>2</trackindex>
						</sourcetrack>
						<filter>
							<effect>
								<name>Gain</name>
								<effectid>{61756678, 4761696e, 4b657947}</effectid>
								<effecttype>filter</effecttype>
								<mediatype>audio</mediatype>
								<parameter authoringApp="PremierePro">
									<parameterid>Gain(dB)</parameterid>
									<name>Gain(dB)</name>
									<valuemin>-96</valuemin>
									<valuemax>96</valuemax>
									<value>16</value>
								</parameter>
							</effect>
						</filter>
						<filter>
							<effect>
								<name>Audio Levels</name>
								<effectid>audiolevels</effectid>
								<effectcategory>audiolevels</effectcategory>
								<effecttype>audiolevels</effecttype>
								<mediatype>audio</mediatype>
								<pproBypass>false</pproBypass>
								<parameter authoringApp="PremierePro">
									<parameterid>level</parameterid>
									<name>Level</name>
									<valuemin>0</valuemin>
									<valuemax>3.98109</valuemax>
									<value>2</value>
									<keyframe>
										<when>68590</when>
										<value>2</value>
									</keyframe>
									<keyframe>
										<when>68934</when>
										<value>1</value>
									</keyframe>
									<keyframe>
										<when>70180</when>
										<value>1</value>
									</keyframe>
									<keyframe>
										<when>70317</when>
										<value>0.719298</value>
									</keyframe>
									<keyframe>
										<when>71049</when>
										<value>0.719298</value>
									</keyframe>
									<keyframe>
										<when>71325</when>
										<value>1</value>
									</keyframe>
								</parameter>
							</effect>
						</filter>
						<link>
							<linkclipref>clipitem-566</linkclipref>
							<mediatype>audio</mediatype>
							<trackindex>3</trackindex>
							<clipindex>8</clipindex>
							<groupindex>1</groupindex>
						</link>
						<link>
							<linkclipref>clipitem-580</linkclipref>
							<mediatype>audio</mediatype>
							<trackindex>4</trackindex>
							<clipindex>8</clipindex>
							<groupindex>1</groupindex>
						</link>
						<link>
							<linkclipref>clipitem-594</linkclipref>
							<mediatype>audio</mediatype>
							<trackindex>5</trackindex>
							<clipindex>8</clipindex>
							<groupindex>1</groupindex>
						</link>
						<link>
							<linkclipref>clipitem-606</linkclipref>
							<mediatype>audio</mediatype>
							<trackindex>6</trackindex>
							<clipindex>8</clipindex>
							<groupindex>1</groupindex>
						</link>
						<logginginfo>
							<description></description>
							<scene></scene>
							<shottake></shottake>
							<lognote></lognote>
							<good></good>
							<originalvideofilename></originalvideofilename>
							<originalaudiofilename></originalaudiofilename>
						</logginginfo>
						<colorinfo>
							<lut></lut>
							<lut1></lut1>
							<asc_sop></asc_sop>
							<asc_sat></asc_sat>
							<lut2></lut2>
						</colorinfo>
						<labels>
							<label2>Mango</label2>
						</labels>
					</clipitem>
					<clipitem id="clipitem-581" premiereChannelType="adaptive">
						<masterclipid>masterclip-90</masterclipid>
						<name>SR001_ambiX.wav</name>
						<enabled>TRUE</enabled>
						<duration>134521</duration>
						<rate>
							<timebase>60</timebase>
							<ntsc>FALSE</ntsc>
						</rate>
						<start>29015</start>
						<end>29561</end>
						<in>46257</in>
						<out>46803</out>
						<pproTicksIn>195833635200000</pproTicksIn>
						<pproTicksOut>198145180800000</pproTicksOut>
						<file id="file-90"/>
						<sourcetrack>
							<mediatype>audio</mediatype>
							<trackindex>2</trackindex>
						</sourcetrack>
						<filter>
							<effect>
								<name>Gain</name>
								<effectid>{61756678, 4761696e, 4b657947}</effectid>
								<effecttype>filter</effecttype>
								<mediatype>audio</mediatype>
								<parameter authoringApp="PremierePro">
									<parameterid>Gain(dB)</parameterid>
									<name>Gain(dB)</name>
									<valuemin>-96</valuemin>
									<valuemax>96</valuemax>
									<value>2</value>
								</parameter>
							</effect>
						</filter>
						<link>
							<linkclipref>clipitem-567</linkclipref>
							<mediatype>audio</mediatype>
							<trackindex>3</trackindex>
							<clipindex>9</clipindex>
							<groupindex>1</groupindex>
						</link>
						<link>
							<linkclipref>clipitem-581</linkclipref>
							<mediatype>audio</mediatype>
							<trackindex>4</trackindex>
							<clipindex>9</clipindex>
							<groupindex>1</groupindex>
						</link>
						<link>
							<linkclipref>clipitem-595</linkclipref>
							<mediatype>audio</mediatype>
							<trackindex>5</trackindex>
							<clipindex>9</clipindex>
							<groupindex>1</groupindex>
						</link>
						<link>
							<linkclipref>clipitem-607</linkclipref>
							<mediatype>audio</mediatype>
							<trackindex>6</trackindex>
							<clipindex>9</clipindex>
							<groupindex>1</groupindex>
						</link>
						<logginginfo>
							<description></description>
							<scene></scene>
							<shottake></shottake>
							<lognote></lognote>
							<good></good>
							<originalvideofilename></originalvideofilename>
							<originalaudiofilename></originalaudiofilename>
						</logginginfo>
						<colorinfo>
							<lut></lut>
							<lut1></lut1>
							<asc_sop></asc_sop>
							<asc_sat></asc_sat>
							<lut2></lut2>
						</colorinfo>
						<labels>
							<label2>Blue</label2>
						</labels>
					</clipitem>
					<clipitem id="clipitem-582" premiereChannelType="adaptive">
						<masterclipid>masterclip-91</masterclipid>
						<name>SR001_ambiX.wav</name>
						<enabled>TRUE</enabled>
						<duration>447365</duration>
						<rate>
							<timebase>60</timebase>
							<ntsc>FALSE</ntsc>
						</rate>
						<start>31825</start>
						<end>38170</end>
						<in>128903</in>
						<out>135248</out>
						<pproTicksIn>545723740800000</pproTicksIn>
						<pproTicksOut>572585932800000</pproTicksOut>
						<file id="file-91"/>
						<sourcetrack>
							<mediatype>audio</mediatype>
							<trackindex>2</trackindex>
						</sourcetrack>
						<filter>
							<effect>
								<name>Gain</name>
								<effectid>{61756678, 4761696e, 4b657947}</effectid>
								<effecttype>filter</effecttype>
								<mediatype>audio</mediatype>
								<parameter authoringApp="PremierePro">
									<parameterid>Gain(dB)</parameterid>
									<name>Gain(dB)</name>
									<valuemin>-96</valuemin>
									<valuemax>96</valuemax>
									<value>1</value>
								</parameter>
							</effect>
						</filter>
						<filter>
							<effect>
								<name>Audio Levels</name>
								<effectid>audiolevels</effectid>
								<effectcategory>audiolevels</effectcategory>
								<effecttype>audiolevels</effecttype>
								<mediatype>audio</mediatype>
								<pproBypass>false</pproBypass>
								<parameter authoringApp="PremierePro">
									<parameterid>level</parameterid>
									<name>Level</name>
									<valuemin>0</valuemin>
									<valuemax>3.98109</valuemax>
									<value>2</value>
									<keyframe>
										<when>68590</when>
										<value>2</value>
									</keyframe>
									<keyframe>
										<when>68934</when>
										<value>1</value>
									</keyframe>
									<keyframe>
										<when>70180</when>
										<value>1</value>
									</keyframe>
									<keyframe>
										<when>70317</when>
										<value>0.719298</value>
									</keyframe>
									<keyframe>
										<when>71049</when>
										<value>0.719298</value>
									</keyframe>
									<keyframe>
										<when>71325</when>
										<value>1</value>
									</keyframe>
								</parameter>
							</effect>
						</filter>
						<link>
							<linkclipref>clipitem-568</linkclipref>
							<mediatype>audio</mediatype>
							<trackindex>3</trackindex>
							<clipindex>10</clipindex>
							<groupindex>1</groupindex>
						</link>
						<link>
							<linkclipref>clipitem-582</linkclipref>
							<mediatype>audio</mediatype>
							<trackindex>4</trackindex>
							<clipindex>10</clipindex>
							<groupindex>1</groupindex>
						</link>
						<link>
							<linkclipref>clipitem-596</linkclipref>
							<mediatype>audio</mediatype>
							<trackindex>5</trackindex>
							<clipindex>10</clipindex>
							<groupindex>1</groupindex>
						</link>
						<link>
							<linkclipref>clipitem-608</linkclipref>
							<mediatype>audio</mediatype>
							<trackindex>6</trackindex>
							<clipindex>10</clipindex>
							<groupindex>1</groupindex>
						</link>
						<logginginfo>
							<description></description>
							<scene></scene>
							<shottake></shottake>
							<lognote></lognote>
							<good></good>
							<originalvideofilename></originalvideofilename>
							<originalaudiofilename></originalaudiofilename>
						</logginginfo>
						<colorinfo>
							<lut></lut>
							<lut1></lut1>
							<asc_sop></asc_sop>
							<asc_sat></asc_sat>
							<lut2></lut2>
						</colorinfo>
						<labels>
							<label2>Mango</label2>
						</labels>
					</clipitem>
					<clipitem id="clipitem-583" premiereChannelType="adaptive">
						<masterclipid>masterclip-91</masterclipid>
						<name>SR001_ambiX.wav</name>
						<enabled>TRUE</enabled>
						<duration>447365</duration>
						<rate>
							<timebase>60</timebase>
							<ntsc>FALSE</ntsc>
						</rate>
						<start>41737</start>
						<end>45259</end>
						<in>195996</in>
						<out>199518</out>
						<pproTicksIn>829768665600000</pproTicksIn>
						<pproTicksOut>844679404800000</pproTicksOut>
						<file id="file-91"/>
						<sourcetrack>
							<mediatype>audio</mediatype>
							<trackindex>2</trackindex>
						</sourcetrack>
						<filter>
							<effect>
								<name>Gain</name>
								<effectid>{61756678, 4761696e, 4b657947}</effectid>
								<effecttype>filter</effecttype>
								<mediatype>audio</mediatype>
								<parameter authoringApp="PremierePro">
									<parameterid>Gain(dB)</parameterid>
									<name>Gain(dB)</name>
									<valuemin>-96</valuemin>
									<valuemax>96</valuemax>
									<value>16</value>
								</parameter>
							</effect>
						</filter>
						<filter>
							<effect>
								<name>Audio Levels</name>
								<effectid>audiolevels</effectid>
								<effectcategory>audiolevels</effectcategory>
								<effecttype>audiolevels</effecttype>
								<mediatype>audio</mediatype>
								<pproBypass>false</pproBypass>
								<parameter authoringApp="PremierePro">
									<parameterid>level</parameterid>
									<name>Level</name>
									<valuemin>0</valuemin>
									<valuemax>3.98109</valuemax>
									<value>2</value>
									<keyframe>
										<when>68590</when>
										<value>2</value>
									</keyframe>
									<keyframe>
										<when>68934</when>
										<value>1</value>
									</keyframe>
									<keyframe>
										<when>70180</when>
										<value>1</value>
									</keyframe>
									<keyframe>
										<when>70317</when>
										<value>0.719298</value>
									</keyframe>
									<keyframe>
										<when>71049</when>
										<value>0.719298</value>
									</keyframe>
									<keyframe>
										<when>71325</when>
										<value>2</value>
									</keyframe>
									<keyframe>
										<when>195996</when>
										<value>0</value>
									</keyframe>
									<keyframe>
										<when>196190</when>
										<value>2</value>
									</keyframe>
									<keyframe>
										<when>196499</when>
										<value>2</value>
									</keyframe>
									<keyframe>
										<when>196703</when>
										<value>1</value>
									</keyframe>
									<keyframe>
										<when>197508</when>
										<value>1</value>
									</keyframe>
									<keyframe>
										<when>197653</when>
										<value>0.54386</value>
									</keyframe>
									<keyframe>
										<when>197755</when>
										<value>0.54386</value>
									</keyframe>
									<keyframe>
										<when>197917</when>
										<value>1</value>
									</keyframe>
								</parameter>
							</effect>
						</filter>
						<link>
							<linkclipref>clipitem-569</linkclipref>
							<mediatype>audio</mediatype>
							<trackindex>3</trackindex>
							<clipindex>11</clipindex>
							<groupindex>1</groupindex>
						</link>
						<link>
							<linkclipref>clipitem-583</linkclipref>
							<mediatype>audio</mediatype>
							<trackindex>4</trackindex>
							<clipindex>11</clipindex>
							<groupindex>1</groupindex>
						</link>
						<link>
							<linkclipref>clipitem-597</linkclipref>
							<mediatype>audio</mediatype>
							<trackindex>5</trackindex>
							<clipindex>11</clipindex>
							<groupindex>1</groupindex>
						</link>
						<link>
							<linkclipref>clipitem-609</linkclipref>
							<mediatype>audio</mediatype>
							<trackindex>6</trackindex>
							<clipindex>11</clipindex>
							<groupindex>1</groupindex>
						</link>
						<logginginfo>
							<description></description>
							<scene></scene>
							<shottake></shottake>
							<lognote></lognote>
							<good></good>
							<originalvideofilename></originalvideofilename>
							<originalaudiofilename></originalaudiofilename>
						</logginginfo>
						<colorinfo>
							<lut></lut>
							<lut1></lut1>
							<asc_sop></asc_sop>
							<asc_sat></asc_sat>
							<lut2></lut2>
						</colorinfo>
						<labels>
							<label2>Mango</label2>
						</labels>
					</clipitem>
					<clipitem id="clipitem-584" premiereChannelType="adaptive">
						<masterclipid>masterclip-90</masterclipid>
						<name>SR001_ambiX.wav</name>
						<enabled>TRUE</enabled>
						<duration>134521</duration>
						<rate>
							<timebase>60</timebase>
							<ntsc>FALSE</ntsc>
						</rate>
						<start>45259</start>
						<end>47150</end>
						<in>73493</in>
						<out>75384</out>
						<pproTicksIn>311139964800000</pproTicksIn>
						<pproTicksOut>319145702400000</pproTicksOut>
						<file id="file-90"/>
						<sourcetrack>
							<mediatype>audio</mediatype>
							<trackindex>2</trackindex>
						</sourcetrack>
						<filter>
							<effect>
								<name>Gain</name>
								<effectid>{61756678, 4761696e, 4b657947}</effectid>
								<effecttype>filter</effecttype>
								<mediatype>audio</mediatype>
								<parameter authoringApp="PremierePro">
									<parameterid>Gain(dB)</parameterid>
									<name>Gain(dB)</name>
									<valuemin>-96</valuemin>
									<valuemax>96</valuemax>
									<value>2</value>
								</parameter>
							</effect>
						</filter>
						<filter>
							<effect>
								<name>Audio Levels</name>
								<effectid>audiolevels</effectid>
								<effectcategory>audiolevels</effectcategory>
								<effecttype>audiolevels</effecttype>
								<mediatype>audio</mediatype>
								<pproBypass>false</pproBypass>
								<parameter authoringApp="PremierePro">
									<parameterid>level</parameterid>
									<name>Level</name>
									<valuemin>0</valuemin>
									<valuemax>3.98109</valuemax>
									<value>1</value>
									<keyframe>
										<when>75249</when>
										<value>1</value>
									</keyframe>
									<keyframe>
										<when>75384</when>
										<value>0</value>
									</keyframe>
								</parameter>
							</effect>
						</filter>
						<link>
							<linkclipref>clipitem-570</linkclipref>
							<mediatype>audio</mediatype>
							<trackindex>3</trackindex>
							<clipindex>12</clipindex>
							<groupindex>1</groupindex>
						</link>
						<link>
							<linkclipref>clipitem-584</linkclipref>
							<mediatype>audio</mediatype>
							<trackindex>4</trackindex>
							<clipindex>12</clipindex>
							<groupindex>1</groupindex>
						</link>
						<link>
							<linkclipref>clipitem-598</linkclipref>
							<mediatype>audio</mediatype>
							<trackindex>5</trackindex>
							<clipindex>12</clipindex>
							<groupindex>1</groupindex>
						</link>
						<link>
							<linkclipref>clipitem-610</linkclipref>
							<mediatype>audio</mediatype>
							<trackindex>6</trackindex>
							<clipindex>12</clipindex>
							<groupindex>1</groupindex>
						</link>
						<logginginfo>
							<description></description>
							<scene></scene>
							<shottake></shottake>
							<lognote></lognote>
							<good></good>
							<originalvideofilename></originalvideofilename>
							<originalaudiofilename></originalaudiofilename>
						</logginginfo>
						<colorinfo>
							<lut></lut>
							<lut1></lut1>
							<asc_sop></asc_sop>
							<asc_sat></asc_sat>
							<lut2></lut2>
						</colorinfo>
						<labels>
							<label2>Blue</label2>
						</labels>
					</clipitem>
					<clipitem id="clipitem-585" premiereChannelType="adaptive">
						<masterclipid>masterclip-92</masterclipid>
						<name>SR008_ambiX.wav</name>
						<enabled>TRUE</enabled>
						<duration>447365</duration>
						<rate>
							<timebase>60</timebase>
							<ntsc>FALSE</ntsc>
						</rate>
						<start>47170</start>
						<end>55523</end>
						<in>129576</in>
						<out>137929</out>
						<pproTicksIn>548572953600000</pproTicksIn>
						<pproTicksOut>583936214400000</pproTicksOut>
						<file id="file-92"/>
						<sourcetrack>
							<mediatype>audio</mediatype>
							<trackindex>2</trackindex>
						</sourcetrack>
						<filter>
							<effect>
								<name>Gain</name>
								<effectid>{61756678, 4761696e, 4b657947}</effectid>
								<effecttype>filter</effecttype>
								<mediatype>audio</mediatype>
								<parameter authoringApp="PremierePro">
									<parameterid>Gain(dB)</parameterid>
									<name>Gain(dB)</name>
									<valuemin>-96</valuemin>
									<valuemax>96</valuemax>
									<value>16</value>
								</parameter>
							</effect>
						</filter>
						<filter>
							<effect>
								<name>Audio Levels</name>
								<effectid>audiolevels</effectid>
								<effectcategory>audiolevels</effectcategory>
								<effecttype>audiolevels</effecttype>
								<mediatype>audio</mediatype>
								<pproBypass>false</pproBypass>
								<parameter authoringApp="PremierePro">
									<parameterid>level</parameterid>
									<name>Level</name>
									<valuemin>0</valuemin>
									<valuemax>3.98109</valuemax>
									<value>0</value>
									<keyframe>
										<when>129354</when>
										<value>0</value>
									</keyframe>
									<keyframe>
										<when>129574</when>
										<value>1</value>
									</keyframe>
									<keyframe>
										<when>144185</when>
										<value>1</value>
									</keyframe>
									<keyframe>
										<when>144604</when>
										<value>0</value>
									</keyframe>
									<keyframe>
										<when>154026</when>
										<value>1</value>
									</keyframe>
									<keyframe>
										<when>154214</when>
										<value>0</value>
									</keyframe>
								</parameter>
							</effect>
						</filter>
						<link>
							<linkclipref>clipitem-571</linkclipref>
							<mediatype>audio</mediatype>
							<trackindex>3</trackindex>
							<clipindex>13</clipindex>
							<groupindex>1</groupindex>
						</link>
						<link>
							<linkclipref>clipitem-585</linkclipref>
							<mediatype>audio</mediatype>
							<trackindex>4</trackindex>
							<clipindex>13</clipindex>
							<groupindex>1</groupindex>
						</link>
						<link>
							<linkclipref>clipitem-599</linkclipref>
							<mediatype>audio</mediatype>
							<trackindex>5</trackindex>
							<clipindex>13</clipindex>
							<groupindex>1</groupindex>
						</link>
						<link>
							<linkclipref>clipitem-611</linkclipref>
							<mediatype>audio</mediatype>
							<trackindex>6</trackindex>
							<clipindex>13</clipindex>
							<groupindex>1</groupindex>
						</link>
						<logginginfo>
							<description></description>
							<scene></scene>
							<shottake></shottake>
							<lognote></lognote>
							<good></good>
							<originalvideofilename></originalvideofilename>
							<originalaudiofilename></originalaudiofilename>
						</logginginfo>
						<colorinfo>
							<lut></lut>
							<lut1></lut1>
							<asc_sop></asc_sop>
							<asc_sat></asc_sat>
							<lut2></lut2>
						</colorinfo>
						<labels>
							<label2>Violet</label2>
						</labels>
					</clipitem>
					<clipitem id="clipitem-586" premiereChannelType="stereo">
						<masterclipid>masterclip-93</masterclipid>
						<name>ZCAM0139_5912_combined_3d180_05_23_2018__13_44_01.mp4</name>
						<enabled>TRUE</enabled>
						<duration>7305</duration>
						<rate>
							<timebase>60</timebase>
							<ntsc>FALSE</ntsc>
						</rate>
						<start>55523</start>
						<end>58580</end>
						<in>241</in>
						<out>3298</out>
						<pproTicksIn>1020297600000</pproTicksIn>
						<pproTicksOut>13962412800000</pproTicksOut>
						<file id="file-93"/>
						<sourcetrack>
							<mediatype>audio</mediatype>
							<trackindex>2</trackindex>
						</sourcetrack>
						<filter>
							<effect>
								<name>Audio Levels</name>
								<effectid>audiolevels</effectid>
								<effectcategory>audiolevels</effectcategory>
								<effecttype>audiolevels</effecttype>
								<mediatype>audio</mediatype>
								<pproBypass>false</pproBypass>
								<parameter authoringApp="PremierePro">
									<parameterid>level</parameterid>
									<name>Level</name>
									<valuemin>0</valuemin>
									<valuemax>3.98109</valuemax>
									<value>0</value>
									<keyframe>
										<when>0</when>
										<value>0.982456</value>
									</keyframe>
									<keyframe>
										<when>185</when>
										<value>1</value>
									</keyframe>
									<keyframe>
										<when>3288</when>
										<value>1</value>
									</keyframe>
									<keyframe>
										<when>3458</when>
										<value>0</value>
									</keyframe>
								</parameter>
							</effect>
						</filter>
						<link>
							<linkclipref>clipitem-572</linkclipref>
							<mediatype>audio</mediatype>
							<trackindex>3</trackindex>
							<clipindex>14</clipindex>
							<groupindex>1</groupindex>
						</link>
						<link>
							<linkclipref>clipitem-586</linkclipref>
							<mediatype>audio</mediatype>
							<trackindex>4</trackindex>
							<clipindex>14</clipindex>
							<groupindex>1</groupindex>
						</link>
						<logginginfo>
							<description></description>
							<scene></scene>
							<shottake></shottake>
							<lognote></lognote>
							<good></good>
							<originalvideofilename></originalvideofilename>
							<originalaudiofilename></originalaudiofilename>
						</logginginfo>
						<colorinfo>
							<lut></lut>
							<lut1></lut1>
							<asc_sop></asc_sop>
							<asc_sat></asc_sat>
							<lut2></lut2>
						</colorinfo>
						<labels>
							<label2>Teal</label2>
						</labels>
					</clipitem>
					<clipitem id="clipitem-587" premiereChannelType="stereo">
						<masterclipid>masterclip-68</masterclipid>
						<name>ZCAM0126_5509_combined_3d180_05_23_2018__13_24_31.mp4</name>
						<enabled>TRUE</enabled>
						<duration>18018</duration>
						<rate>
							<timebase>60</timebase>
							<ntsc>FALSE</ntsc>
						</rate>
						<start>58580</start>
						<end>61912</end>
						<in>7931</in>
						<out>11263</out>
						<pproTicksIn>33576681600000</pproTicksIn>
						<pproTicksOut>47683036800000</pproTicksOut>
						<file id="file-68"/>
						<sourcetrack>
							<mediatype>audio</mediatype>
							<trackindex>2</trackindex>
						</sourcetrack>
						<filter>
							<effect>
								<name>Audio Levels</name>
								<effectid>audiolevels</effectid>
								<effectcategory>audiolevels</effectcategory>
								<effecttype>audiolevels</effecttype>
								<mediatype>audio</mediatype>
								<pproBypass>false</pproBypass>
								<parameter authoringApp="PremierePro">
									<parameterid>level</parameterid>
									<name>Level</name>
									<valuemin>0</valuemin>
									<valuemax>3.98109</valuemax>
									<value>1</value>
									<keyframe>
										<when>7751</when>
										<value>0</value>
									</keyframe>
									<keyframe>
										<when>7929</when>
										<value>1</value>
									</keyframe>
									<keyframe>
										<when>10959</when>
										<value>1</value>
									</keyframe>
									<keyframe>
										<when>11212</when>
										<value>0</value>
									</keyframe>
									<keyframe>
										<when>12620</when>
										<value>1</value>
									</keyframe>
									<keyframe>
										<when>12906</when>
										<value>0</value>
									</keyframe>
									<keyframe>
										<when>12908</when>
										<value>0</value>
									</keyframe>
								</parameter>
							</effect>
						</filter>
						<link>
							<linkclipref>clipitem-573</linkclipref>
							<mediatype>audio</mediatype>
							<trackindex>3</trackindex>
							<clipindex>15</clipindex>
							<groupindex>1</groupindex>
						</link>
						<link>
							<linkclipref>clipitem-587</linkclipref>
							<mediatype>audio</mediatype>
							<trackindex>4</trackindex>
							<clipindex>15</clipindex>
							<groupindex>1</groupindex>
						</link>
						<logginginfo>
							<description></description>
							<scene></scene>
							<shottake></shottake>
							<lognote></lognote>
							<good></good>
							<originalvideofilename></originalvideofilename>
							<originalaudiofilename></originalaudiofilename>
						</logginginfo>
						<colorinfo>
							<lut></lut>
							<lut1></lut1>
							<asc_sop></asc_sop>
							<asc_sat></asc_sat>
							<lut2></lut2>
						</colorinfo>
						<labels>
							<label2>Yellow</label2>
						</labels>
					</clipitem>
					<enabled>TRUE</enabled>
					<locked>FALSE</locked>
					<outputchannelindex>2</outputchannelindex>
				</track>
				<track TL.SQTrackAudioKeyframeStyle="0" TL.SQTrackShy="0" TL.SQTrackExpandedHeight="15" TL.SQTrackExpanded="0" MZ.TrackTargeted="1" PannerCurrentValue="0.5" PannerIsInverted="true" PannerStartKeyframe="-91445760000000000,0.5,0,0,0,0,0,0" PannerName="Balance" currentExplodedTrackIndex="2" totalExplodedTrackCount="4" premiereTrackType="SixteenChannel">
					<clipitem id="clipitem-588" premiereChannelType="adaptive">
						<masterclipid>masterclip-90</masterclipid>
						<name>SR001_ambiX.wav</name>
						<enabled>TRUE</enabled>
						<duration>134521</duration>
						<rate>
							<timebase>60</timebase>
							<ntsc>FALSE</ntsc>
						</rate>
						<start>228</start>
						<end>3739</end>
						<in>6425</in>
						<out>9936</out>
						<pproTicksIn>27200880000000</pproTicksIn>
						<pproTicksOut>42065049600000</pproTicksOut>
						<file id="file-90"/>
						<sourcetrack>
							<mediatype>audio</mediatype>
							<trackindex>3</trackindex>
						</sourcetrack>
						<filter>
							<effect>
								<name>Gain</name>
								<effectid>{61756678, 4761696e, 4b657947}</effectid>
								<effecttype>filter</effecttype>
								<mediatype>audio</mediatype>
								<parameter authoringApp="PremierePro">
									<parameterid>Gain(dB)</parameterid>
									<name>Gain(dB)</name>
									<valuemin>-96</valuemin>
									<valuemax>96</valuemax>
									<value>2</value>
								</parameter>
							</effect>
						</filter>
						<filter>
							<effect>
								<name>Audio Levels</name>
								<effectid>audiolevels</effectid>
								<effectcategory>audiolevels</effectcategory>
								<effecttype>audiolevels</effecttype>
								<mediatype>audio</mediatype>
								<pproBypass>false</pproBypass>
								<parameter authoringApp="PremierePro">
									<parameterid>level</parameterid>
									<name>Level</name>
									<valuemin>0</valuemin>
									<valuemax>3.98109</valuemax>
									<value>2</value>
								</parameter>
							</effect>
						</filter>
						<link>
							<linkclipref>clipitem-560</linkclipref>
							<mediatype>audio</mediatype>
							<trackindex>3</trackindex>
							<clipindex>1</clipindex>
							<groupindex>1</groupindex>
						</link>
						<link>
							<linkclipref>clipitem-574</linkclipref>
							<mediatype>audio</mediatype>
							<trackindex>4</trackindex>
							<clipindex>1</clipindex>
							<groupindex>1</groupindex>
						</link>
						<link>
							<linkclipref>clipitem-588</linkclipref>
							<mediatype>audio</mediatype>
							<trackindex>5</trackindex>
							<clipindex>1</clipindex>
							<groupindex>1</groupindex>
						</link>
						<link>
							<linkclipref>clipitem-600</linkclipref>
							<mediatype>audio</mediatype>
							<trackindex>6</trackindex>
							<clipindex>1</clipindex>
							<groupindex>1</groupindex>
						</link>
						<logginginfo>
							<description></description>
							<scene></scene>
							<shottake></shottake>
							<lognote></lognote>
							<good></good>
							<originalvideofilename></originalvideofilename>
							<originalaudiofilename></originalaudiofilename>
						</logginginfo>
						<colorinfo>
							<lut></lut>
							<lut1></lut1>
							<asc_sop></asc_sop>
							<asc_sat></asc_sat>
							<lut2></lut2>
						</colorinfo>
						<labels>
							<label2>Blue</label2>
						</labels>
					</clipitem>
					<clipitem id="clipitem-589" premiereChannelType="adaptive">
						<masterclipid>masterclip-90</masterclipid>
						<name>SR001_ambiX.wav</name>
						<enabled>TRUE</enabled>
						<duration>134521</duration>
						<rate>
							<timebase>60</timebase>
							<ntsc>FALSE</ntsc>
						</rate>
						<start>3739</start>
						<end>7105</end>
						<in>9936</in>
						<out>13302</out>
						<pproTicksIn>42065049600000</pproTicksIn>
						<pproTicksOut>56315347200000</pproTicksOut>
						<file id="file-90"/>
						<sourcetrack>
							<mediatype>audio</mediatype>
							<trackindex>3</trackindex>
						</sourcetrack>
						<filter>
							<effect>
								<name>Gain</name>
								<effectid>{61756678, 4761696e, 4b657947}</effectid>
								<effecttype>filter</effecttype>
								<mediatype>audio</mediatype>
								<parameter authoringApp="PremierePro">
									<parameterid>Gain(dB)</parameterid>
									<name>Gain(dB)</name>
									<valuemin>-96</valuemin>
									<valuemax>96</valuemax>
									<value>2</value>
								</parameter>
							</effect>
						</filter>
						<filter>
							<effect>
								<name>Audio Levels</name>
								<effectid>audiolevels</effectid>
								<effectcategory>audiolevels</effectcategory>
								<effecttype>audiolevels</effecttype>
								<mediatype>audio</mediatype>
								<pproBypass>false</pproBypass>
								<parameter authoringApp="PremierePro">
									<parameterid>level</parameterid>
									<name>Level</name>
									<valuemin>0</valuemin>
									<valuemax>3.98109</valuemax>
									<value>2</value>
								</parameter>
							</effect>
						</filter>
						<link>
							<linkclipref>clipitem-561</linkclipref>
							<mediatype>audio</mediatype>
							<trackindex>3</trackindex>
							<clipindex>2</clipindex>
							<groupindex>1</groupindex>
						</link>
						<link>
							<linkclipref>clipitem-575</linkclipref>
							<mediatype>audio</mediatype>
							<trackindex>4</trackindex>
							<clipindex>2</clipindex>
							<groupindex>1</groupindex>
						</link>
						<link>
							<linkclipref>clipitem-589</linkclipref>
							<mediatype>audio</mediatype>
							<trackindex>5</trackindex>
							<clipindex>2</clipindex>
							<groupindex>1</groupindex>
						</link>
						<link>
							<linkclipref>clipitem-601</linkclipref>
							<mediatype>audio</mediatype>
							<trackindex>6</trackindex>
							<clipindex>2</clipindex>
							<groupindex>1</groupindex>
						</link>
						<logginginfo>
							<description></description>
							<scene></scene>
							<shottake></shottake>
							<lognote></lognote>
							<good></good>
							<originalvideofilename></originalvideofilename>
							<originalaudiofilename></originalaudiofilename>
						</logginginfo>
						<colorinfo>
							<lut></lut>
							<lut1></lut1>
							<asc_sop></asc_sop>
							<asc_sat></asc_sat>
							<lut2></lut2>
						</colorinfo>
						<labels>
							<label2>Blue</label2>
						</labels>
					</clipitem>
					<clipitem id="clipitem-590" premiereChannelType="adaptive">
						<masterclipid>masterclip-90</masterclipid>
						<name>SR001_ambiX.wav</name>
						<enabled>TRUE</enabled>
						<duration>134521</duration>
						<rate>
							<timebase>60</timebase>
							<ntsc>FALSE</ntsc>
						</rate>
						<start>7105</start>
						<end>9116</end>
						<in>13302</in>
						<out>15313</out>
						<pproTicksIn>56315347200000</pproTicksIn>
						<pproTicksOut>64829116800000</pproTicksOut>
						<file id="file-90"/>
						<sourcetrack>
							<mediatype>audio</mediatype>
							<trackindex>3</trackindex>
						</sourcetrack>
						<filter>
							<effect>
								<name>Gain</name>
								<effectid>{61756678, 4761696e, 4b657947}</effectid>
								<effecttype>filter</effecttype>
								<mediatype>audio</mediatype>
								<parameter authoringApp="PremierePro">
									<parameterid>Gain(dB)</parameterid>
									<name>Gain(dB)</name>
									<valuemin>-96</valuemin>
									<valuemax>96</valuemax>
									<value>2</value>
								</parameter>
							</effect>
						</filter>
						<filter>
							<effect>
								<name>Audio Levels</name>
								<effectid>audiolevels</effectid>
								<effectcategory>audiolevels</effectcategory>
								<effecttype>audiolevels</effecttype>
								<mediatype>audio</mediatype>
								<pproBypass>false</pproBypass>
								<parameter authoringApp="PremierePro">
									<parameterid>level</parameterid>
									<name>Level</name>
									<valuemin>0</valuemin>
									<valuemax>3.98109</valuemax>
									<value>2</value>
								</parameter>
							</effect>
						</filter>
						<link>
							<linkclipref>clipitem-562</linkclipref>
							<mediatype>audio</mediatype>
							<trackindex>3</trackindex>
							<clipindex>3</clipindex>
							<groupindex>1</groupindex>
						</link>
						<link>
							<linkclipref>clipitem-576</linkclipref>
							<mediatype>audio</mediatype>
							<trackindex>4</trackindex>
							<clipindex>3</clipindex>
							<groupindex>1</groupindex>
						</link>
						<link>
							<linkclipref>clipitem-590</linkclipref>
							<mediatype>audio</mediatype>
							<trackindex>5</trackindex>
							<clipindex>3</clipindex>
							<groupindex>1</groupindex>
						</link>
						<link>
							<linkclipref>clipitem-602</linkclipref>
							<mediatype>audio</mediatype>
							<trackindex>6</trackindex>
							<clipindex>3</clipindex>
							<groupindex>1</groupindex>
						</link>
						<logginginfo>
							<description></description>
							<scene></scene>
							<shottake></shottake>
							<lognote></lognote>
							<good></good>
							<originalvideofilename></originalvideofilename>
							<originalaudiofilename></originalaudiofilename>
						</logginginfo>
						<colorinfo>
							<lut></lut>
							<lut1></lut1>
							<asc_sop></asc_sop>
							<asc_sat></asc_sat>
							<lut2></lut2>
						</colorinfo>
						<labels>
							<label2>Blue</label2>
						</labels>
					</clipitem>
					<clipitem id="clipitem-591" premiereChannelType="adaptive">
						<masterclipid>masterclip-90</masterclipid>
						<name>SR001_ambiX.wav</name>
						<enabled>TRUE</enabled>
						<duration>134521</duration>
						<rate>
							<timebase>60</timebase>
							<ntsc>FALSE</ntsc>
						</rate>
						<start>9116</start>
						<end>9885</end>
						<in>15313</in>
						<out>16082</out>
						<pproTicksIn>64829116800000</pproTicksIn>
						<pproTicksOut>68084755200000</pproTicksOut>
						<file id="file-90"/>
						<sourcetrack>
							<mediatype>audio</mediatype>
							<trackindex>3</trackindex>
						</sourcetrack>
						<filter>
							<effect>
								<name>Gain</name>
								<effectid>{61756678, 4761696e, 4b657947}</effectid>
								<effecttype>filter</effecttype>
								<mediatype>audio</mediatype>
								<parameter authoringApp="PremierePro">
									<parameterid>Gain(dB)</parameterid>
									<name>Gain(dB)</name>
									<valuemin>-96</valuemin>
									<valuemax>96</valuemax>
									<value>2</value>
								</parameter>
							</effect>
						</filter>
						<filter>
							<effect>
								<name>Audio Levels</name>
								<effectid>audiolevels</effectid>
								<effectcategory>audiolevels</effectcategory>
								<effecttype>audiolevels</effecttype>
								<mediatype>audio</mediatype>
								<pproBypass>false</pproBypass>
								<parameter authoringApp="PremierePro">
									<parameterid>level</parameterid>
									<name>Level</name>
									<valuemin>0</valuemin>
									<valuemax>3.98109</valuemax>
									<value>1</value>
									<keyframe>
										<when>15498</when>
										<value>2</value>
									</keyframe>
									<keyframe>
										<when>15575</when>
										<value>1</value>
									</keyframe>
								</parameter>
							</effect>
						</filter>
						<link>
							<linkclipref>clipitem-563</linkclipref>
							<mediatype>audio</mediatype>
							<trackindex>3</trackindex>
							<clipindex>4</clipindex>
							<groupindex>1</groupindex>
						</link>
						<link>
							<linkclipref>clipitem-577</linkclipref>
							<mediatype>audio</mediatype>
							<trackindex>4</trackindex>
							<clipindex>4</clipindex>
							<groupindex>1</groupindex>
						</link>
						<link>
							<linkclipref>clipitem-591</linkclipref>
							<mediatype>audio</mediatype>
							<trackindex>5</trackindex>
							<clipindex>4</clipindex>
							<groupindex>1</groupindex>
						</link>
						<link>
							<linkclipref>clipitem-603</linkclipref>
							<mediatype>audio</mediatype>
							<trackindex>6</trackindex>
							<clipindex>4</clipindex>
							<groupindex>1</groupindex>
						</link>
						<logginginfo>
							<description></description>
							<scene></scene>
							<shottake></shottake>
							<lognote></lognote>
							<good></good>
							<originalvideofilename></originalvideofilename>
							<originalaudiofilename></originalaudiofilename>
						</logginginfo>
						<colorinfo>
							<lut></lut>
							<lut1></lut1>
							<asc_sop></asc_sop>
							<asc_sat></asc_sat>
							<lut2></lut2>
						</colorinfo>
						<labels>
							<label2>Blue</label2>
						</labels>
					</clipitem>
					<clipitem id="clipitem-592" premiereChannelType="adaptive">
						<masterclipid>masterclip-91</masterclipid>
						<name>SR001_ambiX.wav</name>
						<enabled>TRUE</enabled>
						<duration>447365</duration>
						<rate>
							<timebase>60</timebase>
							<ntsc>FALSE</ntsc>
						</rate>
						<start>9885</start>
						<end>19881</end>
						<in>69497</in>
						<out>79493</out>
						<pproTicksIn>294222499200000</pproTicksIn>
						<pproTicksOut>336541564800000</pproTicksOut>
						<file id="file-91"/>
						<sourcetrack>
							<mediatype>audio</mediatype>
							<trackindex>3</trackindex>
						</sourcetrack>
						<filter>
							<effect>
								<name>Audio Levels</name>
								<effectid>audiolevels</effectid>
								<effectcategory>audiolevels</effectcategory>
								<effecttype>audiolevels</effecttype>
								<mediatype>audio</mediatype>
								<pproBypass>false</pproBypass>
								<parameter authoringApp="PremierePro">
									<parameterid>level</parameterid>
									<name>Level</name>
									<valuemin>0</valuemin>
									<valuemax>3.98109</valuemax>
									<value>1</value>
									<keyframe>
										<when>68590</when>
										<value>2</value>
									</keyframe>
									<keyframe>
										<when>68934</when>
										<value>1</value>
									</keyframe>
									<keyframe>
										<when>70180</when>
										<value>1</value>
									</keyframe>
									<keyframe>
										<when>70317</when>
										<value>0.438596</value>
									</keyframe>
									<keyframe>
										<when>70640</when>
										<value>0.438596</value>
									</keyframe>
									<keyframe>
										<when>70737</when>
										<value>0.719298</value>
									</keyframe>
									<keyframe>
										<when>71049</when>
										<value>0.719298</value>
									</keyframe>
									<keyframe>
										<when>71325</when>
										<value>1</value>
									</keyframe>
									<keyframe>
										<when>72428</when>
										<value>1</value>
									</keyframe>
									<keyframe>
										<when>72575</when>
										<value>0.649123</value>
									</keyframe>
									<keyframe>
										<when>73412</when>
										<value>0.649123</value>
									</keyframe>
									<keyframe>
										<when>73533</when>
										<value>1</value>
									</keyframe>
									<keyframe>
										<when>77304</when>
										<value>1</value>
									</keyframe>
									<keyframe>
										<when>77451</when>
										<value>0.684211</value>
									</keyframe>
									<keyframe>
										<when>79230</when>
										<value>0.684211</value>
									</keyframe>
									<keyframe>
										<when>79296</when>
										<value>1</value>
									</keyframe>
								</parameter>
							</effect>
						</filter>
						<link>
							<linkclipref>clipitem-564</linkclipref>
							<mediatype>audio</mediatype>
							<trackindex>3</trackindex>
							<clipindex>5</clipindex>
							<groupindex>1</groupindex>
						</link>
						<link>
							<linkclipref>clipitem-578</linkclipref>
							<mediatype>audio</mediatype>
							<trackindex>4</trackindex>
							<clipindex>5</clipindex>
							<groupindex>1</groupindex>
						</link>
						<link>
							<linkclipref>clipitem-592</linkclipref>
							<mediatype>audio</mediatype>
							<trackindex>5</trackindex>
							<clipindex>5</clipindex>
							<groupindex>1</groupindex>
						</link>
						<link>
							<linkclipref>clipitem-604</linkclipref>
							<mediatype>audio</mediatype>
							<trackindex>6</trackindex>
							<clipindex>5</clipindex>
							<groupindex>1</groupindex>
						</link>
						<logginginfo>
							<description></description>
							<scene></scene>
							<shottake></shottake>
							<lognote></lognote>
							<good></good>
							<originalvideofilename></originalvideofilename>
							<originalaudiofilename></originalaudiofilename>
						</logginginfo>
						<colorinfo>
							<lut></lut>
							<lut1></lut1>
							<asc_sop></asc_sop>
							<asc_sat></asc_sat>
							<lut2></lut2>
						</colorinfo>
						<labels>
							<label2>Mango</label2>
						</labels>
					</clipitem>
					<clipitem id="clipitem-593" premiereChannelType="adaptive">
						<masterclipid>masterclip-90</masterclipid>
						<name>SR001_ambiX.wav</name>
						<enabled>TRUE</enabled>
						<duration>134521</duration>
						<rate>
							<timebase>60</timebase>
							<ntsc>FALSE</ntsc>
						</rate>
						<start>19881</start>
						<end>-1</end>
						<in>26324</in>
						<out>29310</out>
						<pproTicksIn>111445286400000</pproTicksIn>
						<pproTicksOut>124086816000000</pproTicksOut>
						<file id="file-90"/>
						<sourcetrack>
							<mediatype>audio</mediatype>
							<trackindex>3</trackindex>
						</sourcetrack>
						<filter>
							<effect>
								<name>Gain</name>
								<effectid>{61756678, 4761696e, 4b657947}</effectid>
								<effecttype>filter</effecttype>
								<mediatype>audio</mediatype>
								<parameter authoringApp="PremierePro">
									<parameterid>Gain(dB)</parameterid>
									<name>Gain(dB)</name>
									<valuemin>-96</valuemin>
									<valuemax>96</valuemax>
									<value>9</value>
								</parameter>
							</effect>
						</filter>
						<filter>
							<effect>
								<name>Audio Levels</name>
								<effectid>audiolevels</effectid>
								<effectcategory>audiolevels</effectcategory>
								<effecttype>audiolevels</effecttype>
								<mediatype>audio</mediatype>
								<pproBypass>false</pproBypass>
								<parameter authoringApp="PremierePro">
									<parameterid>level</parameterid>
									<name>Level</name>
									<valuemin>0</valuemin>
									<valuemax>3.98109</valuemax>
									<value>1</value>
									<keyframe>
										<when>29808</when>
										<value>1</value>
									</keyframe>
									<keyframe>
										<when>29988</when>
										<value>0</value>
									</keyframe>
								</parameter>
							</effect>
						</filter>
						<link>
							<linkclipref>clipitem-565</linkclipref>
							<mediatype>audio</mediatype>
							<trackindex>3</trackindex>
							<clipindex>6</clipindex>
							<groupindex>1</groupindex>
						</link>
						<link>
							<linkclipref>clipitem-579</linkclipref>
							<mediatype>audio</mediatype>
							<trackindex>4</trackindex>
							<clipindex>6</clipindex>
							<groupindex>1</groupindex>
						</link>
						<link>
							<linkclipref>clipitem-593</linkclipref>
							<mediatype>audio</mediatype>
							<trackindex>5</trackindex>
							<clipindex>6</clipindex>
							<groupindex>1</groupindex>
						</link>
						<link>
							<linkclipref>clipitem-605</linkclipref>
							<mediatype>audio</mediatype>
							<trackindex>6</trackindex>
							<clipindex>6</clipindex>
							<groupindex>1</groupindex>
						</link>
						<logginginfo>
							<description></description>
							<scene></scene>
							<shottake></shottake>
							<lognote></lognote>
							<good></good>
							<originalvideofilename></originalvideofilename>
							<originalaudiofilename></originalaudiofilename>
						</logginginfo>
						<colorinfo>
							<lut></lut>
							<lut1></lut1>
							<asc_sop></asc_sop>
							<asc_sat></asc_sat>
							<lut2></lut2>
						</colorinfo>
						<labels>
							<label2>Blue</label2>
						</labels>
					</clipitem>
					<transitionitem>
						<start>22865</start>
						<end>22867</end>
						<alignment>center</alignment>
						<cutPointTicks>4233600000</cutPointTicks>
						<rate>
							<timebase>60</timebase>
							<ntsc>FALSE</ntsc>
						</rate>
						<effect>
							<name>Cross Fade (+3dB)</name>
							<effectid>KGAudioTransCrossFade3dB</effectid>
							<effecttype>transition</effecttype>
							<mediatype>audio</mediatype>
							<wipecode>0</wipecode>
							<wipeaccuracy>100</wipeaccuracy>
							<startratio>0</startratio>
							<endratio>1</endratio>
							<reverse>FALSE</reverse>
						</effect>
					</transitionitem>
					<clipitem id="clipitem-594" premiereChannelType="adaptive">
						<masterclipid>masterclip-91</masterclipid>
						<name>SR001_ambiX.wav</name>
						<enabled>TRUE</enabled>
						<duration>447365</duration>
						<rate>
							<timebase>60</timebase>
							<ntsc>FALSE</ntsc>
						</rate>
						<start>-1</start>
						<end>29015</end>
						<in>82718</in>
						<out>88868</out>
						<pproTicksIn>350194924800000</pproTicksIn>
						<pproTicksOut>376231564800000</pproTicksOut>
						<file id="file-91"/>
						<sourcetrack>
							<mediatype>audio</mediatype>
							<trackindex>3</trackindex>
						</sourcetrack>
						<filter>
							<effect>
								<name>Gain</name>
								<effectid>{61756678, 4761696e, 4b657947}</effectid>
								<effecttype>filter</effecttype>
								<mediatype>audio</mediatype>
								<parameter authoringApp="PremierePro">
									<parameterid>Gain(dB)</parameterid>
									<name>Gain(dB)</name>
									<valuemin>-96</valuemin>
									<valuemax>96</valuemax>
									<value>16</value>
								</parameter>
							</effect>
						</filter>
						<filter>
							<effect>
								<name>Audio Levels</name>
								<effectid>audiolevels</effectid>
								<effectcategory>audiolevels</effectcategory>
								<effecttype>audiolevels</effecttype>
								<mediatype>audio</mediatype>
								<pproBypass>false</pproBypass>
								<parameter authoringApp="PremierePro">
									<parameterid>level</parameterid>
									<name>Level</name>
									<valuemin>0</valuemin>
									<valuemax>3.98109</valuemax>
									<value>2</value>
									<keyframe>
										<when>68590</when>
										<value>2</value>
									</keyframe>
									<keyframe>
										<when>68934</when>
										<value>1</value>
									</keyframe>
									<keyframe>
										<when>70180</when>
										<value>1</value>
									</keyframe>
									<keyframe>
										<when>70317</when>
										<value>0.719298</value>
									</keyframe>
									<keyframe>
										<when>71049</when>
										<value>0.719298</value>
									</keyframe>
									<keyframe>
										<when>71325</when>
										<value>1</value>
									</keyframe>
								</parameter>
							</effect>
						</filter>
						<link>
							<linkclipref>clipitem-566</linkclipref>
							<mediatype>audio</mediatype>
							<trackindex>3</trackindex>
							<clipindex>8</clipindex>
							<groupindex>1</groupindex>
						</link>
						<link>
							<linkclipref>clipitem-580</linkclipref>
							<mediatype>audio</mediatype>
							<trackindex>4</trackindex>
							<clipindex>8</clipindex>
							<groupindex>1</groupindex>
						</link>
						<link>
							<linkclipref>clipitem-594</linkclipref>
							<mediatype>audio</mediatype>
							<trackindex>5</trackindex>
							<clipindex>8</clipindex>
							<groupindex>1</groupindex>
						</link>
						<link>
							<linkclipref>clipitem-606</linkclipref>
							<mediatype>audio</mediatype>
							<trackindex>6</trackindex>
							<clipindex>8</clipindex>
							<groupindex>1</groupindex>
						</link>
						<logginginfo>
							<description></description>
							<scene></scene>
							<shottake></shottake>
							<lognote></lognote>
							<good></good>
							<originalvideofilename></originalvideofilename>
							<originalaudiofilename></originalaudiofilename>
						</logginginfo>
						<colorinfo>
							<lut></lut>
							<lut1></lut1>
							<asc_sop></asc_sop>
							<asc_sat></asc_sat>
							<lut2></lut2>
						</colorinfo>
						<labels>
							<label2>Mango</label2>
						</labels>
					</clipitem>
					<clipitem id="clipitem-595" premiereChannelType="adaptive">
						<masterclipid>masterclip-90</masterclipid>
						<name>SR001_ambiX.wav</name>
						<enabled>TRUE</enabled>
						<duration>134521</duration>
						<rate>
							<timebase>60</timebase>
							<ntsc>FALSE</ntsc>
						</rate>
						<start>29015</start>
						<end>29561</end>
						<in>46257</in>
						<out>46803</out>
						<pproTicksIn>195833635200000</pproTicksIn>
						<pproTicksOut>198145180800000</pproTicksOut>
						<file id="file-90"/>
						<sourcetrack>
							<mediatype>audio</mediatype>
							<trackindex>3</trackindex>
						</sourcetrack>
						<filter>
							<effect>
								<name>Gain</name>
								<effectid>{61756678, 4761696e, 4b657947}</effectid>
								<effecttype>filter</effecttype>
								<mediatype>audio</mediatype>
								<parameter authoringApp="PremierePro">
									<parameterid>Gain(dB)</parameterid>
									<name>Gain(dB)</name>
									<valuemin>-96</valuemin>
									<valuemax>96</valuemax>
									<value>2</value>
								</parameter>
							</effect>
						</filter>
						<link>
							<linkclipref>clipitem-567</linkclipref>
							<mediatype>audio</mediatype>
							<trackindex>3</trackindex>
							<clipindex>9</clipindex>
							<groupindex>1</groupindex>
						</link>
						<link>
							<linkclipref>clipitem-581</linkclipref>
							<mediatype>audio</mediatype>
							<trackindex>4</trackindex>
							<clipindex>9</clipindex>
							<groupindex>1</groupindex>
						</link>
						<link>
							<linkclipref>clipitem-595</linkclipref>
							<mediatype>audio</mediatype>
							<trackindex>5</trackindex>
							<clipindex>9</clipindex>
							<groupindex>1</groupindex>
						</link>
						<link>
							<linkclipref>clipitem-607</linkclipref>
							<mediatype>audio</mediatype>
							<trackindex>6</trackindex>
							<clipindex>9</clipindex>
							<groupindex>1</groupindex>
						</link>
						<logginginfo>
							<description></description>
							<scene></scene>
							<shottake></shottake>
							<lognote></lognote>
							<good></good>
							<originalvideofilename></originalvideofilename>
							<originalaudiofilename></originalaudiofilename>
						</logginginfo>
						<colorinfo>
							<lut></lut>
							<lut1></lut1>
							<asc_sop></asc_sop>
							<asc_sat></asc_sat>
							<lut2></lut2>
						</colorinfo>
						<labels>
							<label2>Blue</label2>
						</labels>
					</clipitem>
					<clipitem id="clipitem-596" premiereChannelType="adaptive">
						<masterclipid>masterclip-91</masterclipid>
						<name>SR001_ambiX.wav</name>
						<enabled>TRUE</enabled>
						<duration>447365</duration>
						<rate>
							<timebase>60</timebase>
							<ntsc>FALSE</ntsc>
						</rate>
						<start>31825</start>
						<end>38170</end>
						<in>128903</in>
						<out>135248</out>
						<pproTicksIn>545723740800000</pproTicksIn>
						<pproTicksOut>572585932800000</pproTicksOut>
						<file id="file-91"/>
						<sourcetrack>
							<mediatype>audio</mediatype>
							<trackindex>3</trackindex>
						</sourcetrack>
						<filter>
							<effect>
								<name>Gain</name>
								<effectid>{61756678, 4761696e, 4b657947}</effectid>
								<effecttype>filter</effecttype>
								<mediatype>audio</mediatype>
								<parameter authoringApp="PremierePro">
									<parameterid>Gain(dB)</parameterid>
									<name>Gain(dB)</name>
									<valuemin>-96</valuemin>
									<valuemax>96</valuemax>
									<value>1</value>
								</parameter>
							</effect>
						</filter>
						<filter>
							<effect>
								<name>Audio Levels</name>
								<effectid>audiolevels</effectid>
								<effectcategory>audiolevels</effectcategory>
								<effecttype>audiolevels</effecttype>
								<mediatype>audio</mediatype>
								<pproBypass>false</pproBypass>
								<parameter authoringApp="PremierePro">
									<parameterid>level</parameterid>
									<name>Level</name>
									<valuemin>0</valuemin>
									<valuemax>3.98109</valuemax>
									<value>2</value>
									<keyframe>
										<when>68590</when>
										<value>2</value>
									</keyframe>
									<keyframe>
										<when>68934</when>
										<value>1</value>
									</keyframe>
									<keyframe>
										<when>70180</when>
										<value>1</value>
									</keyframe>
									<keyframe>
										<when>70317</when>
										<value>0.719298</value>
									</keyframe>
									<keyframe>
										<when>71049</when>
										<value>0.719298</value>
									</keyframe>
									<keyframe>
										<when>71325</when>
										<value>1</value>
									</keyframe>
								</parameter>
							</effect>
						</filter>
						<link>
							<linkclipref>clipitem-568</linkclipref>
							<mediatype>audio</mediatype>
							<trackindex>3</trackindex>
							<clipindex>10</clipindex>
							<groupindex>1</groupindex>
						</link>
						<link>
							<linkclipref>clipitem-582</linkclipref>
							<mediatype>audio</mediatype>
							<trackindex>4</trackindex>
							<clipindex>10</clipindex>
							<groupindex>1</groupindex>
						</link>
						<link>
							<linkclipref>clipitem-596</linkclipref>
							<mediatype>audio</mediatype>
							<trackindex>5</trackindex>
							<clipindex>10</clipindex>
							<groupindex>1</groupindex>
						</link>
						<link>
							<linkclipref>clipitem-608</linkclipref>
							<mediatype>audio</mediatype>
							<trackindex>6</trackindex>
							<clipindex>10</clipindex>
							<groupindex>1</groupindex>
						</link>
						<logginginfo>
							<description></description>
							<scene></scene>
							<shottake></shottake>
							<lognote></lognote>
							<good></good>
							<originalvideofilename></originalvideofilename>
							<originalaudiofilename></originalaudiofilename>
						</logginginfo>
						<colorinfo>
							<lut></lut>
							<lut1></lut1>
							<asc_sop></asc_sop>
							<asc_sat></asc_sat>
							<lut2></lut2>
						</colorinfo>
						<labels>
							<label2>Mango</label2>
						</labels>
					</clipitem>
					<clipitem id="clipitem-597" premiereChannelType="adaptive">
						<masterclipid>masterclip-91</masterclipid>
						<name>SR001_ambiX.wav</name>
						<enabled>TRUE</enabled>
						<duration>447365</duration>
						<rate>
							<timebase>60</timebase>
							<ntsc>FALSE</ntsc>
						</rate>
						<start>41737</start>
						<end>45259</end>
						<in>195996</in>
						<out>199518</out>
						<pproTicksIn>829768665600000</pproTicksIn>
						<pproTicksOut>844679404800000</pproTicksOut>
						<file id="file-91"/>
						<sourcetrack>
							<mediatype>audio</mediatype>
							<trackindex>3</trackindex>
						</sourcetrack>
						<filter>
							<effect>
								<name>Gain</name>
								<effectid>{61756678, 4761696e, 4b657947}</effectid>
								<effecttype>filter</effecttype>
								<mediatype>audio</mediatype>
								<parameter authoringApp="PremierePro">
									<parameterid>Gain(dB)</parameterid>
									<name>Gain(dB)</name>
									<valuemin>-96</valuemin>
									<valuemax>96</valuemax>
									<value>16</value>
								</parameter>
							</effect>
						</filter>
						<filter>
							<effect>
								<name>Audio Levels</name>
								<effectid>audiolevels</effectid>
								<effectcategory>audiolevels</effectcategory>
								<effecttype>audiolevels</effecttype>
								<mediatype>audio</mediatype>
								<pproBypass>false</pproBypass>
								<parameter authoringApp="PremierePro">
									<parameterid>level</parameterid>
									<name>Level</name>
									<valuemin>0</valuemin>
									<valuemax>3.98109</valuemax>
									<value>2</value>
									<keyframe>
										<when>68590</when>
										<value>2</value>
									</keyframe>
									<keyframe>
										<when>68934</when>
										<value>1</value>
									</keyframe>
									<keyframe>
										<when>70180</when>
										<value>1</value>
									</keyframe>
									<keyframe>
										<when>70317</when>
										<value>0.719298</value>
									</keyframe>
									<keyframe>
										<when>71049</when>
										<value>0.719298</value>
									</keyframe>
									<keyframe>
										<when>71325</when>
										<value>2</value>
									</keyframe>
									<keyframe>
										<when>195996</when>
										<value>0</value>
									</keyframe>
									<keyframe>
										<when>196190</when>
										<value>2</value>
									</keyframe>
									<keyframe>
										<when>196499</when>
										<value>2</value>
									</keyframe>
									<keyframe>
										<when>196703</when>
										<value>1</value>
									</keyframe>
									<keyframe>
										<when>197508</when>
										<value>1</value>
									</keyframe>
									<keyframe>
										<when>197653</when>
										<value>0.54386</value>
									</keyframe>
									<keyframe>
										<when>197755</when>
										<value>0.54386</value>
									</keyframe>
									<keyframe>
										<when>197917</when>
										<value>1</value>
									</keyframe>
								</parameter>
							</effect>
						</filter>
						<link>
							<linkclipref>clipitem-569</linkclipref>
							<mediatype>audio</mediatype>
							<trackindex>3</trackindex>
							<clipindex>11</clipindex>
							<groupindex>1</groupindex>
						</link>
						<link>
							<linkclipref>clipitem-583</linkclipref>
							<mediatype>audio</mediatype>
							<trackindex>4</trackindex>
							<clipindex>11</clipindex>
							<groupindex>1</groupindex>
						</link>
						<link>
							<linkclipref>clipitem-597</linkclipref>
							<mediatype>audio</mediatype>
							<trackindex>5</trackindex>
							<clipindex>11</clipindex>
							<groupindex>1</groupindex>
						</link>
						<link>
							<linkclipref>clipitem-609</linkclipref>
							<mediatype>audio</mediatype>
							<trackindex>6</trackindex>
							<clipindex>11</clipindex>
							<groupindex>1</groupindex>
						</link>
						<logginginfo>
							<description></description>
							<scene></scene>
							<shottake></shottake>
							<lognote></lognote>
							<good></good>
							<originalvideofilename></originalvideofilename>
							<originalaudiofilename></originalaudiofilename>
						</logginginfo>
						<colorinfo>
							<lut></lut>
							<lut1></lut1>
							<asc_sop></asc_sop>
							<asc_sat></asc_sat>
							<lut2></lut2>
						</colorinfo>
						<labels>
							<label2>Mango</label2>
						</labels>
					</clipitem>
					<clipitem id="clipitem-598" premiereChannelType="adaptive">
						<masterclipid>masterclip-90</masterclipid>
						<name>SR001_ambiX.wav</name>
						<enabled>TRUE</enabled>
						<duration>134521</duration>
						<rate>
							<timebase>60</timebase>
							<ntsc>FALSE</ntsc>
						</rate>
						<start>45259</start>
						<end>47150</end>
						<in>73493</in>
						<out>75384</out>
						<pproTicksIn>311139964800000</pproTicksIn>
						<pproTicksOut>319145702400000</pproTicksOut>
						<file id="file-90"/>
						<sourcetrack>
							<mediatype>audio</mediatype>
							<trackindex>3</trackindex>
						</sourcetrack>
						<filter>
							<effect>
								<name>Gain</name>
								<effectid>{61756678, 4761696e, 4b657947}</effectid>
								<effecttype>filter</effecttype>
								<mediatype>audio</mediatype>
								<parameter authoringApp="PremierePro">
									<parameterid>Gain(dB)</parameterid>
									<name>Gain(dB)</name>
									<valuemin>-96</valuemin>
									<valuemax>96</valuemax>
									<value>2</value>
								</parameter>
							</effect>
						</filter>
						<filter>
							<effect>
								<name>Audio Levels</name>
								<effectid>audiolevels</effectid>
								<effectcategory>audiolevels</effectcategory>
								<effecttype>audiolevels</effecttype>
								<mediatype>audio</mediatype>
								<pproBypass>false</pproBypass>
								<parameter authoringApp="PremierePro">
									<parameterid>level</parameterid>
									<name>Level</name>
									<valuemin>0</valuemin>
									<valuemax>3.98109</valuemax>
									<value>1</value>
									<keyframe>
										<when>75249</when>
										<value>1</value>
									</keyframe>
									<keyframe>
										<when>75384</when>
										<value>0</value>
									</keyframe>
								</parameter>
							</effect>
						</filter>
						<link>
							<linkclipref>clipitem-570</linkclipref>
							<mediatype>audio</mediatype>
							<trackindex>3</trackindex>
							<clipindex>12</clipindex>
							<groupindex>1</groupindex>
						</link>
						<link>
							<linkclipref>clipitem-584</linkclipref>
							<mediatype>audio</mediatype>
							<trackindex>4</trackindex>
							<clipindex>12</clipindex>
							<groupindex>1</groupindex>
						</link>
						<link>
							<linkclipref>clipitem-598</linkclipref>
							<mediatype>audio</mediatype>
							<trackindex>5</trackindex>
							<clipindex>12</clipindex>
							<groupindex>1</groupindex>
						</link>
						<link>
							<linkclipref>clipitem-610</linkclipref>
							<mediatype>audio</mediatype>
							<trackindex>6</trackindex>
							<clipindex>12</clipindex>
							<groupindex>1</groupindex>
						</link>
						<logginginfo>
							<description></description>
							<scene></scene>
							<shottake></shottake>
							<lognote></lognote>
							<good></good>
							<originalvideofilename></originalvideofilename>
							<originalaudiofilename></originalaudiofilename>
						</logginginfo>
						<colorinfo>
							<lut></lut>
							<lut1></lut1>
							<asc_sop></asc_sop>
							<asc_sat></asc_sat>
							<lut2></lut2>
						</colorinfo>
						<labels>
							<label2>Blue</label2>
						</labels>
					</clipitem>
					<clipitem id="clipitem-599" premiereChannelType="adaptive">
						<masterclipid>masterclip-92</masterclipid>
						<name>SR008_ambiX.wav</name>
						<enabled>TRUE</enabled>
						<duration>447365</duration>
						<rate>
							<timebase>60</timebase>
							<ntsc>FALSE</ntsc>
						</rate>
						<start>47170</start>
						<end>55523</end>
						<in>129576</in>
						<out>137929</out>
						<pproTicksIn>548572953600000</pproTicksIn>
						<pproTicksOut>583936214400000</pproTicksOut>
						<file id="file-92"/>
						<sourcetrack>
							<mediatype>audio</mediatype>
							<trackindex>3</trackindex>
						</sourcetrack>
						<filter>
							<effect>
								<name>Gain</name>
								<effectid>{61756678, 4761696e, 4b657947}</effectid>
								<effecttype>filter</effecttype>
								<mediatype>audio</mediatype>
								<parameter authoringApp="PremierePro">
									<parameterid>Gain(dB)</parameterid>
									<name>Gain(dB)</name>
									<valuemin>-96</valuemin>
									<valuemax>96</valuemax>
									<value>16</value>
								</parameter>
							</effect>
						</filter>
						<filter>
							<effect>
								<name>Audio Levels</name>
								<effectid>audiolevels</effectid>
								<effectcategory>audiolevels</effectcategory>
								<effecttype>audiolevels</effecttype>
								<mediatype>audio</mediatype>
								<pproBypass>false</pproBypass>
								<parameter authoringApp="PremierePro">
									<parameterid>level</parameterid>
									<name>Level</name>
									<valuemin>0</valuemin>
									<valuemax>3.98109</valuemax>
									<value>0</value>
									<keyframe>
										<when>129354</when>
										<value>0</value>
									</keyframe>
									<keyframe>
										<when>129574</when>
										<value>1</value>
									</keyframe>
									<keyframe>
										<when>144185</when>
										<value>1</value>
									</keyframe>
									<keyframe>
										<when>144604</when>
										<value>0</value>
									</keyframe>
									<keyframe>
										<when>154026</when>
										<value>1</value>
									</keyframe>
									<keyframe>
										<when>154214</when>
										<value>0</value>
									</keyframe>
								</parameter>
							</effect>
						</filter>
						<link>
							<linkclipref>clipitem-571</linkclipref>
							<mediatype>audio</mediatype>
							<trackindex>3</trackindex>
							<clipindex>13</clipindex>
							<groupindex>1</groupindex>
						</link>
						<link>
							<linkclipref>clipitem-585</linkclipref>
							<mediatype>audio</mediatype>
							<trackindex>4</trackindex>
							<clipindex>13</clipindex>
							<groupindex>1</groupindex>
						</link>
						<link>
							<linkclipref>clipitem-599</linkclipref>
							<mediatype>audio</mediatype>
							<trackindex>5</trackindex>
							<clipindex>13</clipindex>
							<groupindex>1</groupindex>
						</link>
						<link>
							<linkclipref>clipitem-611</linkclipref>
							<mediatype>audio</mediatype>
							<trackindex>6</trackindex>
							<clipindex>13</clipindex>
							<groupindex>1</groupindex>
						</link>
						<logginginfo>
							<description></description>
							<scene></scene>
							<shottake></shottake>
							<lognote></lognote>
							<good></good>
							<originalvideofilename></originalvideofilename>
							<originalaudiofilename></originalaudiofilename>
						</logginginfo>
						<colorinfo>
							<lut></lut>
							<lut1></lut1>
							<asc_sop></asc_sop>
							<asc_sat></asc_sat>
							<lut2></lut2>
						</colorinfo>
						<labels>
							<label2>Violet</label2>
						</labels>
					</clipitem>
					<enabled>TRUE</enabled>
					<locked>FALSE</locked>
					<outputchannelindex>3</outputchannelindex>
				</track>
				<track TL.SQTrackAudioKeyframeStyle="0" TL.SQTrackShy="0" TL.SQTrackExpandedHeight="15" TL.SQTrackExpanded="0" MZ.TrackTargeted="1" PannerCurrentValue="0.5" PannerIsInverted="true" PannerStartKeyframe="-91445760000000000,0.5,0,0,0,0,0,0" PannerName="Balance" currentExplodedTrackIndex="3" totalExplodedTrackCount="4" premiereTrackType="SixteenChannel">
					<clipitem id="clipitem-600" premiereChannelType="adaptive">
						<masterclipid>masterclip-90</masterclipid>
						<name>SR001_ambiX.wav</name>
						<enabled>TRUE</enabled>
						<duration>134521</duration>
						<rate>
							<timebase>60</timebase>
							<ntsc>FALSE</ntsc>
						</rate>
						<start>228</start>
						<end>3739</end>
						<in>6425</in>
						<out>9936</out>
						<pproTicksIn>27200880000000</pproTicksIn>
						<pproTicksOut>42065049600000</pproTicksOut>
						<file id="file-90"/>
						<sourcetrack>
							<mediatype>audio</mediatype>
							<trackindex>4</trackindex>
						</sourcetrack>
						<filter>
							<effect>
								<name>Gain</name>
								<effectid>{61756678, 4761696e, 4b657947}</effectid>
								<effecttype>filter</effecttype>
								<mediatype>audio</mediatype>
								<parameter authoringApp="PremierePro">
									<parameterid>Gain(dB)</parameterid>
									<name>Gain(dB)</name>
									<valuemin>-96</valuemin>
									<valuemax>96</valuemax>
									<value>2</value>
								</parameter>
							</effect>
						</filter>
						<filter>
							<effect>
								<name>Audio Levels</name>
								<effectid>audiolevels</effectid>
								<effectcategory>audiolevels</effectcategory>
								<effecttype>audiolevels</effecttype>
								<mediatype>audio</mediatype>
								<pproBypass>false</pproBypass>
								<parameter authoringApp="PremierePro">
									<parameterid>level</parameterid>
									<name>Level</name>
									<valuemin>0</valuemin>
									<valuemax>3.98109</valuemax>
									<value>2</value>
								</parameter>
							</effect>
						</filter>
						<link>
							<linkclipref>clipitem-560</linkclipref>
							<mediatype>audio</mediatype>
							<trackindex>3</trackindex>
							<clipindex>1</clipindex>
							<groupindex>1</groupindex>
						</link>
						<link>
							<linkclipref>clipitem-574</linkclipref>
							<mediatype>audio</mediatype>
							<trackindex>4</trackindex>
							<clipindex>1</clipindex>
							<groupindex>1</groupindex>
						</link>
						<link>
							<linkclipref>clipitem-588</linkclipref>
							<mediatype>audio</mediatype>
							<trackindex>5</trackindex>
							<clipindex>1</clipindex>
							<groupindex>1</groupindex>
						</link>
						<link>
							<linkclipref>clipitem-600</linkclipref>
							<mediatype>audio</mediatype>
							<trackindex>6</trackindex>
							<clipindex>1</clipindex>
							<groupindex>1</groupindex>
						</link>
						<logginginfo>
							<description></description>
							<scene></scene>
							<shottake></shottake>
							<lognote></lognote>
							<good></good>
							<originalvideofilename></originalvideofilename>
							<originalaudiofilename></originalaudiofilename>
						</logginginfo>
						<colorinfo>
							<lut></lut>
							<lut1></lut1>
							<asc_sop></asc_sop>
							<asc_sat></asc_sat>
							<lut2></lut2>
						</colorinfo>
						<labels>
							<label2>Blue</label2>
						</labels>
					</clipitem>
					<clipitem id="clipitem-601" premiereChannelType="adaptive">
						<masterclipid>masterclip-90</masterclipid>
						<name>SR001_ambiX.wav</name>
						<enabled>TRUE</enabled>
						<duration>134521</duration>
						<rate>
							<timebase>60</timebase>
							<ntsc>FALSE</ntsc>
						</rate>
						<start>3739</start>
						<end>7105</end>
						<in>9936</in>
						<out>13302</out>
						<pproTicksIn>42065049600000</pproTicksIn>
						<pproTicksOut>56315347200000</pproTicksOut>
						<file id="file-90"/>
						<sourcetrack>
							<mediatype>audio</mediatype>
							<trackindex>4</trackindex>
						</sourcetrack>
						<filter>
							<effect>
								<name>Gain</name>
								<effectid>{61756678, 4761696e, 4b657947}</effectid>
								<effecttype>filter</effecttype>
								<mediatype>audio</mediatype>
								<parameter authoringApp="PremierePro">
									<parameterid>Gain(dB)</parameterid>
									<name>Gain(dB)</name>
									<valuemin>-96</valuemin>
									<valuemax>96</valuemax>
									<value>2</value>
								</parameter>
							</effect>
						</filter>
						<filter>
							<effect>
								<name>Audio Levels</name>
								<effectid>audiolevels</effectid>
								<effectcategory>audiolevels</effectcategory>
								<effecttype>audiolevels</effecttype>
								<mediatype>audio</mediatype>
								<pproBypass>false</pproBypass>
								<parameter authoringApp="PremierePro">
									<parameterid>level</parameterid>
									<name>Level</name>
									<valuemin>0</valuemin>
									<valuemax>3.98109</valuemax>
									<value>2</value>
								</parameter>
							</effect>
						</filter>
						<link>
							<linkclipref>clipitem-561</linkclipref>
							<mediatype>audio</mediatype>
							<trackindex>3</trackindex>
							<clipindex>2</clipindex>
							<groupindex>1</groupindex>
						</link>
						<link>
							<linkclipref>clipitem-575</linkclipref>
							<mediatype>audio</mediatype>
							<trackindex>4</trackindex>
							<clipindex>2</clipindex>
							<groupindex>1</groupindex>
						</link>
						<link>
							<linkclipref>clipitem-589</linkclipref>
							<mediatype>audio</mediatype>
							<trackindex>5</trackindex>
							<clipindex>2</clipindex>
							<groupindex>1</groupindex>
						</link>
						<link>
							<linkclipref>clipitem-601</linkclipref>
							<mediatype>audio</mediatype>
							<trackindex>6</trackindex>
							<clipindex>2</clipindex>
							<groupindex>1</groupindex>
						</link>
						<logginginfo>
							<description></description>
							<scene></scene>
							<shottake></shottake>
							<lognote></lognote>
							<good></good>
							<originalvideofilename></originalvideofilename>
							<originalaudiofilename></originalaudiofilename>
						</logginginfo>
						<colorinfo>
							<lut></lut>
							<lut1></lut1>
							<asc_sop></asc_sop>
							<asc_sat></asc_sat>
							<lut2></lut2>
						</colorinfo>
						<labels>
							<label2>Blue</label2>
						</labels>
					</clipitem>
					<clipitem id="clipitem-602" premiereChannelType="adaptive">
						<masterclipid>masterclip-90</masterclipid>
						<name>SR001_ambiX.wav</name>
						<enabled>TRUE</enabled>
						<duration>134521</duration>
						<rate>
							<timebase>60</timebase>
							<ntsc>FALSE</ntsc>
						</rate>
						<start>7105</start>
						<end>9116</end>
						<in>13302</in>
						<out>15313</out>
						<pproTicksIn>56315347200000</pproTicksIn>
						<pproTicksOut>64829116800000</pproTicksOut>
						<file id="file-90"/>
						<sourcetrack>
							<mediatype>audio</mediatype>
							<trackindex>4</trackindex>
						</sourcetrack>
						<filter>
							<effect>
								<name>Gain</name>
								<effectid>{61756678, 4761696e, 4b657947}</effectid>
								<effecttype>filter</effecttype>
								<mediatype>audio</mediatype>
								<parameter authoringApp="PremierePro">
									<parameterid>Gain(dB)</parameterid>
									<name>Gain(dB)</name>
									<valuemin>-96</valuemin>
									<valuemax>96</valuemax>
									<value>2</value>
								</parameter>
							</effect>
						</filter>
						<filter>
							<effect>
								<name>Audio Levels</name>
								<effectid>audiolevels</effectid>
								<effectcategory>audiolevels</effectcategory>
								<effecttype>audiolevels</effecttype>
								<mediatype>audio</mediatype>
								<pproBypass>false</pproBypass>
								<parameter authoringApp="PremierePro">
									<parameterid>level</parameterid>
									<name>Level</name>
									<valuemin>0</valuemin>
									<valuemax>3.98109</valuemax>
									<value>2</value>
								</parameter>
							</effect>
						</filter>
						<link>
							<linkclipref>clipitem-562</linkclipref>
							<mediatype>audio</mediatype>
							<trackindex>3</trackindex>
							<clipindex>3</clipindex>
							<groupindex>1</groupindex>
						</link>
						<link>
							<linkclipref>clipitem-576</linkclipref>
							<mediatype>audio</mediatype>
							<trackindex>4</trackindex>
							<clipindex>3</clipindex>
							<groupindex>1</groupindex>
						</link>
						<link>
							<linkclipref>clipitem-590</linkclipref>
							<mediatype>audio</mediatype>
							<trackindex>5</trackindex>
							<clipindex>3</clipindex>
							<groupindex>1</groupindex>
						</link>
						<link>
							<linkclipref>clipitem-602</linkclipref>
							<mediatype>audio</mediatype>
							<trackindex>6</trackindex>
							<clipindex>3</clipindex>
							<groupindex>1</groupindex>
						</link>
						<logginginfo>
							<description></description>
							<scene></scene>
							<shottake></shottake>
							<lognote></lognote>
							<good></good>
							<originalvideofilename></originalvideofilename>
							<originalaudiofilename></originalaudiofilename>
						</logginginfo>
						<colorinfo>
							<lut></lut>
							<lut1></lut1>
							<asc_sop></asc_sop>
							<asc_sat></asc_sat>
							<lut2></lut2>
						</colorinfo>
						<labels>
							<label2>Blue</label2>
						</labels>
					</clipitem>
					<clipitem id="clipitem-603" premiereChannelType="adaptive">
						<masterclipid>masterclip-90</masterclipid>
						<name>SR001_ambiX.wav</name>
						<enabled>TRUE</enabled>
						<duration>134521</duration>
						<rate>
							<timebase>60</timebase>
							<ntsc>FALSE</ntsc>
						</rate>
						<start>9116</start>
						<end>9885</end>
						<in>15313</in>
						<out>16082</out>
						<pproTicksIn>64829116800000</pproTicksIn>
						<pproTicksOut>68084755200000</pproTicksOut>
						<file id="file-90"/>
						<sourcetrack>
							<mediatype>audio</mediatype>
							<trackindex>4</trackindex>
						</sourcetrack>
						<filter>
							<effect>
								<name>Gain</name>
								<effectid>{61756678, 4761696e, 4b657947}</effectid>
								<effecttype>filter</effecttype>
								<mediatype>audio</mediatype>
								<parameter authoringApp="PremierePro">
									<parameterid>Gain(dB)</parameterid>
									<name>Gain(dB)</name>
									<valuemin>-96</valuemin>
									<valuemax>96</valuemax>
									<value>2</value>
								</parameter>
							</effect>
						</filter>
						<filter>
							<effect>
								<name>Audio Levels</name>
								<effectid>audiolevels</effectid>
								<effectcategory>audiolevels</effectcategory>
								<effecttype>audiolevels</effecttype>
								<mediatype>audio</mediatype>
								<pproBypass>false</pproBypass>
								<parameter authoringApp="PremierePro">
									<parameterid>level</parameterid>
									<name>Level</name>
									<valuemin>0</valuemin>
									<valuemax>3.98109</valuemax>
									<value>1</value>
									<keyframe>
										<when>15498</when>
										<value>2</value>
									</keyframe>
									<keyframe>
										<when>15575</when>
										<value>1</value>
									</keyframe>
								</parameter>
							</effect>
						</filter>
						<link>
							<linkclipref>clipitem-563</linkclipref>
							<mediatype>audio</mediatype>
							<trackindex>3</trackindex>
							<clipindex>4</clipindex>
							<groupindex>1</groupindex>
						</link>
						<link>
							<linkclipref>clipitem-577</linkclipref>
							<mediatype>audio</mediatype>
							<trackindex>4</trackindex>
							<clipindex>4</clipindex>
							<groupindex>1</groupindex>
						</link>
						<link>
							<linkclipref>clipitem-591</linkclipref>
							<mediatype>audio</mediatype>
							<trackindex>5</trackindex>
							<clipindex>4</clipindex>
							<groupindex>1</groupindex>
						</link>
						<link>
							<linkclipref>clipitem-603</linkclipref>
							<mediatype>audio</mediatype>
							<trackindex>6</trackindex>
							<clipindex>4</clipindex>
							<groupindex>1</groupindex>
						</link>
						<logginginfo>
							<description></description>
							<scene></scene>
							<shottake></shottake>
							<lognote></lognote>
							<good></good>
							<originalvideofilename></originalvideofilename>
							<originalaudiofilename></originalaudiofilename>
						</logginginfo>
						<colorinfo>
							<lut></lut>
							<lut1></lut1>
							<asc_sop></asc_sop>
							<asc_sat></asc_sat>
							<lut2></lut2>
						</colorinfo>
						<labels>
							<label2>Blue</label2>
						</labels>
					</clipitem>
					<clipitem id="clipitem-604" premiereChannelType="adaptive">
						<masterclipid>masterclip-91</masterclipid>
						<name>SR001_ambiX.wav</name>
						<enabled>TRUE</enabled>
						<duration>447365</duration>
						<rate>
							<timebase>60</timebase>
							<ntsc>FALSE</ntsc>
						</rate>
						<start>9885</start>
						<end>19881</end>
						<in>69497</in>
						<out>79493</out>
						<pproTicksIn>294222499200000</pproTicksIn>
						<pproTicksOut>336541564800000</pproTicksOut>
						<file id="file-91"/>
						<sourcetrack>
							<mediatype>audio</mediatype>
							<trackindex>4</trackindex>
						</sourcetrack>
						<filter>
							<effect>
								<name>Audio Levels</name>
								<effectid>audiolevels</effectid>
								<effectcategory>audiolevels</effectcategory>
								<effecttype>audiolevels</effecttype>
								<mediatype>audio</mediatype>
								<pproBypass>false</pproBypass>
								<parameter authoringApp="PremierePro">
									<parameterid>level</parameterid>
									<name>Level</name>
									<valuemin>0</valuemin>
									<valuemax>3.98109</valuemax>
									<value>1</value>
									<keyframe>
										<when>68590</when>
										<value>2</value>
									</keyframe>
									<keyframe>
										<when>68934</when>
										<value>1</value>
									</keyframe>
									<keyframe>
										<when>70180</when>
										<value>1</value>
									</keyframe>
									<keyframe>
										<when>70317</when>
										<value>0.438596</value>
									</keyframe>
									<keyframe>
										<when>70640</when>
										<value>0.438596</value>
									</keyframe>
									<keyframe>
										<when>70737</when>
										<value>0.719298</value>
									</keyframe>
									<keyframe>
										<when>71049</when>
										<value>0.719298</value>
									</keyframe>
									<keyframe>
										<when>71325</when>
										<value>1</value>
									</keyframe>
									<keyframe>
										<when>72428</when>
										<value>1</value>
									</keyframe>
									<keyframe>
										<when>72575</when>
										<value>0.649123</value>
									</keyframe>
									<keyframe>
										<when>73412</when>
										<value>0.649123</value>
									</keyframe>
									<keyframe>
										<when>73533</when>
										<value>1</value>
									</keyframe>
									<keyframe>
										<when>77304</when>
										<value>1</value>
									</keyframe>
									<keyframe>
										<when>77451</when>
										<value>0.684211</value>
									</keyframe>
									<keyframe>
										<when>79230</when>
										<value>0.684211</value>
									</keyframe>
									<keyframe>
										<when>79296</when>
										<value>1</value>
									</keyframe>
								</parameter>
							</effect>
						</filter>
						<link>
							<linkclipref>clipitem-564</linkclipref>
							<mediatype>audio</mediatype>
							<trackindex>3</trackindex>
							<clipindex>5</clipindex>
							<groupindex>1</groupindex>
						</link>
						<link>
							<linkclipref>clipitem-578</linkclipref>
							<mediatype>audio</mediatype>
							<trackindex>4</trackindex>
							<clipindex>5</clipindex>
							<groupindex>1</groupindex>
						</link>
						<link>
							<linkclipref>clipitem-592</linkclipref>
							<mediatype>audio</mediatype>
							<trackindex>5</trackindex>
							<clipindex>5</clipindex>
							<groupindex>1</groupindex>
						</link>
						<link>
							<linkclipref>clipitem-604</linkclipref>
							<mediatype>audio</mediatype>
							<trackindex>6</trackindex>
							<clipindex>5</clipindex>
							<groupindex>1</groupindex>
						</link>
						<logginginfo>
							<description></description>
							<scene></scene>
							<shottake></shottake>
							<lognote></lognote>
							<good></good>
							<originalvideofilename></originalvideofilename>
							<originalaudiofilename></originalaudiofilename>
						</logginginfo>
						<colorinfo>
							<lut></lut>
							<lut1></lut1>
							<asc_sop></asc_sop>
							<asc_sat></asc_sat>
							<lut2></lut2>
						</colorinfo>
						<labels>
							<label2>Mango</label2>
						</labels>
					</clipitem>
					<clipitem id="clipitem-605" premiereChannelType="adaptive">
						<masterclipid>masterclip-90</masterclipid>
						<name>SR001_ambiX.wav</name>
						<enabled>TRUE</enabled>
						<duration>134521</duration>
						<rate>
							<timebase>60</timebase>
							<ntsc>FALSE</ntsc>
						</rate>
						<start>19881</start>
						<end>-1</end>
						<in>26324</in>
						<out>29310</out>
						<pproTicksIn>111445286400000</pproTicksIn>
						<pproTicksOut>124086816000000</pproTicksOut>
						<file id="file-90"/>
						<sourcetrack>
							<mediatype>audio</mediatype>
							<trackindex>4</trackindex>
						</sourcetrack>
						<filter>
							<effect>
								<name>Gain</name>
								<effectid>{61756678, 4761696e, 4b657947}</effectid>
								<effecttype>filter</effecttype>
								<mediatype>audio</mediatype>
								<parameter authoringApp="PremierePro">
									<parameterid>Gain(dB)</parameterid>
									<name>Gain(dB)</name>
									<valuemin>-96</valuemin>
									<valuemax>96</valuemax>
									<value>9</value>
								</parameter>
							</effect>
						</filter>
						<filter>
							<effect>
								<name>Audio Levels</name>
								<effectid>audiolevels</effectid>
								<effectcategory>audiolevels</effectcategory>
								<effecttype>audiolevels</effecttype>
								<mediatype>audio</mediatype>
								<pproBypass>false</pproBypass>
								<parameter authoringApp="PremierePro">
									<parameterid>level</parameterid>
									<name>Level</name>
									<valuemin>0</valuemin>
									<valuemax>3.98109</valuemax>
									<value>1</value>
									<keyframe>
										<when>29808</when>
										<value>1</value>
									</keyframe>
									<keyframe>
										<when>29988</when>
										<value>0</value>
									</keyframe>
								</parameter>
							</effect>
						</filter>
						<link>
							<linkclipref>clipitem-565</linkclipref>
							<mediatype>audio</mediatype>
							<trackindex>3</trackindex>
							<clipindex>6</clipindex>
							<groupindex>1</groupindex>
						</link>
						<link>
							<linkclipref>clipitem-579</linkclipref>
							<mediatype>audio</mediatype>
							<trackindex>4</trackindex>
							<clipindex>6</clipindex>
							<groupindex>1</groupindex>
						</link>
						<link>
							<linkclipref>clipitem-593</linkclipref>
							<mediatype>audio</mediatype>
							<trackindex>5</trackindex>
							<clipindex>6</clipindex>
							<groupindex>1</groupindex>
						</link>
						<link>
							<linkclipref>clipitem-605</linkclipref>
							<mediatype>audio</mediatype>
							<trackindex>6</trackindex>
							<clipindex>6</clipindex>
							<groupindex>1</groupindex>
						</link>
						<logginginfo>
							<description></description>
							<scene></scene>
							<shottake></shottake>
							<lognote></lognote>
							<good></good>
							<originalvideofilename></originalvideofilename>
							<originalaudiofilename></originalaudiofilename>
						</logginginfo>
						<colorinfo>
							<lut></lut>
							<lut1></lut1>
							<asc_sop></asc_sop>
							<asc_sat></asc_sat>
							<lut2></lut2>
						</colorinfo>
						<labels>
							<label2>Blue</label2>
						</labels>
					</clipitem>
					<transitionitem>
						<start>22865</start>
						<end>22867</end>
						<alignment>center</alignment>
						<cutPointTicks>4233600000</cutPointTicks>
						<rate>
							<timebase>60</timebase>
							<ntsc>FALSE</ntsc>
						</rate>
						<effect>
							<name>Cross Fade (+3dB)</name>
							<effectid>KGAudioTransCrossFade3dB</effectid>
							<effecttype>transition</effecttype>
							<mediatype>audio</mediatype>
							<wipecode>0</wipecode>
							<wipeaccuracy>100</wipeaccuracy>
							<startratio>0</startratio>
							<endratio>1</endratio>
							<reverse>FALSE</reverse>
						</effect>
					</transitionitem>
					<clipitem id="clipitem-606" premiereChannelType="adaptive">
						<masterclipid>masterclip-91</masterclipid>
						<name>SR001_ambiX.wav</name>
						<enabled>TRUE</enabled>
						<duration>447365</duration>
						<rate>
							<timebase>60</timebase>
							<ntsc>FALSE</ntsc>
						</rate>
						<start>-1</start>
						<end>29015</end>
						<in>82718</in>
						<out>88868</out>
						<pproTicksIn>350194924800000</pproTicksIn>
						<pproTicksOut>376231564800000</pproTicksOut>
						<file id="file-91"/>
						<sourcetrack>
							<mediatype>audio</mediatype>
							<trackindex>4</trackindex>
						</sourcetrack>
						<filter>
							<effect>
								<name>Gain</name>
								<effectid>{61756678, 4761696e, 4b657947}</effectid>
								<effecttype>filter</effecttype>
								<mediatype>audio</mediatype>
								<parameter authoringApp="PremierePro">
									<parameterid>Gain(dB)</parameterid>
									<name>Gain(dB)</name>
									<valuemin>-96</valuemin>
									<valuemax>96</valuemax>
									<value>16</value>
								</parameter>
							</effect>
						</filter>
						<filter>
							<effect>
								<name>Audio Levels</name>
								<effectid>audiolevels</effectid>
								<effectcategory>audiolevels</effectcategory>
								<effecttype>audiolevels</effecttype>
								<mediatype>audio</mediatype>
								<pproBypass>false</pproBypass>
								<parameter authoringApp="PremierePro">
									<parameterid>level</parameterid>
									<name>Level</name>
									<valuemin>0</valuemin>
									<valuemax>3.98109</valuemax>
									<value>2</value>
									<keyframe>
										<when>68590</when>
										<value>2</value>
									</keyframe>
									<keyframe>
										<when>68934</when>
										<value>1</value>
									</keyframe>
									<keyframe>
										<when>70180</when>
										<value>1</value>
									</keyframe>
									<keyframe>
										<when>70317</when>
										<value>0.719298</value>
									</keyframe>
									<keyframe>
										<when>71049</when>
										<value>0.719298</value>
									</keyframe>
									<keyframe>
										<when>71325</when>
										<value>1</value>
									</keyframe>
								</parameter>
							</effect>
						</filter>
						<link>
							<linkclipref>clipitem-566</linkclipref>
							<mediatype>audio</mediatype>
							<trackindex>3</trackindex>
							<clipindex>8</clipindex>
							<groupindex>1</groupindex>
						</link>
						<link>
							<linkclipref>clipitem-580</linkclipref>
							<mediatype>audio</mediatype>
							<trackindex>4</trackindex>
							<clipindex>8</clipindex>
							<groupindex>1</groupindex>
						</link>
						<link>
							<linkclipref>clipitem-594</linkclipref>
							<mediatype>audio</mediatype>
							<trackindex>5</trackindex>
							<clipindex>8</clipindex>
							<groupindex>1</groupindex>
						</link>
						<link>
							<linkclipref>clipitem-606</linkclipref>
							<mediatype>audio</mediatype>
							<trackindex>6</trackindex>
							<clipindex>8</clipindex>
							<groupindex>1</groupindex>
						</link>
						<logginginfo>
							<description></description>
							<scene></scene>
							<shottake></shottake>
							<lognote></lognote>
							<good></good>
							<originalvideofilename></originalvideofilename>
							<originalaudiofilename></originalaudiofilename>
						</logginginfo>
						<colorinfo>
							<lut></lut>
							<lut1></lut1>
							<asc_sop></asc_sop>
							<asc_sat></asc_sat>
							<lut2></lut2>
						</colorinfo>
						<labels>
							<label2>Mango</label2>
						</labels>
					</clipitem>
					<clipitem id="clipitem-607" premiereChannelType="adaptive">
						<masterclipid>masterclip-90</masterclipid>
						<name>SR001_ambiX.wav</name>
						<enabled>TRUE</enabled>
						<duration>134521</duration>
						<rate>
							<timebase>60</timebase>
							<ntsc>FALSE</ntsc>
						</rate>
						<start>29015</start>
						<end>29561</end>
						<in>46257</in>
						<out>46803</out>
						<pproTicksIn>195833635200000</pproTicksIn>
						<pproTicksOut>198145180800000</pproTicksOut>
						<file id="file-90"/>
						<sourcetrack>
							<mediatype>audio</mediatype>
							<trackindex>4</trackindex>
						</sourcetrack>
						<filter>
							<effect>
								<name>Gain</name>
								<effectid>{61756678, 4761696e, 4b657947}</effectid>
								<effecttype>filter</effecttype>
								<mediatype>audio</mediatype>
								<parameter authoringApp="PremierePro">
									<parameterid>Gain(dB)</parameterid>
									<name>Gain(dB)</name>
									<valuemin>-96</valuemin>
									<valuemax>96</valuemax>
									<value>2</value>
								</parameter>
							</effect>
						</filter>
						<link>
							<linkclipref>clipitem-567</linkclipref>
							<mediatype>audio</mediatype>
							<trackindex>3</trackindex>
							<clipindex>9</clipindex>
							<groupindex>1</groupindex>
						</link>
						<link>
							<linkclipref>clipitem-581</linkclipref>
							<mediatype>audio</mediatype>
							<trackindex>4</trackindex>
							<clipindex>9</clipindex>
							<groupindex>1</groupindex>
						</link>
						<link>
							<linkclipref>clipitem-595</linkclipref>
							<mediatype>audio</mediatype>
							<trackindex>5</trackindex>
							<clipindex>9</clipindex>
							<groupindex>1</groupindex>
						</link>
						<link>
							<linkclipref>clipitem-607</linkclipref>
							<mediatype>audio</mediatype>
							<trackindex>6</trackindex>
							<clipindex>9</clipindex>
							<groupindex>1</groupindex>
						</link>
						<logginginfo>
							<description></description>
							<scene></scene>
							<shottake></shottake>
							<lognote></lognote>
							<good></good>
							<originalvideofilename></originalvideofilename>
							<originalaudiofilename></originalaudiofilename>
						</logginginfo>
						<colorinfo>
							<lut></lut>
							<lut1></lut1>
							<asc_sop></asc_sop>
							<asc_sat></asc_sat>
							<lut2></lut2>
						</colorinfo>
						<labels>
							<label2>Blue</label2>
						</labels>
					</clipitem>
					<clipitem id="clipitem-608" premiereChannelType="adaptive">
						<masterclipid>masterclip-91</masterclipid>
						<name>SR001_ambiX.wav</name>
						<enabled>TRUE</enabled>
						<duration>447365</duration>
						<rate>
							<timebase>60</timebase>
							<ntsc>FALSE</ntsc>
						</rate>
						<start>31825</start>
						<end>38170</end>
						<in>128903</in>
						<out>135248</out>
						<pproTicksIn>545723740800000</pproTicksIn>
						<pproTicksOut>572585932800000</pproTicksOut>
						<file id="file-91"/>
						<sourcetrack>
							<mediatype>audio</mediatype>
							<trackindex>4</trackindex>
						</sourcetrack>
						<filter>
							<effect>
								<name>Gain</name>
								<effectid>{61756678, 4761696e, 4b657947}</effectid>
								<effecttype>filter</effecttype>
								<mediatype>audio</mediatype>
								<parameter authoringApp="PremierePro">
									<parameterid>Gain(dB)</parameterid>
									<name>Gain(dB)</name>
									<valuemin>-96</valuemin>
									<valuemax>96</valuemax>
									<value>1</value>
								</parameter>
							</effect>
						</filter>
						<filter>
							<effect>
								<name>Audio Levels</name>
								<effectid>audiolevels</effectid>
								<effectcategory>audiolevels</effectcategory>
								<effecttype>audiolevels</effecttype>
								<mediatype>audio</mediatype>
								<pproBypass>false</pproBypass>
								<parameter authoringApp="PremierePro">
									<parameterid>level</parameterid>
									<name>Level</name>
									<valuemin>0</valuemin>
									<valuemax>3.98109</valuemax>
									<value>2</value>
									<keyframe>
										<when>68590</when>
										<value>2</value>
									</keyframe>
									<keyframe>
										<when>68934</when>
										<value>1</value>
									</keyframe>
									<keyframe>
										<when>70180</when>
										<value>1</value>
									</keyframe>
									<keyframe>
										<when>70317</when>
										<value>0.719298</value>
									</keyframe>
									<keyframe>
										<when>71049</when>
										<value>0.719298</value>
									</keyframe>
									<keyframe>
										<when>71325</when>
										<value>1</value>
									</keyframe>
								</parameter>
							</effect>
						</filter>
						<link>
							<linkclipref>clipitem-568</linkclipref>
							<mediatype>audio</mediatype>
							<trackindex>3</trackindex>
							<clipindex>10</clipindex>
							<groupindex>1</groupindex>
						</link>
						<link>
							<linkclipref>clipitem-582</linkclipref>
							<mediatype>audio</mediatype>
							<trackindex>4</trackindex>
							<clipindex>10</clipindex>
							<groupindex>1</groupindex>
						</link>
						<link>
							<linkclipref>clipitem-596</linkclipref>
							<mediatype>audio</mediatype>
							<trackindex>5</trackindex>
							<clipindex>10</clipindex>
							<groupindex>1</groupindex>
						</link>
						<link>
							<linkclipref>clipitem-608</linkclipref>
							<mediatype>audio</mediatype>
							<trackindex>6</trackindex>
							<clipindex>10</clipindex>
							<groupindex>1</groupindex>
						</link>
						<logginginfo>
							<description></description>
							<scene></scene>
							<shottake></shottake>
							<lognote></lognote>
							<good></good>
							<originalvideofilename></originalvideofilename>
							<originalaudiofilename></originalaudiofilename>
						</logginginfo>
						<colorinfo>
							<lut></lut>
							<lut1></lut1>
							<asc_sop></asc_sop>
							<asc_sat></asc_sat>
							<lut2></lut2>
						</colorinfo>
						<labels>
							<label2>Mango</label2>
						</labels>
					</clipitem>
					<clipitem id="clipitem-609" premiereChannelType="adaptive">
						<masterclipid>masterclip-91</masterclipid>
						<name>SR001_ambiX.wav</name>
						<enabled>TRUE</enabled>
						<duration>447365</duration>
						<rate>
							<timebase>60</timebase>
							<ntsc>FALSE</ntsc>
						</rate>
						<start>41737</start>
						<end>45259</end>
						<in>195996</in>
						<out>199518</out>
						<pproTicksIn>829768665600000</pproTicksIn>
						<pproTicksOut>844679404800000</pproTicksOut>
						<file id="file-91"/>
						<sourcetrack>
							<mediatype>audio</mediatype>
							<trackindex>4</trackindex>
						</sourcetrack>
						<filter>
							<effect>
								<name>Gain</name>
								<effectid>{61756678, 4761696e, 4b657947}</effectid>
								<effecttype>filter</effecttype>
								<mediatype>audio</mediatype>
								<parameter authoringApp="PremierePro">
									<parameterid>Gain(dB)</parameterid>
									<name>Gain(dB)</name>
									<valuemin>-96</valuemin>
									<valuemax>96</valuemax>
									<value>16</value>
								</parameter>
							</effect>
						</filter>
						<filter>
							<effect>
								<name>Audio Levels</name>
								<effectid>audiolevels</effectid>
								<effectcategory>audiolevels</effectcategory>
								<effecttype>audiolevels</effecttype>
								<mediatype>audio</mediatype>
								<pproBypass>false</pproBypass>
								<parameter authoringApp="PremierePro">
									<parameterid>level</parameterid>
									<name>Level</name>
									<valuemin>0</valuemin>
									<valuemax>3.98109</valuemax>
									<value>2</value>
									<keyframe>
										<when>68590</when>
										<value>2</value>
									</keyframe>
									<keyframe>
										<when>68934</when>
										<value>1</value>
									</keyframe>
									<keyframe>
										<when>70180</when>
										<value>1</value>
									</keyframe>
									<keyframe>
										<when>70317</when>
										<value>0.719298</value>
									</keyframe>
									<keyframe>
										<when>71049</when>
										<value>0.719298</value>
									</keyframe>
									<keyframe>
										<when>71325</when>
										<value>2</value>
									</keyframe>
									<keyframe>
										<when>195996</when>
										<value>0</value>
									</keyframe>
									<keyframe>
										<when>196190</when>
										<value>2</value>
									</keyframe>
									<keyframe>
										<when>196499</when>
										<value>2</value>
									</keyframe>
									<keyframe>
										<when>196703</when>
										<value>1</value>
									</keyframe>
									<keyframe>
										<when>197508</when>
										<value>1</value>
									</keyframe>
									<keyframe>
										<when>197653</when>
										<value>0.54386</value>
									</keyframe>
									<keyframe>
										<when>197755</when>
										<value>0.54386</value>
									</keyframe>
									<keyframe>
										<when>197917</when>
										<value>1</value>
									</keyframe>
								</parameter>
							</effect>
						</filter>
						<link>
							<linkclipref>clipitem-569</linkclipref>
							<mediatype>audio</mediatype>
							<trackindex>3</trackindex>
							<clipindex>11</clipindex>
							<groupindex>1</groupindex>
						</link>
						<link>
							<linkclipref>clipitem-583</linkclipref>
							<mediatype>audio</mediatype>
							<trackindex>4</trackindex>
							<clipindex>11</clipindex>
							<groupindex>1</groupindex>
						</link>
						<link>
							<linkclipref>clipitem-597</linkclipref>
							<mediatype>audio</mediatype>
							<trackindex>5</trackindex>
							<clipindex>11</clipindex>
							<groupindex>1</groupindex>
						</link>
						<link>
							<linkclipref>clipitem-609</linkclipref>
							<mediatype>audio</mediatype>
							<trackindex>6</trackindex>
							<clipindex>11</clipindex>
							<groupindex>1</groupindex>
						</link>
						<logginginfo>
							<description></description>
							<scene></scene>
							<shottake></shottake>
							<lognote></lognote>
							<good></good>
							<originalvideofilename></originalvideofilename>
							<originalaudiofilename></originalaudiofilename>
						</logginginfo>
						<colorinfo>
							<lut></lut>
							<lut1></lut1>
							<asc_sop></asc_sop>
							<asc_sat></asc_sat>
							<lut2></lut2>
						</colorinfo>
						<labels>
							<label2>Mango</label2>
						</labels>
					</clipitem>
					<clipitem id="clipitem-610" premiereChannelType="adaptive">
						<masterclipid>masterclip-90</masterclipid>
						<name>SR001_ambiX.wav</name>
						<enabled>TRUE</enabled>
						<duration>134521</duration>
						<rate>
							<timebase>60</timebase>
							<ntsc>FALSE</ntsc>
						</rate>
						<start>45259</start>
						<end>47150</end>
						<in>73493</in>
						<out>75384</out>
						<pproTicksIn>311139964800000</pproTicksIn>
						<pproTicksOut>319145702400000</pproTicksOut>
						<file id="file-90"/>
						<sourcetrack>
							<mediatype>audio</mediatype>
							<trackindex>4</trackindex>
						</sourcetrack>
						<filter>
							<effect>
								<name>Gain</name>
								<effectid>{61756678, 4761696e, 4b657947}</effectid>
								<effecttype>filter</effecttype>
								<mediatype>audio</mediatype>
								<parameter authoringApp="PremierePro">
									<parameterid>Gain(dB)</parameterid>
									<name>Gain(dB)</name>
									<valuemin>-96</valuemin>
									<valuemax>96</valuemax>
									<value>2</value>
								</parameter>
							</effect>
						</filter>
						<filter>
							<effect>
								<name>Audio Levels</name>
								<effectid>audiolevels</effectid>
								<effectcategory>audiolevels</effectcategory>
								<effecttype>audiolevels</effecttype>
								<mediatype>audio</mediatype>
								<pproBypass>false</pproBypass>
								<parameter authoringApp="PremierePro">
									<parameterid>level</parameterid>
									<name>Level</name>
									<valuemin>0</valuemin>
									<valuemax>3.98109</valuemax>
									<value>1</value>
									<keyframe>
										<when>75249</when>
										<value>1</value>
									</keyframe>
									<keyframe>
										<when>75384</when>
										<value>0</value>
									</keyframe>
								</parameter>
							</effect>
						</filter>
						<link>
							<linkclipref>clipitem-570</linkclipref>
							<mediatype>audio</mediatype>
							<trackindex>3</trackindex>
							<clipindex>12</clipindex>
							<groupindex>1</groupindex>
						</link>
						<link>
							<linkclipref>clipitem-584</linkclipref>
							<mediatype>audio</mediatype>
							<trackindex>4</trackindex>
							<clipindex>12</clipindex>
							<groupindex>1</groupindex>
						</link>
						<link>
							<linkclipref>clipitem-598</linkclipref>
							<mediatype>audio</mediatype>
							<trackindex>5</trackindex>
							<clipindex>12</clipindex>
							<groupindex>1</groupindex>
						</link>
						<link>
							<linkclipref>clipitem-610</linkclipref>
							<mediatype>audio</mediatype>
							<trackindex>6</trackindex>
							<clipindex>12</clipindex>
							<groupindex>1</groupindex>
						</link>
						<logginginfo>
							<description></description>
							<scene></scene>
							<shottake></shottake>
							<lognote></lognote>
							<good></good>
							<originalvideofilename></originalvideofilename>
							<originalaudiofilename></originalaudiofilename>
						</logginginfo>
						<colorinfo>
							<lut></lut>
							<lut1></lut1>
							<asc_sop></asc_sop>
							<asc_sat></asc_sat>
							<lut2></lut2>
						</colorinfo>
						<labels>
							<label2>Blue</label2>
						</labels>
					</clipitem>
					<clipitem id="clipitem-611" premiereChannelType="adaptive">
						<masterclipid>masterclip-92</masterclipid>
						<name>SR008_ambiX.wav</name>
						<enabled>TRUE</enabled>
						<duration>447365</duration>
						<rate>
							<timebase>60</timebase>
							<ntsc>FALSE</ntsc>
						</rate>
						<start>47170</start>
						<end>55523</end>
						<in>129576</in>
						<out>137929</out>
						<pproTicksIn>548572953600000</pproTicksIn>
						<pproTicksOut>583936214400000</pproTicksOut>
						<file id="file-92"/>
						<sourcetrack>
							<mediatype>audio</mediatype>
							<trackindex>4</trackindex>
						</sourcetrack>
						<filter>
							<effect>
								<name>Gain</name>
								<effectid>{61756678, 4761696e, 4b657947}</effectid>
								<effecttype>filter</effecttype>
								<mediatype>audio</mediatype>
								<parameter authoringApp="PremierePro">
									<parameterid>Gain(dB)</parameterid>
									<name>Gain(dB)</name>
									<valuemin>-96</valuemin>
									<valuemax>96</valuemax>
									<value>16</value>
								</parameter>
							</effect>
						</filter>
						<filter>
							<effect>
								<name>Audio Levels</name>
								<effectid>audiolevels</effectid>
								<effectcategory>audiolevels</effectcategory>
								<effecttype>audiolevels</effecttype>
								<mediatype>audio</mediatype>
								<pproBypass>false</pproBypass>
								<parameter authoringApp="PremierePro">
									<parameterid>level</parameterid>
									<name>Level</name>
									<valuemin>0</valuemin>
									<valuemax>3.98109</valuemax>
									<value>0</value>
									<keyframe>
										<when>129354</when>
										<value>0</value>
									</keyframe>
									<keyframe>
										<when>129574</when>
										<value>1</value>
									</keyframe>
									<keyframe>
										<when>144185</when>
										<value>1</value>
									</keyframe>
									<keyframe>
										<when>144604</when>
										<value>0</value>
									</keyframe>
									<keyframe>
										<when>154026</when>
										<value>1</value>
									</keyframe>
									<keyframe>
										<when>154214</when>
										<value>0</value>
									</keyframe>
								</parameter>
							</effect>
						</filter>
						<link>
							<linkclipref>clipitem-571</linkclipref>
							<mediatype>audio</mediatype>
							<trackindex>3</trackindex>
							<clipindex>13</clipindex>
							<groupindex>1</groupindex>
						</link>
						<link>
							<linkclipref>clipitem-585</linkclipref>
							<mediatype>audio</mediatype>
							<trackindex>4</trackindex>
							<clipindex>13</clipindex>
							<groupindex>1</groupindex>
						</link>
						<link>
							<linkclipref>clipitem-599</linkclipref>
							<mediatype>audio</mediatype>
							<trackindex>5</trackindex>
							<clipindex>13</clipindex>
							<groupindex>1</groupindex>
						</link>
						<link>
							<linkclipref>clipitem-611</linkclipref>
							<mediatype>audio</mediatype>
							<trackindex>6</trackindex>
							<clipindex>13</clipindex>
							<groupindex>1</groupindex>
						</link>
						<logginginfo>
							<description></description>
							<scene></scene>
							<shottake></shottake>
							<lognote></lognote>
							<good></good>
							<originalvideofilename></originalvideofilename>
							<originalaudiofilename></originalaudiofilename>
						</logginginfo>
						<colorinfo>
							<lut></lut>
							<lut1></lut1>
							<asc_sop></asc_sop>
							<asc_sat></asc_sat>
							<lut2></lut2>
						</colorinfo>
						<labels>
							<label2>Violet</label2>
						</labels>
					</clipitem>
					<enabled>TRUE</enabled>
					<locked>FALSE</locked>
					<outputchannelindex>4</outputchannelindex>
				</track>
				<track TL.SQTrackAudioKeyframeStyle="0" TL.SQTrackShy="0" TL.SQTrackExpandedHeight="15" TL.SQTrackExpanded="0" MZ.TrackTargeted="1" PannerCurrentValue="0.5" PannerIsInverted="true" PannerStartKeyframe="-91445760000000000,0.5,0,0,0,0,0,0" PannerName="Balance" currentExplodedTrackIndex="0" totalExplodedTrackCount="4" premiereTrackType="SixteenChannel">
					<clipitem id="clipitem-612" premiereChannelType="adaptive">
						<masterclipid>masterclip-94</masterclipid>
						<name>SR005_ambiX.wav</name>
						<enabled>TRUE</enabled>
						<duration>145145</duration>
						<rate>
							<timebase>60</timebase>
							<ntsc>FALSE</ntsc>
						</rate>
						<start>29561</start>
						<end>32292</end>
						<in>57227</in>
						<out>59958</out>
						<pproTicksIn>242276227200000</pproTicksIn>
						<pproTicksOut>253838188800000</pproTicksOut>
						<file id="file-94">
							<name>SR005_ambiX.wav</name>
							<pathurl>file://localhost/G%3a/Departments/_Post/__Projects/035_Chimps_Part_2/1.Raw/Ingest/project_chimps_20180510/Kandao/audio/4CH/FOLDER01/SR005_ambiX.wav</pathurl>
							<rate>
								<timebase>30</timebase>
								<ntsc>TRUE</ntsc>
							</rate>
							<duration>72500</duration>
							<timecode>
								<rate>
									<timebase>30</timebase>
									<ntsc>TRUE</ntsc>
								</rate>
								<string>06;08;46;20</string>
								<frame>663136</frame>
								<displayformat>DF</displayformat>
							</timecode>
							<media>
								<audio>
									<samplecharacteristics>
										<depth>16</depth>
										<samplerate>48000</samplerate>
									</samplecharacteristics>
								</audio>
							</media>
						</file>
						<sourcetrack>
							<mediatype>audio</mediatype>
							<trackindex>1</trackindex>
						</sourcetrack>
						<filter>
							<effect>
								<name>Gain</name>
								<effectid>{61756678, 4761696e, 4b657947}</effectid>
								<effecttype>filter</effecttype>
								<mediatype>audio</mediatype>
								<parameter authoringApp="PremierePro">
									<parameterid>Gain(dB)</parameterid>
									<name>Gain(dB)</name>
									<valuemin>-96</valuemin>
									<valuemax>96</valuemax>
									<value>8</value>
								</parameter>
							</effect>
						</filter>
						<filter>
							<effect>
								<name>Audio Levels</name>
								<effectid>audiolevels</effectid>
								<effectcategory>audiolevels</effectcategory>
								<effecttype>audiolevels</effecttype>
								<mediatype>audio</mediatype>
								<pproBypass>false</pproBypass>
								<parameter authoringApp="PremierePro">
									<parameterid>level</parameterid>
									<name>Level</name>
									<valuemin>0</valuemin>
									<valuemax>3.98109</valuemax>
									<value>0</value>
									<keyframe>
										<when>45234</when>
										<value>0</value>
									</keyframe>
									<keyframe>
										<when>45414</when>
										<value>2</value>
									</keyframe>
									<keyframe>
										<when>56410</when>
										<value>2</value>
									</keyframe>
									<keyframe>
										<when>57431</when>
										<value>0.612903</value>
									</keyframe>
									<keyframe>
										<when>59621</when>
										<value>0.599286</value>
									</keyframe>
									<keyframe>
										<when>59958</when>
										<value>0</value>
									</keyframe>
								</parameter>
							</effect>
						</filter>
						<link>
							<linkclipref>clipitem-612</linkclipref>
							<mediatype>audio</mediatype>
							<trackindex>7</trackindex>
							<clipindex>1</clipindex>
							<groupindex>1</groupindex>
						</link>
						<link>
							<linkclipref>clipitem-614</linkclipref>
							<mediatype>audio</mediatype>
							<trackindex>8</trackindex>
							<clipindex>1</clipindex>
							<groupindex>1</groupindex>
						</link>
						<link>
							<linkclipref>clipitem-616</linkclipref>
							<mediatype>audio</mediatype>
							<trackindex>9</trackindex>
							<clipindex>1</clipindex>
							<groupindex>1</groupindex>
						</link>
						<link>
							<linkclipref>clipitem-618</linkclipref>
							<mediatype>audio</mediatype>
							<trackindex>10</trackindex>
							<clipindex>1</clipindex>
							<groupindex>1</groupindex>
						</link>
						<logginginfo>
							<description></description>
							<scene></scene>
							<shottake></shottake>
							<lognote></lognote>
							<good></good>
							<originalvideofilename></originalvideofilename>
							<originalaudiofilename></originalaudiofilename>
						</logginginfo>
						<colorinfo>
							<lut></lut>
							<lut1></lut1>
							<asc_sop></asc_sop>
							<asc_sat></asc_sat>
							<lut2></lut2>
						</colorinfo>
						<labels>
							<label2>Tan</label2>
						</labels>
					</clipitem>
					<clipitem id="clipitem-613" premiereChannelType="adaptive">
						<masterclipid>masterclip-90</masterclipid>
						<name>SR001_ambiX.wav</name>
						<enabled>TRUE</enabled>
						<duration>134521</duration>
						<rate>
							<timebase>60</timebase>
							<ntsc>FALSE</ntsc>
						</rate>
						<start>38170</start>
						<end>42258</end>
						<in>118644</in>
						<out>122732</out>
						<pproTicksIn>502291238400000</pproTicksIn>
						<pproTicksOut>519598195200000</pproTicksOut>
						<file id="file-90"/>
						<sourcetrack>
							<mediatype>audio</mediatype>
							<trackindex>1</trackindex>
						</sourcetrack>
						<filter>
							<effect>
								<name>Gain</name>
								<effectid>{61756678, 4761696e, 4b657947}</effectid>
								<effecttype>filter</effecttype>
								<mediatype>audio</mediatype>
								<parameter authoringApp="PremierePro">
									<parameterid>Gain(dB)</parameterid>
									<name>Gain(dB)</name>
									<valuemin>-96</valuemin>
									<valuemax>96</valuemax>
									<value>2</value>
								</parameter>
							</effect>
						</filter>
						<filter>
							<effect>
								<name>Audio Levels</name>
								<effectid>audiolevels</effectid>
								<effectcategory>audiolevels</effectcategory>
								<effecttype>audiolevels</effecttype>
								<mediatype>audio</mediatype>
								<pproBypass>false</pproBypass>
								<parameter authoringApp="PremierePro">
									<parameterid>level</parameterid>
									<name>Level</name>
									<valuemin>0</valuemin>
									<valuemax>3.98109</valuemax>
									<value>1</value>
									<keyframe>
										<when>122350</when>
										<value>1</value>
									</keyframe>
									<keyframe>
										<when>122732</when>
										<value>0</value>
									</keyframe>
								</parameter>
							</effect>
						</filter>
						<link>
							<linkclipref>clipitem-613</linkclipref>
							<mediatype>audio</mediatype>
							<trackindex>7</trackindex>
							<clipindex>2</clipindex>
							<groupindex>1</groupindex>
						</link>
						<link>
							<linkclipref>clipitem-615</linkclipref>
							<mediatype>audio</mediatype>
							<trackindex>8</trackindex>
							<clipindex>2</clipindex>
							<groupindex>1</groupindex>
						</link>
						<link>
							<linkclipref>clipitem-617</linkclipref>
							<mediatype>audio</mediatype>
							<trackindex>9</trackindex>
							<clipindex>2</clipindex>
							<groupindex>1</groupindex>
						</link>
						<link>
							<linkclipref>clipitem-619</linkclipref>
							<mediatype>audio</mediatype>
							<trackindex>10</trackindex>
							<clipindex>2</clipindex>
							<groupindex>1</groupindex>
						</link>
						<logginginfo>
							<description></description>
							<scene></scene>
							<shottake></shottake>
							<lognote></lognote>
							<good></good>
							<originalvideofilename></originalvideofilename>
							<originalaudiofilename></originalaudiofilename>
						</logginginfo>
						<colorinfo>
							<lut></lut>
							<lut1></lut1>
							<asc_sop></asc_sop>
							<asc_sat></asc_sat>
							<lut2></lut2>
						</colorinfo>
						<labels>
							<label2>Blue</label2>
						</labels>
					</clipitem>
					<enabled>TRUE</enabled>
					<locked>FALSE</locked>
					<outputchannelindex>1</outputchannelindex>
				</track>
				<track TL.SQTrackAudioKeyframeStyle="0" TL.SQTrackShy="0" TL.SQTrackExpandedHeight="15" TL.SQTrackExpanded="0" MZ.TrackTargeted="1" PannerCurrentValue="0.5" PannerIsInverted="true" PannerStartKeyframe="-91445760000000000,0.5,0,0,0,0,0,0" PannerName="Balance" currentExplodedTrackIndex="1" totalExplodedTrackCount="4" premiereTrackType="SixteenChannel">
					<clipitem id="clipitem-614" premiereChannelType="adaptive">
						<masterclipid>masterclip-94</masterclipid>
						<name>SR005_ambiX.wav</name>
						<enabled>TRUE</enabled>
						<duration>145145</duration>
						<rate>
							<timebase>60</timebase>
							<ntsc>FALSE</ntsc>
						</rate>
						<start>29561</start>
						<end>32292</end>
						<in>57227</in>
						<out>59958</out>
						<pproTicksIn>242276227200000</pproTicksIn>
						<pproTicksOut>253838188800000</pproTicksOut>
						<file id="file-94"/>
						<sourcetrack>
							<mediatype>audio</mediatype>
							<trackindex>2</trackindex>
						</sourcetrack>
						<filter>
							<effect>
								<name>Gain</name>
								<effectid>{61756678, 4761696e, 4b657947}</effectid>
								<effecttype>filter</effecttype>
								<mediatype>audio</mediatype>
								<parameter authoringApp="PremierePro">
									<parameterid>Gain(dB)</parameterid>
									<name>Gain(dB)</name>
									<valuemin>-96</valuemin>
									<valuemax>96</valuemax>
									<value>8</value>
								</parameter>
							</effect>
						</filter>
						<filter>
							<effect>
								<name>Audio Levels</name>
								<effectid>audiolevels</effectid>
								<effectcategory>audiolevels</effectcategory>
								<effecttype>audiolevels</effecttype>
								<mediatype>audio</mediatype>
								<pproBypass>false</pproBypass>
								<parameter authoringApp="PremierePro">
									<parameterid>level</parameterid>
									<name>Level</name>
									<valuemin>0</valuemin>
									<valuemax>3.98109</valuemax>
									<value>0</value>
									<keyframe>
										<when>45234</when>
										<value>0</value>
									</keyframe>
									<keyframe>
										<when>45414</when>
										<value>2</value>
									</keyframe>
									<keyframe>
										<when>56410</when>
										<value>2</value>
									</keyframe>
									<keyframe>
										<when>57431</when>
										<value>0.612903</value>
									</keyframe>
									<keyframe>
										<when>59621</when>
										<value>0.599286</value>
									</keyframe>
									<keyframe>
										<when>59958</when>
										<value>0</value>
									</keyframe>
								</parameter>
							</effect>
						</filter>
						<link>
							<linkclipref>clipitem-612</linkclipref>
							<mediatype>audio</mediatype>
							<trackindex>7</trackindex>
							<clipindex>1</clipindex>
							<groupindex>1</groupindex>
						</link>
						<link>
							<linkclipref>clipitem-614</linkclipref>
							<mediatype>audio</mediatype>
							<trackindex>8</trackindex>
							<clipindex>1</clipindex>
							<groupindex>1</groupindex>
						</link>
						<link>
							<linkclipref>clipitem-616</linkclipref>
							<mediatype>audio</mediatype>
							<trackindex>9</trackindex>
							<clipindex>1</clipindex>
							<groupindex>1</groupindex>
						</link>
						<link>
							<linkclipref>clipitem-618</linkclipref>
							<mediatype>audio</mediatype>
							<trackindex>10</trackindex>
							<clipindex>1</clipindex>
							<groupindex>1</groupindex>
						</link>
						<logginginfo>
							<description></description>
							<scene></scene>
							<shottake></shottake>
							<lognote></lognote>
							<good></good>
							<originalvideofilename></originalvideofilename>
							<originalaudiofilename></originalaudiofilename>
						</logginginfo>
						<colorinfo>
							<lut></lut>
							<lut1></lut1>
							<asc_sop></asc_sop>
							<asc_sat></asc_sat>
							<lut2></lut2>
						</colorinfo>
						<labels>
							<label2>Tan</label2>
						</labels>
					</clipitem>
					<clipitem id="clipitem-615" premiereChannelType="adaptive">
						<masterclipid>masterclip-90</masterclipid>
						<name>SR001_ambiX.wav</name>
						<enabled>TRUE</enabled>
						<duration>134521</duration>
						<rate>
							<timebase>60</timebase>
							<ntsc>FALSE</ntsc>
						</rate>
						<start>38170</start>
						<end>42258</end>
						<in>118644</in>
						<out>122732</out>
						<pproTicksIn>502291238400000</pproTicksIn>
						<pproTicksOut>519598195200000</pproTicksOut>
						<file id="file-90"/>
						<sourcetrack>
							<mediatype>audio</mediatype>
							<trackindex>2</trackindex>
						</sourcetrack>
						<filter>
							<effect>
								<name>Gain</name>
								<effectid>{61756678, 4761696e, 4b657947}</effectid>
								<effecttype>filter</effecttype>
								<mediatype>audio</mediatype>
								<parameter authoringApp="PremierePro">
									<parameterid>Gain(dB)</parameterid>
									<name>Gain(dB)</name>
									<valuemin>-96</valuemin>
									<valuemax>96</valuemax>
									<value>2</value>
								</parameter>
							</effect>
						</filter>
						<filter>
							<effect>
								<name>Audio Levels</name>
								<effectid>audiolevels</effectid>
								<effectcategory>audiolevels</effectcategory>
								<effecttype>audiolevels</effecttype>
								<mediatype>audio</mediatype>
								<pproBypass>false</pproBypass>
								<parameter authoringApp="PremierePro">
									<parameterid>level</parameterid>
									<name>Level</name>
									<valuemin>0</valuemin>
									<valuemax>3.98109</valuemax>
									<value>1</value>
									<keyframe>
										<when>122350</when>
										<value>1</value>
									</keyframe>
									<keyframe>
										<when>122732</when>
										<value>0</value>
									</keyframe>
								</parameter>
							</effect>
						</filter>
						<link>
							<linkclipref>clipitem-613</linkclipref>
							<mediatype>audio</mediatype>
							<trackindex>7</trackindex>
							<clipindex>2</clipindex>
							<groupindex>1</groupindex>
						</link>
						<link>
							<linkclipref>clipitem-615</linkclipref>
							<mediatype>audio</mediatype>
							<trackindex>8</trackindex>
							<clipindex>2</clipindex>
							<groupindex>1</groupindex>
						</link>
						<link>
							<linkclipref>clipitem-617</linkclipref>
							<mediatype>audio</mediatype>
							<trackindex>9</trackindex>
							<clipindex>2</clipindex>
							<groupindex>1</groupindex>
						</link>
						<link>
							<linkclipref>clipitem-619</linkclipref>
							<mediatype>audio</mediatype>
							<trackindex>10</trackindex>
							<clipindex>2</clipindex>
							<groupindex>1</groupindex>
						</link>
						<logginginfo>
							<description></description>
							<scene></scene>
							<shottake></shottake>
							<lognote></lognote>
							<good></good>
							<originalvideofilename></originalvideofilename>
							<originalaudiofilename></originalaudiofilename>
						</logginginfo>
						<colorinfo>
							<lut></lut>
							<lut1></lut1>
							<asc_sop></asc_sop>
							<asc_sat></asc_sat>
							<lut2></lut2>
						</colorinfo>
						<labels>
							<label2>Blue</label2>
						</labels>
					</clipitem>
					<enabled>TRUE</enabled>
					<locked>FALSE</locked>
					<outputchannelindex>2</outputchannelindex>
				</track>
				<track TL.SQTrackAudioKeyframeStyle="0" TL.SQTrackShy="0" TL.SQTrackExpandedHeight="15" TL.SQTrackExpanded="0" MZ.TrackTargeted="1" PannerCurrentValue="0.5" PannerIsInverted="true" PannerStartKeyframe="-91445760000000000,0.5,0,0,0,0,0,0" PannerName="Balance" currentExplodedTrackIndex="2" totalExplodedTrackCount="4" premiereTrackType="SixteenChannel">
					<clipitem id="clipitem-616" premiereChannelType="adaptive">
						<masterclipid>masterclip-94</masterclipid>
						<name>SR005_ambiX.wav</name>
						<enabled>TRUE</enabled>
						<duration>145145</duration>
						<rate>
							<timebase>60</timebase>
							<ntsc>FALSE</ntsc>
						</rate>
						<start>29561</start>
						<end>32292</end>
						<in>57227</in>
						<out>59958</out>
						<pproTicksIn>242276227200000</pproTicksIn>
						<pproTicksOut>253838188800000</pproTicksOut>
						<file id="file-94"/>
						<sourcetrack>
							<mediatype>audio</mediatype>
							<trackindex>3</trackindex>
						</sourcetrack>
						<filter>
							<effect>
								<name>Gain</name>
								<effectid>{61756678, 4761696e, 4b657947}</effectid>
								<effecttype>filter</effecttype>
								<mediatype>audio</mediatype>
								<parameter authoringApp="PremierePro">
									<parameterid>Gain(dB)</parameterid>
									<name>Gain(dB)</name>
									<valuemin>-96</valuemin>
									<valuemax>96</valuemax>
									<value>8</value>
								</parameter>
							</effect>
						</filter>
						<filter>
							<effect>
								<name>Audio Levels</name>
								<effectid>audiolevels</effectid>
								<effectcategory>audiolevels</effectcategory>
								<effecttype>audiolevels</effecttype>
								<mediatype>audio</mediatype>
								<pproBypass>false</pproBypass>
								<parameter authoringApp="PremierePro">
									<parameterid>level</parameterid>
									<name>Level</name>
									<valuemin>0</valuemin>
									<valuemax>3.98109</valuemax>
									<value>0</value>
									<keyframe>
										<when>45234</when>
										<value>0</value>
									</keyframe>
									<keyframe>
										<when>45414</when>
										<value>2</value>
									</keyframe>
									<keyframe>
										<when>56410</when>
										<value>2</value>
									</keyframe>
									<keyframe>
										<when>57431</when>
										<value>0.612903</value>
									</keyframe>
									<keyframe>
										<when>59621</when>
										<value>0.599286</value>
									</keyframe>
									<keyframe>
										<when>59958</when>
										<value>0</value>
									</keyframe>
								</parameter>
							</effect>
						</filter>
						<link>
							<linkclipref>clipitem-612</linkclipref>
							<mediatype>audio</mediatype>
							<trackindex>7</trackindex>
							<clipindex>1</clipindex>
							<groupindex>1</groupindex>
						</link>
						<link>
							<linkclipref>clipitem-614</linkclipref>
							<mediatype>audio</mediatype>
							<trackindex>8</trackindex>
							<clipindex>1</clipindex>
							<groupindex>1</groupindex>
						</link>
						<link>
							<linkclipref>clipitem-616</linkclipref>
							<mediatype>audio</mediatype>
							<trackindex>9</trackindex>
							<clipindex>1</clipindex>
							<groupindex>1</groupindex>
						</link>
						<link>
							<linkclipref>clipitem-618</linkclipref>
							<mediatype>audio</mediatype>
							<trackindex>10</trackindex>
							<clipindex>1</clipindex>
							<groupindex>1</groupindex>
						</link>
						<logginginfo>
							<description></description>
							<scene></scene>
							<shottake></shottake>
							<lognote></lognote>
							<good></good>
							<originalvideofilename></originalvideofilename>
							<originalaudiofilename></originalaudiofilename>
						</logginginfo>
						<colorinfo>
							<lut></lut>
							<lut1></lut1>
							<asc_sop></asc_sop>
							<asc_sat></asc_sat>
							<lut2></lut2>
						</colorinfo>
						<labels>
							<label2>Tan</label2>
						</labels>
					</clipitem>
					<clipitem id="clipitem-617" premiereChannelType="adaptive">
						<masterclipid>masterclip-90</masterclipid>
						<name>SR001_ambiX.wav</name>
						<enabled>TRUE</enabled>
						<duration>134521</duration>
						<rate>
							<timebase>60</timebase>
							<ntsc>FALSE</ntsc>
						</rate>
						<start>38170</start>
						<end>42258</end>
						<in>118644</in>
						<out>122732</out>
						<pproTicksIn>502291238400000</pproTicksIn>
						<pproTicksOut>519598195200000</pproTicksOut>
						<file id="file-90"/>
						<sourcetrack>
							<mediatype>audio</mediatype>
							<trackindex>3</trackindex>
						</sourcetrack>
						<filter>
							<effect>
								<name>Gain</name>
								<effectid>{61756678, 4761696e, 4b657947}</effectid>
								<effecttype>filter</effecttype>
								<mediatype>audio</mediatype>
								<parameter authoringApp="PremierePro">
									<parameterid>Gain(dB)</parameterid>
									<name>Gain(dB)</name>
									<valuemin>-96</valuemin>
									<valuemax>96</valuemax>
									<value>2</value>
								</parameter>
							</effect>
						</filter>
						<filter>
							<effect>
								<name>Audio Levels</name>
								<effectid>audiolevels</effectid>
								<effectcategory>audiolevels</effectcategory>
								<effecttype>audiolevels</effecttype>
								<mediatype>audio</mediatype>
								<pproBypass>false</pproBypass>
								<parameter authoringApp="PremierePro">
									<parameterid>level</parameterid>
									<name>Level</name>
									<valuemin>0</valuemin>
									<valuemax>3.98109</valuemax>
									<value>1</value>
									<keyframe>
										<when>122350</when>
										<value>1</value>
									</keyframe>
									<keyframe>
										<when>122732</when>
										<value>0</value>
									</keyframe>
								</parameter>
							</effect>
						</filter>
						<link>
							<linkclipref>clipitem-613</linkclipref>
							<mediatype>audio</mediatype>
							<trackindex>7</trackindex>
							<clipindex>2</clipindex>
							<groupindex>1</groupindex>
						</link>
						<link>
							<linkclipref>clipitem-615</linkclipref>
							<mediatype>audio</mediatype>
							<trackindex>8</trackindex>
							<clipindex>2</clipindex>
							<groupindex>1</groupindex>
						</link>
						<link>
							<linkclipref>clipitem-617</linkclipref>
							<mediatype>audio</mediatype>
							<trackindex>9</trackindex>
							<clipindex>2</clipindex>
							<groupindex>1</groupindex>
						</link>
						<link>
							<linkclipref>clipitem-619</linkclipref>
							<mediatype>audio</mediatype>
							<trackindex>10</trackindex>
							<clipindex>2</clipindex>
							<groupindex>1</groupindex>
						</link>
						<logginginfo>
							<description></description>
							<scene></scene>
							<shottake></shottake>
							<lognote></lognote>
							<good></good>
							<originalvideofilename></originalvideofilename>
							<originalaudiofilename></originalaudiofilename>
						</logginginfo>
						<colorinfo>
							<lut></lut>
							<lut1></lut1>
							<asc_sop></asc_sop>
							<asc_sat></asc_sat>
							<lut2></lut2>
						</colorinfo>
						<labels>
							<label2>Blue</label2>
						</labels>
					</clipitem>
					<enabled>TRUE</enabled>
					<locked>FALSE</locked>
					<outputchannelindex>3</outputchannelindex>
				</track>
				<track TL.SQTrackAudioKeyframeStyle="0" TL.SQTrackShy="0" TL.SQTrackExpandedHeight="15" TL.SQTrackExpanded="0" MZ.TrackTargeted="1" PannerCurrentValue="0.5" PannerIsInverted="true" PannerStartKeyframe="-91445760000000000,0.5,0,0,0,0,0,0" PannerName="Balance" currentExplodedTrackIndex="3" totalExplodedTrackCount="4" premiereTrackType="SixteenChannel">
					<clipitem id="clipitem-618" premiereChannelType="adaptive">
						<masterclipid>masterclip-94</masterclipid>
						<name>SR005_ambiX.wav</name>
						<enabled>TRUE</enabled>
						<duration>145145</duration>
						<rate>
							<timebase>60</timebase>
							<ntsc>FALSE</ntsc>
						</rate>
						<start>29561</start>
						<end>32292</end>
						<in>57227</in>
						<out>59958</out>
						<pproTicksIn>242276227200000</pproTicksIn>
						<pproTicksOut>253838188800000</pproTicksOut>
						<file id="file-94"/>
						<sourcetrack>
							<mediatype>audio</mediatype>
							<trackindex>4</trackindex>
						</sourcetrack>
						<filter>
							<effect>
								<name>Gain</name>
								<effectid>{61756678, 4761696e, 4b657947}</effectid>
								<effecttype>filter</effecttype>
								<mediatype>audio</mediatype>
								<parameter authoringApp="PremierePro">
									<parameterid>Gain(dB)</parameterid>
									<name>Gain(dB)</name>
									<valuemin>-96</valuemin>
									<valuemax>96</valuemax>
									<value>8</value>
								</parameter>
							</effect>
						</filter>
						<filter>
							<effect>
								<name>Audio Levels</name>
								<effectid>audiolevels</effectid>
								<effectcategory>audiolevels</effectcategory>
								<effecttype>audiolevels</effecttype>
								<mediatype>audio</mediatype>
								<pproBypass>false</pproBypass>
								<parameter authoringApp="PremierePro">
									<parameterid>level</parameterid>
									<name>Level</name>
									<valuemin>0</valuemin>
									<valuemax>3.98109</valuemax>
									<value>0</value>
									<keyframe>
										<when>45234</when>
										<value>0</value>
									</keyframe>
									<keyframe>
										<when>45414</when>
										<value>2</value>
									</keyframe>
									<keyframe>
										<when>56410</when>
										<value>2</value>
									</keyframe>
									<keyframe>
										<when>57431</when>
										<value>0.612903</value>
									</keyframe>
									<keyframe>
										<when>59621</when>
										<value>0.599286</value>
									</keyframe>
									<keyframe>
										<when>59958</when>
										<value>0</value>
									</keyframe>
								</parameter>
							</effect>
						</filter>
						<link>
							<linkclipref>clipitem-612</linkclipref>
							<mediatype>audio</mediatype>
							<trackindex>7</trackindex>
							<clipindex>1</clipindex>
							<groupindex>1</groupindex>
						</link>
						<link>
							<linkclipref>clipitem-614</linkclipref>
							<mediatype>audio</mediatype>
							<trackindex>8</trackindex>
							<clipindex>1</clipindex>
							<groupindex>1</groupindex>
						</link>
						<link>
							<linkclipref>clipitem-616</linkclipref>
							<mediatype>audio</mediatype>
							<trackindex>9</trackindex>
							<clipindex>1</clipindex>
							<groupindex>1</groupindex>
						</link>
						<link>
							<linkclipref>clipitem-618</linkclipref>
							<mediatype>audio</mediatype>
							<trackindex>10</trackindex>
							<clipindex>1</clipindex>
							<groupindex>1</groupindex>
						</link>
						<logginginfo>
							<description></description>
							<scene></scene>
							<shottake></shottake>
							<lognote></lognote>
							<good></good>
							<originalvideofilename></originalvideofilename>
							<originalaudiofilename></originalaudiofilename>
						</logginginfo>
						<colorinfo>
							<lut></lut>
							<lut1></lut1>
							<asc_sop></asc_sop>
							<asc_sat></asc_sat>
							<lut2></lut2>
						</colorinfo>
						<labels>
							<label2>Tan</label2>
						</labels>
					</clipitem>
					<clipitem id="clipitem-619" premiereChannelType="adaptive">
						<masterclipid>masterclip-90</masterclipid>
						<name>SR001_ambiX.wav</name>
						<enabled>TRUE</enabled>
						<duration>134521</duration>
						<rate>
							<timebase>60</timebase>
							<ntsc>FALSE</ntsc>
						</rate>
						<start>38170</start>
						<end>42258</end>
						<in>118644</in>
						<out>122732</out>
						<pproTicksIn>502291238400000</pproTicksIn>
						<pproTicksOut>519598195200000</pproTicksOut>
						<file id="file-90"/>
						<sourcetrack>
							<mediatype>audio</mediatype>
							<trackindex>4</trackindex>
						</sourcetrack>
						<filter>
							<effect>
								<name>Gain</name>
								<effectid>{61756678, 4761696e, 4b657947}</effectid>
								<effecttype>filter</effecttype>
								<mediatype>audio</mediatype>
								<parameter authoringApp="PremierePro">
									<parameterid>Gain(dB)</parameterid>
									<name>Gain(dB)</name>
									<valuemin>-96</valuemin>
									<valuemax>96</valuemax>
									<value>2</value>
								</parameter>
							</effect>
						</filter>
						<filter>
							<effect>
								<name>Audio Levels</name>
								<effectid>audiolevels</effectid>
								<effectcategory>audiolevels</effectcategory>
								<effecttype>audiolevels</effecttype>
								<mediatype>audio</mediatype>
								<pproBypass>false</pproBypass>
								<parameter authoringApp="PremierePro">
									<parameterid>level</parameterid>
									<name>Level</name>
									<valuemin>0</valuemin>
									<valuemax>3.98109</valuemax>
									<value>1</value>
									<keyframe>
										<when>122350</when>
										<value>1</value>
									</keyframe>
									<keyframe>
										<when>122732</when>
										<value>0</value>
									</keyframe>
								</parameter>
							</effect>
						</filter>
						<link>
							<linkclipref>clipitem-613</linkclipref>
							<mediatype>audio</mediatype>
							<trackindex>7</trackindex>
							<clipindex>2</clipindex>
							<groupindex>1</groupindex>
						</link>
						<link>
							<linkclipref>clipitem-615</linkclipref>
							<mediatype>audio</mediatype>
							<trackindex>8</trackindex>
							<clipindex>2</clipindex>
							<groupindex>1</groupindex>
						</link>
						<link>
							<linkclipref>clipitem-617</linkclipref>
							<mediatype>audio</mediatype>
							<trackindex>9</trackindex>
							<clipindex>2</clipindex>
							<groupindex>1</groupindex>
						</link>
						<link>
							<linkclipref>clipitem-619</linkclipref>
							<mediatype>audio</mediatype>
							<trackindex>10</trackindex>
							<clipindex>2</clipindex>
							<groupindex>1</groupindex>
						</link>
						<logginginfo>
							<description></description>
							<scene></scene>
							<shottake></shottake>
							<lognote></lognote>
							<good></good>
							<originalvideofilename></originalvideofilename>
							<originalaudiofilename></originalaudiofilename>
						</logginginfo>
						<colorinfo>
							<lut></lut>
							<lut1></lut1>
							<asc_sop></asc_sop>
							<asc_sat></asc_sat>
							<lut2></lut2>
						</colorinfo>
						<labels>
							<label2>Blue</label2>
						</labels>
					</clipitem>
					<enabled>TRUE</enabled>
					<locked>FALSE</locked>
					<outputchannelindex>4</outputchannelindex>
				</track>
				<track TL.SQTrackAudioKeyframeStyle="0" TL.SQTrackShy="0" TL.SQTrackExpandedHeight="15" TL.SQTrackExpanded="0" MZ.TrackTargeted="1" PannerCurrentValue="0.5" PannerIsInverted="true" PannerStartKeyframe="-91445760000000000,0.5,0,0,0,0,0,0" PannerName="Balance" currentExplodedTrackIndex="0" totalExplodedTrackCount="2" premiereTrackType="SixteenChannel">
					<clipitem id="clipitem-620" premiereChannelType="stereo">
						<masterclipid>masterclip-95</masterclipid>
						<name>BrookePart2_ZOOM0001.WAV</name>
						<enabled>FALSE</enabled>
						<duration>136757</duration>
						<rate>
							<timebase>60</timebase>
							<ntsc>FALSE</ntsc>
						</rate>
						<start>228</start>
						<end>3739</end>
						<in>33514</in>
						<out>37025</out>
						<pproTicksIn>141884870400000</pproTicksIn>
						<pproTicksOut>156749040000000</pproTicksOut>
						<file id="file-95">
							<name>BrookePart2_ZOOM0001.WAV</name>
							<pathurl>file://localhost/G%3a/Departments/_Post/__Projects/035_Chimps_Part_2/1.Raw/Ingest/project_chimps_20180513/Brooke_Narration_For_0508_pt2/STEREO/FOLDER01/BrookePart2_ZOOM0001.WAV</pathurl>
							<rate>
								<timebase>30</timebase>
								<ntsc>TRUE</ntsc>
							</rate>
							<duration>68310</duration>
							<timecode>
								<rate>
									<timebase>30</timebase>
									<ntsc>TRUE</ntsc>
								</rate>
								<string>01;48;20;01</string>
								<frame>194805</frame>
								<displayformat>DF</displayformat>
							</timecode>
							<media>
								<audio>
									<samplecharacteristics>
										<depth>16</depth>
										<samplerate>48000</samplerate>
									</samplecharacteristics>
									<channelcount>2</channelcount>
								</audio>
							</media>
						</file>
						<sourcetrack>
							<mediatype>audio</mediatype>
							<trackindex>1</trackindex>
						</sourcetrack>
							<marker>
								<comment></comment>
								<name></name>
								<in>6836</in>
								<out>-1</out>
							</marker>
						<link>
							<linkclipref>clipitem-620</linkclipref>
							<mediatype>audio</mediatype>
							<trackindex>11</trackindex>
							<clipindex>1</clipindex>
							<groupindex>1</groupindex>
						</link>
						<link>
							<linkclipref>clipitem-634</linkclipref>
							<mediatype>audio</mediatype>
							<trackindex>12</trackindex>
							<clipindex>1</clipindex>
							<groupindex>1</groupindex>
						</link>
						<logginginfo>
							<description></description>
							<scene></scene>
							<shottake></shottake>
							<lognote></lognote>
							<good></good>
							<originalvideofilename></originalvideofilename>
							<originalaudiofilename></originalaudiofilename>
						</logginginfo>
						<colorinfo>
							<lut></lut>
							<lut1></lut1>
							<asc_sop></asc_sop>
							<asc_sat></asc_sat>
							<lut2></lut2>
						</colorinfo>
						<labels>
							<label2>Blue</label2>
						</labels>
					</clipitem>
					<clipitem id="clipitem-621" premiereChannelType="stereo">
						<masterclipid>masterclip-95</masterclipid>
						<name>BrookePart2_ZOOM0001.WAV</name>
						<enabled>FALSE</enabled>
						<duration>136757</duration>
						<rate>
							<timebase>60</timebase>
							<ntsc>FALSE</ntsc>
						</rate>
						<start>3739</start>
						<end>7105</end>
						<in>37025</in>
						<out>40391</out>
						<pproTicksIn>156749040000000</pproTicksIn>
						<pproTicksOut>170999337600000</pproTicksOut>
						<file id="file-95"/>
						<sourcetrack>
							<mediatype>audio</mediatype>
							<trackindex>1</trackindex>
						</sourcetrack>
							<marker>
								<comment></comment>
								<name></name>
								<in>6836</in>
								<out>-1</out>
							</marker>
						<link>
							<linkclipref>clipitem-621</linkclipref>
							<mediatype>audio</mediatype>
							<trackindex>11</trackindex>
							<clipindex>2</clipindex>
							<groupindex>1</groupindex>
						</link>
						<link>
							<linkclipref>clipitem-635</linkclipref>
							<mediatype>audio</mediatype>
							<trackindex>12</trackindex>
							<clipindex>2</clipindex>
							<groupindex>1</groupindex>
						</link>
						<logginginfo>
							<description></description>
							<scene></scene>
							<shottake></shottake>
							<lognote></lognote>
							<good></good>
							<originalvideofilename></originalvideofilename>
							<originalaudiofilename></originalaudiofilename>
						</logginginfo>
						<colorinfo>
							<lut></lut>
							<lut1></lut1>
							<asc_sop></asc_sop>
							<asc_sat></asc_sat>
							<lut2></lut2>
						</colorinfo>
						<labels>
							<label2>Blue</label2>
						</labels>
					</clipitem>
					<clipitem id="clipitem-622" premiereChannelType="stereo">
						<masterclipid>masterclip-95</masterclipid>
						<name>BrookePart2_ZOOM0001.WAV</name>
						<enabled>FALSE</enabled>
						<duration>136757</duration>
						<rate>
							<timebase>60</timebase>
							<ntsc>FALSE</ntsc>
						</rate>
						<start>7105</start>
						<end>9116</end>
						<in>40391</in>
						<out>42402</out>
						<pproTicksIn>170999337600000</pproTicksIn>
						<pproTicksOut>179513107200000</pproTicksOut>
						<file id="file-95"/>
						<sourcetrack>
							<mediatype>audio</mediatype>
							<trackindex>1</trackindex>
						</sourcetrack>
							<marker>
								<comment></comment>
								<name></name>
								<in>6836</in>
								<out>-1</out>
							</marker>
						<link>
							<linkclipref>clipitem-622</linkclipref>
							<mediatype>audio</mediatype>
							<trackindex>11</trackindex>
							<clipindex>3</clipindex>
							<groupindex>1</groupindex>
						</link>
						<link>
							<linkclipref>clipitem-636</linkclipref>
							<mediatype>audio</mediatype>
							<trackindex>12</trackindex>
							<clipindex>3</clipindex>
							<groupindex>1</groupindex>
						</link>
						<logginginfo>
							<description></description>
							<scene></scene>
							<shottake></shottake>
							<lognote></lognote>
							<good></good>
							<originalvideofilename></originalvideofilename>
							<originalaudiofilename></originalaudiofilename>
						</logginginfo>
						<colorinfo>
							<lut></lut>
							<lut1></lut1>
							<asc_sop></asc_sop>
							<asc_sat></asc_sat>
							<lut2></lut2>
						</colorinfo>
						<labels>
							<label2>Blue</label2>
						</labels>
					</clipitem>
					<clipitem id="clipitem-623" premiereChannelType="stereo">
						<masterclipid>masterclip-95</masterclipid>
						<name>BrookePart2_ZOOM0001.WAV</name>
						<enabled>FALSE</enabled>
						<duration>136757</duration>
						<rate>
							<timebase>60</timebase>
							<ntsc>FALSE</ntsc>
						</rate>
						<start>9116</start>
						<end>9885</end>
						<in>42402</in>
						<out>43171</out>
						<pproTicksIn>179513107200000</pproTicksIn>
						<pproTicksOut>182768745600000</pproTicksOut>
						<file id="file-95"/>
						<sourcetrack>
							<mediatype>audio</mediatype>
							<trackindex>1</trackindex>
						</sourcetrack>
							<marker>
								<comment></comment>
								<name></name>
								<in>6836</in>
								<out>-1</out>
							</marker>
						<link>
							<linkclipref>clipitem-623</linkclipref>
							<mediatype>audio</mediatype>
							<trackindex>11</trackindex>
							<clipindex>4</clipindex>
							<groupindex>1</groupindex>
						</link>
						<link>
							<linkclipref>clipitem-637</linkclipref>
							<mediatype>audio</mediatype>
							<trackindex>12</trackindex>
							<clipindex>4</clipindex>
							<groupindex>1</groupindex>
						</link>
						<logginginfo>
							<description></description>
							<scene></scene>
							<shottake></shottake>
							<lognote></lognote>
							<good></good>
							<originalvideofilename></originalvideofilename>
							<originalaudiofilename></originalaudiofilename>
						</logginginfo>
						<colorinfo>
							<lut></lut>
							<lut1></lut1>
							<asc_sop></asc_sop>
							<asc_sat></asc_sat>
							<lut2></lut2>
						</colorinfo>
						<labels>
							<label2>Blue</label2>
						</labels>
					</clipitem>
					<clipitem id="clipitem-624" premiereChannelType="stereo">
						<masterclipid>masterclip-95</masterclipid>
						<name>BrookePart2_ZOOM0001.WAV</name>
						<enabled>FALSE</enabled>
						<duration>136757</duration>
						<rate>
							<timebase>60</timebase>
							<ntsc>FALSE</ntsc>
						</rate>
						<start>9885</start>
						<end>11578</end>
						<in>15995</in>
						<out>17688</out>
						<pproTicksIn>67716432000000</pproTicksIn>
						<pproTicksOut>74883916800000</pproTicksOut>
						<file id="file-95"/>
						<sourcetrack>
							<mediatype>audio</mediatype>
							<trackindex>1</trackindex>
						</sourcetrack>
							<marker>
								<comment></comment>
								<name></name>
								<in>6836</in>
								<out>-1</out>
							</marker>
						<link>
							<linkclipref>clipitem-624</linkclipref>
							<mediatype>audio</mediatype>
							<trackindex>11</trackindex>
							<clipindex>5</clipindex>
							<groupindex>1</groupindex>
						</link>
						<link>
							<linkclipref>clipitem-638</linkclipref>
							<mediatype>audio</mediatype>
							<trackindex>12</trackindex>
							<clipindex>5</clipindex>
							<groupindex>1</groupindex>
						</link>
						<logginginfo>
							<description></description>
							<scene></scene>
							<shottake></shottake>
							<lognote></lognote>
							<good></good>
							<originalvideofilename></originalvideofilename>
							<originalaudiofilename></originalaudiofilename>
						</logginginfo>
						<colorinfo>
							<lut></lut>
							<lut1></lut1>
							<asc_sop></asc_sop>
							<asc_sat></asc_sat>
							<lut2></lut2>
						</colorinfo>
						<labels>
							<label2>Green</label2>
						</labels>
					</clipitem>
					<transitionitem>
						<start>19136</start>
						<end>19138</end>
						<alignment>start-black</alignment>
						<cutPointTicks>0</cutPointTicks>
						<rate>
							<timebase>60</timebase>
							<ntsc>FALSE</ntsc>
						</rate>
						<effect>
							<name>Cross Fade (+3dB)</name>
							<effectid>KGAudioTransCrossFade3dB</effectid>
							<effecttype>transition</effecttype>
							<mediatype>audio</mediatype>
							<wipecode>0</wipecode>
							<wipeaccuracy>100</wipeaccuracy>
							<startratio>0</startratio>
							<endratio>1</endratio>
							<reverse>FALSE</reverse>
						</effect>
					</transitionitem>
					<clipitem id="clipitem-625" premiereChannelType="stereo">
						<masterclipid>masterclip-96</masterclipid>
						<name>Kate_ZOOM0001.WAV</name>
						<enabled>FALSE</enabled>
						<duration>81662</duration>
						<rate>
							<timebase>60</timebase>
							<ntsc>FALSE</ntsc>
						</rate>
						<start>-1</start>
						<end>-1</end>
						<in>26096</in>
						<out>26156</out>
						<pproTicksIn>110480025600000</pproTicksIn>
						<pproTicksOut>110734041600000</pproTicksOut>
						<file id="file-96">
							<name>Kate_ZOOM0001.WAV</name>
							<pathurl>file://localhost/G%3a/Departments/_Post/__Projects/035_Chimps_Part_2/1.Raw/Ingest/project_chimps_20180514/KateNarration/FOLDER01/Kate_ZOOM0001.WAV</pathurl>
							<rate>
								<timebase>30</timebase>
								<ntsc>TRUE</ntsc>
							</rate>
							<duration>40790</duration>
							<timecode>
								<rate>
									<timebase>30</timebase>
									<ntsc>TRUE</ntsc>
								</rate>
								<string>00;54;04;00</string>
								<frame>97222</frame>
								<displayformat>DF</displayformat>
							</timecode>
							<media>
								<audio>
									<samplecharacteristics>
										<depth>16</depth>
										<samplerate>48000</samplerate>
									</samplecharacteristics>
									<channelcount>2</channelcount>
								</audio>
							</media>
						</file>
						<sourcetrack>
							<mediatype>audio</mediatype>
							<trackindex>1</trackindex>
						</sourcetrack>
						<filter>
							<effect>
								<name>Audio Levels</name>
								<effectid>audiolevels</effectid>
								<effectcategory>audiolevels</effectcategory>
								<effecttype>audiolevels</effecttype>
								<mediatype>audio</mediatype>
								<pproBypass>false</pproBypass>
								<parameter authoringApp="PremierePro">
									<parameterid>level</parameterid>
									<name>Level</name>
									<valuemin>0</valuemin>
									<valuemax>3.98109</valuemax>
									<value>1</value>
									<keyframe>
										<when>17117</when>
										<value>0</value>
									</keyframe>
									<keyframe>
										<when>17147</when>
										<value>1</value>
									</keyframe>
									<keyframe>
										<when>17243</when>
										<value>1</value>
									</keyframe>
									<keyframe>
										<when>17256</when>
										<value>0</value>
									</keyframe>
									<keyframe>
										<when>17367</when>
										<value>0</value>
									</keyframe>
									<keyframe>
										<when>17377</when>
										<value>0</value>
									</keyframe>
									<keyframe>
										<when>17918</when>
										<value>0</value>
									</keyframe>
									<keyframe>
										<when>17950</when>
										<value>0</value>
									</keyframe>
									<keyframe>
										<when>19157</when>
										<value>0</value>
									</keyframe>
									<keyframe>
										<when>19183</when>
										<value>0</value>
									</keyframe>
									<keyframe>
										<when>19590</when>
										<value>0</value>
									</keyframe>
									<keyframe>
										<when>19656</when>
										<value>1</value>
									</keyframe>
									<keyframe>
										<when>20245</when>
										<value>1</value>
									</keyframe>
									<keyframe>
										<when>20275</when>
										<value>0</value>
									</keyframe>
									<keyframe>
										<when>20433</when>
										<value>0</value>
									</keyframe>
									<keyframe>
										<when>20463</when>
										<value>1</value>
									</keyframe>
									<keyframe>
										<when>21357</when>
										<value>1</value>
									</keyframe>
									<keyframe>
										<when>21402</when>
										<value>0</value>
									</keyframe>
									<keyframe>
										<when>21647</when>
										<value>0</value>
									</keyframe>
									<keyframe>
										<when>21749</when>
										<value>1</value>
									</keyframe>
									<keyframe>
										<when>22205</when>
										<value>1</value>
									</keyframe>
									<keyframe>
										<when>22257</when>
										<value>0</value>
									</keyframe>
									<keyframe>
										<when>22427</when>
										<value>0</value>
									</keyframe>
									<keyframe>
										<when>22478</when>
										<value>1</value>
									</keyframe>
									<keyframe>
										<when>23004</when>
										<value>0</value>
									</keyframe>
									<keyframe>
										<when>23046</when>
										<value>1</value>
									</keyframe>
									<keyframe>
										<when>25497</when>
										<value>0</value>
									</keyframe>
									<keyframe>
										<when>25548</when>
										<value>1</value>
									</keyframe>
								</parameter>
							</effect>
						</filter>
							<marker>
								<comment></comment>
								<name></name>
								<in>8498</in>
								<out>-1</out>
							</marker>
						<link>
							<linkclipref>clipitem-625</linkclipref>
							<mediatype>audio</mediatype>
							<trackindex>11</trackindex>
							<clipindex>7</clipindex>
							<groupindex>1</groupindex>
						</link>
						<link>
							<linkclipref>clipitem-639</linkclipref>
							<mediatype>audio</mediatype>
							<trackindex>12</trackindex>
							<clipindex>7</clipindex>
							<groupindex>1</groupindex>
						</link>
						<logginginfo>
							<description></description>
							<scene></scene>
							<shottake></shottake>
							<lognote></lognote>
							<good></good>
							<originalvideofilename></originalvideofilename>
							<originalaudiofilename></originalaudiofilename>
						</logginginfo>
						<colorinfo>
							<lut></lut>
							<lut1></lut1>
							<asc_sop></asc_sop>
							<asc_sat></asc_sat>
							<lut2></lut2>
						</colorinfo>
						<labels>
							<label2>Green</label2>
						</labels>
					</clipitem>
					<transitionitem>
						<start>19194</start>
						<end>19196</end>
						<alignment>center</alignment>
						<cutPointTicks>4233600000</cutPointTicks>
						<rate>
							<timebase>60</timebase>
							<ntsc>FALSE</ntsc>
						</rate>
						<effect>
							<name>Cross Fade (+3dB)</name>
							<effectid>KGAudioTransCrossFade3dB</effectid>
							<effecttype>transition</effecttype>
							<mediatype>audio</mediatype>
							<wipecode>0</wipecode>
							<wipeaccuracy>100</wipeaccuracy>
							<startratio>0</startratio>
							<endratio>1</endratio>
							<reverse>FALSE</reverse>
						</effect>
					</transitionitem>
					<clipitem id="clipitem-626" premiereChannelType="stereo">
						<masterclipid>masterclip-96</masterclipid>
						<name>Kate_ZOOM0001.WAV</name>
						<enabled>FALSE</enabled>
						<duration>81662</duration>
						<rate>
							<timebase>60</timebase>
							<ntsc>FALSE</ntsc>
						</rate>
						<start>-1</start>
						<end>-1</end>
						<in>26181</in>
						<out>26326</out>
						<pproTicksIn>110839881600000</pproTicksIn>
						<pproTicksOut>111453753600000</pproTicksOut>
						<file id="file-96"/>
						<sourcetrack>
							<mediatype>audio</mediatype>
							<trackindex>1</trackindex>
						</sourcetrack>
						<filter>
							<effect>
								<name>Audio Levels</name>
								<effectid>audiolevels</effectid>
								<effectcategory>audiolevels</effectcategory>
								<effecttype>audiolevels</effecttype>
								<mediatype>audio</mediatype>
								<pproBypass>false</pproBypass>
								<parameter authoringApp="PremierePro">
									<parameterid>level</parameterid>
									<name>Level</name>
									<valuemin>0</valuemin>
									<valuemax>3.98109</valuemax>
									<value>1</value>
									<keyframe>
										<when>17117</when>
										<value>0</value>
									</keyframe>
									<keyframe>
										<when>17147</when>
										<value>1</value>
									</keyframe>
									<keyframe>
										<when>17243</when>
										<value>1</value>
									</keyframe>
									<keyframe>
										<when>17256</when>
										<value>0</value>
									</keyframe>
									<keyframe>
										<when>17367</when>
										<value>0</value>
									</keyframe>
									<keyframe>
										<when>17377</when>
										<value>0</value>
									</keyframe>
									<keyframe>
										<when>17918</when>
										<value>0</value>
									</keyframe>
									<keyframe>
										<when>17950</when>
										<value>0</value>
									</keyframe>
									<keyframe>
										<when>19157</when>
										<value>0</value>
									</keyframe>
									<keyframe>
										<when>19183</when>
										<value>0</value>
									</keyframe>
									<keyframe>
										<when>19590</when>
										<value>0</value>
									</keyframe>
									<keyframe>
										<when>19656</when>
										<value>1</value>
									</keyframe>
									<keyframe>
										<when>20245</when>
										<value>1</value>
									</keyframe>
									<keyframe>
										<when>20275</when>
										<value>0</value>
									</keyframe>
									<keyframe>
										<when>20433</when>
										<value>0</value>
									</keyframe>
									<keyframe>
										<when>20463</when>
										<value>1</value>
									</keyframe>
									<keyframe>
										<when>21357</when>
										<value>1</value>
									</keyframe>
									<keyframe>
										<when>21402</when>
										<value>0</value>
									</keyframe>
									<keyframe>
										<when>21647</when>
										<value>0</value>
									</keyframe>
									<keyframe>
										<when>21749</when>
										<value>1</value>
									</keyframe>
									<keyframe>
										<when>22205</when>
										<value>1</value>
									</keyframe>
									<keyframe>
										<when>22257</when>
										<value>0</value>
									</keyframe>
									<keyframe>
										<when>22427</when>
										<value>0</value>
									</keyframe>
									<keyframe>
										<when>22478</when>
										<value>1</value>
									</keyframe>
									<keyframe>
										<when>23004</when>
										<value>0</value>
									</keyframe>
									<keyframe>
										<when>23046</when>
										<value>1</value>
									</keyframe>
									<keyframe>
										<when>25497</when>
										<value>0</value>
									</keyframe>
									<keyframe>
										<when>25548</when>
										<value>1</value>
									</keyframe>
								</parameter>
							</effect>
						</filter>
							<marker>
								<comment></comment>
								<name></name>
								<in>8498</in>
								<out>-1</out>
							</marker>
						<link>
							<linkclipref>clipitem-626</linkclipref>
							<mediatype>audio</mediatype>
							<trackindex>11</trackindex>
							<clipindex>9</clipindex>
							<groupindex>1</groupindex>
						</link>
						<link>
							<linkclipref>clipitem-640</linkclipref>
							<mediatype>audio</mediatype>
							<trackindex>12</trackindex>
							<clipindex>9</clipindex>
							<groupindex>1</groupindex>
						</link>
						<logginginfo>
							<description></description>
							<scene></scene>
							<shottake></shottake>
							<lognote></lognote>
							<good></good>
							<originalvideofilename></originalvideofilename>
							<originalaudiofilename></originalaudiofilename>
						</logginginfo>
						<colorinfo>
							<lut></lut>
							<lut1></lut1>
							<asc_sop></asc_sop>
							<asc_sat></asc_sat>
							<lut2></lut2>
						</colorinfo>
						<labels>
							<label2>Green</label2>
						</labels>
					</clipitem>
					<transitionitem>
						<start>19337</start>
						<end>19339</end>
						<alignment>center</alignment>
						<cutPointTicks>4233600000</cutPointTicks>
						<rate>
							<timebase>60</timebase>
							<ntsc>FALSE</ntsc>
						</rate>
						<effect>
							<name>Cross Fade (+3dB)</name>
							<effectid>KGAudioTransCrossFade3dB</effectid>
							<effecttype>transition</effecttype>
							<mediatype>audio</mediatype>
							<wipecode>0</wipecode>
							<wipeaccuracy>100</wipeaccuracy>
							<startratio>0</startratio>
							<endratio>1</endratio>
							<reverse>FALSE</reverse>
						</effect>
					</transitionitem>
					<clipitem id="clipitem-627" premiereChannelType="stereo">
						<masterclipid>masterclip-96</masterclipid>
						<name>Kate_ZOOM0001.WAV</name>
						<enabled>FALSE</enabled>
						<duration>81662</duration>
						<rate>
							<timebase>60</timebase>
							<ntsc>FALSE</ntsc>
						</rate>
						<start>-1</start>
						<end>19856</end>
						<in>26415</in>
						<out>26934</out>
						<pproTicksIn>111830544000000</pproTicksIn>
						<pproTicksOut>114027782400000</pproTicksOut>
						<file id="file-96"/>
						<sourcetrack>
							<mediatype>audio</mediatype>
							<trackindex>1</trackindex>
						</sourcetrack>
						<filter>
							<effect>
								<name>Audio Levels</name>
								<effectid>audiolevels</effectid>
								<effectcategory>audiolevels</effectcategory>
								<effecttype>audiolevels</effecttype>
								<mediatype>audio</mediatype>
								<pproBypass>false</pproBypass>
								<parameter authoringApp="PremierePro">
									<parameterid>level</parameterid>
									<name>Level</name>
									<valuemin>0</valuemin>
									<valuemax>3.98109</valuemax>
									<value>1</value>
									<keyframe>
										<when>17117</when>
										<value>0</value>
									</keyframe>
									<keyframe>
										<when>17147</when>
										<value>1</value>
									</keyframe>
									<keyframe>
										<when>17243</when>
										<value>1</value>
									</keyframe>
									<keyframe>
										<when>17256</when>
										<value>0</value>
									</keyframe>
									<keyframe>
										<when>17367</when>
										<value>0</value>
									</keyframe>
									<keyframe>
										<when>17377</when>
										<value>0</value>
									</keyframe>
									<keyframe>
										<when>17918</when>
										<value>0</value>
									</keyframe>
									<keyframe>
										<when>17950</when>
										<value>0</value>
									</keyframe>
									<keyframe>
										<when>19157</when>
										<value>0</value>
									</keyframe>
									<keyframe>
										<when>19183</when>
										<value>0</value>
									</keyframe>
									<keyframe>
										<when>19590</when>
										<value>0</value>
									</keyframe>
									<keyframe>
										<when>19656</when>
										<value>1</value>
									</keyframe>
									<keyframe>
										<when>20245</when>
										<value>1</value>
									</keyframe>
									<keyframe>
										<when>20275</when>
										<value>0</value>
									</keyframe>
									<keyframe>
										<when>20433</when>
										<value>0</value>
									</keyframe>
									<keyframe>
										<when>20463</when>
										<value>1</value>
									</keyframe>
									<keyframe>
										<when>21357</when>
										<value>1</value>
									</keyframe>
									<keyframe>
										<when>21402</when>
										<value>0</value>
									</keyframe>
									<keyframe>
										<when>21647</when>
										<value>0</value>
									</keyframe>
									<keyframe>
										<when>21749</when>
										<value>1</value>
									</keyframe>
									<keyframe>
										<when>22205</when>
										<value>1</value>
									</keyframe>
									<keyframe>
										<when>22257</when>
										<value>0</value>
									</keyframe>
									<keyframe>
										<when>22427</when>
										<value>0</value>
									</keyframe>
									<keyframe>
										<when>22478</when>
										<value>1</value>
									</keyframe>
									<keyframe>
										<when>23004</when>
										<value>0</value>
									</keyframe>
									<keyframe>
										<when>23046</when>
										<value>1</value>
									</keyframe>
									<keyframe>
										<when>25497</when>
										<value>0</value>
									</keyframe>
									<keyframe>
										<when>25548</when>
										<value>1</value>
									</keyframe>
									<keyframe>
										<when>26882</when>
										<value>1</value>
									</keyframe>
									<keyframe>
										<when>26934</when>
										<value>0</value>
									</keyframe>
								</parameter>
							</effect>
						</filter>
							<marker>
								<comment></comment>
								<name></name>
								<in>8498</in>
								<out>-1</out>
							</marker>
						<link>
							<linkclipref>clipitem-627</linkclipref>
							<mediatype>audio</mediatype>
							<trackindex>11</trackindex>
							<clipindex>11</clipindex>
							<groupindex>1</groupindex>
						</link>
						<link>
							<linkclipref>clipitem-641</linkclipref>
							<mediatype>audio</mediatype>
							<trackindex>12</trackindex>
							<clipindex>11</clipindex>
							<groupindex>1</groupindex>
						</link>
						<logginginfo>
							<description></description>
							<scene></scene>
							<shottake></shottake>
							<lognote></lognote>
							<good></good>
							<originalvideofilename></originalvideofilename>
							<originalaudiofilename></originalaudiofilename>
						</logginginfo>
						<colorinfo>
							<lut></lut>
							<lut1></lut1>
							<asc_sop></asc_sop>
							<asc_sat></asc_sat>
							<lut2></lut2>
						</colorinfo>
						<labels>
							<label2>Green</label2>
						</labels>
					</clipitem>
					<clipitem id="clipitem-628" premiereChannelType="stereo">
						<masterclipid>masterclip-96</masterclipid>
						<name>Kate_ZOOM0001.WAV</name>
						<enabled>FALSE</enabled>
						<duration>81662</duration>
						<rate>
							<timebase>60</timebase>
							<ntsc>FALSE</ntsc>
						</rate>
						<start>25901</start>
						<end>29015</end>
						<in>33031</in>
						<out>36145</out>
						<pproTicksIn>139840041600000</pproTicksIn>
						<pproTicksOut>153023472000000</pproTicksOut>
						<file id="file-96"/>
						<sourcetrack>
							<mediatype>audio</mediatype>
							<trackindex>1</trackindex>
						</sourcetrack>
							<marker>
								<comment></comment>
								<name></name>
								<in>8498</in>
								<out>-1</out>
							</marker>
						<link>
							<linkclipref>clipitem-628</linkclipref>
							<mediatype>audio</mediatype>
							<trackindex>11</trackindex>
							<clipindex>12</clipindex>
							<groupindex>1</groupindex>
						</link>
						<link>
							<linkclipref>clipitem-642</linkclipref>
							<mediatype>audio</mediatype>
							<trackindex>12</trackindex>
							<clipindex>12</clipindex>
							<groupindex>1</groupindex>
						</link>
						<logginginfo>
							<description></description>
							<scene></scene>
							<shottake></shottake>
							<lognote></lognote>
							<good></good>
							<originalvideofilename></originalvideofilename>
							<originalaudiofilename></originalaudiofilename>
						</logginginfo>
						<colorinfo>
							<lut></lut>
							<lut1></lut1>
							<asc_sop></asc_sop>
							<asc_sat></asc_sat>
							<lut2></lut2>
						</colorinfo>
						<labels>
							<label2>Mango</label2>
						</labels>
					</clipitem>
					<clipitem id="clipitem-629" premiereChannelType="stereo">
						<masterclipid>masterclip-95</masterclipid>
						<name>BrookePart2_ZOOM0001.WAV</name>
						<enabled>TRUE</enabled>
						<duration>136757</duration>
						<rate>
							<timebase>60</timebase>
							<ntsc>FALSE</ntsc>
						</rate>
						<start>29015</start>
						<end>29561</end>
						<in>73346</in>
						<out>73892</out>
						<pproTicksIn>310517625600000</pproTicksIn>
						<pproTicksOut>312829171200000</pproTicksOut>
						<file id="file-95"/>
						<sourcetrack>
							<mediatype>audio</mediatype>
							<trackindex>1</trackindex>
						</sourcetrack>
							<marker>
								<comment></comment>
								<name></name>
								<in>6836</in>
								<out>-1</out>
							</marker>
						<link>
							<linkclipref>clipitem-629</linkclipref>
							<mediatype>audio</mediatype>
							<trackindex>11</trackindex>
							<clipindex>13</clipindex>
							<groupindex>1</groupindex>
						</link>
						<link>
							<linkclipref>clipitem-643</linkclipref>
							<mediatype>audio</mediatype>
							<trackindex>12</trackindex>
							<clipindex>13</clipindex>
							<groupindex>1</groupindex>
						</link>
						<logginginfo>
							<description></description>
							<scene></scene>
							<shottake></shottake>
							<lognote></lognote>
							<good></good>
							<originalvideofilename></originalvideofilename>
							<originalaudiofilename></originalaudiofilename>
						</logginginfo>
						<colorinfo>
							<lut></lut>
							<lut1></lut1>
							<asc_sop></asc_sop>
							<asc_sat></asc_sat>
							<lut2></lut2>
						</colorinfo>
						<labels>
							<label2>Blue</label2>
						</labels>
					</clipitem>
					<transitionitem>
						<start>41737</start>
						<end>41739</end>
						<alignment>start-black</alignment>
						<cutPointTicks>0</cutPointTicks>
						<rate>
							<timebase>60</timebase>
							<ntsc>FALSE</ntsc>
						</rate>
						<effect>
							<name>Cross Fade (+3dB)</name>
							<effectid>KGAudioTransCrossFade3dB</effectid>
							<effecttype>transition</effecttype>
							<mediatype>audio</mediatype>
							<wipecode>0</wipecode>
							<wipeaccuracy>100</wipeaccuracy>
							<startratio>0</startratio>
							<endratio>1</endratio>
							<reverse>FALSE</reverse>
						</effect>
					</transitionitem>
					<clipitem id="clipitem-630" premiereChannelType="stereo">
						<masterclipid>masterclip-97</masterclipid>
						<name>K1Pro-Brooke_20180508.WAV</name>
						<enabled>FALSE</enabled>
						<duration>129341</duration>
						<rate>
							<timebase>60</timebase>
							<ntsc>FALSE</ntsc>
						</rate>
						<start>-1</start>
						<end>45259</end>
						<in>62090</in>
						<out>65612</out>
						<pproTicksIn>262864224000000</pproTicksIn>
						<pproTicksOut>277774963200000</pproTicksOut>
						<file id="file-97">
							<name>K1Pro-Brooke_20180508.WAV</name>
							<pathurl>file://localhost/G%3a/Departments/_Post/__Projects/035_Chimps_Part_2/1.Raw/Ingest/project_chimps_20180508/h1_audio/20180509/K1Pro-Brooke_20180508.WAV</pathurl>
							<rate>
								<timebase>30</timebase>
								<ntsc>TRUE</ntsc>
							</rate>
							<duration>64606</duration>
							<timecode>
								<rate>
									<timebase>30</timebase>
									<ntsc>TRUE</ntsc>
								</rate>
								<string>03;03;31;00</string>
								<frame>330000</frame>
								<displayformat>DF</displayformat>
							</timecode>
							<media>
								<audio>
									<samplecharacteristics>
										<depth>16</depth>
										<samplerate>48000</samplerate>
									</samplecharacteristics>
									<channelcount>2</channelcount>
								</audio>
							</media>
						</file>
						<sourcetrack>
							<mediatype>audio</mediatype>
							<trackindex>1</trackindex>
						</sourcetrack>
							<marker>
								<comment></comment>
								<name></name>
								<in>69901</in>
								<out>-1</out>
							</marker>
							<marker>
								<comment></comment>
								<name></name>
								<in>88491</in>
								<out>-1</out>
							</marker>
							<marker>
								<comment></comment>
								<name></name>
								<in>28153</in>
								<out>-1</out>
							</marker>
							<marker>
								<comment></comment>
								<name></name>
								<in>33835</in>
								<out>-1</out>
							</marker>
						<link>
							<linkclipref>clipitem-630</linkclipref>
							<mediatype>audio</mediatype>
							<trackindex>11</trackindex>
							<clipindex>15</clipindex>
							<groupindex>1</groupindex>
						</link>
						<link>
							<linkclipref>clipitem-644</linkclipref>
							<mediatype>audio</mediatype>
							<trackindex>12</trackindex>
							<clipindex>15</clipindex>
							<groupindex>1</groupindex>
						</link>
						<logginginfo>
							<description></description>
							<scene></scene>
							<shottake></shottake>
							<lognote></lognote>
							<good></good>
							<originalvideofilename></originalvideofilename>
							<originalaudiofilename></originalaudiofilename>
						</logginginfo>
						<colorinfo>
							<lut></lut>
							<lut1></lut1>
							<asc_sop></asc_sop>
							<asc_sat></asc_sat>
							<lut2></lut2>
						</colorinfo>
						<labels>
							<label2>Rose</label2>
						</labels>
					</clipitem>
					<clipitem id="clipitem-631" premiereChannelType="stereo">
						<masterclipid>masterclip-95</masterclipid>
						<name>BrookePart2_ZOOM0001.WAV</name>
						<enabled>TRUE</enabled>
						<duration>136757</duration>
						<rate>
							<timebase>60</timebase>
							<ntsc>FALSE</ntsc>
						</rate>
						<start>45259</start>
						<end>47170</end>
						<in>100582</in>
						<out>102493</out>
						<pproTicksIn>425823955200000</pproTicksIn>
						<pproTicksOut>433914364800000</pproTicksOut>
						<file id="file-95"/>
						<sourcetrack>
							<mediatype>audio</mediatype>
							<trackindex>1</trackindex>
						</sourcetrack>
							<marker>
								<comment></comment>
								<name></name>
								<in>6836</in>
								<out>-1</out>
							</marker>
						<link>
							<linkclipref>clipitem-631</linkclipref>
							<mediatype>audio</mediatype>
							<trackindex>11</trackindex>
							<clipindex>16</clipindex>
							<groupindex>1</groupindex>
						</link>
						<link>
							<linkclipref>clipitem-645</linkclipref>
							<mediatype>audio</mediatype>
							<trackindex>12</trackindex>
							<clipindex>16</clipindex>
							<groupindex>1</groupindex>
						</link>
						<logginginfo>
							<description></description>
							<scene></scene>
							<shottake></shottake>
							<lognote></lognote>
							<good></good>
							<originalvideofilename></originalvideofilename>
							<originalaudiofilename></originalaudiofilename>
						</logginginfo>
						<colorinfo>
							<lut></lut>
							<lut1></lut1>
							<asc_sop></asc_sop>
							<asc_sat></asc_sat>
							<lut2></lut2>
						</colorinfo>
						<labels>
							<label2>Blue</label2>
						</labels>
					</clipitem>
					<clipitem id="clipitem-632" premiereChannelType="stereo">
						<masterclipid>masterclip-77</masterclipid>
						<name>04_root/CMP2_graphics.aep</name>
						<enabled>TRUE</enabled>
						<duration>411</duration>
						<rate>
							<timebase>60</timebase>
							<ntsc>FALSE</ntsc>
						</rate>
						<start>47170</start>
						<end>47581</end>
						<in>0</in>
						<out>411</out>
						<pproTicksIn>0</pproTicksIn>
						<pproTicksOut>1740009600000</pproTicksOut>
						<file id="file-77"/>
						<sourcetrack>
							<mediatype>audio</mediatype>
							<trackindex>1</trackindex>
						</sourcetrack>
						<link>
							<linkclipref>clipitem-523</linkclipref>
							<mediatype>video</mediatype>
							<trackindex>3</trackindex>
							<clipindex>28</clipindex>
						</link>
						<link>
							<linkclipref>clipitem-632</linkclipref>
							<mediatype>audio</mediatype>
							<trackindex>11</trackindex>
							<clipindex>17</clipindex>
							<groupindex>1</groupindex>
						</link>
						<link>
							<linkclipref>clipitem-646</linkclipref>
							<mediatype>audio</mediatype>
							<trackindex>12</trackindex>
							<clipindex>17</clipindex>
							<groupindex>1</groupindex>
						</link>
						<logginginfo>
							<description></description>
							<scene></scene>
							<shottake></shottake>
							<lognote></lognote>
							<good></good>
							<originalvideofilename></originalvideofilename>
							<originalaudiofilename></originalaudiofilename>
						</logginginfo>
						<colorinfo>
							<lut></lut>
							<lut1></lut1>
							<asc_sop></asc_sop>
							<asc_sat></asc_sat>
							<lut2></lut2>
						</colorinfo>
						<labels>
							<label2>Green</label2>
						</labels>
					</clipitem>
					<clipitem id="clipitem-633" premiereChannelType="stereo">
						<masterclipid>masterclip-96</masterclipid>
						<name>Kate_ZOOM0001.WAV</name>
						<enabled>FALSE</enabled>
						<duration>81662</duration>
						<rate>
							<timebase>60</timebase>
							<ntsc>FALSE</ntsc>
						</rate>
						<start>47583</start>
						<end>55523</end>
						<in>22866</in>
						<out>30806</out>
						<pproTicksIn>96805497600000</pproTicksIn>
						<pproTicksOut>130420281600000</pproTicksOut>
						<file id="file-96"/>
						<sourcetrack>
							<mediatype>audio</mediatype>
							<trackindex>1</trackindex>
						</sourcetrack>
							<marker>
								<comment></comment>
								<name></name>
								<in>8498</in>
								<out>-1</out>
							</marker>
						<link>
							<linkclipref>clipitem-633</linkclipref>
							<mediatype>audio</mediatype>
							<trackindex>11</trackindex>
							<clipindex>18</clipindex>
							<groupindex>1</groupindex>
						</link>
						<link>
							<linkclipref>clipitem-647</linkclipref>
							<mediatype>audio</mediatype>
							<trackindex>12</trackindex>
							<clipindex>18</clipindex>
							<groupindex>1</groupindex>
						</link>
						<logginginfo>
							<description></description>
							<scene></scene>
							<shottake></shottake>
							<lognote></lognote>
							<good></good>
							<originalvideofilename></originalvideofilename>
							<originalaudiofilename></originalaudiofilename>
						</logginginfo>
						<colorinfo>
							<lut></lut>
							<lut1></lut1>
							<asc_sop></asc_sop>
							<asc_sat></asc_sat>
							<lut2></lut2>
						</colorinfo>
						<labels>
							<label2>Yellow</label2>
						</labels>
					</clipitem>
					<enabled>FALSE</enabled>
					<locked>FALSE</locked>
					<outputchannelindex>1</outputchannelindex>
				</track>
				<track TL.SQTrackAudioKeyframeStyle="0" TL.SQTrackShy="0" TL.SQTrackExpandedHeight="15" TL.SQTrackExpanded="0" MZ.TrackTargeted="1" PannerCurrentValue="0.5" PannerIsInverted="true" PannerStartKeyframe="-91445760000000000,0.5,0,0,0,0,0,0" PannerName="Balance" currentExplodedTrackIndex="1" totalExplodedTrackCount="2" premiereTrackType="SixteenChannel">
					<clipitem id="clipitem-634" premiereChannelType="stereo">
						<masterclipid>masterclip-95</masterclipid>
						<name>BrookePart2_ZOOM0001.WAV</name>
						<enabled>FALSE</enabled>
						<duration>136757</duration>
						<rate>
							<timebase>60</timebase>
							<ntsc>FALSE</ntsc>
						</rate>
						<start>228</start>
						<end>3739</end>
						<in>33514</in>
						<out>37025</out>
						<pproTicksIn>141884870400000</pproTicksIn>
						<pproTicksOut>156749040000000</pproTicksOut>
						<file id="file-95"/>
						<sourcetrack>
							<mediatype>audio</mediatype>
							<trackindex>2</trackindex>
						</sourcetrack>
							<marker>
								<comment></comment>
								<name></name>
								<in>6836</in>
								<out>-1</out>
							</marker>
						<link>
							<linkclipref>clipitem-620</linkclipref>
							<mediatype>audio</mediatype>
							<trackindex>11</trackindex>
							<clipindex>1</clipindex>
							<groupindex>1</groupindex>
						</link>
						<link>
							<linkclipref>clipitem-634</linkclipref>
							<mediatype>audio</mediatype>
							<trackindex>12</trackindex>
							<clipindex>1</clipindex>
							<groupindex>1</groupindex>
						</link>
						<logginginfo>
							<description></description>
							<scene></scene>
							<shottake></shottake>
							<lognote></lognote>
							<good></good>
							<originalvideofilename></originalvideofilename>
							<originalaudiofilename></originalaudiofilename>
						</logginginfo>
						<colorinfo>
							<lut></lut>
							<lut1></lut1>
							<asc_sop></asc_sop>
							<asc_sat></asc_sat>
							<lut2></lut2>
						</colorinfo>
						<labels>
							<label2>Blue</label2>
						</labels>
					</clipitem>
					<clipitem id="clipitem-635" premiereChannelType="stereo">
						<masterclipid>masterclip-95</masterclipid>
						<name>BrookePart2_ZOOM0001.WAV</name>
						<enabled>FALSE</enabled>
						<duration>136757</duration>
						<rate>
							<timebase>60</timebase>
							<ntsc>FALSE</ntsc>
						</rate>
						<start>3739</start>
						<end>7105</end>
						<in>37025</in>
						<out>40391</out>
						<pproTicksIn>156749040000000</pproTicksIn>
						<pproTicksOut>170999337600000</pproTicksOut>
						<file id="file-95"/>
						<sourcetrack>
							<mediatype>audio</mediatype>
							<trackindex>2</trackindex>
						</sourcetrack>
							<marker>
								<comment></comment>
								<name></name>
								<in>6836</in>
								<out>-1</out>
							</marker>
						<link>
							<linkclipref>clipitem-621</linkclipref>
							<mediatype>audio</mediatype>
							<trackindex>11</trackindex>
							<clipindex>2</clipindex>
							<groupindex>1</groupindex>
						</link>
						<link>
							<linkclipref>clipitem-635</linkclipref>
							<mediatype>audio</mediatype>
							<trackindex>12</trackindex>
							<clipindex>2</clipindex>
							<groupindex>1</groupindex>
						</link>
						<logginginfo>
							<description></description>
							<scene></scene>
							<shottake></shottake>
							<lognote></lognote>
							<good></good>
							<originalvideofilename></originalvideofilename>
							<originalaudiofilename></originalaudiofilename>
						</logginginfo>
						<colorinfo>
							<lut></lut>
							<lut1></lut1>
							<asc_sop></asc_sop>
							<asc_sat></asc_sat>
							<lut2></lut2>
						</colorinfo>
						<labels>
							<label2>Blue</label2>
						</labels>
					</clipitem>
					<clipitem id="clipitem-636" premiereChannelType="stereo">
						<masterclipid>masterclip-95</masterclipid>
						<name>BrookePart2_ZOOM0001.WAV</name>
						<enabled>FALSE</enabled>
						<duration>136757</duration>
						<rate>
							<timebase>60</timebase>
							<ntsc>FALSE</ntsc>
						</rate>
						<start>7105</start>
						<end>9116</end>
						<in>40391</in>
						<out>42402</out>
						<pproTicksIn>170999337600000</pproTicksIn>
						<pproTicksOut>179513107200000</pproTicksOut>
						<file id="file-95"/>
						<sourcetrack>
							<mediatype>audio</mediatype>
							<trackindex>2</trackindex>
						</sourcetrack>
							<marker>
								<comment></comment>
								<name></name>
								<in>6836</in>
								<out>-1</out>
							</marker>
						<link>
							<linkclipref>clipitem-622</linkclipref>
							<mediatype>audio</mediatype>
							<trackindex>11</trackindex>
							<clipindex>3</clipindex>
							<groupindex>1</groupindex>
						</link>
						<link>
							<linkclipref>clipitem-636</linkclipref>
							<mediatype>audio</mediatype>
							<trackindex>12</trackindex>
							<clipindex>3</clipindex>
							<groupindex>1</groupindex>
						</link>
						<logginginfo>
							<description></description>
							<scene></scene>
							<shottake></shottake>
							<lognote></lognote>
							<good></good>
							<originalvideofilename></originalvideofilename>
							<originalaudiofilename></originalaudiofilename>
						</logginginfo>
						<colorinfo>
							<lut></lut>
							<lut1></lut1>
							<asc_sop></asc_sop>
							<asc_sat></asc_sat>
							<lut2></lut2>
						</colorinfo>
						<labels>
							<label2>Blue</label2>
						</labels>
					</clipitem>
					<clipitem id="clipitem-637" premiereChannelType="stereo">
						<masterclipid>masterclip-95</masterclipid>
						<name>BrookePart2_ZOOM0001.WAV</name>
						<enabled>FALSE</enabled>
						<duration>136757</duration>
						<rate>
							<timebase>60</timebase>
							<ntsc>FALSE</ntsc>
						</rate>
						<start>9116</start>
						<end>9885</end>
						<in>42402</in>
						<out>43171</out>
						<pproTicksIn>179513107200000</pproTicksIn>
						<pproTicksOut>182768745600000</pproTicksOut>
						<file id="file-95"/>
						<sourcetrack>
							<mediatype>audio</mediatype>
							<trackindex>2</trackindex>
						</sourcetrack>
							<marker>
								<comment></comment>
								<name></name>
								<in>6836</in>
								<out>-1</out>
							</marker>
						<link>
							<linkclipref>clipitem-623</linkclipref>
							<mediatype>audio</mediatype>
							<trackindex>11</trackindex>
							<clipindex>4</clipindex>
							<groupindex>1</groupindex>
						</link>
						<link>
							<linkclipref>clipitem-637</linkclipref>
							<mediatype>audio</mediatype>
							<trackindex>12</trackindex>
							<clipindex>4</clipindex>
							<groupindex>1</groupindex>
						</link>
						<logginginfo>
							<description></description>
							<scene></scene>
							<shottake></shottake>
							<lognote></lognote>
							<good></good>
							<originalvideofilename></originalvideofilename>
							<originalaudiofilename></originalaudiofilename>
						</logginginfo>
						<colorinfo>
							<lut></lut>
							<lut1></lut1>
							<asc_sop></asc_sop>
							<asc_sat></asc_sat>
							<lut2></lut2>
						</colorinfo>
						<labels>
							<label2>Blue</label2>
						</labels>
					</clipitem>
					<clipitem id="clipitem-638" premiereChannelType="stereo">
						<masterclipid>masterclip-95</masterclipid>
						<name>BrookePart2_ZOOM0001.WAV</name>
						<enabled>FALSE</enabled>
						<duration>136757</duration>
						<rate>
							<timebase>60</timebase>
							<ntsc>FALSE</ntsc>
						</rate>
						<start>9885</start>
						<end>11578</end>
						<in>15995</in>
						<out>17688</out>
						<pproTicksIn>67716432000000</pproTicksIn>
						<pproTicksOut>74883916800000</pproTicksOut>
						<file id="file-95"/>
						<sourcetrack>
							<mediatype>audio</mediatype>
							<trackindex>2</trackindex>
						</sourcetrack>
							<marker>
								<comment></comment>
								<name></name>
								<in>6836</in>
								<out>-1</out>
							</marker>
						<link>
							<linkclipref>clipitem-624</linkclipref>
							<mediatype>audio</mediatype>
							<trackindex>11</trackindex>
							<clipindex>5</clipindex>
							<groupindex>1</groupindex>
						</link>
						<link>
							<linkclipref>clipitem-638</linkclipref>
							<mediatype>audio</mediatype>
							<trackindex>12</trackindex>
							<clipindex>5</clipindex>
							<groupindex>1</groupindex>
						</link>
						<logginginfo>
							<description></description>
							<scene></scene>
							<shottake></shottake>
							<lognote></lognote>
							<good></good>
							<originalvideofilename></originalvideofilename>
							<originalaudiofilename></originalaudiofilename>
						</logginginfo>
						<colorinfo>
							<lut></lut>
							<lut1></lut1>
							<asc_sop></asc_sop>
							<asc_sat></asc_sat>
							<lut2></lut2>
						</colorinfo>
						<labels>
							<label2>Green</label2>
						</labels>
					</clipitem>
					<transitionitem>
						<start>19136</start>
						<end>19138</end>
						<alignment>start-black</alignment>
						<cutPointTicks>0</cutPointTicks>
						<rate>
							<timebase>60</timebase>
							<ntsc>FALSE</ntsc>
						</rate>
						<effect>
							<name>Cross Fade (+3dB)</name>
							<effectid>KGAudioTransCrossFade3dB</effectid>
							<effecttype>transition</effecttype>
							<mediatype>audio</mediatype>
							<wipecode>0</wipecode>
							<wipeaccuracy>100</wipeaccuracy>
							<startratio>0</startratio>
							<endratio>1</endratio>
							<reverse>FALSE</reverse>
						</effect>
					</transitionitem>
					<clipitem id="clipitem-639" premiereChannelType="stereo">
						<masterclipid>masterclip-96</masterclipid>
						<name>Kate_ZOOM0001.WAV</name>
						<enabled>FALSE</enabled>
						<duration>81662</duration>
						<rate>
							<timebase>60</timebase>
							<ntsc>FALSE</ntsc>
						</rate>
						<start>-1</start>
						<end>-1</end>
						<in>26096</in>
						<out>26156</out>
						<pproTicksIn>110480025600000</pproTicksIn>
						<pproTicksOut>110734041600000</pproTicksOut>
						<file id="file-96"/>
						<sourcetrack>
							<mediatype>audio</mediatype>
							<trackindex>2</trackindex>
						</sourcetrack>
						<filter>
							<effect>
								<name>Audio Levels</name>
								<effectid>audiolevels</effectid>
								<effectcategory>audiolevels</effectcategory>
								<effecttype>audiolevels</effecttype>
								<mediatype>audio</mediatype>
								<pproBypass>false</pproBypass>
								<parameter authoringApp="PremierePro">
									<parameterid>level</parameterid>
									<name>Level</name>
									<valuemin>0</valuemin>
									<valuemax>3.98109</valuemax>
									<value>1</value>
									<keyframe>
										<when>17117</when>
										<value>0</value>
									</keyframe>
									<keyframe>
										<when>17147</when>
										<value>1</value>
									</keyframe>
									<keyframe>
										<when>17243</when>
										<value>1</value>
									</keyframe>
									<keyframe>
										<when>17256</when>
										<value>0</value>
									</keyframe>
									<keyframe>
										<when>17367</when>
										<value>0</value>
									</keyframe>
									<keyframe>
										<when>17377</when>
										<value>0</value>
									</keyframe>
									<keyframe>
										<when>17918</when>
										<value>0</value>
									</keyframe>
									<keyframe>
										<when>17950</when>
										<value>0</value>
									</keyframe>
									<keyframe>
										<when>19157</when>
										<value>0</value>
									</keyframe>
									<keyframe>
										<when>19183</when>
										<value>0</value>
									</keyframe>
									<keyframe>
										<when>19590</when>
										<value>0</value>
									</keyframe>
									<keyframe>
										<when>19656</when>
										<value>1</value>
									</keyframe>
									<keyframe>
										<when>20245</when>
										<value>1</value>
									</keyframe>
									<keyframe>
										<when>20275</when>
										<value>0</value>
									</keyframe>
									<keyframe>
										<when>20433</when>
										<value>0</value>
									</keyframe>
									<keyframe>
										<when>20463</when>
										<value>1</value>
									</keyframe>
									<keyframe>
										<when>21357</when>
										<value>1</value>
									</keyframe>
									<keyframe>
										<when>21402</when>
										<value>0</value>
									</keyframe>
									<keyframe>
										<when>21647</when>
										<value>0</value>
									</keyframe>
									<keyframe>
										<when>21749</when>
										<value>1</value>
									</keyframe>
									<keyframe>
										<when>22205</when>
										<value>1</value>
									</keyframe>
									<keyframe>
										<when>22257</when>
										<value>0</value>
									</keyframe>
									<keyframe>
										<when>22427</when>
										<value>0</value>
									</keyframe>
									<keyframe>
										<when>22478</when>
										<value>1</value>
									</keyframe>
									<keyframe>
										<when>23004</when>
										<value>0</value>
									</keyframe>
									<keyframe>
										<when>23046</when>
										<value>1</value>
									</keyframe>
									<keyframe>
										<when>25497</when>
										<value>0</value>
									</keyframe>
									<keyframe>
										<when>25548</when>
										<value>1</value>
									</keyframe>
								</parameter>
							</effect>
						</filter>
							<marker>
								<comment></comment>
								<name></name>
								<in>8498</in>
								<out>-1</out>
							</marker>
						<link>
							<linkclipref>clipitem-625</linkclipref>
							<mediatype>audio</mediatype>
							<trackindex>11</trackindex>
							<clipindex>7</clipindex>
							<groupindex>1</groupindex>
						</link>
						<link>
							<linkclipref>clipitem-639</linkclipref>
							<mediatype>audio</mediatype>
							<trackindex>12</trackindex>
							<clipindex>7</clipindex>
							<groupindex>1</groupindex>
						</link>
						<logginginfo>
							<description></description>
							<scene></scene>
							<shottake></shottake>
							<lognote></lognote>
							<good></good>
							<originalvideofilename></originalvideofilename>
							<originalaudiofilename></originalaudiofilename>
						</logginginfo>
						<colorinfo>
							<lut></lut>
							<lut1></lut1>
							<asc_sop></asc_sop>
							<asc_sat></asc_sat>
							<lut2></lut2>
						</colorinfo>
						<labels>
							<label2>Green</label2>
						</labels>
					</clipitem>
					<transitionitem>
						<start>19194</start>
						<end>19196</end>
						<alignment>center</alignment>
						<cutPointTicks>4233600000</cutPointTicks>
						<rate>
							<timebase>60</timebase>
							<ntsc>FALSE</ntsc>
						</rate>
						<effect>
							<name>Cross Fade (+3dB)</name>
							<effectid>KGAudioTransCrossFade3dB</effectid>
							<effecttype>transition</effecttype>
							<mediatype>audio</mediatype>
							<wipecode>0</wipecode>
							<wipeaccuracy>100</wipeaccuracy>
							<startratio>0</startratio>
							<endratio>1</endratio>
							<reverse>FALSE</reverse>
						</effect>
					</transitionitem>
					<clipitem id="clipitem-640" premiereChannelType="stereo">
						<masterclipid>masterclip-96</masterclipid>
						<name>Kate_ZOOM0001.WAV</name>
						<enabled>FALSE</enabled>
						<duration>81662</duration>
						<rate>
							<timebase>60</timebase>
							<ntsc>FALSE</ntsc>
						</rate>
						<start>-1</start>
						<end>-1</end>
						<in>26181</in>
						<out>26326</out>
						<pproTicksIn>110839881600000</pproTicksIn>
						<pproTicksOut>111453753600000</pproTicksOut>
						<file id="file-96"/>
						<sourcetrack>
							<mediatype>audio</mediatype>
							<trackindex>2</trackindex>
						</sourcetrack>
						<filter>
							<effect>
								<name>Audio Levels</name>
								<effectid>audiolevels</effectid>
								<effectcategory>audiolevels</effectcategory>
								<effecttype>audiolevels</effecttype>
								<mediatype>audio</mediatype>
								<pproBypass>false</pproBypass>
								<parameter authoringApp="PremierePro">
									<parameterid>level</parameterid>
									<name>Level</name>
									<valuemin>0</valuemin>
									<valuemax>3.98109</valuemax>
									<value>1</value>
									<keyframe>
										<when>17117</when>
										<value>0</value>
									</keyframe>
									<keyframe>
										<when>17147</when>
										<value>1</value>
									</keyframe>
									<keyframe>
										<when>17243</when>
										<value>1</value>
									</keyframe>
									<keyframe>
										<when>17256</when>
										<value>0</value>
									</keyframe>
									<keyframe>
										<when>17367</when>
										<value>0</value>
									</keyframe>
									<keyframe>
										<when>17377</when>
										<value>0</value>
									</keyframe>
									<keyframe>
										<when>17918</when>
										<value>0</value>
									</keyframe>
									<keyframe>
										<when>17950</when>
										<value>0</value>
									</keyframe>
									<keyframe>
										<when>19157</when>
										<value>0</value>
									</keyframe>
									<keyframe>
										<when>19183</when>
										<value>0</value>
									</keyframe>
									<keyframe>
										<when>19590</when>
										<value>0</value>
									</keyframe>
									<keyframe>
										<when>19656</when>
										<value>1</value>
									</keyframe>
									<keyframe>
										<when>20245</when>
										<value>1</value>
									</keyframe>
									<keyframe>
										<when>20275</when>
										<value>0</value>
									</keyframe>
									<keyframe>
										<when>20433</when>
										<value>0</value>
									</keyframe>
									<keyframe>
										<when>20463</when>
										<value>1</value>
									</keyframe>
									<keyframe>
										<when>21357</when>
										<value>1</value>
									</keyframe>
									<keyframe>
										<when>21402</when>
										<value>0</value>
									</keyframe>
									<keyframe>
										<when>21647</when>
										<value>0</value>
									</keyframe>
									<keyframe>
										<when>21749</when>
										<value>1</value>
									</keyframe>
									<keyframe>
										<when>22205</when>
										<value>1</value>
									</keyframe>
									<keyframe>
										<when>22257</when>
										<value>0</value>
									</keyframe>
									<keyframe>
										<when>22427</when>
										<value>0</value>
									</keyframe>
									<keyframe>
										<when>22478</when>
										<value>1</value>
									</keyframe>
									<keyframe>
										<when>23004</when>
										<value>0</value>
									</keyframe>
									<keyframe>
										<when>23046</when>
										<value>1</value>
									</keyframe>
									<keyframe>
										<when>25497</when>
										<value>0</value>
									</keyframe>
									<keyframe>
										<when>25548</when>
										<value>1</value>
									</keyframe>
								</parameter>
							</effect>
						</filter>
							<marker>
								<comment></comment>
								<name></name>
								<in>8498</in>
								<out>-1</out>
							</marker>
						<link>
							<linkclipref>clipitem-626</linkclipref>
							<mediatype>audio</mediatype>
							<trackindex>11</trackindex>
							<clipindex>9</clipindex>
							<groupindex>1</groupindex>
						</link>
						<link>
							<linkclipref>clipitem-640</linkclipref>
							<mediatype>audio</mediatype>
							<trackindex>12</trackindex>
							<clipindex>9</clipindex>
							<groupindex>1</groupindex>
						</link>
						<logginginfo>
							<description></description>
							<scene></scene>
							<shottake></shottake>
							<lognote></lognote>
							<good></good>
							<originalvideofilename></originalvideofilename>
							<originalaudiofilename></originalaudiofilename>
						</logginginfo>
						<colorinfo>
							<lut></lut>
							<lut1></lut1>
							<asc_sop></asc_sop>
							<asc_sat></asc_sat>
							<lut2></lut2>
						</colorinfo>
						<labels>
							<label2>Green</label2>
						</labels>
					</clipitem>
					<transitionitem>
						<start>19337</start>
						<end>19339</end>
						<alignment>center</alignment>
						<cutPointTicks>4233600000</cutPointTicks>
						<rate>
							<timebase>60</timebase>
							<ntsc>FALSE</ntsc>
						</rate>
						<effect>
							<name>Cross Fade (+3dB)</name>
							<effectid>KGAudioTransCrossFade3dB</effectid>
							<effecttype>transition</effecttype>
							<mediatype>audio</mediatype>
							<wipecode>0</wipecode>
							<wipeaccuracy>100</wipeaccuracy>
							<startratio>0</startratio>
							<endratio>1</endratio>
							<reverse>FALSE</reverse>
						</effect>
					</transitionitem>
					<clipitem id="clipitem-641" premiereChannelType="stereo">
						<masterclipid>masterclip-96</masterclipid>
						<name>Kate_ZOOM0001.WAV</name>
						<enabled>FALSE</enabled>
						<duration>81662</duration>
						<rate>
							<timebase>60</timebase>
							<ntsc>FALSE</ntsc>
						</rate>
						<start>-1</start>
						<end>19856</end>
						<in>26415</in>
						<out>26934</out>
						<pproTicksIn>111830544000000</pproTicksIn>
						<pproTicksOut>114027782400000</pproTicksOut>
						<file id="file-96"/>
						<sourcetrack>
							<mediatype>audio</mediatype>
							<trackindex>2</trackindex>
						</sourcetrack>
						<filter>
							<effect>
								<name>Audio Levels</name>
								<effectid>audiolevels</effectid>
								<effectcategory>audiolevels</effectcategory>
								<effecttype>audiolevels</effecttype>
								<mediatype>audio</mediatype>
								<pproBypass>false</pproBypass>
								<parameter authoringApp="PremierePro">
									<parameterid>level</parameterid>
									<name>Level</name>
									<valuemin>0</valuemin>
									<valuemax>3.98109</valuemax>
									<value>1</value>
									<keyframe>
										<when>17117</when>
										<value>0</value>
									</keyframe>
									<keyframe>
										<when>17147</when>
										<value>1</value>
									</keyframe>
									<keyframe>
										<when>17243</when>
										<value>1</value>
									</keyframe>
									<keyframe>
										<when>17256</when>
										<value>0</value>
									</keyframe>
									<keyframe>
										<when>17367</when>
										<value>0</value>
									</keyframe>
									<keyframe>
										<when>17377</when>
										<value>0</value>
									</keyframe>
									<keyframe>
										<when>17918</when>
										<value>0</value>
									</keyframe>
									<keyframe>
										<when>17950</when>
										<value>0</value>
									</keyframe>
									<keyframe>
										<when>19157</when>
										<value>0</value>
									</keyframe>
									<keyframe>
										<when>19183</when>
										<value>0</value>
									</keyframe>
									<keyframe>
										<when>19590</when>
										<value>0</value>
									</keyframe>
									<keyframe>
										<when>19656</when>
										<value>1</value>
									</keyframe>
									<keyframe>
										<when>20245</when>
										<value>1</value>
									</keyframe>
									<keyframe>
										<when>20275</when>
										<value>0</value>
									</keyframe>
									<keyframe>
										<when>20433</when>
										<value>0</value>
									</keyframe>
									<keyframe>
										<when>20463</when>
										<value>1</value>
									</keyframe>
									<keyframe>
										<when>21357</when>
										<value>1</value>
									</keyframe>
									<keyframe>
										<when>21402</when>
										<value>0</value>
									</keyframe>
									<keyframe>
										<when>21647</when>
										<value>0</value>
									</keyframe>
									<keyframe>
										<when>21749</when>
										<value>1</value>
									</keyframe>
									<keyframe>
										<when>22205</when>
										<value>1</value>
									</keyframe>
									<keyframe>
										<when>22257</when>
										<value>0</value>
									</keyframe>
									<keyframe>
										<when>22427</when>
										<value>0</value>
									</keyframe>
									<keyframe>
										<when>22478</when>
										<value>1</value>
									</keyframe>
									<keyframe>
										<when>23004</when>
										<value>0</value>
									</keyframe>
									<keyframe>
										<when>23046</when>
										<value>1</value>
									</keyframe>
									<keyframe>
										<when>25497</when>
										<value>0</value>
									</keyframe>
									<keyframe>
										<when>25548</when>
										<value>1</value>
									</keyframe>
									<keyframe>
										<when>26882</when>
										<value>1</value>
									</keyframe>
									<keyframe>
										<when>26934</when>
										<value>0</value>
									</keyframe>
								</parameter>
							</effect>
						</filter>
							<marker>
								<comment></comment>
								<name></name>
								<in>8498</in>
								<out>-1</out>
							</marker>
						<link>
							<linkclipref>clipitem-627</linkclipref>
							<mediatype>audio</mediatype>
							<trackindex>11</trackindex>
							<clipindex>11</clipindex>
							<groupindex>1</groupindex>
						</link>
						<link>
							<linkclipref>clipitem-641</linkclipref>
							<mediatype>audio</mediatype>
							<trackindex>12</trackindex>
							<clipindex>11</clipindex>
							<groupindex>1</groupindex>
						</link>
						<logginginfo>
							<description></description>
							<scene></scene>
							<shottake></shottake>
							<lognote></lognote>
							<good></good>
							<originalvideofilename></originalvideofilename>
							<originalaudiofilename></originalaudiofilename>
						</logginginfo>
						<colorinfo>
							<lut></lut>
							<lut1></lut1>
							<asc_sop></asc_sop>
							<asc_sat></asc_sat>
							<lut2></lut2>
						</colorinfo>
						<labels>
							<label2>Green</label2>
						</labels>
					</clipitem>
					<clipitem id="clipitem-642" premiereChannelType="stereo">
						<masterclipid>masterclip-96</masterclipid>
						<name>Kate_ZOOM0001.WAV</name>
						<enabled>FALSE</enabled>
						<duration>81662</duration>
						<rate>
							<timebase>60</timebase>
							<ntsc>FALSE</ntsc>
						</rate>
						<start>25901</start>
						<end>29015</end>
						<in>33031</in>
						<out>36145</out>
						<pproTicksIn>139840041600000</pproTicksIn>
						<pproTicksOut>153023472000000</pproTicksOut>
						<file id="file-96"/>
						<sourcetrack>
							<mediatype>audio</mediatype>
							<trackindex>2</trackindex>
						</sourcetrack>
							<marker>
								<comment></comment>
								<name></name>
								<in>8498</in>
								<out>-1</out>
							</marker>
						<link>
							<linkclipref>clipitem-628</linkclipref>
							<mediatype>audio</mediatype>
							<trackindex>11</trackindex>
							<clipindex>12</clipindex>
							<groupindex>1</groupindex>
						</link>
						<link>
							<linkclipref>clipitem-642</linkclipref>
							<mediatype>audio</mediatype>
							<trackindex>12</trackindex>
							<clipindex>12</clipindex>
							<groupindex>1</groupindex>
						</link>
						<logginginfo>
							<description></description>
							<scene></scene>
							<shottake></shottake>
							<lognote></lognote>
							<good></good>
							<originalvideofilename></originalvideofilename>
							<originalaudiofilename></originalaudiofilename>
						</logginginfo>
						<colorinfo>
							<lut></lut>
							<lut1></lut1>
							<asc_sop></asc_sop>
							<asc_sat></asc_sat>
							<lut2></lut2>
						</colorinfo>
						<labels>
							<label2>Mango</label2>
						</labels>
					</clipitem>
					<clipitem id="clipitem-643" premiereChannelType="stereo">
						<masterclipid>masterclip-95</masterclipid>
						<name>BrookePart2_ZOOM0001.WAV</name>
						<enabled>TRUE</enabled>
						<duration>136757</duration>
						<rate>
							<timebase>60</timebase>
							<ntsc>FALSE</ntsc>
						</rate>
						<start>29015</start>
						<end>29561</end>
						<in>73346</in>
						<out>73892</out>
						<pproTicksIn>310517625600000</pproTicksIn>
						<pproTicksOut>312829171200000</pproTicksOut>
						<file id="file-95"/>
						<sourcetrack>
							<mediatype>audio</mediatype>
							<trackindex>2</trackindex>
						</sourcetrack>
							<marker>
								<comment></comment>
								<name></name>
								<in>6836</in>
								<out>-1</out>
							</marker>
						<link>
							<linkclipref>clipitem-629</linkclipref>
							<mediatype>audio</mediatype>
							<trackindex>11</trackindex>
							<clipindex>13</clipindex>
							<groupindex>1</groupindex>
						</link>
						<link>
							<linkclipref>clipitem-643</linkclipref>
							<mediatype>audio</mediatype>
							<trackindex>12</trackindex>
							<clipindex>13</clipindex>
							<groupindex>1</groupindex>
						</link>
						<logginginfo>
							<description></description>
							<scene></scene>
							<shottake></shottake>
							<lognote></lognote>
							<good></good>
							<originalvideofilename></originalvideofilename>
							<originalaudiofilename></originalaudiofilename>
						</logginginfo>
						<colorinfo>
							<lut></lut>
							<lut1></lut1>
							<asc_sop></asc_sop>
							<asc_sat></asc_sat>
							<lut2></lut2>
						</colorinfo>
						<labels>
							<label2>Blue</label2>
						</labels>
					</clipitem>
					<transitionitem>
						<start>41737</start>
						<end>41739</end>
						<alignment>start-black</alignment>
						<cutPointTicks>0</cutPointTicks>
						<rate>
							<timebase>60</timebase>
							<ntsc>FALSE</ntsc>
						</rate>
						<effect>
							<name>Cross Fade (+3dB)</name>
							<effectid>KGAudioTransCrossFade3dB</effectid>
							<effecttype>transition</effecttype>
							<mediatype>audio</mediatype>
							<wipecode>0</wipecode>
							<wipeaccuracy>100</wipeaccuracy>
							<startratio>0</startratio>
							<endratio>1</endratio>
							<reverse>FALSE</reverse>
						</effect>
					</transitionitem>
					<clipitem id="clipitem-644" premiereChannelType="stereo">
						<masterclipid>masterclip-97</masterclipid>
						<name>K1Pro-Brooke_20180508.WAV</name>
						<enabled>FALSE</enabled>
						<duration>129341</duration>
						<rate>
							<timebase>60</timebase>
							<ntsc>FALSE</ntsc>
						</rate>
						<start>-1</start>
						<end>45259</end>
						<in>62090</in>
						<out>65612</out>
						<pproTicksIn>262864224000000</pproTicksIn>
						<pproTicksOut>277774963200000</pproTicksOut>
						<file id="file-97"/>
						<sourcetrack>
							<mediatype>audio</mediatype>
							<trackindex>2</trackindex>
						</sourcetrack>
							<marker>
								<comment></comment>
								<name></name>
								<in>69901</in>
								<out>-1</out>
							</marker>
							<marker>
								<comment></comment>
								<name></name>
								<in>88491</in>
								<out>-1</out>
							</marker>
							<marker>
								<comment></comment>
								<name></name>
								<in>28153</in>
								<out>-1</out>
							</marker>
							<marker>
								<comment></comment>
								<name></name>
								<in>33835</in>
								<out>-1</out>
							</marker>
						<link>
							<linkclipref>clipitem-630</linkclipref>
							<mediatype>audio</mediatype>
							<trackindex>11</trackindex>
							<clipindex>15</clipindex>
							<groupindex>1</groupindex>
						</link>
						<link>
							<linkclipref>clipitem-644</linkclipref>
							<mediatype>audio</mediatype>
							<trackindex>12</trackindex>
							<clipindex>15</clipindex>
							<groupindex>1</groupindex>
						</link>
						<logginginfo>
							<description></description>
							<scene></scene>
							<shottake></shottake>
							<lognote></lognote>
							<good></good>
							<originalvideofilename></originalvideofilename>
							<originalaudiofilename></originalaudiofilename>
						</logginginfo>
						<colorinfo>
							<lut></lut>
							<lut1></lut1>
							<asc_sop></asc_sop>
							<asc_sat></asc_sat>
							<lut2></lut2>
						</colorinfo>
						<labels>
							<label2>Rose</label2>
						</labels>
					</clipitem>
					<clipitem id="clipitem-645" premiereChannelType="stereo">
						<masterclipid>masterclip-95</masterclipid>
						<name>BrookePart2_ZOOM0001.WAV</name>
						<enabled>TRUE</enabled>
						<duration>136757</duration>
						<rate>
							<timebase>60</timebase>
							<ntsc>FALSE</ntsc>
						</rate>
						<start>45259</start>
						<end>47170</end>
						<in>100582</in>
						<out>102493</out>
						<pproTicksIn>425823955200000</pproTicksIn>
						<pproTicksOut>433914364800000</pproTicksOut>
						<file id="file-95"/>
						<sourcetrack>
							<mediatype>audio</mediatype>
							<trackindex>2</trackindex>
						</sourcetrack>
							<marker>
								<comment></comment>
								<name></name>
								<in>6836</in>
								<out>-1</out>
							</marker>
						<link>
							<linkclipref>clipitem-631</linkclipref>
							<mediatype>audio</mediatype>
							<trackindex>11</trackindex>
							<clipindex>16</clipindex>
							<groupindex>1</groupindex>
						</link>
						<link>
							<linkclipref>clipitem-645</linkclipref>
							<mediatype>audio</mediatype>
							<trackindex>12</trackindex>
							<clipindex>16</clipindex>
							<groupindex>1</groupindex>
						</link>
						<logginginfo>
							<description></description>
							<scene></scene>
							<shottake></shottake>
							<lognote></lognote>
							<good></good>
							<originalvideofilename></originalvideofilename>
							<originalaudiofilename></originalaudiofilename>
						</logginginfo>
						<colorinfo>
							<lut></lut>
							<lut1></lut1>
							<asc_sop></asc_sop>
							<asc_sat></asc_sat>
							<lut2></lut2>
						</colorinfo>
						<labels>
							<label2>Blue</label2>
						</labels>
					</clipitem>
					<clipitem id="clipitem-646" premiereChannelType="stereo">
						<masterclipid>masterclip-77</masterclipid>
						<name>04_root/CMP2_graphics.aep</name>
						<enabled>TRUE</enabled>
						<duration>411</duration>
						<rate>
							<timebase>60</timebase>
							<ntsc>FALSE</ntsc>
						</rate>
						<start>47170</start>
						<end>47581</end>
						<in>0</in>
						<out>411</out>
						<pproTicksIn>0</pproTicksIn>
						<pproTicksOut>1740009600000</pproTicksOut>
						<file id="file-77"/>
						<sourcetrack>
							<mediatype>audio</mediatype>
							<trackindex>2</trackindex>
						</sourcetrack>
						<link>
							<linkclipref>clipitem-523</linkclipref>
							<mediatype>video</mediatype>
							<trackindex>3</trackindex>
							<clipindex>28</clipindex>
						</link>
						<link>
							<linkclipref>clipitem-632</linkclipref>
							<mediatype>audio</mediatype>
							<trackindex>11</trackindex>
							<clipindex>17</clipindex>
							<groupindex>1</groupindex>
						</link>
						<link>
							<linkclipref>clipitem-646</linkclipref>
							<mediatype>audio</mediatype>
							<trackindex>12</trackindex>
							<clipindex>17</clipindex>
							<groupindex>1</groupindex>
						</link>
						<logginginfo>
							<description></description>
							<scene></scene>
							<shottake></shottake>
							<lognote></lognote>
							<good></good>
							<originalvideofilename></originalvideofilename>
							<originalaudiofilename></originalaudiofilename>
						</logginginfo>
						<colorinfo>
							<lut></lut>
							<lut1></lut1>
							<asc_sop></asc_sop>
							<asc_sat></asc_sat>
							<lut2></lut2>
						</colorinfo>
						<labels>
							<label2>Green</label2>
						</labels>
					</clipitem>
					<clipitem id="clipitem-647" premiereChannelType="stereo">
						<masterclipid>masterclip-96</masterclipid>
						<name>Kate_ZOOM0001.WAV</name>
						<enabled>FALSE</enabled>
						<duration>81662</duration>
						<rate>
							<timebase>60</timebase>
							<ntsc>FALSE</ntsc>
						</rate>
						<start>47583</start>
						<end>55523</end>
						<in>22866</in>
						<out>30806</out>
						<pproTicksIn>96805497600000</pproTicksIn>
						<pproTicksOut>130420281600000</pproTicksOut>
						<file id="file-96"/>
						<sourcetrack>
							<mediatype>audio</mediatype>
							<trackindex>2</trackindex>
						</sourcetrack>
							<marker>
								<comment></comment>
								<name></name>
								<in>8498</in>
								<out>-1</out>
							</marker>
						<link>
							<linkclipref>clipitem-633</linkclipref>
							<mediatype>audio</mediatype>
							<trackindex>11</trackindex>
							<clipindex>18</clipindex>
							<groupindex>1</groupindex>
						</link>
						<link>
							<linkclipref>clipitem-647</linkclipref>
							<mediatype>audio</mediatype>
							<trackindex>12</trackindex>
							<clipindex>18</clipindex>
							<groupindex>1</groupindex>
						</link>
						<logginginfo>
							<description></description>
							<scene></scene>
							<shottake></shottake>
							<lognote></lognote>
							<good></good>
							<originalvideofilename></originalvideofilename>
							<originalaudiofilename></originalaudiofilename>
						</logginginfo>
						<colorinfo>
							<lut></lut>
							<lut1></lut1>
							<asc_sop></asc_sop>
							<asc_sat></asc_sat>
							<lut2></lut2>
						</colorinfo>
						<labels>
							<label2>Yellow</label2>
						</labels>
					</clipitem>
					<enabled>FALSE</enabled>
					<locked>FALSE</locked>
					<outputchannelindex>2</outputchannelindex>
				</track>
				<track TL.SQTrackAudioKeyframeStyle="0" TL.SQTrackShy="0" TL.SQTrackExpandedHeight="15" TL.SQTrackExpanded="0" MZ.TrackTargeted="1" PannerCurrentValue="0.5" PannerIsInverted="true" PannerStartKeyframe="-91445760000000000,0.5,0,0,0,0,0,0" PannerName="Balance" currentExplodedTrackIndex="0" totalExplodedTrackCount="2" premiereTrackType="SixteenChannel">
					<clipitem id="clipitem-648" premiereChannelType="stereo">
						<masterclipid>masterclip-98</masterclipid>
						<name>ZOOM0002.WAV</name>
						<enabled>FALSE</enabled>
						<duration>43784</duration>
						<rate>
							<timebase>60</timebase>
							<ntsc>FALSE</ntsc>
						</rate>
						<start>11299</start>
						<end>19881</end>
						<in>13536</in>
						<out>22118</out>
						<pproTicksIn>57306009600000</pproTicksIn>
						<pproTicksOut>93638764800000</pproTicksOut>
						<file id="file-98">
							<name>ZOOM0002.WAV</name>
							<pathurl>file://localhost/G%3a/Departments/_Post/__Projects/035_Chimps_Part_2/1.Raw/Ingest/project_chimps_20180512/H1-HollyNarration/ZOOM0002.WAV</pathurl>
							<rate>
								<timebase>30</timebase>
								<ntsc>TRUE</ntsc>
							</rate>
							<duration>21870</duration>
							<timecode>
								<rate>
									<timebase>30</timebase>
									<ntsc>TRUE</ntsc>
								</rate>
								<string>02;58;48;00</string>
								<frame>321518</frame>
								<displayformat>DF</displayformat>
							</timecode>
							<media>
								<audio>
									<samplecharacteristics>
										<depth>16</depth>
										<samplerate>48000</samplerate>
									</samplecharacteristics>
									<channelcount>2</channelcount>
								</audio>
							</media>
						</file>
						<sourcetrack>
							<mediatype>audio</mediatype>
							<trackindex>1</trackindex>
						</sourcetrack>
							<marker>
								<comment></comment>
								<name></name>
								<in>14634</in>
								<out>-1</out>
							</marker>
						<link>
							<linkclipref>clipitem-648</linkclipref>
							<mediatype>audio</mediatype>
							<trackindex>13</trackindex>
							<clipindex>1</clipindex>
							<groupindex>1</groupindex>
						</link>
						<link>
							<linkclipref>clipitem-662</linkclipref>
							<mediatype>audio</mediatype>
							<trackindex>14</trackindex>
							<clipindex>1</clipindex>
							<groupindex>1</groupindex>
						</link>
						<logginginfo>
							<description></description>
							<scene></scene>
							<shottake></shottake>
							<lognote></lognote>
							<good></good>
							<originalvideofilename></originalvideofilename>
							<originalaudiofilename></originalaudiofilename>
						</logginginfo>
						<colorinfo>
							<lut></lut>
							<lut1></lut1>
							<asc_sop></asc_sop>
							<asc_sat></asc_sat>
							<lut2></lut2>
						</colorinfo>
						<labels>
							<label2>Violet</label2>
						</labels>
					</clipitem>
					<clipitem id="clipitem-649" premiereChannelType="stereo">
						<masterclipid>masterclip-95</masterclipid>
						<name>BrookePart2_ZOOM0001.WAV</name>
						<enabled>FALSE</enabled>
						<duration>136757</duration>
						<rate>
							<timebase>60</timebase>
							<ntsc>FALSE</ntsc>
						</rate>
						<start>19881</start>
						<end>22866</end>
						<in>53413</in>
						<out>56398</out>
						<pproTicksIn>226129276800000</pproTicksIn>
						<pproTicksOut>238766572800000</pproTicksOut>
						<file id="file-95"/>
						<sourcetrack>
							<mediatype>audio</mediatype>
							<trackindex>1</trackindex>
						</sourcetrack>
							<marker>
								<comment></comment>
								<name></name>
								<in>6836</in>
								<out>-1</out>
							</marker>
						<link>
							<linkclipref>clipitem-649</linkclipref>
							<mediatype>audio</mediatype>
							<trackindex>13</trackindex>
							<clipindex>2</clipindex>
							<groupindex>1</groupindex>
						</link>
						<link>
							<linkclipref>clipitem-663</linkclipref>
							<mediatype>audio</mediatype>
							<trackindex>14</trackindex>
							<clipindex>2</clipindex>
							<groupindex>1</groupindex>
						</link>
						<logginginfo>
							<description></description>
							<scene></scene>
							<shottake></shottake>
							<lognote></lognote>
							<good></good>
							<originalvideofilename></originalvideofilename>
							<originalaudiofilename></originalaudiofilename>
						</logginginfo>
						<colorinfo>
							<lut></lut>
							<lut1></lut1>
							<asc_sop></asc_sop>
							<asc_sat></asc_sat>
							<lut2></lut2>
						</colorinfo>
						<labels>
							<label2>Blue</label2>
						</labels>
					</clipitem>
					<clipitem id="clipitem-650" premiereChannelType="stereo">
						<masterclipid>masterclip-98</masterclipid>
						<name>ZOOM0002.WAV</name>
						<enabled>FALSE</enabled>
						<duration>43784</duration>
						<rate>
							<timebase>60</timebase>
							<ntsc>FALSE</ntsc>
						</rate>
						<start>22866</start>
						<end>25112</end>
						<in>25344</in>
						<out>27590</out>
						<pproTicksIn>107296358400000</pproTicksIn>
						<pproTicksOut>116805024000000</pproTicksOut>
						<file id="file-98"/>
						<sourcetrack>
							<mediatype>audio</mediatype>
							<trackindex>1</trackindex>
						</sourcetrack>
							<marker>
								<comment></comment>
								<name></name>
								<in>14634</in>
								<out>-1</out>
							</marker>
						<link>
							<linkclipref>clipitem-650</linkclipref>
							<mediatype>audio</mediatype>
							<trackindex>13</trackindex>
							<clipindex>3</clipindex>
							<groupindex>1</groupindex>
						</link>
						<link>
							<linkclipref>clipitem-664</linkclipref>
							<mediatype>audio</mediatype>
							<trackindex>14</trackindex>
							<clipindex>3</clipindex>
							<groupindex>1</groupindex>
						</link>
						<logginginfo>
							<description></description>
							<scene></scene>
							<shottake></shottake>
							<lognote></lognote>
							<good></good>
							<originalvideofilename></originalvideofilename>
							<originalaudiofilename></originalaudiofilename>
						</logginginfo>
						<colorinfo>
							<lut></lut>
							<lut1></lut1>
							<asc_sop></asc_sop>
							<asc_sat></asc_sat>
							<lut2></lut2>
						</colorinfo>
						<labels>
							<label2>Mango</label2>
						</labels>
					</clipitem>
					<clipitem id="clipitem-651" premiereChannelType="stereo">
						<masterclipid>masterclip-98</masterclipid>
						<name>ZOOM0002.WAV</name>
						<enabled>FALSE</enabled>
						<duration>43784</duration>
						<rate>
							<timebase>60</timebase>
							<ntsc>FALSE</ntsc>
						</rate>
						<start>25112</start>
						<end>27414</end>
						<in>27590</in>
						<out>29892</out>
						<pproTicksIn>116805024000000</pproTicksIn>
						<pproTicksOut>126550771200000</pproTicksOut>
						<file id="file-98"/>
						<sourcetrack>
							<mediatype>audio</mediatype>
							<trackindex>1</trackindex>
						</sourcetrack>
							<marker>
								<comment></comment>
								<name></name>
								<in>14634</in>
								<out>-1</out>
							</marker>
						<link>
							<linkclipref>clipitem-651</linkclipref>
							<mediatype>audio</mediatype>
							<trackindex>13</trackindex>
							<clipindex>4</clipindex>
							<groupindex>1</groupindex>
						</link>
						<link>
							<linkclipref>clipitem-665</linkclipref>
							<mediatype>audio</mediatype>
							<trackindex>14</trackindex>
							<clipindex>4</clipindex>
							<groupindex>1</groupindex>
						</link>
						<logginginfo>
							<description></description>
							<scene></scene>
							<shottake></shottake>
							<lognote></lognote>
							<good></good>
							<originalvideofilename></originalvideofilename>
							<originalaudiofilename></originalaudiofilename>
						</logginginfo>
						<colorinfo>
							<lut></lut>
							<lut1></lut1>
							<asc_sop></asc_sop>
							<asc_sat></asc_sat>
							<lut2></lut2>
						</colorinfo>
						<labels>
							<label2>Mango</label2>
						</labels>
					</clipitem>
					<clipitem id="clipitem-652" premiereChannelType="stereo">
						<masterclipid>masterclip-98</masterclipid>
						<name>ZOOM0002.WAV</name>
						<enabled>FALSE</enabled>
						<duration>43784</duration>
						<rate>
							<timebase>60</timebase>
							<ntsc>FALSE</ntsc>
						</rate>
						<start>27414</start>
						<end>29015</end>
						<in>29892</in>
						<out>31493</out>
						<pproTicksIn>126550771200000</pproTicksIn>
						<pproTicksOut>133328764800000</pproTicksOut>
						<file id="file-98"/>
						<sourcetrack>
							<mediatype>audio</mediatype>
							<trackindex>1</trackindex>
						</sourcetrack>
							<marker>
								<comment></comment>
								<name></name>
								<in>14634</in>
								<out>-1</out>
							</marker>
						<link>
							<linkclipref>clipitem-652</linkclipref>
							<mediatype>audio</mediatype>
							<trackindex>13</trackindex>
							<clipindex>5</clipindex>
							<groupindex>1</groupindex>
						</link>
						<link>
							<linkclipref>clipitem-666</linkclipref>
							<mediatype>audio</mediatype>
							<trackindex>14</trackindex>
							<clipindex>5</clipindex>
							<groupindex>1</groupindex>
						</link>
						<logginginfo>
							<description></description>
							<scene></scene>
							<shottake></shottake>
							<lognote></lognote>
							<good></good>
							<originalvideofilename></originalvideofilename>
							<originalaudiofilename></originalaudiofilename>
						</logginginfo>
						<colorinfo>
							<lut></lut>
							<lut1></lut1>
							<asc_sop></asc_sop>
							<asc_sat></asc_sat>
							<lut2></lut2>
						</colorinfo>
						<labels>
							<label2>Mango</label2>
						</labels>
					</clipitem>
					<clipitem id="clipitem-653" premiereChannelType="stereo">
						<masterclipid>masterclip-97</masterclipid>
						<name>K1Pro-Brooke_20180508.WAV</name>
						<enabled>TRUE</enabled>
						<duration>129341</duration>
						<rate>
							<timebase>60</timebase>
							<ntsc>FALSE</ntsc>
						</rate>
						<start>34660</start>
						<end>-1</end>
						<in>80152</in>
						<out>80284</out>
						<pproTicksIn>339331507200000</pproTicksIn>
						<pproTicksOut>339890342400000</pproTicksOut>
						<file id="file-97"/>
						<sourcetrack>
							<mediatype>audio</mediatype>
							<trackindex>1</trackindex>
						</sourcetrack>
							<marker>
								<comment></comment>
								<name></name>
								<in>69901</in>
								<out>-1</out>
							</marker>
							<marker>
								<comment></comment>
								<name></name>
								<in>88491</in>
								<out>-1</out>
							</marker>
							<marker>
								<comment></comment>
								<name></name>
								<in>28153</in>
								<out>-1</out>
							</marker>
							<marker>
								<comment></comment>
								<name></name>
								<in>33835</in>
								<out>-1</out>
							</marker>
						<link>
							<linkclipref>clipitem-653</linkclipref>
							<mediatype>audio</mediatype>
							<trackindex>13</trackindex>
							<clipindex>6</clipindex>
							<groupindex>1</groupindex>
						</link>
						<link>
							<linkclipref>clipitem-667</linkclipref>
							<mediatype>audio</mediatype>
							<trackindex>14</trackindex>
							<clipindex>6</clipindex>
							<groupindex>1</groupindex>
						</link>
						<logginginfo>
							<description></description>
							<scene></scene>
							<shottake></shottake>
							<lognote></lognote>
							<good></good>
							<originalvideofilename></originalvideofilename>
							<originalaudiofilename></originalaudiofilename>
						</logginginfo>
						<colorinfo>
							<lut></lut>
							<lut1></lut1>
							<asc_sop></asc_sop>
							<asc_sat></asc_sat>
							<lut2></lut2>
						</colorinfo>
						<labels>
							<label2>Rose</label2>
						</labels>
					</clipitem>
					<transitionitem>
						<start>34790</start>
						<end>34792</end>
						<alignment>center</alignment>
						<cutPointTicks>4233600000</cutPointTicks>
						<rate>
							<timebase>60</timebase>
							<ntsc>FALSE</ntsc>
						</rate>
						<effect>
							<name>Cross Fade (+3dB)</name>
							<effectid>KGAudioTransCrossFade3dB</effectid>
							<effecttype>transition</effecttype>
							<mediatype>audio</mediatype>
							<wipecode>0</wipecode>
							<wipeaccuracy>100</wipeaccuracy>
							<startratio>0</startratio>
							<endratio>1</endratio>
							<reverse>FALSE</reverse>
						</effect>
					</transitionitem>
					<clipitem id="clipitem-654" premiereChannelType="stereo">
						<masterclipid>masterclip-97</masterclipid>
						<name>K1Pro-Brooke_20180508.WAV</name>
						<enabled>TRUE</enabled>
						<duration>129341</duration>
						<rate>
							<timebase>60</timebase>
							<ntsc>FALSE</ntsc>
						</rate>
						<start>-1</start>
						<end>-1</end>
						<in>80329</in>
						<out>80419</out>
						<pproTicksIn>340080854400000</pproTicksIn>
						<pproTicksOut>340461878400000</pproTicksOut>
						<file id="file-97"/>
						<sourcetrack>
							<mediatype>audio</mediatype>
							<trackindex>1</trackindex>
						</sourcetrack>
							<marker>
								<comment></comment>
								<name></name>
								<in>69901</in>
								<out>-1</out>
							</marker>
							<marker>
								<comment></comment>
								<name></name>
								<in>88491</in>
								<out>-1</out>
							</marker>
							<marker>
								<comment></comment>
								<name></name>
								<in>28153</in>
								<out>-1</out>
							</marker>
							<marker>
								<comment></comment>
								<name></name>
								<in>33835</in>
								<out>-1</out>
							</marker>
						<link>
							<linkclipref>clipitem-654</linkclipref>
							<mediatype>audio</mediatype>
							<trackindex>13</trackindex>
							<clipindex>8</clipindex>
							<groupindex>1</groupindex>
						</link>
						<link>
							<linkclipref>clipitem-668</linkclipref>
							<mediatype>audio</mediatype>
							<trackindex>14</trackindex>
							<clipindex>8</clipindex>
							<groupindex>1</groupindex>
						</link>
						<logginginfo>
							<description></description>
							<scene></scene>
							<shottake></shottake>
							<lognote></lognote>
							<good></good>
							<originalvideofilename></originalvideofilename>
							<originalaudiofilename></originalaudiofilename>
						</logginginfo>
						<colorinfo>
							<lut></lut>
							<lut1></lut1>
							<asc_sop></asc_sop>
							<asc_sat></asc_sat>
							<lut2></lut2>
						</colorinfo>
						<labels>
							<label2>Rose</label2>
						</labels>
					</clipitem>
					<transitionitem>
						<start>34878</start>
						<end>34880</end>
						<alignment>center</alignment>
						<cutPointTicks>4233600000</cutPointTicks>
						<rate>
							<timebase>60</timebase>
							<ntsc>FALSE</ntsc>
						</rate>
						<effect>
							<name>Cross Fade (+3dB)</name>
							<effectid>KGAudioTransCrossFade3dB</effectid>
							<effecttype>transition</effecttype>
							<mediatype>audio</mediatype>
							<wipecode>0</wipecode>
							<wipeaccuracy>100</wipeaccuracy>
							<startratio>0</startratio>
							<endratio>1</endratio>
							<reverse>FALSE</reverse>
						</effect>
					</transitionitem>
					<clipitem id="clipitem-655" premiereChannelType="stereo">
						<masterclipid>masterclip-97</masterclipid>
						<name>K1Pro-Brooke_20180508.WAV</name>
						<enabled>TRUE</enabled>
						<duration>129341</duration>
						<rate>
							<timebase>60</timebase>
							<ntsc>FALSE</ntsc>
						</rate>
						<start>-1</start>
						<end>-1</end>
						<in>81658</in>
						<out>82048</out>
						<pproTicksIn>345707308800000</pproTicksIn>
						<pproTicksOut>347358412800000</pproTicksOut>
						<file id="file-97"/>
						<sourcetrack>
							<mediatype>audio</mediatype>
							<trackindex>1</trackindex>
						</sourcetrack>
							<marker>
								<comment></comment>
								<name></name>
								<in>69901</in>
								<out>-1</out>
							</marker>
							<marker>
								<comment></comment>
								<name></name>
								<in>88491</in>
								<out>-1</out>
							</marker>
							<marker>
								<comment></comment>
								<name></name>
								<in>28153</in>
								<out>-1</out>
							</marker>
							<marker>
								<comment></comment>
								<name></name>
								<in>33835</in>
								<out>-1</out>
							</marker>
						<link>
							<linkclipref>clipitem-655</linkclipref>
							<mediatype>audio</mediatype>
							<trackindex>13</trackindex>
							<clipindex>10</clipindex>
							<groupindex>1</groupindex>
						</link>
						<link>
							<linkclipref>clipitem-669</linkclipref>
							<mediatype>audio</mediatype>
							<trackindex>14</trackindex>
							<clipindex>10</clipindex>
							<groupindex>1</groupindex>
						</link>
						<logginginfo>
							<description></description>
							<scene></scene>
							<shottake></shottake>
							<lognote></lognote>
							<good></good>
							<originalvideofilename></originalvideofilename>
							<originalaudiofilename></originalaudiofilename>
						</logginginfo>
						<colorinfo>
							<lut></lut>
							<lut1></lut1>
							<asc_sop></asc_sop>
							<asc_sat></asc_sat>
							<lut2></lut2>
						</colorinfo>
						<labels>
							<label2>Rose</label2>
						</labels>
					</clipitem>
					<transitionitem>
						<start>35266</start>
						<end>35268</end>
						<alignment>end-black</alignment>
						<cutPointTicks>8467200000</cutPointTicks>
						<rate>
							<timebase>60</timebase>
							<ntsc>FALSE</ntsc>
						</rate>
						<effect>
							<name>Cross Fade (+3dB)</name>
							<effectid>KGAudioTransCrossFade3dB</effectid>
							<effecttype>transition</effecttype>
							<mediatype>audio</mediatype>
							<wipecode>0</wipecode>
							<wipeaccuracy>100</wipeaccuracy>
							<startratio>0</startratio>
							<endratio>1</endratio>
							<reverse>FALSE</reverse>
						</effect>
					</transitionitem>
					<transitionitem>
						<start>36122</start>
						<end>36124</end>
						<alignment>start-black</alignment>
						<cutPointTicks>0</cutPointTicks>
						<rate>
							<timebase>60</timebase>
							<ntsc>FALSE</ntsc>
						</rate>
						<effect>
							<name>Cross Fade (+3dB)</name>
							<effectid>KGAudioTransCrossFade3dB</effectid>
							<effecttype>transition</effecttype>
							<mediatype>audio</mediatype>
							<wipecode>0</wipecode>
							<wipeaccuracy>100</wipeaccuracy>
							<startratio>0</startratio>
							<endratio>1</endratio>
							<reverse>FALSE</reverse>
						</effect>
					</transitionitem>
					<clipitem id="clipitem-656" premiereChannelType="stereo">
						<masterclipid>masterclip-97</masterclipid>
						<name>K1Pro-Brooke_20180508.WAV</name>
						<enabled>TRUE</enabled>
						<duration>129341</duration>
						<rate>
							<timebase>60</timebase>
							<ntsc>FALSE</ntsc>
						</rate>
						<start>-1</start>
						<end>-1</end>
						<in>80466</in>
						<out>80599</out>
						<pproTicksIn>340660857600000</pproTicksIn>
						<pproTicksOut>341223926400000</pproTicksOut>
						<file id="file-97"/>
						<sourcetrack>
							<mediatype>audio</mediatype>
							<trackindex>1</trackindex>
						</sourcetrack>
							<marker>
								<comment></comment>
								<name></name>
								<in>69901</in>
								<out>-1</out>
							</marker>
							<marker>
								<comment></comment>
								<name></name>
								<in>88491</in>
								<out>-1</out>
							</marker>
							<marker>
								<comment></comment>
								<name></name>
								<in>28153</in>
								<out>-1</out>
							</marker>
							<marker>
								<comment></comment>
								<name></name>
								<in>33835</in>
								<out>-1</out>
							</marker>
						<link>
							<linkclipref>clipitem-656</linkclipref>
							<mediatype>audio</mediatype>
							<trackindex>13</trackindex>
							<clipindex>13</clipindex>
							<groupindex>1</groupindex>
						</link>
						<link>
							<linkclipref>clipitem-670</linkclipref>
							<mediatype>audio</mediatype>
							<trackindex>14</trackindex>
							<clipindex>13</clipindex>
							<groupindex>1</groupindex>
						</link>
						<logginginfo>
							<description></description>
							<scene></scene>
							<shottake></shottake>
							<lognote></lognote>
							<good></good>
							<originalvideofilename></originalvideofilename>
							<originalaudiofilename></originalaudiofilename>
						</logginginfo>
						<colorinfo>
							<lut></lut>
							<lut1></lut1>
							<asc_sop></asc_sop>
							<asc_sat></asc_sat>
							<lut2></lut2>
						</colorinfo>
						<labels>
							<label2>Rose</label2>
						</labels>
					</clipitem>
					<transitionitem>
						<start>36253</start>
						<end>36255</end>
						<alignment>center</alignment>
						<cutPointTicks>4233600000</cutPointTicks>
						<rate>
							<timebase>60</timebase>
							<ntsc>FALSE</ntsc>
						</rate>
						<effect>
							<name>Cross Fade (+3dB)</name>
							<effectid>KGAudioTransCrossFade3dB</effectid>
							<effecttype>transition</effecttype>
							<mediatype>audio</mediatype>
							<wipecode>0</wipecode>
							<wipeaccuracy>100</wipeaccuracy>
							<startratio>0</startratio>
							<endratio>1</endratio>
							<reverse>FALSE</reverse>
						</effect>
					</transitionitem>
					<clipitem id="clipitem-657" premiereChannelType="stereo">
						<masterclipid>masterclip-97</masterclipid>
						<name>K1Pro-Brooke_20180508.WAV</name>
						<enabled>TRUE</enabled>
						<duration>129341</duration>
						<rate>
							<timebase>60</timebase>
							<ntsc>FALSE</ntsc>
						</rate>
						<start>-1</start>
						<end>-1</end>
						<in>80741</in>
						<out>80887</out>
						<pproTicksIn>341825097600000</pproTicksIn>
						<pproTicksOut>342443203200000</pproTicksOut>
						<file id="file-97"/>
						<sourcetrack>
							<mediatype>audio</mediatype>
							<trackindex>1</trackindex>
						</sourcetrack>
							<marker>
								<comment></comment>
								<name></name>
								<in>69901</in>
								<out>-1</out>
							</marker>
							<marker>
								<comment></comment>
								<name></name>
								<in>88491</in>
								<out>-1</out>
							</marker>
							<marker>
								<comment></comment>
								<name></name>
								<in>28153</in>
								<out>-1</out>
							</marker>
							<marker>
								<comment></comment>
								<name></name>
								<in>33835</in>
								<out>-1</out>
							</marker>
						<link>
							<linkclipref>clipitem-657</linkclipref>
							<mediatype>audio</mediatype>
							<trackindex>13</trackindex>
							<clipindex>15</clipindex>
							<groupindex>1</groupindex>
						</link>
						<link>
							<linkclipref>clipitem-671</linkclipref>
							<mediatype>audio</mediatype>
							<trackindex>14</trackindex>
							<clipindex>15</clipindex>
							<groupindex>1</groupindex>
						</link>
						<logginginfo>
							<description></description>
							<scene></scene>
							<shottake></shottake>
							<lognote></lognote>
							<good></good>
							<originalvideofilename></originalvideofilename>
							<originalaudiofilename></originalaudiofilename>
						</logginginfo>
						<colorinfo>
							<lut></lut>
							<lut1></lut1>
							<asc_sop></asc_sop>
							<asc_sat></asc_sat>
							<lut2></lut2>
						</colorinfo>
						<labels>
							<label2>Rose</label2>
						</labels>
					</clipitem>
					<transitionitem>
						<start>36397</start>
						<end>36399</end>
						<alignment>center</alignment>
						<cutPointTicks>4233600000</cutPointTicks>
						<rate>
							<timebase>60</timebase>
							<ntsc>FALSE</ntsc>
						</rate>
						<effect>
							<name>Cross Fade (+3dB)</name>
							<effectid>KGAudioTransCrossFade3dB</effectid>
							<effecttype>transition</effecttype>
							<mediatype>audio</mediatype>
							<wipecode>0</wipecode>
							<wipeaccuracy>100</wipeaccuracy>
							<startratio>0</startratio>
							<endratio>1</endratio>
							<reverse>FALSE</reverse>
						</effect>
					</transitionitem>
					<clipitem id="clipitem-658" premiereChannelType="stereo">
						<masterclipid>masterclip-97</masterclipid>
						<name>K1Pro-Brooke_20180508.WAV</name>
						<enabled>TRUE</enabled>
						<duration>129341</duration>
						<rate>
							<timebase>60</timebase>
							<ntsc>FALSE</ntsc>
						</rate>
						<start>-1</start>
						<end>-1</end>
						<in>80899</in>
						<out>80947</out>
						<pproTicksIn>342494006400000</pproTicksIn>
						<pproTicksOut>342697219200000</pproTicksOut>
						<file id="file-97"/>
						<sourcetrack>
							<mediatype>audio</mediatype>
							<trackindex>1</trackindex>
						</sourcetrack>
							<marker>
								<comment></comment>
								<name></name>
								<in>69901</in>
								<out>-1</out>
							</marker>
							<marker>
								<comment></comment>
								<name></name>
								<in>88491</in>
								<out>-1</out>
							</marker>
							<marker>
								<comment></comment>
								<name></name>
								<in>28153</in>
								<out>-1</out>
							</marker>
							<marker>
								<comment></comment>
								<name></name>
								<in>33835</in>
								<out>-1</out>
							</marker>
						<link>
							<linkclipref>clipitem-658</linkclipref>
							<mediatype>audio</mediatype>
							<trackindex>13</trackindex>
							<clipindex>17</clipindex>
							<groupindex>1</groupindex>
						</link>
						<link>
							<linkclipref>clipitem-672</linkclipref>
							<mediatype>audio</mediatype>
							<trackindex>14</trackindex>
							<clipindex>17</clipindex>
							<groupindex>1</groupindex>
						</link>
						<logginginfo>
							<description></description>
							<scene></scene>
							<shottake></shottake>
							<lognote></lognote>
							<good></good>
							<originalvideofilename></originalvideofilename>
							<originalaudiofilename></originalaudiofilename>
						</logginginfo>
						<colorinfo>
							<lut></lut>
							<lut1></lut1>
							<asc_sop></asc_sop>
							<asc_sat></asc_sat>
							<lut2></lut2>
						</colorinfo>
						<labels>
							<label2>Rose</label2>
						</labels>
					</clipitem>
					<transitionitem>
						<start>36443</start>
						<end>36445</end>
						<alignment>center</alignment>
						<cutPointTicks>4233600000</cutPointTicks>
						<rate>
							<timebase>60</timebase>
							<ntsc>FALSE</ntsc>
						</rate>
						<effect>
							<name>Cross Fade (+3dB)</name>
							<effectid>KGAudioTransCrossFade3dB</effectid>
							<effecttype>transition</effecttype>
							<mediatype>audio</mediatype>
							<wipecode>0</wipecode>
							<wipeaccuracy>100</wipeaccuracy>
							<startratio>0</startratio>
							<endratio>1</endratio>
							<reverse>FALSE</reverse>
						</effect>
					</transitionitem>
					<clipitem id="clipitem-659" premiereChannelType="stereo">
						<masterclipid>masterclip-97</masterclipid>
						<name>K1Pro-Brooke_20180508.WAV</name>
						<enabled>TRUE</enabled>
						<duration>129341</duration>
						<rate>
							<timebase>60</timebase>
							<ntsc>FALSE</ntsc>
						</rate>
						<start>-1</start>
						<end>-1</end>
						<in>80945</in>
						<out>81047</out>
						<pproTicksIn>342688752000000</pproTicksIn>
						<pproTicksOut>343120579200000</pproTicksOut>
						<file id="file-97"/>
						<sourcetrack>
							<mediatype>audio</mediatype>
							<trackindex>1</trackindex>
						</sourcetrack>
						<filter>
							<effect>
								<name>Audio Levels</name>
								<effectid>audiolevels</effectid>
								<effectcategory>audiolevels</effectcategory>
								<effecttype>audiolevels</effecttype>
								<mediatype>audio</mediatype>
								<pproBypass>false</pproBypass>
								<parameter authoringApp="PremierePro">
									<parameterid>level</parameterid>
									<name>Level</name>
									<valuemin>0</valuemin>
									<valuemax>3.98109</valuemax>
									<value>1</value>
									<keyframe>
										<when>81010</when>
										<value>1</value>
									</keyframe>
									<keyframe>
										<when>81047</when>
										<value>0</value>
									</keyframe>
								</parameter>
							</effect>
						</filter>
							<marker>
								<comment></comment>
								<name></name>
								<in>69901</in>
								<out>-1</out>
							</marker>
							<marker>
								<comment></comment>
								<name></name>
								<in>88491</in>
								<out>-1</out>
							</marker>
							<marker>
								<comment></comment>
								<name></name>
								<in>28153</in>
								<out>-1</out>
							</marker>
							<marker>
								<comment></comment>
								<name></name>
								<in>33835</in>
								<out>-1</out>
							</marker>
						<link>
							<linkclipref>clipitem-659</linkclipref>
							<mediatype>audio</mediatype>
							<trackindex>13</trackindex>
							<clipindex>19</clipindex>
							<groupindex>1</groupindex>
						</link>
						<link>
							<linkclipref>clipitem-673</linkclipref>
							<mediatype>audio</mediatype>
							<trackindex>14</trackindex>
							<clipindex>19</clipindex>
							<groupindex>1</groupindex>
						</link>
						<logginginfo>
							<description></description>
							<scene></scene>
							<shottake></shottake>
							<lognote></lognote>
							<good></good>
							<originalvideofilename></originalvideofilename>
							<originalaudiofilename></originalaudiofilename>
						</logginginfo>
						<colorinfo>
							<lut></lut>
							<lut1></lut1>
							<asc_sop></asc_sop>
							<asc_sat></asc_sat>
							<lut2></lut2>
						</colorinfo>
						<labels>
							<label2>Rose</label2>
						</labels>
					</clipitem>
					<transitionitem>
						<start>36543</start>
						<end>36545</end>
						<alignment>end-black</alignment>
						<cutPointTicks>8467200000</cutPointTicks>
						<rate>
							<timebase>60</timebase>
							<ntsc>FALSE</ntsc>
						</rate>
						<effect>
							<name>Cross Fade (+3dB)</name>
							<effectid>KGAudioTransCrossFade3dB</effectid>
							<effecttype>transition</effecttype>
							<mediatype>audio</mediatype>
							<wipecode>0</wipecode>
							<wipeaccuracy>100</wipeaccuracy>
							<startratio>0</startratio>
							<endratio>1</endratio>
							<reverse>FALSE</reverse>
						</effect>
					</transitionitem>
					<clipitem id="clipitem-660" premiereChannelType="stereo">
						<masterclipid>masterclip-97</masterclipid>
						<name>K1Pro-Brooke_20180508.WAV</name>
						<enabled>TRUE</enabled>
						<duration>129341</duration>
						<rate>
							<timebase>60</timebase>
							<ntsc>FALSE</ntsc>
						</rate>
						<start>37039</start>
						<end>38083</end>
						<in>87383</in>
						<out>88427</out>
						<pproTicksIn>369944668800000</pproTicksIn>
						<pproTicksOut>374364547200000</pproTicksOut>
						<file id="file-97"/>
						<sourcetrack>
							<mediatype>audio</mediatype>
							<trackindex>1</trackindex>
						</sourcetrack>
						<filter>
							<effect>
								<name>Audio Levels</name>
								<effectid>audiolevels</effectid>
								<effectcategory>audiolevels</effectcategory>
								<effecttype>audiolevels</effecttype>
								<mediatype>audio</mediatype>
								<pproBypass>false</pproBypass>
								<parameter authoringApp="PremierePro">
									<parameterid>level</parameterid>
									<name>Level</name>
									<valuemin>0</valuemin>
									<valuemax>3.98109</valuemax>
									<value>0</value>
									<keyframe>
										<when>87383</when>
										<value>0</value>
									</keyframe>
									<keyframe>
										<when>87405</when>
										<value>1</value>
									</keyframe>
									<keyframe>
										<when>88380</when>
										<value>1</value>
									</keyframe>
									<keyframe>
										<when>88418</when>
										<value>0</value>
									</keyframe>
								</parameter>
							</effect>
						</filter>
							<marker>
								<comment></comment>
								<name></name>
								<in>69901</in>
								<out>-1</out>
							</marker>
							<marker>
								<comment></comment>
								<name></name>
								<in>88491</in>
								<out>-1</out>
							</marker>
							<marker>
								<comment></comment>
								<name></name>
								<in>28153</in>
								<out>-1</out>
							</marker>
							<marker>
								<comment></comment>
								<name></name>
								<in>33835</in>
								<out>-1</out>
							</marker>
						<link>
							<linkclipref>clipitem-660</linkclipref>
							<mediatype>audio</mediatype>
							<trackindex>13</trackindex>
							<clipindex>21</clipindex>
							<groupindex>1</groupindex>
						</link>
						<link>
							<linkclipref>clipitem-674</linkclipref>
							<mediatype>audio</mediatype>
							<trackindex>14</trackindex>
							<clipindex>21</clipindex>
							<groupindex>1</groupindex>
						</link>
						<logginginfo>
							<description></description>
							<scene></scene>
							<shottake></shottake>
							<lognote></lognote>
							<good></good>
							<originalvideofilename></originalvideofilename>
							<originalaudiofilename></originalaudiofilename>
						</logginginfo>
						<colorinfo>
							<lut></lut>
							<lut1></lut1>
							<asc_sop></asc_sop>
							<asc_sat></asc_sat>
							<lut2></lut2>
						</colorinfo>
						<labels>
							<label2>Rose</label2>
						</labels>
					</clipitem>
					<clipitem id="clipitem-661" premiereChannelType="mono">
						<masterclipid>masterclip-76</masterclipid>
						<name>0001_20180514_101903_60FPS_AUDIO.mp4</name>
						<enabled>TRUE</enabled>
						<duration>10800</duration>
						<rate>
							<timebase>60</timebase>
							<ntsc>FALSE</ntsc>
						</rate>
						<start>47170</start>
						<end>55523</end>
						<in>852</in>
						<out>9205</out>
						<pproTicksIn>3607027200000</pproTicksIn>
						<pproTicksOut>38970288000000</pproTicksOut>
						<file id="file-76"/>
						<sourcetrack>
							<mediatype>audio</mediatype>
							<trackindex>1</trackindex>
						</sourcetrack>
						<filter>
							<effect>
								<name>Audio Levels</name>
								<effectid>audiolevels</effectid>
								<effectcategory>audiolevels</effectcategory>
								<effecttype>audiolevels</effecttype>
								<mediatype>audio</mediatype>
								<pproBypass>false</pproBypass>
								<parameter authoringApp="PremierePro">
									<parameterid>level</parameterid>
									<name>Level</name>
									<valuemin>0</valuemin>
									<valuemax>3.98109</valuemax>
									<value>0.982456</value>
									<keyframe>
										<when>5770</when>
										<value>0.982456</value>
									</keyframe>
									<keyframe>
										<when>5940</when>
										<value>0.368421</value>
									</keyframe>
									<keyframe>
										<when>6401</when>
										<value>0.368421</value>
									</keyframe>
									<keyframe>
										<when>6589</when>
										<value>1</value>
									</keyframe>
								</parameter>
							</effect>
						</filter>
						<link>
							<linkclipref>clipitem-495</linkclipref>
							<mediatype>video</mediatype>
							<trackindex>2</trackindex>
							<clipindex>32</clipindex>
						</link>
						<link>
							<linkclipref>clipitem-661</linkclipref>
							<mediatype>audio</mediatype>
							<trackindex>13</trackindex>
							<clipindex>22</clipindex>
							<groupindex>1</groupindex>
						</link>
						<logginginfo>
							<description></description>
							<scene></scene>
							<shottake></shottake>
							<lognote></lognote>
							<good></good>
							<originalvideofilename></originalvideofilename>
							<originalaudiofilename></originalaudiofilename>
						</logginginfo>
						<colorinfo>
							<lut></lut>
							<lut1></lut1>
							<asc_sop></asc_sop>
							<asc_sat></asc_sat>
							<lut2></lut2>
						</colorinfo>
						<labels>
							<label2>Yellow</label2>
						</labels>
					</clipitem>
					<enabled>TRUE</enabled>
					<locked>FALSE</locked>
					<outputchannelindex>1</outputchannelindex>
				</track>
				<track TL.SQTrackAudioKeyframeStyle="0" TL.SQTrackShy="0" TL.SQTrackExpandedHeight="15" TL.SQTrackExpanded="0" MZ.TrackTargeted="1" PannerCurrentValue="0.5" PannerIsInverted="true" PannerStartKeyframe="-91445760000000000,0.5,0,0,0,0,0,0" PannerName="Balance" currentExplodedTrackIndex="1" totalExplodedTrackCount="2" premiereTrackType="SixteenChannel">
					<clipitem id="clipitem-662" premiereChannelType="stereo">
						<masterclipid>masterclip-98</masterclipid>
						<name>ZOOM0002.WAV</name>
						<enabled>FALSE</enabled>
						<duration>43784</duration>
						<rate>
							<timebase>60</timebase>
							<ntsc>FALSE</ntsc>
						</rate>
						<start>11299</start>
						<end>19881</end>
						<in>13536</in>
						<out>22118</out>
						<pproTicksIn>57306009600000</pproTicksIn>
						<pproTicksOut>93638764800000</pproTicksOut>
						<file id="file-98"/>
						<sourcetrack>
							<mediatype>audio</mediatype>
							<trackindex>2</trackindex>
						</sourcetrack>
							<marker>
								<comment></comment>
								<name></name>
								<in>14634</in>
								<out>-1</out>
							</marker>
						<link>
							<linkclipref>clipitem-648</linkclipref>
							<mediatype>audio</mediatype>
							<trackindex>13</trackindex>
							<clipindex>1</clipindex>
							<groupindex>1</groupindex>
						</link>
						<link>
							<linkclipref>clipitem-662</linkclipref>
							<mediatype>audio</mediatype>
							<trackindex>14</trackindex>
							<clipindex>1</clipindex>
							<groupindex>1</groupindex>
						</link>
						<logginginfo>
							<description></description>
							<scene></scene>
							<shottake></shottake>
							<lognote></lognote>
							<good></good>
							<originalvideofilename></originalvideofilename>
							<originalaudiofilename></originalaudiofilename>
						</logginginfo>
						<colorinfo>
							<lut></lut>
							<lut1></lut1>
							<asc_sop></asc_sop>
							<asc_sat></asc_sat>
							<lut2></lut2>
						</colorinfo>
						<labels>
							<label2>Violet</label2>
						</labels>
					</clipitem>
					<clipitem id="clipitem-663" premiereChannelType="stereo">
						<masterclipid>masterclip-95</masterclipid>
						<name>BrookePart2_ZOOM0001.WAV</name>
						<enabled>FALSE</enabled>
						<duration>136757</duration>
						<rate>
							<timebase>60</timebase>
							<ntsc>FALSE</ntsc>
						</rate>
						<start>19881</start>
						<end>22866</end>
						<in>53413</in>
						<out>56398</out>
						<pproTicksIn>226129276800000</pproTicksIn>
						<pproTicksOut>238766572800000</pproTicksOut>
						<file id="file-95"/>
						<sourcetrack>
							<mediatype>audio</mediatype>
							<trackindex>2</trackindex>
						</sourcetrack>
							<marker>
								<comment></comment>
								<name></name>
								<in>6836</in>
								<out>-1</out>
							</marker>
						<link>
							<linkclipref>clipitem-649</linkclipref>
							<mediatype>audio</mediatype>
							<trackindex>13</trackindex>
							<clipindex>2</clipindex>
							<groupindex>1</groupindex>
						</link>
						<link>
							<linkclipref>clipitem-663</linkclipref>
							<mediatype>audio</mediatype>
							<trackindex>14</trackindex>
							<clipindex>2</clipindex>
							<groupindex>1</groupindex>
						</link>
						<logginginfo>
							<description></description>
							<scene></scene>
							<shottake></shottake>
							<lognote></lognote>
							<good></good>
							<originalvideofilename></originalvideofilename>
							<originalaudiofilename></originalaudiofilename>
						</logginginfo>
						<colorinfo>
							<lut></lut>
							<lut1></lut1>
							<asc_sop></asc_sop>
							<asc_sat></asc_sat>
							<lut2></lut2>
						</colorinfo>
						<labels>
							<label2>Blue</label2>
						</labels>
					</clipitem>
					<clipitem id="clipitem-664" premiereChannelType="stereo">
						<masterclipid>masterclip-98</masterclipid>
						<name>ZOOM0002.WAV</name>
						<enabled>FALSE</enabled>
						<duration>43784</duration>
						<rate>
							<timebase>60</timebase>
							<ntsc>FALSE</ntsc>
						</rate>
						<start>22866</start>
						<end>25112</end>
						<in>25344</in>
						<out>27590</out>
						<pproTicksIn>107296358400000</pproTicksIn>
						<pproTicksOut>116805024000000</pproTicksOut>
						<file id="file-98"/>
						<sourcetrack>
							<mediatype>audio</mediatype>
							<trackindex>2</trackindex>
						</sourcetrack>
							<marker>
								<comment></comment>
								<name></name>
								<in>14634</in>
								<out>-1</out>
							</marker>
						<link>
							<linkclipref>clipitem-650</linkclipref>
							<mediatype>audio</mediatype>
							<trackindex>13</trackindex>
							<clipindex>3</clipindex>
							<groupindex>1</groupindex>
						</link>
						<link>
							<linkclipref>clipitem-664</linkclipref>
							<mediatype>audio</mediatype>
							<trackindex>14</trackindex>
							<clipindex>3</clipindex>
							<groupindex>1</groupindex>
						</link>
						<logginginfo>
							<description></description>
							<scene></scene>
							<shottake></shottake>
							<lognote></lognote>
							<good></good>
							<originalvideofilename></originalvideofilename>
							<originalaudiofilename></originalaudiofilename>
						</logginginfo>
						<colorinfo>
							<lut></lut>
							<lut1></lut1>
							<asc_sop></asc_sop>
							<asc_sat></asc_sat>
							<lut2></lut2>
						</colorinfo>
						<labels>
							<label2>Mango</label2>
						</labels>
					</clipitem>
					<clipitem id="clipitem-665" premiereChannelType="stereo">
						<masterclipid>masterclip-98</masterclipid>
						<name>ZOOM0002.WAV</name>
						<enabled>FALSE</enabled>
						<duration>43784</duration>
						<rate>
							<timebase>60</timebase>
							<ntsc>FALSE</ntsc>
						</rate>
						<start>25112</start>
						<end>27414</end>
						<in>27590</in>
						<out>29892</out>
						<pproTicksIn>116805024000000</pproTicksIn>
						<pproTicksOut>126550771200000</pproTicksOut>
						<file id="file-98"/>
						<sourcetrack>
							<mediatype>audio</mediatype>
							<trackindex>2</trackindex>
						</sourcetrack>
							<marker>
								<comment></comment>
								<name></name>
								<in>14634</in>
								<out>-1</out>
							</marker>
						<link>
							<linkclipref>clipitem-651</linkclipref>
							<mediatype>audio</mediatype>
							<trackindex>13</trackindex>
							<clipindex>4</clipindex>
							<groupindex>1</groupindex>
						</link>
						<link>
							<linkclipref>clipitem-665</linkclipref>
							<mediatype>audio</mediatype>
							<trackindex>14</trackindex>
							<clipindex>4</clipindex>
							<groupindex>1</groupindex>
						</link>
						<logginginfo>
							<description></description>
							<scene></scene>
							<shottake></shottake>
							<lognote></lognote>
							<good></good>
							<originalvideofilename></originalvideofilename>
							<originalaudiofilename></originalaudiofilename>
						</logginginfo>
						<colorinfo>
							<lut></lut>
							<lut1></lut1>
							<asc_sop></asc_sop>
							<asc_sat></asc_sat>
							<lut2></lut2>
						</colorinfo>
						<labels>
							<label2>Mango</label2>
						</labels>
					</clipitem>
					<clipitem id="clipitem-666" premiereChannelType="stereo">
						<masterclipid>masterclip-98</masterclipid>
						<name>ZOOM0002.WAV</name>
						<enabled>FALSE</enabled>
						<duration>43784</duration>
						<rate>
							<timebase>60</timebase>
							<ntsc>FALSE</ntsc>
						</rate>
						<start>27414</start>
						<end>29015</end>
						<in>29892</in>
						<out>31493</out>
						<pproTicksIn>126550771200000</pproTicksIn>
						<pproTicksOut>133328764800000</pproTicksOut>
						<file id="file-98"/>
						<sourcetrack>
							<mediatype>audio</mediatype>
							<trackindex>2</trackindex>
						</sourcetrack>
							<marker>
								<comment></comment>
								<name></name>
								<in>14634</in>
								<out>-1</out>
							</marker>
						<link>
							<linkclipref>clipitem-652</linkclipref>
							<mediatype>audio</mediatype>
							<trackindex>13</trackindex>
							<clipindex>5</clipindex>
							<groupindex>1</groupindex>
						</link>
						<link>
							<linkclipref>clipitem-666</linkclipref>
							<mediatype>audio</mediatype>
							<trackindex>14</trackindex>
							<clipindex>5</clipindex>
							<groupindex>1</groupindex>
						</link>
						<logginginfo>
							<description></description>
							<scene></scene>
							<shottake></shottake>
							<lognote></lognote>
							<good></good>
							<originalvideofilename></originalvideofilename>
							<originalaudiofilename></originalaudiofilename>
						</logginginfo>
						<colorinfo>
							<lut></lut>
							<lut1></lut1>
							<asc_sop></asc_sop>
							<asc_sat></asc_sat>
							<lut2></lut2>
						</colorinfo>
						<labels>
							<label2>Mango</label2>
						</labels>
					</clipitem>
					<clipitem id="clipitem-667" premiereChannelType="stereo">
						<masterclipid>masterclip-97</masterclipid>
						<name>K1Pro-Brooke_20180508.WAV</name>
						<enabled>TRUE</enabled>
						<duration>129341</duration>
						<rate>
							<timebase>60</timebase>
							<ntsc>FALSE</ntsc>
						</rate>
						<start>34660</start>
						<end>-1</end>
						<in>80152</in>
						<out>80284</out>
						<pproTicksIn>339331507200000</pproTicksIn>
						<pproTicksOut>339890342400000</pproTicksOut>
						<file id="file-97"/>
						<sourcetrack>
							<mediatype>audio</mediatype>
							<trackindex>2</trackindex>
						</sourcetrack>
							<marker>
								<comment></comment>
								<name></name>
								<in>69901</in>
								<out>-1</out>
							</marker>
							<marker>
								<comment></comment>
								<name></name>
								<in>88491</in>
								<out>-1</out>
							</marker>
							<marker>
								<comment></comment>
								<name></name>
								<in>28153</in>
								<out>-1</out>
							</marker>
							<marker>
								<comment></comment>
								<name></name>
								<in>33835</in>
								<out>-1</out>
							</marker>
						<link>
							<linkclipref>clipitem-653</linkclipref>
							<mediatype>audio</mediatype>
							<trackindex>13</trackindex>
							<clipindex>6</clipindex>
							<groupindex>1</groupindex>
						</link>
						<link>
							<linkclipref>clipitem-667</linkclipref>
							<mediatype>audio</mediatype>
							<trackindex>14</trackindex>
							<clipindex>6</clipindex>
							<groupindex>1</groupindex>
						</link>
						<logginginfo>
							<description></description>
							<scene></scene>
							<shottake></shottake>
							<lognote></lognote>
							<good></good>
							<originalvideofilename></originalvideofilename>
							<originalaudiofilename></originalaudiofilename>
						</logginginfo>
						<colorinfo>
							<lut></lut>
							<lut1></lut1>
							<asc_sop></asc_sop>
							<asc_sat></asc_sat>
							<lut2></lut2>
						</colorinfo>
						<labels>
							<label2>Rose</label2>
						</labels>
					</clipitem>
					<transitionitem>
						<start>34790</start>
						<end>34792</end>
						<alignment>center</alignment>
						<cutPointTicks>4233600000</cutPointTicks>
						<rate>
							<timebase>60</timebase>
							<ntsc>FALSE</ntsc>
						</rate>
						<effect>
							<name>Cross Fade (+3dB)</name>
							<effectid>KGAudioTransCrossFade3dB</effectid>
							<effecttype>transition</effecttype>
							<mediatype>audio</mediatype>
							<wipecode>0</wipecode>
							<wipeaccuracy>100</wipeaccuracy>
							<startratio>0</startratio>
							<endratio>1</endratio>
							<reverse>FALSE</reverse>
						</effect>
					</transitionitem>
					<clipitem id="clipitem-668" premiereChannelType="stereo">
						<masterclipid>masterclip-97</masterclipid>
						<name>K1Pro-Brooke_20180508.WAV</name>
						<enabled>TRUE</enabled>
						<duration>129341</duration>
						<rate>
							<timebase>60</timebase>
							<ntsc>FALSE</ntsc>
						</rate>
						<start>-1</start>
						<end>-1</end>
						<in>80329</in>
						<out>80419</out>
						<pproTicksIn>340080854400000</pproTicksIn>
						<pproTicksOut>340461878400000</pproTicksOut>
						<file id="file-97"/>
						<sourcetrack>
							<mediatype>audio</mediatype>
							<trackindex>2</trackindex>
						</sourcetrack>
							<marker>
								<comment></comment>
								<name></name>
								<in>69901</in>
								<out>-1</out>
							</marker>
							<marker>
								<comment></comment>
								<name></name>
								<in>88491</in>
								<out>-1</out>
							</marker>
							<marker>
								<comment></comment>
								<name></name>
								<in>28153</in>
								<out>-1</out>
							</marker>
							<marker>
								<comment></comment>
								<name></name>
								<in>33835</in>
								<out>-1</out>
							</marker>
						<link>
							<linkclipref>clipitem-654</linkclipref>
							<mediatype>audio</mediatype>
							<trackindex>13</trackindex>
							<clipindex>8</clipindex>
							<groupindex>1</groupindex>
						</link>
						<link>
							<linkclipref>clipitem-668</linkclipref>
							<mediatype>audio</mediatype>
							<trackindex>14</trackindex>
							<clipindex>8</clipindex>
							<groupindex>1</groupindex>
						</link>
						<logginginfo>
							<description></description>
							<scene></scene>
							<shottake></shottake>
							<lognote></lognote>
							<good></good>
							<originalvideofilename></originalvideofilename>
							<originalaudiofilename></originalaudiofilename>
						</logginginfo>
						<colorinfo>
							<lut></lut>
							<lut1></lut1>
							<asc_sop></asc_sop>
							<asc_sat></asc_sat>
							<lut2></lut2>
						</colorinfo>
						<labels>
							<label2>Rose</label2>
						</labels>
					</clipitem>
					<transitionitem>
						<start>34878</start>
						<end>34880</end>
						<alignment>center</alignment>
						<cutPointTicks>4233600000</cutPointTicks>
						<rate>
							<timebase>60</timebase>
							<ntsc>FALSE</ntsc>
						</rate>
						<effect>
							<name>Cross Fade (+3dB)</name>
							<effectid>KGAudioTransCrossFade3dB</effectid>
							<effecttype>transition</effecttype>
							<mediatype>audio</mediatype>
							<wipecode>0</wipecode>
							<wipeaccuracy>100</wipeaccuracy>
							<startratio>0</startratio>
							<endratio>1</endratio>
							<reverse>FALSE</reverse>
						</effect>
					</transitionitem>
					<clipitem id="clipitem-669" premiereChannelType="stereo">
						<masterclipid>masterclip-97</masterclipid>
						<name>K1Pro-Brooke_20180508.WAV</name>
						<enabled>TRUE</enabled>
						<duration>129341</duration>
						<rate>
							<timebase>60</timebase>
							<ntsc>FALSE</ntsc>
						</rate>
						<start>-1</start>
						<end>-1</end>
						<in>81658</in>
						<out>82048</out>
						<pproTicksIn>345707308800000</pproTicksIn>
						<pproTicksOut>347358412800000</pproTicksOut>
						<file id="file-97"/>
						<sourcetrack>
							<mediatype>audio</mediatype>
							<trackindex>2</trackindex>
						</sourcetrack>
							<marker>
								<comment></comment>
								<name></name>
								<in>69901</in>
								<out>-1</out>
							</marker>
							<marker>
								<comment></comment>
								<name></name>
								<in>88491</in>
								<out>-1</out>
							</marker>
							<marker>
								<comment></comment>
								<name></name>
								<in>28153</in>
								<out>-1</out>
							</marker>
							<marker>
								<comment></comment>
								<name></name>
								<in>33835</in>
								<out>-1</out>
							</marker>
						<link>
							<linkclipref>clipitem-655</linkclipref>
							<mediatype>audio</mediatype>
							<trackindex>13</trackindex>
							<clipindex>10</clipindex>
							<groupindex>1</groupindex>
						</link>
						<link>
							<linkclipref>clipitem-669</linkclipref>
							<mediatype>audio</mediatype>
							<trackindex>14</trackindex>
							<clipindex>10</clipindex>
							<groupindex>1</groupindex>
						</link>
						<logginginfo>
							<description></description>
							<scene></scene>
							<shottake></shottake>
							<lognote></lognote>
							<good></good>
							<originalvideofilename></originalvideofilename>
							<originalaudiofilename></originalaudiofilename>
						</logginginfo>
						<colorinfo>
							<lut></lut>
							<lut1></lut1>
							<asc_sop></asc_sop>
							<asc_sat></asc_sat>
							<lut2></lut2>
						</colorinfo>
						<labels>
							<label2>Rose</label2>
						</labels>
					</clipitem>
					<transitionitem>
						<start>35266</start>
						<end>35268</end>
						<alignment>end-black</alignment>
						<cutPointTicks>8467200000</cutPointTicks>
						<rate>
							<timebase>60</timebase>
							<ntsc>FALSE</ntsc>
						</rate>
						<effect>
							<name>Cross Fade (+3dB)</name>
							<effectid>KGAudioTransCrossFade3dB</effectid>
							<effecttype>transition</effecttype>
							<mediatype>audio</mediatype>
							<wipecode>0</wipecode>
							<wipeaccuracy>100</wipeaccuracy>
							<startratio>0</startratio>
							<endratio>1</endratio>
							<reverse>FALSE</reverse>
						</effect>
					</transitionitem>
					<transitionitem>
						<start>36122</start>
						<end>36124</end>
						<alignment>start-black</alignment>
						<cutPointTicks>0</cutPointTicks>
						<rate>
							<timebase>60</timebase>
							<ntsc>FALSE</ntsc>
						</rate>
						<effect>
							<name>Cross Fade (+3dB)</name>
							<effectid>KGAudioTransCrossFade3dB</effectid>
							<effecttype>transition</effecttype>
							<mediatype>audio</mediatype>
							<wipecode>0</wipecode>
							<wipeaccuracy>100</wipeaccuracy>
							<startratio>0</startratio>
							<endratio>1</endratio>
							<reverse>FALSE</reverse>
						</effect>
					</transitionitem>
					<clipitem id="clipitem-670" premiereChannelType="stereo">
						<masterclipid>masterclip-97</masterclipid>
						<name>K1Pro-Brooke_20180508.WAV</name>
						<enabled>TRUE</enabled>
						<duration>129341</duration>
						<rate>
							<timebase>60</timebase>
							<ntsc>FALSE</ntsc>
						</rate>
						<start>-1</start>
						<end>-1</end>
						<in>80466</in>
						<out>80599</out>
						<pproTicksIn>340660857600000</pproTicksIn>
						<pproTicksOut>341223926400000</pproTicksOut>
						<file id="file-97"/>
						<sourcetrack>
							<mediatype>audio</mediatype>
							<trackindex>2</trackindex>
						</sourcetrack>
							<marker>
								<comment></comment>
								<name></name>
								<in>69901</in>
								<out>-1</out>
							</marker>
							<marker>
								<comment></comment>
								<name></name>
								<in>88491</in>
								<out>-1</out>
							</marker>
							<marker>
								<comment></comment>
								<name></name>
								<in>28153</in>
								<out>-1</out>
							</marker>
							<marker>
								<comment></comment>
								<name></name>
								<in>33835</in>
								<out>-1</out>
							</marker>
						<link>
							<linkclipref>clipitem-656</linkclipref>
							<mediatype>audio</mediatype>
							<trackindex>13</trackindex>
							<clipindex>13</clipindex>
							<groupindex>1</groupindex>
						</link>
						<link>
							<linkclipref>clipitem-670</linkclipref>
							<mediatype>audio</mediatype>
							<trackindex>14</trackindex>
							<clipindex>13</clipindex>
							<groupindex>1</groupindex>
						</link>
						<logginginfo>
							<description></description>
							<scene></scene>
							<shottake></shottake>
							<lognote></lognote>
							<good></good>
							<originalvideofilename></originalvideofilename>
							<originalaudiofilename></originalaudiofilename>
						</logginginfo>
						<colorinfo>
							<lut></lut>
							<lut1></lut1>
							<asc_sop></asc_sop>
							<asc_sat></asc_sat>
							<lut2></lut2>
						</colorinfo>
						<labels>
							<label2>Rose</label2>
						</labels>
					</clipitem>
					<transitionitem>
						<start>36253</start>
						<end>36255</end>
						<alignment>center</alignment>
						<cutPointTicks>4233600000</cutPointTicks>
						<rate>
							<timebase>60</timebase>
							<ntsc>FALSE</ntsc>
						</rate>
						<effect>
							<name>Cross Fade (+3dB)</name>
							<effectid>KGAudioTransCrossFade3dB</effectid>
							<effecttype>transition</effecttype>
							<mediatype>audio</mediatype>
							<wipecode>0</wipecode>
							<wipeaccuracy>100</wipeaccuracy>
							<startratio>0</startratio>
							<endratio>1</endratio>
							<reverse>FALSE</reverse>
						</effect>
					</transitionitem>
					<clipitem id="clipitem-671" premiereChannelType="stereo">
						<masterclipid>masterclip-97</masterclipid>
						<name>K1Pro-Brooke_20180508.WAV</name>
						<enabled>TRUE</enabled>
						<duration>129341</duration>
						<rate>
							<timebase>60</timebase>
							<ntsc>FALSE</ntsc>
						</rate>
						<start>-1</start>
						<end>-1</end>
						<in>80741</in>
						<out>80887</out>
						<pproTicksIn>341825097600000</pproTicksIn>
						<pproTicksOut>342443203200000</pproTicksOut>
						<file id="file-97"/>
						<sourcetrack>
							<mediatype>audio</mediatype>
							<trackindex>2</trackindex>
						</sourcetrack>
							<marker>
								<comment></comment>
								<name></name>
								<in>69901</in>
								<out>-1</out>
							</marker>
							<marker>
								<comment></comment>
								<name></name>
								<in>88491</in>
								<out>-1</out>
							</marker>
							<marker>
								<comment></comment>
								<name></name>
								<in>28153</in>
								<out>-1</out>
							</marker>
							<marker>
								<comment></comment>
								<name></name>
								<in>33835</in>
								<out>-1</out>
							</marker>
						<link>
							<linkclipref>clipitem-657</linkclipref>
							<mediatype>audio</mediatype>
							<trackindex>13</trackindex>
							<clipindex>15</clipindex>
							<groupindex>1</groupindex>
						</link>
						<link>
							<linkclipref>clipitem-671</linkclipref>
							<mediatype>audio</mediatype>
							<trackindex>14</trackindex>
							<clipindex>15</clipindex>
							<groupindex>1</groupindex>
						</link>
						<logginginfo>
							<description></description>
							<scene></scene>
							<shottake></shottake>
							<lognote></lognote>
							<good></good>
							<originalvideofilename></originalvideofilename>
							<originalaudiofilename></originalaudiofilename>
						</logginginfo>
						<colorinfo>
							<lut></lut>
							<lut1></lut1>
							<asc_sop></asc_sop>
							<asc_sat></asc_sat>
							<lut2></lut2>
						</colorinfo>
						<labels>
							<label2>Rose</label2>
						</labels>
					</clipitem>
					<transitionitem>
						<start>36397</start>
						<end>36399</end>
						<alignment>center</alignment>
						<cutPointTicks>4233600000</cutPointTicks>
						<rate>
							<timebase>60</timebase>
							<ntsc>FALSE</ntsc>
						</rate>
						<effect>
							<name>Cross Fade (+3dB)</name>
							<effectid>KGAudioTransCrossFade3dB</effectid>
							<effecttype>transition</effecttype>
							<mediatype>audio</mediatype>
							<wipecode>0</wipecode>
							<wipeaccuracy>100</wipeaccuracy>
							<startratio>0</startratio>
							<endratio>1</endratio>
							<reverse>FALSE</reverse>
						</effect>
					</transitionitem>
					<clipitem id="clipitem-672" premiereChannelType="stereo">
						<masterclipid>masterclip-97</masterclipid>
						<name>K1Pro-Brooke_20180508.WAV</name>
						<enabled>TRUE</enabled>
						<duration>129341</duration>
						<rate>
							<timebase>60</timebase>
							<ntsc>FALSE</ntsc>
						</rate>
						<start>-1</start>
						<end>-1</end>
						<in>80899</in>
						<out>80947</out>
						<pproTicksIn>342494006400000</pproTicksIn>
						<pproTicksOut>342697219200000</pproTicksOut>
						<file id="file-97"/>
						<sourcetrack>
							<mediatype>audio</mediatype>
							<trackindex>2</trackindex>
						</sourcetrack>
							<marker>
								<comment></comment>
								<name></name>
								<in>69901</in>
								<out>-1</out>
							</marker>
							<marker>
								<comment></comment>
								<name></name>
								<in>88491</in>
								<out>-1</out>
							</marker>
							<marker>
								<comment></comment>
								<name></name>
								<in>28153</in>
								<out>-1</out>
							</marker>
							<marker>
								<comment></comment>
								<name></name>
								<in>33835</in>
								<out>-1</out>
							</marker>
						<link>
							<linkclipref>clipitem-658</linkclipref>
							<mediatype>audio</mediatype>
							<trackindex>13</trackindex>
							<clipindex>17</clipindex>
							<groupindex>1</groupindex>
						</link>
						<link>
							<linkclipref>clipitem-672</linkclipref>
							<mediatype>audio</mediatype>
							<trackindex>14</trackindex>
							<clipindex>17</clipindex>
							<groupindex>1</groupindex>
						</link>
						<logginginfo>
							<description></description>
							<scene></scene>
							<shottake></shottake>
							<lognote></lognote>
							<good></good>
							<originalvideofilename></originalvideofilename>
							<originalaudiofilename></originalaudiofilename>
						</logginginfo>
						<colorinfo>
							<lut></lut>
							<lut1></lut1>
							<asc_sop></asc_sop>
							<asc_sat></asc_sat>
							<lut2></lut2>
						</colorinfo>
						<labels>
							<label2>Rose</label2>
						</labels>
					</clipitem>
					<transitionitem>
						<start>36443</start>
						<end>36445</end>
						<alignment>center</alignment>
						<cutPointTicks>4233600000</cutPointTicks>
						<rate>
							<timebase>60</timebase>
							<ntsc>FALSE</ntsc>
						</rate>
						<effect>
							<name>Cross Fade (+3dB)</name>
							<effectid>KGAudioTransCrossFade3dB</effectid>
							<effecttype>transition</effecttype>
							<mediatype>audio</mediatype>
							<wipecode>0</wipecode>
							<wipeaccuracy>100</wipeaccuracy>
							<startratio>0</startratio>
							<endratio>1</endratio>
							<reverse>FALSE</reverse>
						</effect>
					</transitionitem>
					<clipitem id="clipitem-673" premiereChannelType="stereo">
						<masterclipid>masterclip-97</masterclipid>
						<name>K1Pro-Brooke_20180508.WAV</name>
						<enabled>TRUE</enabled>
						<duration>129341</duration>
						<rate>
							<timebase>60</timebase>
							<ntsc>FALSE</ntsc>
						</rate>
						<start>-1</start>
						<end>-1</end>
						<in>80945</in>
						<out>81047</out>
						<pproTicksIn>342688752000000</pproTicksIn>
						<pproTicksOut>343120579200000</pproTicksOut>
						<file id="file-97"/>
						<sourcetrack>
							<mediatype>audio</mediatype>
							<trackindex>2</trackindex>
						</sourcetrack>
						<filter>
							<effect>
								<name>Audio Levels</name>
								<effectid>audiolevels</effectid>
								<effectcategory>audiolevels</effectcategory>
								<effecttype>audiolevels</effecttype>
								<mediatype>audio</mediatype>
								<pproBypass>false</pproBypass>
								<parameter authoringApp="PremierePro">
									<parameterid>level</parameterid>
									<name>Level</name>
									<valuemin>0</valuemin>
									<valuemax>3.98109</valuemax>
									<value>1</value>
									<keyframe>
										<when>81010</when>
										<value>1</value>
									</keyframe>
									<keyframe>
										<when>81047</when>
										<value>0</value>
									</keyframe>
								</parameter>
							</effect>
						</filter>
							<marker>
								<comment></comment>
								<name></name>
								<in>69901</in>
								<out>-1</out>
							</marker>
							<marker>
								<comment></comment>
								<name></name>
								<in>88491</in>
								<out>-1</out>
							</marker>
							<marker>
								<comment></comment>
								<name></name>
								<in>28153</in>
								<out>-1</out>
							</marker>
							<marker>
								<comment></comment>
								<name></name>
								<in>33835</in>
								<out>-1</out>
							</marker>
						<link>
							<linkclipref>clipitem-659</linkclipref>
							<mediatype>audio</mediatype>
							<trackindex>13</trackindex>
							<clipindex>19</clipindex>
							<groupindex>1</groupindex>
						</link>
						<link>
							<linkclipref>clipitem-673</linkclipref>
							<mediatype>audio</mediatype>
							<trackindex>14</trackindex>
							<clipindex>19</clipindex>
							<groupindex>1</groupindex>
						</link>
						<logginginfo>
							<description></description>
							<scene></scene>
							<shottake></shottake>
							<lognote></lognote>
							<good></good>
							<originalvideofilename></originalvideofilename>
							<originalaudiofilename></originalaudiofilename>
						</logginginfo>
						<colorinfo>
							<lut></lut>
							<lut1></lut1>
							<asc_sop></asc_sop>
							<asc_sat></asc_sat>
							<lut2></lut2>
						</colorinfo>
						<labels>
							<label2>Rose</label2>
						</labels>
					</clipitem>
					<transitionitem>
						<start>36543</start>
						<end>36545</end>
						<alignment>end-black</alignment>
						<cutPointTicks>8467200000</cutPointTicks>
						<rate>
							<timebase>60</timebase>
							<ntsc>FALSE</ntsc>
						</rate>
						<effect>
							<name>Cross Fade (+3dB)</name>
							<effectid>KGAudioTransCrossFade3dB</effectid>
							<effecttype>transition</effecttype>
							<mediatype>audio</mediatype>
							<wipecode>0</wipecode>
							<wipeaccuracy>100</wipeaccuracy>
							<startratio>0</startratio>
							<endratio>1</endratio>
							<reverse>FALSE</reverse>
						</effect>
					</transitionitem>
					<clipitem id="clipitem-674" premiereChannelType="stereo">
						<masterclipid>masterclip-97</masterclipid>
						<name>K1Pro-Brooke_20180508.WAV</name>
						<enabled>TRUE</enabled>
						<duration>129341</duration>
						<rate>
							<timebase>60</timebase>
							<ntsc>FALSE</ntsc>
						</rate>
						<start>37039</start>
						<end>38083</end>
						<in>87383</in>
						<out>88427</out>
						<pproTicksIn>369944668800000</pproTicksIn>
						<pproTicksOut>374364547200000</pproTicksOut>
						<file id="file-97"/>
						<sourcetrack>
							<mediatype>audio</mediatype>
							<trackindex>2</trackindex>
						</sourcetrack>
						<filter>
							<effect>
								<name>Audio Levels</name>
								<effectid>audiolevels</effectid>
								<effectcategory>audiolevels</effectcategory>
								<effecttype>audiolevels</effecttype>
								<mediatype>audio</mediatype>
								<pproBypass>false</pproBypass>
								<parameter authoringApp="PremierePro">
									<parameterid>level</parameterid>
									<name>Level</name>
									<valuemin>0</valuemin>
									<valuemax>3.98109</valuemax>
									<value>0</value>
									<keyframe>
										<when>87383</when>
										<value>0</value>
									</keyframe>
									<keyframe>
										<when>87405</when>
										<value>1</value>
									</keyframe>
									<keyframe>
										<when>88380</when>
										<value>1</value>
									</keyframe>
									<keyframe>
										<when>88418</when>
										<value>0</value>
									</keyframe>
								</parameter>
							</effect>
						</filter>
							<marker>
								<comment></comment>
								<name></name>
								<in>69901</in>
								<out>-1</out>
							</marker>
							<marker>
								<comment></comment>
								<name></name>
								<in>88491</in>
								<out>-1</out>
							</marker>
							<marker>
								<comment></comment>
								<name></name>
								<in>28153</in>
								<out>-1</out>
							</marker>
							<marker>
								<comment></comment>
								<name></name>
								<in>33835</in>
								<out>-1</out>
							</marker>
						<link>
							<linkclipref>clipitem-660</linkclipref>
							<mediatype>audio</mediatype>
							<trackindex>13</trackindex>
							<clipindex>21</clipindex>
							<groupindex>1</groupindex>
						</link>
						<link>
							<linkclipref>clipitem-674</linkclipref>
							<mediatype>audio</mediatype>
							<trackindex>14</trackindex>
							<clipindex>21</clipindex>
							<groupindex>1</groupindex>
						</link>
						<logginginfo>
							<description></description>
							<scene></scene>
							<shottake></shottake>
							<lognote></lognote>
							<good></good>
							<originalvideofilename></originalvideofilename>
							<originalaudiofilename></originalaudiofilename>
						</logginginfo>
						<colorinfo>
							<lut></lut>
							<lut1></lut1>
							<asc_sop></asc_sop>
							<asc_sat></asc_sat>
							<lut2></lut2>
						</colorinfo>
						<labels>
							<label2>Rose</label2>
						</labels>
					</clipitem>
					<enabled>TRUE</enabled>
					<locked>FALSE</locked>
					<outputchannelindex>2</outputchannelindex>
				</track>
				<track TL.SQTrackAudioKeyframeStyle="0" TL.SQTrackShy="0" TL.SQTrackExpandedHeight="15" TL.SQTrackExpanded="0" MZ.TrackTargeted="1" PannerCurrentValue="0.5" PannerIsInverted="true" PannerStartKeyframe="-91445760000000000,0.5,0,0,0,0,0,0" PannerName="Balance" currentExplodedTrackIndex="0" totalExplodedTrackCount="2" premiereTrackType="SixteenChannel">
					<transitionitem>
						<start>1771</start>
						<end>1773</end>
						<alignment>start-black</alignment>
						<cutPointTicks>0</cutPointTicks>
						<rate>
							<timebase>60</timebase>
							<ntsc>FALSE</ntsc>
						</rate>
						<effect>
							<name>Cross Fade (+3dB)</name>
							<effectid>KGAudioTransCrossFade3dB</effectid>
							<effecttype>transition</effecttype>
							<mediatype>audio</mediatype>
							<wipecode>0</wipecode>
							<wipeaccuracy>100</wipeaccuracy>
							<startratio>0</startratio>
							<endratio>1</endratio>
							<reverse>FALSE</reverse>
						</effect>
					</transitionitem>
					<clipitem id="clipitem-675" premiereChannelType="stereo">
						<masterclipid>masterclip-96</masterclipid>
						<name>Kate_ZOOM0001.WAV</name>
						<enabled>TRUE</enabled>
						<duration>81662</duration>
						<rate>
							<timebase>60</timebase>
							<ntsc>FALSE</ntsc>
						</rate>
						<start>-1</start>
						<end>-1</end>
						<in>57727</in>
						<out>58262</out>
						<pproTicksIn>244393027200000</pproTicksIn>
						<pproTicksOut>246658003200000</pproTicksOut>
						<file id="file-96"/>
						<sourcetrack>
							<mediatype>audio</mediatype>
							<trackindex>1</trackindex>
						</sourcetrack>
						<filter>
							<effect>
								<name>Audio Levels</name>
								<effectid>audiolevels</effectid>
								<effectcategory>audiolevels</effectcategory>
								<effecttype>audiolevels</effecttype>
								<mediatype>audio</mediatype>
								<pproBypass>false</pproBypass>
								<parameter authoringApp="PremierePro">
									<parameterid>level</parameterid>
									<name>Level</name>
									<valuemin>0</valuemin>
									<valuemax>3.98109</valuemax>
									<value>0</value>
									<keyframe>
										<when>57727</when>
										<value>0</value>
									</keyframe>
									<keyframe>
										<when>57801</when>
										<value>2</value>
									</keyframe>
									<keyframe>
										<when>57881</when>
										<value>2</value>
									</keyframe>
									<keyframe>
										<when>57906</when>
										<value>1</value>
									</keyframe>
									<keyframe>
										<when>58223</when>
										<value>1</value>
									</keyframe>
									<keyframe>
										<when>58262</when>
										<value>0</value>
									</keyframe>
								</parameter>
							</effect>
						</filter>
							<marker>
								<comment></comment>
								<name></name>
								<in>8498</in>
								<out>-1</out>
							</marker>
						<link>
							<linkclipref>clipitem-675</linkclipref>
							<mediatype>audio</mediatype>
							<trackindex>15</trackindex>
							<clipindex>2</clipindex>
							<groupindex>1</groupindex>
						</link>
						<link>
							<linkclipref>clipitem-779</linkclipref>
							<mediatype>audio</mediatype>
							<trackindex>16</trackindex>
							<clipindex>2</clipindex>
							<groupindex>1</groupindex>
						</link>
						<logginginfo>
							<description></description>
							<scene></scene>
							<shottake></shottake>
							<lognote></lognote>
							<good></good>
							<originalvideofilename></originalvideofilename>
							<originalaudiofilename></originalaudiofilename>
						</logginginfo>
						<colorinfo>
							<lut></lut>
							<lut1></lut1>
							<asc_sop></asc_sop>
							<asc_sat></asc_sat>
							<lut2></lut2>
						</colorinfo>
						<labels>
							<label2>Blue</label2>
						</labels>
					</clipitem>
					<transitionitem>
						<start>2304</start>
						<end>2306</end>
						<alignment>end-black</alignment>
						<cutPointTicks>8467200000</cutPointTicks>
						<rate>
							<timebase>60</timebase>
							<ntsc>FALSE</ntsc>
						</rate>
						<effect>
							<name>Cross Fade (+3dB)</name>
							<effectid>KGAudioTransCrossFade3dB</effectid>
							<effecttype>transition</effecttype>
							<mediatype>audio</mediatype>
							<wipecode>0</wipecode>
							<wipeaccuracy>100</wipeaccuracy>
							<startratio>0</startratio>
							<endratio>1</endratio>
							<reverse>FALSE</reverse>
						</effect>
					</transitionitem>
					<transitionitem>
						<start>3108</start>
						<end>3110</end>
						<alignment>start-black</alignment>
						<cutPointTicks>0</cutPointTicks>
						<rate>
							<timebase>60</timebase>
							<ntsc>FALSE</ntsc>
						</rate>
						<effect>
							<name>Cross Fade (+3dB)</name>
							<effectid>KGAudioTransCrossFade3dB</effectid>
							<effecttype>transition</effecttype>
							<mediatype>audio</mediatype>
							<wipecode>0</wipecode>
							<wipeaccuracy>100</wipeaccuracy>
							<startratio>0</startratio>
							<endratio>1</endratio>
							<reverse>FALSE</reverse>
						</effect>
					</transitionitem>
					<clipitem id="clipitem-676" premiereChannelType="stereo">
						<masterclipid>masterclip-96</masterclipid>
						<name>Kate_ZOOM0001.WAV</name>
						<enabled>TRUE</enabled>
						<duration>81662</duration>
						<rate>
							<timebase>60</timebase>
							<ntsc>FALSE</ntsc>
						</rate>
						<start>-1</start>
						<end>-1</end>
						<in>59342</in>
						<out>59418</out>
						<pproTicksIn>251230291200000</pproTicksIn>
						<pproTicksOut>251552044800000</pproTicksOut>
						<file id="file-96"/>
						<sourcetrack>
							<mediatype>audio</mediatype>
							<trackindex>1</trackindex>
						</sourcetrack>
						<filter>
							<effect>
								<name>Audio Levels</name>
								<effectid>audiolevels</effectid>
								<effectcategory>audiolevels</effectcategory>
								<effecttype>audiolevels</effecttype>
								<mediatype>audio</mediatype>
								<pproBypass>false</pproBypass>
								<parameter authoringApp="PremierePro">
									<parameterid>level</parameterid>
									<name>Level</name>
									<valuemin>0</valuemin>
									<valuemax>3.98109</valuemax>
									<value>0</value>
									<keyframe>
										<when>57727</when>
										<value>0</value>
									</keyframe>
									<keyframe>
										<when>57801</when>
										<value>1</value>
									</keyframe>
									<keyframe>
										<when>59028</when>
										<value>0</value>
									</keyframe>
									<keyframe>
										<when>59074</when>
										<value>1</value>
									</keyframe>
								</parameter>
							</effect>
						</filter>
							<marker>
								<comment></comment>
								<name></name>
								<in>8498</in>
								<out>-1</out>
							</marker>
						<link>
							<linkclipref>clipitem-676</linkclipref>
							<mediatype>audio</mediatype>
							<trackindex>15</trackindex>
							<clipindex>5</clipindex>
							<groupindex>1</groupindex>
						</link>
						<link>
							<linkclipref>clipitem-780</linkclipref>
							<mediatype>audio</mediatype>
							<trackindex>16</trackindex>
							<clipindex>5</clipindex>
							<groupindex>1</groupindex>
						</link>
						<logginginfo>
							<description></description>
							<scene></scene>
							<shottake></shottake>
							<lognote></lognote>
							<good></good>
							<originalvideofilename></originalvideofilename>
							<originalaudiofilename></originalaudiofilename>
						</logginginfo>
						<colorinfo>
							<lut></lut>
							<lut1></lut1>
							<asc_sop></asc_sop>
							<asc_sat></asc_sat>
							<lut2></lut2>
						</colorinfo>
						<labels>
							<label2>Blue</label2>
						</labels>
					</clipitem>
					<transitionitem>
						<start>3182</start>
						<end>3184</end>
						<alignment>center</alignment>
						<cutPointTicks>4233600000</cutPointTicks>
						<rate>
							<timebase>60</timebase>
							<ntsc>FALSE</ntsc>
						</rate>
						<effect>
							<name>Cross Fade (+3dB)</name>
							<effectid>KGAudioTransCrossFade3dB</effectid>
							<effecttype>transition</effecttype>
							<mediatype>audio</mediatype>
							<wipecode>0</wipecode>
							<wipeaccuracy>100</wipeaccuracy>
							<startratio>0</startratio>
							<endratio>1</endratio>
							<reverse>FALSE</reverse>
						</effect>
					</transitionitem>
					<clipitem id="clipitem-677" premiereChannelType="stereo">
						<masterclipid>masterclip-96</masterclipid>
						<name>Kate_ZOOM0001.WAV</name>
						<enabled>TRUE</enabled>
						<duration>81662</duration>
						<rate>
							<timebase>60</timebase>
							<ntsc>FALSE</ntsc>
						</rate>
						<start>-1</start>
						<end>-1</end>
						<in>59525</in>
						<out>59696</out>
						<pproTicksIn>252005040000000</pproTicksIn>
						<pproTicksOut>252728985600000</pproTicksOut>
						<file id="file-96"/>
						<sourcetrack>
							<mediatype>audio</mediatype>
							<trackindex>1</trackindex>
						</sourcetrack>
						<filter>
							<effect>
								<name>Audio Levels</name>
								<effectid>audiolevels</effectid>
								<effectcategory>audiolevels</effectcategory>
								<effecttype>audiolevels</effecttype>
								<mediatype>audio</mediatype>
								<pproBypass>false</pproBypass>
								<parameter authoringApp="PremierePro">
									<parameterid>level</parameterid>
									<name>Level</name>
									<valuemin>0</valuemin>
									<valuemax>3.98109</valuemax>
									<value>0</value>
									<keyframe>
										<when>57727</when>
										<value>0</value>
									</keyframe>
									<keyframe>
										<when>57801</when>
										<value>1</value>
									</keyframe>
									<keyframe>
										<when>59028</when>
										<value>0</value>
									</keyframe>
									<keyframe>
										<when>59074</when>
										<value>1</value>
									</keyframe>
								</parameter>
							</effect>
						</filter>
							<marker>
								<comment></comment>
								<name></name>
								<in>8498</in>
								<out>-1</out>
							</marker>
						<link>
							<linkclipref>clipitem-677</linkclipref>
							<mediatype>audio</mediatype>
							<trackindex>15</trackindex>
							<clipindex>7</clipindex>
							<groupindex>1</groupindex>
						</link>
						<link>
							<linkclipref>clipitem-781</linkclipref>
							<mediatype>audio</mediatype>
							<trackindex>16</trackindex>
							<clipindex>7</clipindex>
							<groupindex>1</groupindex>
						</link>
						<logginginfo>
							<description></description>
							<scene></scene>
							<shottake></shottake>
							<lognote></lognote>
							<good></good>
							<originalvideofilename></originalvideofilename>
							<originalaudiofilename></originalaudiofilename>
						</logginginfo>
						<colorinfo>
							<lut></lut>
							<lut1></lut1>
							<asc_sop></asc_sop>
							<asc_sat></asc_sat>
							<lut2></lut2>
						</colorinfo>
						<labels>
							<label2>Blue</label2>
						</labels>
					</clipitem>
					<transitionitem>
						<start>3351</start>
						<end>3353</end>
						<alignment>center</alignment>
						<cutPointTicks>4233600000</cutPointTicks>
						<rate>
							<timebase>60</timebase>
							<ntsc>FALSE</ntsc>
						</rate>
						<effect>
							<name>Cross Fade (+3dB)</name>
							<effectid>KGAudioTransCrossFade3dB</effectid>
							<effecttype>transition</effecttype>
							<mediatype>audio</mediatype>
							<wipecode>0</wipecode>
							<wipeaccuracy>100</wipeaccuracy>
							<startratio>0</startratio>
							<endratio>1</endratio>
							<reverse>FALSE</reverse>
						</effect>
					</transitionitem>
					<clipitem id="clipitem-678" premiereChannelType="stereo">
						<masterclipid>masterclip-96</masterclipid>
						<name>Kate_ZOOM0001.WAV</name>
						<enabled>TRUE</enabled>
						<duration>81662</duration>
						<rate>
							<timebase>60</timebase>
							<ntsc>FALSE</ntsc>
						</rate>
						<start>-1</start>
						<end>-1</end>
						<in>59694</in>
						<out>59877</out>
						<pproTicksIn>252720518400000</pproTicksIn>
						<pproTicksOut>253495267200000</pproTicksOut>
						<file id="file-96"/>
						<sourcetrack>
							<mediatype>audio</mediatype>
							<trackindex>1</trackindex>
						</sourcetrack>
						<filter>
							<effect>
								<name>Audio Levels</name>
								<effectid>audiolevels</effectid>
								<effectcategory>audiolevels</effectcategory>
								<effecttype>audiolevels</effecttype>
								<mediatype>audio</mediatype>
								<pproBypass>false</pproBypass>
								<parameter authoringApp="PremierePro">
									<parameterid>level</parameterid>
									<name>Level</name>
									<valuemin>0</valuemin>
									<valuemax>3.98109</valuemax>
									<value>1</value>
									<keyframe>
										<when>59847</when>
										<value>1</value>
									</keyframe>
									<keyframe>
										<when>59877</when>
										<value>0</value>
									</keyframe>
									<keyframe>
										<when>60156</when>
										<value>1</value>
									</keyframe>
									<keyframe>
										<when>60166</when>
										<value>0</value>
									</keyframe>
									<keyframe>
										<when>60218</when>
										<value>0</value>
									</keyframe>
									<keyframe>
										<when>60326</when>
										<value>1</value>
									</keyframe>
									<keyframe>
										<when>60346</when>
										<value>0</value>
									</keyframe>
									<keyframe>
										<when>60496</when>
										<value>0</value>
									</keyframe>
									<keyframe>
										<when>60507</when>
										<value>1</value>
									</keyframe>
									<keyframe>
										<when>61317</when>
										<value>1</value>
									</keyframe>
									<keyframe>
										<when>61334</when>
										<value>0</value>
									</keyframe>
									<keyframe>
										<when>61553</when>
										<value>0</value>
									</keyframe>
									<keyframe>
										<when>61572</when>
										<value>1</value>
									</keyframe>
									<keyframe>
										<when>61671</when>
										<value>1</value>
									</keyframe>
									<keyframe>
										<when>61687</when>
										<value>0</value>
									</keyframe>
									<keyframe>
										<when>62203</when>
										<value>0</value>
									</keyframe>
									<keyframe>
										<when>62220</when>
										<value>1</value>
									</keyframe>
									<keyframe>
										<when>62512</when>
										<value>1</value>
									</keyframe>
									<keyframe>
										<when>62536</when>
										<value>0</value>
									</keyframe>
									<keyframe>
										<when>62672</when>
										<value>0</value>
									</keyframe>
									<keyframe>
										<when>62697</when>
										<value>1</value>
									</keyframe>
									<keyframe>
										<when>63001</when>
										<value>1</value>
									</keyframe>
									<keyframe>
										<when>63061</when>
										<value>0</value>
									</keyframe>
								</parameter>
							</effect>
						</filter>
							<marker>
								<comment></comment>
								<name></name>
								<in>8498</in>
								<out>-1</out>
							</marker>
						<link>
							<linkclipref>clipitem-678</linkclipref>
							<mediatype>audio</mediatype>
							<trackindex>15</trackindex>
							<clipindex>9</clipindex>
							<groupindex>1</groupindex>
						</link>
						<link>
							<linkclipref>clipitem-782</linkclipref>
							<mediatype>audio</mediatype>
							<trackindex>16</trackindex>
							<clipindex>9</clipindex>
							<groupindex>1</groupindex>
						</link>
						<logginginfo>
							<description></description>
							<scene></scene>
							<shottake></shottake>
							<lognote></lognote>
							<good></good>
							<originalvideofilename></originalvideofilename>
							<originalaudiofilename></originalaudiofilename>
						</logginginfo>
						<colorinfo>
							<lut></lut>
							<lut1></lut1>
							<asc_sop></asc_sop>
							<asc_sat></asc_sat>
							<lut2></lut2>
						</colorinfo>
						<labels>
							<label2>Blue</label2>
						</labels>
					</clipitem>
					<transitionitem>
						<start>3532</start>
						<end>3534</end>
						<alignment>end-black</alignment>
						<cutPointTicks>8467200000</cutPointTicks>
						<rate>
							<timebase>60</timebase>
							<ntsc>FALSE</ntsc>
						</rate>
						<effect>
							<name>Cross Fade (+3dB)</name>
							<effectid>KGAudioTransCrossFade3dB</effectid>
							<effecttype>transition</effecttype>
							<mediatype>audio</mediatype>
							<wipecode>0</wipecode>
							<wipeaccuracy>100</wipeaccuracy>
							<startratio>0</startratio>
							<endratio>1</endratio>
							<reverse>FALSE</reverse>
						</effect>
					</transitionitem>
					<transitionitem>
						<start>3823</start>
						<end>3825</end>
						<alignment>start-black</alignment>
						<cutPointTicks>0</cutPointTicks>
						<rate>
							<timebase>60</timebase>
							<ntsc>FALSE</ntsc>
						</rate>
						<effect>
							<name>Cross Fade (+3dB)</name>
							<effectid>KGAudioTransCrossFade3dB</effectid>
							<effecttype>transition</effecttype>
							<mediatype>audio</mediatype>
							<wipecode>0</wipecode>
							<wipeaccuracy>100</wipeaccuracy>
							<startratio>0</startratio>
							<endratio>1</endratio>
							<reverse>FALSE</reverse>
						</effect>
					</transitionitem>
					<clipitem id="clipitem-679" premiereChannelType="stereo">
						<masterclipid>masterclip-96</masterclipid>
						<name>Kate_ZOOM0001.WAV</name>
						<enabled>TRUE</enabled>
						<duration>81662</duration>
						<rate>
							<timebase>60</timebase>
							<ntsc>FALSE</ntsc>
						</rate>
						<start>-1</start>
						<end>-1</end>
						<in>59957</in>
						<out>60168</out>
						<pproTicksIn>253833955200000</pproTicksIn>
						<pproTicksOut>254727244800000</pproTicksOut>
						<file id="file-96"/>
						<sourcetrack>
							<mediatype>audio</mediatype>
							<trackindex>1</trackindex>
						</sourcetrack>
						<filter>
							<effect>
								<name>Audio Levels</name>
								<effectid>audiolevels</effectid>
								<effectcategory>audiolevels</effectcategory>
								<effecttype>audiolevels</effecttype>
								<mediatype>audio</mediatype>
								<pproBypass>false</pproBypass>
								<parameter authoringApp="PremierePro">
									<parameterid>level</parameterid>
									<name>Level</name>
									<valuemin>0</valuemin>
									<valuemax>3.98109</valuemax>
									<value>0</value>
									<keyframe>
										<when>59957</when>
										<value>0</value>
									</keyframe>
									<keyframe>
										<when>59962</when>
										<value>1</value>
									</keyframe>
									<keyframe>
										<when>60156</when>
										<value>1</value>
									</keyframe>
									<keyframe>
										<when>60166</when>
										<value>0</value>
									</keyframe>
									<keyframe>
										<when>60218</when>
										<value>0</value>
									</keyframe>
									<keyframe>
										<when>60326</when>
										<value>1</value>
									</keyframe>
									<keyframe>
										<when>60346</when>
										<value>0</value>
									</keyframe>
									<keyframe>
										<when>60496</when>
										<value>0</value>
									</keyframe>
									<keyframe>
										<when>60507</when>
										<value>1</value>
									</keyframe>
									<keyframe>
										<when>61317</when>
										<value>1</value>
									</keyframe>
									<keyframe>
										<when>61334</when>
										<value>0</value>
									</keyframe>
									<keyframe>
										<when>61553</when>
										<value>0</value>
									</keyframe>
									<keyframe>
										<when>61572</when>
										<value>1</value>
									</keyframe>
									<keyframe>
										<when>61671</when>
										<value>1</value>
									</keyframe>
									<keyframe>
										<when>61687</when>
										<value>0</value>
									</keyframe>
									<keyframe>
										<when>62203</when>
										<value>0</value>
									</keyframe>
									<keyframe>
										<when>62220</when>
										<value>1</value>
									</keyframe>
									<keyframe>
										<when>62512</when>
										<value>1</value>
									</keyframe>
									<keyframe>
										<when>62536</when>
										<value>0</value>
									</keyframe>
									<keyframe>
										<when>62672</when>
										<value>0</value>
									</keyframe>
									<keyframe>
										<when>62697</when>
										<value>1</value>
									</keyframe>
									<keyframe>
										<when>63001</when>
										<value>1</value>
									</keyframe>
									<keyframe>
										<when>63061</when>
										<value>0</value>
									</keyframe>
								</parameter>
							</effect>
						</filter>
							<marker>
								<comment></comment>
								<name></name>
								<in>8498</in>
								<out>-1</out>
							</marker>
						<link>
							<linkclipref>clipitem-679</linkclipref>
							<mediatype>audio</mediatype>
							<trackindex>15</trackindex>
							<clipindex>12</clipindex>
							<groupindex>1</groupindex>
						</link>
						<link>
							<linkclipref>clipitem-783</linkclipref>
							<mediatype>audio</mediatype>
							<trackindex>16</trackindex>
							<clipindex>12</clipindex>
							<groupindex>1</groupindex>
						</link>
						<logginginfo>
							<description></description>
							<scene></scene>
							<shottake></shottake>
							<lognote></lognote>
							<good></good>
							<originalvideofilename></originalvideofilename>
							<originalaudiofilename></originalaudiofilename>
						</logginginfo>
						<colorinfo>
							<lut></lut>
							<lut1></lut1>
							<asc_sop></asc_sop>
							<asc_sat></asc_sat>
							<lut2></lut2>
						</colorinfo>
						<labels>
							<label2>Blue</label2>
						</labels>
					</clipitem>
					<transitionitem>
						<start>4032</start>
						<end>4034</end>
						<alignment>end-black</alignment>
						<cutPointTicks>8467200000</cutPointTicks>
						<rate>
							<timebase>60</timebase>
							<ntsc>FALSE</ntsc>
						</rate>
						<effect>
							<name>Cross Fade (+3dB)</name>
							<effectid>KGAudioTransCrossFade3dB</effectid>
							<effecttype>transition</effecttype>
							<mediatype>audio</mediatype>
							<wipecode>0</wipecode>
							<wipeaccuracy>100</wipeaccuracy>
							<startratio>0</startratio>
							<endratio>1</endratio>
							<reverse>FALSE</reverse>
						</effect>
					</transitionitem>
					<clipitem id="clipitem-680" premiereChannelType="stereo">
						<masterclipid>masterclip-96</masterclipid>
						<name>Kate_ZOOM0001.WAV</name>
						<enabled>TRUE</enabled>
						<duration>81662</duration>
						<rate>
							<timebase>60</timebase>
							<ntsc>FALSE</ntsc>
						</rate>
						<start>4535</start>
						<end>5399</end>
						<in>60491</in>
						<out>61355</out>
						<pproTicksIn>256094697600000</pproTicksIn>
						<pproTicksOut>259752528000000</pproTicksOut>
						<file id="file-96"/>
						<sourcetrack>
							<mediatype>audio</mediatype>
							<trackindex>1</trackindex>
						</sourcetrack>
						<filter>
							<effect>
								<name>Audio Levels</name>
								<effectid>audiolevels</effectid>
								<effectcategory>audiolevels</effectcategory>
								<effecttype>audiolevels</effecttype>
								<mediatype>audio</mediatype>
								<pproBypass>false</pproBypass>
								<parameter authoringApp="PremierePro">
									<parameterid>level</parameterid>
									<name>Level</name>
									<valuemin>0</valuemin>
									<valuemax>3.98109</valuemax>
									<value>1</value>
									<keyframe>
										<when>60326</when>
										<value>1</value>
									</keyframe>
									<keyframe>
										<when>60346</when>
										<value>0</value>
									</keyframe>
									<keyframe>
										<when>60496</when>
										<value>0</value>
									</keyframe>
									<keyframe>
										<when>60507</when>
										<value>1</value>
									</keyframe>
									<keyframe>
										<when>61317</when>
										<value>1</value>
									</keyframe>
									<keyframe>
										<when>61334</when>
										<value>0</value>
									</keyframe>
									<keyframe>
										<when>61553</when>
										<value>0</value>
									</keyframe>
									<keyframe>
										<when>61572</when>
										<value>1</value>
									</keyframe>
									<keyframe>
										<when>61671</when>
										<value>1</value>
									</keyframe>
									<keyframe>
										<when>61687</when>
										<value>0</value>
									</keyframe>
									<keyframe>
										<when>62203</when>
										<value>0</value>
									</keyframe>
									<keyframe>
										<when>62220</when>
										<value>1</value>
									</keyframe>
									<keyframe>
										<when>62512</when>
										<value>1</value>
									</keyframe>
									<keyframe>
										<when>62536</when>
										<value>0</value>
									</keyframe>
									<keyframe>
										<when>62672</when>
										<value>0</value>
									</keyframe>
									<keyframe>
										<when>62697</when>
										<value>1</value>
									</keyframe>
									<keyframe>
										<when>63001</when>
										<value>1</value>
									</keyframe>
									<keyframe>
										<when>63061</when>
										<value>0</value>
									</keyframe>
								</parameter>
							</effect>
						</filter>
							<marker>
								<comment></comment>
								<name></name>
								<in>8498</in>
								<out>-1</out>
							</marker>
						<link>
							<linkclipref>clipitem-680</linkclipref>
							<mediatype>audio</mediatype>
							<trackindex>15</trackindex>
							<clipindex>14</clipindex>
							<groupindex>1</groupindex>
						</link>
						<link>
							<linkclipref>clipitem-784</linkclipref>
							<mediatype>audio</mediatype>
							<trackindex>16</trackindex>
							<clipindex>14</clipindex>
							<groupindex>1</groupindex>
						</link>
						<logginginfo>
							<description></description>
							<scene></scene>
							<shottake></shottake>
							<lognote></lognote>
							<good></good>
							<originalvideofilename></originalvideofilename>
							<originalaudiofilename></originalaudiofilename>
						</logginginfo>
						<colorinfo>
							<lut></lut>
							<lut1></lut1>
							<asc_sop></asc_sop>
							<asc_sat></asc_sat>
							<lut2></lut2>
						</colorinfo>
						<labels>
							<label2>Blue</label2>
						</labels>
					</clipitem>
					<clipitem id="clipitem-681" premiereChannelType="stereo">
						<masterclipid>masterclip-96</masterclipid>
						<name>Kate_ZOOM0001.WAV</name>
						<enabled>TRUE</enabled>
						<duration>81662</duration>
						<rate>
							<timebase>60</timebase>
							<ntsc>FALSE</ntsc>
						</rate>
						<start>5577</start>
						<end>5774</end>
						<in>61533</in>
						<out>61730</out>
						<pproTicksIn>260506108800000</pproTicksIn>
						<pproTicksOut>261340128000000</pproTicksOut>
						<file id="file-96"/>
						<sourcetrack>
							<mediatype>audio</mediatype>
							<trackindex>1</trackindex>
						</sourcetrack>
						<filter>
							<effect>
								<name>Audio Levels</name>
								<effectid>audiolevels</effectid>
								<effectcategory>audiolevels</effectcategory>
								<effecttype>audiolevels</effecttype>
								<mediatype>audio</mediatype>
								<pproBypass>false</pproBypass>
								<parameter authoringApp="PremierePro">
									<parameterid>level</parameterid>
									<name>Level</name>
									<valuemin>0</valuemin>
									<valuemax>3.98109</valuemax>
									<value>1</value>
									<keyframe>
										<when>60326</when>
										<value>1</value>
									</keyframe>
									<keyframe>
										<when>60346</when>
										<value>0</value>
									</keyframe>
									<keyframe>
										<when>60496</when>
										<value>0</value>
									</keyframe>
									<keyframe>
										<when>60507</when>
										<value>1</value>
									</keyframe>
									<keyframe>
										<when>61317</when>
										<value>1</value>
									</keyframe>
									<keyframe>
										<when>61334</when>
										<value>0</value>
									</keyframe>
									<keyframe>
										<when>61553</when>
										<value>0</value>
									</keyframe>
									<keyframe>
										<when>61572</when>
										<value>1</value>
									</keyframe>
									<keyframe>
										<when>61671</when>
										<value>1</value>
									</keyframe>
									<keyframe>
										<when>61687</when>
										<value>0</value>
									</keyframe>
									<keyframe>
										<when>62203</when>
										<value>0</value>
									</keyframe>
									<keyframe>
										<when>62220</when>
										<value>1</value>
									</keyframe>
									<keyframe>
										<when>62512</when>
										<value>1</value>
									</keyframe>
									<keyframe>
										<when>62536</when>
										<value>0</value>
									</keyframe>
									<keyframe>
										<when>62672</when>
										<value>0</value>
									</keyframe>
									<keyframe>
										<when>62697</when>
										<value>1</value>
									</keyframe>
									<keyframe>
										<when>63001</when>
										<value>1</value>
									</keyframe>
									<keyframe>
										<when>63061</when>
										<value>0</value>
									</keyframe>
								</parameter>
							</effect>
						</filter>
							<marker>
								<comment></comment>
								<name></name>
								<in>8498</in>
								<out>-1</out>
							</marker>
						<link>
							<linkclipref>clipitem-681</linkclipref>
							<mediatype>audio</mediatype>
							<trackindex>15</trackindex>
							<clipindex>15</clipindex>
							<groupindex>1</groupindex>
						</link>
						<link>
							<linkclipref>clipitem-785</linkclipref>
							<mediatype>audio</mediatype>
							<trackindex>16</trackindex>
							<clipindex>15</clipindex>
							<groupindex>1</groupindex>
						</link>
						<logginginfo>
							<description></description>
							<scene></scene>
							<shottake></shottake>
							<lognote></lognote>
							<good></good>
							<originalvideofilename></originalvideofilename>
							<originalaudiofilename></originalaudiofilename>
						</logginginfo>
						<colorinfo>
							<lut></lut>
							<lut1></lut1>
							<asc_sop></asc_sop>
							<asc_sat></asc_sat>
							<lut2></lut2>
						</colorinfo>
						<labels>
							<label2>Blue</label2>
						</labels>
					</clipitem>
					<transitionitem>
						<start>5849</start>
						<end>5851</end>
						<alignment>start-black</alignment>
						<cutPointTicks>0</cutPointTicks>
						<rate>
							<timebase>60</timebase>
							<ntsc>FALSE</ntsc>
						</rate>
						<effect>
							<name>Cross Fade (+3dB)</name>
							<effectid>KGAudioTransCrossFade3dB</effectid>
							<effecttype>transition</effecttype>
							<mediatype>audio</mediatype>
							<wipecode>0</wipecode>
							<wipeaccuracy>100</wipeaccuracy>
							<startratio>0</startratio>
							<endratio>1</endratio>
							<reverse>FALSE</reverse>
						</effect>
					</transitionitem>
					<clipitem id="clipitem-682" premiereChannelType="stereo">
						<masterclipid>masterclip-96</masterclipid>
						<name>Kate_ZOOM0001.WAV</name>
						<enabled>TRUE</enabled>
						<duration>81662</duration>
						<rate>
							<timebase>60</timebase>
							<ntsc>FALSE</ntsc>
						</rate>
						<start>-1</start>
						<end>-1</end>
						<in>62192</in>
						<out>62513</out>
						<pproTicksIn>263296051200000</pproTicksIn>
						<pproTicksOut>264655036800000</pproTicksOut>
						<file id="file-96"/>
						<sourcetrack>
							<mediatype>audio</mediatype>
							<trackindex>1</trackindex>
						</sourcetrack>
						<filter>
							<effect>
								<name>Audio Levels</name>
								<effectid>audiolevels</effectid>
								<effectcategory>audiolevels</effectcategory>
								<effecttype>audiolevels</effecttype>
								<mediatype>audio</mediatype>
								<pproBypass>false</pproBypass>
								<parameter authoringApp="PremierePro">
									<parameterid>level</parameterid>
									<name>Level</name>
									<valuemin>0</valuemin>
									<valuemax>3.98109</valuemax>
									<value>1</value>
									<keyframe>
										<when>60326</when>
										<value>1</value>
									</keyframe>
									<keyframe>
										<when>60346</when>
										<value>0</value>
									</keyframe>
									<keyframe>
										<when>60496</when>
										<value>0</value>
									</keyframe>
									<keyframe>
										<when>60507</when>
										<value>1</value>
									</keyframe>
									<keyframe>
										<when>61317</when>
										<value>1</value>
									</keyframe>
									<keyframe>
										<when>61334</when>
										<value>0</value>
									</keyframe>
									<keyframe>
										<when>61553</when>
										<value>0</value>
									</keyframe>
									<keyframe>
										<when>61572</when>
										<value>1</value>
									</keyframe>
									<keyframe>
										<when>61671</when>
										<value>1</value>
									</keyframe>
									<keyframe>
										<when>61687</when>
										<value>0</value>
									</keyframe>
									<keyframe>
										<when>62203</when>
										<value>0</value>
									</keyframe>
									<keyframe>
										<when>62220</when>
										<value>1</value>
									</keyframe>
									<keyframe>
										<when>62501</when>
										<value>1</value>
									</keyframe>
									<keyframe>
										<when>62513</when>
										<value>0</value>
									</keyframe>
									<keyframe>
										<when>62536</when>
										<value>0</value>
									</keyframe>
									<keyframe>
										<when>62672</when>
										<value>0</value>
									</keyframe>
									<keyframe>
										<when>62697</when>
										<value>1</value>
									</keyframe>
									<keyframe>
										<when>63001</when>
										<value>1</value>
									</keyframe>
									<keyframe>
										<when>63061</when>
										<value>0</value>
									</keyframe>
								</parameter>
							</effect>
						</filter>
							<marker>
								<comment></comment>
								<name></name>
								<in>8498</in>
								<out>-1</out>
							</marker>
						<link>
							<linkclipref>clipitem-682</linkclipref>
							<mediatype>audio</mediatype>
							<trackindex>15</trackindex>
							<clipindex>17</clipindex>
							<groupindex>1</groupindex>
						</link>
						<link>
							<linkclipref>clipitem-786</linkclipref>
							<mediatype>audio</mediatype>
							<trackindex>16</trackindex>
							<clipindex>17</clipindex>
							<groupindex>1</groupindex>
						</link>
						<logginginfo>
							<description></description>
							<scene></scene>
							<shottake></shottake>
							<lognote></lognote>
							<good></good>
							<originalvideofilename></originalvideofilename>
							<originalaudiofilename></originalaudiofilename>
						</logginginfo>
						<colorinfo>
							<lut></lut>
							<lut1></lut1>
							<asc_sop></asc_sop>
							<asc_sat></asc_sat>
							<lut2></lut2>
						</colorinfo>
						<labels>
							<label2>Blue</label2>
						</labels>
					</clipitem>
					<transitionitem>
						<start>6168</start>
						<end>6170</end>
						<alignment>end-black</alignment>
						<cutPointTicks>8467200000</cutPointTicks>
						<rate>
							<timebase>60</timebase>
							<ntsc>FALSE</ntsc>
						</rate>
						<effect>
							<name>Cross Fade (+3dB)</name>
							<effectid>KGAudioTransCrossFade3dB</effectid>
							<effecttype>transition</effecttype>
							<mediatype>audio</mediatype>
							<wipecode>0</wipecode>
							<wipeaccuracy>100</wipeaccuracy>
							<startratio>0</startratio>
							<endratio>1</endratio>
							<reverse>FALSE</reverse>
						</effect>
					</transitionitem>
					<clipitem id="clipitem-683" premiereChannelType="stereo">
						<masterclipid>masterclip-96</masterclipid>
						<name>Kate_ZOOM0001.WAV</name>
						<enabled>TRUE</enabled>
						<duration>81662</duration>
						<rate>
							<timebase>60</timebase>
							<ntsc>FALSE</ntsc>
						</rate>
						<start>6189</start>
						<end>6537</end>
						<in>62683</in>
						<out>63031</out>
						<pproTicksIn>265374748800000</pproTicksIn>
						<pproTicksOut>266848041600000</pproTicksOut>
						<file id="file-96"/>
						<sourcetrack>
							<mediatype>audio</mediatype>
							<trackindex>1</trackindex>
						</sourcetrack>
						<filter>
							<effect>
								<name>Audio Levels</name>
								<effectid>audiolevels</effectid>
								<effectcategory>audiolevels</effectcategory>
								<effecttype>audiolevels</effecttype>
								<mediatype>audio</mediatype>
								<pproBypass>false</pproBypass>
								<parameter authoringApp="PremierePro">
									<parameterid>level</parameterid>
									<name>Level</name>
									<valuemin>0</valuemin>
									<valuemax>3.98109</valuemax>
									<value>1</value>
									<keyframe>
										<when>60326</when>
										<value>1</value>
									</keyframe>
									<keyframe>
										<when>60346</when>
										<value>0</value>
									</keyframe>
									<keyframe>
										<when>60496</when>
										<value>0</value>
									</keyframe>
									<keyframe>
										<when>60507</when>
										<value>1</value>
									</keyframe>
									<keyframe>
										<when>61317</when>
										<value>1</value>
									</keyframe>
									<keyframe>
										<when>61334</when>
										<value>0</value>
									</keyframe>
									<keyframe>
										<when>61553</when>
										<value>0</value>
									</keyframe>
									<keyframe>
										<when>61572</when>
										<value>1</value>
									</keyframe>
									<keyframe>
										<when>61671</when>
										<value>1</value>
									</keyframe>
									<keyframe>
										<when>61687</when>
										<value>0</value>
									</keyframe>
									<keyframe>
										<when>62203</when>
										<value>0</value>
									</keyframe>
									<keyframe>
										<when>62220</when>
										<value>1</value>
									</keyframe>
									<keyframe>
										<when>62512</when>
										<value>1</value>
									</keyframe>
									<keyframe>
										<when>62536</when>
										<value>0</value>
									</keyframe>
									<keyframe>
										<when>62672</when>
										<value>0</value>
									</keyframe>
									<keyframe>
										<when>62683</when>
										<value>0</value>
									</keyframe>
									<keyframe>
										<when>62708</when>
										<value>1</value>
									</keyframe>
									<keyframe>
										<when>63001</when>
										<value>1</value>
									</keyframe>
									<keyframe>
										<when>63024</when>
										<value>0</value>
									</keyframe>
									<keyframe>
										<when>63061</when>
										<value>0</value>
									</keyframe>
								</parameter>
							</effect>
						</filter>
							<marker>
								<comment></comment>
								<name></name>
								<in>8498</in>
								<out>-1</out>
							</marker>
						<link>
							<linkclipref>clipitem-683</linkclipref>
							<mediatype>audio</mediatype>
							<trackindex>15</trackindex>
							<clipindex>19</clipindex>
							<groupindex>1</groupindex>
						</link>
						<link>
							<linkclipref>clipitem-787</linkclipref>
							<mediatype>audio</mediatype>
							<trackindex>16</trackindex>
							<clipindex>19</clipindex>
							<groupindex>1</groupindex>
						</link>
						<logginginfo>
							<description></description>
							<scene></scene>
							<shottake></shottake>
							<lognote></lognote>
							<good></good>
							<originalvideofilename></originalvideofilename>
							<originalaudiofilename></originalaudiofilename>
						</logginginfo>
						<colorinfo>
							<lut></lut>
							<lut1></lut1>
							<asc_sop></asc_sop>
							<asc_sat></asc_sat>
							<lut2></lut2>
						</colorinfo>
						<labels>
							<label2>Blue</label2>
						</labels>
					</clipitem>
					<clipitem id="clipitem-684" premiereChannelType="stereo">
						<masterclipid>masterclip-96</masterclipid>
						<name>Kate_ZOOM0001.WAV</name>
						<enabled>TRUE</enabled>
						<duration>81662</duration>
						<rate>
							<timebase>60</timebase>
							<ntsc>FALSE</ntsc>
						</rate>
						<start>7201</start>
						<end>7536</end>
						<in>63343</in>
						<out>63678</out>
						<pproTicksIn>268168924800000</pproTicksIn>
						<pproTicksOut>269587180800000</pproTicksOut>
						<file id="file-96"/>
						<sourcetrack>
							<mediatype>audio</mediatype>
							<trackindex>1</trackindex>
						</sourcetrack>
						<filter>
							<effect>
								<name>Audio Levels</name>
								<effectid>audiolevels</effectid>
								<effectcategory>audiolevels</effectcategory>
								<effecttype>audiolevels</effecttype>
								<mediatype>audio</mediatype>
								<pproBypass>false</pproBypass>
								<parameter authoringApp="PremierePro">
									<parameterid>level</parameterid>
									<name>Level</name>
									<valuemin>0</valuemin>
									<valuemax>3.98109</valuemax>
									<value>1</value>
									<keyframe>
										<when>63190</when>
										<value>1</value>
									</keyframe>
									<keyframe>
										<when>63208</when>
										<value>0</value>
									</keyframe>
									<keyframe>
										<when>63349</when>
										<value>0</value>
									</keyframe>
									<keyframe>
										<when>63364</when>
										<value>1</value>
									</keyframe>
									<keyframe>
										<when>63624</when>
										<value>1</value>
									</keyframe>
									<keyframe>
										<when>63678</when>
										<value>0</value>
									</keyframe>
									<keyframe>
										<when>63878</when>
										<value>1</value>
									</keyframe>
									<keyframe>
										<when>63932</when>
										<value>0</value>
									</keyframe>
								</parameter>
							</effect>
						</filter>
							<marker>
								<comment></comment>
								<name></name>
								<in>8498</in>
								<out>-1</out>
							</marker>
						<link>
							<linkclipref>clipitem-684</linkclipref>
							<mediatype>audio</mediatype>
							<trackindex>15</trackindex>
							<clipindex>20</clipindex>
							<groupindex>1</groupindex>
						</link>
						<link>
							<linkclipref>clipitem-788</linkclipref>
							<mediatype>audio</mediatype>
							<trackindex>16</trackindex>
							<clipindex>20</clipindex>
							<groupindex>1</groupindex>
						</link>
						<logginginfo>
							<description></description>
							<scene></scene>
							<shottake></shottake>
							<lognote></lognote>
							<good></good>
							<originalvideofilename></originalvideofilename>
							<originalaudiofilename></originalaudiofilename>
						</logginginfo>
						<colorinfo>
							<lut></lut>
							<lut1></lut1>
							<asc_sop></asc_sop>
							<asc_sat></asc_sat>
							<lut2></lut2>
						</colorinfo>
						<labels>
							<label2>Blue</label2>
						</labels>
					</clipitem>
					<transitionitem>
						<start>7626</start>
						<end>7628</end>
						<alignment>start-black</alignment>
						<cutPointTicks>0</cutPointTicks>
						<rate>
							<timebase>60</timebase>
							<ntsc>FALSE</ntsc>
						</rate>
						<effect>
							<name>Cross Fade (+3dB)</name>
							<effectid>KGAudioTransCrossFade3dB</effectid>
							<effecttype>transition</effecttype>
							<mediatype>audio</mediatype>
							<wipecode>0</wipecode>
							<wipeaccuracy>100</wipeaccuracy>
							<startratio>0</startratio>
							<endratio>1</endratio>
							<reverse>FALSE</reverse>
						</effect>
					</transitionitem>
					<clipitem id="clipitem-685" premiereChannelType="stereo">
						<masterclipid>masterclip-96</masterclipid>
						<name>Kate_ZOOM0001.WAV</name>
						<enabled>TRUE</enabled>
						<duration>81662</duration>
						<rate>
							<timebase>60</timebase>
							<ntsc>FALSE</ntsc>
						</rate>
						<start>-1</start>
						<end>-1</end>
						<in>64041</in>
						<out>64123</out>
						<pproTicksIn>271123977600000</pproTicksIn>
						<pproTicksOut>271471132800000</pproTicksOut>
						<file id="file-96"/>
						<sourcetrack>
							<mediatype>audio</mediatype>
							<trackindex>1</trackindex>
						</sourcetrack>
						<filter>
							<effect>
								<name>Audio Levels</name>
								<effectid>audiolevels</effectid>
								<effectcategory>audiolevels</effectcategory>
								<effecttype>audiolevels</effecttype>
								<mediatype>audio</mediatype>
								<pproBypass>false</pproBypass>
								<parameter authoringApp="PremierePro">
									<parameterid>level</parameterid>
									<name>Level</name>
									<valuemin>0</valuemin>
									<valuemax>3.98109</valuemax>
									<value>1</value>
									<keyframe>
										<when>63190</when>
										<value>1</value>
									</keyframe>
									<keyframe>
										<when>63208</when>
										<value>0</value>
									</keyframe>
									<keyframe>
										<when>63349</when>
										<value>0</value>
									</keyframe>
									<keyframe>
										<when>63364</when>
										<value>1</value>
									</keyframe>
									<keyframe>
										<when>63624</when>
										<value>1</value>
									</keyframe>
									<keyframe>
										<when>64041</when>
										<value>0</value>
									</keyframe>
									<keyframe>
										<when>64068</when>
										<value>1</value>
									</keyframe>
									<keyframe>
										<when>64570</when>
										<value>1</value>
									</keyframe>
									<keyframe>
										<when>64636</when>
										<value>0</value>
									</keyframe>
								</parameter>
							</effect>
						</filter>
							<marker>
								<comment></comment>
								<name></name>
								<in>8498</in>
								<out>-1</out>
							</marker>
						<link>
							<linkclipref>clipitem-685</linkclipref>
							<mediatype>audio</mediatype>
							<trackindex>15</trackindex>
							<clipindex>22</clipindex>
							<groupindex>1</groupindex>
						</link>
						<link>
							<linkclipref>clipitem-789</linkclipref>
							<mediatype>audio</mediatype>
							<trackindex>16</trackindex>
							<clipindex>22</clipindex>
							<groupindex>1</groupindex>
						</link>
						<logginginfo>
							<description></description>
							<scene></scene>
							<shottake></shottake>
							<lognote></lognote>
							<good></good>
							<originalvideofilename></originalvideofilename>
							<originalaudiofilename></originalaudiofilename>
						</logginginfo>
						<colorinfo>
							<lut></lut>
							<lut1></lut1>
							<asc_sop></asc_sop>
							<asc_sat></asc_sat>
							<lut2></lut2>
						</colorinfo>
						<labels>
							<label2>Blue</label2>
						</labels>
					</clipitem>
					<transitionitem>
						<start>7706</start>
						<end>7708</end>
						<alignment>center</alignment>
						<cutPointTicks>4233600000</cutPointTicks>
						<rate>
							<timebase>60</timebase>
							<ntsc>FALSE</ntsc>
						</rate>
						<effect>
							<name>Cross Fade (+3dB)</name>
							<effectid>KGAudioTransCrossFade3dB</effectid>
							<effecttype>transition</effecttype>
							<mediatype>audio</mediatype>
							<wipecode>0</wipecode>
							<wipeaccuracy>100</wipeaccuracy>
							<startratio>0</startratio>
							<endratio>1</endratio>
							<reverse>FALSE</reverse>
						</effect>
					</transitionitem>
					<clipitem id="clipitem-686" premiereChannelType="stereo">
						<masterclipid>masterclip-96</masterclipid>
						<name>Kate_ZOOM0001.WAV</name>
						<enabled>TRUE</enabled>
						<duration>81662</duration>
						<rate>
							<timebase>60</timebase>
							<ntsc>FALSE</ntsc>
						</rate>
						<start>-1</start>
						<end>-1</end>
						<in>64121</in>
						<out>64144</out>
						<pproTicksIn>271462665600000</pproTicksIn>
						<pproTicksOut>271560038400000</pproTicksOut>
						<file id="file-96"/>
						<sourcetrack>
							<mediatype>audio</mediatype>
							<trackindex>1</trackindex>
						</sourcetrack>
						<filter>
							<effect>
								<name>Audio Levels</name>
								<effectid>audiolevels</effectid>
								<effectcategory>audiolevels</effectcategory>
								<effecttype>audiolevels</effecttype>
								<mediatype>audio</mediatype>
								<pproBypass>false</pproBypass>
								<parameter authoringApp="PremierePro">
									<parameterid>level</parameterid>
									<name>Level</name>
									<valuemin>0</valuemin>
									<valuemax>3.98109</valuemax>
									<value>1</value>
									<keyframe>
										<when>63190</when>
										<value>1</value>
									</keyframe>
									<keyframe>
										<when>63208</when>
										<value>0</value>
									</keyframe>
									<keyframe>
										<when>63349</when>
										<value>0</value>
									</keyframe>
									<keyframe>
										<when>63364</when>
										<value>1</value>
									</keyframe>
									<keyframe>
										<when>63624</when>
										<value>1</value>
									</keyframe>
									<keyframe>
										<when>64041</when>
										<value>0</value>
									</keyframe>
									<keyframe>
										<when>64068</when>
										<value>1</value>
									</keyframe>
									<keyframe>
										<when>64570</when>
										<value>1</value>
									</keyframe>
									<keyframe>
										<when>64636</when>
										<value>0</value>
									</keyframe>
								</parameter>
							</effect>
						</filter>
							<marker>
								<comment></comment>
								<name></name>
								<in>8498</in>
								<out>-1</out>
							</marker>
						<link>
							<linkclipref>clipitem-686</linkclipref>
							<mediatype>audio</mediatype>
							<trackindex>15</trackindex>
							<clipindex>24</clipindex>
							<groupindex>1</groupindex>
						</link>
						<link>
							<linkclipref>clipitem-790</linkclipref>
							<mediatype>audio</mediatype>
							<trackindex>16</trackindex>
							<clipindex>24</clipindex>
							<groupindex>1</groupindex>
						</link>
						<logginginfo>
							<description></description>
							<scene></scene>
							<shottake></shottake>
							<lognote></lognote>
							<good></good>
							<originalvideofilename></originalvideofilename>
							<originalaudiofilename></originalaudiofilename>
						</logginginfo>
						<colorinfo>
							<lut></lut>
							<lut1></lut1>
							<asc_sop></asc_sop>
							<asc_sat></asc_sat>
							<lut2></lut2>
						</colorinfo>
						<labels>
							<label2>Blue</label2>
						</labels>
					</clipitem>
					<transitionitem>
						<start>7727</start>
						<end>7729</end>
						<alignment>center</alignment>
						<cutPointTicks>4233600000</cutPointTicks>
						<rate>
							<timebase>60</timebase>
							<ntsc>FALSE</ntsc>
						</rate>
						<effect>
							<name>Cross Fade (+3dB)</name>
							<effectid>KGAudioTransCrossFade3dB</effectid>
							<effecttype>transition</effecttype>
							<mediatype>audio</mediatype>
							<wipecode>0</wipecode>
							<wipeaccuracy>100</wipeaccuracy>
							<startratio>0</startratio>
							<endratio>1</endratio>
							<reverse>FALSE</reverse>
						</effect>
					</transitionitem>
					<clipitem id="clipitem-687" premiereChannelType="stereo">
						<masterclipid>masterclip-96</masterclipid>
						<name>Kate_ZOOM0001.WAV</name>
						<enabled>TRUE</enabled>
						<duration>81662</duration>
						<rate>
							<timebase>60</timebase>
							<ntsc>FALSE</ntsc>
						</rate>
						<start>-1</start>
						<end>-1</end>
						<in>64166</in>
						<out>64424</out>
						<pproTicksIn>271653177600000</pproTicksIn>
						<pproTicksOut>272745446400000</pproTicksOut>
						<file id="file-96"/>
						<sourcetrack>
							<mediatype>audio</mediatype>
							<trackindex>1</trackindex>
						</sourcetrack>
						<filter>
							<effect>
								<name>Audio Levels</name>
								<effectid>audiolevels</effectid>
								<effectcategory>audiolevels</effectcategory>
								<effecttype>audiolevels</effecttype>
								<mediatype>audio</mediatype>
								<pproBypass>false</pproBypass>
								<parameter authoringApp="PremierePro">
									<parameterid>level</parameterid>
									<name>Level</name>
									<valuemin>0</valuemin>
									<valuemax>3.98109</valuemax>
									<value>1</value>
									<keyframe>
										<when>63190</when>
										<value>1</value>
									</keyframe>
									<keyframe>
										<when>63208</when>
										<value>0</value>
									</keyframe>
									<keyframe>
										<when>63349</when>
										<value>0</value>
									</keyframe>
									<keyframe>
										<when>63364</when>
										<value>1</value>
									</keyframe>
									<keyframe>
										<when>63624</when>
										<value>1</value>
									</keyframe>
									<keyframe>
										<when>64041</when>
										<value>0</value>
									</keyframe>
									<keyframe>
										<when>64068</when>
										<value>1</value>
									</keyframe>
									<keyframe>
										<when>64321</when>
										<value>1</value>
									</keyframe>
									<keyframe>
										<when>64341</when>
										<value>1.27234</value>
									</keyframe>
									<keyframe>
										<when>64570</when>
										<value>1.27234</value>
									</keyframe>
									<keyframe>
										<when>64636</when>
										<value>0</value>
									</keyframe>
								</parameter>
							</effect>
						</filter>
							<marker>
								<comment></comment>
								<name></name>
								<in>8498</in>
								<out>-1</out>
							</marker>
						<link>
							<linkclipref>clipitem-687</linkclipref>
							<mediatype>audio</mediatype>
							<trackindex>15</trackindex>
							<clipindex>26</clipindex>
							<groupindex>1</groupindex>
						</link>
						<link>
							<linkclipref>clipitem-791</linkclipref>
							<mediatype>audio</mediatype>
							<trackindex>16</trackindex>
							<clipindex>26</clipindex>
							<groupindex>1</groupindex>
						</link>
						<logginginfo>
							<description></description>
							<scene></scene>
							<shottake></shottake>
							<lognote></lognote>
							<good></good>
							<originalvideofilename></originalvideofilename>
							<originalaudiofilename></originalaudiofilename>
						</logginginfo>
						<colorinfo>
							<lut></lut>
							<lut1></lut1>
							<asc_sop></asc_sop>
							<asc_sat></asc_sat>
							<lut2></lut2>
						</colorinfo>
						<labels>
							<label2>Blue</label2>
						</labels>
					</clipitem>
					<transitionitem>
						<start>7983</start>
						<end>7985</end>
						<alignment>center</alignment>
						<cutPointTicks>4233600000</cutPointTicks>
						<rate>
							<timebase>60</timebase>
							<ntsc>FALSE</ntsc>
						</rate>
						<effect>
							<name>Cross Fade (+3dB)</name>
							<effectid>KGAudioTransCrossFade3dB</effectid>
							<effecttype>transition</effecttype>
							<mediatype>audio</mediatype>
							<wipecode>0</wipecode>
							<wipeaccuracy>100</wipeaccuracy>
							<startratio>0</startratio>
							<endratio>1</endratio>
							<reverse>FALSE</reverse>
						</effect>
					</transitionitem>
					<clipitem id="clipitem-688" premiereChannelType="stereo">
						<masterclipid>masterclip-96</masterclipid>
						<name>Kate_ZOOM0001.WAV</name>
						<enabled>TRUE</enabled>
						<duration>81662</duration>
						<rate>
							<timebase>60</timebase>
							<ntsc>FALSE</ntsc>
						</rate>
						<start>-1</start>
						<end>-1</end>
						<in>64478</in>
						<out>64581</out>
						<pproTicksIn>272974060800000</pproTicksIn>
						<pproTicksOut>273410121600000</pproTicksOut>
						<file id="file-96"/>
						<sourcetrack>
							<mediatype>audio</mediatype>
							<trackindex>1</trackindex>
						</sourcetrack>
						<filter>
							<effect>
								<name>Audio Levels</name>
								<effectid>audiolevels</effectid>
								<effectcategory>audiolevels</effectcategory>
								<effecttype>audiolevels</effecttype>
								<mediatype>audio</mediatype>
								<pproBypass>false</pproBypass>
								<parameter authoringApp="PremierePro">
									<parameterid>level</parameterid>
									<name>Level</name>
									<valuemin>0</valuemin>
									<valuemax>3.98109</valuemax>
									<value>1</value>
									<keyframe>
										<when>63190</when>
										<value>1</value>
									</keyframe>
									<keyframe>
										<when>63208</when>
										<value>0</value>
									</keyframe>
									<keyframe>
										<when>63349</when>
										<value>0</value>
									</keyframe>
									<keyframe>
										<when>63364</when>
										<value>1</value>
									</keyframe>
									<keyframe>
										<when>63624</when>
										<value>1</value>
									</keyframe>
									<keyframe>
										<when>64041</when>
										<value>0</value>
									</keyframe>
									<keyframe>
										<when>64068</when>
										<value>1.48511</value>
									</keyframe>
									<keyframe>
										<when>64558</when>
										<value>1.48511</value>
									</keyframe>
									<keyframe>
										<when>64581</when>
										<value>0</value>
									</keyframe>
									<keyframe>
										<when>64636</when>
										<value>0</value>
									</keyframe>
								</parameter>
							</effect>
						</filter>
							<marker>
								<comment></comment>
								<name></name>
								<in>8498</in>
								<out>-1</out>
							</marker>
						<link>
							<linkclipref>clipitem-688</linkclipref>
							<mediatype>audio</mediatype>
							<trackindex>15</trackindex>
							<clipindex>28</clipindex>
							<groupindex>1</groupindex>
						</link>
						<link>
							<linkclipref>clipitem-792</linkclipref>
							<mediatype>audio</mediatype>
							<trackindex>16</trackindex>
							<clipindex>28</clipindex>
							<groupindex>1</groupindex>
						</link>
						<logginginfo>
							<description></description>
							<scene></scene>
							<shottake></shottake>
							<lognote></lognote>
							<good></good>
							<originalvideofilename></originalvideofilename>
							<originalaudiofilename></originalaudiofilename>
						</logginginfo>
						<colorinfo>
							<lut></lut>
							<lut1></lut1>
							<asc_sop></asc_sop>
							<asc_sat></asc_sat>
							<lut2></lut2>
						</colorinfo>
						<labels>
							<label2>Blue</label2>
						</labels>
					</clipitem>
					<transitionitem>
						<start>8084</start>
						<end>8086</end>
						<alignment>end-black</alignment>
						<cutPointTicks>8467200000</cutPointTicks>
						<rate>
							<timebase>60</timebase>
							<ntsc>FALSE</ntsc>
						</rate>
						<effect>
							<name>Cross Fade (+3dB)</name>
							<effectid>KGAudioTransCrossFade3dB</effectid>
							<effecttype>transition</effecttype>
							<mediatype>audio</mediatype>
							<wipecode>0</wipecode>
							<wipeaccuracy>100</wipeaccuracy>
							<startratio>0</startratio>
							<endratio>1</endratio>
							<reverse>FALSE</reverse>
						</effect>
					</transitionitem>
					<transitionitem>
						<start>9006</start>
						<end>9008</end>
						<alignment>start-black</alignment>
						<cutPointTicks>0</cutPointTicks>
						<rate>
							<timebase>60</timebase>
							<ntsc>FALSE</ntsc>
						</rate>
						<effect>
							<name>Cross Fade (+3dB)</name>
							<effectid>KGAudioTransCrossFade3dB</effectid>
							<effecttype>transition</effecttype>
							<mediatype>audio</mediatype>
							<wipecode>0</wipecode>
							<wipeaccuracy>100</wipeaccuracy>
							<startratio>0</startratio>
							<endratio>1</endratio>
							<reverse>FALSE</reverse>
						</effect>
					</transitionitem>
					<clipitem id="clipitem-689" premiereChannelType="stereo">
						<masterclipid>masterclip-96</masterclipid>
						<name>Kate_ZOOM0001.WAV</name>
						<enabled>TRUE</enabled>
						<duration>81662</duration>
						<rate>
							<timebase>60</timebase>
							<ntsc>FALSE</ntsc>
						</rate>
						<start>-1</start>
						<end>-1</end>
						<in>64776</in>
						<out>64886</out>
						<pproTicksIn>274235673600000</pproTicksIn>
						<pproTicksOut>274701369600000</pproTicksOut>
						<file id="file-96"/>
						<sourcetrack>
							<mediatype>audio</mediatype>
							<trackindex>1</trackindex>
						</sourcetrack>
						<filter>
							<effect>
								<name>Audio Levels</name>
								<effectid>audiolevels</effectid>
								<effectcategory>audiolevels</effectcategory>
								<effecttype>audiolevels</effecttype>
								<mediatype>audio</mediatype>
								<pproBypass>false</pproBypass>
								<parameter authoringApp="PremierePro">
									<parameterid>level</parameterid>
									<name>Level</name>
									<valuemin>0</valuemin>
									<valuemax>3.98109</valuemax>
									<value>1</value>
									<keyframe>
										<when>63190</when>
										<value>1</value>
									</keyframe>
									<keyframe>
										<when>63208</when>
										<value>0</value>
									</keyframe>
									<keyframe>
										<when>63349</when>
										<value>0</value>
									</keyframe>
									<keyframe>
										<when>63364</when>
										<value>1</value>
									</keyframe>
									<keyframe>
										<when>63624</when>
										<value>1</value>
									</keyframe>
									<keyframe>
										<when>64694</when>
										<value>0</value>
									</keyframe>
									<keyframe>
										<when>64775</when>
										<value>1</value>
									</keyframe>
									<keyframe>
										<when>64776</when>
										<value>0</value>
									</keyframe>
									<keyframe>
										<when>64781</when>
										<value>1</value>
									</keyframe>
									<keyframe>
										<when>64880</when>
										<value>1</value>
									</keyframe>
									<keyframe>
										<when>64893</when>
										<value>0</value>
									</keyframe>
								</parameter>
							</effect>
						</filter>
							<marker>
								<comment></comment>
								<name></name>
								<in>8498</in>
								<out>-1</out>
							</marker>
						<link>
							<linkclipref>clipitem-689</linkclipref>
							<mediatype>audio</mediatype>
							<trackindex>15</trackindex>
							<clipindex>31</clipindex>
							<groupindex>1</groupindex>
						</link>
						<link>
							<linkclipref>clipitem-793</linkclipref>
							<mediatype>audio</mediatype>
							<trackindex>16</trackindex>
							<clipindex>31</clipindex>
							<groupindex>1</groupindex>
						</link>
						<logginginfo>
							<description></description>
							<scene></scene>
							<shottake></shottake>
							<lognote></lognote>
							<good></good>
							<originalvideofilename></originalvideofilename>
							<originalaudiofilename></originalaudiofilename>
						</logginginfo>
						<colorinfo>
							<lut></lut>
							<lut1></lut1>
							<asc_sop></asc_sop>
							<asc_sat></asc_sat>
							<lut2></lut2>
						</colorinfo>
						<labels>
							<label2>Blue</label2>
						</labels>
					</clipitem>
					<transitionitem>
						<start>9114</start>
						<end>9116</end>
						<alignment>end-black</alignment>
						<cutPointTicks>8467200000</cutPointTicks>
						<rate>
							<timebase>60</timebase>
							<ntsc>FALSE</ntsc>
						</rate>
						<effect>
							<name>Cross Fade (+3dB)</name>
							<effectid>KGAudioTransCrossFade3dB</effectid>
							<effecttype>transition</effecttype>
							<mediatype>audio</mediatype>
							<wipecode>0</wipecode>
							<wipeaccuracy>100</wipeaccuracy>
							<startratio>0</startratio>
							<endratio>1</endratio>
							<reverse>FALSE</reverse>
						</effect>
					</transitionitem>
					<transitionitem>
						<start>9388</start>
						<end>9390</end>
						<alignment>start-black</alignment>
						<cutPointTicks>0</cutPointTicks>
						<rate>
							<timebase>60</timebase>
							<ntsc>FALSE</ntsc>
						</rate>
						<effect>
							<name>Cross Fade (+3dB)</name>
							<effectid>KGAudioTransCrossFade3dB</effectid>
							<effecttype>transition</effecttype>
							<mediatype>audio</mediatype>
							<wipecode>0</wipecode>
							<wipeaccuracy>100</wipeaccuracy>
							<startratio>0</startratio>
							<endratio>1</endratio>
							<reverse>FALSE</reverse>
						</effect>
					</transitionitem>
					<clipitem id="clipitem-690" premiereChannelType="stereo">
						<masterclipid>masterclip-96</masterclipid>
						<name>Kate_ZOOM0001.WAV</name>
						<enabled>TRUE</enabled>
						<duration>81662</duration>
						<rate>
							<timebase>60</timebase>
							<ntsc>FALSE</ntsc>
						</rate>
						<start>-1</start>
						<end>-1</end>
						<in>65344</in>
						<out>65476</out>
						<pproTicksIn>276640358400000</pproTicksIn>
						<pproTicksOut>277199193600000</pproTicksOut>
						<file id="file-96"/>
						<sourcetrack>
							<mediatype>audio</mediatype>
							<trackindex>1</trackindex>
						</sourcetrack>
						<filter>
							<effect>
								<name>Audio Levels</name>
								<effectid>audiolevels</effectid>
								<effectcategory>audiolevels</effectcategory>
								<effecttype>audiolevels</effecttype>
								<mediatype>audio</mediatype>
								<pproBypass>false</pproBypass>
								<parameter authoringApp="PremierePro">
									<parameterid>level</parameterid>
									<name>Level</name>
									<valuemin>0</valuemin>
									<valuemax>3.98109</valuemax>
									<value>0</value>
									<keyframe>
										<when>65344</when>
										<value>0</value>
									</keyframe>
									<keyframe>
										<when>65357</when>
										<value>1</value>
									</keyframe>
									<keyframe>
										<when>65718</when>
										<value>1</value>
									</keyframe>
									<keyframe>
										<when>65753</when>
										<value>0</value>
									</keyframe>
								</parameter>
							</effect>
						</filter>
							<marker>
								<comment></comment>
								<name></name>
								<in>8498</in>
								<out>-1</out>
							</marker>
						<link>
							<linkclipref>clipitem-690</linkclipref>
							<mediatype>audio</mediatype>
							<trackindex>15</trackindex>
							<clipindex>34</clipindex>
							<groupindex>1</groupindex>
						</link>
						<link>
							<linkclipref>clipitem-794</linkclipref>
							<mediatype>audio</mediatype>
							<trackindex>16</trackindex>
							<clipindex>34</clipindex>
							<groupindex>1</groupindex>
						</link>
						<logginginfo>
							<description></description>
							<scene></scene>
							<shottake></shottake>
							<lognote></lognote>
							<good></good>
							<originalvideofilename></originalvideofilename>
							<originalaudiofilename></originalaudiofilename>
						</logginginfo>
						<colorinfo>
							<lut></lut>
							<lut1></lut1>
							<asc_sop></asc_sop>
							<asc_sat></asc_sat>
							<lut2></lut2>
						</colorinfo>
						<labels>
							<label2>Blue</label2>
						</labels>
					</clipitem>
					<transitionitem>
						<start>9518</start>
						<end>9520</end>
						<alignment>end-black</alignment>
						<cutPointTicks>8467200000</cutPointTicks>
						<rate>
							<timebase>60</timebase>
							<ntsc>FALSE</ntsc>
						</rate>
						<effect>
							<name>Cross Fade (+3dB)</name>
							<effectid>KGAudioTransCrossFade3dB</effectid>
							<effecttype>transition</effecttype>
							<mediatype>audio</mediatype>
							<wipecode>0</wipecode>
							<wipeaccuracy>100</wipeaccuracy>
							<startratio>0</startratio>
							<endratio>1</endratio>
							<reverse>FALSE</reverse>
						</effect>
					</transitionitem>
					<transitionitem>
						<start>10870</start>
						<end>10872</end>
						<alignment>start-black</alignment>
						<cutPointTicks>0</cutPointTicks>
						<rate>
							<timebase>60</timebase>
							<ntsc>FALSE</ntsc>
						</rate>
						<effect>
							<name>Cross Fade (+3dB)</name>
							<effectid>KGAudioTransCrossFade3dB</effectid>
							<effecttype>transition</effecttype>
							<mediatype>audio</mediatype>
							<wipecode>0</wipecode>
							<wipeaccuracy>100</wipeaccuracy>
							<startratio>0</startratio>
							<endratio>1</endratio>
							<reverse>FALSE</reverse>
						</effect>
					</transitionitem>
					<clipitem id="clipitem-691" premiereChannelType="stereo">
						<masterclipid>masterclip-96</masterclipid>
						<name>Kate_ZOOM0001.WAV</name>
						<enabled>TRUE</enabled>
						<duration>81662</duration>
						<rate>
							<timebase>60</timebase>
							<ntsc>FALSE</ntsc>
						</rate>
						<start>-1</start>
						<end>-1</end>
						<in>17161</in>
						<out>17242</out>
						<pproTicksIn>72652809600000</pproTicksIn>
						<pproTicksOut>72995731200000</pproTicksOut>
						<file id="file-96"/>
						<sourcetrack>
							<mediatype>audio</mediatype>
							<trackindex>1</trackindex>
						</sourcetrack>
						<filter>
							<effect>
								<name>Audio Levels</name>
								<effectid>audiolevels</effectid>
								<effectcategory>audiolevels</effectcategory>
								<effecttype>audiolevels</effecttype>
								<mediatype>audio</mediatype>
								<pproBypass>false</pproBypass>
								<parameter authoringApp="PremierePro">
									<parameterid>level</parameterid>
									<name>Level</name>
									<valuemin>0</valuemin>
									<valuemax>3.98109</valuemax>
									<value>0</value>
									<keyframe>
										<when>17117</when>
										<value>0</value>
									</keyframe>
									<keyframe>
										<when>17147</when>
										<value>1</value>
									</keyframe>
									<keyframe>
										<when>17243</when>
										<value>1</value>
									</keyframe>
									<keyframe>
										<when>17256</when>
										<value>0</value>
									</keyframe>
									<keyframe>
										<when>17367</when>
										<value>0</value>
									</keyframe>
									<keyframe>
										<when>17377</when>
										<value>1</value>
									</keyframe>
								</parameter>
							</effect>
						</filter>
							<marker>
								<comment></comment>
								<name></name>
								<in>8498</in>
								<out>-1</out>
							</marker>
						<link>
							<linkclipref>clipitem-691</linkclipref>
							<mediatype>audio</mediatype>
							<trackindex>15</trackindex>
							<clipindex>37</clipindex>
							<groupindex>1</groupindex>
						</link>
						<link>
							<linkclipref>clipitem-795</linkclipref>
							<mediatype>audio</mediatype>
							<trackindex>16</trackindex>
							<clipindex>37</clipindex>
							<groupindex>1</groupindex>
						</link>
						<logginginfo>
							<description></description>
							<scene></scene>
							<shottake></shottake>
							<lognote></lognote>
							<good></good>
							<originalvideofilename></originalvideofilename>
							<originalaudiofilename></originalaudiofilename>
						</logginginfo>
						<colorinfo>
							<lut></lut>
							<lut1></lut1>
							<asc_sop></asc_sop>
							<asc_sat></asc_sat>
							<lut2></lut2>
						</colorinfo>
						<labels>
							<label2>Purple</label2>
						</labels>
					</clipitem>
					<transitionitem>
						<start>10949</start>
						<end>10951</end>
						<alignment>center</alignment>
						<cutPointTicks>4233600000</cutPointTicks>
						<rate>
							<timebase>60</timebase>
							<ntsc>FALSE</ntsc>
						</rate>
						<effect>
							<name>Cross Fade (+3dB)</name>
							<effectid>KGAudioTransCrossFade3dB</effectid>
							<effecttype>transition</effecttype>
							<mediatype>audio</mediatype>
							<wipecode>0</wipecode>
							<wipeaccuracy>100</wipeaccuracy>
							<startratio>0</startratio>
							<endratio>1</endratio>
							<reverse>FALSE</reverse>
						</effect>
					</transitionitem>
					<clipitem id="clipitem-692" premiereChannelType="stereo">
						<masterclipid>masterclip-96</masterclipid>
						<name>Kate_ZOOM0001.WAV</name>
						<enabled>TRUE</enabled>
						<duration>81662</duration>
						<rate>
							<timebase>60</timebase>
							<ntsc>FALSE</ntsc>
						</rate>
						<start>-1</start>
						<end>-1</end>
						<in>17377</in>
						<out>17504</out>
						<pproTicksIn>73567267200000</pproTicksIn>
						<pproTicksOut>74104934400000</pproTicksOut>
						<file id="file-96"/>
						<sourcetrack>
							<mediatype>audio</mediatype>
							<trackindex>1</trackindex>
						</sourcetrack>
						<filter>
							<effect>
								<name>Audio Levels</name>
								<effectid>audiolevels</effectid>
								<effectcategory>audiolevels</effectcategory>
								<effecttype>audiolevels</effecttype>
								<mediatype>audio</mediatype>
								<pproBypass>false</pproBypass>
								<parameter authoringApp="PremierePro">
									<parameterid>level</parameterid>
									<name>Level</name>
									<valuemin>0</valuemin>
									<valuemax>3.98109</valuemax>
									<value>0</value>
									<keyframe>
										<when>17117</when>
										<value>0</value>
									</keyframe>
									<keyframe>
										<when>17147</when>
										<value>1</value>
									</keyframe>
									<keyframe>
										<when>17243</when>
										<value>1</value>
									</keyframe>
									<keyframe>
										<when>17256</when>
										<value>0</value>
									</keyframe>
									<keyframe>
										<when>17367</when>
										<value>0</value>
									</keyframe>
									<keyframe>
										<when>17377</when>
										<value>1</value>
									</keyframe>
									<keyframe>
										<when>17470</when>
										<value>1</value>
									</keyframe>
									<keyframe>
										<when>17504</when>
										<value>0</value>
									</keyframe>
									<keyframe>
										<when>17556</when>
										<value>0</value>
									</keyframe>
								</parameter>
							</effect>
						</filter>
							<marker>
								<comment></comment>
								<name></name>
								<in>8498</in>
								<out>-1</out>
							</marker>
						<link>
							<linkclipref>clipitem-692</linkclipref>
							<mediatype>audio</mediatype>
							<trackindex>15</trackindex>
							<clipindex>39</clipindex>
							<groupindex>1</groupindex>
						</link>
						<link>
							<linkclipref>clipitem-796</linkclipref>
							<mediatype>audio</mediatype>
							<trackindex>16</trackindex>
							<clipindex>39</clipindex>
							<groupindex>1</groupindex>
						</link>
						<logginginfo>
							<description></description>
							<scene></scene>
							<shottake></shottake>
							<lognote></lognote>
							<good></good>
							<originalvideofilename></originalvideofilename>
							<originalaudiofilename></originalaudiofilename>
						</logginginfo>
						<colorinfo>
							<lut></lut>
							<lut1></lut1>
							<asc_sop></asc_sop>
							<asc_sat></asc_sat>
							<lut2></lut2>
						</colorinfo>
						<labels>
							<label2>Purple</label2>
						</labels>
					</clipitem>
					<transitionitem>
						<start>11074</start>
						<end>11076</end>
						<alignment>end-black</alignment>
						<cutPointTicks>8467200000</cutPointTicks>
						<rate>
							<timebase>60</timebase>
							<ntsc>FALSE</ntsc>
						</rate>
						<effect>
							<name>Cross Fade (+3dB)</name>
							<effectid>KGAudioTransCrossFade3dB</effectid>
							<effecttype>transition</effecttype>
							<mediatype>audio</mediatype>
							<wipecode>0</wipecode>
							<wipeaccuracy>100</wipeaccuracy>
							<startratio>0</startratio>
							<endratio>1</endratio>
							<reverse>FALSE</reverse>
						</effect>
					</transitionitem>
					<transitionitem>
						<start>11265</start>
						<end>11267</end>
						<alignment>start-black</alignment>
						<cutPointTicks>0</cutPointTicks>
						<rate>
							<timebase>60</timebase>
							<ntsc>FALSE</ntsc>
						</rate>
						<effect>
							<name>Cross Fade (+3dB)</name>
							<effectid>KGAudioTransCrossFade3dB</effectid>
							<effecttype>transition</effecttype>
							<mediatype>audio</mediatype>
							<wipecode>0</wipecode>
							<wipeaccuracy>100</wipeaccuracy>
							<startratio>0</startratio>
							<endratio>1</endratio>
							<reverse>FALSE</reverse>
						</effect>
					</transitionitem>
					<clipitem id="clipitem-693" premiereChannelType="stereo">
						<masterclipid>masterclip-96</masterclipid>
						<name>Kate_ZOOM0001.WAV</name>
						<enabled>TRUE</enabled>
						<duration>81662</duration>
						<rate>
							<timebase>60</timebase>
							<ntsc>FALSE</ntsc>
						</rate>
						<start>-1</start>
						<end>-1</end>
						<in>18178</in>
						<out>18451</out>
						<pproTicksIn>76958380800000</pproTicksIn>
						<pproTicksOut>78114153600000</pproTicksOut>
						<file id="file-96"/>
						<sourcetrack>
							<mediatype>audio</mediatype>
							<trackindex>1</trackindex>
						</sourcetrack>
						<filter>
							<effect>
								<name>Audio Levels</name>
								<effectid>audiolevels</effectid>
								<effectcategory>audiolevels</effectcategory>
								<effecttype>audiolevels</effecttype>
								<mediatype>audio</mediatype>
								<pproBypass>false</pproBypass>
								<parameter authoringApp="PremierePro">
									<parameterid>level</parameterid>
									<name>Level</name>
									<valuemin>0</valuemin>
									<valuemax>3.98109</valuemax>
									<value>0</value>
									<keyframe>
										<when>17117</when>
										<value>0</value>
									</keyframe>
									<keyframe>
										<when>17147</when>
										<value>1</value>
									</keyframe>
									<keyframe>
										<when>17243</when>
										<value>1</value>
									</keyframe>
									<keyframe>
										<when>17256</when>
										<value>0</value>
									</keyframe>
									<keyframe>
										<when>17367</when>
										<value>0</value>
									</keyframe>
									<keyframe>
										<when>17377</when>
										<value>0</value>
									</keyframe>
									<keyframe>
										<when>17918</when>
										<value>0</value>
									</keyframe>
									<keyframe>
										<when>17950</when>
										<value>1</value>
									</keyframe>
									<keyframe>
										<when>18178</when>
										<value>0</value>
									</keyframe>
									<keyframe>
										<when>18184</when>
										<value>1</value>
									</keyframe>
								</parameter>
							</effect>
						</filter>
							<marker>
								<comment></comment>
								<name></name>
								<in>8498</in>
								<out>-1</out>
							</marker>
						<link>
							<linkclipref>clipitem-693</linkclipref>
							<mediatype>audio</mediatype>
							<trackindex>15</trackindex>
							<clipindex>42</clipindex>
							<groupindex>1</groupindex>
						</link>
						<link>
							<linkclipref>clipitem-797</linkclipref>
							<mediatype>audio</mediatype>
							<trackindex>16</trackindex>
							<clipindex>42</clipindex>
							<groupindex>1</groupindex>
						</link>
						<logginginfo>
							<description></description>
							<scene></scene>
							<shottake></shottake>
							<lognote></lognote>
							<good></good>
							<originalvideofilename></originalvideofilename>
							<originalaudiofilename></originalaudiofilename>
						</logginginfo>
						<colorinfo>
							<lut></lut>
							<lut1></lut1>
							<asc_sop></asc_sop>
							<asc_sat></asc_sat>
							<lut2></lut2>
						</colorinfo>
						<labels>
							<label2>Tan</label2>
						</labels>
					</clipitem>
					<transitionitem>
						<start>11536</start>
						<end>11538</end>
						<alignment>center</alignment>
						<cutPointTicks>4233600000</cutPointTicks>
						<rate>
							<timebase>60</timebase>
							<ntsc>FALSE</ntsc>
						</rate>
						<effect>
							<name>Cross Fade (+3dB)</name>
							<effectid>KGAudioTransCrossFade3dB</effectid>
							<effecttype>transition</effecttype>
							<mediatype>audio</mediatype>
							<wipecode>0</wipecode>
							<wipeaccuracy>100</wipeaccuracy>
							<startratio>0</startratio>
							<endratio>1</endratio>
							<reverse>FALSE</reverse>
						</effect>
					</transitionitem>
					<clipitem id="clipitem-694" premiereChannelType="stereo">
						<masterclipid>masterclip-96</masterclipid>
						<name>Kate_ZOOM0001.WAV</name>
						<enabled>TRUE</enabled>
						<duration>81662</duration>
						<rate>
							<timebase>60</timebase>
							<ntsc>FALSE</ntsc>
						</rate>
						<start>-1</start>
						<end>-1</end>
						<in>18635</in>
						<out>18777</out>
						<pproTicksIn>78893136000000</pproTicksIn>
						<pproTicksOut>79494307200000</pproTicksOut>
						<file id="file-96"/>
						<sourcetrack>
							<mediatype>audio</mediatype>
							<trackindex>1</trackindex>
						</sourcetrack>
						<filter>
							<effect>
								<name>Audio Levels</name>
								<effectid>audiolevels</effectid>
								<effectcategory>audiolevels</effectcategory>
								<effecttype>audiolevels</effecttype>
								<mediatype>audio</mediatype>
								<pproBypass>false</pproBypass>
								<parameter authoringApp="PremierePro">
									<parameterid>level</parameterid>
									<name>Level</name>
									<valuemin>0</valuemin>
									<valuemax>3.98109</valuemax>
									<value>0</value>
									<keyframe>
										<when>17117</when>
										<value>0</value>
									</keyframe>
									<keyframe>
										<when>17147</when>
										<value>1</value>
									</keyframe>
									<keyframe>
										<when>17243</when>
										<value>1</value>
									</keyframe>
									<keyframe>
										<when>17256</when>
										<value>0</value>
									</keyframe>
									<keyframe>
										<when>17367</when>
										<value>0</value>
									</keyframe>
									<keyframe>
										<when>17377</when>
										<value>0</value>
									</keyframe>
									<keyframe>
										<when>17918</when>
										<value>0</value>
									</keyframe>
									<keyframe>
										<when>17950</when>
										<value>2</value>
									</keyframe>
									<keyframe>
										<when>18756</when>
										<value>2</value>
									</keyframe>
									<keyframe>
										<when>18767</when>
										<value>1.85106</value>
									</keyframe>
									<keyframe>
										<when>18822</when>
										<value>0</value>
									</keyframe>
								</parameter>
							</effect>
						</filter>
							<marker>
								<comment></comment>
								<name></name>
								<in>8498</in>
								<out>-1</out>
							</marker>
						<link>
							<linkclipref>clipitem-694</linkclipref>
							<mediatype>audio</mediatype>
							<trackindex>15</trackindex>
							<clipindex>44</clipindex>
							<groupindex>1</groupindex>
						</link>
						<link>
							<linkclipref>clipitem-798</linkclipref>
							<mediatype>audio</mediatype>
							<trackindex>16</trackindex>
							<clipindex>44</clipindex>
							<groupindex>1</groupindex>
						</link>
						<logginginfo>
							<description></description>
							<scene></scene>
							<shottake></shottake>
							<lognote></lognote>
							<good></good>
							<originalvideofilename></originalvideofilename>
							<originalaudiofilename></originalaudiofilename>
						</logginginfo>
						<colorinfo>
							<lut></lut>
							<lut1></lut1>
							<asc_sop></asc_sop>
							<asc_sat></asc_sat>
							<lut2></lut2>
						</colorinfo>
						<labels>
							<label2>Tan</label2>
						</labels>
					</clipitem>
					<transitionitem>
						<start>11676</start>
						<end>11678</end>
						<alignment>end-black</alignment>
						<cutPointTicks>8467200000</cutPointTicks>
						<rate>
							<timebase>60</timebase>
							<ntsc>FALSE</ntsc>
						</rate>
						<effect>
							<name>Cross Fade (+3dB)</name>
							<effectid>KGAudioTransCrossFade3dB</effectid>
							<effecttype>transition</effecttype>
							<mediatype>audio</mediatype>
							<wipecode>0</wipecode>
							<wipeaccuracy>100</wipeaccuracy>
							<startratio>0</startratio>
							<endratio>1</endratio>
							<reverse>FALSE</reverse>
						</effect>
					</transitionitem>
					<transitionitem>
						<start>11730</start>
						<end>11732</end>
						<alignment>start-black</alignment>
						<cutPointTicks>0</cutPointTicks>
						<rate>
							<timebase>60</timebase>
							<ntsc>FALSE</ntsc>
						</rate>
						<effect>
							<name>Cross Fade (+3dB)</name>
							<effectid>KGAudioTransCrossFade3dB</effectid>
							<effecttype>transition</effecttype>
							<mediatype>audio</mediatype>
							<wipecode>0</wipecode>
							<wipeaccuracy>100</wipeaccuracy>
							<startratio>0</startratio>
							<endratio>1</endratio>
							<reverse>FALSE</reverse>
						</effect>
					</transitionitem>
					<clipitem id="clipitem-695" premiereChannelType="stereo">
						<masterclipid>masterclip-96</masterclipid>
						<name>Kate_ZOOM0001.WAV</name>
						<enabled>TRUE</enabled>
						<duration>81662</duration>
						<rate>
							<timebase>60</timebase>
							<ntsc>FALSE</ntsc>
						</rate>
						<start>-1</start>
						<end>-1</end>
						<in>19647</in>
						<out>20234</out>
						<pproTicksIn>83177539200000</pproTicksIn>
						<pproTicksOut>85662662400000</pproTicksOut>
						<file id="file-96"/>
						<sourcetrack>
							<mediatype>audio</mediatype>
							<trackindex>1</trackindex>
						</sourcetrack>
						<filter>
							<effect>
								<name>Audio Levels</name>
								<effectid>audiolevels</effectid>
								<effectcategory>audiolevels</effectcategory>
								<effecttype>audiolevels</effecttype>
								<mediatype>audio</mediatype>
								<pproBypass>false</pproBypass>
								<parameter authoringApp="PremierePro">
									<parameterid>level</parameterid>
									<name>Level</name>
									<valuemin>0</valuemin>
									<valuemax>3.98109</valuemax>
									<value>0</value>
									<keyframe>
										<when>17117</when>
										<value>0</value>
									</keyframe>
									<keyframe>
										<when>17147</when>
										<value>1</value>
									</keyframe>
									<keyframe>
										<when>17243</when>
										<value>1</value>
									</keyframe>
									<keyframe>
										<when>17256</when>
										<value>0</value>
									</keyframe>
									<keyframe>
										<when>17367</when>
										<value>0</value>
									</keyframe>
									<keyframe>
										<when>17377</when>
										<value>0</value>
									</keyframe>
									<keyframe>
										<when>17918</when>
										<value>0</value>
									</keyframe>
									<keyframe>
										<when>17950</when>
										<value>0</value>
									</keyframe>
									<keyframe>
										<when>19157</when>
										<value>0</value>
									</keyframe>
									<keyframe>
										<when>19183</when>
										<value>0</value>
									</keyframe>
									<keyframe>
										<when>19590</when>
										<value>0</value>
									</keyframe>
									<keyframe>
										<when>19647</when>
										<value>0</value>
									</keyframe>
									<keyframe>
										<when>19667</when>
										<value>1</value>
									</keyframe>
									<keyframe>
										<when>20215</when>
										<value>1</value>
									</keyframe>
									<keyframe>
										<when>20234</when>
										<value>0</value>
									</keyframe>
									<keyframe>
										<when>20245</when>
										<value>1</value>
									</keyframe>
									<keyframe>
										<when>20275</when>
										<value>0</value>
									</keyframe>
									<keyframe>
										<when>20433</when>
										<value>0</value>
									</keyframe>
									<keyframe>
										<when>20463</when>
										<value>0</value>
									</keyframe>
									<keyframe>
										<when>20539</when>
										<value>0</value>
									</keyframe>
									<keyframe>
										<when>20557</when>
										<value>1</value>
									</keyframe>
									<keyframe>
										<when>21357</when>
										<value>1</value>
									</keyframe>
									<keyframe>
										<when>21402</when>
										<value>0</value>
									</keyframe>
									<keyframe>
										<when>21647</when>
										<value>0</value>
									</keyframe>
									<keyframe>
										<when>21749</when>
										<value>1</value>
									</keyframe>
								</parameter>
							</effect>
						</filter>
							<marker>
								<comment></comment>
								<name></name>
								<in>8498</in>
								<out>-1</out>
							</marker>
						<link>
							<linkclipref>clipitem-695</linkclipref>
							<mediatype>audio</mediatype>
							<trackindex>15</trackindex>
							<clipindex>47</clipindex>
							<groupindex>1</groupindex>
						</link>
						<link>
							<linkclipref>clipitem-799</linkclipref>
							<mediatype>audio</mediatype>
							<trackindex>16</trackindex>
							<clipindex>47</clipindex>
							<groupindex>1</groupindex>
						</link>
						<logginginfo>
							<description></description>
							<scene></scene>
							<shottake></shottake>
							<lognote></lognote>
							<good></good>
							<originalvideofilename></originalvideofilename>
							<originalaudiofilename></originalaudiofilename>
						</logginginfo>
						<colorinfo>
							<lut></lut>
							<lut1></lut1>
							<asc_sop></asc_sop>
							<asc_sat></asc_sat>
							<lut2></lut2>
						</colorinfo>
						<labels>
							<label2>Tan</label2>
						</labels>
					</clipitem>
					<transitionitem>
						<start>12315</start>
						<end>12317</end>
						<alignment>end-black</alignment>
						<cutPointTicks>8467200000</cutPointTicks>
						<rate>
							<timebase>60</timebase>
							<ntsc>FALSE</ntsc>
						</rate>
						<effect>
							<name>Cross Fade (+3dB)</name>
							<effectid>KGAudioTransCrossFade3dB</effectid>
							<effecttype>transition</effecttype>
							<mediatype>audio</mediatype>
							<wipecode>0</wipecode>
							<wipeaccuracy>100</wipeaccuracy>
							<startratio>0</startratio>
							<endratio>1</endratio>
							<reverse>FALSE</reverse>
						</effect>
					</transitionitem>
					<clipitem id="clipitem-696" premiereChannelType="stereo">
						<masterclipid>masterclip-96</masterclipid>
						<name>Kate_ZOOM0001.WAV</name>
						<enabled>TRUE</enabled>
						<duration>81662</duration>
						<rate>
							<timebase>60</timebase>
							<ntsc>FALSE</ntsc>
						</rate>
						<start>12621</start>
						<end>13504</end>
						<in>20538</in>
						<out>21421</out>
						<pproTicksIn>86949676800000</pproTicksIn>
						<pproTicksOut>90687945600000</pproTicksOut>
						<file id="file-96"/>
						<sourcetrack>
							<mediatype>audio</mediatype>
							<trackindex>1</trackindex>
						</sourcetrack>
						<filter>
							<effect>
								<name>Audio Levels</name>
								<effectid>audiolevels</effectid>
								<effectcategory>audiolevels</effectcategory>
								<effecttype>audiolevels</effecttype>
								<mediatype>audio</mediatype>
								<pproBypass>false</pproBypass>
								<parameter authoringApp="PremierePro">
									<parameterid>level</parameterid>
									<name>Level</name>
									<valuemin>0</valuemin>
									<valuemax>3.98109</valuemax>
									<value>0</value>
									<keyframe>
										<when>17117</when>
										<value>0</value>
									</keyframe>
									<keyframe>
										<when>17147</when>
										<value>1</value>
									</keyframe>
									<keyframe>
										<when>17243</when>
										<value>1</value>
									</keyframe>
									<keyframe>
										<when>17256</when>
										<value>0</value>
									</keyframe>
									<keyframe>
										<when>17367</when>
										<value>0</value>
									</keyframe>
									<keyframe>
										<when>17377</when>
										<value>0</value>
									</keyframe>
									<keyframe>
										<when>17918</when>
										<value>0</value>
									</keyframe>
									<keyframe>
										<when>17950</when>
										<value>0</value>
									</keyframe>
									<keyframe>
										<when>19157</when>
										<value>0</value>
									</keyframe>
									<keyframe>
										<when>19183</when>
										<value>0</value>
									</keyframe>
									<keyframe>
										<when>19590</when>
										<value>0</value>
									</keyframe>
									<keyframe>
										<when>19656</when>
										<value>1</value>
									</keyframe>
									<keyframe>
										<when>20245</when>
										<value>1</value>
									</keyframe>
									<keyframe>
										<when>20275</when>
										<value>0</value>
									</keyframe>
									<keyframe>
										<when>20433</when>
										<value>0</value>
									</keyframe>
									<keyframe>
										<when>20463</when>
										<value>0</value>
									</keyframe>
									<keyframe>
										<when>20539</when>
										<value>0</value>
									</keyframe>
									<keyframe>
										<when>20557</when>
										<value>1</value>
									</keyframe>
									<keyframe>
										<when>21357</when>
										<value>1</value>
									</keyframe>
									<keyframe>
										<when>21402</when>
										<value>0</value>
									</keyframe>
									<keyframe>
										<when>21647</when>
										<value>0</value>
									</keyframe>
									<keyframe>
										<when>21749</when>
										<value>1</value>
									</keyframe>
								</parameter>
							</effect>
						</filter>
							<marker>
								<comment></comment>
								<name></name>
								<in>8498</in>
								<out>-1</out>
							</marker>
						<link>
							<linkclipref>clipitem-696</linkclipref>
							<mediatype>audio</mediatype>
							<trackindex>15</trackindex>
							<clipindex>49</clipindex>
							<groupindex>1</groupindex>
						</link>
						<link>
							<linkclipref>clipitem-800</linkclipref>
							<mediatype>audio</mediatype>
							<trackindex>16</trackindex>
							<clipindex>49</clipindex>
							<groupindex>1</groupindex>
						</link>
						<logginginfo>
							<description></description>
							<scene></scene>
							<shottake></shottake>
							<lognote></lognote>
							<good></good>
							<originalvideofilename></originalvideofilename>
							<originalaudiofilename></originalaudiofilename>
						</logginginfo>
						<colorinfo>
							<lut></lut>
							<lut1></lut1>
							<asc_sop></asc_sop>
							<asc_sat></asc_sat>
							<lut2></lut2>
						</colorinfo>
						<labels>
							<label2>Green</label2>
						</labels>
					</clipitem>
					<clipitem id="clipitem-697" premiereChannelType="stereo">
						<masterclipid>masterclip-96</masterclipid>
						<name>Kate_ZOOM0001.WAV</name>
						<enabled>TRUE</enabled>
						<duration>81662</duration>
						<rate>
							<timebase>60</timebase>
							<ntsc>FALSE</ntsc>
						</rate>
						<start>14043</start>
						<end>14766</end>
						<in>21632</in>
						<out>22355</out>
						<pproTicksIn>91581235200000</pproTicksIn>
						<pproTicksOut>94642128000000</pproTicksOut>
						<file id="file-96"/>
						<sourcetrack>
							<mediatype>audio</mediatype>
							<trackindex>1</trackindex>
						</sourcetrack>
						<filter>
							<effect>
								<name>Audio Levels</name>
								<effectid>audiolevels</effectid>
								<effectcategory>audiolevels</effectcategory>
								<effecttype>audiolevels</effecttype>
								<mediatype>audio</mediatype>
								<pproBypass>false</pproBypass>
								<parameter authoringApp="PremierePro">
									<parameterid>level</parameterid>
									<name>Level</name>
									<valuemin>0</valuemin>
									<valuemax>3.98109</valuemax>
									<value>0</value>
									<keyframe>
										<when>17117</when>
										<value>0</value>
									</keyframe>
									<keyframe>
										<when>17147</when>
										<value>1</value>
									</keyframe>
									<keyframe>
										<when>17243</when>
										<value>1</value>
									</keyframe>
									<keyframe>
										<when>17256</when>
										<value>0</value>
									</keyframe>
									<keyframe>
										<when>17367</when>
										<value>0</value>
									</keyframe>
									<keyframe>
										<when>17377</when>
										<value>0</value>
									</keyframe>
									<keyframe>
										<when>17918</when>
										<value>0</value>
									</keyframe>
									<keyframe>
										<when>17950</when>
										<value>0</value>
									</keyframe>
									<keyframe>
										<when>19157</when>
										<value>0</value>
									</keyframe>
									<keyframe>
										<when>19183</when>
										<value>0</value>
									</keyframe>
									<keyframe>
										<when>19590</when>
										<value>0</value>
									</keyframe>
									<keyframe>
										<when>19656</when>
										<value>1</value>
									</keyframe>
									<keyframe>
										<when>20245</when>
										<value>1</value>
									</keyframe>
									<keyframe>
										<when>20275</when>
										<value>0</value>
									</keyframe>
									<keyframe>
										<when>20433</when>
										<value>0</value>
									</keyframe>
									<keyframe>
										<when>20463</when>
										<value>1</value>
									</keyframe>
									<keyframe>
										<when>21357</when>
										<value>1</value>
									</keyframe>
									<keyframe>
										<when>21402</when>
										<value>0</value>
									</keyframe>
									<keyframe>
										<when>21647</when>
										<value>0</value>
									</keyframe>
									<keyframe>
										<when>21749</when>
										<value>1</value>
									</keyframe>
									<keyframe>
										<when>21897</when>
										<value>1</value>
									</keyframe>
									<keyframe>
										<when>21904</when>
										<value>0</value>
									</keyframe>
									<keyframe>
										<when>21992</when>
										<value>0</value>
									</keyframe>
									<keyframe>
										<when>22009</when>
										<value>1</value>
									</keyframe>
									<keyframe>
										<when>22180</when>
										<value>1</value>
									</keyframe>
									<keyframe>
										<when>22257</when>
										<value>0</value>
									</keyframe>
									<keyframe>
										<when>22427</when>
										<value>0</value>
									</keyframe>
									<keyframe>
										<when>22478</when>
										<value>1</value>
									</keyframe>
								</parameter>
							</effect>
						</filter>
							<marker>
								<comment></comment>
								<name></name>
								<in>8498</in>
								<out>-1</out>
							</marker>
						<link>
							<linkclipref>clipitem-697</linkclipref>
							<mediatype>audio</mediatype>
							<trackindex>15</trackindex>
							<clipindex>50</clipindex>
							<groupindex>1</groupindex>
						</link>
						<link>
							<linkclipref>clipitem-801</linkclipref>
							<mediatype>audio</mediatype>
							<trackindex>16</trackindex>
							<clipindex>50</clipindex>
							<groupindex>1</groupindex>
						</link>
						<logginginfo>
							<description></description>
							<scene></scene>
							<shottake></shottake>
							<lognote></lognote>
							<good></good>
							<originalvideofilename></originalvideofilename>
							<originalaudiofilename></originalaudiofilename>
						</logginginfo>
						<colorinfo>
							<lut></lut>
							<lut1></lut1>
							<asc_sop></asc_sop>
							<asc_sat></asc_sat>
							<lut2></lut2>
						</colorinfo>
						<labels>
							<label2>Green</label2>
						</labels>
					</clipitem>
					<transitionitem>
						<start>18054</start>
						<end>18056</end>
						<alignment>start-black</alignment>
						<cutPointTicks>0</cutPointTicks>
						<rate>
							<timebase>60</timebase>
							<ntsc>FALSE</ntsc>
						</rate>
						<effect>
							<name>Cross Fade (+3dB)</name>
							<effectid>KGAudioTransCrossFade3dB</effectid>
							<effecttype>transition</effecttype>
							<mediatype>audio</mediatype>
							<wipecode>0</wipecode>
							<wipeaccuracy>100</wipeaccuracy>
							<startratio>0</startratio>
							<endratio>1</endratio>
							<reverse>FALSE</reverse>
						</effect>
					</transitionitem>
					<clipitem id="clipitem-698" premiereChannelType="stereo">
						<masterclipid>masterclip-96</masterclipid>
						<name>Kate_ZOOM0001.WAV</name>
						<enabled>TRUE</enabled>
						<duration>81662</duration>
						<rate>
							<timebase>60</timebase>
							<ntsc>FALSE</ntsc>
						</rate>
						<start>-1</start>
						<end>-1</end>
						<in>25497</in>
						<out>25642</out>
						<pproTicksIn>107944099200000</pproTicksIn>
						<pproTicksOut>108557971200000</pproTicksOut>
						<file id="file-96"/>
						<sourcetrack>
							<mediatype>audio</mediatype>
							<trackindex>1</trackindex>
						</sourcetrack>
						<filter>
							<effect>
								<name>Audio Levels</name>
								<effectid>audiolevels</effectid>
								<effectcategory>audiolevels</effectcategory>
								<effecttype>audiolevels</effecttype>
								<mediatype>audio</mediatype>
								<pproBypass>false</pproBypass>
								<parameter authoringApp="PremierePro">
									<parameterid>level</parameterid>
									<name>Level</name>
									<valuemin>0</valuemin>
									<valuemax>3.98109</valuemax>
									<value>0</value>
									<keyframe>
										<when>17117</when>
										<value>0</value>
									</keyframe>
									<keyframe>
										<when>17147</when>
										<value>1</value>
									</keyframe>
									<keyframe>
										<when>17243</when>
										<value>1</value>
									</keyframe>
									<keyframe>
										<when>17256</when>
										<value>0</value>
									</keyframe>
									<keyframe>
										<when>17367</when>
										<value>0</value>
									</keyframe>
									<keyframe>
										<when>17377</when>
										<value>0</value>
									</keyframe>
									<keyframe>
										<when>17918</when>
										<value>0</value>
									</keyframe>
									<keyframe>
										<when>17950</when>
										<value>0</value>
									</keyframe>
									<keyframe>
										<when>19157</when>
										<value>0</value>
									</keyframe>
									<keyframe>
										<when>19183</when>
										<value>0</value>
									</keyframe>
									<keyframe>
										<when>19590</when>
										<value>0</value>
									</keyframe>
									<keyframe>
										<when>19656</when>
										<value>1</value>
									</keyframe>
									<keyframe>
										<when>20245</when>
										<value>1</value>
									</keyframe>
									<keyframe>
										<when>20275</when>
										<value>0</value>
									</keyframe>
									<keyframe>
										<when>20433</when>
										<value>0</value>
									</keyframe>
									<keyframe>
										<when>20463</when>
										<value>1</value>
									</keyframe>
									<keyframe>
										<when>21357</when>
										<value>1</value>
									</keyframe>
									<keyframe>
										<when>21402</when>
										<value>0</value>
									</keyframe>
									<keyframe>
										<when>21647</when>
										<value>0</value>
									</keyframe>
									<keyframe>
										<when>21749</when>
										<value>1</value>
									</keyframe>
									<keyframe>
										<when>22205</when>
										<value>1</value>
									</keyframe>
									<keyframe>
										<when>22257</when>
										<value>0</value>
									</keyframe>
									<keyframe>
										<when>22427</when>
										<value>0</value>
									</keyframe>
									<keyframe>
										<when>22478</when>
										<value>1</value>
									</keyframe>
									<keyframe>
										<when>23004</when>
										<value>0</value>
									</keyframe>
									<keyframe>
										<when>23046</when>
										<value>1</value>
									</keyframe>
									<keyframe>
										<when>25497</when>
										<value>0</value>
									</keyframe>
									<keyframe>
										<when>25548</when>
										<value>1</value>
									</keyframe>
								</parameter>
							</effect>
						</filter>
							<marker>
								<comment></comment>
								<name></name>
								<in>8498</in>
								<out>-1</out>
							</marker>
						<link>
							<linkclipref>clipitem-698</linkclipref>
							<mediatype>audio</mediatype>
							<trackindex>15</trackindex>
							<clipindex>52</clipindex>
							<groupindex>1</groupindex>
						</link>
						<link>
							<linkclipref>clipitem-802</linkclipref>
							<mediatype>audio</mediatype>
							<trackindex>16</trackindex>
							<clipindex>52</clipindex>
							<groupindex>1</groupindex>
						</link>
						<logginginfo>
							<description></description>
							<scene></scene>
							<shottake></shottake>
							<lognote></lognote>
							<good></good>
							<originalvideofilename></originalvideofilename>
							<originalaudiofilename></originalaudiofilename>
						</logginginfo>
						<colorinfo>
							<lut></lut>
							<lut1></lut1>
							<asc_sop></asc_sop>
							<asc_sat></asc_sat>
							<lut2></lut2>
						</colorinfo>
						<labels>
							<label2>Green</label2>
						</labels>
					</clipitem>
					<transitionitem>
						<start>18197</start>
						<end>18199</end>
						<alignment>center</alignment>
						<cutPointTicks>4233600000</cutPointTicks>
						<rate>
							<timebase>60</timebase>
							<ntsc>FALSE</ntsc>
						</rate>
						<effect>
							<name>Cross Fade (+3dB)</name>
							<effectid>KGAudioTransCrossFade3dB</effectid>
							<effecttype>transition</effecttype>
							<mediatype>audio</mediatype>
							<wipecode>0</wipecode>
							<wipeaccuracy>100</wipeaccuracy>
							<startratio>0</startratio>
							<endratio>1</endratio>
							<reverse>FALSE</reverse>
						</effect>
					</transitionitem>
					<clipitem id="clipitem-699" premiereChannelType="stereo">
						<masterclipid>masterclip-96</masterclipid>
						<name>Kate_ZOOM0001.WAV</name>
						<enabled>TRUE</enabled>
						<duration>81662</duration>
						<rate>
							<timebase>60</timebase>
							<ntsc>FALSE</ntsc>
						</rate>
						<start>-1</start>
						<end>-1</end>
						<in>25657</in>
						<out>25872</out>
						<pproTicksIn>108621475200000</pproTicksIn>
						<pproTicksOut>109531699200000</pproTicksOut>
						<file id="file-96"/>
						<sourcetrack>
							<mediatype>audio</mediatype>
							<trackindex>1</trackindex>
						</sourcetrack>
						<filter>
							<effect>
								<name>Audio Levels</name>
								<effectid>audiolevels</effectid>
								<effectcategory>audiolevels</effectcategory>
								<effecttype>audiolevels</effecttype>
								<mediatype>audio</mediatype>
								<pproBypass>false</pproBypass>
								<parameter authoringApp="PremierePro">
									<parameterid>level</parameterid>
									<name>Level</name>
									<valuemin>0</valuemin>
									<valuemax>3.98109</valuemax>
									<value>0</value>
									<keyframe>
										<when>17117</when>
										<value>0</value>
									</keyframe>
									<keyframe>
										<when>17147</when>
										<value>1</value>
									</keyframe>
									<keyframe>
										<when>17243</when>
										<value>1</value>
									</keyframe>
									<keyframe>
										<when>17256</when>
										<value>0</value>
									</keyframe>
									<keyframe>
										<when>17367</when>
										<value>0</value>
									</keyframe>
									<keyframe>
										<when>17377</when>
										<value>0</value>
									</keyframe>
									<keyframe>
										<when>17918</when>
										<value>0</value>
									</keyframe>
									<keyframe>
										<when>17950</when>
										<value>0</value>
									</keyframe>
									<keyframe>
										<when>19157</when>
										<value>0</value>
									</keyframe>
									<keyframe>
										<when>19183</when>
										<value>0</value>
									</keyframe>
									<keyframe>
										<when>19590</when>
										<value>0</value>
									</keyframe>
									<keyframe>
										<when>19656</when>
										<value>1</value>
									</keyframe>
									<keyframe>
										<when>20245</when>
										<value>1</value>
									</keyframe>
									<keyframe>
										<when>20275</when>
										<value>0</value>
									</keyframe>
									<keyframe>
										<when>20433</when>
										<value>0</value>
									</keyframe>
									<keyframe>
										<when>20463</when>
										<value>1</value>
									</keyframe>
									<keyframe>
										<when>21357</when>
										<value>1</value>
									</keyframe>
									<keyframe>
										<when>21402</when>
										<value>0</value>
									</keyframe>
									<keyframe>
										<when>21647</when>
										<value>0</value>
									</keyframe>
									<keyframe>
										<when>21749</when>
										<value>1</value>
									</keyframe>
									<keyframe>
										<when>22205</when>
										<value>1</value>
									</keyframe>
									<keyframe>
										<when>22257</when>
										<value>0</value>
									</keyframe>
									<keyframe>
										<when>22427</when>
										<value>0</value>
									</keyframe>
									<keyframe>
										<when>22478</when>
										<value>1</value>
									</keyframe>
									<keyframe>
										<when>23004</when>
										<value>0</value>
									</keyframe>
									<keyframe>
										<when>23046</when>
										<value>1</value>
									</keyframe>
									<keyframe>
										<when>25497</when>
										<value>0</value>
									</keyframe>
									<keyframe>
										<when>25548</when>
										<value>1</value>
									</keyframe>
								</parameter>
							</effect>
						</filter>
							<marker>
								<comment></comment>
								<name></name>
								<in>8498</in>
								<out>-1</out>
							</marker>
						<link>
							<linkclipref>clipitem-699</linkclipref>
							<mediatype>audio</mediatype>
							<trackindex>15</trackindex>
							<clipindex>54</clipindex>
							<groupindex>1</groupindex>
						</link>
						<link>
							<linkclipref>clipitem-803</linkclipref>
							<mediatype>audio</mediatype>
							<trackindex>16</trackindex>
							<clipindex>54</clipindex>
							<groupindex>1</groupindex>
						</link>
						<logginginfo>
							<description></description>
							<scene></scene>
							<shottake></shottake>
							<lognote></lognote>
							<good></good>
							<originalvideofilename></originalvideofilename>
							<originalaudiofilename></originalaudiofilename>
						</logginginfo>
						<colorinfo>
							<lut></lut>
							<lut1></lut1>
							<asc_sop></asc_sop>
							<asc_sat></asc_sat>
							<lut2></lut2>
						</colorinfo>
						<labels>
							<label2>Green</label2>
						</labels>
					</clipitem>
					<transitionitem>
						<start>18410</start>
						<end>18412</end>
						<alignment>center</alignment>
						<cutPointTicks>4233600000</cutPointTicks>
						<rate>
							<timebase>60</timebase>
							<ntsc>FALSE</ntsc>
						</rate>
						<effect>
							<name>Cross Fade (+3dB)</name>
							<effectid>KGAudioTransCrossFade3dB</effectid>
							<effecttype>transition</effecttype>
							<mediatype>audio</mediatype>
							<wipecode>0</wipecode>
							<wipeaccuracy>100</wipeaccuracy>
							<startratio>0</startratio>
							<endratio>1</endratio>
							<reverse>FALSE</reverse>
						</effect>
					</transitionitem>
					<clipitem id="clipitem-700" premiereChannelType="stereo">
						<masterclipid>masterclip-96</masterclipid>
						<name>Kate_ZOOM0001.WAV</name>
						<enabled>TRUE</enabled>
						<duration>81662</duration>
						<rate>
							<timebase>60</timebase>
							<ntsc>FALSE</ntsc>
						</rate>
						<start>-1</start>
						<end>-1</end>
						<in>25899</in>
						<out>26071</out>
						<pproTicksIn>109646006400000</pproTicksIn>
						<pproTicksOut>110374185600000</pproTicksOut>
						<file id="file-96"/>
						<sourcetrack>
							<mediatype>audio</mediatype>
							<trackindex>1</trackindex>
						</sourcetrack>
						<filter>
							<effect>
								<name>Audio Levels</name>
								<effectid>audiolevels</effectid>
								<effectcategory>audiolevels</effectcategory>
								<effecttype>audiolevels</effecttype>
								<mediatype>audio</mediatype>
								<pproBypass>false</pproBypass>
								<parameter authoringApp="PremierePro">
									<parameterid>level</parameterid>
									<name>Level</name>
									<valuemin>0</valuemin>
									<valuemax>3.98109</valuemax>
									<value>0</value>
									<keyframe>
										<when>17117</when>
										<value>0</value>
									</keyframe>
									<keyframe>
										<when>17147</when>
										<value>1</value>
									</keyframe>
									<keyframe>
										<when>17243</when>
										<value>1</value>
									</keyframe>
									<keyframe>
										<when>17256</when>
										<value>0</value>
									</keyframe>
									<keyframe>
										<when>17367</when>
										<value>0</value>
									</keyframe>
									<keyframe>
										<when>17377</when>
										<value>0</value>
									</keyframe>
									<keyframe>
										<when>17918</when>
										<value>0</value>
									</keyframe>
									<keyframe>
										<when>17950</when>
										<value>0</value>
									</keyframe>
									<keyframe>
										<when>19157</when>
										<value>0</value>
									</keyframe>
									<keyframe>
										<when>19183</when>
										<value>0</value>
									</keyframe>
									<keyframe>
										<when>19590</when>
										<value>0</value>
									</keyframe>
									<keyframe>
										<when>19656</when>
										<value>1</value>
									</keyframe>
									<keyframe>
										<when>20245</when>
										<value>1</value>
									</keyframe>
									<keyframe>
										<when>20275</when>
										<value>0</value>
									</keyframe>
									<keyframe>
										<when>20433</when>
										<value>0</value>
									</keyframe>
									<keyframe>
										<when>20463</when>
										<value>1</value>
									</keyframe>
									<keyframe>
										<when>21357</when>
										<value>1</value>
									</keyframe>
									<keyframe>
										<when>21402</when>
										<value>0</value>
									</keyframe>
									<keyframe>
										<when>21647</when>
										<value>0</value>
									</keyframe>
									<keyframe>
										<when>21749</when>
										<value>1</value>
									</keyframe>
									<keyframe>
										<when>22205</when>
										<value>1</value>
									</keyframe>
									<keyframe>
										<when>22257</when>
										<value>0</value>
									</keyframe>
									<keyframe>
										<when>22427</when>
										<value>0</value>
									</keyframe>
									<keyframe>
										<when>22478</when>
										<value>1</value>
									</keyframe>
									<keyframe>
										<when>23004</when>
										<value>0</value>
									</keyframe>
									<keyframe>
										<when>23046</when>
										<value>1</value>
									</keyframe>
									<keyframe>
										<when>25497</when>
										<value>0</value>
									</keyframe>
									<keyframe>
										<when>25548</when>
										<value>1</value>
									</keyframe>
									<keyframe>
										<when>26028</when>
										<value>1</value>
									</keyframe>
									<keyframe>
										<when>26071</when>
										<value>0</value>
									</keyframe>
								</parameter>
							</effect>
						</filter>
							<marker>
								<comment></comment>
								<name></name>
								<in>8498</in>
								<out>-1</out>
							</marker>
						<link>
							<linkclipref>clipitem-700</linkclipref>
							<mediatype>audio</mediatype>
							<trackindex>15</trackindex>
							<clipindex>56</clipindex>
							<groupindex>1</groupindex>
						</link>
						<link>
							<linkclipref>clipitem-804</linkclipref>
							<mediatype>audio</mediatype>
							<trackindex>16</trackindex>
							<clipindex>56</clipindex>
							<groupindex>1</groupindex>
						</link>
						<logginginfo>
							<description></description>
							<scene></scene>
							<shottake></shottake>
							<lognote></lognote>
							<good></good>
							<originalvideofilename></originalvideofilename>
							<originalaudiofilename></originalaudiofilename>
						</logginginfo>
						<colorinfo>
							<lut></lut>
							<lut1></lut1>
							<asc_sop></asc_sop>
							<asc_sat></asc_sat>
							<lut2></lut2>
						</colorinfo>
						<labels>
							<label2>Green</label2>
						</labels>
					</clipitem>
					<transitionitem>
						<start>18580</start>
						<end>18582</end>
						<alignment>end-black</alignment>
						<cutPointTicks>8467200000</cutPointTicks>
						<rate>
							<timebase>60</timebase>
							<ntsc>FALSE</ntsc>
						</rate>
						<effect>
							<name>Cross Fade (+3dB)</name>
							<effectid>KGAudioTransCrossFade3dB</effectid>
							<effecttype>transition</effecttype>
							<mediatype>audio</mediatype>
							<wipecode>0</wipecode>
							<wipeaccuracy>100</wipeaccuracy>
							<startratio>0</startratio>
							<endratio>1</endratio>
							<reverse>FALSE</reverse>
						</effect>
					</transitionitem>
					<transitionitem>
						<start>19469</start>
						<end>19471</end>
						<alignment>start-black</alignment>
						<cutPointTicks>0</cutPointTicks>
						<rate>
							<timebase>60</timebase>
							<ntsc>FALSE</ntsc>
						</rate>
						<effect>
							<name>Cross Fade (+3dB)</name>
							<effectid>KGAudioTransCrossFade3dB</effectid>
							<effecttype>transition</effecttype>
							<mediatype>audio</mediatype>
							<wipecode>0</wipecode>
							<wipeaccuracy>100</wipeaccuracy>
							<startratio>0</startratio>
							<endratio>1</endratio>
							<reverse>FALSE</reverse>
						</effect>
					</transitionitem>
					<clipitem id="clipitem-701" premiereChannelType="stereo">
						<masterclipid>masterclip-96</masterclipid>
						<name>Kate_ZOOM0001.WAV</name>
						<enabled>TRUE</enabled>
						<duration>81662</duration>
						<rate>
							<timebase>60</timebase>
							<ntsc>FALSE</ntsc>
						</rate>
						<start>-1</start>
						<end>-1</end>
						<in>27176</in>
						<out>27229</out>
						<pproTicksIn>115052313600000</pproTicksIn>
						<pproTicksOut>115276694400000</pproTicksOut>
						<file id="file-96"/>
						<sourcetrack>
							<mediatype>audio</mediatype>
							<trackindex>1</trackindex>
						</sourcetrack>
						<filter>
							<effect>
								<name>Audio Levels</name>
								<effectid>audiolevels</effectid>
								<effectcategory>audiolevels</effectcategory>
								<effecttype>audiolevels</effecttype>
								<mediatype>audio</mediatype>
								<pproBypass>false</pproBypass>
								<parameter authoringApp="PremierePro">
									<parameterid>level</parameterid>
									<name>Level</name>
									<valuemin>0</valuemin>
									<valuemax>3.98109</valuemax>
									<value>0</value>
									<keyframe>
										<when>17117</when>
										<value>0</value>
									</keyframe>
									<keyframe>
										<when>17147</when>
										<value>1</value>
									</keyframe>
									<keyframe>
										<when>17243</when>
										<value>1</value>
									</keyframe>
									<keyframe>
										<when>17256</when>
										<value>0</value>
									</keyframe>
									<keyframe>
										<when>17367</when>
										<value>0</value>
									</keyframe>
									<keyframe>
										<when>17377</when>
										<value>0</value>
									</keyframe>
									<keyframe>
										<when>17918</when>
										<value>0</value>
									</keyframe>
									<keyframe>
										<when>17950</when>
										<value>0</value>
									</keyframe>
									<keyframe>
										<when>19157</when>
										<value>0</value>
									</keyframe>
									<keyframe>
										<when>19183</when>
										<value>0</value>
									</keyframe>
									<keyframe>
										<when>19590</when>
										<value>0</value>
									</keyframe>
									<keyframe>
										<when>19656</when>
										<value>1</value>
									</keyframe>
									<keyframe>
										<when>20245</when>
										<value>1</value>
									</keyframe>
									<keyframe>
										<when>20275</when>
										<value>0</value>
									</keyframe>
									<keyframe>
										<when>20433</when>
										<value>0</value>
									</keyframe>
									<keyframe>
										<when>20463</when>
										<value>1</value>
									</keyframe>
									<keyframe>
										<when>21357</when>
										<value>1</value>
									</keyframe>
									<keyframe>
										<when>21402</when>
										<value>0</value>
									</keyframe>
									<keyframe>
										<when>21647</when>
										<value>0</value>
									</keyframe>
									<keyframe>
										<when>21749</when>
										<value>1</value>
									</keyframe>
									<keyframe>
										<when>22205</when>
										<value>1</value>
									</keyframe>
									<keyframe>
										<when>22257</when>
										<value>0</value>
									</keyframe>
									<keyframe>
										<when>22427</when>
										<value>0</value>
									</keyframe>
									<keyframe>
										<when>22478</when>
										<value>1</value>
									</keyframe>
									<keyframe>
										<when>23004</when>
										<value>0</value>
									</keyframe>
									<keyframe>
										<when>23046</when>
										<value>1</value>
									</keyframe>
									<keyframe>
										<when>25497</when>
										<value>0</value>
									</keyframe>
									<keyframe>
										<when>25548</when>
										<value>1</value>
									</keyframe>
									<keyframe>
										<when>26934</when>
										<value>0</value>
									</keyframe>
									<keyframe>
										<when>26994</when>
										<value>1</value>
									</keyframe>
									<keyframe>
										<when>28229</when>
										<value>1</value>
									</keyframe>
									<keyframe>
										<when>28310</when>
										<value>0</value>
									</keyframe>
								</parameter>
							</effect>
						</filter>
							<marker>
								<comment></comment>
								<name></name>
								<in>8498</in>
								<out>-1</out>
							</marker>
						<link>
							<linkclipref>clipitem-701</linkclipref>
							<mediatype>audio</mediatype>
							<trackindex>15</trackindex>
							<clipindex>59</clipindex>
							<groupindex>1</groupindex>
						</link>
						<link>
							<linkclipref>clipitem-805</linkclipref>
							<mediatype>audio</mediatype>
							<trackindex>16</trackindex>
							<clipindex>59</clipindex>
							<groupindex>1</groupindex>
						</link>
						<logginginfo>
							<description></description>
							<scene></scene>
							<shottake></shottake>
							<lognote></lognote>
							<good></good>
							<originalvideofilename></originalvideofilename>
							<originalaudiofilename></originalaudiofilename>
						</logginginfo>
						<colorinfo>
							<lut></lut>
							<lut1></lut1>
							<asc_sop></asc_sop>
							<asc_sat></asc_sat>
							<lut2></lut2>
						</colorinfo>
						<labels>
							<label2>Violet</label2>
						</labels>
					</clipitem>
					<transitionitem>
						<start>19520</start>
						<end>19522</end>
						<alignment>center</alignment>
						<cutPointTicks>4233600000</cutPointTicks>
						<rate>
							<timebase>60</timebase>
							<ntsc>FALSE</ntsc>
						</rate>
						<effect>
							<name>Cross Fade (+3dB)</name>
							<effectid>KGAudioTransCrossFade3dB</effectid>
							<effecttype>transition</effecttype>
							<mediatype>audio</mediatype>
							<wipecode>0</wipecode>
							<wipeaccuracy>100</wipeaccuracy>
							<startratio>0</startratio>
							<endratio>1</endratio>
							<reverse>FALSE</reverse>
						</effect>
					</transitionitem>
					<clipitem id="clipitem-702" premiereChannelType="stereo">
						<masterclipid>masterclip-96</masterclipid>
						<name>Kate_ZOOM0001.WAV</name>
						<enabled>TRUE</enabled>
						<duration>81662</duration>
						<rate>
							<timebase>60</timebase>
							<ntsc>FALSE</ntsc>
						</rate>
						<start>-1</start>
						<end>-1</end>
						<in>27262</in>
						<out>27323</out>
						<pproTicksIn>115416403200000</pproTicksIn>
						<pproTicksOut>115674652800000</pproTicksOut>
						<file id="file-96"/>
						<sourcetrack>
							<mediatype>audio</mediatype>
							<trackindex>1</trackindex>
						</sourcetrack>
						<filter>
							<effect>
								<name>Audio Levels</name>
								<effectid>audiolevels</effectid>
								<effectcategory>audiolevels</effectcategory>
								<effecttype>audiolevels</effecttype>
								<mediatype>audio</mediatype>
								<pproBypass>false</pproBypass>
								<parameter authoringApp="PremierePro">
									<parameterid>level</parameterid>
									<name>Level</name>
									<valuemin>0</valuemin>
									<valuemax>3.98109</valuemax>
									<value>0</value>
									<keyframe>
										<when>17117</when>
										<value>0</value>
									</keyframe>
									<keyframe>
										<when>17147</when>
										<value>1</value>
									</keyframe>
									<keyframe>
										<when>17243</when>
										<value>1</value>
									</keyframe>
									<keyframe>
										<when>17256</when>
										<value>0</value>
									</keyframe>
									<keyframe>
										<when>17367</when>
										<value>0</value>
									</keyframe>
									<keyframe>
										<when>17377</when>
										<value>0</value>
									</keyframe>
									<keyframe>
										<when>17918</when>
										<value>0</value>
									</keyframe>
									<keyframe>
										<when>17950</when>
										<value>0</value>
									</keyframe>
									<keyframe>
										<when>19157</when>
										<value>0</value>
									</keyframe>
									<keyframe>
										<when>19183</when>
										<value>0</value>
									</keyframe>
									<keyframe>
										<when>19590</when>
										<value>0</value>
									</keyframe>
									<keyframe>
										<when>19656</when>
										<value>1</value>
									</keyframe>
									<keyframe>
										<when>20245</when>
										<value>1</value>
									</keyframe>
									<keyframe>
										<when>20275</when>
										<value>0</value>
									</keyframe>
									<keyframe>
										<when>20433</when>
										<value>0</value>
									</keyframe>
									<keyframe>
										<when>20463</when>
										<value>1</value>
									</keyframe>
									<keyframe>
										<when>21357</when>
										<value>1</value>
									</keyframe>
									<keyframe>
										<when>21402</when>
										<value>0</value>
									</keyframe>
									<keyframe>
										<when>21647</when>
										<value>0</value>
									</keyframe>
									<keyframe>
										<when>21749</when>
										<value>1</value>
									</keyframe>
									<keyframe>
										<when>22205</when>
										<value>1</value>
									</keyframe>
									<keyframe>
										<when>22257</when>
										<value>0</value>
									</keyframe>
									<keyframe>
										<when>22427</when>
										<value>0</value>
									</keyframe>
									<keyframe>
										<when>22478</when>
										<value>1</value>
									</keyframe>
									<keyframe>
										<when>23004</when>
										<value>0</value>
									</keyframe>
									<keyframe>
										<when>23046</when>
										<value>1</value>
									</keyframe>
									<keyframe>
										<when>25497</when>
										<value>0</value>
									</keyframe>
									<keyframe>
										<when>25548</when>
										<value>1</value>
									</keyframe>
									<keyframe>
										<when>26934</when>
										<value>0</value>
									</keyframe>
									<keyframe>
										<when>26994</when>
										<value>1</value>
									</keyframe>
									<keyframe>
										<when>27309</when>
										<value>1</value>
									</keyframe>
									<keyframe>
										<when>27323</when>
										<value>0</value>
									</keyframe>
									<keyframe>
										<when>28229</when>
										<value>1</value>
									</keyframe>
									<keyframe>
										<when>28310</when>
										<value>0</value>
									</keyframe>
								</parameter>
							</effect>
						</filter>
							<marker>
								<comment></comment>
								<name></name>
								<in>8498</in>
								<out>-1</out>
							</marker>
						<link>
							<linkclipref>clipitem-702</linkclipref>
							<mediatype>audio</mediatype>
							<trackindex>15</trackindex>
							<clipindex>61</clipindex>
							<groupindex>1</groupindex>
						</link>
						<link>
							<linkclipref>clipitem-806</linkclipref>
							<mediatype>audio</mediatype>
							<trackindex>16</trackindex>
							<clipindex>61</clipindex>
							<groupindex>1</groupindex>
						</link>
						<logginginfo>
							<description></description>
							<scene></scene>
							<shottake></shottake>
							<lognote></lognote>
							<good></good>
							<originalvideofilename></originalvideofilename>
							<originalaudiofilename></originalaudiofilename>
						</logginginfo>
						<colorinfo>
							<lut></lut>
							<lut1></lut1>
							<asc_sop></asc_sop>
							<asc_sat></asc_sat>
							<lut2></lut2>
						</colorinfo>
						<labels>
							<label2>Violet</label2>
						</labels>
					</clipitem>
					<transitionitem>
						<start>19579</start>
						<end>19581</end>
						<alignment>end-black</alignment>
						<cutPointTicks>8467200000</cutPointTicks>
						<rate>
							<timebase>60</timebase>
							<ntsc>FALSE</ntsc>
						</rate>
						<effect>
							<name>Cross Fade (+3dB)</name>
							<effectid>KGAudioTransCrossFade3dB</effectid>
							<effecttype>transition</effecttype>
							<mediatype>audio</mediatype>
							<wipecode>0</wipecode>
							<wipeaccuracy>100</wipeaccuracy>
							<startratio>0</startratio>
							<endratio>1</endratio>
							<reverse>FALSE</reverse>
						</effect>
					</transitionitem>
					<transitionitem>
						<start>19614</start>
						<end>19616</end>
						<alignment>start-black</alignment>
						<cutPointTicks>0</cutPointTicks>
						<rate>
							<timebase>60</timebase>
							<ntsc>FALSE</ntsc>
						</rate>
						<effect>
							<name>Cross Fade (+3dB)</name>
							<effectid>KGAudioTransCrossFade3dB</effectid>
							<effecttype>transition</effecttype>
							<mediatype>audio</mediatype>
							<wipecode>0</wipecode>
							<wipeaccuracy>100</wipeaccuracy>
							<startratio>0</startratio>
							<endratio>1</endratio>
							<reverse>FALSE</reverse>
						</effect>
					</transitionitem>
					<clipitem id="clipitem-703" premiereChannelType="stereo">
						<masterclipid>masterclip-96</masterclipid>
						<name>Kate_ZOOM0001.WAV</name>
						<enabled>TRUE</enabled>
						<duration>81662</duration>
						<rate>
							<timebase>60</timebase>
							<ntsc>FALSE</ntsc>
						</rate>
						<start>-1</start>
						<end>19679</end>
						<in>27376</in>
						<out>27441</out>
						<pproTicksIn>115899033600000</pproTicksIn>
						<pproTicksOut>116174217600000</pproTicksOut>
						<file id="file-96"/>
						<sourcetrack>
							<mediatype>audio</mediatype>
							<trackindex>1</trackindex>
						</sourcetrack>
						<filter>
							<effect>
								<name>Audio Levels</name>
								<effectid>audiolevels</effectid>
								<effectcategory>audiolevels</effectcategory>
								<effecttype>audiolevels</effecttype>
								<mediatype>audio</mediatype>
								<pproBypass>false</pproBypass>
								<parameter authoringApp="PremierePro">
									<parameterid>level</parameterid>
									<name>Level</name>
									<valuemin>0</valuemin>
									<valuemax>3.98109</valuemax>
									<value>0</value>
									<keyframe>
										<when>17117</when>
										<value>0</value>
									</keyframe>
									<keyframe>
										<when>17147</when>
										<value>1</value>
									</keyframe>
									<keyframe>
										<when>17243</when>
										<value>1</value>
									</keyframe>
									<keyframe>
										<when>17256</when>
										<value>0</value>
									</keyframe>
									<keyframe>
										<when>17367</when>
										<value>0</value>
									</keyframe>
									<keyframe>
										<when>17377</when>
										<value>0</value>
									</keyframe>
									<keyframe>
										<when>17918</when>
										<value>0</value>
									</keyframe>
									<keyframe>
										<when>17950</when>
										<value>0</value>
									</keyframe>
									<keyframe>
										<when>19157</when>
										<value>0</value>
									</keyframe>
									<keyframe>
										<when>19183</when>
										<value>0</value>
									</keyframe>
									<keyframe>
										<when>19590</when>
										<value>0</value>
									</keyframe>
									<keyframe>
										<when>19656</when>
										<value>1</value>
									</keyframe>
									<keyframe>
										<when>20245</when>
										<value>1</value>
									</keyframe>
									<keyframe>
										<when>20275</when>
										<value>0</value>
									</keyframe>
									<keyframe>
										<when>20433</when>
										<value>0</value>
									</keyframe>
									<keyframe>
										<when>20463</when>
										<value>1</value>
									</keyframe>
									<keyframe>
										<when>21357</when>
										<value>1</value>
									</keyframe>
									<keyframe>
										<when>21402</when>
										<value>0</value>
									</keyframe>
									<keyframe>
										<when>21647</when>
										<value>0</value>
									</keyframe>
									<keyframe>
										<when>21749</when>
										<value>1</value>
									</keyframe>
									<keyframe>
										<when>22205</when>
										<value>1</value>
									</keyframe>
									<keyframe>
										<when>22257</when>
										<value>0</value>
									</keyframe>
									<keyframe>
										<when>22427</when>
										<value>0</value>
									</keyframe>
									<keyframe>
										<when>22478</when>
										<value>1</value>
									</keyframe>
									<keyframe>
										<when>23004</when>
										<value>0</value>
									</keyframe>
									<keyframe>
										<when>23046</when>
										<value>1</value>
									</keyframe>
									<keyframe>
										<when>25497</when>
										<value>0</value>
									</keyframe>
									<keyframe>
										<when>25548</when>
										<value>1</value>
									</keyframe>
									<keyframe>
										<when>26934</when>
										<value>0</value>
									</keyframe>
									<keyframe>
										<when>26994</when>
										<value>1</value>
									</keyframe>
									<keyframe>
										<when>27433</when>
										<value>1</value>
									</keyframe>
									<keyframe>
										<when>27441</when>
										<value>0</value>
									</keyframe>
									<keyframe>
										<when>28229</when>
										<value>1</value>
									</keyframe>
									<keyframe>
										<when>28310</when>
										<value>0</value>
									</keyframe>
								</parameter>
							</effect>
						</filter>
							<marker>
								<comment></comment>
								<name></name>
								<in>8498</in>
								<out>-1</out>
							</marker>
						<link>
							<linkclipref>clipitem-703</linkclipref>
							<mediatype>audio</mediatype>
							<trackindex>15</trackindex>
							<clipindex>64</clipindex>
							<groupindex>1</groupindex>
						</link>
						<link>
							<linkclipref>clipitem-807</linkclipref>
							<mediatype>audio</mediatype>
							<trackindex>16</trackindex>
							<clipindex>64</clipindex>
							<groupindex>1</groupindex>
						</link>
						<logginginfo>
							<description></description>
							<scene></scene>
							<shottake></shottake>
							<lognote></lognote>
							<good></good>
							<originalvideofilename></originalvideofilename>
							<originalaudiofilename></originalaudiofilename>
						</logginginfo>
						<colorinfo>
							<lut></lut>
							<lut1></lut1>
							<asc_sop></asc_sop>
							<asc_sat></asc_sat>
							<lut2></lut2>
						</colorinfo>
						<labels>
							<label2>Violet</label2>
						</labels>
					</clipitem>
					<transitionitem>
						<start>19735</start>
						<end>19737</end>
						<alignment>start-black</alignment>
						<cutPointTicks>0</cutPointTicks>
						<rate>
							<timebase>60</timebase>
							<ntsc>FALSE</ntsc>
						</rate>
						<effect>
							<name>Cross Fade (+3dB)</name>
							<effectid>KGAudioTransCrossFade3dB</effectid>
							<effecttype>transition</effecttype>
							<mediatype>audio</mediatype>
							<wipecode>0</wipecode>
							<wipeaccuracy>100</wipeaccuracy>
							<startratio>0</startratio>
							<endratio>1</endratio>
							<reverse>FALSE</reverse>
						</effect>
					</transitionitem>
					<clipitem id="clipitem-704" premiereChannelType="stereo">
						<masterclipid>masterclip-96</masterclipid>
						<name>Kate_ZOOM0001.WAV</name>
						<enabled>TRUE</enabled>
						<duration>81662</duration>
						<rate>
							<timebase>60</timebase>
							<ntsc>FALSE</ntsc>
						</rate>
						<start>-1</start>
						<end>-1</end>
						<in>28033</in>
						<out>28310</out>
						<pproTicksIn>118680508800000</pproTicksIn>
						<pproTicksOut>119853216000000</pproTicksOut>
						<file id="file-96"/>
						<sourcetrack>
							<mediatype>audio</mediatype>
							<trackindex>1</trackindex>
						</sourcetrack>
						<filter>
							<effect>
								<name>Audio Levels</name>
								<effectid>audiolevels</effectid>
								<effectcategory>audiolevels</effectcategory>
								<effecttype>audiolevels</effecttype>
								<mediatype>audio</mediatype>
								<pproBypass>false</pproBypass>
								<parameter authoringApp="PremierePro">
									<parameterid>level</parameterid>
									<name>Level</name>
									<valuemin>0</valuemin>
									<valuemax>3.98109</valuemax>
									<value>0</value>
									<keyframe>
										<when>17117</when>
										<value>0</value>
									</keyframe>
									<keyframe>
										<when>17147</when>
										<value>1</value>
									</keyframe>
									<keyframe>
										<when>17243</when>
										<value>1</value>
									</keyframe>
									<keyframe>
										<when>17256</when>
										<value>0</value>
									</keyframe>
									<keyframe>
										<when>17367</when>
										<value>0</value>
									</keyframe>
									<keyframe>
										<when>17377</when>
										<value>0</value>
									</keyframe>
									<keyframe>
										<when>17918</when>
										<value>0</value>
									</keyframe>
									<keyframe>
										<when>17950</when>
										<value>0</value>
									</keyframe>
									<keyframe>
										<when>19157</when>
										<value>0</value>
									</keyframe>
									<keyframe>
										<when>19183</when>
										<value>0</value>
									</keyframe>
									<keyframe>
										<when>19590</when>
										<value>0</value>
									</keyframe>
									<keyframe>
										<when>19656</when>
										<value>1</value>
									</keyframe>
									<keyframe>
										<when>20245</when>
										<value>1</value>
									</keyframe>
									<keyframe>
										<when>20275</when>
										<value>0</value>
									</keyframe>
									<keyframe>
										<when>20433</when>
										<value>0</value>
									</keyframe>
									<keyframe>
										<when>20463</when>
										<value>1</value>
									</keyframe>
									<keyframe>
										<when>21357</when>
										<value>1</value>
									</keyframe>
									<keyframe>
										<when>21402</when>
										<value>0</value>
									</keyframe>
									<keyframe>
										<when>21647</when>
										<value>0</value>
									</keyframe>
									<keyframe>
										<when>21749</when>
										<value>1</value>
									</keyframe>
									<keyframe>
										<when>22205</when>
										<value>1</value>
									</keyframe>
									<keyframe>
										<when>22257</when>
										<value>0</value>
									</keyframe>
									<keyframe>
										<when>22427</when>
										<value>0</value>
									</keyframe>
									<keyframe>
										<when>22478</when>
										<value>1</value>
									</keyframe>
									<keyframe>
										<when>23004</when>
										<value>0</value>
									</keyframe>
									<keyframe>
										<when>23046</when>
										<value>1</value>
									</keyframe>
									<keyframe>
										<when>25497</when>
										<value>0</value>
									</keyframe>
									<keyframe>
										<when>25548</when>
										<value>1</value>
									</keyframe>
									<keyframe>
										<when>26934</when>
										<value>0</value>
									</keyframe>
									<keyframe>
										<when>26994</when>
										<value>1</value>
									</keyframe>
									<keyframe>
										<when>28135</when>
										<value>1</value>
									</keyframe>
									<keyframe>
										<when>28179</when>
										<value>0.344681</value>
									</keyframe>
									<keyframe>
										<when>28229</when>
										<value>0.344681</value>
									</keyframe>
									<keyframe>
										<when>28310</when>
										<value>0</value>
									</keyframe>
								</parameter>
							</effect>
						</filter>
							<marker>
								<comment></comment>
								<name></name>
								<in>8498</in>
								<out>-1</out>
							</marker>
						<link>
							<linkclipref>clipitem-704</linkclipref>
							<mediatype>audio</mediatype>
							<trackindex>15</trackindex>
							<clipindex>66</clipindex>
							<groupindex>1</groupindex>
						</link>
						<link>
							<linkclipref>clipitem-808</linkclipref>
							<mediatype>audio</mediatype>
							<trackindex>16</trackindex>
							<clipindex>66</clipindex>
							<groupindex>1</groupindex>
						</link>
						<logginginfo>
							<description></description>
							<scene></scene>
							<shottake></shottake>
							<lognote></lognote>
							<good></good>
							<originalvideofilename></originalvideofilename>
							<originalaudiofilename></originalaudiofilename>
						</logginginfo>
						<colorinfo>
							<lut></lut>
							<lut1></lut1>
							<asc_sop></asc_sop>
							<asc_sat></asc_sat>
							<lut2></lut2>
						</colorinfo>
						<labels>
							<label2>Violet</label2>
						</labels>
					</clipitem>
					<transitionitem>
						<start>20010</start>
						<end>20012</end>
						<alignment>end-black</alignment>
						<cutPointTicks>8467200000</cutPointTicks>
						<rate>
							<timebase>60</timebase>
							<ntsc>FALSE</ntsc>
						</rate>
						<effect>
							<name>Cross Fade (+3dB)</name>
							<effectid>KGAudioTransCrossFade3dB</effectid>
							<effecttype>transition</effecttype>
							<mediatype>audio</mediatype>
							<wipecode>0</wipecode>
							<wipeaccuracy>100</wipeaccuracy>
							<startratio>0</startratio>
							<endratio>1</endratio>
							<reverse>FALSE</reverse>
						</effect>
					</transitionitem>
					<transitionitem>
						<start>20533</start>
						<end>20535</end>
						<alignment>start-black</alignment>
						<cutPointTicks>0</cutPointTicks>
						<rate>
							<timebase>60</timebase>
							<ntsc>FALSE</ntsc>
						</rate>
						<effect>
							<name>Cross Fade (+3dB)</name>
							<effectid>KGAudioTransCrossFade3dB</effectid>
							<effecttype>transition</effecttype>
							<mediatype>audio</mediatype>
							<wipecode>0</wipecode>
							<wipeaccuracy>100</wipeaccuracy>
							<startratio>0</startratio>
							<endratio>1</endratio>
							<reverse>FALSE</reverse>
						</effect>
					</transitionitem>
					<clipitem id="clipitem-705" premiereChannelType="stereo">
						<masterclipid>masterclip-95</masterclipid>
						<name>BrookePart2_ZOOM0001.WAV</name>
						<enabled>TRUE</enabled>
						<duration>136757</duration>
						<rate>
							<timebase>60</timebase>
							<ntsc>FALSE</ntsc>
						</rate>
						<start>-1</start>
						<end>-1</end>
						<in>54090</in>
						<out>54217</out>
						<pproTicksIn>228995424000000</pproTicksIn>
						<pproTicksOut>229533091200000</pproTicksOut>
						<file id="file-95"/>
						<sourcetrack>
							<mediatype>audio</mediatype>
							<trackindex>1</trackindex>
						</sourcetrack>
						<filter>
							<effect>
								<name>Gain</name>
								<effectid>{61756678, 4761696e, 4b657947}</effectid>
								<effecttype>filter</effecttype>
								<mediatype>audio</mediatype>
								<parameter authoringApp="PremierePro">
									<parameterid>Gain(dB)</parameterid>
									<name>Gain(dB)</name>
									<valuemin>-96</valuemin>
									<valuemax>96</valuemax>
									<value>3</value>
								</parameter>
							</effect>
						</filter>
							<marker>
								<comment></comment>
								<name></name>
								<in>6836</in>
								<out>-1</out>
							</marker>
						<link>
							<linkclipref>clipitem-705</linkclipref>
							<mediatype>audio</mediatype>
							<trackindex>15</trackindex>
							<clipindex>69</clipindex>
							<groupindex>1</groupindex>
						</link>
						<link>
							<linkclipref>clipitem-809</linkclipref>
							<mediatype>audio</mediatype>
							<trackindex>16</trackindex>
							<clipindex>69</clipindex>
							<groupindex>1</groupindex>
						</link>
						<logginginfo>
							<description></description>
							<scene></scene>
							<shottake></shottake>
							<lognote></lognote>
							<good></good>
							<originalvideofilename></originalvideofilename>
							<originalaudiofilename></originalaudiofilename>
						</logginginfo>
						<colorinfo>
							<lut></lut>
							<lut1></lut1>
							<asc_sop></asc_sop>
							<asc_sat></asc_sat>
							<lut2></lut2>
						</colorinfo>
						<labels>
							<label2>Blue</label2>
						</labels>
					</clipitem>
					<transitionitem>
						<start>20658</start>
						<end>20660</end>
						<alignment>end-black</alignment>
						<cutPointTicks>8467200000</cutPointTicks>
						<rate>
							<timebase>60</timebase>
							<ntsc>FALSE</ntsc>
						</rate>
						<effect>
							<name>Cross Fade (+3dB)</name>
							<effectid>KGAudioTransCrossFade3dB</effectid>
							<effecttype>transition</effecttype>
							<mediatype>audio</mediatype>
							<wipecode>0</wipecode>
							<wipeaccuracy>100</wipeaccuracy>
							<startratio>0</startratio>
							<endratio>1</endratio>
							<reverse>FALSE</reverse>
						</effect>
					</transitionitem>
					<transitionitem>
						<start>22751</start>
						<end>22753</end>
						<alignment>start-black</alignment>
						<cutPointTicks>0</cutPointTicks>
						<rate>
							<timebase>60</timebase>
							<ntsc>FALSE</ntsc>
						</rate>
						<effect>
							<name>Cross Fade (+3dB)</name>
							<effectid>KGAudioTransCrossFade3dB</effectid>
							<effecttype>transition</effecttype>
							<mediatype>audio</mediatype>
							<wipecode>0</wipecode>
							<wipeaccuracy>100</wipeaccuracy>
							<startratio>0</startratio>
							<endratio>1</endratio>
							<reverse>FALSE</reverse>
						</effect>
					</transitionitem>
					<clipitem id="clipitem-706" premiereChannelType="stereo">
						<masterclipid>masterclip-96</masterclipid>
						<name>Kate_ZOOM0001.WAV</name>
						<enabled>TRUE</enabled>
						<duration>81662</duration>
						<rate>
							<timebase>60</timebase>
							<ntsc>FALSE</ntsc>
						</rate>
						<start>-1</start>
						<end>-1</end>
						<in>24201</in>
						<out>24237</out>
						<pproTicksIn>102457353600000</pproTicksIn>
						<pproTicksOut>102609763200000</pproTicksOut>
						<file id="file-96"/>
						<sourcetrack>
							<mediatype>audio</mediatype>
							<trackindex>1</trackindex>
						</sourcetrack>
							<marker>
								<comment></comment>
								<name></name>
								<in>8498</in>
								<out>-1</out>
							</marker>
						<link>
							<linkclipref>clipitem-706</linkclipref>
							<mediatype>audio</mediatype>
							<trackindex>15</trackindex>
							<clipindex>72</clipindex>
							<groupindex>1</groupindex>
						</link>
						<link>
							<linkclipref>clipitem-810</linkclipref>
							<mediatype>audio</mediatype>
							<trackindex>16</trackindex>
							<clipindex>72</clipindex>
							<groupindex>1</groupindex>
						</link>
						<logginginfo>
							<description></description>
							<scene></scene>
							<shottake></shottake>
							<lognote></lognote>
							<good></good>
							<originalvideofilename></originalvideofilename>
							<originalaudiofilename></originalaudiofilename>
						</logginginfo>
						<colorinfo>
							<lut></lut>
							<lut1></lut1>
							<asc_sop></asc_sop>
							<asc_sat></asc_sat>
							<lut2></lut2>
						</colorinfo>
						<labels>
							<label2>Violet</label2>
						</labels>
					</clipitem>
					<transitionitem>
						<start>22785</start>
						<end>22787</end>
						<alignment>center</alignment>
						<cutPointTicks>4233600000</cutPointTicks>
						<rate>
							<timebase>60</timebase>
							<ntsc>FALSE</ntsc>
						</rate>
						<effect>
							<name>Cross Fade (+3dB)</name>
							<effectid>KGAudioTransCrossFade3dB</effectid>
							<effecttype>transition</effecttype>
							<mediatype>audio</mediatype>
							<wipecode>0</wipecode>
							<wipeaccuracy>100</wipeaccuracy>
							<startratio>0</startratio>
							<endratio>1</endratio>
							<reverse>FALSE</reverse>
						</effect>
					</transitionitem>
					<clipitem id="clipitem-707" premiereChannelType="stereo">
						<masterclipid>masterclip-96</masterclipid>
						<name>Kate_ZOOM0001.WAV</name>
						<enabled>TRUE</enabled>
						<duration>81662</duration>
						<rate>
							<timebase>60</timebase>
							<ntsc>FALSE</ntsc>
						</rate>
						<start>-1</start>
						<end>-1</end>
						<in>27210</in>
						<out>27350</out>
						<pproTicksIn>115196256000000</pproTicksIn>
						<pproTicksOut>115788960000000</pproTicksOut>
						<file id="file-96"/>
						<sourcetrack>
							<mediatype>audio</mediatype>
							<trackindex>1</trackindex>
						</sourcetrack>
						<filter>
							<effect>
								<name>Audio Levels</name>
								<effectid>audiolevels</effectid>
								<effectcategory>audiolevels</effectcategory>
								<effecttype>audiolevels</effecttype>
								<mediatype>audio</mediatype>
								<pproBypass>false</pproBypass>
								<parameter authoringApp="PremierePro">
									<parameterid>level</parameterid>
									<name>Level</name>
									<valuemin>0</valuemin>
									<valuemax>3.98109</valuemax>
									<value>1</value>
									<keyframe>
										<when>27311</when>
										<value>1</value>
									</keyframe>
									<keyframe>
										<when>27325</when>
										<value>0</value>
									</keyframe>
								</parameter>
							</effect>
						</filter>
							<marker>
								<comment></comment>
								<name></name>
								<in>8498</in>
								<out>-1</out>
							</marker>
						<link>
							<linkclipref>clipitem-707</linkclipref>
							<mediatype>audio</mediatype>
							<trackindex>15</trackindex>
							<clipindex>74</clipindex>
							<groupindex>1</groupindex>
						</link>
						<link>
							<linkclipref>clipitem-811</linkclipref>
							<mediatype>audio</mediatype>
							<trackindex>16</trackindex>
							<clipindex>74</clipindex>
							<groupindex>1</groupindex>
						</link>
						<logginginfo>
							<description></description>
							<scene></scene>
							<shottake></shottake>
							<lognote></lognote>
							<good></good>
							<originalvideofilename></originalvideofilename>
							<originalaudiofilename></originalaudiofilename>
						</logginginfo>
						<colorinfo>
							<lut></lut>
							<lut1></lut1>
							<asc_sop></asc_sop>
							<asc_sat></asc_sat>
							<lut2></lut2>
						</colorinfo>
						<labels>
							<label2>Violet</label2>
						</labels>
					</clipitem>
					<transitionitem>
						<start>22923</start>
						<end>22925</end>
						<alignment>end-black</alignment>
						<cutPointTicks>8467200000</cutPointTicks>
						<rate>
							<timebase>60</timebase>
							<ntsc>FALSE</ntsc>
						</rate>
						<effect>
							<name>Cross Fade (+3dB)</name>
							<effectid>KGAudioTransCrossFade3dB</effectid>
							<effecttype>transition</effecttype>
							<mediatype>audio</mediatype>
							<wipecode>0</wipecode>
							<wipeaccuracy>100</wipeaccuracy>
							<startratio>0</startratio>
							<endratio>1</endratio>
							<reverse>FALSE</reverse>
						</effect>
					</transitionitem>
					<transitionitem>
						<start>22925</start>
						<end>22927</end>
						<alignment>start-black</alignment>
						<cutPointTicks>0</cutPointTicks>
						<rate>
							<timebase>60</timebase>
							<ntsc>FALSE</ntsc>
						</rate>
						<effect>
							<name>Cross Fade (+3dB)</name>
							<effectid>KGAudioTransCrossFade3dB</effectid>
							<effecttype>transition</effecttype>
							<mediatype>audio</mediatype>
							<wipecode>0</wipecode>
							<wipeaccuracy>100</wipeaccuracy>
							<startratio>0</startratio>
							<endratio>1</endratio>
							<reverse>FALSE</reverse>
						</effect>
					</transitionitem>
					<clipitem id="clipitem-708" premiereChannelType="stereo">
						<masterclipid>masterclip-96</masterclipid>
						<name>Kate_ZOOM0001.WAV</name>
						<enabled>TRUE</enabled>
						<duration>81662</duration>
						<rate>
							<timebase>60</timebase>
							<ntsc>FALSE</ntsc>
						</rate>
						<start>-1</start>
						<end>-1</end>
						<in>30714</in>
						<out>31240</out>
						<pproTicksIn>130030790400000</pproTicksIn>
						<pproTicksOut>132257664000000</pproTicksOut>
						<file id="file-96"/>
						<sourcetrack>
							<mediatype>audio</mediatype>
							<trackindex>1</trackindex>
						</sourcetrack>
						<filter>
							<effect>
								<name>Audio Levels</name>
								<effectid>audiolevels</effectid>
								<effectcategory>audiolevels</effectcategory>
								<effecttype>audiolevels</effecttype>
								<mediatype>audio</mediatype>
								<pproBypass>false</pproBypass>
								<parameter authoringApp="PremierePro">
									<parameterid>level</parameterid>
									<name>Level</name>
									<valuemin>0</valuemin>
									<valuemax>3.98109</valuemax>
									<value>0</value>
									<keyframe>
										<when>30715</when>
										<value>0</value>
									</keyframe>
									<keyframe>
										<when>30721</when>
										<value>1</value>
									</keyframe>
									<keyframe>
										<when>31228</when>
										<value>1</value>
									</keyframe>
									<keyframe>
										<when>31240</when>
										<value>0</value>
									</keyframe>
									<keyframe>
										<when>31253</when>
										<value>0</value>
									</keyframe>
								</parameter>
							</effect>
						</filter>
							<marker>
								<comment></comment>
								<name></name>
								<in>8498</in>
								<out>-1</out>
							</marker>
						<link>
							<linkclipref>clipitem-708</linkclipref>
							<mediatype>audio</mediatype>
							<trackindex>15</trackindex>
							<clipindex>77</clipindex>
							<groupindex>1</groupindex>
						</link>
						<link>
							<linkclipref>clipitem-812</linkclipref>
							<mediatype>audio</mediatype>
							<trackindex>16</trackindex>
							<clipindex>77</clipindex>
							<groupindex>1</groupindex>
						</link>
						<logginginfo>
							<description></description>
							<scene></scene>
							<shottake></shottake>
							<lognote></lognote>
							<good></good>
							<originalvideofilename></originalvideofilename>
							<originalaudiofilename></originalaudiofilename>
						</logginginfo>
						<colorinfo>
							<lut></lut>
							<lut1></lut1>
							<asc_sop></asc_sop>
							<asc_sat></asc_sat>
							<lut2></lut2>
						</colorinfo>
						<labels>
							<label2>Mango</label2>
						</labels>
					</clipitem>
					<transitionitem>
						<start>23449</start>
						<end>23451</end>
						<alignment>end-black</alignment>
						<cutPointTicks>8467200000</cutPointTicks>
						<rate>
							<timebase>60</timebase>
							<ntsc>FALSE</ntsc>
						</rate>
						<effect>
							<name>Cross Fade (+3dB)</name>
							<effectid>KGAudioTransCrossFade3dB</effectid>
							<effecttype>transition</effecttype>
							<mediatype>audio</mediatype>
							<wipecode>0</wipecode>
							<wipeaccuracy>100</wipeaccuracy>
							<startratio>0</startratio>
							<endratio>1</endratio>
							<reverse>FALSE</reverse>
						</effect>
					</transitionitem>
					<transitionitem>
						<start>24238</start>
						<end>24240</end>
						<alignment>start-black</alignment>
						<cutPointTicks>0</cutPointTicks>
						<rate>
							<timebase>60</timebase>
							<ntsc>FALSE</ntsc>
						</rate>
						<effect>
							<name>Cross Fade (+3dB)</name>
							<effectid>KGAudioTransCrossFade3dB</effectid>
							<effecttype>transition</effecttype>
							<mediatype>audio</mediatype>
							<wipecode>0</wipecode>
							<wipeaccuracy>100</wipeaccuracy>
							<startratio>0</startratio>
							<endratio>1</endratio>
							<reverse>FALSE</reverse>
						</effect>
					</transitionitem>
					<clipitem id="clipitem-709" premiereChannelType="stereo">
						<masterclipid>masterclip-96</masterclipid>
						<name>Kate_ZOOM0001.WAV</name>
						<enabled>TRUE</enabled>
						<duration>81662</duration>
						<rate>
							<timebase>60</timebase>
							<ntsc>FALSE</ntsc>
						</rate>
						<start>-1</start>
						<end>-1</end>
						<in>31732</in>
						<out>31931</out>
						<pproTicksIn>134340595200000</pproTicksIn>
						<pproTicksOut>135183081600000</pproTicksOut>
						<file id="file-96"/>
						<sourcetrack>
							<mediatype>audio</mediatype>
							<trackindex>1</trackindex>
						</sourcetrack>
							<marker>
								<comment></comment>
								<name></name>
								<in>8498</in>
								<out>-1</out>
							</marker>
						<link>
							<linkclipref>clipitem-709</linkclipref>
							<mediatype>audio</mediatype>
							<trackindex>15</trackindex>
							<clipindex>80</clipindex>
							<groupindex>1</groupindex>
						</link>
						<link>
							<linkclipref>clipitem-813</linkclipref>
							<mediatype>audio</mediatype>
							<trackindex>16</trackindex>
							<clipindex>80</clipindex>
							<groupindex>1</groupindex>
						</link>
						<logginginfo>
							<description></description>
							<scene></scene>
							<shottake></shottake>
							<lognote></lognote>
							<good></good>
							<originalvideofilename></originalvideofilename>
							<originalaudiofilename></originalaudiofilename>
						</logginginfo>
						<colorinfo>
							<lut></lut>
							<lut1></lut1>
							<asc_sop></asc_sop>
							<asc_sat></asc_sat>
							<lut2></lut2>
						</colorinfo>
						<labels>
							<label2>Mango</label2>
						</labels>
					</clipitem>
					<transitionitem>
						<start>24435</start>
						<end>24437</end>
						<alignment>end-black</alignment>
						<cutPointTicks>8467200000</cutPointTicks>
						<rate>
							<timebase>60</timebase>
							<ntsc>FALSE</ntsc>
						</rate>
						<effect>
							<name>Cross Fade (+3dB)</name>
							<effectid>KGAudioTransCrossFade3dB</effectid>
							<effecttype>transition</effecttype>
							<mediatype>audio</mediatype>
							<wipecode>0</wipecode>
							<wipeaccuracy>100</wipeaccuracy>
							<startratio>0</startratio>
							<endratio>1</endratio>
							<reverse>FALSE</reverse>
						</effect>
					</transitionitem>
					<transitionitem>
						<start>24457</start>
						<end>24459</end>
						<alignment>start-black</alignment>
						<cutPointTicks>0</cutPointTicks>
						<rate>
							<timebase>60</timebase>
							<ntsc>FALSE</ntsc>
						</rate>
						<effect>
							<name>Cross Fade (+3dB)</name>
							<effectid>KGAudioTransCrossFade3dB</effectid>
							<effecttype>transition</effecttype>
							<mediatype>audio</mediatype>
							<wipecode>0</wipecode>
							<wipeaccuracy>100</wipeaccuracy>
							<startratio>0</startratio>
							<endratio>1</endratio>
							<reverse>FALSE</reverse>
						</effect>
					</transitionitem>
					<clipitem id="clipitem-710" premiereChannelType="stereo">
						<masterclipid>masterclip-96</masterclipid>
						<name>Kate_ZOOM0001.WAV</name>
						<enabled>TRUE</enabled>
						<duration>81662</duration>
						<rate>
							<timebase>60</timebase>
							<ntsc>FALSE</ntsc>
						</rate>
						<start>-1</start>
						<end>-1</end>
						<in>32054</in>
						<out>32109</out>
						<pproTicksIn>135703814400000</pproTicksIn>
						<pproTicksOut>135936662400000</pproTicksOut>
						<file id="file-96"/>
						<sourcetrack>
							<mediatype>audio</mediatype>
							<trackindex>1</trackindex>
						</sourcetrack>
						<filter>
							<effect>
								<name>Audio Levels</name>
								<effectid>audiolevels</effectid>
								<effectcategory>audiolevels</effectcategory>
								<effecttype>audiolevels</effecttype>
								<mediatype>audio</mediatype>
								<pproBypass>false</pproBypass>
								<parameter authoringApp="PremierePro">
									<parameterid>level</parameterid>
									<name>Level</name>
									<valuemin>0</valuemin>
									<valuemax>3.98109</valuemax>
									<value>1.48511</value>
								</parameter>
							</effect>
						</filter>
							<marker>
								<comment></comment>
								<name></name>
								<in>8498</in>
								<out>-1</out>
							</marker>
						<link>
							<linkclipref>clipitem-710</linkclipref>
							<mediatype>audio</mediatype>
							<trackindex>15</trackindex>
							<clipindex>83</clipindex>
							<groupindex>1</groupindex>
						</link>
						<link>
							<linkclipref>clipitem-814</linkclipref>
							<mediatype>audio</mediatype>
							<trackindex>16</trackindex>
							<clipindex>83</clipindex>
							<groupindex>1</groupindex>
						</link>
						<logginginfo>
							<description></description>
							<scene></scene>
							<shottake></shottake>
							<lognote></lognote>
							<good></good>
							<originalvideofilename></originalvideofilename>
							<originalaudiofilename></originalaudiofilename>
						</logginginfo>
						<colorinfo>
							<lut></lut>
							<lut1></lut1>
							<asc_sop></asc_sop>
							<asc_sat></asc_sat>
							<lut2></lut2>
						</colorinfo>
						<labels>
							<label2>Mango</label2>
						</labels>
					</clipitem>
					<transitionitem>
						<start>24510</start>
						<end>24512</end>
						<alignment>center</alignment>
						<cutPointTicks>4233600000</cutPointTicks>
						<rate>
							<timebase>60</timebase>
							<ntsc>FALSE</ntsc>
						</rate>
						<effect>
							<name>Cross Fade (+3dB)</name>
							<effectid>KGAudioTransCrossFade3dB</effectid>
							<effecttype>transition</effecttype>
							<mediatype>audio</mediatype>
							<wipecode>0</wipecode>
							<wipeaccuracy>100</wipeaccuracy>
							<startratio>0</startratio>
							<endratio>1</endratio>
							<reverse>FALSE</reverse>
						</effect>
					</transitionitem>
					<clipitem id="clipitem-711" premiereChannelType="stereo">
						<masterclipid>masterclip-96</masterclipid>
						<name>Kate_ZOOM0001.WAV</name>
						<enabled>TRUE</enabled>
						<duration>81662</duration>
						<rate>
							<timebase>60</timebase>
							<ntsc>FALSE</ntsc>
						</rate>
						<start>-1</start>
						<end>-1</end>
						<in>32163</in>
						<out>32324</out>
						<pproTicksIn>136165276800000</pproTicksIn>
						<pproTicksOut>136846886400000</pproTicksOut>
						<file id="file-96"/>
						<sourcetrack>
							<mediatype>audio</mediatype>
							<trackindex>1</trackindex>
						</sourcetrack>
						<filter>
							<effect>
								<name>Audio Levels</name>
								<effectid>audiolevels</effectid>
								<effectcategory>audiolevels</effectcategory>
								<effecttype>audiolevels</effecttype>
								<mediatype>audio</mediatype>
								<pproBypass>false</pproBypass>
								<parameter authoringApp="PremierePro">
									<parameterid>level</parameterid>
									<name>Level</name>
									<valuemin>0</valuemin>
									<valuemax>3.98109</valuemax>
									<value>1</value>
									<keyframe>
										<when>32179</when>
										<value>1</value>
									</keyframe>
									<keyframe>
										<when>32185</when>
										<value>1.22128</value>
									</keyframe>
									<keyframe>
										<when>32245</when>
										<value>1.22128</value>
									</keyframe>
									<keyframe>
										<when>32262</when>
										<value>0</value>
									</keyframe>
								</parameter>
							</effect>
						</filter>
							<marker>
								<comment></comment>
								<name></name>
								<in>8498</in>
								<out>-1</out>
							</marker>
						<link>
							<linkclipref>clipitem-711</linkclipref>
							<mediatype>audio</mediatype>
							<trackindex>15</trackindex>
							<clipindex>85</clipindex>
							<groupindex>1</groupindex>
						</link>
						<link>
							<linkclipref>clipitem-815</linkclipref>
							<mediatype>audio</mediatype>
							<trackindex>16</trackindex>
							<clipindex>85</clipindex>
							<groupindex>1</groupindex>
						</link>
						<logginginfo>
							<description></description>
							<scene></scene>
							<shottake></shottake>
							<lognote></lognote>
							<good></good>
							<originalvideofilename></originalvideofilename>
							<originalaudiofilename></originalaudiofilename>
						</logginginfo>
						<colorinfo>
							<lut></lut>
							<lut1></lut1>
							<asc_sop></asc_sop>
							<asc_sat></asc_sat>
							<lut2></lut2>
						</colorinfo>
						<labels>
							<label2>Mango</label2>
						</labels>
					</clipitem>
					<transitionitem>
						<start>24669</start>
						<end>24671</end>
						<alignment>end-black</alignment>
						<cutPointTicks>8467200000</cutPointTicks>
						<rate>
							<timebase>60</timebase>
							<ntsc>FALSE</ntsc>
						</rate>
						<effect>
							<name>Cross Fade (+3dB)</name>
							<effectid>KGAudioTransCrossFade3dB</effectid>
							<effecttype>transition</effecttype>
							<mediatype>audio</mediatype>
							<wipecode>0</wipecode>
							<wipeaccuracy>100</wipeaccuracy>
							<startratio>0</startratio>
							<endratio>1</endratio>
							<reverse>FALSE</reverse>
						</effect>
					</transitionitem>
					<transitionitem>
						<start>24855</start>
						<end>24857</end>
						<alignment>start-black</alignment>
						<cutPointTicks>0</cutPointTicks>
						<rate>
							<timebase>60</timebase>
							<ntsc>FALSE</ntsc>
						</rate>
						<effect>
							<name>Cross Fade (+3dB)</name>
							<effectid>KGAudioTransCrossFade3dB</effectid>
							<effecttype>transition</effecttype>
							<mediatype>audio</mediatype>
							<wipecode>0</wipecode>
							<wipeaccuracy>100</wipeaccuracy>
							<startratio>0</startratio>
							<endratio>1</endratio>
							<reverse>FALSE</reverse>
						</effect>
					</transitionitem>
					<clipitem id="clipitem-712" premiereChannelType="stereo">
						<masterclipid>masterclip-96</masterclipid>
						<name>Kate_ZOOM0001.WAV</name>
						<enabled>FALSE</enabled>
						<duration>81662</duration>
						<rate>
							<timebase>60</timebase>
							<ntsc>FALSE</ntsc>
						</rate>
						<start>-1</start>
						<end>-1</end>
						<in>31732</in>
						<out>32402</out>
						<pproTicksIn>134340595200000</pproTicksIn>
						<pproTicksOut>137177107200000</pproTicksOut>
						<file id="file-96"/>
						<sourcetrack>
							<mediatype>audio</mediatype>
							<trackindex>1</trackindex>
						</sourcetrack>
							<marker>
								<comment></comment>
								<name></name>
								<in>8498</in>
								<out>-1</out>
							</marker>
						<link>
							<linkclipref>clipitem-712</linkclipref>
							<mediatype>audio</mediatype>
							<trackindex>15</trackindex>
							<clipindex>88</clipindex>
							<groupindex>1</groupindex>
						</link>
						<link>
							<linkclipref>clipitem-816</linkclipref>
							<mediatype>audio</mediatype>
							<trackindex>16</trackindex>
							<clipindex>88</clipindex>
							<groupindex>1</groupindex>
						</link>
						<logginginfo>
							<description></description>
							<scene></scene>
							<shottake></shottake>
							<lognote></lognote>
							<good></good>
							<originalvideofilename></originalvideofilename>
							<originalaudiofilename></originalaudiofilename>
						</logginginfo>
						<colorinfo>
							<lut></lut>
							<lut1></lut1>
							<asc_sop></asc_sop>
							<asc_sat></asc_sat>
							<lut2></lut2>
						</colorinfo>
						<labels>
							<label2>Mango</label2>
						</labels>
					</clipitem>
					<transitionitem>
						<start>25523</start>
						<end>25525</end>
						<alignment>end-black</alignment>
						<cutPointTicks>8467200000</cutPointTicks>
						<rate>
							<timebase>60</timebase>
							<ntsc>FALSE</ntsc>
						</rate>
						<effect>
							<name>Cross Fade (+3dB)</name>
							<effectid>KGAudioTransCrossFade3dB</effectid>
							<effecttype>transition</effecttype>
							<mediatype>audio</mediatype>
							<wipecode>0</wipecode>
							<wipeaccuracy>100</wipeaccuracy>
							<startratio>0</startratio>
							<endratio>1</endratio>
							<reverse>FALSE</reverse>
						</effect>
					</transitionitem>
					<transitionitem>
						<start>30670</start>
						<end>30672</end>
						<alignment>start-black</alignment>
						<cutPointTicks>0</cutPointTicks>
						<rate>
							<timebase>60</timebase>
							<ntsc>FALSE</ntsc>
						</rate>
						<effect>
							<name>Cross Fade (+3dB)</name>
							<effectid>KGAudioTransCrossFade3dB</effectid>
							<effecttype>transition</effecttype>
							<mediatype>audio</mediatype>
							<wipecode>0</wipecode>
							<wipeaccuracy>100</wipeaccuracy>
							<startratio>0</startratio>
							<endratio>1</endratio>
							<reverse>FALSE</reverse>
						</effect>
					</transitionitem>
					<clipitem id="clipitem-713" premiereChannelType="stereo">
						<masterclipid>masterclip-95</masterclipid>
						<name>BrookePart2_ZOOM0001.WAV</name>
						<enabled>TRUE</enabled>
						<duration>136757</duration>
						<rate>
							<timebase>60</timebase>
							<ntsc>FALSE</ntsc>
						</rate>
						<start>-1</start>
						<end>31168</end>
						<in>134755</in>
						<out>135253</out>
						<pproTicksIn>570498768000000</pproTicksIn>
						<pproTicksOut>572607100800000</pproTicksOut>
						<file id="file-95"/>
						<sourcetrack>
							<mediatype>audio</mediatype>
							<trackindex>1</trackindex>
						</sourcetrack>
						<filter>
							<effect>
								<name>Audio Levels</name>
								<effectid>audiolevels</effectid>
								<effectcategory>audiolevels</effectcategory>
								<effecttype>audiolevels</effecttype>
								<mediatype>audio</mediatype>
								<pproBypass>false</pproBypass>
								<parameter authoringApp="PremierePro">
									<parameterid>level</parameterid>
									<name>Level</name>
									<valuemin>0</valuemin>
									<valuemax>3.98109</valuemax>
									<value>1</value>
									<keyframe>
										<when>135590</when>
										<value>1</value>
									</keyframe>
									<keyframe>
										<when>135645</when>
										<value>0</value>
									</keyframe>
								</parameter>
							</effect>
						</filter>
							<marker>
								<comment></comment>
								<name></name>
								<in>6836</in>
								<out>-1</out>
							</marker>
						<link>
							<linkclipref>clipitem-713</linkclipref>
							<mediatype>audio</mediatype>
							<trackindex>15</trackindex>
							<clipindex>91</clipindex>
							<groupindex>1</groupindex>
						</link>
						<link>
							<linkclipref>clipitem-817</linkclipref>
							<mediatype>audio</mediatype>
							<trackindex>16</trackindex>
							<clipindex>91</clipindex>
							<groupindex>1</groupindex>
						</link>
						<logginginfo>
							<description></description>
							<scene></scene>
							<shottake></shottake>
							<lognote></lognote>
							<good></good>
							<originalvideofilename></originalvideofilename>
							<originalaudiofilename></originalaudiofilename>
						</logginginfo>
						<colorinfo>
							<lut></lut>
							<lut1></lut1>
							<asc_sop></asc_sop>
							<asc_sat></asc_sat>
							<lut2></lut2>
						</colorinfo>
						<labels>
							<label2>Green</label2>
						</labels>
					</clipitem>
					<clipitem id="clipitem-714" premiereChannelType="stereo">
						<masterclipid>masterclip-95</masterclipid>
						<name>BrookePart2_ZOOM0001.WAV</name>
						<enabled>TRUE</enabled>
						<duration>136757</duration>
						<rate>
							<timebase>60</timebase>
							<ntsc>FALSE</ntsc>
						</rate>
						<start>31168</start>
						<end>-1</end>
						<in>135253</in>
						<out>135683</out>
						<pproTicksIn>572607100800000</pproTicksIn>
						<pproTicksOut>574427548800000</pproTicksOut>
						<file id="file-95"/>
						<sourcetrack>
							<mediatype>audio</mediatype>
							<trackindex>1</trackindex>
						</sourcetrack>
						<filter>
							<effect>
								<name>Audio Levels</name>
								<effectid>audiolevels</effectid>
								<effectcategory>audiolevels</effectcategory>
								<effecttype>audiolevels</effecttype>
								<mediatype>audio</mediatype>
								<pproBypass>false</pproBypass>
								<parameter authoringApp="PremierePro">
									<parameterid>level</parameterid>
									<name>Level</name>
									<valuemin>0</valuemin>
									<valuemax>3.98109</valuemax>
									<value>1</value>
									<keyframe>
										<when>135590</when>
										<value>1</value>
									</keyframe>
									<keyframe>
										<when>135645</when>
										<value>0</value>
									</keyframe>
								</parameter>
							</effect>
						</filter>
							<marker>
								<comment></comment>
								<name></name>
								<in>6836</in>
								<out>-1</out>
							</marker>
						<link>
							<linkclipref>clipitem-714</linkclipref>
							<mediatype>audio</mediatype>
							<trackindex>15</trackindex>
							<clipindex>92</clipindex>
							<groupindex>1</groupindex>
						</link>
						<link>
							<linkclipref>clipitem-818</linkclipref>
							<mediatype>audio</mediatype>
							<trackindex>16</trackindex>
							<clipindex>92</clipindex>
							<groupindex>1</groupindex>
						</link>
						<logginginfo>
							<description></description>
							<scene></scene>
							<shottake></shottake>
							<lognote></lognote>
							<good></good>
							<originalvideofilename></originalvideofilename>
							<originalaudiofilename></originalaudiofilename>
						</logginginfo>
						<colorinfo>
							<lut></lut>
							<lut1></lut1>
							<asc_sop></asc_sop>
							<asc_sat></asc_sat>
							<lut2></lut2>
						</colorinfo>
						<labels>
							<label2>Green</label2>
						</labels>
					</clipitem>
					<transitionitem>
						<start>31596</start>
						<end>31598</end>
						<alignment>end-black</alignment>
						<cutPointTicks>8467200000</cutPointTicks>
						<rate>
							<timebase>60</timebase>
							<ntsc>FALSE</ntsc>
						</rate>
						<effect>
							<name>Cross Fade (+3dB)</name>
							<effectid>KGAudioTransCrossFade3dB</effectid>
							<effecttype>transition</effecttype>
							<mediatype>audio</mediatype>
							<wipecode>0</wipecode>
							<wipeaccuracy>100</wipeaccuracy>
							<startratio>0</startratio>
							<endratio>1</endratio>
							<reverse>FALSE</reverse>
						</effect>
					</transitionitem>
					<clipitem id="clipitem-715" premiereChannelType="stereo">
						<masterclipid>masterclip-95</masterclipid>
						<name>BrookePart2_ZOOM0001.WAV</name>
						<enabled>TRUE</enabled>
						<duration>136757</duration>
						<rate>
							<timebase>60</timebase>
							<ntsc>FALSE</ntsc>
						</rate>
						<start>34061</start>
						<end>34170</end>
						<in>110727</in>
						<out>110836</out>
						<pproTicksIn>468773827200000</pproTicksIn>
						<pproTicksOut>469235289600000</pproTicksOut>
						<file id="file-95"/>
						<sourcetrack>
							<mediatype>audio</mediatype>
							<trackindex>1</trackindex>
						</sourcetrack>
						<filter>
							<effect>
								<name>Audio Levels</name>
								<effectid>audiolevels</effectid>
								<effectcategory>audiolevels</effectcategory>
								<effecttype>audiolevels</effecttype>
								<mediatype>audio</mediatype>
								<pproBypass>false</pproBypass>
								<parameter authoringApp="PremierePro">
									<parameterid>level</parameterid>
									<name>Level</name>
									<valuemin>0</valuemin>
									<valuemax>3.98109</valuemax>
									<value>0</value>
									<keyframe>
										<when>110730</when>
										<value>0</value>
									</keyframe>
									<keyframe>
										<when>110732</when>
										<value>1</value>
									</keyframe>
									<keyframe>
										<when>110820</when>
										<value>1</value>
									</keyframe>
									<keyframe>
										<when>110825</when>
										<value>0</value>
									</keyframe>
								</parameter>
							</effect>
						</filter>
							<marker>
								<comment></comment>
								<name></name>
								<in>6836</in>
								<out>-1</out>
							</marker>
						<link>
							<linkclipref>clipitem-715</linkclipref>
							<mediatype>audio</mediatype>
							<trackindex>15</trackindex>
							<clipindex>94</clipindex>
							<groupindex>1</groupindex>
						</link>
						<link>
							<linkclipref>clipitem-819</linkclipref>
							<mediatype>audio</mediatype>
							<trackindex>16</trackindex>
							<clipindex>94</clipindex>
							<groupindex>1</groupindex>
						</link>
						<logginginfo>
							<description></description>
							<scene></scene>
							<shottake></shottake>
							<lognote></lognote>
							<good></good>
							<originalvideofilename></originalvideofilename>
							<originalaudiofilename></originalaudiofilename>
						</logginginfo>
						<colorinfo>
							<lut></lut>
							<lut1></lut1>
							<asc_sop></asc_sop>
							<asc_sat></asc_sat>
							<lut2></lut2>
						</colorinfo>
						<labels>
							<label2>Cerulean</label2>
						</labels>
					</clipitem>
					<clipitem id="clipitem-716" premiereChannelType="stereo">
						<masterclipid>masterclip-95</masterclipid>
						<name>BrookePart2_ZOOM0001.WAV</name>
						<enabled>TRUE</enabled>
						<duration>136757</duration>
						<rate>
							<timebase>60</timebase>
							<ntsc>FALSE</ntsc>
						</rate>
						<start>34209</start>
						<end>-1</end>
						<in>110882</in>
						<out>110987</out>
						<pproTicksIn>469430035200000</pproTicksIn>
						<pproTicksOut>469874563200000</pproTicksOut>
						<file id="file-95"/>
						<sourcetrack>
							<mediatype>audio</mediatype>
							<trackindex>1</trackindex>
						</sourcetrack>
							<marker>
								<comment></comment>
								<name></name>
								<in>6836</in>
								<out>-1</out>
							</marker>
						<link>
							<linkclipref>clipitem-716</linkclipref>
							<mediatype>audio</mediatype>
							<trackindex>15</trackindex>
							<clipindex>95</clipindex>
							<groupindex>1</groupindex>
						</link>
						<link>
							<linkclipref>clipitem-820</linkclipref>
							<mediatype>audio</mediatype>
							<trackindex>16</trackindex>
							<clipindex>95</clipindex>
							<groupindex>1</groupindex>
						</link>
						<logginginfo>
							<description></description>
							<scene></scene>
							<shottake></shottake>
							<lognote></lognote>
							<good></good>
							<originalvideofilename></originalvideofilename>
							<originalaudiofilename></originalaudiofilename>
						</logginginfo>
						<colorinfo>
							<lut></lut>
							<lut1></lut1>
							<asc_sop></asc_sop>
							<asc_sat></asc_sat>
							<lut2></lut2>
						</colorinfo>
						<labels>
							<label2>Cerulean</label2>
						</labels>
					</clipitem>
					<transitionitem>
						<start>34312</start>
						<end>34314</end>
						<alignment>center</alignment>
						<cutPointTicks>4233600000</cutPointTicks>
						<rate>
							<timebase>60</timebase>
							<ntsc>FALSE</ntsc>
						</rate>
						<effect>
							<name>Cross Fade (+3dB)</name>
							<effectid>KGAudioTransCrossFade3dB</effectid>
							<effecttype>transition</effecttype>
							<mediatype>audio</mediatype>
							<wipecode>0</wipecode>
							<wipeaccuracy>100</wipeaccuracy>
							<startratio>0</startratio>
							<endratio>1</endratio>
							<reverse>FALSE</reverse>
						</effect>
					</transitionitem>
					<clipitem id="clipitem-717" premiereChannelType="stereo">
						<masterclipid>masterclip-95</masterclipid>
						<name>BrookePart2_ZOOM0001.WAV</name>
						<enabled>TRUE</enabled>
						<duration>136757</duration>
						<rate>
							<timebase>60</timebase>
							<ntsc>FALSE</ntsc>
						</rate>
						<start>-1</start>
						<end>-1</end>
						<in>111111</in>
						<out>111314</out>
						<pproTicksIn>470399529600000</pproTicksIn>
						<pproTicksOut>471258950400000</pproTicksOut>
						<file id="file-95"/>
						<sourcetrack>
							<mediatype>audio</mediatype>
							<trackindex>1</trackindex>
						</sourcetrack>
							<marker>
								<comment></comment>
								<name></name>
								<in>6836</in>
								<out>-1</out>
							</marker>
						<link>
							<linkclipref>clipitem-717</linkclipref>
							<mediatype>audio</mediatype>
							<trackindex>15</trackindex>
							<clipindex>97</clipindex>
							<groupindex>1</groupindex>
						</link>
						<link>
							<linkclipref>clipitem-821</linkclipref>
							<mediatype>audio</mediatype>
							<trackindex>16</trackindex>
							<clipindex>97</clipindex>
							<groupindex>1</groupindex>
						</link>
						<logginginfo>
							<description></description>
							<scene></scene>
							<shottake></shottake>
							<lognote></lognote>
							<good></good>
							<originalvideofilename></originalvideofilename>
							<originalaudiofilename></originalaudiofilename>
						</logginginfo>
						<colorinfo>
							<lut></lut>
							<lut1></lut1>
							<asc_sop></asc_sop>
							<asc_sat></asc_sat>
							<lut2></lut2>
						</colorinfo>
						<labels>
							<label2>Cerulean</label2>
						</labels>
					</clipitem>
					<transitionitem>
						<start>34513</start>
						<end>34515</end>
						<alignment>center</alignment>
						<cutPointTicks>4233600000</cutPointTicks>
						<rate>
							<timebase>60</timebase>
							<ntsc>FALSE</ntsc>
						</rate>
						<effect>
							<name>Cross Fade (+3dB)</name>
							<effectid>KGAudioTransCrossFade3dB</effectid>
							<effecttype>transition</effecttype>
							<mediatype>audio</mediatype>
							<wipecode>0</wipecode>
							<wipeaccuracy>100</wipeaccuracy>
							<startratio>0</startratio>
							<endratio>1</endratio>
							<reverse>FALSE</reverse>
						</effect>
					</transitionitem>
					<clipitem id="clipitem-718" premiereChannelType="stereo">
						<masterclipid>masterclip-95</masterclipid>
						<name>BrookePart2_ZOOM0001.WAV</name>
						<enabled>TRUE</enabled>
						<duration>136757</duration>
						<rate>
							<timebase>60</timebase>
							<ntsc>FALSE</ntsc>
						</rate>
						<start>-1</start>
						<end>-1</end>
						<in>111311</in>
						<out>111379</out>
						<pproTicksIn>471246249600000</pproTicksIn>
						<pproTicksOut>471534134400000</pproTicksOut>
						<file id="file-95"/>
						<sourcetrack>
							<mediatype>audio</mediatype>
							<trackindex>1</trackindex>
						</sourcetrack>
						<filter>
							<effect>
								<name>Audio Levels</name>
								<effectid>audiolevels</effectid>
								<effectcategory>audiolevels</effectcategory>
								<effecttype>audiolevels</effecttype>
								<mediatype>audio</mediatype>
								<pproBypass>false</pproBypass>
								<parameter authoringApp="PremierePro">
									<parameterid>level</parameterid>
									<name>Level</name>
									<valuemin>0</valuemin>
									<valuemax>3.98109</valuemax>
									<value>1.87719</value>
									<keyframe>
										<when>111362</when>
										<value>1.87719</value>
									</keyframe>
									<keyframe>
										<when>111379</when>
										<value>0</value>
									</keyframe>
								</parameter>
							</effect>
						</filter>
							<marker>
								<comment></comment>
								<name></name>
								<in>6836</in>
								<out>-1</out>
							</marker>
						<link>
							<linkclipref>clipitem-718</linkclipref>
							<mediatype>audio</mediatype>
							<trackindex>15</trackindex>
							<clipindex>99</clipindex>
							<groupindex>1</groupindex>
						</link>
						<link>
							<linkclipref>clipitem-822</linkclipref>
							<mediatype>audio</mediatype>
							<trackindex>16</trackindex>
							<clipindex>99</clipindex>
							<groupindex>1</groupindex>
						</link>
						<logginginfo>
							<description></description>
							<scene></scene>
							<shottake></shottake>
							<lognote></lognote>
							<good></good>
							<originalvideofilename></originalvideofilename>
							<originalaudiofilename></originalaudiofilename>
						</logginginfo>
						<colorinfo>
							<lut></lut>
							<lut1></lut1>
							<asc_sop></asc_sop>
							<asc_sat></asc_sat>
							<lut2></lut2>
						</colorinfo>
						<labels>
							<label2>Cerulean</label2>
						</labels>
					</clipitem>
					<transitionitem>
						<start>34579</start>
						<end>34581</end>
						<alignment>end-black</alignment>
						<cutPointTicks>8467200000</cutPointTicks>
						<rate>
							<timebase>60</timebase>
							<ntsc>FALSE</ntsc>
						</rate>
						<effect>
							<name>Cross Fade (+3dB)</name>
							<effectid>KGAudioTransCrossFade3dB</effectid>
							<effecttype>transition</effecttype>
							<mediatype>audio</mediatype>
							<wipecode>0</wipecode>
							<wipeaccuracy>100</wipeaccuracy>
							<startratio>0</startratio>
							<endratio>1</endratio>
							<reverse>FALSE</reverse>
						</effect>
					</transitionitem>
					<transitionitem>
						<start>35321</start>
						<end>35323</end>
						<alignment>start-black</alignment>
						<cutPointTicks>0</cutPointTicks>
						<rate>
							<timebase>60</timebase>
							<ntsc>FALSE</ntsc>
						</rate>
						<effect>
							<name>Cross Fade (+3dB)</name>
							<effectid>KGAudioTransCrossFade3dB</effectid>
							<effecttype>transition</effecttype>
							<mediatype>audio</mediatype>
							<wipecode>0</wipecode>
							<wipeaccuracy>100</wipeaccuracy>
							<startratio>0</startratio>
							<endratio>1</endratio>
							<reverse>FALSE</reverse>
						</effect>
					</transitionitem>
					<clipitem id="clipitem-719" premiereChannelType="stereo">
						<masterclipid>masterclip-95</masterclipid>
						<name>BrookePart2_ZOOM0001.WAV</name>
						<enabled>FALSE</enabled>
						<duration>136757</duration>
						<rate>
							<timebase>60</timebase>
							<ntsc>FALSE</ntsc>
						</rate>
						<start>-1</start>
						<end>35535</end>
						<in>108935</in>
						<out>109149</out>
						<pproTicksIn>461187216000000</pproTicksIn>
						<pproTicksOut>462093206400000</pproTicksOut>
						<file id="file-95"/>
						<sourcetrack>
							<mediatype>audio</mediatype>
							<trackindex>1</trackindex>
						</sourcetrack>
						<filter>
							<effect>
								<name>Audio Levels</name>
								<effectid>audiolevels</effectid>
								<effectcategory>audiolevels</effectcategory>
								<effecttype>audiolevels</effecttype>
								<mediatype>audio</mediatype>
								<pproBypass>false</pproBypass>
								<parameter authoringApp="PremierePro">
									<parameterid>level</parameterid>
									<name>Level</name>
									<valuemin>0</valuemin>
									<valuemax>3.98109</valuemax>
									<value>1</value>
									<keyframe>
										<when>108935</when>
										<value>0</value>
									</keyframe>
									<keyframe>
										<when>108969</when>
										<value>1</value>
									</keyframe>
								</parameter>
							</effect>
						</filter>
							<marker>
								<comment></comment>
								<name></name>
								<in>6836</in>
								<out>-1</out>
							</marker>
						<link>
							<linkclipref>clipitem-719</linkclipref>
							<mediatype>audio</mediatype>
							<trackindex>15</trackindex>
							<clipindex>102</clipindex>
							<groupindex>1</groupindex>
						</link>
						<link>
							<linkclipref>clipitem-823</linkclipref>
							<mediatype>audio</mediatype>
							<trackindex>16</trackindex>
							<clipindex>102</clipindex>
							<groupindex>1</groupindex>
						</link>
						<logginginfo>
							<description></description>
							<scene></scene>
							<shottake></shottake>
							<lognote></lognote>
							<good></good>
							<originalvideofilename></originalvideofilename>
							<originalaudiofilename></originalaudiofilename>
						</logginginfo>
						<colorinfo>
							<lut></lut>
							<lut1></lut1>
							<asc_sop></asc_sop>
							<asc_sat></asc_sat>
							<lut2></lut2>
						</colorinfo>
						<labels>
							<label2>Cerulean</label2>
						</labels>
					</clipitem>
					<clipitem id="clipitem-720" premiereChannelType="stereo">
						<masterclipid>masterclip-95</masterclipid>
						<name>BrookePart2_ZOOM0001.WAV</name>
						<enabled>FALSE</enabled>
						<duration>136757</duration>
						<rate>
							<timebase>60</timebase>
							<ntsc>FALSE</ntsc>
						</rate>
						<start>35535</start>
						<end>-1</end>
						<in>109149</in>
						<out>109234</out>
						<pproTicksIn>462093206400000</pproTicksIn>
						<pproTicksOut>462453062400000</pproTicksOut>
						<file id="file-95"/>
						<sourcetrack>
							<mediatype>audio</mediatype>
							<trackindex>1</trackindex>
						</sourcetrack>
						<filter>
							<effect>
								<name>Audio Levels</name>
								<effectid>audiolevels</effectid>
								<effectcategory>audiolevels</effectcategory>
								<effecttype>audiolevels</effecttype>
								<mediatype>audio</mediatype>
								<pproBypass>false</pproBypass>
								<parameter authoringApp="PremierePro">
									<parameterid>level</parameterid>
									<name>Level</name>
									<valuemin>0</valuemin>
									<valuemax>3.98109</valuemax>
									<value>1</value>
									<keyframe>
										<when>108935</when>
										<value>0</value>
									</keyframe>
									<keyframe>
										<when>108969</when>
										<value>1</value>
									</keyframe>
								</parameter>
							</effect>
						</filter>
							<marker>
								<comment></comment>
								<name></name>
								<in>6836</in>
								<out>-1</out>
							</marker>
						<link>
							<linkclipref>clipitem-720</linkclipref>
							<mediatype>audio</mediatype>
							<trackindex>15</trackindex>
							<clipindex>103</clipindex>
							<groupindex>1</groupindex>
						</link>
						<link>
							<linkclipref>clipitem-824</linkclipref>
							<mediatype>audio</mediatype>
							<trackindex>16</trackindex>
							<clipindex>103</clipindex>
							<groupindex>1</groupindex>
						</link>
						<logginginfo>
							<description></description>
							<scene></scene>
							<shottake></shottake>
							<lognote></lognote>
							<good></good>
							<originalvideofilename></originalvideofilename>
							<originalaudiofilename></originalaudiofilename>
						</logginginfo>
						<colorinfo>
							<lut></lut>
							<lut1></lut1>
							<asc_sop></asc_sop>
							<asc_sat></asc_sat>
							<lut2></lut2>
						</colorinfo>
						<labels>
							<label2>Cerulean</label2>
						</labels>
					</clipitem>
					<transitionitem>
						<start>35618</start>
						<end>35620</end>
						<alignment>center</alignment>
						<cutPointTicks>4233600000</cutPointTicks>
						<rate>
							<timebase>60</timebase>
							<ntsc>FALSE</ntsc>
						</rate>
						<effect>
							<name>Cross Fade (+3dB)</name>
							<effectid>KGAudioTransCrossFade3dB</effectid>
							<effecttype>transition</effecttype>
							<mediatype>audio</mediatype>
							<wipecode>0</wipecode>
							<wipeaccuracy>100</wipeaccuracy>
							<startratio>0</startratio>
							<endratio>1</endratio>
							<reverse>FALSE</reverse>
						</effect>
					</transitionitem>
					<clipitem id="clipitem-721" premiereChannelType="stereo">
						<masterclipid>masterclip-95</masterclipid>
						<name>BrookePart2_ZOOM0001.WAV</name>
						<enabled>FALSE</enabled>
						<duration>136757</duration>
						<rate>
							<timebase>60</timebase>
							<ntsc>FALSE</ntsc>
						</rate>
						<start>-1</start>
						<end>-1</end>
						<in>109322</in>
						<out>109519</out>
						<pproTicksIn>462825619200000</pproTicksIn>
						<pproTicksOut>463659638400000</pproTicksOut>
						<file id="file-95"/>
						<sourcetrack>
							<mediatype>audio</mediatype>
							<trackindex>1</trackindex>
						</sourcetrack>
						<filter>
							<effect>
								<name>Audio Levels</name>
								<effectid>audiolevels</effectid>
								<effectcategory>audiolevels</effectcategory>
								<effecttype>audiolevels</effecttype>
								<mediatype>audio</mediatype>
								<pproBypass>false</pproBypass>
								<parameter authoringApp="PremierePro">
									<parameterid>level</parameterid>
									<name>Level</name>
									<valuemin>0</valuemin>
									<valuemax>3.98109</valuemax>
									<value>0.000378549</value>
									<keyframe>
										<when>108935</when>
										<value>0</value>
									</keyframe>
									<keyframe>
										<when>108969</when>
										<value>1</value>
									</keyframe>
									<keyframe>
										<when>109466</when>
										<value>1</value>
									</keyframe>
									<keyframe>
										<when>109519</when>
										<value>0</value>
									</keyframe>
								</parameter>
							</effect>
						</filter>
							<marker>
								<comment></comment>
								<name></name>
								<in>6836</in>
								<out>-1</out>
							</marker>
						<link>
							<linkclipref>clipitem-721</linkclipref>
							<mediatype>audio</mediatype>
							<trackindex>15</trackindex>
							<clipindex>105</clipindex>
							<groupindex>1</groupindex>
						</link>
						<link>
							<linkclipref>clipitem-825</linkclipref>
							<mediatype>audio</mediatype>
							<trackindex>16</trackindex>
							<clipindex>105</clipindex>
							<groupindex>1</groupindex>
						</link>
						<logginginfo>
							<description></description>
							<scene></scene>
							<shottake></shottake>
							<lognote></lognote>
							<good></good>
							<originalvideofilename></originalvideofilename>
							<originalaudiofilename></originalaudiofilename>
						</logginginfo>
						<colorinfo>
							<lut></lut>
							<lut1></lut1>
							<asc_sop></asc_sop>
							<asc_sat></asc_sat>
							<lut2></lut2>
						</colorinfo>
						<labels>
							<label2>Cerulean</label2>
						</labels>
					</clipitem>
					<transitionitem>
						<start>35813</start>
						<end>35815</end>
						<alignment>end-black</alignment>
						<cutPointTicks>8467200000</cutPointTicks>
						<rate>
							<timebase>60</timebase>
							<ntsc>FALSE</ntsc>
						</rate>
						<effect>
							<name>Cross Fade (+3dB)</name>
							<effectid>KGAudioTransCrossFade3dB</effectid>
							<effecttype>transition</effecttype>
							<mediatype>audio</mediatype>
							<wipecode>0</wipecode>
							<wipeaccuracy>100</wipeaccuracy>
							<startratio>0</startratio>
							<endratio>1</endratio>
							<reverse>FALSE</reverse>
						</effect>
					</transitionitem>
					<clipitem id="clipitem-722" premiereChannelType="stereo">
						<masterclipid>masterclip-97</masterclipid>
						<name>K1Pro-Brooke_20180508.WAV</name>
						<enabled>FALSE</enabled>
						<duration>129341</duration>
						<rate>
							<timebase>60</timebase>
							<ntsc>FALSE</ntsc>
						</rate>
						<start>36422</start>
						<end>36686</end>
						<in>78138</in>
						<out>78402</out>
						<pproTicksIn>330805036800000</pproTicksIn>
						<pproTicksOut>331922707200000</pproTicksOut>
						<file id="file-97"/>
						<sourcetrack>
							<mediatype>audio</mediatype>
							<trackindex>1</trackindex>
						</sourcetrack>
							<marker>
								<comment></comment>
								<name></name>
								<in>69901</in>
								<out>-1</out>
							</marker>
							<marker>
								<comment></comment>
								<name></name>
								<in>88491</in>
								<out>-1</out>
							</marker>
							<marker>
								<comment></comment>
								<name></name>
								<in>28153</in>
								<out>-1</out>
							</marker>
							<marker>
								<comment></comment>
								<name></name>
								<in>33835</in>
								<out>-1</out>
							</marker>
						<link>
							<linkclipref>clipitem-722</linkclipref>
							<mediatype>audio</mediatype>
							<trackindex>15</trackindex>
							<clipindex>107</clipindex>
							<groupindex>1</groupindex>
						</link>
						<link>
							<linkclipref>clipitem-826</linkclipref>
							<mediatype>audio</mediatype>
							<trackindex>16</trackindex>
							<clipindex>107</clipindex>
							<groupindex>1</groupindex>
						</link>
						<logginginfo>
							<description></description>
							<scene></scene>
							<shottake></shottake>
							<lognote></lognote>
							<good></good>
							<originalvideofilename></originalvideofilename>
							<originalaudiofilename></originalaudiofilename>
						</logginginfo>
						<colorinfo>
							<lut></lut>
							<lut1></lut1>
							<asc_sop></asc_sop>
							<asc_sat></asc_sat>
							<lut2></lut2>
						</colorinfo>
						<labels>
							<label2>Rose</label2>
						</labels>
					</clipitem>
					<transitionitem>
						<start>37146</start>
						<end>37148</end>
						<alignment>start-black</alignment>
						<cutPointTicks>0</cutPointTicks>
						<rate>
							<timebase>60</timebase>
							<ntsc>FALSE</ntsc>
						</rate>
						<effect>
							<name>Cross Fade (+3dB)</name>
							<effectid>KGAudioTransCrossFade3dB</effectid>
							<effecttype>transition</effecttype>
							<mediatype>audio</mediatype>
							<wipecode>0</wipecode>
							<wipeaccuracy>100</wipeaccuracy>
							<startratio>0</startratio>
							<endratio>1</endratio>
							<reverse>FALSE</reverse>
						</effect>
					</transitionitem>
					<clipitem id="clipitem-723" premiereChannelType="stereo">
						<masterclipid>masterclip-95</masterclipid>
						<name>BrookePart2_ZOOM0001.WAV</name>
						<enabled>FALSE</enabled>
						<duration>136757</duration>
						<rate>
							<timebase>60</timebase>
							<ntsc>FALSE</ntsc>
						</rate>
						<start>-1</start>
						<end>-1</end>
						<in>61492</in>
						<out>61761</out>
						<pproTicksIn>260332531200000</pproTicksIn>
						<pproTicksOut>261471369600000</pproTicksOut>
						<file id="file-95"/>
						<sourcetrack>
							<mediatype>audio</mediatype>
							<trackindex>1</trackindex>
						</sourcetrack>
						<filter>
							<effect>
								<name>Gain</name>
								<effectid>{61756678, 4761696e, 4b657947}</effectid>
								<effecttype>filter</effecttype>
								<mediatype>audio</mediatype>
								<parameter authoringApp="PremierePro">
									<parameterid>Gain(dB)</parameterid>
									<name>Gain(dB)</name>
									<valuemin>-96</valuemin>
									<valuemax>96</valuemax>
									<value>3</value>
								</parameter>
							</effect>
						</filter>
						<filter>
							<effect>
								<name>Audio Levels</name>
								<effectid>audiolevels</effectid>
								<effectcategory>audiolevels</effectcategory>
								<effecttype>audiolevels</effecttype>
								<mediatype>audio</mediatype>
								<pproBypass>false</pproBypass>
								<parameter authoringApp="PremierePro">
									<parameterid>level</parameterid>
									<name>Level</name>
									<valuemin>0</valuemin>
									<valuemax>3.98109</valuemax>
									<value>1</value>
									<keyframe>
										<when>61492</when>
										<value>0</value>
									</keyframe>
									<keyframe>
										<when>61493</when>
										<value>1</value>
									</keyframe>
									<keyframe>
										<when>61819</when>
										<value>1</value>
									</keyframe>
									<keyframe>
										<when>61836</when>
										<value>0</value>
									</keyframe>
								</parameter>
							</effect>
						</filter>
							<marker>
								<comment></comment>
								<name></name>
								<in>6836</in>
								<out>-1</out>
							</marker>
						<link>
							<linkclipref>clipitem-723</linkclipref>
							<mediatype>audio</mediatype>
							<trackindex>15</trackindex>
							<clipindex>109</clipindex>
							<groupindex>1</groupindex>
						</link>
						<link>
							<linkclipref>clipitem-827</linkclipref>
							<mediatype>audio</mediatype>
							<trackindex>16</trackindex>
							<clipindex>109</clipindex>
							<groupindex>1</groupindex>
						</link>
						<logginginfo>
							<description></description>
							<scene></scene>
							<shottake></shottake>
							<lognote></lognote>
							<good></good>
							<originalvideofilename></originalvideofilename>
							<originalaudiofilename></originalaudiofilename>
						</logginginfo>
						<colorinfo>
							<lut></lut>
							<lut1></lut1>
							<asc_sop></asc_sop>
							<asc_sat></asc_sat>
							<lut2></lut2>
						</colorinfo>
						<labels>
							<label2>Cerulean</label2>
						</labels>
					</clipitem>
					<transitionitem>
						<start>37413</start>
						<end>37415</end>
						<alignment>center</alignment>
						<cutPointTicks>4233600000</cutPointTicks>
						<rate>
							<timebase>60</timebase>
							<ntsc>FALSE</ntsc>
						</rate>
						<effect>
							<name>Cross Fade (+3dB)</name>
							<effectid>KGAudioTransCrossFade3dB</effectid>
							<effecttype>transition</effecttype>
							<mediatype>audio</mediatype>
							<wipecode>0</wipecode>
							<wipeaccuracy>100</wipeaccuracy>
							<startratio>0</startratio>
							<endratio>1</endratio>
							<reverse>FALSE</reverse>
						</effect>
					</transitionitem>
					<clipitem id="clipitem-724" premiereChannelType="stereo">
						<masterclipid>masterclip-95</masterclipid>
						<name>BrookePart2_ZOOM0001.WAV</name>
						<enabled>FALSE</enabled>
						<duration>136757</duration>
						<rate>
							<timebase>60</timebase>
							<ntsc>FALSE</ntsc>
						</rate>
						<start>-1</start>
						<end>-1</end>
						<in>61787</in>
						<out>61846</out>
						<pproTicksIn>261581443200000</pproTicksIn>
						<pproTicksOut>261831225600000</pproTicksOut>
						<file id="file-95"/>
						<sourcetrack>
							<mediatype>audio</mediatype>
							<trackindex>1</trackindex>
						</sourcetrack>
						<filter>
							<effect>
								<name>Gain</name>
								<effectid>{61756678, 4761696e, 4b657947}</effectid>
								<effecttype>filter</effecttype>
								<mediatype>audio</mediatype>
								<parameter authoringApp="PremierePro">
									<parameterid>Gain(dB)</parameterid>
									<name>Gain(dB)</name>
									<valuemin>-96</valuemin>
									<valuemax>96</valuemax>
									<value>3</value>
								</parameter>
							</effect>
						</filter>
						<filter>
							<effect>
								<name>Audio Levels</name>
								<effectid>audiolevels</effectid>
								<effectcategory>audiolevels</effectcategory>
								<effecttype>audiolevels</effecttype>
								<mediatype>audio</mediatype>
								<pproBypass>false</pproBypass>
								<parameter authoringApp="PremierePro">
									<parameterid>level</parameterid>
									<name>Level</name>
									<valuemin>0</valuemin>
									<valuemax>3.98109</valuemax>
									<value>1</value>
									<keyframe>
										<when>61492</when>
										<value>0</value>
									</keyframe>
									<keyframe>
										<when>61493</when>
										<value>1</value>
									</keyframe>
									<keyframe>
										<when>61819</when>
										<value>1</value>
									</keyframe>
									<keyframe>
										<when>61836</when>
										<value>0</value>
									</keyframe>
								</parameter>
							</effect>
						</filter>
							<marker>
								<comment></comment>
								<name></name>
								<in>6836</in>
								<out>-1</out>
							</marker>
						<link>
							<linkclipref>clipitem-724</linkclipref>
							<mediatype>audio</mediatype>
							<trackindex>15</trackindex>
							<clipindex>111</clipindex>
							<groupindex>1</groupindex>
						</link>
						<link>
							<linkclipref>clipitem-828</linkclipref>
							<mediatype>audio</mediatype>
							<trackindex>16</trackindex>
							<clipindex>111</clipindex>
							<groupindex>1</groupindex>
						</link>
						<logginginfo>
							<description></description>
							<scene></scene>
							<shottake></shottake>
							<lognote></lognote>
							<good></good>
							<originalvideofilename></originalvideofilename>
							<originalaudiofilename></originalaudiofilename>
						</logginginfo>
						<colorinfo>
							<lut></lut>
							<lut1></lut1>
							<asc_sop></asc_sop>
							<asc_sat></asc_sat>
							<lut2></lut2>
						</colorinfo>
						<labels>
							<label2>Cerulean</label2>
						</labels>
					</clipitem>
					<transitionitem>
						<start>37470</start>
						<end>37472</end>
						<alignment>end-black</alignment>
						<cutPointTicks>8467200000</cutPointTicks>
						<rate>
							<timebase>60</timebase>
							<ntsc>FALSE</ntsc>
						</rate>
						<effect>
							<name>Cross Fade (+3dB)</name>
							<effectid>KGAudioTransCrossFade3dB</effectid>
							<effecttype>transition</effecttype>
							<mediatype>audio</mediatype>
							<wipecode>0</wipecode>
							<wipeaccuracy>100</wipeaccuracy>
							<startratio>0</startratio>
							<endratio>1</endratio>
							<reverse>FALSE</reverse>
						</effect>
					</transitionitem>
					<clipitem id="clipitem-725" premiereChannelType="stereo">
						<masterclipid>masterclip-97</masterclipid>
						<name>K1Pro-Brooke_20180508.WAV</name>
						<enabled>FALSE</enabled>
						<duration>129341</duration>
						<rate>
							<timebase>60</timebase>
							<ntsc>FALSE</ntsc>
						</rate>
						<start>38985</start>
						<end>39403</end>
						<in>88499</in>
						<out>88917</out>
						<pproTicksIn>374669366400000</pproTicksIn>
						<pproTicksOut>376439011200000</pproTicksOut>
						<file id="file-97"/>
						<sourcetrack>
							<mediatype>audio</mediatype>
							<trackindex>1</trackindex>
						</sourcetrack>
							<marker>
								<comment></comment>
								<name></name>
								<in>69901</in>
								<out>-1</out>
							</marker>
							<marker>
								<comment></comment>
								<name></name>
								<in>88491</in>
								<out>-1</out>
							</marker>
							<marker>
								<comment></comment>
								<name></name>
								<in>28153</in>
								<out>-1</out>
							</marker>
							<marker>
								<comment></comment>
								<name></name>
								<in>33835</in>
								<out>-1</out>
							</marker>
						<link>
							<linkclipref>clipitem-725</linkclipref>
							<mediatype>audio</mediatype>
							<trackindex>15</trackindex>
							<clipindex>113</clipindex>
							<groupindex>1</groupindex>
						</link>
						<link>
							<linkclipref>clipitem-829</linkclipref>
							<mediatype>audio</mediatype>
							<trackindex>16</trackindex>
							<clipindex>113</clipindex>
							<groupindex>1</groupindex>
						</link>
						<logginginfo>
							<description></description>
							<scene></scene>
							<shottake></shottake>
							<lognote></lognote>
							<good></good>
							<originalvideofilename></originalvideofilename>
							<originalaudiofilename></originalaudiofilename>
						</logginginfo>
						<colorinfo>
							<lut></lut>
							<lut1></lut1>
							<asc_sop></asc_sop>
							<asc_sat></asc_sat>
							<lut2></lut2>
						</colorinfo>
						<labels>
							<label2>Green</label2>
						</labels>
					</clipitem>
					<clipitem id="clipitem-726" premiereChannelType="stereo">
						<masterclipid>masterclip-95</masterclipid>
						<name>BrookePart2_ZOOM0001.WAV</name>
						<enabled>TRUE</enabled>
						<duration>136757</duration>
						<rate>
							<timebase>60</timebase>
							<ntsc>FALSE</ntsc>
						</rate>
						<start>39524</start>
						<end>40101</end>
						<in>37486</in>
						<out>38063</out>
						<pproTicksIn>158700729600000</pproTicksIn>
						<pproTicksOut>161143516800000</pproTicksOut>
						<file id="file-95"/>
						<sourcetrack>
							<mediatype>audio</mediatype>
							<trackindex>1</trackindex>
						</sourcetrack>
						<filter>
							<effect>
								<name>Audio Levels</name>
								<effectid>audiolevels</effectid>
								<effectcategory>audiolevels</effectcategory>
								<effecttype>audiolevels</effecttype>
								<mediatype>audio</mediatype>
								<pproBypass>false</pproBypass>
								<parameter authoringApp="PremierePro">
									<parameterid>level</parameterid>
									<name>Level</name>
									<valuemin>0</valuemin>
									<valuemax>3.98109</valuemax>
									<value>0</value>
									<keyframe>
										<when>37491</when>
										<value>0</value>
									</keyframe>
									<keyframe>
										<when>37506</when>
										<value>1</value>
									</keyframe>
									<keyframe>
										<when>38028</when>
										<value>1</value>
									</keyframe>
									<keyframe>
										<when>38059</when>
										<value>0</value>
									</keyframe>
								</parameter>
							</effect>
						</filter>
							<marker>
								<comment></comment>
								<name></name>
								<in>6836</in>
								<out>-1</out>
							</marker>
						<link>
							<linkclipref>clipitem-726</linkclipref>
							<mediatype>audio</mediatype>
							<trackindex>15</trackindex>
							<clipindex>114</clipindex>
							<groupindex>1</groupindex>
						</link>
						<link>
							<linkclipref>clipitem-830</linkclipref>
							<mediatype>audio</mediatype>
							<trackindex>16</trackindex>
							<clipindex>114</clipindex>
							<groupindex>1</groupindex>
						</link>
						<logginginfo>
							<description></description>
							<scene></scene>
							<shottake></shottake>
							<lognote></lognote>
							<good></good>
							<originalvideofilename></originalvideofilename>
							<originalaudiofilename></originalaudiofilename>
						</logginginfo>
						<colorinfo>
							<lut></lut>
							<lut1></lut1>
							<asc_sop></asc_sop>
							<asc_sat></asc_sat>
							<lut2></lut2>
						</colorinfo>
						<labels>
							<label2>Green</label2>
						</labels>
					</clipitem>
					<clipitem id="clipitem-727" premiereChannelType="stereo">
						<masterclipid>masterclip-95</masterclipid>
						<name>BrookePart2_ZOOM0001.WAV</name>
						<enabled>FALSE</enabled>
						<duration>136757</duration>
						<rate>
							<timebase>60</timebase>
							<ntsc>FALSE</ntsc>
						</rate>
						<start>40759</start>
						<end>40939</end>
						<in>127170</in>
						<out>127350</out>
						<pproTicksIn>538386912000000</pproTicksIn>
						<pproTicksOut>539148960000000</pproTicksOut>
						<file id="file-95"/>
						<sourcetrack>
							<mediatype>audio</mediatype>
							<trackindex>1</trackindex>
						</sourcetrack>
							<marker>
								<comment></comment>
								<name></name>
								<in>6836</in>
								<out>-1</out>
							</marker>
						<link>
							<linkclipref>clipitem-727</linkclipref>
							<mediatype>audio</mediatype>
							<trackindex>15</trackindex>
							<clipindex>115</clipindex>
							<groupindex>1</groupindex>
						</link>
						<link>
							<linkclipref>clipitem-831</linkclipref>
							<mediatype>audio</mediatype>
							<trackindex>16</trackindex>
							<clipindex>115</clipindex>
							<groupindex>1</groupindex>
						</link>
						<logginginfo>
							<description></description>
							<scene></scene>
							<shottake></shottake>
							<lognote></lognote>
							<good></good>
							<originalvideofilename></originalvideofilename>
							<originalaudiofilename></originalaudiofilename>
						</logginginfo>
						<colorinfo>
							<lut></lut>
							<lut1></lut1>
							<asc_sop></asc_sop>
							<asc_sat></asc_sat>
							<lut2></lut2>
						</colorinfo>
						<labels>
							<label2>Green</label2>
						</labels>
					</clipitem>
					<clipitem id="clipitem-728" premiereChannelType="stereo">
						<masterclipid>masterclip-95</masterclipid>
						<name>BrookePart2_ZOOM0001.WAV</name>
						<enabled>FALSE</enabled>
						<duration>136757</duration>
						<rate>
							<timebase>60</timebase>
							<ntsc>FALSE</ntsc>
						</rate>
						<start>41008</start>
						<end>41191</end>
						<in>91542</in>
						<out>91725</out>
						<pproTicksIn>387552211200000</pproTicksIn>
						<pproTicksOut>388326960000000</pproTicksOut>
						<file id="file-95"/>
						<sourcetrack>
							<mediatype>audio</mediatype>
							<trackindex>1</trackindex>
						</sourcetrack>
							<marker>
								<comment></comment>
								<name></name>
								<in>6836</in>
								<out>-1</out>
							</marker>
						<link>
							<linkclipref>clipitem-728</linkclipref>
							<mediatype>audio</mediatype>
							<trackindex>15</trackindex>
							<clipindex>116</clipindex>
							<groupindex>1</groupindex>
						</link>
						<link>
							<linkclipref>clipitem-832</linkclipref>
							<mediatype>audio</mediatype>
							<trackindex>16</trackindex>
							<clipindex>116</clipindex>
							<groupindex>1</groupindex>
						</link>
						<logginginfo>
							<description></description>
							<scene></scene>
							<shottake></shottake>
							<lognote></lognote>
							<good></good>
							<originalvideofilename></originalvideofilename>
							<originalaudiofilename></originalaudiofilename>
						</logginginfo>
						<colorinfo>
							<lut></lut>
							<lut1></lut1>
							<asc_sop></asc_sop>
							<asc_sat></asc_sat>
							<lut2></lut2>
						</colorinfo>
						<labels>
							<label2>Green</label2>
						</labels>
					</clipitem>
					<clipitem id="clipitem-729" premiereChannelType="stereo">
						<masterclipid>masterclip-95</masterclipid>
						<name>BrookePart2_ZOOM0001.WAV</name>
						<enabled>FALSE</enabled>
						<duration>136757</duration>
						<rate>
							<timebase>60</timebase>
							<ntsc>FALSE</ntsc>
						</rate>
						<start>41239</start>
						<end>41473</end>
						<in>54402</in>
						<out>54636</out>
						<pproTicksIn>230316307200000</pproTicksIn>
						<pproTicksOut>231306969600000</pproTicksOut>
						<file id="file-95"/>
						<sourcetrack>
							<mediatype>audio</mediatype>
							<trackindex>1</trackindex>
						</sourcetrack>
							<marker>
								<comment></comment>
								<name></name>
								<in>6836</in>
								<out>-1</out>
							</marker>
						<link>
							<linkclipref>clipitem-729</linkclipref>
							<mediatype>audio</mediatype>
							<trackindex>15</trackindex>
							<clipindex>117</clipindex>
							<groupindex>1</groupindex>
						</link>
						<link>
							<linkclipref>clipitem-833</linkclipref>
							<mediatype>audio</mediatype>
							<trackindex>16</trackindex>
							<clipindex>117</clipindex>
							<groupindex>1</groupindex>
						</link>
						<logginginfo>
							<description></description>
							<scene></scene>
							<shottake></shottake>
							<lognote></lognote>
							<good></good>
							<originalvideofilename></originalvideofilename>
							<originalaudiofilename></originalaudiofilename>
						</logginginfo>
						<colorinfo>
							<lut></lut>
							<lut1></lut1>
							<asc_sop></asc_sop>
							<asc_sat></asc_sat>
							<lut2></lut2>
						</colorinfo>
						<labels>
							<label2>Green</label2>
						</labels>
					</clipitem>
					<transitionitem>
						<start>44077</start>
						<end>44079</end>
						<alignment>start-black</alignment>
						<cutPointTicks>0</cutPointTicks>
						<rate>
							<timebase>60</timebase>
							<ntsc>FALSE</ntsc>
						</rate>
						<effect>
							<name>Cross Fade (+3dB)</name>
							<effectid>KGAudioTransCrossFade3dB</effectid>
							<effecttype>transition</effecttype>
							<mediatype>audio</mediatype>
							<wipecode>0</wipecode>
							<wipeaccuracy>100</wipeaccuracy>
							<startratio>0</startratio>
							<endratio>1</endratio>
							<reverse>FALSE</reverse>
						</effect>
					</transitionitem>
					<clipitem id="clipitem-730" premiereChannelType="stereo">
						<masterclipid>masterclip-97</masterclipid>
						<name>K1Pro-Brooke_20180508.WAV</name>
						<enabled>TRUE</enabled>
						<duration>129341</duration>
						<rate>
							<timebase>60</timebase>
							<ntsc>FALSE</ntsc>
						</rate>
						<start>-1</start>
						<end>-1</end>
						<in>115628</in>
						<out>115698</out>
						<pproTicksIn>489522700800000</pproTicksIn>
						<pproTicksOut>489819052800000</pproTicksOut>
						<file id="file-97"/>
						<sourcetrack>
							<mediatype>audio</mediatype>
							<trackindex>1</trackindex>
						</sourcetrack>
							<marker>
								<comment></comment>
								<name></name>
								<in>69901</in>
								<out>-1</out>
							</marker>
							<marker>
								<comment></comment>
								<name></name>
								<in>88491</in>
								<out>-1</out>
							</marker>
							<marker>
								<comment></comment>
								<name></name>
								<in>28153</in>
								<out>-1</out>
							</marker>
							<marker>
								<comment></comment>
								<name></name>
								<in>33835</in>
								<out>-1</out>
							</marker>
						<link>
							<linkclipref>clipitem-730</linkclipref>
							<mediatype>audio</mediatype>
							<trackindex>15</trackindex>
							<clipindex>119</clipindex>
							<groupindex>1</groupindex>
						</link>
						<link>
							<linkclipref>clipitem-834</linkclipref>
							<mediatype>audio</mediatype>
							<trackindex>16</trackindex>
							<clipindex>119</clipindex>
							<groupindex>1</groupindex>
						</link>
						<logginginfo>
							<description></description>
							<scene></scene>
							<shottake></shottake>
							<lognote></lognote>
							<good></good>
							<originalvideofilename></originalvideofilename>
							<originalaudiofilename></originalaudiofilename>
						</logginginfo>
						<colorinfo>
							<lut></lut>
							<lut1></lut1>
							<asc_sop></asc_sop>
							<asc_sat></asc_sat>
							<lut2></lut2>
						</colorinfo>
						<labels>
							<label2>Rose</label2>
						</labels>
					</clipitem>
					<transitionitem>
						<start>44145</start>
						<end>44147</end>
						<alignment>center</alignment>
						<cutPointTicks>4233600000</cutPointTicks>
						<rate>
							<timebase>60</timebase>
							<ntsc>FALSE</ntsc>
						</rate>
						<effect>
							<name>Cross Fade (+3dB)</name>
							<effectid>KGAudioTransCrossFade3dB</effectid>
							<effecttype>transition</effecttype>
							<mediatype>audio</mediatype>
							<wipecode>0</wipecode>
							<wipeaccuracy>100</wipeaccuracy>
							<startratio>0</startratio>
							<endratio>1</endratio>
							<reverse>FALSE</reverse>
						</effect>
					</transitionitem>
					<clipitem id="clipitem-731" premiereChannelType="stereo">
						<masterclipid>masterclip-97</masterclipid>
						<name>K1Pro-Brooke_20180508.WAV</name>
						<enabled>TRUE</enabled>
						<duration>129341</duration>
						<rate>
							<timebase>60</timebase>
							<ntsc>FALSE</ntsc>
						</rate>
						<start>-1</start>
						<end>-1</end>
						<in>115705</in>
						<out>115732</out>
						<pproTicksIn>489848688000000</pproTicksIn>
						<pproTicksOut>489962995200000</pproTicksOut>
						<file id="file-97"/>
						<sourcetrack>
							<mediatype>audio</mediatype>
							<trackindex>1</trackindex>
						</sourcetrack>
						<filter>
							<effect>
								<name>Audio Levels</name>
								<effectid>audiolevels</effectid>
								<effectcategory>audiolevels</effectcategory>
								<effecttype>audiolevels</effecttype>
								<mediatype>audio</mediatype>
								<pproBypass>false</pproBypass>
								<parameter authoringApp="PremierePro">
									<parameterid>level</parameterid>
									<name>Level</name>
									<valuemin>0</valuemin>
									<valuemax>3.98109</valuemax>
									<value>1.5625</value>
								</parameter>
							</effect>
						</filter>
							<marker>
								<comment></comment>
								<name></name>
								<in>69901</in>
								<out>-1</out>
							</marker>
							<marker>
								<comment></comment>
								<name></name>
								<in>88491</in>
								<out>-1</out>
							</marker>
							<marker>
								<comment></comment>
								<name></name>
								<in>28153</in>
								<out>-1</out>
							</marker>
							<marker>
								<comment></comment>
								<name></name>
								<in>33835</in>
								<out>-1</out>
							</marker>
						<link>
							<linkclipref>clipitem-731</linkclipref>
							<mediatype>audio</mediatype>
							<trackindex>15</trackindex>
							<clipindex>121</clipindex>
							<groupindex>1</groupindex>
						</link>
						<link>
							<linkclipref>clipitem-835</linkclipref>
							<mediatype>audio</mediatype>
							<trackindex>16</trackindex>
							<clipindex>121</clipindex>
							<groupindex>1</groupindex>
						</link>
						<logginginfo>
							<description></description>
							<scene></scene>
							<shottake></shottake>
							<lognote></lognote>
							<good></good>
							<originalvideofilename></originalvideofilename>
							<originalaudiofilename></originalaudiofilename>
						</logginginfo>
						<colorinfo>
							<lut></lut>
							<lut1></lut1>
							<asc_sop></asc_sop>
							<asc_sat></asc_sat>
							<lut2></lut2>
						</colorinfo>
						<labels>
							<label2>Rose</label2>
						</labels>
					</clipitem>
					<transitionitem>
						<start>44170</start>
						<end>44172</end>
						<alignment>center</alignment>
						<cutPointTicks>4233600000</cutPointTicks>
						<rate>
							<timebase>60</timebase>
							<ntsc>FALSE</ntsc>
						</rate>
						<effect>
							<name>Cross Fade (+3dB)</name>
							<effectid>KGAudioTransCrossFade3dB</effectid>
							<effecttype>transition</effecttype>
							<mediatype>audio</mediatype>
							<wipecode>0</wipecode>
							<wipeaccuracy>100</wipeaccuracy>
							<startratio>0</startratio>
							<endratio>1</endratio>
							<reverse>FALSE</reverse>
						</effect>
					</transitionitem>
					<clipitem id="clipitem-732" premiereChannelType="stereo">
						<masterclipid>masterclip-97</masterclipid>
						<name>K1Pro-Brooke_20180508.WAV</name>
						<enabled>TRUE</enabled>
						<duration>129341</duration>
						<rate>
							<timebase>60</timebase>
							<ntsc>FALSE</ntsc>
						</rate>
						<start>-1</start>
						<end>-1</end>
						<in>115786</in>
						<out>115941</out>
						<pproTicksIn>490191609600000</pproTicksIn>
						<pproTicksOut>490847817600000</pproTicksOut>
						<file id="file-97"/>
						<sourcetrack>
							<mediatype>audio</mediatype>
							<trackindex>1</trackindex>
						</sourcetrack>
							<marker>
								<comment></comment>
								<name></name>
								<in>69901</in>
								<out>-1</out>
							</marker>
							<marker>
								<comment></comment>
								<name></name>
								<in>88491</in>
								<out>-1</out>
							</marker>
							<marker>
								<comment></comment>
								<name></name>
								<in>28153</in>
								<out>-1</out>
							</marker>
							<marker>
								<comment></comment>
								<name></name>
								<in>33835</in>
								<out>-1</out>
							</marker>
						<link>
							<linkclipref>clipitem-732</linkclipref>
							<mediatype>audio</mediatype>
							<trackindex>15</trackindex>
							<clipindex>123</clipindex>
							<groupindex>1</groupindex>
						</link>
						<link>
							<linkclipref>clipitem-836</linkclipref>
							<mediatype>audio</mediatype>
							<trackindex>16</trackindex>
							<clipindex>123</clipindex>
							<groupindex>1</groupindex>
						</link>
						<logginginfo>
							<description></description>
							<scene></scene>
							<shottake></shottake>
							<lognote></lognote>
							<good></good>
							<originalvideofilename></originalvideofilename>
							<originalaudiofilename></originalaudiofilename>
						</logginginfo>
						<colorinfo>
							<lut></lut>
							<lut1></lut1>
							<asc_sop></asc_sop>
							<asc_sat></asc_sat>
							<lut2></lut2>
						</colorinfo>
						<labels>
							<label2>Rose</label2>
						</labels>
					</clipitem>
					<transitionitem>
						<start>44323</start>
						<end>44325</end>
						<alignment>center</alignment>
						<cutPointTicks>4233600000</cutPointTicks>
						<rate>
							<timebase>60</timebase>
							<ntsc>FALSE</ntsc>
						</rate>
						<effect>
							<name>Cross Fade (+3dB)</name>
							<effectid>KGAudioTransCrossFade3dB</effectid>
							<effecttype>transition</effecttype>
							<mediatype>audio</mediatype>
							<wipecode>0</wipecode>
							<wipeaccuracy>100</wipeaccuracy>
							<startratio>0</startratio>
							<endratio>1</endratio>
							<reverse>FALSE</reverse>
						</effect>
					</transitionitem>
					<clipitem id="clipitem-733" premiereChannelType="stereo">
						<masterclipid>masterclip-97</masterclipid>
						<name>K1Pro-Brooke_20180508.WAV</name>
						<enabled>TRUE</enabled>
						<duration>129341</duration>
						<rate>
							<timebase>60</timebase>
							<ntsc>FALSE</ntsc>
						</rate>
						<start>-1</start>
						<end>44560</end>
						<in>116104</in>
						<out>116341</out>
						<pproTicksIn>491537894400000</pproTicksIn>
						<pproTicksOut>492541257600000</pproTicksOut>
						<file id="file-97"/>
						<sourcetrack>
							<mediatype>audio</mediatype>
							<trackindex>1</trackindex>
						</sourcetrack>
							<marker>
								<comment></comment>
								<name></name>
								<in>69901</in>
								<out>-1</out>
							</marker>
							<marker>
								<comment></comment>
								<name></name>
								<in>88491</in>
								<out>-1</out>
							</marker>
							<marker>
								<comment></comment>
								<name></name>
								<in>28153</in>
								<out>-1</out>
							</marker>
							<marker>
								<comment></comment>
								<name></name>
								<in>33835</in>
								<out>-1</out>
							</marker>
						<link>
							<linkclipref>clipitem-733</linkclipref>
							<mediatype>audio</mediatype>
							<trackindex>15</trackindex>
							<clipindex>125</clipindex>
							<groupindex>1</groupindex>
						</link>
						<link>
							<linkclipref>clipitem-837</linkclipref>
							<mediatype>audio</mediatype>
							<trackindex>16</trackindex>
							<clipindex>125</clipindex>
							<groupindex>1</groupindex>
						</link>
						<logginginfo>
							<description></description>
							<scene></scene>
							<shottake></shottake>
							<lognote></lognote>
							<good></good>
							<originalvideofilename></originalvideofilename>
							<originalaudiofilename></originalaudiofilename>
						</logginginfo>
						<colorinfo>
							<lut></lut>
							<lut1></lut1>
							<asc_sop></asc_sop>
							<asc_sat></asc_sat>
							<lut2></lut2>
						</colorinfo>
						<labels>
							<label2>Rose</label2>
						</labels>
					</clipitem>
					<clipitem id="clipitem-734" premiereChannelType="stereo">
						<masterclipid>masterclip-97</masterclipid>
						<name>K1Pro-Brooke_20180508.WAV</name>
						<enabled>TRUE</enabled>
						<duration>129341</duration>
						<rate>
							<timebase>60</timebase>
							<ntsc>FALSE</ntsc>
						</rate>
						<start>44560</start>
						<end>-1</end>
						<in>116452</in>
						<out>116848</out>
						<pproTicksIn>493011187200000</pproTicksIn>
						<pproTicksOut>494687692800000</pproTicksOut>
						<file id="file-97"/>
						<sourcetrack>
							<mediatype>audio</mediatype>
							<trackindex>1</trackindex>
						</sourcetrack>
							<marker>
								<comment></comment>
								<name></name>
								<in>69901</in>
								<out>-1</out>
							</marker>
							<marker>
								<comment></comment>
								<name></name>
								<in>88491</in>
								<out>-1</out>
							</marker>
							<marker>
								<comment></comment>
								<name></name>
								<in>28153</in>
								<out>-1</out>
							</marker>
							<marker>
								<comment></comment>
								<name></name>
								<in>33835</in>
								<out>-1</out>
							</marker>
						<link>
							<linkclipref>clipitem-734</linkclipref>
							<mediatype>audio</mediatype>
							<trackindex>15</trackindex>
							<clipindex>126</clipindex>
							<groupindex>1</groupindex>
						</link>
						<link>
							<linkclipref>clipitem-838</linkclipref>
							<mediatype>audio</mediatype>
							<trackindex>16</trackindex>
							<clipindex>126</clipindex>
							<groupindex>1</groupindex>
						</link>
						<logginginfo>
							<description></description>
							<scene></scene>
							<shottake></shottake>
							<lognote></lognote>
							<good></good>
							<originalvideofilename></originalvideofilename>
							<originalaudiofilename></originalaudiofilename>
						</logginginfo>
						<colorinfo>
							<lut></lut>
							<lut1></lut1>
							<asc_sop></asc_sop>
							<asc_sat></asc_sat>
							<lut2></lut2>
						</colorinfo>
						<labels>
							<label2>Rose</label2>
						</labels>
					</clipitem>
					<transitionitem>
						<start>44954</start>
						<end>44956</end>
						<alignment>center</alignment>
						<cutPointTicks>4233600000</cutPointTicks>
						<rate>
							<timebase>60</timebase>
							<ntsc>FALSE</ntsc>
						</rate>
						<effect>
							<name>Cross Fade (+3dB)</name>
							<effectid>KGAudioTransCrossFade3dB</effectid>
							<effecttype>transition</effecttype>
							<mediatype>audio</mediatype>
							<wipecode>0</wipecode>
							<wipeaccuracy>100</wipeaccuracy>
							<startratio>0</startratio>
							<endratio>1</endratio>
							<reverse>FALSE</reverse>
						</effect>
					</transitionitem>
					<clipitem id="clipitem-735" premiereChannelType="stereo">
						<masterclipid>masterclip-97</masterclipid>
						<name>K1Pro-Brooke_20180508.WAV</name>
						<enabled>TRUE</enabled>
						<duration>129341</duration>
						<rate>
							<timebase>60</timebase>
							<ntsc>FALSE</ntsc>
						</rate>
						<start>-1</start>
						<end>-1</end>
						<in>116912</in>
						<out>117063</out>
						<pproTicksIn>494958643200000</pproTicksIn>
						<pproTicksOut>495597916800000</pproTicksOut>
						<file id="file-97"/>
						<sourcetrack>
							<mediatype>audio</mediatype>
							<trackindex>1</trackindex>
						</sourcetrack>
							<marker>
								<comment></comment>
								<name></name>
								<in>69901</in>
								<out>-1</out>
							</marker>
							<marker>
								<comment></comment>
								<name></name>
								<in>88491</in>
								<out>-1</out>
							</marker>
							<marker>
								<comment></comment>
								<name></name>
								<in>28153</in>
								<out>-1</out>
							</marker>
							<marker>
								<comment></comment>
								<name></name>
								<in>33835</in>
								<out>-1</out>
							</marker>
						<link>
							<linkclipref>clipitem-735</linkclipref>
							<mediatype>audio</mediatype>
							<trackindex>15</trackindex>
							<clipindex>128</clipindex>
							<groupindex>1</groupindex>
						</link>
						<link>
							<linkclipref>clipitem-839</linkclipref>
							<mediatype>audio</mediatype>
							<trackindex>16</trackindex>
							<clipindex>128</clipindex>
							<groupindex>1</groupindex>
						</link>
						<logginginfo>
							<description></description>
							<scene></scene>
							<shottake></shottake>
							<lognote></lognote>
							<good></good>
							<originalvideofilename></originalvideofilename>
							<originalaudiofilename></originalaudiofilename>
						</logginginfo>
						<colorinfo>
							<lut></lut>
							<lut1></lut1>
							<asc_sop></asc_sop>
							<asc_sat></asc_sat>
							<lut2></lut2>
						</colorinfo>
						<labels>
							<label2>Rose</label2>
						</labels>
					</clipitem>
					<transitionitem>
						<start>45103</start>
						<end>45105</end>
						<alignment>center</alignment>
						<cutPointTicks>4233600000</cutPointTicks>
						<rate>
							<timebase>60</timebase>
							<ntsc>FALSE</ntsc>
						</rate>
						<effect>
							<name>Cross Fade (+3dB)</name>
							<effectid>KGAudioTransCrossFade3dB</effectid>
							<effecttype>transition</effecttype>
							<mediatype>audio</mediatype>
							<wipecode>0</wipecode>
							<wipeaccuracy>100</wipeaccuracy>
							<startratio>0</startratio>
							<endratio>1</endratio>
							<reverse>FALSE</reverse>
						</effect>
					</transitionitem>
					<clipitem id="clipitem-736" premiereChannelType="stereo">
						<masterclipid>masterclip-97</masterclipid>
						<name>K1Pro-Brooke_20180508.WAV</name>
						<enabled>TRUE</enabled>
						<duration>129341</duration>
						<rate>
							<timebase>60</timebase>
							<ntsc>FALSE</ntsc>
						</rate>
						<start>-1</start>
						<end>-1</end>
						<in>117108</in>
						<out>117294</out>
						<pproTicksIn>495788428800000</pproTicksIn>
						<pproTicksOut>496575878400000</pproTicksOut>
						<file id="file-97"/>
						<sourcetrack>
							<mediatype>audio</mediatype>
							<trackindex>1</trackindex>
						</sourcetrack>
							<marker>
								<comment></comment>
								<name></name>
								<in>69901</in>
								<out>-1</out>
							</marker>
							<marker>
								<comment></comment>
								<name></name>
								<in>88491</in>
								<out>-1</out>
							</marker>
							<marker>
								<comment></comment>
								<name></name>
								<in>28153</in>
								<out>-1</out>
							</marker>
							<marker>
								<comment></comment>
								<name></name>
								<in>33835</in>
								<out>-1</out>
							</marker>
						<link>
							<linkclipref>clipitem-736</linkclipref>
							<mediatype>audio</mediatype>
							<trackindex>15</trackindex>
							<clipindex>130</clipindex>
							<groupindex>1</groupindex>
						</link>
						<link>
							<linkclipref>clipitem-840</linkclipref>
							<mediatype>audio</mediatype>
							<trackindex>16</trackindex>
							<clipindex>130</clipindex>
							<groupindex>1</groupindex>
						</link>
						<logginginfo>
							<description></description>
							<scene></scene>
							<shottake></shottake>
							<lognote></lognote>
							<good></good>
							<originalvideofilename></originalvideofilename>
							<originalaudiofilename></originalaudiofilename>
						</logginginfo>
						<colorinfo>
							<lut></lut>
							<lut1></lut1>
							<asc_sop></asc_sop>
							<asc_sat></asc_sat>
							<lut2></lut2>
						</colorinfo>
						<labels>
							<label2>Rose</label2>
						</labels>
					</clipitem>
					<transitionitem>
						<start>45287</start>
						<end>45289</end>
						<alignment>end-black</alignment>
						<cutPointTicks>8467200000</cutPointTicks>
						<rate>
							<timebase>60</timebase>
							<ntsc>FALSE</ntsc>
						</rate>
						<effect>
							<name>Cross Fade (+3dB)</name>
							<effectid>KGAudioTransCrossFade3dB</effectid>
							<effecttype>transition</effecttype>
							<mediatype>audio</mediatype>
							<wipecode>0</wipecode>
							<wipeaccuracy>100</wipeaccuracy>
							<startratio>0</startratio>
							<endratio>1</endratio>
							<reverse>FALSE</reverse>
						</effect>
					</transitionitem>
					<transitionitem>
						<start>48880</start>
						<end>48882</end>
						<alignment>start-black</alignment>
						<cutPointTicks>0</cutPointTicks>
						<rate>
							<timebase>60</timebase>
							<ntsc>FALSE</ntsc>
						</rate>
						<effect>
							<name>Cross Fade (+3dB)</name>
							<effectid>KGAudioTransCrossFade3dB</effectid>
							<effecttype>transition</effecttype>
							<mediatype>audio</mediatype>
							<wipecode>0</wipecode>
							<wipeaccuracy>100</wipeaccuracy>
							<startratio>0</startratio>
							<endratio>1</endratio>
							<reverse>FALSE</reverse>
						</effect>
					</transitionitem>
					<clipitem id="clipitem-737" premiereChannelType="stereo">
						<masterclipid>masterclip-95</masterclipid>
						<name>BrookePart2_ZOOM0001.WAV</name>
						<enabled>TRUE</enabled>
						<duration>136757</duration>
						<rate>
							<timebase>60</timebase>
							<ntsc>FALSE</ntsc>
						</rate>
						<start>-1</start>
						<end>49180</end>
						<in>105048</in>
						<out>105348</out>
						<pproTicksIn>444731212800000</pproTicksIn>
						<pproTicksOut>446001292800000</pproTicksOut>
						<file id="file-95"/>
						<sourcetrack>
							<mediatype>audio</mediatype>
							<trackindex>1</trackindex>
						</sourcetrack>
							<marker>
								<comment></comment>
								<name></name>
								<in>6836</in>
								<out>-1</out>
							</marker>
						<link>
							<linkclipref>clipitem-737</linkclipref>
							<mediatype>audio</mediatype>
							<trackindex>15</trackindex>
							<clipindex>133</clipindex>
							<groupindex>1</groupindex>
						</link>
						<link>
							<linkclipref>clipitem-841</linkclipref>
							<mediatype>audio</mediatype>
							<trackindex>16</trackindex>
							<clipindex>133</clipindex>
							<groupindex>1</groupindex>
						</link>
						<logginginfo>
							<description></description>
							<scene></scene>
							<shottake></shottake>
							<lognote></lognote>
							<good></good>
							<originalvideofilename></originalvideofilename>
							<originalaudiofilename></originalaudiofilename>
						</logginginfo>
						<colorinfo>
							<lut></lut>
							<lut1></lut1>
							<asc_sop></asc_sop>
							<asc_sat></asc_sat>
							<lut2></lut2>
						</colorinfo>
						<labels>
							<label2>Rose</label2>
						</labels>
					</clipitem>
					<clipitem id="clipitem-738" premiereChannelType="stereo">
						<masterclipid>masterclip-95</masterclipid>
						<name>BrookePart2_ZOOM0001.WAV</name>
						<enabled>TRUE</enabled>
						<duration>136757</duration>
						<rate>
							<timebase>60</timebase>
							<ntsc>FALSE</ntsc>
						</rate>
						<start>49328</start>
						<end>-1</end>
						<in>105810</in>
						<out>105893</out>
						<pproTicksIn>447957216000000</pproTicksIn>
						<pproTicksOut>448308604800000</pproTicksOut>
						<file id="file-95"/>
						<sourcetrack>
							<mediatype>audio</mediatype>
							<trackindex>1</trackindex>
						</sourcetrack>
							<marker>
								<comment></comment>
								<name></name>
								<in>6836</in>
								<out>-1</out>
							</marker>
						<link>
							<linkclipref>clipitem-738</linkclipref>
							<mediatype>audio</mediatype>
							<trackindex>15</trackindex>
							<clipindex>134</clipindex>
							<groupindex>1</groupindex>
						</link>
						<link>
							<linkclipref>clipitem-842</linkclipref>
							<mediatype>audio</mediatype>
							<trackindex>16</trackindex>
							<clipindex>134</clipindex>
							<groupindex>1</groupindex>
						</link>
						<logginginfo>
							<description></description>
							<scene></scene>
							<shottake></shottake>
							<lognote></lognote>
							<good></good>
							<originalvideofilename></originalvideofilename>
							<originalaudiofilename></originalaudiofilename>
						</logginginfo>
						<colorinfo>
							<lut></lut>
							<lut1></lut1>
							<asc_sop></asc_sop>
							<asc_sat></asc_sat>
							<lut2></lut2>
						</colorinfo>
						<labels>
							<label2>Rose</label2>
						</labels>
					</clipitem>
					<transitionitem>
						<start>49409</start>
						<end>49411</end>
						<alignment>center</alignment>
						<cutPointTicks>4233600000</cutPointTicks>
						<rate>
							<timebase>60</timebase>
							<ntsc>FALSE</ntsc>
						</rate>
						<effect>
							<name>Cross Fade (+3dB)</name>
							<effectid>KGAudioTransCrossFade3dB</effectid>
							<effecttype>transition</effecttype>
							<mediatype>audio</mediatype>
							<wipecode>0</wipecode>
							<wipeaccuracy>100</wipeaccuracy>
							<startratio>0</startratio>
							<endratio>1</endratio>
							<reverse>FALSE</reverse>
						</effect>
					</transitionitem>
					<clipitem id="clipitem-739" premiereChannelType="stereo">
						<masterclipid>masterclip-95</masterclipid>
						<name>BrookePart2_ZOOM0001.WAV</name>
						<enabled>TRUE</enabled>
						<duration>136757</duration>
						<rate>
							<timebase>60</timebase>
							<ntsc>FALSE</ntsc>
						</rate>
						<start>-1</start>
						<end>-1</end>
						<in>106004</in>
						<out>106073</out>
						<pproTicksIn>448778534400000</pproTicksIn>
						<pproTicksOut>449070652800000</pproTicksOut>
						<file id="file-95"/>
						<sourcetrack>
							<mediatype>audio</mediatype>
							<trackindex>1</trackindex>
						</sourcetrack>
							<marker>
								<comment></comment>
								<name></name>
								<in>6836</in>
								<out>-1</out>
							</marker>
						<link>
							<linkclipref>clipitem-739</linkclipref>
							<mediatype>audio</mediatype>
							<trackindex>15</trackindex>
							<clipindex>136</clipindex>
							<groupindex>1</groupindex>
						</link>
						<link>
							<linkclipref>clipitem-843</linkclipref>
							<mediatype>audio</mediatype>
							<trackindex>16</trackindex>
							<clipindex>136</clipindex>
							<groupindex>1</groupindex>
						</link>
						<logginginfo>
							<description></description>
							<scene></scene>
							<shottake></shottake>
							<lognote></lognote>
							<good></good>
							<originalvideofilename></originalvideofilename>
							<originalaudiofilename></originalaudiofilename>
						</logginginfo>
						<colorinfo>
							<lut></lut>
							<lut1></lut1>
							<asc_sop></asc_sop>
							<asc_sat></asc_sat>
							<lut2></lut2>
						</colorinfo>
						<labels>
							<label2>Rose</label2>
						</labels>
					</clipitem>
					<transitionitem>
						<start>49476</start>
						<end>49478</end>
						<alignment>center</alignment>
						<cutPointTicks>4233600000</cutPointTicks>
						<rate>
							<timebase>60</timebase>
							<ntsc>FALSE</ntsc>
						</rate>
						<effect>
							<name>Cross Fade (+3dB)</name>
							<effectid>KGAudioTransCrossFade3dB</effectid>
							<effecttype>transition</effecttype>
							<mediatype>audio</mediatype>
							<wipecode>0</wipecode>
							<wipeaccuracy>100</wipeaccuracy>
							<startratio>0</startratio>
							<endratio>1</endratio>
							<reverse>FALSE</reverse>
						</effect>
					</transitionitem>
					<clipitem id="clipitem-740" premiereChannelType="stereo">
						<masterclipid>masterclip-95</masterclipid>
						<name>BrookePart2_ZOOM0001.WAV</name>
						<enabled>TRUE</enabled>
						<duration>136757</duration>
						<rate>
							<timebase>60</timebase>
							<ntsc>FALSE</ntsc>
						</rate>
						<start>-1</start>
						<end>49565</end>
						<in>106090</in>
						<out>106179</out>
						<pproTicksIn>449142624000000</pproTicksIn>
						<pproTicksOut>449519414400000</pproTicksOut>
						<file id="file-95"/>
						<sourcetrack>
							<mediatype>audio</mediatype>
							<trackindex>1</trackindex>
						</sourcetrack>
							<marker>
								<comment></comment>
								<name></name>
								<in>6836</in>
								<out>-1</out>
							</marker>
						<link>
							<linkclipref>clipitem-740</linkclipref>
							<mediatype>audio</mediatype>
							<trackindex>15</trackindex>
							<clipindex>138</clipindex>
							<groupindex>1</groupindex>
						</link>
						<link>
							<linkclipref>clipitem-844</linkclipref>
							<mediatype>audio</mediatype>
							<trackindex>16</trackindex>
							<clipindex>138</clipindex>
							<groupindex>1</groupindex>
						</link>
						<logginginfo>
							<description></description>
							<scene></scene>
							<shottake></shottake>
							<lognote></lognote>
							<good></good>
							<originalvideofilename></originalvideofilename>
							<originalaudiofilename></originalaudiofilename>
						</logginginfo>
						<colorinfo>
							<lut></lut>
							<lut1></lut1>
							<asc_sop></asc_sop>
							<asc_sat></asc_sat>
							<lut2></lut2>
						</colorinfo>
						<labels>
							<label2>Rose</label2>
						</labels>
					</clipitem>
					<clipitem id="clipitem-741" premiereChannelType="stereo">
						<masterclipid>masterclip-95</masterclipid>
						<name>BrookePart2_ZOOM0001.WAV</name>
						<enabled>TRUE</enabled>
						<duration>136757</duration>
						<rate>
							<timebase>60</timebase>
							<ntsc>FALSE</ntsc>
						</rate>
						<start>49565</start>
						<end>-1</end>
						<in>106401</in>
						<out>106735</out>
						<pproTicksIn>450459273600000</pproTicksIn>
						<pproTicksOut>451873296000000</pproTicksOut>
						<file id="file-95"/>
						<sourcetrack>
							<mediatype>audio</mediatype>
							<trackindex>1</trackindex>
						</sourcetrack>
							<marker>
								<comment></comment>
								<name></name>
								<in>6836</in>
								<out>-1</out>
							</marker>
						<link>
							<linkclipref>clipitem-741</linkclipref>
							<mediatype>audio</mediatype>
							<trackindex>15</trackindex>
							<clipindex>139</clipindex>
							<groupindex>1</groupindex>
						</link>
						<link>
							<linkclipref>clipitem-845</linkclipref>
							<mediatype>audio</mediatype>
							<trackindex>16</trackindex>
							<clipindex>139</clipindex>
							<groupindex>1</groupindex>
						</link>
						<logginginfo>
							<description></description>
							<scene></scene>
							<shottake></shottake>
							<lognote></lognote>
							<good></good>
							<originalvideofilename></originalvideofilename>
							<originalaudiofilename></originalaudiofilename>
						</logginginfo>
						<colorinfo>
							<lut></lut>
							<lut1></lut1>
							<asc_sop></asc_sop>
							<asc_sat></asc_sat>
							<lut2></lut2>
						</colorinfo>
						<labels>
							<label2>Rose</label2>
						</labels>
					</clipitem>
					<transitionitem>
						<start>49897</start>
						<end>49899</end>
						<alignment>center</alignment>
						<cutPointTicks>4233600000</cutPointTicks>
						<rate>
							<timebase>60</timebase>
							<ntsc>FALSE</ntsc>
						</rate>
						<effect>
							<name>Cross Fade (+3dB)</name>
							<effectid>KGAudioTransCrossFade3dB</effectid>
							<effecttype>transition</effecttype>
							<mediatype>audio</mediatype>
							<wipecode>0</wipecode>
							<wipeaccuracy>100</wipeaccuracy>
							<startratio>0</startratio>
							<endratio>1</endratio>
							<reverse>FALSE</reverse>
						</effect>
					</transitionitem>
					<clipitem id="clipitem-742" premiereChannelType="stereo">
						<masterclipid>masterclip-95</masterclipid>
						<name>BrookePart2_ZOOM0001.WAV</name>
						<enabled>TRUE</enabled>
						<duration>136757</duration>
						<rate>
							<timebase>60</timebase>
							<ntsc>FALSE</ntsc>
						</rate>
						<start>-1</start>
						<end>50237</end>
						<in>106812</in>
						<out>107152</out>
						<pproTicksIn>452199283200000</pproTicksIn>
						<pproTicksOut>453638707200000</pproTicksOut>
						<file id="file-95"/>
						<sourcetrack>
							<mediatype>audio</mediatype>
							<trackindex>1</trackindex>
						</sourcetrack>
						<filter>
							<effect>
								<name>Audio Levels</name>
								<effectid>audiolevels</effectid>
								<effectcategory>audiolevels</effectcategory>
								<effecttype>audiolevels</effecttype>
								<mediatype>audio</mediatype>
								<pproBypass>false</pproBypass>
								<parameter authoringApp="PremierePro">
									<parameterid>level</parameterid>
									<name>Level</name>
									<valuemin>0</valuemin>
									<valuemax>3.98109</valuemax>
									<value>1</value>
									<keyframe>
										<when>107091</when>
										<value>1</value>
									</keyframe>
									<keyframe>
										<when>107121</when>
										<value>0</value>
									</keyframe>
								</parameter>
							</effect>
						</filter>
							<marker>
								<comment></comment>
								<name></name>
								<in>6836</in>
								<out>-1</out>
							</marker>
						<link>
							<linkclipref>clipitem-742</linkclipref>
							<mediatype>audio</mediatype>
							<trackindex>15</trackindex>
							<clipindex>141</clipindex>
							<groupindex>1</groupindex>
						</link>
						<link>
							<linkclipref>clipitem-846</linkclipref>
							<mediatype>audio</mediatype>
							<trackindex>16</trackindex>
							<clipindex>141</clipindex>
							<groupindex>1</groupindex>
						</link>
						<logginginfo>
							<description></description>
							<scene></scene>
							<shottake></shottake>
							<lognote></lognote>
							<good></good>
							<originalvideofilename></originalvideofilename>
							<originalaudiofilename></originalaudiofilename>
						</logginginfo>
						<colorinfo>
							<lut></lut>
							<lut1></lut1>
							<asc_sop></asc_sop>
							<asc_sat></asc_sat>
							<lut2></lut2>
						</colorinfo>
						<labels>
							<label2>Rose</label2>
						</labels>
					</clipitem>
					<transitionitem>
						<start>50304</start>
						<end>50306</end>
						<alignment>start-black</alignment>
						<cutPointTicks>0</cutPointTicks>
						<rate>
							<timebase>60</timebase>
							<ntsc>FALSE</ntsc>
						</rate>
						<effect>
							<name>Cross Fade (+3dB)</name>
							<effectid>KGAudioTransCrossFade3dB</effectid>
							<effecttype>transition</effecttype>
							<mediatype>audio</mediatype>
							<wipecode>0</wipecode>
							<wipeaccuracy>100</wipeaccuracy>
							<startratio>0</startratio>
							<endratio>1</endratio>
							<reverse>FALSE</reverse>
						</effect>
					</transitionitem>
					<clipitem id="clipitem-743" premiereChannelType="stereo">
						<masterclipid>masterclip-95</masterclipid>
						<name>BrookePart2_ZOOM0001.WAV</name>
						<enabled>TRUE</enabled>
						<duration>136757</duration>
						<rate>
							<timebase>60</timebase>
							<ntsc>FALSE</ntsc>
						</rate>
						<start>-1</start>
						<end>-1</end>
						<in>105448</in>
						<out>105547</out>
						<pproTicksIn>446424652800000</pproTicksIn>
						<pproTicksOut>446843779200000</pproTicksOut>
						<file id="file-95"/>
						<sourcetrack>
							<mediatype>audio</mediatype>
							<trackindex>1</trackindex>
						</sourcetrack>
						<filter>
							<effect>
								<name>Audio Levels</name>
								<effectid>audiolevels</effectid>
								<effectcategory>audiolevels</effectcategory>
								<effecttype>audiolevels</effecttype>
								<mediatype>audio</mediatype>
								<pproBypass>false</pproBypass>
								<parameter authoringApp="PremierePro">
									<parameterid>level</parameterid>
									<name>Level</name>
									<valuemin>0</valuemin>
									<valuemax>3.98109</valuemax>
									<value>0</value>
									<keyframe>
										<when>105448</when>
										<value>0</value>
									</keyframe>
									<keyframe>
										<when>105458</when>
										<value>1</value>
									</keyframe>
								</parameter>
							</effect>
						</filter>
							<marker>
								<comment></comment>
								<name></name>
								<in>6836</in>
								<out>-1</out>
							</marker>
						<link>
							<linkclipref>clipitem-743</linkclipref>
							<mediatype>audio</mediatype>
							<trackindex>15</trackindex>
							<clipindex>143</clipindex>
							<groupindex>1</groupindex>
						</link>
						<link>
							<linkclipref>clipitem-847</linkclipref>
							<mediatype>audio</mediatype>
							<trackindex>16</trackindex>
							<clipindex>143</clipindex>
							<groupindex>1</groupindex>
						</link>
						<logginginfo>
							<description></description>
							<scene></scene>
							<shottake></shottake>
							<lognote></lognote>
							<good></good>
							<originalvideofilename></originalvideofilename>
							<originalaudiofilename></originalaudiofilename>
						</logginginfo>
						<colorinfo>
							<lut></lut>
							<lut1></lut1>
							<asc_sop></asc_sop>
							<asc_sat></asc_sat>
							<lut2></lut2>
						</colorinfo>
						<labels>
							<label2>Rose</label2>
						</labels>
					</clipitem>
					<transitionitem>
						<start>50401</start>
						<end>50403</end>
						<alignment>center</alignment>
						<cutPointTicks>4233600000</cutPointTicks>
						<rate>
							<timebase>60</timebase>
							<ntsc>FALSE</ntsc>
						</rate>
						<effect>
							<name>Cross Fade (+3dB)</name>
							<effectid>KGAudioTransCrossFade3dB</effectid>
							<effecttype>transition</effecttype>
							<mediatype>audio</mediatype>
							<wipecode>0</wipecode>
							<wipeaccuracy>100</wipeaccuracy>
							<startratio>0</startratio>
							<endratio>1</endratio>
							<reverse>FALSE</reverse>
						</effect>
					</transitionitem>
					<clipitem id="clipitem-744" premiereChannelType="stereo">
						<masterclipid>masterclip-95</masterclipid>
						<name>BrookePart2_ZOOM0001.WAV</name>
						<enabled>TRUE</enabled>
						<duration>136757</duration>
						<rate>
							<timebase>60</timebase>
							<ntsc>FALSE</ntsc>
						</rate>
						<start>-1</start>
						<end>-1</end>
						<in>105556</in>
						<out>105590</out>
						<pproTicksIn>446881881600000</pproTicksIn>
						<pproTicksOut>447025824000000</pproTicksOut>
						<file id="file-95"/>
						<sourcetrack>
							<mediatype>audio</mediatype>
							<trackindex>1</trackindex>
						</sourcetrack>
						<filter>
							<effect>
								<name>Audio Levels</name>
								<effectid>audiolevels</effectid>
								<effectcategory>audiolevels</effectcategory>
								<effecttype>audiolevels</effecttype>
								<mediatype>audio</mediatype>
								<pproBypass>false</pproBypass>
								<parameter authoringApp="PremierePro">
									<parameterid>level</parameterid>
									<name>Level</name>
									<valuemin>0</valuemin>
									<valuemax>3.98109</valuemax>
									<value>0</value>
									<keyframe>
										<when>105448</when>
										<value>0</value>
									</keyframe>
									<keyframe>
										<when>105458</when>
										<value>1</value>
									</keyframe>
								</parameter>
							</effect>
						</filter>
							<marker>
								<comment></comment>
								<name></name>
								<in>6836</in>
								<out>-1</out>
							</marker>
						<link>
							<linkclipref>clipitem-744</linkclipref>
							<mediatype>audio</mediatype>
							<trackindex>15</trackindex>
							<clipindex>145</clipindex>
							<groupindex>1</groupindex>
						</link>
						<link>
							<linkclipref>clipitem-848</linkclipref>
							<mediatype>audio</mediatype>
							<trackindex>16</trackindex>
							<clipindex>145</clipindex>
							<groupindex>1</groupindex>
						</link>
						<logginginfo>
							<description></description>
							<scene></scene>
							<shottake></shottake>
							<lognote></lognote>
							<good></good>
							<originalvideofilename></originalvideofilename>
							<originalaudiofilename></originalaudiofilename>
						</logginginfo>
						<colorinfo>
							<lut></lut>
							<lut1></lut1>
							<asc_sop></asc_sop>
							<asc_sat></asc_sat>
							<lut2></lut2>
						</colorinfo>
						<labels>
							<label2>Rose</label2>
						</labels>
					</clipitem>
					<transitionitem>
						<start>50433</start>
						<end>50435</end>
						<alignment>center</alignment>
						<cutPointTicks>4233600000</cutPointTicks>
						<rate>
							<timebase>60</timebase>
							<ntsc>FALSE</ntsc>
						</rate>
						<effect>
							<name>Cross Fade (+3dB)</name>
							<effectid>KGAudioTransCrossFade3dB</effectid>
							<effecttype>transition</effecttype>
							<mediatype>audio</mediatype>
							<wipecode>0</wipecode>
							<wipeaccuracy>100</wipeaccuracy>
							<startratio>0</startratio>
							<endratio>1</endratio>
							<reverse>FALSE</reverse>
						</effect>
					</transitionitem>
					<clipitem id="clipitem-745" premiereChannelType="stereo">
						<masterclipid>masterclip-95</masterclipid>
						<name>BrookePart2_ZOOM0001.WAV</name>
						<enabled>TRUE</enabled>
						<duration>136757</duration>
						<rate>
							<timebase>60</timebase>
							<ntsc>FALSE</ntsc>
						</rate>
						<start>-1</start>
						<end>-1</end>
						<in>105634</in>
						<out>105749</out>
						<pproTicksIn>447212102400000</pproTicksIn>
						<pproTicksOut>447698966400000</pproTicksOut>
						<file id="file-95"/>
						<sourcetrack>
							<mediatype>audio</mediatype>
							<trackindex>1</trackindex>
						</sourcetrack>
						<filter>
							<effect>
								<name>Audio Levels</name>
								<effectid>audiolevels</effectid>
								<effectcategory>audiolevels</effectcategory>
								<effecttype>audiolevels</effecttype>
								<mediatype>audio</mediatype>
								<pproBypass>false</pproBypass>
								<parameter authoringApp="PremierePro">
									<parameterid>level</parameterid>
									<name>Level</name>
									<valuemin>0</valuemin>
									<valuemax>3.98109</valuemax>
									<value>0</value>
									<keyframe>
										<when>105448</when>
										<value>0</value>
									</keyframe>
									<keyframe>
										<when>105458</when>
										<value>1</value>
									</keyframe>
									<keyframe>
										<when>105716</when>
										<value>1</value>
									</keyframe>
									<keyframe>
										<when>105749</when>
										<value>0</value>
									</keyframe>
								</parameter>
							</effect>
						</filter>
							<marker>
								<comment></comment>
								<name></name>
								<in>6836</in>
								<out>-1</out>
							</marker>
						<link>
							<linkclipref>clipitem-745</linkclipref>
							<mediatype>audio</mediatype>
							<trackindex>15</trackindex>
							<clipindex>147</clipindex>
							<groupindex>1</groupindex>
						</link>
						<link>
							<linkclipref>clipitem-849</linkclipref>
							<mediatype>audio</mediatype>
							<trackindex>16</trackindex>
							<clipindex>147</clipindex>
							<groupindex>1</groupindex>
						</link>
						<logginginfo>
							<description></description>
							<scene></scene>
							<shottake></shottake>
							<lognote></lognote>
							<good></good>
							<originalvideofilename></originalvideofilename>
							<originalaudiofilename></originalaudiofilename>
						</logginginfo>
						<colorinfo>
							<lut></lut>
							<lut1></lut1>
							<asc_sop></asc_sop>
							<asc_sat></asc_sat>
							<lut2></lut2>
						</colorinfo>
						<labels>
							<label2>Rose</label2>
						</labels>
					</clipitem>
					<transitionitem>
						<start>50546</start>
						<end>50548</end>
						<alignment>end-black</alignment>
						<cutPointTicks>8467200000</cutPointTicks>
						<rate>
							<timebase>60</timebase>
							<ntsc>FALSE</ntsc>
						</rate>
						<effect>
							<name>Cross Fade (+3dB)</name>
							<effectid>KGAudioTransCrossFade3dB</effectid>
							<effecttype>transition</effecttype>
							<mediatype>audio</mediatype>
							<wipecode>0</wipecode>
							<wipeaccuracy>100</wipeaccuracy>
							<startratio>0</startratio>
							<endratio>1</endratio>
							<reverse>FALSE</reverse>
						</effect>
					</transitionitem>
					<clipitem id="clipitem-746" premiereChannelType="stereo">
						<masterclipid>masterclip-98</masterclipid>
						<name>ZOOM0002.WAV</name>
						<enabled>FALSE</enabled>
						<duration>43784</duration>
						<rate>
							<timebase>60</timebase>
							<ntsc>FALSE</ntsc>
						</rate>
						<start>52369</start>
						<end>52523</end>
						<in>25053</in>
						<out>25207</out>
						<pproTicksIn>106064380800000</pproTicksIn>
						<pproTicksOut>106716355200000</pproTicksOut>
						<file id="file-98"/>
						<sourcetrack>
							<mediatype>audio</mediatype>
							<trackindex>1</trackindex>
						</sourcetrack>
							<marker>
								<comment></comment>
								<name></name>
								<in>14634</in>
								<out>-1</out>
							</marker>
						<link>
							<linkclipref>clipitem-746</linkclipref>
							<mediatype>audio</mediatype>
							<trackindex>15</trackindex>
							<clipindex>149</clipindex>
							<groupindex>1</groupindex>
						</link>
						<link>
							<linkclipref>clipitem-850</linkclipref>
							<mediatype>audio</mediatype>
							<trackindex>16</trackindex>
							<clipindex>149</clipindex>
							<groupindex>1</groupindex>
						</link>
						<logginginfo>
							<description></description>
							<scene></scene>
							<shottake></shottake>
							<lognote></lognote>
							<good></good>
							<originalvideofilename></originalvideofilename>
							<originalaudiofilename></originalaudiofilename>
						</logginginfo>
						<colorinfo>
							<lut></lut>
							<lut1></lut1>
							<asc_sop></asc_sop>
							<asc_sat></asc_sat>
							<lut2></lut2>
						</colorinfo>
						<labels>
							<label2>Blue</label2>
						</labels>
					</clipitem>
					<clipitem id="clipitem-747" premiereChannelType="stereo">
						<masterclipid>masterclip-98</masterclipid>
						<name>ZOOM0002.WAV</name>
						<enabled>FALSE</enabled>
						<duration>43784</duration>
						<rate>
							<timebase>60</timebase>
							<ntsc>FALSE</ntsc>
						</rate>
						<start>52550</start>
						<end>52983</end>
						<in>25330</in>
						<out>25763</out>
						<pproTicksIn>107237088000000</pproTicksIn>
						<pproTicksOut>109070236800000</pproTicksOut>
						<file id="file-98"/>
						<sourcetrack>
							<mediatype>audio</mediatype>
							<trackindex>1</trackindex>
						</sourcetrack>
							<marker>
								<comment></comment>
								<name></name>
								<in>14634</in>
								<out>-1</out>
							</marker>
						<link>
							<linkclipref>clipitem-747</linkclipref>
							<mediatype>audio</mediatype>
							<trackindex>15</trackindex>
							<clipindex>150</clipindex>
							<groupindex>1</groupindex>
						</link>
						<link>
							<linkclipref>clipitem-851</linkclipref>
							<mediatype>audio</mediatype>
							<trackindex>16</trackindex>
							<clipindex>150</clipindex>
							<groupindex>1</groupindex>
						</link>
						<logginginfo>
							<description></description>
							<scene></scene>
							<shottake></shottake>
							<lognote></lognote>
							<good></good>
							<originalvideofilename></originalvideofilename>
							<originalaudiofilename></originalaudiofilename>
						</logginginfo>
						<colorinfo>
							<lut></lut>
							<lut1></lut1>
							<asc_sop></asc_sop>
							<asc_sat></asc_sat>
							<lut2></lut2>
						</colorinfo>
						<labels>
							<label2>Blue</label2>
						</labels>
					</clipitem>
					<clipitem id="clipitem-748" premiereChannelType="stereo">
						<masterclipid>masterclip-98</masterclipid>
						<name>ZOOM0002.WAV</name>
						<enabled>FALSE</enabled>
						<duration>43784</duration>
						<rate>
							<timebase>60</timebase>
							<ntsc>FALSE</ntsc>
						</rate>
						<start>52983</start>
						<end>53206</end>
						<in>25763</in>
						<out>25986</out>
						<pproTicksIn>109070236800000</pproTicksIn>
						<pproTicksOut>110014329600000</pproTicksOut>
						<file id="file-98"/>
						<sourcetrack>
							<mediatype>audio</mediatype>
							<trackindex>1</trackindex>
						</sourcetrack>
							<marker>
								<comment></comment>
								<name></name>
								<in>14634</in>
								<out>-1</out>
							</marker>
						<link>
							<linkclipref>clipitem-748</linkclipref>
							<mediatype>audio</mediatype>
							<trackindex>15</trackindex>
							<clipindex>151</clipindex>
							<groupindex>1</groupindex>
						</link>
						<link>
							<linkclipref>clipitem-852</linkclipref>
							<mediatype>audio</mediatype>
							<trackindex>16</trackindex>
							<clipindex>151</clipindex>
							<groupindex>1</groupindex>
						</link>
						<logginginfo>
							<description></description>
							<scene></scene>
							<shottake></shottake>
							<lognote></lognote>
							<good></good>
							<originalvideofilename></originalvideofilename>
							<originalaudiofilename></originalaudiofilename>
						</logginginfo>
						<colorinfo>
							<lut></lut>
							<lut1></lut1>
							<asc_sop></asc_sop>
							<asc_sat></asc_sat>
							<lut2></lut2>
						</colorinfo>
						<labels>
							<label2>Blue</label2>
						</labels>
					</clipitem>
					<clipitem id="clipitem-749" premiereChannelType="stereo">
						<masterclipid>masterclip-98</masterclipid>
						<name>ZOOM0002.WAV</name>
						<enabled>FALSE</enabled>
						<duration>43784</duration>
						<rate>
							<timebase>60</timebase>
							<ntsc>FALSE</ntsc>
						</rate>
						<start>53206</start>
						<end>53518</end>
						<in>25986</in>
						<out>26298</out>
						<pproTicksIn>110014329600000</pproTicksIn>
						<pproTicksOut>111335212800000</pproTicksOut>
						<file id="file-98"/>
						<sourcetrack>
							<mediatype>audio</mediatype>
							<trackindex>1</trackindex>
						</sourcetrack>
							<marker>
								<comment></comment>
								<name></name>
								<in>14634</in>
								<out>-1</out>
							</marker>
						<link>
							<linkclipref>clipitem-749</linkclipref>
							<mediatype>audio</mediatype>
							<trackindex>15</trackindex>
							<clipindex>152</clipindex>
							<groupindex>1</groupindex>
						</link>
						<link>
							<linkclipref>clipitem-853</linkclipref>
							<mediatype>audio</mediatype>
							<trackindex>16</trackindex>
							<clipindex>152</clipindex>
							<groupindex>1</groupindex>
						</link>
						<logginginfo>
							<description></description>
							<scene></scene>
							<shottake></shottake>
							<lognote></lognote>
							<good></good>
							<originalvideofilename></originalvideofilename>
							<originalaudiofilename></originalaudiofilename>
						</logginginfo>
						<colorinfo>
							<lut></lut>
							<lut1></lut1>
							<asc_sop></asc_sop>
							<asc_sat></asc_sat>
							<lut2></lut2>
						</colorinfo>
						<labels>
							<label2>Blue</label2>
						</labels>
					</clipitem>
					<clipitem id="clipitem-750" premiereChannelType="stereo">
						<masterclipid>masterclip-98</masterclipid>
						<name>ZOOM0002.WAV</name>
						<enabled>FALSE</enabled>
						<duration>43784</duration>
						<rate>
							<timebase>60</timebase>
							<ntsc>FALSE</ntsc>
						</rate>
						<start>53518</start>
						<end>53930</end>
						<in>26298</in>
						<out>26710</out>
						<pproTicksIn>111335212800000</pproTicksIn>
						<pproTicksOut>113079456000000</pproTicksOut>
						<file id="file-98"/>
						<sourcetrack>
							<mediatype>audio</mediatype>
							<trackindex>1</trackindex>
						</sourcetrack>
							<marker>
								<comment></comment>
								<name></name>
								<in>14634</in>
								<out>-1</out>
							</marker>
						<link>
							<linkclipref>clipitem-750</linkclipref>
							<mediatype>audio</mediatype>
							<trackindex>15</trackindex>
							<clipindex>153</clipindex>
							<groupindex>1</groupindex>
						</link>
						<link>
							<linkclipref>clipitem-854</linkclipref>
							<mediatype>audio</mediatype>
							<trackindex>16</trackindex>
							<clipindex>153</clipindex>
							<groupindex>1</groupindex>
						</link>
						<logginginfo>
							<description></description>
							<scene></scene>
							<shottake></shottake>
							<lognote></lognote>
							<good></good>
							<originalvideofilename></originalvideofilename>
							<originalaudiofilename></originalaudiofilename>
						</logginginfo>
						<colorinfo>
							<lut></lut>
							<lut1></lut1>
							<asc_sop></asc_sop>
							<asc_sat></asc_sat>
							<lut2></lut2>
						</colorinfo>
						<labels>
							<label2>Blue</label2>
						</labels>
					</clipitem>
					<clipitem id="clipitem-751" premiereChannelType="stereo">
						<masterclipid>masterclip-98</masterclipid>
						<name>ZOOM0002.WAV</name>
						<enabled>FALSE</enabled>
						<duration>43784</duration>
						<rate>
							<timebase>60</timebase>
							<ntsc>FALSE</ntsc>
						</rate>
						<start>53930</start>
						<end>54623</end>
						<in>26710</in>
						<out>27403</out>
						<pproTicksIn>113079456000000</pproTicksIn>
						<pproTicksOut>116013340800000</pproTicksOut>
						<file id="file-98"/>
						<sourcetrack>
							<mediatype>audio</mediatype>
							<trackindex>1</trackindex>
						</sourcetrack>
							<marker>
								<comment></comment>
								<name></name>
								<in>14634</in>
								<out>-1</out>
							</marker>
						<link>
							<linkclipref>clipitem-751</linkclipref>
							<mediatype>audio</mediatype>
							<trackindex>15</trackindex>
							<clipindex>154</clipindex>
							<groupindex>1</groupindex>
						</link>
						<link>
							<linkclipref>clipitem-855</linkclipref>
							<mediatype>audio</mediatype>
							<trackindex>16</trackindex>
							<clipindex>154</clipindex>
							<groupindex>1</groupindex>
						</link>
						<logginginfo>
							<description></description>
							<scene></scene>
							<shottake></shottake>
							<lognote></lognote>
							<good></good>
							<originalvideofilename></originalvideofilename>
							<originalaudiofilename></originalaudiofilename>
						</logginginfo>
						<colorinfo>
							<lut></lut>
							<lut1></lut1>
							<asc_sop></asc_sop>
							<asc_sat></asc_sat>
							<lut2></lut2>
						</colorinfo>
						<labels>
							<label2>Violet</label2>
						</labels>
					</clipitem>
					<clipitem id="clipitem-752" premiereChannelType="stereo">
						<masterclipid>masterclip-98</masterclipid>
						<name>ZOOM0002.WAV</name>
						<enabled>FALSE</enabled>
						<duration>43784</duration>
						<rate>
							<timebase>60</timebase>
							<ntsc>FALSE</ntsc>
						</rate>
						<start>54623</start>
						<end>55523</end>
						<in>27589</in>
						<out>28489</out>
						<pproTicksIn>116800790400000</pproTicksIn>
						<pproTicksOut>120611030400000</pproTicksOut>
						<file id="file-98"/>
						<sourcetrack>
							<mediatype>audio</mediatype>
							<trackindex>1</trackindex>
						</sourcetrack>
						<filter>
							<effect>
								<name>Audio Levels</name>
								<effectid>audiolevels</effectid>
								<effectcategory>audiolevels</effectcategory>
								<effecttype>audiolevels</effecttype>
								<mediatype>audio</mediatype>
								<pproBypass>false</pproBypass>
								<parameter authoringApp="PremierePro">
									<parameterid>level</parameterid>
									<name>Level</name>
									<valuemin>0</valuemin>
									<valuemax>3.98109</valuemax>
									<value>0</value>
									<keyframe>
										<when>28453</when>
										<value>1</value>
									</keyframe>
									<keyframe>
										<when>28489</when>
										<value>0</value>
									</keyframe>
								</parameter>
							</effect>
						</filter>
							<marker>
								<comment></comment>
								<name></name>
								<in>14634</in>
								<out>-1</out>
							</marker>
						<link>
							<linkclipref>clipitem-752</linkclipref>
							<mediatype>audio</mediatype>
							<trackindex>15</trackindex>
							<clipindex>155</clipindex>
							<groupindex>1</groupindex>
						</link>
						<link>
							<linkclipref>clipitem-856</linkclipref>
							<mediatype>audio</mediatype>
							<trackindex>16</trackindex>
							<clipindex>155</clipindex>
							<groupindex>1</groupindex>
						</link>
						<logginginfo>
							<description></description>
							<scene></scene>
							<shottake></shottake>
							<lognote></lognote>
							<good></good>
							<originalvideofilename></originalvideofilename>
							<originalaudiofilename></originalaudiofilename>
						</logginginfo>
						<colorinfo>
							<lut></lut>
							<lut1></lut1>
							<asc_sop></asc_sop>
							<asc_sat></asc_sat>
							<lut2></lut2>
						</colorinfo>
						<labels>
							<label2>Violet</label2>
						</labels>
					</clipitem>
					<transitionitem>
						<start>55880</start>
						<end>55882</end>
						<alignment>start-black</alignment>
						<cutPointTicks>0</cutPointTicks>
						<rate>
							<timebase>60</timebase>
							<ntsc>FALSE</ntsc>
						</rate>
						<effect>
							<name>Cross Fade (+3dB)</name>
							<effectid>KGAudioTransCrossFade3dB</effectid>
							<effecttype>transition</effecttype>
							<mediatype>audio</mediatype>
							<wipecode>0</wipecode>
							<wipeaccuracy>100</wipeaccuracy>
							<startratio>0</startratio>
							<endratio>1</endratio>
							<reverse>FALSE</reverse>
						</effect>
					</transitionitem>
					<clipitem id="clipitem-753" premiereChannelType="stereo">
						<masterclipid>masterclip-95</masterclipid>
						<name>BrookePart2_ZOOM0001.WAV</name>
						<enabled>TRUE</enabled>
						<duration>136757</duration>
						<rate>
							<timebase>60</timebase>
							<ntsc>FALSE</ntsc>
						</rate>
						<start>-1</start>
						<end>-1</end>
						<in>62958</in>
						<out>63245</out>
						<pproTicksIn>266538988800000</pproTicksIn>
						<pproTicksOut>267754032000000</pproTicksOut>
						<file id="file-95"/>
						<sourcetrack>
							<mediatype>audio</mediatype>
							<trackindex>1</trackindex>
						</sourcetrack>
							<marker>
								<comment></comment>
								<name></name>
								<in>6836</in>
								<out>-1</out>
							</marker>
						<link>
							<linkclipref>clipitem-753</linkclipref>
							<mediatype>audio</mediatype>
							<trackindex>15</trackindex>
							<clipindex>157</clipindex>
							<groupindex>1</groupindex>
						</link>
						<link>
							<linkclipref>clipitem-857</linkclipref>
							<mediatype>audio</mediatype>
							<trackindex>16</trackindex>
							<clipindex>157</clipindex>
							<groupindex>1</groupindex>
						</link>
						<logginginfo>
							<description></description>
							<scene></scene>
							<shottake></shottake>
							<lognote></lognote>
							<good></good>
							<originalvideofilename></originalvideofilename>
							<originalaudiofilename></originalaudiofilename>
						</logginginfo>
						<colorinfo>
							<lut></lut>
							<lut1></lut1>
							<asc_sop></asc_sop>
							<asc_sat></asc_sat>
							<lut2></lut2>
						</colorinfo>
						<labels>
							<label2>Violet</label2>
						</labels>
					</clipitem>
					<transitionitem>
						<start>56165</start>
						<end>56167</end>
						<alignment>center</alignment>
						<cutPointTicks>4233600000</cutPointTicks>
						<rate>
							<timebase>60</timebase>
							<ntsc>FALSE</ntsc>
						</rate>
						<effect>
							<name>Cross Fade (+3dB)</name>
							<effectid>KGAudioTransCrossFade3dB</effectid>
							<effecttype>transition</effecttype>
							<mediatype>audio</mediatype>
							<wipecode>0</wipecode>
							<wipeaccuracy>100</wipeaccuracy>
							<startratio>0</startratio>
							<endratio>1</endratio>
							<reverse>FALSE</reverse>
						</effect>
					</transitionitem>
					<clipitem id="clipitem-754" premiereChannelType="stereo">
						<masterclipid>masterclip-95</masterclipid>
						<name>BrookePart2_ZOOM0001.WAV</name>
						<enabled>TRUE</enabled>
						<duration>136757</duration>
						<rate>
							<timebase>60</timebase>
							<ntsc>FALSE</ntsc>
						</rate>
						<start>-1</start>
						<end>-1</end>
						<in>63337</in>
						<out>63403</out>
						<pproTicksIn>268143523200000</pproTicksIn>
						<pproTicksOut>268422940800000</pproTicksOut>
						<file id="file-95"/>
						<sourcetrack>
							<mediatype>audio</mediatype>
							<trackindex>1</trackindex>
						</sourcetrack>
						<filter>
							<effect>
								<name>Audio Levels</name>
								<effectid>audiolevels</effectid>
								<effectcategory>audiolevels</effectcategory>
								<effecttype>audiolevels</effecttype>
								<mediatype>audio</mediatype>
								<pproBypass>false</pproBypass>
								<parameter authoringApp="PremierePro">
									<parameterid>level</parameterid>
									<name>Level</name>
									<valuemin>0</valuemin>
									<valuemax>3.98109</valuemax>
									<value>1</value>
									<keyframe>
										<when>63603</when>
										<value>1</value>
									</keyframe>
									<keyframe>
										<when>63634</when>
										<value>0</value>
									</keyframe>
								</parameter>
							</effect>
						</filter>
							<marker>
								<comment></comment>
								<name></name>
								<in>6836</in>
								<out>-1</out>
							</marker>
						<link>
							<linkclipref>clipitem-754</linkclipref>
							<mediatype>audio</mediatype>
							<trackindex>15</trackindex>
							<clipindex>159</clipindex>
							<groupindex>1</groupindex>
						</link>
						<link>
							<linkclipref>clipitem-858</linkclipref>
							<mediatype>audio</mediatype>
							<trackindex>16</trackindex>
							<clipindex>159</clipindex>
							<groupindex>1</groupindex>
						</link>
						<logginginfo>
							<description></description>
							<scene></scene>
							<shottake></shottake>
							<lognote></lognote>
							<good></good>
							<originalvideofilename></originalvideofilename>
							<originalaudiofilename></originalaudiofilename>
						</logginginfo>
						<colorinfo>
							<lut></lut>
							<lut1></lut1>
							<asc_sop></asc_sop>
							<asc_sat></asc_sat>
							<lut2></lut2>
						</colorinfo>
						<labels>
							<label2>Violet</label2>
						</labels>
					</clipitem>
					<transitionitem>
						<start>56229</start>
						<end>56231</end>
						<alignment>center</alignment>
						<cutPointTicks>4233600000</cutPointTicks>
						<rate>
							<timebase>60</timebase>
							<ntsc>FALSE</ntsc>
						</rate>
						<effect>
							<name>Cross Fade (+3dB)</name>
							<effectid>KGAudioTransCrossFade3dB</effectid>
							<effecttype>transition</effecttype>
							<mediatype>audio</mediatype>
							<wipecode>0</wipecode>
							<wipeaccuracy>100</wipeaccuracy>
							<startratio>0</startratio>
							<endratio>1</endratio>
							<reverse>FALSE</reverse>
						</effect>
					</transitionitem>
					<clipitem id="clipitem-755" premiereChannelType="stereo">
						<masterclipid>masterclip-95</masterclipid>
						<name>BrookePart2_ZOOM0001.WAV</name>
						<enabled>TRUE</enabled>
						<duration>136757</duration>
						<rate>
							<timebase>60</timebase>
							<ntsc>FALSE</ntsc>
						</rate>
						<start>-1</start>
						<end>-1</end>
						<in>63401</in>
						<out>63437</out>
						<pproTicksIn>268414473600000</pproTicksIn>
						<pproTicksOut>268566883200000</pproTicksOut>
						<file id="file-95"/>
						<sourcetrack>
							<mediatype>audio</mediatype>
							<trackindex>1</trackindex>
						</sourcetrack>
						<filter>
							<effect>
								<name>Audio Levels</name>
								<effectid>audiolevels</effectid>
								<effectcategory>audiolevels</effectcategory>
								<effecttype>audiolevels</effecttype>
								<mediatype>audio</mediatype>
								<pproBypass>false</pproBypass>
								<parameter authoringApp="PremierePro">
									<parameterid>level</parameterid>
									<name>Level</name>
									<valuemin>0</valuemin>
									<valuemax>3.98109</valuemax>
									<value>1</value>
									<keyframe>
										<when>63603</when>
										<value>1</value>
									</keyframe>
									<keyframe>
										<when>63634</when>
										<value>0</value>
									</keyframe>
								</parameter>
							</effect>
						</filter>
							<marker>
								<comment></comment>
								<name></name>
								<in>6836</in>
								<out>-1</out>
							</marker>
						<link>
							<linkclipref>clipitem-755</linkclipref>
							<mediatype>audio</mediatype>
							<trackindex>15</trackindex>
							<clipindex>161</clipindex>
							<groupindex>1</groupindex>
						</link>
						<link>
							<linkclipref>clipitem-859</linkclipref>
							<mediatype>audio</mediatype>
							<trackindex>16</trackindex>
							<clipindex>161</clipindex>
							<groupindex>1</groupindex>
						</link>
						<logginginfo>
							<description></description>
							<scene></scene>
							<shottake></shottake>
							<lognote></lognote>
							<good></good>
							<originalvideofilename></originalvideofilename>
							<originalaudiofilename></originalaudiofilename>
						</logginginfo>
						<colorinfo>
							<lut></lut>
							<lut1></lut1>
							<asc_sop></asc_sop>
							<asc_sat></asc_sat>
							<lut2></lut2>
						</colorinfo>
						<labels>
							<label2>Violet</label2>
						</labels>
					</clipitem>
					<transitionitem>
						<start>56263</start>
						<end>56265</end>
						<alignment>center</alignment>
						<cutPointTicks>4233600000</cutPointTicks>
						<rate>
							<timebase>60</timebase>
							<ntsc>FALSE</ntsc>
						</rate>
						<effect>
							<name>Cross Fade (+3dB)</name>
							<effectid>KGAudioTransCrossFade3dB</effectid>
							<effecttype>transition</effecttype>
							<mediatype>audio</mediatype>
							<wipecode>0</wipecode>
							<wipeaccuracy>100</wipeaccuracy>
							<startratio>0</startratio>
							<endratio>1</endratio>
							<reverse>FALSE</reverse>
						</effect>
					</transitionitem>
					<clipitem id="clipitem-756" premiereChannelType="stereo">
						<masterclipid>masterclip-95</masterclipid>
						<name>BrookePart2_ZOOM0001.WAV</name>
						<enabled>TRUE</enabled>
						<duration>136757</duration>
						<rate>
							<timebase>60</timebase>
							<ntsc>FALSE</ntsc>
						</rate>
						<start>-1</start>
						<end>-1</end>
						<in>63455</in>
						<out>63634</out>
						<pproTicksIn>268643088000000</pproTicksIn>
						<pproTicksOut>269400902400000</pproTicksOut>
						<file id="file-95"/>
						<sourcetrack>
							<mediatype>audio</mediatype>
							<trackindex>1</trackindex>
						</sourcetrack>
						<filter>
							<effect>
								<name>Audio Levels</name>
								<effectid>audiolevels</effectid>
								<effectcategory>audiolevels</effectcategory>
								<effecttype>audiolevels</effecttype>
								<mediatype>audio</mediatype>
								<pproBypass>false</pproBypass>
								<parameter authoringApp="PremierePro">
									<parameterid>level</parameterid>
									<name>Level</name>
									<valuemin>0</valuemin>
									<valuemax>3.98109</valuemax>
									<value>1</value>
									<keyframe>
										<when>63603</when>
										<value>1</value>
									</keyframe>
									<keyframe>
										<when>63634</when>
										<value>0</value>
									</keyframe>
								</parameter>
							</effect>
						</filter>
							<marker>
								<comment></comment>
								<name></name>
								<in>6836</in>
								<out>-1</out>
							</marker>
						<link>
							<linkclipref>clipitem-756</linkclipref>
							<mediatype>audio</mediatype>
							<trackindex>15</trackindex>
							<clipindex>163</clipindex>
							<groupindex>1</groupindex>
						</link>
						<link>
							<linkclipref>clipitem-860</linkclipref>
							<mediatype>audio</mediatype>
							<trackindex>16</trackindex>
							<clipindex>163</clipindex>
							<groupindex>1</groupindex>
						</link>
						<logginginfo>
							<description></description>
							<scene></scene>
							<shottake></shottake>
							<lognote></lognote>
							<good></good>
							<originalvideofilename></originalvideofilename>
							<originalaudiofilename></originalaudiofilename>
						</logginginfo>
						<colorinfo>
							<lut></lut>
							<lut1></lut1>
							<asc_sop></asc_sop>
							<asc_sat></asc_sat>
							<lut2></lut2>
						</colorinfo>
						<labels>
							<label2>Violet</label2>
						</labels>
					</clipitem>
					<transitionitem>
						<start>56440</start>
						<end>56442</end>
						<alignment>end-black</alignment>
						<cutPointTicks>8467200000</cutPointTicks>
						<rate>
							<timebase>60</timebase>
							<ntsc>FALSE</ntsc>
						</rate>
						<effect>
							<name>Cross Fade (+3dB)</name>
							<effectid>KGAudioTransCrossFade3dB</effectid>
							<effecttype>transition</effecttype>
							<mediatype>audio</mediatype>
							<wipecode>0</wipecode>
							<wipeaccuracy>100</wipeaccuracy>
							<startratio>0</startratio>
							<endratio>1</endratio>
							<reverse>FALSE</reverse>
						</effect>
					</transitionitem>
					<transitionitem>
						<start>56470</start>
						<end>56472</end>
						<alignment>start-black</alignment>
						<cutPointTicks>0</cutPointTicks>
						<rate>
							<timebase>60</timebase>
							<ntsc>FALSE</ntsc>
						</rate>
						<effect>
							<name>Cross Fade (+3dB)</name>
							<effectid>KGAudioTransCrossFade3dB</effectid>
							<effecttype>transition</effecttype>
							<mediatype>audio</mediatype>
							<wipecode>0</wipecode>
							<wipeaccuracy>100</wipeaccuracy>
							<startratio>0</startratio>
							<endratio>1</endratio>
							<reverse>FALSE</reverse>
						</effect>
					</transitionitem>
					<clipitem id="clipitem-757" premiereChannelType="stereo">
						<masterclipid>masterclip-95</masterclipid>
						<name>BrookePart2_ZOOM0001.WAV</name>
						<enabled>TRUE</enabled>
						<duration>136757</duration>
						<rate>
							<timebase>60</timebase>
							<ntsc>FALSE</ntsc>
						</rate>
						<start>-1</start>
						<end>-1</end>
						<in>63670</in>
						<out>63771</out>
						<pproTicksIn>269553312000000</pproTicksIn>
						<pproTicksOut>269980905600000</pproTicksOut>
						<file id="file-95"/>
						<sourcetrack>
							<mediatype>audio</mediatype>
							<trackindex>1</trackindex>
						</sourcetrack>
						<filter>
							<effect>
								<name>Audio Levels</name>
								<effectid>audiolevels</effectid>
								<effectcategory>audiolevels</effectcategory>
								<effecttype>audiolevels</effecttype>
								<mediatype>audio</mediatype>
								<pproBypass>false</pproBypass>
								<parameter authoringApp="PremierePro">
									<parameterid>level</parameterid>
									<name>Level</name>
									<valuemin>0</valuemin>
									<valuemax>3.98109</valuemax>
									<value>1.42105</value>
								</parameter>
							</effect>
						</filter>
							<marker>
								<comment></comment>
								<name></name>
								<in>6836</in>
								<out>-1</out>
							</marker>
						<link>
							<linkclipref>clipitem-757</linkclipref>
							<mediatype>audio</mediatype>
							<trackindex>15</trackindex>
							<clipindex>166</clipindex>
							<groupindex>1</groupindex>
						</link>
						<link>
							<linkclipref>clipitem-861</linkclipref>
							<mediatype>audio</mediatype>
							<trackindex>16</trackindex>
							<clipindex>166</clipindex>
							<groupindex>1</groupindex>
						</link>
						<logginginfo>
							<description></description>
							<scene></scene>
							<shottake></shottake>
							<lognote></lognote>
							<good></good>
							<originalvideofilename></originalvideofilename>
							<originalaudiofilename></originalaudiofilename>
						</logginginfo>
						<colorinfo>
							<lut></lut>
							<lut1></lut1>
							<asc_sop></asc_sop>
							<asc_sat></asc_sat>
							<lut2></lut2>
						</colorinfo>
						<labels>
							<label2>Blue</label2>
						</labels>
					</clipitem>
					<transitionitem>
						<start>56569</start>
						<end>56571</end>
						<alignment>center</alignment>
						<cutPointTicks>4233600000</cutPointTicks>
						<rate>
							<timebase>60</timebase>
							<ntsc>FALSE</ntsc>
						</rate>
						<effect>
							<name>Cross Fade (+3dB)</name>
							<effectid>KGAudioTransCrossFade3dB</effectid>
							<effecttype>transition</effecttype>
							<mediatype>audio</mediatype>
							<wipecode>0</wipecode>
							<wipeaccuracy>100</wipeaccuracy>
							<startratio>0</startratio>
							<endratio>1</endratio>
							<reverse>FALSE</reverse>
						</effect>
					</transitionitem>
					<clipitem id="clipitem-758" premiereChannelType="stereo">
						<masterclipid>masterclip-95</masterclipid>
						<name>BrookePart2_ZOOM0001.WAV</name>
						<enabled>TRUE</enabled>
						<duration>136757</duration>
						<rate>
							<timebase>60</timebase>
							<ntsc>FALSE</ntsc>
						</rate>
						<start>-1</start>
						<end>-1</end>
						<in>63790</in>
						<out>64159</out>
						<pproTicksIn>270061344000000</pproTicksIn>
						<pproTicksOut>271623542400000</pproTicksOut>
						<file id="file-95"/>
						<sourcetrack>
							<mediatype>audio</mediatype>
							<trackindex>1</trackindex>
						</sourcetrack>
							<marker>
								<comment></comment>
								<name></name>
								<in>6836</in>
								<out>-1</out>
							</marker>
						<link>
							<linkclipref>clipitem-758</linkclipref>
							<mediatype>audio</mediatype>
							<trackindex>15</trackindex>
							<clipindex>168</clipindex>
							<groupindex>1</groupindex>
						</link>
						<link>
							<linkclipref>clipitem-862</linkclipref>
							<mediatype>audio</mediatype>
							<trackindex>16</trackindex>
							<clipindex>168</clipindex>
							<groupindex>1</groupindex>
						</link>
						<logginginfo>
							<description></description>
							<scene></scene>
							<shottake></shottake>
							<lognote></lognote>
							<good></good>
							<originalvideofilename></originalvideofilename>
							<originalaudiofilename></originalaudiofilename>
						</logginginfo>
						<colorinfo>
							<lut></lut>
							<lut1></lut1>
							<asc_sop></asc_sop>
							<asc_sat></asc_sat>
							<lut2></lut2>
						</colorinfo>
						<labels>
							<label2>Blue</label2>
						</labels>
					</clipitem>
					<transitionitem>
						<start>56936</start>
						<end>56938</end>
						<alignment>center</alignment>
						<cutPointTicks>4233600000</cutPointTicks>
						<rate>
							<timebase>60</timebase>
							<ntsc>FALSE</ntsc>
						</rate>
						<effect>
							<name>Cross Fade (+3dB)</name>
							<effectid>KGAudioTransCrossFade3dB</effectid>
							<effecttype>transition</effecttype>
							<mediatype>audio</mediatype>
							<wipecode>0</wipecode>
							<wipeaccuracy>100</wipeaccuracy>
							<startratio>0</startratio>
							<endratio>1</endratio>
							<reverse>FALSE</reverse>
						</effect>
					</transitionitem>
					<clipitem id="clipitem-759" premiereChannelType="stereo">
						<masterclipid>masterclip-95</masterclipid>
						<name>BrookePart2_ZOOM0001.WAV</name>
						<enabled>TRUE</enabled>
						<duration>136757</duration>
						<rate>
							<timebase>60</timebase>
							<ntsc>FALSE</ntsc>
						</rate>
						<start>-1</start>
						<end>-1</end>
						<in>64204</in>
						<out>64309</out>
						<pproTicksIn>271814054400000</pproTicksIn>
						<pproTicksOut>272258582400000</pproTicksOut>
						<file id="file-95"/>
						<sourcetrack>
							<mediatype>audio</mediatype>
							<trackindex>1</trackindex>
						</sourcetrack>
						<filter>
							<effect>
								<name>Audio Levels</name>
								<effectid>audiolevels</effectid>
								<effectcategory>audiolevels</effectcategory>
								<effecttype>audiolevels</effecttype>
								<mediatype>audio</mediatype>
								<pproBypass>false</pproBypass>
								<parameter authoringApp="PremierePro">
									<parameterid>level</parameterid>
									<name>Level</name>
									<valuemin>0</valuemin>
									<valuemax>3.98109</valuemax>
									<value>1.21053</value>
								</parameter>
							</effect>
						</filter>
							<marker>
								<comment></comment>
								<name></name>
								<in>6836</in>
								<out>-1</out>
							</marker>
						<link>
							<linkclipref>clipitem-759</linkclipref>
							<mediatype>audio</mediatype>
							<trackindex>15</trackindex>
							<clipindex>170</clipindex>
							<groupindex>1</groupindex>
						</link>
						<link>
							<linkclipref>clipitem-863</linkclipref>
							<mediatype>audio</mediatype>
							<trackindex>16</trackindex>
							<clipindex>170</clipindex>
							<groupindex>1</groupindex>
						</link>
						<logginginfo>
							<description></description>
							<scene></scene>
							<shottake></shottake>
							<lognote></lognote>
							<good></good>
							<originalvideofilename></originalvideofilename>
							<originalaudiofilename></originalaudiofilename>
						</logginginfo>
						<colorinfo>
							<lut></lut>
							<lut1></lut1>
							<asc_sop></asc_sop>
							<asc_sat></asc_sat>
							<lut2></lut2>
						</colorinfo>
						<labels>
							<label2>Blue</label2>
						</labels>
					</clipitem>
					<transitionitem>
						<start>57039</start>
						<end>57041</end>
						<alignment>center</alignment>
						<cutPointTicks>4233600000</cutPointTicks>
						<rate>
							<timebase>60</timebase>
							<ntsc>FALSE</ntsc>
						</rate>
						<effect>
							<name>Cross Fade (+3dB)</name>
							<effectid>KGAudioTransCrossFade3dB</effectid>
							<effecttype>transition</effecttype>
							<mediatype>audio</mediatype>
							<wipecode>0</wipecode>
							<wipeaccuracy>100</wipeaccuracy>
							<startratio>0</startratio>
							<endratio>1</endratio>
							<reverse>FALSE</reverse>
						</effect>
					</transitionitem>
					<clipitem id="clipitem-760" premiereChannelType="stereo">
						<masterclipid>masterclip-95</masterclipid>
						<name>BrookePart2_ZOOM0001.WAV</name>
						<enabled>TRUE</enabled>
						<duration>136757</duration>
						<rate>
							<timebase>60</timebase>
							<ntsc>FALSE</ntsc>
						</rate>
						<start>-1</start>
						<end>-1</end>
						<in>64930</in>
						<out>65049</out>
						<pproTicksIn>274887648000000</pproTicksIn>
						<pproTicksOut>275391446400000</pproTicksOut>
						<file id="file-95"/>
						<sourcetrack>
							<mediatype>audio</mediatype>
							<trackindex>1</trackindex>
						</sourcetrack>
							<marker>
								<comment></comment>
								<name></name>
								<in>6836</in>
								<out>-1</out>
							</marker>
						<link>
							<linkclipref>clipitem-760</linkclipref>
							<mediatype>audio</mediatype>
							<trackindex>15</trackindex>
							<clipindex>172</clipindex>
							<groupindex>1</groupindex>
						</link>
						<link>
							<linkclipref>clipitem-864</linkclipref>
							<mediatype>audio</mediatype>
							<trackindex>16</trackindex>
							<clipindex>172</clipindex>
							<groupindex>1</groupindex>
						</link>
						<logginginfo>
							<description></description>
							<scene></scene>
							<shottake></shottake>
							<lognote></lognote>
							<good></good>
							<originalvideofilename></originalvideofilename>
							<originalaudiofilename></originalaudiofilename>
						</logginginfo>
						<colorinfo>
							<lut></lut>
							<lut1></lut1>
							<asc_sop></asc_sop>
							<asc_sat></asc_sat>
							<lut2></lut2>
						</colorinfo>
						<labels>
							<label2>Blue</label2>
						</labels>
					</clipitem>
					<transitionitem>
						<start>57156</start>
						<end>57158</end>
						<alignment>center</alignment>
						<cutPointTicks>4233600000</cutPointTicks>
						<rate>
							<timebase>60</timebase>
							<ntsc>FALSE</ntsc>
						</rate>
						<effect>
							<name>Cross Fade (+3dB)</name>
							<effectid>KGAudioTransCrossFade3dB</effectid>
							<effecttype>transition</effecttype>
							<mediatype>audio</mediatype>
							<wipecode>0</wipecode>
							<wipeaccuracy>100</wipeaccuracy>
							<startratio>0</startratio>
							<endratio>1</endratio>
							<reverse>FALSE</reverse>
						</effect>
					</transitionitem>
					<clipitem id="clipitem-761" premiereChannelType="stereo">
						<masterclipid>masterclip-95</masterclipid>
						<name>BrookePart2_ZOOM0001.WAV</name>
						<enabled>TRUE</enabled>
						<duration>136757</duration>
						<rate>
							<timebase>60</timebase>
							<ntsc>FALSE</ntsc>
						</rate>
						<start>-1</start>
						<end>-1</end>
						<in>65084</in>
						<out>65142</out>
						<pproTicksIn>275539622400000</pproTicksIn>
						<pproTicksOut>275785171200000</pproTicksOut>
						<file id="file-95"/>
						<sourcetrack>
							<mediatype>audio</mediatype>
							<trackindex>1</trackindex>
						</sourcetrack>
						<filter>
							<effect>
								<name>Audio Levels</name>
								<effectid>audiolevels</effectid>
								<effectcategory>audiolevels</effectcategory>
								<effecttype>audiolevels</effecttype>
								<mediatype>audio</mediatype>
								<pproBypass>false</pproBypass>
								<parameter authoringApp="PremierePro">
									<parameterid>level</parameterid>
									<name>Level</name>
									<valuemin>0</valuemin>
									<valuemax>3.98109</valuemax>
									<value>1.52632</value>
								</parameter>
							</effect>
						</filter>
							<marker>
								<comment></comment>
								<name></name>
								<in>6836</in>
								<out>-1</out>
							</marker>
						<link>
							<linkclipref>clipitem-761</linkclipref>
							<mediatype>audio</mediatype>
							<trackindex>15</trackindex>
							<clipindex>174</clipindex>
							<groupindex>1</groupindex>
						</link>
						<link>
							<linkclipref>clipitem-865</linkclipref>
							<mediatype>audio</mediatype>
							<trackindex>16</trackindex>
							<clipindex>174</clipindex>
							<groupindex>1</groupindex>
						</link>
						<logginginfo>
							<description></description>
							<scene></scene>
							<shottake></shottake>
							<lognote></lognote>
							<good></good>
							<originalvideofilename></originalvideofilename>
							<originalaudiofilename></originalaudiofilename>
						</logginginfo>
						<colorinfo>
							<lut></lut>
							<lut1></lut1>
							<asc_sop></asc_sop>
							<asc_sat></asc_sat>
							<lut2></lut2>
						</colorinfo>
						<labels>
							<label2>Blue</label2>
						</labels>
					</clipitem>
					<transitionitem>
						<start>57212</start>
						<end>57214</end>
						<alignment>center</alignment>
						<cutPointTicks>4233600000</cutPointTicks>
						<rate>
							<timebase>60</timebase>
							<ntsc>FALSE</ntsc>
						</rate>
						<effect>
							<name>Cross Fade (+3dB)</name>
							<effectid>KGAudioTransCrossFade3dB</effectid>
							<effecttype>transition</effecttype>
							<mediatype>audio</mediatype>
							<wipecode>0</wipecode>
							<wipeaccuracy>100</wipeaccuracy>
							<startratio>0</startratio>
							<endratio>1</endratio>
							<reverse>FALSE</reverse>
						</effect>
					</transitionitem>
					<clipitem id="clipitem-762" premiereChannelType="stereo">
						<masterclipid>masterclip-95</masterclipid>
						<name>BrookePart2_ZOOM0001.WAV</name>
						<enabled>TRUE</enabled>
						<duration>136757</duration>
						<rate>
							<timebase>60</timebase>
							<ntsc>FALSE</ntsc>
						</rate>
						<start>-1</start>
						<end>-1</end>
						<in>65159</in>
						<out>65213</out>
						<pproTicksIn>275857142400000</pproTicksIn>
						<pproTicksOut>276085756800000</pproTicksOut>
						<file id="file-95"/>
						<sourcetrack>
							<mediatype>audio</mediatype>
							<trackindex>1</trackindex>
						</sourcetrack>
						<filter>
							<effect>
								<name>Audio Levels</name>
								<effectid>audiolevels</effectid>
								<effectcategory>audiolevels</effectcategory>
								<effecttype>audiolevels</effecttype>
								<mediatype>audio</mediatype>
								<pproBypass>false</pproBypass>
								<parameter authoringApp="PremierePro">
									<parameterid>level</parameterid>
									<name>Level</name>
									<valuemin>0</valuemin>
									<valuemax>3.98109</valuemax>
									<value>1.49123</value>
								</parameter>
							</effect>
						</filter>
							<marker>
								<comment></comment>
								<name></name>
								<in>6836</in>
								<out>-1</out>
							</marker>
						<link>
							<linkclipref>clipitem-762</linkclipref>
							<mediatype>audio</mediatype>
							<trackindex>15</trackindex>
							<clipindex>176</clipindex>
							<groupindex>1</groupindex>
						</link>
						<link>
							<linkclipref>clipitem-866</linkclipref>
							<mediatype>audio</mediatype>
							<trackindex>16</trackindex>
							<clipindex>176</clipindex>
							<groupindex>1</groupindex>
						</link>
						<logginginfo>
							<description></description>
							<scene></scene>
							<shottake></shottake>
							<lognote></lognote>
							<good></good>
							<originalvideofilename></originalvideofilename>
							<originalaudiofilename></originalaudiofilename>
						</logginginfo>
						<colorinfo>
							<lut></lut>
							<lut1></lut1>
							<asc_sop></asc_sop>
							<asc_sat></asc_sat>
							<lut2></lut2>
						</colorinfo>
						<labels>
							<label2>Blue</label2>
						</labels>
					</clipitem>
					<transitionitem>
						<start>57264</start>
						<end>57266</end>
						<alignment>end-black</alignment>
						<cutPointTicks>8467200000</cutPointTicks>
						<rate>
							<timebase>60</timebase>
							<ntsc>FALSE</ntsc>
						</rate>
						<effect>
							<name>Cross Fade (+3dB)</name>
							<effectid>KGAudioTransCrossFade3dB</effectid>
							<effecttype>transition</effecttype>
							<mediatype>audio</mediatype>
							<wipecode>0</wipecode>
							<wipeaccuracy>100</wipeaccuracy>
							<startratio>0</startratio>
							<endratio>1</endratio>
							<reverse>FALSE</reverse>
						</effect>
					</transitionitem>
					<transitionitem>
						<start>57322</start>
						<end>57324</end>
						<alignment>start-black</alignment>
						<cutPointTicks>0</cutPointTicks>
						<rate>
							<timebase>60</timebase>
							<ntsc>FALSE</ntsc>
						</rate>
						<effect>
							<name>Cross Fade (+3dB)</name>
							<effectid>KGAudioTransCrossFade3dB</effectid>
							<effecttype>transition</effecttype>
							<mediatype>audio</mediatype>
							<wipecode>0</wipecode>
							<wipeaccuracy>100</wipeaccuracy>
							<startratio>0</startratio>
							<endratio>1</endratio>
							<reverse>FALSE</reverse>
						</effect>
					</transitionitem>
					<clipitem id="clipitem-763" premiereChannelType="stereo">
						<masterclipid>masterclip-95</masterclipid>
						<name>BrookePart2_ZOOM0001.WAV</name>
						<enabled>TRUE</enabled>
						<duration>136757</duration>
						<rate>
							<timebase>60</timebase>
							<ntsc>FALSE</ntsc>
						</rate>
						<start>-1</start>
						<end>-1</end>
						<in>65258</in>
						<out>65603</out>
						<pproTicksIn>276276268800000</pproTicksIn>
						<pproTicksOut>277736860800000</pproTicksOut>
						<file id="file-95"/>
						<sourcetrack>
							<mediatype>audio</mediatype>
							<trackindex>1</trackindex>
						</sourcetrack>
						<filter>
							<effect>
								<name>Audio Levels</name>
								<effectid>audiolevels</effectid>
								<effectcategory>audiolevels</effectcategory>
								<effecttype>audiolevels</effecttype>
								<mediatype>audio</mediatype>
								<pproBypass>false</pproBypass>
								<parameter authoringApp="PremierePro">
									<parameterid>level</parameterid>
									<name>Level</name>
									<valuemin>0</valuemin>
									<valuemax>3.98109</valuemax>
									<value>1</value>
									<keyframe>
										<when>65572</when>
										<value>1</value>
									</keyframe>
									<keyframe>
										<when>65581</when>
										<value>0</value>
									</keyframe>
								</parameter>
							</effect>
						</filter>
							<marker>
								<comment></comment>
								<name></name>
								<in>6836</in>
								<out>-1</out>
							</marker>
						<link>
							<linkclipref>clipitem-763</linkclipref>
							<mediatype>audio</mediatype>
							<trackindex>15</trackindex>
							<clipindex>179</clipindex>
							<groupindex>1</groupindex>
						</link>
						<link>
							<linkclipref>clipitem-867</linkclipref>
							<mediatype>audio</mediatype>
							<trackindex>16</trackindex>
							<clipindex>179</clipindex>
							<groupindex>1</groupindex>
						</link>
						<logginginfo>
							<description></description>
							<scene></scene>
							<shottake></shottake>
							<lognote></lognote>
							<good></good>
							<originalvideofilename></originalvideofilename>
							<originalaudiofilename></originalaudiofilename>
						</logginginfo>
						<colorinfo>
							<lut></lut>
							<lut1></lut1>
							<asc_sop></asc_sop>
							<asc_sat></asc_sat>
							<lut2></lut2>
						</colorinfo>
						<labels>
							<label2>Blue</label2>
						</labels>
					</clipitem>
					<transitionitem>
						<start>57665</start>
						<end>57667</end>
						<alignment>end-black</alignment>
						<cutPointTicks>8467200000</cutPointTicks>
						<rate>
							<timebase>60</timebase>
							<ntsc>FALSE</ntsc>
						</rate>
						<effect>
							<name>Cross Fade (+3dB)</name>
							<effectid>KGAudioTransCrossFade3dB</effectid>
							<effecttype>transition</effecttype>
							<mediatype>audio</mediatype>
							<wipecode>0</wipecode>
							<wipeaccuracy>100</wipeaccuracy>
							<startratio>0</startratio>
							<endratio>1</endratio>
							<reverse>FALSE</reverse>
						</effect>
					</transitionitem>
					<transitionitem>
						<start>57705</start>
						<end>57707</end>
						<alignment>start-black</alignment>
						<cutPointTicks>0</cutPointTicks>
						<rate>
							<timebase>60</timebase>
							<ntsc>FALSE</ntsc>
						</rate>
						<effect>
							<name>Cross Fade (+3dB)</name>
							<effectid>KGAudioTransCrossFade3dB</effectid>
							<effecttype>transition</effecttype>
							<mediatype>audio</mediatype>
							<wipecode>0</wipecode>
							<wipeaccuracy>100</wipeaccuracy>
							<startratio>0</startratio>
							<endratio>1</endratio>
							<reverse>FALSE</reverse>
						</effect>
					</transitionitem>
					<clipitem id="clipitem-764" premiereChannelType="stereo">
						<masterclipid>masterclip-95</masterclipid>
						<name>BrookePart2_ZOOM0001.WAV</name>
						<enabled>TRUE</enabled>
						<duration>136757</duration>
						<rate>
							<timebase>60</timebase>
							<ntsc>FALSE</ntsc>
						</rate>
						<start>-1</start>
						<end>-1</end>
						<in>71340</in>
						<out>71687</out>
						<pproTicksIn>302025024000000</pproTicksIn>
						<pproTicksOut>303494083200000</pproTicksOut>
						<file id="file-95"/>
						<sourcetrack>
							<mediatype>audio</mediatype>
							<trackindex>1</trackindex>
						</sourcetrack>
						<filter>
							<effect>
								<name>Audio Levels</name>
								<effectid>audiolevels</effectid>
								<effectcategory>audiolevels</effectcategory>
								<effecttype>audiolevels</effecttype>
								<mediatype>audio</mediatype>
								<pproBypass>false</pproBypass>
								<parameter authoringApp="PremierePro">
									<parameterid>level</parameterid>
									<name>Level</name>
									<valuemin>0</valuemin>
									<valuemax>3.98109</valuemax>
									<value>0</value>
									<keyframe>
										<when>71352</when>
										<value>0</value>
									</keyframe>
									<keyframe>
										<when>71359</when>
										<value>1</value>
									</keyframe>
									<keyframe>
										<when>71794</when>
										<value>1</value>
									</keyframe>
									<keyframe>
										<when>71826</when>
										<value>0</value>
									</keyframe>
								</parameter>
							</effect>
						</filter>
							<marker>
								<comment></comment>
								<name></name>
								<in>6836</in>
								<out>-1</out>
							</marker>
						<link>
							<linkclipref>clipitem-764</linkclipref>
							<mediatype>audio</mediatype>
							<trackindex>15</trackindex>
							<clipindex>182</clipindex>
							<groupindex>1</groupindex>
						</link>
						<link>
							<linkclipref>clipitem-868</linkclipref>
							<mediatype>audio</mediatype>
							<trackindex>16</trackindex>
							<clipindex>182</clipindex>
							<groupindex>1</groupindex>
						</link>
						<logginginfo>
							<description></description>
							<scene></scene>
							<shottake></shottake>
							<lognote></lognote>
							<good></good>
							<originalvideofilename></originalvideofilename>
							<originalaudiofilename></originalaudiofilename>
						</logginginfo>
						<colorinfo>
							<lut></lut>
							<lut1></lut1>
							<asc_sop></asc_sop>
							<asc_sat></asc_sat>
							<lut2></lut2>
						</colorinfo>
						<labels>
							<label2>Blue</label2>
						</labels>
					</clipitem>
					<transitionitem>
						<start>58050</start>
						<end>58052</end>
						<alignment>center</alignment>
						<cutPointTicks>4233600000</cutPointTicks>
						<rate>
							<timebase>60</timebase>
							<ntsc>FALSE</ntsc>
						</rate>
						<effect>
							<name>Cross Fade (+3dB)</name>
							<effectid>KGAudioTransCrossFade3dB</effectid>
							<effecttype>transition</effecttype>
							<mediatype>audio</mediatype>
							<wipecode>0</wipecode>
							<wipeaccuracy>100</wipeaccuracy>
							<startratio>0</startratio>
							<endratio>1</endratio>
							<reverse>FALSE</reverse>
						</effect>
					</transitionitem>
					<clipitem id="clipitem-765" premiereChannelType="stereo">
						<masterclipid>masterclip-95</masterclipid>
						<name>BrookePart2_ZOOM0001.WAV</name>
						<enabled>TRUE</enabled>
						<duration>136757</duration>
						<rate>
							<timebase>60</timebase>
							<ntsc>FALSE</ntsc>
						</rate>
						<start>-1</start>
						<end>-1</end>
						<in>71718</in>
						<out>71826</out>
						<pproTicksIn>303625324800000</pproTicksIn>
						<pproTicksOut>304082553600000</pproTicksOut>
						<file id="file-95"/>
						<sourcetrack>
							<mediatype>audio</mediatype>
							<trackindex>1</trackindex>
						</sourcetrack>
						<filter>
							<effect>
								<name>Audio Levels</name>
								<effectid>audiolevels</effectid>
								<effectcategory>audiolevels</effectcategory>
								<effecttype>audiolevels</effecttype>
								<mediatype>audio</mediatype>
								<pproBypass>false</pproBypass>
								<parameter authoringApp="PremierePro">
									<parameterid>level</parameterid>
									<name>Level</name>
									<valuemin>0</valuemin>
									<valuemax>3.98109</valuemax>
									<value>1</value>
									<keyframe>
										<when>71794</when>
										<value>1</value>
									</keyframe>
									<keyframe>
										<when>71826</when>
										<value>0</value>
									</keyframe>
								</parameter>
							</effect>
						</filter>
							<marker>
								<comment></comment>
								<name></name>
								<in>6836</in>
								<out>-1</out>
							</marker>
						<link>
							<linkclipref>clipitem-765</linkclipref>
							<mediatype>audio</mediatype>
							<trackindex>15</trackindex>
							<clipindex>184</clipindex>
							<groupindex>1</groupindex>
						</link>
						<link>
							<linkclipref>clipitem-869</linkclipref>
							<mediatype>audio</mediatype>
							<trackindex>16</trackindex>
							<clipindex>184</clipindex>
							<groupindex>1</groupindex>
						</link>
						<logginginfo>
							<description></description>
							<scene></scene>
							<shottake></shottake>
							<lognote></lognote>
							<good></good>
							<originalvideofilename></originalvideofilename>
							<originalaudiofilename></originalaudiofilename>
						</logginginfo>
						<colorinfo>
							<lut></lut>
							<lut1></lut1>
							<asc_sop></asc_sop>
							<asc_sat></asc_sat>
							<lut2></lut2>
						</colorinfo>
						<labels>
							<label2>Blue</label2>
						</labels>
					</clipitem>
					<transitionitem>
						<start>58156</start>
						<end>58158</end>
						<alignment>end-black</alignment>
						<cutPointTicks>8467200000</cutPointTicks>
						<rate>
							<timebase>60</timebase>
							<ntsc>FALSE</ntsc>
						</rate>
						<effect>
							<name>Cross Fade (+3dB)</name>
							<effectid>KGAudioTransCrossFade3dB</effectid>
							<effecttype>transition</effecttype>
							<mediatype>audio</mediatype>
							<wipecode>0</wipecode>
							<wipeaccuracy>100</wipeaccuracy>
							<startratio>0</startratio>
							<endratio>1</endratio>
							<reverse>FALSE</reverse>
						</effect>
					</transitionitem>
					<transitionitem>
						<start>59082</start>
						<end>59084</end>
						<alignment>start-black</alignment>
						<cutPointTicks>0</cutPointTicks>
						<rate>
							<timebase>60</timebase>
							<ntsc>FALSE</ntsc>
						</rate>
						<effect>
							<name>Cross Fade (+3dB)</name>
							<effectid>KGAudioTransCrossFade3dB</effectid>
							<effecttype>transition</effecttype>
							<mediatype>audio</mediatype>
							<wipecode>0</wipecode>
							<wipeaccuracy>100</wipeaccuracy>
							<startratio>0</startratio>
							<endratio>1</endratio>
							<reverse>FALSE</reverse>
						</effect>
					</transitionitem>
					<clipitem id="clipitem-766" premiereChannelType="stereo">
						<masterclipid>masterclip-99</masterclipid>
						<name>Kate_ZOOM0002.WAV</name>
						<enabled>TRUE</enabled>
						<duration>62251</duration>
						<rate>
							<timebase>60</timebase>
							<ntsc>FALSE</ntsc>
						</rate>
						<start>-1</start>
						<end>-1</end>
						<in>30032</in>
						<out>30121</out>
						<pproTicksIn>127143475200000</pproTicksIn>
						<pproTicksOut>127520265600000</pproTicksOut>
						<file id="file-99">
							<name>Kate_ZOOM0002.WAV</name>
							<pathurl>file://localhost/G%3a/Departments/_Post/__Projects/035_Chimps_Part_2/1.Raw/Ingest/project_chimps_20180514/KateNarration/FOLDER01/Kate_ZOOM0002.WAV</pathurl>
							<rate>
								<timebase>30</timebase>
								<ntsc>TRUE</ntsc>
							</rate>
							<duration>31094</duration>
							<timecode>
								<rate>
									<timebase>30</timebase>
									<ntsc>TRUE</ntsc>
								</rate>
								<string>01;17;06;01</string>
								<frame>138641</frame>
								<displayformat>DF</displayformat>
							</timecode>
							<media>
								<audio>
									<samplecharacteristics>
										<depth>16</depth>
										<samplerate>48000</samplerate>
									</samplecharacteristics>
									<channelcount>2</channelcount>
								</audio>
							</media>
						</file>
						<sourcetrack>
							<mediatype>audio</mediatype>
							<trackindex>1</trackindex>
						</sourcetrack>
						<filter>
							<effect>
								<name>Gain</name>
								<effectid>{61756678, 4761696e, 4b657947}</effectid>
								<effecttype>filter</effecttype>
								<mediatype>audio</mediatype>
								<parameter authoringApp="PremierePro">
									<parameterid>Gain(dB)</parameterid>
									<name>Gain(dB)</name>
									<valuemin>-96</valuemin>
									<valuemax>96</valuemax>
									<value>3</value>
								</parameter>
							</effect>
						</filter>
						<link>
							<linkclipref>clipitem-766</linkclipref>
							<mediatype>audio</mediatype>
							<trackindex>15</trackindex>
							<clipindex>187</clipindex>
							<groupindex>1</groupindex>
						</link>
						<link>
							<linkclipref>clipitem-870</linkclipref>
							<mediatype>audio</mediatype>
							<trackindex>16</trackindex>
							<clipindex>187</clipindex>
							<groupindex>1</groupindex>
						</link>
						<logginginfo>
							<description></description>
							<scene></scene>
							<shottake></shottake>
							<lognote></lognote>
							<good></good>
							<originalvideofilename></originalvideofilename>
							<originalaudiofilename></originalaudiofilename>
						</logginginfo>
						<colorinfo>
							<lut></lut>
							<lut1></lut1>
							<asc_sop></asc_sop>
							<asc_sat></asc_sat>
							<lut2></lut2>
						</colorinfo>
						<labels>
							<label2>Mango</label2>
						</labels>
					</clipitem>
					<transitionitem>
						<start>59170</start>
						<end>59172</end>
						<alignment>center</alignment>
						<cutPointTicks>4233600000</cutPointTicks>
						<rate>
							<timebase>60</timebase>
							<ntsc>FALSE</ntsc>
						</rate>
						<effect>
							<name>Cross Fade (+3dB)</name>
							<effectid>KGAudioTransCrossFade3dB</effectid>
							<effecttype>transition</effecttype>
							<mediatype>audio</mediatype>
							<wipecode>0</wipecode>
							<wipeaccuracy>100</wipeaccuracy>
							<startratio>0</startratio>
							<endratio>1</endratio>
							<reverse>FALSE</reverse>
						</effect>
					</transitionitem>
					<clipitem id="clipitem-767" premiereChannelType="stereo">
						<masterclipid>masterclip-99</masterclipid>
						<name>Kate_ZOOM0002.WAV</name>
						<enabled>TRUE</enabled>
						<duration>62251</duration>
						<rate>
							<timebase>60</timebase>
							<ntsc>FALSE</ntsc>
						</rate>
						<start>-1</start>
						<end>-1</end>
						<in>30134</in>
						<out>30284</out>
						<pproTicksIn>127575302400000</pproTicksIn>
						<pproTicksOut>128210342400000</pproTicksOut>
						<file id="file-99"/>
						<sourcetrack>
							<mediatype>audio</mediatype>
							<trackindex>1</trackindex>
						</sourcetrack>
						<filter>
							<effect>
								<name>Gain</name>
								<effectid>{61756678, 4761696e, 4b657947}</effectid>
								<effecttype>filter</effecttype>
								<mediatype>audio</mediatype>
								<parameter authoringApp="PremierePro">
									<parameterid>Gain(dB)</parameterid>
									<name>Gain(dB)</name>
									<valuemin>-96</valuemin>
									<valuemax>96</valuemax>
									<value>3</value>
								</parameter>
							</effect>
						</filter>
						<link>
							<linkclipref>clipitem-767</linkclipref>
							<mediatype>audio</mediatype>
							<trackindex>15</trackindex>
							<clipindex>189</clipindex>
							<groupindex>1</groupindex>
						</link>
						<link>
							<linkclipref>clipitem-871</linkclipref>
							<mediatype>audio</mediatype>
							<trackindex>16</trackindex>
							<clipindex>189</clipindex>
							<groupindex>1</groupindex>
						</link>
						<logginginfo>
							<description></description>
							<scene></scene>
							<shottake></shottake>
							<lognote></lognote>
							<good></good>
							<originalvideofilename></originalvideofilename>
							<originalaudiofilename></originalaudiofilename>
						</logginginfo>
						<colorinfo>
							<lut></lut>
							<lut1></lut1>
							<asc_sop></asc_sop>
							<asc_sat></asc_sat>
							<lut2></lut2>
						</colorinfo>
						<labels>
							<label2>Mango</label2>
						</labels>
					</clipitem>
					<transitionitem>
						<start>59317</start>
						<end>59321</end>
						<alignment>center</alignment>
						<cutPointTicks>8467200000</cutPointTicks>
						<rate>
							<timebase>60</timebase>
							<ntsc>FALSE</ntsc>
						</rate>
						<effect>
							<name>Cross Fade (+3dB)</name>
							<effectid>KGAudioTransCrossFade3dB</effectid>
							<effecttype>transition</effecttype>
							<mediatype>audio</mediatype>
							<wipecode>0</wipecode>
							<wipeaccuracy>100</wipeaccuracy>
							<startratio>0</startratio>
							<endratio>1</endratio>
							<reverse>FALSE</reverse>
						</effect>
					</transitionitem>
					<clipitem id="clipitem-768" premiereChannelType="stereo">
						<masterclipid>masterclip-99</masterclipid>
						<name>Kate_ZOOM0002.WAV</name>
						<enabled>TRUE</enabled>
						<duration>62251</duration>
						<rate>
							<timebase>60</timebase>
							<ntsc>FALSE</ntsc>
						</rate>
						<start>-1</start>
						<end>59389</end>
						<in>31327</in>
						<out>31400</out>
						<pproTicksIn>132625987200000</pproTicksIn>
						<pproTicksOut>132935040000000</pproTicksOut>
						<file id="file-99"/>
						<sourcetrack>
							<mediatype>audio</mediatype>
							<trackindex>1</trackindex>
						</sourcetrack>
						<filter>
							<effect>
								<name>Gain</name>
								<effectid>{61756678, 4761696e, 4b657947}</effectid>
								<effecttype>filter</effecttype>
								<mediatype>audio</mediatype>
								<parameter authoringApp="PremierePro">
									<parameterid>Gain(dB)</parameterid>
									<name>Gain(dB)</name>
									<valuemin>-96</valuemin>
									<valuemax>96</valuemax>
									<value>3</value>
								</parameter>
							</effect>
						</filter>
						<link>
							<linkclipref>clipitem-768</linkclipref>
							<mediatype>audio</mediatype>
							<trackindex>15</trackindex>
							<clipindex>191</clipindex>
							<groupindex>1</groupindex>
						</link>
						<link>
							<linkclipref>clipitem-872</linkclipref>
							<mediatype>audio</mediatype>
							<trackindex>16</trackindex>
							<clipindex>191</clipindex>
							<groupindex>1</groupindex>
						</link>
						<logginginfo>
							<description></description>
							<scene></scene>
							<shottake></shottake>
							<lognote></lognote>
							<good></good>
							<originalvideofilename></originalvideofilename>
							<originalaudiofilename></originalaudiofilename>
						</logginginfo>
						<colorinfo>
							<lut></lut>
							<lut1></lut1>
							<asc_sop></asc_sop>
							<asc_sat></asc_sat>
							<lut2></lut2>
						</colorinfo>
						<labels>
							<label2>Mango</label2>
						</labels>
					</clipitem>
					<clipitem id="clipitem-769" premiereChannelType="stereo">
						<masterclipid>masterclip-99</masterclipid>
						<name>Kate_ZOOM0002.WAV</name>
						<enabled>TRUE</enabled>
						<duration>62251</duration>
						<rate>
							<timebase>60</timebase>
							<ntsc>FALSE</ntsc>
						</rate>
						<start>59389</start>
						<end>-1</end>
						<in>31529</in>
						<out>31660</out>
						<pproTicksIn>133481174400000</pproTicksIn>
						<pproTicksOut>134035776000000</pproTicksOut>
						<file id="file-99"/>
						<sourcetrack>
							<mediatype>audio</mediatype>
							<trackindex>1</trackindex>
						</sourcetrack>
						<filter>
							<effect>
								<name>Gain</name>
								<effectid>{61756678, 4761696e, 4b657947}</effectid>
								<effecttype>filter</effecttype>
								<mediatype>audio</mediatype>
								<parameter authoringApp="PremierePro">
									<parameterid>Gain(dB)</parameterid>
									<name>Gain(dB)</name>
									<valuemin>-96</valuemin>
									<valuemax>96</valuemax>
									<value>3</value>
								</parameter>
							</effect>
						</filter>
						<link>
							<linkclipref>clipitem-769</linkclipref>
							<mediatype>audio</mediatype>
							<trackindex>15</trackindex>
							<clipindex>192</clipindex>
							<groupindex>1</groupindex>
						</link>
						<link>
							<linkclipref>clipitem-873</linkclipref>
							<mediatype>audio</mediatype>
							<trackindex>16</trackindex>
							<clipindex>192</clipindex>
							<groupindex>1</groupindex>
						</link>
						<logginginfo>
							<description></description>
							<scene></scene>
							<shottake></shottake>
							<lognote></lognote>
							<good></good>
							<originalvideofilename></originalvideofilename>
							<originalaudiofilename></originalaudiofilename>
						</logginginfo>
						<colorinfo>
							<lut></lut>
							<lut1></lut1>
							<asc_sop></asc_sop>
							<asc_sat></asc_sat>
							<lut2></lut2>
						</colorinfo>
						<labels>
							<label2>Mango</label2>
						</labels>
					</clipitem>
					<transitionitem>
						<start>59516</start>
						<end>59519</end>
						<alignment>end-black</alignment>
						<cutPointTicks>12700800000</cutPointTicks>
						<rate>
							<timebase>60</timebase>
							<ntsc>FALSE</ntsc>
						</rate>
						<effect>
							<name>Cross Fade (+3dB)</name>
							<effectid>KGAudioTransCrossFade3dB</effectid>
							<effecttype>transition</effecttype>
							<mediatype>audio</mediatype>
							<wipecode>0</wipecode>
							<wipeaccuracy>100</wipeaccuracy>
							<startratio>0</startratio>
							<endratio>1</endratio>
							<reverse>FALSE</reverse>
						</effect>
					</transitionitem>
					<transitionitem>
						<start>59559</start>
						<end>59561</end>
						<alignment>start-black</alignment>
						<cutPointTicks>0</cutPointTicks>
						<rate>
							<timebase>60</timebase>
							<ntsc>FALSE</ntsc>
						</rate>
						<effect>
							<name>Cross Fade (+3dB)</name>
							<effectid>KGAudioTransCrossFade3dB</effectid>
							<effecttype>transition</effecttype>
							<mediatype>audio</mediatype>
							<wipecode>0</wipecode>
							<wipeaccuracy>100</wipeaccuracy>
							<startratio>0</startratio>
							<endratio>1</endratio>
							<reverse>FALSE</reverse>
						</effect>
					</transitionitem>
					<clipitem id="clipitem-770" premiereChannelType="stereo">
						<masterclipid>masterclip-99</masterclipid>
						<name>Kate_ZOOM0002.WAV</name>
						<enabled>TRUE</enabled>
						<duration>62251</duration>
						<rate>
							<timebase>60</timebase>
							<ntsc>FALSE</ntsc>
						</rate>
						<start>-1</start>
						<end>-1</end>
						<in>30726</in>
						<out>30777</out>
						<pproTicksIn>130081593600000</pproTicksIn>
						<pproTicksOut>130297507200000</pproTicksOut>
						<file id="file-99"/>
						<sourcetrack>
							<mediatype>audio</mediatype>
							<trackindex>1</trackindex>
						</sourcetrack>
						<filter>
							<effect>
								<name>Gain</name>
								<effectid>{61756678, 4761696e, 4b657947}</effectid>
								<effecttype>filter</effecttype>
								<mediatype>audio</mediatype>
								<parameter authoringApp="PremierePro">
									<parameterid>Gain(dB)</parameterid>
									<name>Gain(dB)</name>
									<valuemin>-96</valuemin>
									<valuemax>96</valuemax>
									<value>3</value>
								</parameter>
							</effect>
						</filter>
						<link>
							<linkclipref>clipitem-770</linkclipref>
							<mediatype>audio</mediatype>
							<trackindex>15</trackindex>
							<clipindex>195</clipindex>
							<groupindex>1</groupindex>
						</link>
						<link>
							<linkclipref>clipitem-874</linkclipref>
							<mediatype>audio</mediatype>
							<trackindex>16</trackindex>
							<clipindex>195</clipindex>
							<groupindex>1</groupindex>
						</link>
						<logginginfo>
							<description></description>
							<scene></scene>
							<shottake></shottake>
							<lognote></lognote>
							<good></good>
							<originalvideofilename></originalvideofilename>
							<originalaudiofilename></originalaudiofilename>
						</logginginfo>
						<colorinfo>
							<lut></lut>
							<lut1></lut1>
							<asc_sop></asc_sop>
							<asc_sat></asc_sat>
							<lut2></lut2>
						</colorinfo>
						<labels>
							<label2>Purple</label2>
						</labels>
					</clipitem>
					<transitionitem>
						<start>59608</start>
						<end>59610</end>
						<alignment>center</alignment>
						<cutPointTicks>4233600000</cutPointTicks>
						<rate>
							<timebase>60</timebase>
							<ntsc>FALSE</ntsc>
						</rate>
						<effect>
							<name>Cross Fade (+3dB)</name>
							<effectid>KGAudioTransCrossFade3dB</effectid>
							<effecttype>transition</effecttype>
							<mediatype>audio</mediatype>
							<wipecode>0</wipecode>
							<wipeaccuracy>100</wipeaccuracy>
							<startratio>0</startratio>
							<endratio>1</endratio>
							<reverse>FALSE</reverse>
						</effect>
					</transitionitem>
					<clipitem id="clipitem-771" premiereChannelType="stereo">
						<masterclipid>masterclip-99</masterclipid>
						<name>Kate_ZOOM0002.WAV</name>
						<enabled>TRUE</enabled>
						<duration>62251</duration>
						<rate>
							<timebase>60</timebase>
							<ntsc>FALSE</ntsc>
						</rate>
						<start>-1</start>
						<end>-1</end>
						<in>30824</in>
						<out>31021</out>
						<pproTicksIn>130496486400000</pproTicksIn>
						<pproTicksOut>131330505600000</pproTicksOut>
						<file id="file-99"/>
						<sourcetrack>
							<mediatype>audio</mediatype>
							<trackindex>1</trackindex>
						</sourcetrack>
						<filter>
							<effect>
								<name>Gain</name>
								<effectid>{61756678, 4761696e, 4b657947}</effectid>
								<effecttype>filter</effecttype>
								<mediatype>audio</mediatype>
								<parameter authoringApp="PremierePro">
									<parameterid>Gain(dB)</parameterid>
									<name>Gain(dB)</name>
									<valuemin>-96</valuemin>
									<valuemax>96</valuemax>
									<value>3</value>
								</parameter>
							</effect>
						</filter>
						<link>
							<linkclipref>clipitem-771</linkclipref>
							<mediatype>audio</mediatype>
							<trackindex>15</trackindex>
							<clipindex>197</clipindex>
							<groupindex>1</groupindex>
						</link>
						<link>
							<linkclipref>clipitem-875</linkclipref>
							<mediatype>audio</mediatype>
							<trackindex>16</trackindex>
							<clipindex>197</clipindex>
							<groupindex>1</groupindex>
						</link>
						<logginginfo>
							<description></description>
							<scene></scene>
							<shottake></shottake>
							<lognote></lognote>
							<good></good>
							<originalvideofilename></originalvideofilename>
							<originalaudiofilename></originalaudiofilename>
						</logginginfo>
						<colorinfo>
							<lut></lut>
							<lut1></lut1>
							<asc_sop></asc_sop>
							<asc_sat></asc_sat>
							<lut2></lut2>
						</colorinfo>
						<labels>
							<label2>Purple</label2>
						</labels>
					</clipitem>
					<transitionitem>
						<start>59803</start>
						<end>59805</end>
						<alignment>center</alignment>
						<cutPointTicks>4233600000</cutPointTicks>
						<rate>
							<timebase>60</timebase>
							<ntsc>FALSE</ntsc>
						</rate>
						<effect>
							<name>Cross Fade (+3dB)</name>
							<effectid>KGAudioTransCrossFade3dB</effectid>
							<effecttype>transition</effecttype>
							<mediatype>audio</mediatype>
							<wipecode>0</wipecode>
							<wipeaccuracy>100</wipeaccuracy>
							<startratio>0</startratio>
							<endratio>1</endratio>
							<reverse>FALSE</reverse>
						</effect>
					</transitionitem>
					<clipitem id="clipitem-772" premiereChannelType="stereo">
						<masterclipid>masterclip-99</masterclipid>
						<name>Kate_ZOOM0002.WAV</name>
						<enabled>TRUE</enabled>
						<duration>62251</duration>
						<rate>
							<timebase>60</timebase>
							<ntsc>FALSE</ntsc>
						</rate>
						<start>-1</start>
						<end>-1</end>
						<in>31049</in>
						<out>31094</out>
						<pproTicksIn>131449046400000</pproTicksIn>
						<pproTicksOut>131639558400000</pproTicksOut>
						<file id="file-99"/>
						<sourcetrack>
							<mediatype>audio</mediatype>
							<trackindex>1</trackindex>
						</sourcetrack>
						<filter>
							<effect>
								<name>Gain</name>
								<effectid>{61756678, 4761696e, 4b657947}</effectid>
								<effecttype>filter</effecttype>
								<mediatype>audio</mediatype>
								<parameter authoringApp="PremierePro">
									<parameterid>Gain(dB)</parameterid>
									<name>Gain(dB)</name>
									<valuemin>-96</valuemin>
									<valuemax>96</valuemax>
									<value>3</value>
								</parameter>
							</effect>
						</filter>
						<link>
							<linkclipref>clipitem-772</linkclipref>
							<mediatype>audio</mediatype>
							<trackindex>15</trackindex>
							<clipindex>199</clipindex>
							<groupindex>1</groupindex>
						</link>
						<link>
							<linkclipref>clipitem-876</linkclipref>
							<mediatype>audio</mediatype>
							<trackindex>16</trackindex>
							<clipindex>199</clipindex>
							<groupindex>1</groupindex>
						</link>
						<logginginfo>
							<description></description>
							<scene></scene>
							<shottake></shottake>
							<lognote></lognote>
							<good></good>
							<originalvideofilename></originalvideofilename>
							<originalaudiofilename></originalaudiofilename>
						</logginginfo>
						<colorinfo>
							<lut></lut>
							<lut1></lut1>
							<asc_sop></asc_sop>
							<asc_sat></asc_sat>
							<lut2></lut2>
						</colorinfo>
						<labels>
							<label2>Purple</label2>
						</labels>
					</clipitem>
					<transitionitem>
						<start>59846</start>
						<end>59848</end>
						<alignment>end-black</alignment>
						<cutPointTicks>8467200000</cutPointTicks>
						<rate>
							<timebase>60</timebase>
							<ntsc>FALSE</ntsc>
						</rate>
						<effect>
							<name>Cross Fade (+3dB)</name>
							<effectid>KGAudioTransCrossFade3dB</effectid>
							<effecttype>transition</effecttype>
							<mediatype>audio</mediatype>
							<wipecode>0</wipecode>
							<wipeaccuracy>100</wipeaccuracy>
							<startratio>0</startratio>
							<endratio>1</endratio>
							<reverse>FALSE</reverse>
						</effect>
					</transitionitem>
					<transitionitem>
						<start>59900</start>
						<end>59902</end>
						<alignment>start-black</alignment>
						<cutPointTicks>0</cutPointTicks>
						<rate>
							<timebase>60</timebase>
							<ntsc>FALSE</ntsc>
						</rate>
						<effect>
							<name>Cross Fade (+3dB)</name>
							<effectid>KGAudioTransCrossFade3dB</effectid>
							<effecttype>transition</effecttype>
							<mediatype>audio</mediatype>
							<wipecode>0</wipecode>
							<wipeaccuracy>100</wipeaccuracy>
							<startratio>0</startratio>
							<endratio>1</endratio>
							<reverse>FALSE</reverse>
						</effect>
					</transitionitem>
					<clipitem id="clipitem-773" premiereChannelType="stereo">
						<masterclipid>masterclip-99</masterclipid>
						<name>Kate_ZOOM0002.WAV</name>
						<enabled>TRUE</enabled>
						<duration>62251</duration>
						<rate>
							<timebase>60</timebase>
							<ntsc>FALSE</ntsc>
						</rate>
						<start>-1</start>
						<end>-1</end>
						<in>3109</in>
						<out>3380</out>
						<pproTicksIn>13162262400000</pproTicksIn>
						<pproTicksOut>14309568000000</pproTicksOut>
						<file id="file-99"/>
						<sourcetrack>
							<mediatype>audio</mediatype>
							<trackindex>1</trackindex>
						</sourcetrack>
						<filter>
							<effect>
								<name>Gain</name>
								<effectid>{61756678, 4761696e, 4b657947}</effectid>
								<effecttype>filter</effecttype>
								<mediatype>audio</mediatype>
								<parameter authoringApp="PremierePro">
									<parameterid>Gain(dB)</parameterid>
									<name>Gain(dB)</name>
									<valuemin>-96</valuemin>
									<valuemax>96</valuemax>
									<value>3</value>
								</parameter>
							</effect>
						</filter>
						<link>
							<linkclipref>clipitem-773</linkclipref>
							<mediatype>audio</mediatype>
							<trackindex>15</trackindex>
							<clipindex>202</clipindex>
							<groupindex>1</groupindex>
						</link>
						<link>
							<linkclipref>clipitem-877</linkclipref>
							<mediatype>audio</mediatype>
							<trackindex>16</trackindex>
							<clipindex>202</clipindex>
							<groupindex>1</groupindex>
						</link>
						<logginginfo>
							<description></description>
							<scene></scene>
							<shottake></shottake>
							<lognote></lognote>
							<good></good>
							<originalvideofilename></originalvideofilename>
							<originalaudiofilename></originalaudiofilename>
						</logginginfo>
						<colorinfo>
							<lut></lut>
							<lut1></lut1>
							<asc_sop></asc_sop>
							<asc_sat></asc_sat>
							<lut2></lut2>
						</colorinfo>
						<labels>
							<label2>Caribbean</label2>
						</labels>
					</clipitem>
					<transitionitem>
						<start>60169</start>
						<end>60171</end>
						<alignment>center</alignment>
						<cutPointTicks>4233600000</cutPointTicks>
						<rate>
							<timebase>60</timebase>
							<ntsc>FALSE</ntsc>
						</rate>
						<effect>
							<name>Cross Fade (+3dB)</name>
							<effectid>KGAudioTransCrossFade3dB</effectid>
							<effecttype>transition</effecttype>
							<mediatype>audio</mediatype>
							<wipecode>0</wipecode>
							<wipeaccuracy>100</wipeaccuracy>
							<startratio>0</startratio>
							<endratio>1</endratio>
							<reverse>FALSE</reverse>
						</effect>
					</transitionitem>
					<clipitem id="clipitem-774" premiereChannelType="stereo">
						<masterclipid>masterclip-99</masterclipid>
						<name>Kate_ZOOM0002.WAV</name>
						<enabled>TRUE</enabled>
						<duration>62251</duration>
						<rate>
							<timebase>60</timebase>
							<ntsc>FALSE</ntsc>
						</rate>
						<start>-1</start>
						<end>-1</end>
						<in>32754</in>
						<out>32998</out>
						<pproTicksIn>138667334400000</pproTicksIn>
						<pproTicksOut>139700332800000</pproTicksOut>
						<file id="file-99"/>
						<sourcetrack>
							<mediatype>audio</mediatype>
							<trackindex>1</trackindex>
						</sourcetrack>
						<filter>
							<effect>
								<name>Gain</name>
								<effectid>{61756678, 4761696e, 4b657947}</effectid>
								<effecttype>filter</effecttype>
								<mediatype>audio</mediatype>
								<parameter authoringApp="PremierePro">
									<parameterid>Gain(dB)</parameterid>
									<name>Gain(dB)</name>
									<valuemin>-96</valuemin>
									<valuemax>96</valuemax>
									<value>3</value>
								</parameter>
							</effect>
						</filter>
						<link>
							<linkclipref>clipitem-774</linkclipref>
							<mediatype>audio</mediatype>
							<trackindex>15</trackindex>
							<clipindex>204</clipindex>
							<groupindex>1</groupindex>
						</link>
						<link>
							<linkclipref>clipitem-878</linkclipref>
							<mediatype>audio</mediatype>
							<trackindex>16</trackindex>
							<clipindex>204</clipindex>
							<groupindex>1</groupindex>
						</link>
						<logginginfo>
							<description></description>
							<scene></scene>
							<shottake></shottake>
							<lognote></lognote>
							<good></good>
							<originalvideofilename></originalvideofilename>
							<originalaudiofilename></originalaudiofilename>
						</logginginfo>
						<colorinfo>
							<lut></lut>
							<lut1></lut1>
							<asc_sop></asc_sop>
							<asc_sat></asc_sat>
							<lut2></lut2>
						</colorinfo>
						<labels>
							<label2>Mango</label2>
						</labels>
					</clipitem>
					<transitionitem>
						<start>60412</start>
						<end>60414</end>
						<alignment>center</alignment>
						<cutPointTicks>4233600000</cutPointTicks>
						<rate>
							<timebase>60</timebase>
							<ntsc>FALSE</ntsc>
						</rate>
						<effect>
							<name>Cross Fade (+3dB)</name>
							<effectid>KGAudioTransCrossFade3dB</effectid>
							<effecttype>transition</effecttype>
							<mediatype>audio</mediatype>
							<wipecode>0</wipecode>
							<wipeaccuracy>100</wipeaccuracy>
							<startratio>0</startratio>
							<endratio>1</endratio>
							<reverse>FALSE</reverse>
						</effect>
					</transitionitem>
					<clipitem id="clipitem-775" premiereChannelType="stereo">
						<masterclipid>masterclip-99</masterclipid>
						<name>Kate_ZOOM0002.WAV</name>
						<enabled>TRUE</enabled>
						<duration>62251</duration>
						<rate>
							<timebase>60</timebase>
							<ntsc>FALSE</ntsc>
						</rate>
						<start>-1</start>
						<end>-1</end>
						<in>33042</in>
						<out>33232</out>
						<pproTicksIn>139886611200000</pproTicksIn>
						<pproTicksOut>140690995200000</pproTicksOut>
						<file id="file-99"/>
						<sourcetrack>
							<mediatype>audio</mediatype>
							<trackindex>1</trackindex>
						</sourcetrack>
						<filter>
							<effect>
								<name>Gain</name>
								<effectid>{61756678, 4761696e, 4b657947}</effectid>
								<effecttype>filter</effecttype>
								<mediatype>audio</mediatype>
								<parameter authoringApp="PremierePro">
									<parameterid>Gain(dB)</parameterid>
									<name>Gain(dB)</name>
									<valuemin>-96</valuemin>
									<valuemax>96</valuemax>
									<value>3</value>
								</parameter>
							</effect>
						</filter>
						<link>
							<linkclipref>clipitem-775</linkclipref>
							<mediatype>audio</mediatype>
							<trackindex>15</trackindex>
							<clipindex>206</clipindex>
							<groupindex>1</groupindex>
						</link>
						<link>
							<linkclipref>clipitem-879</linkclipref>
							<mediatype>audio</mediatype>
							<trackindex>16</trackindex>
							<clipindex>206</clipindex>
							<groupindex>1</groupindex>
						</link>
						<logginginfo>
							<description></description>
							<scene></scene>
							<shottake></shottake>
							<lognote></lognote>
							<good></good>
							<originalvideofilename></originalvideofilename>
							<originalaudiofilename></originalaudiofilename>
						</logginginfo>
						<colorinfo>
							<lut></lut>
							<lut1></lut1>
							<asc_sop></asc_sop>
							<asc_sat></asc_sat>
							<lut2></lut2>
						</colorinfo>
						<labels>
							<label2>Mango</label2>
						</labels>
					</clipitem>
					<transitionitem>
						<start>60601</start>
						<end>60603</end>
						<alignment>center</alignment>
						<cutPointTicks>4233600000</cutPointTicks>
						<rate>
							<timebase>60</timebase>
							<ntsc>FALSE</ntsc>
						</rate>
						<effect>
							<name>Cross Fade (+3dB)</name>
							<effectid>KGAudioTransCrossFade3dB</effectid>
							<effecttype>transition</effecttype>
							<mediatype>audio</mediatype>
							<wipecode>0</wipecode>
							<wipeaccuracy>100</wipeaccuracy>
							<startratio>0</startratio>
							<endratio>1</endratio>
							<reverse>FALSE</reverse>
						</effect>
					</transitionitem>
					<clipitem id="clipitem-776" premiereChannelType="stereo">
						<masterclipid>masterclip-99</masterclipid>
						<name>Kate_ZOOM0002.WAV</name>
						<enabled>TRUE</enabled>
						<duration>62251</duration>
						<rate>
							<timebase>60</timebase>
							<ntsc>FALSE</ntsc>
						</rate>
						<start>-1</start>
						<end>-1</end>
						<in>33390</in>
						<out>33569</out>
						<pproTicksIn>141359904000000</pproTicksIn>
						<pproTicksOut>142117718400000</pproTicksOut>
						<file id="file-99"/>
						<sourcetrack>
							<mediatype>audio</mediatype>
							<trackindex>1</trackindex>
						</sourcetrack>
						<filter>
							<effect>
								<name>Gain</name>
								<effectid>{61756678, 4761696e, 4b657947}</effectid>
								<effecttype>filter</effecttype>
								<mediatype>audio</mediatype>
								<parameter authoringApp="PremierePro">
									<parameterid>Gain(dB)</parameterid>
									<name>Gain(dB)</name>
									<valuemin>-96</valuemin>
									<valuemax>96</valuemax>
									<value>3</value>
								</parameter>
							</effect>
						</filter>
						<filter>
							<effect>
								<name>Audio Levels</name>
								<effectid>audiolevels</effectid>
								<effectcategory>audiolevels</effectcategory>
								<effecttype>audiolevels</effecttype>
								<mediatype>audio</mediatype>
								<pproBypass>false</pproBypass>
								<parameter authoringApp="PremierePro">
									<parameterid>level</parameterid>
									<name>Level</name>
									<valuemin>0</valuemin>
									<valuemax>3.98109</valuemax>
									<value>1</value>
									<keyframe>
										<when>33519</when>
										<value>1</value>
									</keyframe>
									<keyframe>
										<when>33529</when>
										<value>0.992126</value>
									</keyframe>
									<keyframe>
										<when>33529</when>
										<value>2</value>
									</keyframe>
								</parameter>
							</effect>
						</filter>
						<link>
							<linkclipref>clipitem-776</linkclipref>
							<mediatype>audio</mediatype>
							<trackindex>15</trackindex>
							<clipindex>208</clipindex>
							<groupindex>1</groupindex>
						</link>
						<link>
							<linkclipref>clipitem-880</linkclipref>
							<mediatype>audio</mediatype>
							<trackindex>16</trackindex>
							<clipindex>208</clipindex>
							<groupindex>1</groupindex>
						</link>
						<logginginfo>
							<description></description>
							<scene></scene>
							<shottake></shottake>
							<lognote></lognote>
							<good></good>
							<originalvideofilename></originalvideofilename>
							<originalaudiofilename></originalaudiofilename>
						</logginginfo>
						<colorinfo>
							<lut></lut>
							<lut1></lut1>
							<asc_sop></asc_sop>
							<asc_sat></asc_sat>
							<lut2></lut2>
						</colorinfo>
						<labels>
							<label2>Mango</label2>
						</labels>
					</clipitem>
					<transitionitem>
						<start>60777</start>
						<end>60779</end>
						<alignment>end-black</alignment>
						<cutPointTicks>8467200000</cutPointTicks>
						<rate>
							<timebase>60</timebase>
							<ntsc>FALSE</ntsc>
						</rate>
						<effect>
							<name>Cross Fade (+3dB)</name>
							<effectid>KGAudioTransCrossFade3dB</effectid>
							<effecttype>transition</effecttype>
							<mediatype>audio</mediatype>
							<wipecode>0</wipecode>
							<wipeaccuracy>100</wipeaccuracy>
							<startratio>0</startratio>
							<endratio>1</endratio>
							<reverse>FALSE</reverse>
						</effect>
					</transitionitem>
					<transitionitem>
						<start>60867</start>
						<end>60869</end>
						<alignment>start-black</alignment>
						<cutPointTicks>0</cutPointTicks>
						<rate>
							<timebase>60</timebase>
							<ntsc>FALSE</ntsc>
						</rate>
						<effect>
							<name>Cross Fade (+3dB)</name>
							<effectid>KGAudioTransCrossFade3dB</effectid>
							<effecttype>transition</effecttype>
							<mediatype>audio</mediatype>
							<wipecode>0</wipecode>
							<wipeaccuracy>100</wipeaccuracy>
							<startratio>0</startratio>
							<endratio>1</endratio>
							<reverse>FALSE</reverse>
						</effect>
					</transitionitem>
					<clipitem id="clipitem-777" premiereChannelType="stereo">
						<masterclipid>masterclip-99</masterclipid>
						<name>Kate_ZOOM0002.WAV</name>
						<enabled>TRUE</enabled>
						<duration>62251</duration>
						<rate>
							<timebase>60</timebase>
							<ntsc>FALSE</ntsc>
						</rate>
						<start>-1</start>
						<end>-1</end>
						<in>37357</in>
						<out>37758</out>
						<pproTicksIn>158154595200000</pproTicksIn>
						<pproTicksOut>159852268800000</pproTicksOut>
						<file id="file-99"/>
						<sourcetrack>
							<mediatype>audio</mediatype>
							<trackindex>1</trackindex>
						</sourcetrack>
						<filter>
							<effect>
								<name>Gain</name>
								<effectid>{61756678, 4761696e, 4b657947}</effectid>
								<effecttype>filter</effecttype>
								<mediatype>audio</mediatype>
								<parameter authoringApp="PremierePro">
									<parameterid>Gain(dB)</parameterid>
									<name>Gain(dB)</name>
									<valuemin>-96</valuemin>
									<valuemax>96</valuemax>
									<value>3</value>
								</parameter>
							</effect>
						</filter>
						<filter>
							<effect>
								<name>Audio Levels</name>
								<effectid>audiolevels</effectid>
								<effectcategory>audiolevels</effectcategory>
								<effecttype>audiolevels</effecttype>
								<mediatype>audio</mediatype>
								<pproBypass>false</pproBypass>
								<parameter authoringApp="PremierePro">
									<parameterid>level</parameterid>
									<name>Level</name>
									<valuemin>0</valuemin>
									<valuemax>3.98109</valuemax>
									<value>1.49123</value>
									<keyframe>
										<when>37563</when>
										<value>1.49123</value>
									</keyframe>
									<keyframe>
										<when>37615</when>
										<value>1.91228</value>
									</keyframe>
									<keyframe>
										<when>37737</when>
										<value>1.91228</value>
									</keyframe>
									<keyframe>
										<when>37758</when>
										<value>0</value>
									</keyframe>
								</parameter>
							</effect>
						</filter>
						<link>
							<linkclipref>clipitem-777</linkclipref>
							<mediatype>audio</mediatype>
							<trackindex>15</trackindex>
							<clipindex>211</clipindex>
							<groupindex>1</groupindex>
						</link>
						<link>
							<linkclipref>clipitem-881</linkclipref>
							<mediatype>audio</mediatype>
							<trackindex>16</trackindex>
							<clipindex>211</clipindex>
							<groupindex>1</groupindex>
						</link>
						<logginginfo>
							<description></description>
							<scene></scene>
							<shottake></shottake>
							<lognote></lognote>
							<good></good>
							<originalvideofilename></originalvideofilename>
							<originalaudiofilename></originalaudiofilename>
						</logginginfo>
						<colorinfo>
							<lut></lut>
							<lut1></lut1>
							<asc_sop></asc_sop>
							<asc_sat></asc_sat>
							<lut2></lut2>
						</colorinfo>
						<labels>
							<label2>Violet</label2>
						</labels>
					</clipitem>
					<transitionitem>
						<start>61266</start>
						<end>61268</end>
						<alignment>end-black</alignment>
						<cutPointTicks>8467200000</cutPointTicks>
						<rate>
							<timebase>60</timebase>
							<ntsc>FALSE</ntsc>
						</rate>
						<effect>
							<name>Cross Fade (+3dB)</name>
							<effectid>KGAudioTransCrossFade3dB</effectid>
							<effecttype>transition</effecttype>
							<mediatype>audio</mediatype>
							<wipecode>0</wipecode>
							<wipeaccuracy>100</wipeaccuracy>
							<startratio>0</startratio>
							<endratio>1</endratio>
							<reverse>FALSE</reverse>
						</effect>
					</transitionitem>
					<transitionitem>
						<start>61317</start>
						<end>61319</end>
						<alignment>start-black</alignment>
						<cutPointTicks>0</cutPointTicks>
						<rate>
							<timebase>60</timebase>
							<ntsc>FALSE</ntsc>
						</rate>
						<effect>
							<name>Cross Fade (+3dB)</name>
							<effectid>KGAudioTransCrossFade3dB</effectid>
							<effecttype>transition</effecttype>
							<mediatype>audio</mediatype>
							<wipecode>0</wipecode>
							<wipeaccuracy>100</wipeaccuracy>
							<startratio>0</startratio>
							<endratio>1</endratio>
							<reverse>FALSE</reverse>
						</effect>
					</transitionitem>
					<clipitem id="clipitem-778" premiereChannelType="stereo">
						<masterclipid>masterclip-99</masterclipid>
						<name>Kate_ZOOM0002.WAV</name>
						<enabled>TRUE</enabled>
						<duration>62251</duration>
						<rate>
							<timebase>60</timebase>
							<ntsc>FALSE</ntsc>
						</rate>
						<start>-1</start>
						<end>-1</end>
						<in>33856</in>
						<out>34010</out>
						<pproTicksIn>143332761600000</pproTicksIn>
						<pproTicksOut>143984736000000</pproTicksOut>
						<file id="file-99"/>
						<sourcetrack>
							<mediatype>audio</mediatype>
							<trackindex>1</trackindex>
						</sourcetrack>
						<filter>
							<effect>
								<name>Gain</name>
								<effectid>{61756678, 4761696e, 4b657947}</effectid>
								<effecttype>filter</effecttype>
								<mediatype>audio</mediatype>
								<parameter authoringApp="PremierePro">
									<parameterid>Gain(dB)</parameterid>
									<name>Gain(dB)</name>
									<valuemin>-96</valuemin>
									<valuemax>96</valuemax>
									<value>3</value>
								</parameter>
							</effect>
						</filter>
						<filter>
							<effect>
								<name>Audio Levels</name>
								<effectid>audiolevels</effectid>
								<effectcategory>audiolevels</effectcategory>
								<effecttype>audiolevels</effecttype>
								<mediatype>audio</mediatype>
								<pproBypass>false</pproBypass>
								<parameter authoringApp="PremierePro">
									<parameterid>level</parameterid>
									<name>Level</name>
									<valuemin>0</valuemin>
									<valuemax>3.98109</valuemax>
									<value>0</value>
									<keyframe>
										<when>33856</when>
										<value>0</value>
									</keyframe>
									<keyframe>
										<when>33860</when>
										<value>1.45614</value>
									</keyframe>
									<keyframe>
										<when>33995</when>
										<value>1.45614</value>
									</keyframe>
									<keyframe>
										<when>34009</when>
										<value>0</value>
									</keyframe>
								</parameter>
							</effect>
						</filter>
						<link>
							<linkclipref>clipitem-778</linkclipref>
							<mediatype>audio</mediatype>
							<trackindex>15</trackindex>
							<clipindex>214</clipindex>
							<groupindex>1</groupindex>
						</link>
						<link>
							<linkclipref>clipitem-882</linkclipref>
							<mediatype>audio</mediatype>
							<trackindex>16</trackindex>
							<clipindex>214</clipindex>
							<groupindex>1</groupindex>
						</link>
						<logginginfo>
							<description></description>
							<scene></scene>
							<shottake></shottake>
							<lognote></lognote>
							<good></good>
							<originalvideofilename></originalvideofilename>
							<originalaudiofilename></originalaudiofilename>
						</logginginfo>
						<colorinfo>
							<lut></lut>
							<lut1></lut1>
							<asc_sop></asc_sop>
							<asc_sat></asc_sat>
							<lut2></lut2>
						</colorinfo>
						<labels>
							<label2>Mango</label2>
						</labels>
					</clipitem>
					<transitionitem>
						<start>61469</start>
						<end>61471</end>
						<alignment>end-black</alignment>
						<cutPointTicks>8467200000</cutPointTicks>
						<rate>
							<timebase>60</timebase>
							<ntsc>FALSE</ntsc>
						</rate>
						<effect>
							<name>Cross Fade (+3dB)</name>
							<effectid>KGAudioTransCrossFade3dB</effectid>
							<effecttype>transition</effecttype>
							<mediatype>audio</mediatype>
							<wipecode>0</wipecode>
							<wipeaccuracy>100</wipeaccuracy>
							<startratio>0</startratio>
							<endratio>1</endratio>
							<reverse>FALSE</reverse>
						</effect>
					</transitionitem>
					<enabled>TRUE</enabled>
					<locked>FALSE</locked>
					<outputchannelindex>1</outputchannelindex>
				</track>
				<track TL.SQTrackAudioKeyframeStyle="0" TL.SQTrackShy="0" TL.SQTrackExpandedHeight="15" TL.SQTrackExpanded="0" MZ.TrackTargeted="1" PannerCurrentValue="0.5" PannerIsInverted="true" PannerStartKeyframe="-91445760000000000,0.5,0,0,0,0,0,0" PannerName="Balance" currentExplodedTrackIndex="1" totalExplodedTrackCount="2" premiereTrackType="SixteenChannel">
					<transitionitem>
						<start>1771</start>
						<end>1773</end>
						<alignment>start-black</alignment>
						<cutPointTicks>0</cutPointTicks>
						<rate>
							<timebase>60</timebase>
							<ntsc>FALSE</ntsc>
						</rate>
						<effect>
							<name>Cross Fade (+3dB)</name>
							<effectid>KGAudioTransCrossFade3dB</effectid>
							<effecttype>transition</effecttype>
							<mediatype>audio</mediatype>
							<wipecode>0</wipecode>
							<wipeaccuracy>100</wipeaccuracy>
							<startratio>0</startratio>
							<endratio>1</endratio>
							<reverse>FALSE</reverse>
						</effect>
					</transitionitem>
					<clipitem id="clipitem-779" premiereChannelType="stereo">
						<masterclipid>masterclip-96</masterclipid>
						<name>Kate_ZOOM0001.WAV</name>
						<enabled>TRUE</enabled>
						<duration>81662</duration>
						<rate>
							<timebase>60</timebase>
							<ntsc>FALSE</ntsc>
						</rate>
						<start>-1</start>
						<end>-1</end>
						<in>57727</in>
						<out>58262</out>
						<pproTicksIn>244393027200000</pproTicksIn>
						<pproTicksOut>246658003200000</pproTicksOut>
						<file id="file-96"/>
						<sourcetrack>
							<mediatype>audio</mediatype>
							<trackindex>2</trackindex>
						</sourcetrack>
						<filter>
							<effect>
								<name>Audio Levels</name>
								<effectid>audiolevels</effectid>
								<effectcategory>audiolevels</effectcategory>
								<effecttype>audiolevels</effecttype>
								<mediatype>audio</mediatype>
								<pproBypass>false</pproBypass>
								<parameter authoringApp="PremierePro">
									<parameterid>level</parameterid>
									<name>Level</name>
									<valuemin>0</valuemin>
									<valuemax>3.98109</valuemax>
									<value>0</value>
									<keyframe>
										<when>57727</when>
										<value>0</value>
									</keyframe>
									<keyframe>
										<when>57801</when>
										<value>2</value>
									</keyframe>
									<keyframe>
										<when>57881</when>
										<value>2</value>
									</keyframe>
									<keyframe>
										<when>57906</when>
										<value>1</value>
									</keyframe>
									<keyframe>
										<when>58223</when>
										<value>1</value>
									</keyframe>
									<keyframe>
										<when>58262</when>
										<value>0</value>
									</keyframe>
								</parameter>
							</effect>
						</filter>
							<marker>
								<comment></comment>
								<name></name>
								<in>8498</in>
								<out>-1</out>
							</marker>
						<link>
							<linkclipref>clipitem-675</linkclipref>
							<mediatype>audio</mediatype>
							<trackindex>15</trackindex>
							<clipindex>2</clipindex>
							<groupindex>1</groupindex>
						</link>
						<link>
							<linkclipref>clipitem-779</linkclipref>
							<mediatype>audio</mediatype>
							<trackindex>16</trackindex>
							<clipindex>2</clipindex>
							<groupindex>1</groupindex>
						</link>
						<logginginfo>
							<description></description>
							<scene></scene>
							<shottake></shottake>
							<lognote></lognote>
							<good></good>
							<originalvideofilename></originalvideofilename>
							<originalaudiofilename></originalaudiofilename>
						</logginginfo>
						<colorinfo>
							<lut></lut>
							<lut1></lut1>
							<asc_sop></asc_sop>
							<asc_sat></asc_sat>
							<lut2></lut2>
						</colorinfo>
						<labels>
							<label2>Blue</label2>
						</labels>
					</clipitem>
					<transitionitem>
						<start>2304</start>
						<end>2306</end>
						<alignment>end-black</alignment>
						<cutPointTicks>8467200000</cutPointTicks>
						<rate>
							<timebase>60</timebase>
							<ntsc>FALSE</ntsc>
						</rate>
						<effect>
							<name>Cross Fade (+3dB)</name>
							<effectid>KGAudioTransCrossFade3dB</effectid>
							<effecttype>transition</effecttype>
							<mediatype>audio</mediatype>
							<wipecode>0</wipecode>
							<wipeaccuracy>100</wipeaccuracy>
							<startratio>0</startratio>
							<endratio>1</endratio>
							<reverse>FALSE</reverse>
						</effect>
					</transitionitem>
					<transitionitem>
						<start>3108</start>
						<end>3110</end>
						<alignment>start-black</alignment>
						<cutPointTicks>0</cutPointTicks>
						<rate>
							<timebase>60</timebase>
							<ntsc>FALSE</ntsc>
						</rate>
						<effect>
							<name>Cross Fade (+3dB)</name>
							<effectid>KGAudioTransCrossFade3dB</effectid>
							<effecttype>transition</effecttype>
							<mediatype>audio</mediatype>
							<wipecode>0</wipecode>
							<wipeaccuracy>100</wipeaccuracy>
							<startratio>0</startratio>
							<endratio>1</endratio>
							<reverse>FALSE</reverse>
						</effect>
					</transitionitem>
					<clipitem id="clipitem-780" premiereChannelType="stereo">
						<masterclipid>masterclip-96</masterclipid>
						<name>Kate_ZOOM0001.WAV</name>
						<enabled>TRUE</enabled>
						<duration>81662</duration>
						<rate>
							<timebase>60</timebase>
							<ntsc>FALSE</ntsc>
						</rate>
						<start>-1</start>
						<end>-1</end>
						<in>59342</in>
						<out>59418</out>
						<pproTicksIn>251230291200000</pproTicksIn>
						<pproTicksOut>251552044800000</pproTicksOut>
						<file id="file-96"/>
						<sourcetrack>
							<mediatype>audio</mediatype>
							<trackindex>2</trackindex>
						</sourcetrack>
						<filter>
							<effect>
								<name>Audio Levels</name>
								<effectid>audiolevels</effectid>
								<effectcategory>audiolevels</effectcategory>
								<effecttype>audiolevels</effecttype>
								<mediatype>audio</mediatype>
								<pproBypass>false</pproBypass>
								<parameter authoringApp="PremierePro">
									<parameterid>level</parameterid>
									<name>Level</name>
									<valuemin>0</valuemin>
									<valuemax>3.98109</valuemax>
									<value>0</value>
									<keyframe>
										<when>57727</when>
										<value>0</value>
									</keyframe>
									<keyframe>
										<when>57801</when>
										<value>1</value>
									</keyframe>
									<keyframe>
										<when>59028</when>
										<value>0</value>
									</keyframe>
									<keyframe>
										<when>59074</when>
										<value>1</value>
									</keyframe>
								</parameter>
							</effect>
						</filter>
							<marker>
								<comment></comment>
								<name></name>
								<in>8498</in>
								<out>-1</out>
							</marker>
						<link>
							<linkclipref>clipitem-676</linkclipref>
							<mediatype>audio</mediatype>
							<trackindex>15</trackindex>
							<clipindex>5</clipindex>
							<groupindex>1</groupindex>
						</link>
						<link>
							<linkclipref>clipitem-780</linkclipref>
							<mediatype>audio</mediatype>
							<trackindex>16</trackindex>
							<clipindex>5</clipindex>
							<groupindex>1</groupindex>
						</link>
						<logginginfo>
							<description></description>
							<scene></scene>
							<shottake></shottake>
							<lognote></lognote>
							<good></good>
							<originalvideofilename></originalvideofilename>
							<originalaudiofilename></originalaudiofilename>
						</logginginfo>
						<colorinfo>
							<lut></lut>
							<lut1></lut1>
							<asc_sop></asc_sop>
							<asc_sat></asc_sat>
							<lut2></lut2>
						</colorinfo>
						<labels>
							<label2>Blue</label2>
						</labels>
					</clipitem>
					<transitionitem>
						<start>3182</start>
						<end>3184</end>
						<alignment>center</alignment>
						<cutPointTicks>4233600000</cutPointTicks>
						<rate>
							<timebase>60</timebase>
							<ntsc>FALSE</ntsc>
						</rate>
						<effect>
							<name>Cross Fade (+3dB)</name>
							<effectid>KGAudioTransCrossFade3dB</effectid>
							<effecttype>transition</effecttype>
							<mediatype>audio</mediatype>
							<wipecode>0</wipecode>
							<wipeaccuracy>100</wipeaccuracy>
							<startratio>0</startratio>
							<endratio>1</endratio>
							<reverse>FALSE</reverse>
						</effect>
					</transitionitem>
					<clipitem id="clipitem-781" premiereChannelType="stereo">
						<masterclipid>masterclip-96</masterclipid>
						<name>Kate_ZOOM0001.WAV</name>
						<enabled>TRUE</enabled>
						<duration>81662</duration>
						<rate>
							<timebase>60</timebase>
							<ntsc>FALSE</ntsc>
						</rate>
						<start>-1</start>
						<end>-1</end>
						<in>59525</in>
						<out>59696</out>
						<pproTicksIn>252005040000000</pproTicksIn>
						<pproTicksOut>252728985600000</pproTicksOut>
						<file id="file-96"/>
						<sourcetrack>
							<mediatype>audio</mediatype>
							<trackindex>2</trackindex>
						</sourcetrack>
						<filter>
							<effect>
								<name>Audio Levels</name>
								<effectid>audiolevels</effectid>
								<effectcategory>audiolevels</effectcategory>
								<effecttype>audiolevels</effecttype>
								<mediatype>audio</mediatype>
								<pproBypass>false</pproBypass>
								<parameter authoringApp="PremierePro">
									<parameterid>level</parameterid>
									<name>Level</name>
									<valuemin>0</valuemin>
									<valuemax>3.98109</valuemax>
									<value>0</value>
									<keyframe>
										<when>57727</when>
										<value>0</value>
									</keyframe>
									<keyframe>
										<when>57801</when>
										<value>1</value>
									</keyframe>
									<keyframe>
										<when>59028</when>
										<value>0</value>
									</keyframe>
									<keyframe>
										<when>59074</when>
										<value>1</value>
									</keyframe>
								</parameter>
							</effect>
						</filter>
							<marker>
								<comment></comment>
								<name></name>
								<in>8498</in>
								<out>-1</out>
							</marker>
						<link>
							<linkclipref>clipitem-677</linkclipref>
							<mediatype>audio</mediatype>
							<trackindex>15</trackindex>
							<clipindex>7</clipindex>
							<groupindex>1</groupindex>
						</link>
						<link>
							<linkclipref>clipitem-781</linkclipref>
							<mediatype>audio</mediatype>
							<trackindex>16</trackindex>
							<clipindex>7</clipindex>
							<groupindex>1</groupindex>
						</link>
						<logginginfo>
							<description></description>
							<scene></scene>
							<shottake></shottake>
							<lognote></lognote>
							<good></good>
							<originalvideofilename></originalvideofilename>
							<originalaudiofilename></originalaudiofilename>
						</logginginfo>
						<colorinfo>
							<lut></lut>
							<lut1></lut1>
							<asc_sop></asc_sop>
							<asc_sat></asc_sat>
							<lut2></lut2>
						</colorinfo>
						<labels>
							<label2>Blue</label2>
						</labels>
					</clipitem>
					<transitionitem>
						<start>3351</start>
						<end>3353</end>
						<alignment>center</alignment>
						<cutPointTicks>4233600000</cutPointTicks>
						<rate>
							<timebase>60</timebase>
							<ntsc>FALSE</ntsc>
						</rate>
						<effect>
							<name>Cross Fade (+3dB)</name>
							<effectid>KGAudioTransCrossFade3dB</effectid>
							<effecttype>transition</effecttype>
							<mediatype>audio</mediatype>
							<wipecode>0</wipecode>
							<wipeaccuracy>100</wipeaccuracy>
							<startratio>0</startratio>
							<endratio>1</endratio>
							<reverse>FALSE</reverse>
						</effect>
					</transitionitem>
					<clipitem id="clipitem-782" premiereChannelType="stereo">
						<masterclipid>masterclip-96</masterclipid>
						<name>Kate_ZOOM0001.WAV</name>
						<enabled>TRUE</enabled>
						<duration>81662</duration>
						<rate>
							<timebase>60</timebase>
							<ntsc>FALSE</ntsc>
						</rate>
						<start>-1</start>
						<end>-1</end>
						<in>59694</in>
						<out>59877</out>
						<pproTicksIn>252720518400000</pproTicksIn>
						<pproTicksOut>253495267200000</pproTicksOut>
						<file id="file-96"/>
						<sourcetrack>
							<mediatype>audio</mediatype>
							<trackindex>2</trackindex>
						</sourcetrack>
						<filter>
							<effect>
								<name>Audio Levels</name>
								<effectid>audiolevels</effectid>
								<effectcategory>audiolevels</effectcategory>
								<effecttype>audiolevels</effecttype>
								<mediatype>audio</mediatype>
								<pproBypass>false</pproBypass>
								<parameter authoringApp="PremierePro">
									<parameterid>level</parameterid>
									<name>Level</name>
									<valuemin>0</valuemin>
									<valuemax>3.98109</valuemax>
									<value>1</value>
									<keyframe>
										<when>59847</when>
										<value>1</value>
									</keyframe>
									<keyframe>
										<when>59877</when>
										<value>0</value>
									</keyframe>
									<keyframe>
										<when>60156</when>
										<value>1</value>
									</keyframe>
									<keyframe>
										<when>60166</when>
										<value>0</value>
									</keyframe>
									<keyframe>
										<when>60218</when>
										<value>0</value>
									</keyframe>
									<keyframe>
										<when>60326</when>
										<value>1</value>
									</keyframe>
									<keyframe>
										<when>60346</when>
										<value>0</value>
									</keyframe>
									<keyframe>
										<when>60496</when>
										<value>0</value>
									</keyframe>
									<keyframe>
										<when>60507</when>
										<value>1</value>
									</keyframe>
									<keyframe>
										<when>61317</when>
										<value>1</value>
									</keyframe>
									<keyframe>
										<when>61334</when>
										<value>0</value>
									</keyframe>
									<keyframe>
										<when>61553</when>
										<value>0</value>
									</keyframe>
									<keyframe>
										<when>61572</when>
										<value>1</value>
									</keyframe>
									<keyframe>
										<when>61671</when>
										<value>1</value>
									</keyframe>
									<keyframe>
										<when>61687</when>
										<value>0</value>
									</keyframe>
									<keyframe>
										<when>62203</when>
										<value>0</value>
									</keyframe>
									<keyframe>
										<when>62220</when>
										<value>1</value>
									</keyframe>
									<keyframe>
										<when>62512</when>
										<value>1</value>
									</keyframe>
									<keyframe>
										<when>62536</when>
										<value>0</value>
									</keyframe>
									<keyframe>
										<when>62672</when>
										<value>0</value>
									</keyframe>
									<keyframe>
										<when>62697</when>
										<value>1</value>
									</keyframe>
									<keyframe>
										<when>63001</when>
										<value>1</value>
									</keyframe>
									<keyframe>
										<when>63061</when>
										<value>0</value>
									</keyframe>
								</parameter>
							</effect>
						</filter>
							<marker>
								<comment></comment>
								<name></name>
								<in>8498</in>
								<out>-1</out>
							</marker>
						<link>
							<linkclipref>clipitem-678</linkclipref>
							<mediatype>audio</mediatype>
							<trackindex>15</trackindex>
							<clipindex>9</clipindex>
							<groupindex>1</groupindex>
						</link>
						<link>
							<linkclipref>clipitem-782</linkclipref>
							<mediatype>audio</mediatype>
							<trackindex>16</trackindex>
							<clipindex>9</clipindex>
							<groupindex>1</groupindex>
						</link>
						<logginginfo>
							<description></description>
							<scene></scene>
							<shottake></shottake>
							<lognote></lognote>
							<good></good>
							<originalvideofilename></originalvideofilename>
							<originalaudiofilename></originalaudiofilename>
						</logginginfo>
						<colorinfo>
							<lut></lut>
							<lut1></lut1>
							<asc_sop></asc_sop>
							<asc_sat></asc_sat>
							<lut2></lut2>
						</colorinfo>
						<labels>
							<label2>Blue</label2>
						</labels>
					</clipitem>
					<transitionitem>
						<start>3532</start>
						<end>3534</end>
						<alignment>end-black</alignment>
						<cutPointTicks>8467200000</cutPointTicks>
						<rate>
							<timebase>60</timebase>
							<ntsc>FALSE</ntsc>
						</rate>
						<effect>
							<name>Cross Fade (+3dB)</name>
							<effectid>KGAudioTransCrossFade3dB</effectid>
							<effecttype>transition</effecttype>
							<mediatype>audio</mediatype>
							<wipecode>0</wipecode>
							<wipeaccuracy>100</wipeaccuracy>
							<startratio>0</startratio>
							<endratio>1</endratio>
							<reverse>FALSE</reverse>
						</effect>
					</transitionitem>
					<transitionitem>
						<start>3823</start>
						<end>3825</end>
						<alignment>start-black</alignment>
						<cutPointTicks>0</cutPointTicks>
						<rate>
							<timebase>60</timebase>
							<ntsc>FALSE</ntsc>
						</rate>
						<effect>
							<name>Cross Fade (+3dB)</name>
							<effectid>KGAudioTransCrossFade3dB</effectid>
							<effecttype>transition</effecttype>
							<mediatype>audio</mediatype>
							<wipecode>0</wipecode>
							<wipeaccuracy>100</wipeaccuracy>
							<startratio>0</startratio>
							<endratio>1</endratio>
							<reverse>FALSE</reverse>
						</effect>
					</transitionitem>
					<clipitem id="clipitem-783" premiereChannelType="stereo">
						<masterclipid>masterclip-96</masterclipid>
						<name>Kate_ZOOM0001.WAV</name>
						<enabled>TRUE</enabled>
						<duration>81662</duration>
						<rate>
							<timebase>60</timebase>
							<ntsc>FALSE</ntsc>
						</rate>
						<start>-1</start>
						<end>-1</end>
						<in>59957</in>
						<out>60168</out>
						<pproTicksIn>253833955200000</pproTicksIn>
						<pproTicksOut>254727244800000</pproTicksOut>
						<file id="file-96"/>
						<sourcetrack>
							<mediatype>audio</mediatype>
							<trackindex>2</trackindex>
						</sourcetrack>
						<filter>
							<effect>
								<name>Audio Levels</name>
								<effectid>audiolevels</effectid>
								<effectcategory>audiolevels</effectcategory>
								<effecttype>audiolevels</effecttype>
								<mediatype>audio</mediatype>
								<pproBypass>false</pproBypass>
								<parameter authoringApp="PremierePro">
									<parameterid>level</parameterid>
									<name>Level</name>
									<valuemin>0</valuemin>
									<valuemax>3.98109</valuemax>
									<value>0</value>
									<keyframe>
										<when>59957</when>
										<value>0</value>
									</keyframe>
									<keyframe>
										<when>59962</when>
										<value>1</value>
									</keyframe>
									<keyframe>
										<when>60156</when>
										<value>1</value>
									</keyframe>
									<keyframe>
										<when>60166</when>
										<value>0</value>
									</keyframe>
									<keyframe>
										<when>60218</when>
										<value>0</value>
									</keyframe>
									<keyframe>
										<when>60326</when>
										<value>1</value>
									</keyframe>
									<keyframe>
										<when>60346</when>
										<value>0</value>
									</keyframe>
									<keyframe>
										<when>60496</when>
										<value>0</value>
									</keyframe>
									<keyframe>
										<when>60507</when>
										<value>1</value>
									</keyframe>
									<keyframe>
										<when>61317</when>
										<value>1</value>
									</keyframe>
									<keyframe>
										<when>61334</when>
										<value>0</value>
									</keyframe>
									<keyframe>
										<when>61553</when>
										<value>0</value>
									</keyframe>
									<keyframe>
										<when>61572</when>
										<value>1</value>
									</keyframe>
									<keyframe>
										<when>61671</when>
										<value>1</value>
									</keyframe>
									<keyframe>
										<when>61687</when>
										<value>0</value>
									</keyframe>
									<keyframe>
										<when>62203</when>
										<value>0</value>
									</keyframe>
									<keyframe>
										<when>62220</when>
										<value>1</value>
									</keyframe>
									<keyframe>
										<when>62512</when>
										<value>1</value>
									</keyframe>
									<keyframe>
										<when>62536</when>
										<value>0</value>
									</keyframe>
									<keyframe>
										<when>62672</when>
										<value>0</value>
									</keyframe>
									<keyframe>
										<when>62697</when>
										<value>1</value>
									</keyframe>
									<keyframe>
										<when>63001</when>
										<value>1</value>
									</keyframe>
									<keyframe>
										<when>63061</when>
										<value>0</value>
									</keyframe>
								</parameter>
							</effect>
						</filter>
							<marker>
								<comment></comment>
								<name></name>
								<in>8498</in>
								<out>-1</out>
							</marker>
						<link>
							<linkclipref>clipitem-679</linkclipref>
							<mediatype>audio</mediatype>
							<trackindex>15</trackindex>
							<clipindex>12</clipindex>
							<groupindex>1</groupindex>
						</link>
						<link>
							<linkclipref>clipitem-783</linkclipref>
							<mediatype>audio</mediatype>
							<trackindex>16</trackindex>
							<clipindex>12</clipindex>
							<groupindex>1</groupindex>
						</link>
						<logginginfo>
							<description></description>
							<scene></scene>
							<shottake></shottake>
							<lognote></lognote>
							<good></good>
							<originalvideofilename></originalvideofilename>
							<originalaudiofilename></originalaudiofilename>
						</logginginfo>
						<colorinfo>
							<lut></lut>
							<lut1></lut1>
							<asc_sop></asc_sop>
							<asc_sat></asc_sat>
							<lut2></lut2>
						</colorinfo>
						<labels>
							<label2>Blue</label2>
						</labels>
					</clipitem>
					<transitionitem>
						<start>4032</start>
						<end>4034</end>
						<alignment>end-black</alignment>
						<cutPointTicks>8467200000</cutPointTicks>
						<rate>
							<timebase>60</timebase>
							<ntsc>FALSE</ntsc>
						</rate>
						<effect>
							<name>Cross Fade (+3dB)</name>
							<effectid>KGAudioTransCrossFade3dB</effectid>
							<effecttype>transition</effecttype>
							<mediatype>audio</mediatype>
							<wipecode>0</wipecode>
							<wipeaccuracy>100</wipeaccuracy>
							<startratio>0</startratio>
							<endratio>1</endratio>
							<reverse>FALSE</reverse>
						</effect>
					</transitionitem>
					<clipitem id="clipitem-784" premiereChannelType="stereo">
						<masterclipid>masterclip-96</masterclipid>
						<name>Kate_ZOOM0001.WAV</name>
						<enabled>TRUE</enabled>
						<duration>81662</duration>
						<rate>
							<timebase>60</timebase>
							<ntsc>FALSE</ntsc>
						</rate>
						<start>4535</start>
						<end>5399</end>
						<in>60491</in>
						<out>61355</out>
						<pproTicksIn>256094697600000</pproTicksIn>
						<pproTicksOut>259752528000000</pproTicksOut>
						<file id="file-96"/>
						<sourcetrack>
							<mediatype>audio</mediatype>
							<trackindex>2</trackindex>
						</sourcetrack>
						<filter>
							<effect>
								<name>Audio Levels</name>
								<effectid>audiolevels</effectid>
								<effectcategory>audiolevels</effectcategory>
								<effecttype>audiolevels</effecttype>
								<mediatype>audio</mediatype>
								<pproBypass>false</pproBypass>
								<parameter authoringApp="PremierePro">
									<parameterid>level</parameterid>
									<name>Level</name>
									<valuemin>0</valuemin>
									<valuemax>3.98109</valuemax>
									<value>1</value>
									<keyframe>
										<when>60326</when>
										<value>1</value>
									</keyframe>
									<keyframe>
										<when>60346</when>
										<value>0</value>
									</keyframe>
									<keyframe>
										<when>60496</when>
										<value>0</value>
									</keyframe>
									<keyframe>
										<when>60507</when>
										<value>1</value>
									</keyframe>
									<keyframe>
										<when>61317</when>
										<value>1</value>
									</keyframe>
									<keyframe>
										<when>61334</when>
										<value>0</value>
									</keyframe>
									<keyframe>
										<when>61553</when>
										<value>0</value>
									</keyframe>
									<keyframe>
										<when>61572</when>
										<value>1</value>
									</keyframe>
									<keyframe>
										<when>61671</when>
										<value>1</value>
									</keyframe>
									<keyframe>
										<when>61687</when>
										<value>0</value>
									</keyframe>
									<keyframe>
										<when>62203</when>
										<value>0</value>
									</keyframe>
									<keyframe>
										<when>62220</when>
										<value>1</value>
									</keyframe>
									<keyframe>
										<when>62512</when>
										<value>1</value>
									</keyframe>
									<keyframe>
										<when>62536</when>
										<value>0</value>
									</keyframe>
									<keyframe>
										<when>62672</when>
										<value>0</value>
									</keyframe>
									<keyframe>
										<when>62697</when>
										<value>1</value>
									</keyframe>
									<keyframe>
										<when>63001</when>
										<value>1</value>
									</keyframe>
									<keyframe>
										<when>63061</when>
										<value>0</value>
									</keyframe>
								</parameter>
							</effect>
						</filter>
							<marker>
								<comment></comment>
								<name></name>
								<in>8498</in>
								<out>-1</out>
							</marker>
						<link>
							<linkclipref>clipitem-680</linkclipref>
							<mediatype>audio</mediatype>
							<trackindex>15</trackindex>
							<clipindex>14</clipindex>
							<groupindex>1</groupindex>
						</link>
						<link>
							<linkclipref>clipitem-784</linkclipref>
							<mediatype>audio</mediatype>
							<trackindex>16</trackindex>
							<clipindex>14</clipindex>
							<groupindex>1</groupindex>
						</link>
						<logginginfo>
							<description></description>
							<scene></scene>
							<shottake></shottake>
							<lognote></lognote>
							<good></good>
							<originalvideofilename></originalvideofilename>
							<originalaudiofilename></originalaudiofilename>
						</logginginfo>
						<colorinfo>
							<lut></lut>
							<lut1></lut1>
							<asc_sop></asc_sop>
							<asc_sat></asc_sat>
							<lut2></lut2>
						</colorinfo>
						<labels>
							<label2>Blue</label2>
						</labels>
					</clipitem>
					<clipitem id="clipitem-785" premiereChannelType="stereo">
						<masterclipid>masterclip-96</masterclipid>
						<name>Kate_ZOOM0001.WAV</name>
						<enabled>TRUE</enabled>
						<duration>81662</duration>
						<rate>
							<timebase>60</timebase>
							<ntsc>FALSE</ntsc>
						</rate>
						<start>5577</start>
						<end>5774</end>
						<in>61533</in>
						<out>61730</out>
						<pproTicksIn>260506108800000</pproTicksIn>
						<pproTicksOut>261340128000000</pproTicksOut>
						<file id="file-96"/>
						<sourcetrack>
							<mediatype>audio</mediatype>
							<trackindex>2</trackindex>
						</sourcetrack>
						<filter>
							<effect>
								<name>Audio Levels</name>
								<effectid>audiolevels</effectid>
								<effectcategory>audiolevels</effectcategory>
								<effecttype>audiolevels</effecttype>
								<mediatype>audio</mediatype>
								<pproBypass>false</pproBypass>
								<parameter authoringApp="PremierePro">
									<parameterid>level</parameterid>
									<name>Level</name>
									<valuemin>0</valuemin>
									<valuemax>3.98109</valuemax>
									<value>1</value>
									<keyframe>
										<when>60326</when>
										<value>1</value>
									</keyframe>
									<keyframe>
										<when>60346</when>
										<value>0</value>
									</keyframe>
									<keyframe>
										<when>60496</when>
										<value>0</value>
									</keyframe>
									<keyframe>
										<when>60507</when>
										<value>1</value>
									</keyframe>
									<keyframe>
										<when>61317</when>
										<value>1</value>
									</keyframe>
									<keyframe>
										<when>61334</when>
										<value>0</value>
									</keyframe>
									<keyframe>
										<when>61553</when>
										<value>0</value>
									</keyframe>
									<keyframe>
										<when>61572</when>
										<value>1</value>
									</keyframe>
									<keyframe>
										<when>61671</when>
										<value>1</value>
									</keyframe>
									<keyframe>
										<when>61687</when>
										<value>0</value>
									</keyframe>
									<keyframe>
										<when>62203</when>
										<value>0</value>
									</keyframe>
									<keyframe>
										<when>62220</when>
										<value>1</value>
									</keyframe>
									<keyframe>
										<when>62512</when>
										<value>1</value>
									</keyframe>
									<keyframe>
										<when>62536</when>
										<value>0</value>
									</keyframe>
									<keyframe>
										<when>62672</when>
										<value>0</value>
									</keyframe>
									<keyframe>
										<when>62697</when>
										<value>1</value>
									</keyframe>
									<keyframe>
										<when>63001</when>
										<value>1</value>
									</keyframe>
									<keyframe>
										<when>63061</when>
										<value>0</value>
									</keyframe>
								</parameter>
							</effect>
						</filter>
							<marker>
								<comment></comment>
								<name></name>
								<in>8498</in>
								<out>-1</out>
							</marker>
						<link>
							<linkclipref>clipitem-681</linkclipref>
							<mediatype>audio</mediatype>
							<trackindex>15</trackindex>
							<clipindex>15</clipindex>
							<groupindex>1</groupindex>
						</link>
						<link>
							<linkclipref>clipitem-785</linkclipref>
							<mediatype>audio</mediatype>
							<trackindex>16</trackindex>
							<clipindex>15</clipindex>
							<groupindex>1</groupindex>
						</link>
						<logginginfo>
							<description></description>
							<scene></scene>
							<shottake></shottake>
							<lognote></lognote>
							<good></good>
							<originalvideofilename></originalvideofilename>
							<originalaudiofilename></originalaudiofilename>
						</logginginfo>
						<colorinfo>
							<lut></lut>
							<lut1></lut1>
							<asc_sop></asc_sop>
							<asc_sat></asc_sat>
							<lut2></lut2>
						</colorinfo>
						<labels>
							<label2>Blue</label2>
						</labels>
					</clipitem>
					<transitionitem>
						<start>5849</start>
						<end>5851</end>
						<alignment>start-black</alignment>
						<cutPointTicks>0</cutPointTicks>
						<rate>
							<timebase>60</timebase>
							<ntsc>FALSE</ntsc>
						</rate>
						<effect>
							<name>Cross Fade (+3dB)</name>
							<effectid>KGAudioTransCrossFade3dB</effectid>
							<effecttype>transition</effecttype>
							<mediatype>audio</mediatype>
							<wipecode>0</wipecode>
							<wipeaccuracy>100</wipeaccuracy>
							<startratio>0</startratio>
							<endratio>1</endratio>
							<reverse>FALSE</reverse>
						</effect>
					</transitionitem>
					<clipitem id="clipitem-786" premiereChannelType="stereo">
						<masterclipid>masterclip-96</masterclipid>
						<name>Kate_ZOOM0001.WAV</name>
						<enabled>TRUE</enabled>
						<duration>81662</duration>
						<rate>
							<timebase>60</timebase>
							<ntsc>FALSE</ntsc>
						</rate>
						<start>-1</start>
						<end>-1</end>
						<in>62192</in>
						<out>62513</out>
						<pproTicksIn>263296051200000</pproTicksIn>
						<pproTicksOut>264655036800000</pproTicksOut>
						<file id="file-96"/>
						<sourcetrack>
							<mediatype>audio</mediatype>
							<trackindex>2</trackindex>
						</sourcetrack>
						<filter>
							<effect>
								<name>Audio Levels</name>
								<effectid>audiolevels</effectid>
								<effectcategory>audiolevels</effectcategory>
								<effecttype>audiolevels</effecttype>
								<mediatype>audio</mediatype>
								<pproBypass>false</pproBypass>
								<parameter authoringApp="PremierePro">
									<parameterid>level</parameterid>
									<name>Level</name>
									<valuemin>0</valuemin>
									<valuemax>3.98109</valuemax>
									<value>1</value>
									<keyframe>
										<when>60326</when>
										<value>1</value>
									</keyframe>
									<keyframe>
										<when>60346</when>
										<value>0</value>
									</keyframe>
									<keyframe>
										<when>60496</when>
										<value>0</value>
									</keyframe>
									<keyframe>
										<when>60507</when>
										<value>1</value>
									</keyframe>
									<keyframe>
										<when>61317</when>
										<value>1</value>
									</keyframe>
									<keyframe>
										<when>61334</when>
										<value>0</value>
									</keyframe>
									<keyframe>
										<when>61553</when>
										<value>0</value>
									</keyframe>
									<keyframe>
										<when>61572</when>
										<value>1</value>
									</keyframe>
									<keyframe>
										<when>61671</when>
										<value>1</value>
									</keyframe>
									<keyframe>
										<when>61687</when>
										<value>0</value>
									</keyframe>
									<keyframe>
										<when>62203</when>
										<value>0</value>
									</keyframe>
									<keyframe>
										<when>62220</when>
										<value>1</value>
									</keyframe>
									<keyframe>
										<when>62501</when>
										<value>1</value>
									</keyframe>
									<keyframe>
										<when>62513</when>
										<value>0</value>
									</keyframe>
									<keyframe>
										<when>62536</when>
										<value>0</value>
									</keyframe>
									<keyframe>
										<when>62672</when>
										<value>0</value>
									</keyframe>
									<keyframe>
										<when>62697</when>
										<value>1</value>
									</keyframe>
									<keyframe>
										<when>63001</when>
										<value>1</value>
									</keyframe>
									<keyframe>
										<when>63061</when>
										<value>0</value>
									</keyframe>
								</parameter>
							</effect>
						</filter>
							<marker>
								<comment></comment>
								<name></name>
								<in>8498</in>
								<out>-1</out>
							</marker>
						<link>
							<linkclipref>clipitem-682</linkclipref>
							<mediatype>audio</mediatype>
							<trackindex>15</trackindex>
							<clipindex>17</clipindex>
							<groupindex>1</groupindex>
						</link>
						<link>
							<linkclipref>clipitem-786</linkclipref>
							<mediatype>audio</mediatype>
							<trackindex>16</trackindex>
							<clipindex>17</clipindex>
							<groupindex>1</groupindex>
						</link>
						<logginginfo>
							<description></description>
							<scene></scene>
							<shottake></shottake>
							<lognote></lognote>
							<good></good>
							<originalvideofilename></originalvideofilename>
							<originalaudiofilename></originalaudiofilename>
						</logginginfo>
						<colorinfo>
							<lut></lut>
							<lut1></lut1>
							<asc_sop></asc_sop>
							<asc_sat></asc_sat>
							<lut2></lut2>
						</colorinfo>
						<labels>
							<label2>Blue</label2>
						</labels>
					</clipitem>
					<transitionitem>
						<start>6168</start>
						<end>6170</end>
						<alignment>end-black</alignment>
						<cutPointTicks>8467200000</cutPointTicks>
						<rate>
							<timebase>60</timebase>
							<ntsc>FALSE</ntsc>
						</rate>
						<effect>
							<name>Cross Fade (+3dB)</name>
							<effectid>KGAudioTransCrossFade3dB</effectid>
							<effecttype>transition</effecttype>
							<mediatype>audio</mediatype>
							<wipecode>0</wipecode>
							<wipeaccuracy>100</wipeaccuracy>
							<startratio>0</startratio>
							<endratio>1</endratio>
							<reverse>FALSE</reverse>
						</effect>
					</transitionitem>
					<clipitem id="clipitem-787" premiereChannelType="stereo">
						<masterclipid>masterclip-96</masterclipid>
						<name>Kate_ZOOM0001.WAV</name>
						<enabled>TRUE</enabled>
						<duration>81662</duration>
						<rate>
							<timebase>60</timebase>
							<ntsc>FALSE</ntsc>
						</rate>
						<start>6189</start>
						<end>6537</end>
						<in>62683</in>
						<out>63031</out>
						<pproTicksIn>265374748800000</pproTicksIn>
						<pproTicksOut>266848041600000</pproTicksOut>
						<file id="file-96"/>
						<sourcetrack>
							<mediatype>audio</mediatype>
							<trackindex>2</trackindex>
						</sourcetrack>
						<filter>
							<effect>
								<name>Audio Levels</name>
								<effectid>audiolevels</effectid>
								<effectcategory>audiolevels</effectcategory>
								<effecttype>audiolevels</effecttype>
								<mediatype>audio</mediatype>
								<pproBypass>false</pproBypass>
								<parameter authoringApp="PremierePro">
									<parameterid>level</parameterid>
									<name>Level</name>
									<valuemin>0</valuemin>
									<valuemax>3.98109</valuemax>
									<value>1</value>
									<keyframe>
										<when>60326</when>
										<value>1</value>
									</keyframe>
									<keyframe>
										<when>60346</when>
										<value>0</value>
									</keyframe>
									<keyframe>
										<when>60496</when>
										<value>0</value>
									</keyframe>
									<keyframe>
										<when>60507</when>
										<value>1</value>
									</keyframe>
									<keyframe>
										<when>61317</when>
										<value>1</value>
									</keyframe>
									<keyframe>
										<when>61334</when>
										<value>0</value>
									</keyframe>
									<keyframe>
										<when>61553</when>
										<value>0</value>
									</keyframe>
									<keyframe>
										<when>61572</when>
										<value>1</value>
									</keyframe>
									<keyframe>
										<when>61671</when>
										<value>1</value>
									</keyframe>
									<keyframe>
										<when>61687</when>
										<value>0</value>
									</keyframe>
									<keyframe>
										<when>62203</when>
										<value>0</value>
									</keyframe>
									<keyframe>
										<when>62220</when>
										<value>1</value>
									</keyframe>
									<keyframe>
										<when>62512</when>
										<value>1</value>
									</keyframe>
									<keyframe>
										<when>62536</when>
										<value>0</value>
									</keyframe>
									<keyframe>
										<when>62672</when>
										<value>0</value>
									</keyframe>
									<keyframe>
										<when>62683</when>
										<value>0</value>
									</keyframe>
									<keyframe>
										<when>62708</when>
										<value>1</value>
									</keyframe>
									<keyframe>
										<when>63001</when>
										<value>1</value>
									</keyframe>
									<keyframe>
										<when>63024</when>
										<value>0</value>
									</keyframe>
									<keyframe>
										<when>63061</when>
										<value>0</value>
									</keyframe>
								</parameter>
							</effect>
						</filter>
							<marker>
								<comment></comment>
								<name></name>
								<in>8498</in>
								<out>-1</out>
							</marker>
						<link>
							<linkclipref>clipitem-683</linkclipref>
							<mediatype>audio</mediatype>
							<trackindex>15</trackindex>
							<clipindex>19</clipindex>
							<groupindex>1</groupindex>
						</link>
						<link>
							<linkclipref>clipitem-787</linkclipref>
							<mediatype>audio</mediatype>
							<trackindex>16</trackindex>
							<clipindex>19</clipindex>
							<groupindex>1</groupindex>
						</link>
						<logginginfo>
							<description></description>
							<scene></scene>
							<shottake></shottake>
							<lognote></lognote>
							<good></good>
							<originalvideofilename></originalvideofilename>
							<originalaudiofilename></originalaudiofilename>
						</logginginfo>
						<colorinfo>
							<lut></lut>
							<lut1></lut1>
							<asc_sop></asc_sop>
							<asc_sat></asc_sat>
							<lut2></lut2>
						</colorinfo>
						<labels>
							<label2>Blue</label2>
						</labels>
					</clipitem>
					<clipitem id="clipitem-788" premiereChannelType="stereo">
						<masterclipid>masterclip-96</masterclipid>
						<name>Kate_ZOOM0001.WAV</name>
						<enabled>TRUE</enabled>
						<duration>81662</duration>
						<rate>
							<timebase>60</timebase>
							<ntsc>FALSE</ntsc>
						</rate>
						<start>7201</start>
						<end>7536</end>
						<in>63343</in>
						<out>63678</out>
						<pproTicksIn>268168924800000</pproTicksIn>
						<pproTicksOut>269587180800000</pproTicksOut>
						<file id="file-96"/>
						<sourcetrack>
							<mediatype>audio</mediatype>
							<trackindex>2</trackindex>
						</sourcetrack>
						<filter>
							<effect>
								<name>Audio Levels</name>
								<effectid>audiolevels</effectid>
								<effectcategory>audiolevels</effectcategory>
								<effecttype>audiolevels</effecttype>
								<mediatype>audio</mediatype>
								<pproBypass>false</pproBypass>
								<parameter authoringApp="PremierePro">
									<parameterid>level</parameterid>
									<name>Level</name>
									<valuemin>0</valuemin>
									<valuemax>3.98109</valuemax>
									<value>1</value>
									<keyframe>
										<when>63190</when>
										<value>1</value>
									</keyframe>
									<keyframe>
										<when>63208</when>
										<value>0</value>
									</keyframe>
									<keyframe>
										<when>63349</when>
										<value>0</value>
									</keyframe>
									<keyframe>
										<when>63364</when>
										<value>1</value>
									</keyframe>
									<keyframe>
										<when>63624</when>
										<value>1</value>
									</keyframe>
									<keyframe>
										<when>63678</when>
										<value>0</value>
									</keyframe>
									<keyframe>
										<when>63878</when>
										<value>1</value>
									</keyframe>
									<keyframe>
										<when>63932</when>
										<value>0</value>
									</keyframe>
								</parameter>
							</effect>
						</filter>
							<marker>
								<comment></comment>
								<name></name>
								<in>8498</in>
								<out>-1</out>
							</marker>
						<link>
							<linkclipref>clipitem-684</linkclipref>
							<mediatype>audio</mediatype>
							<trackindex>15</trackindex>
							<clipindex>20</clipindex>
							<groupindex>1</groupindex>
						</link>
						<link>
							<linkclipref>clipitem-788</linkclipref>
							<mediatype>audio</mediatype>
							<trackindex>16</trackindex>
							<clipindex>20</clipindex>
							<groupindex>1</groupindex>
						</link>
						<logginginfo>
							<description></description>
							<scene></scene>
							<shottake></shottake>
							<lognote></lognote>
							<good></good>
							<originalvideofilename></originalvideofilename>
							<originalaudiofilename></originalaudiofilename>
						</logginginfo>
						<colorinfo>
							<lut></lut>
							<lut1></lut1>
							<asc_sop></asc_sop>
							<asc_sat></asc_sat>
							<lut2></lut2>
						</colorinfo>
						<labels>
							<label2>Blue</label2>
						</labels>
					</clipitem>
					<transitionitem>
						<start>7626</start>
						<end>7628</end>
						<alignment>start-black</alignment>
						<cutPointTicks>0</cutPointTicks>
						<rate>
							<timebase>60</timebase>
							<ntsc>FALSE</ntsc>
						</rate>
						<effect>
							<name>Cross Fade (+3dB)</name>
							<effectid>KGAudioTransCrossFade3dB</effectid>
							<effecttype>transition</effecttype>
							<mediatype>audio</mediatype>
							<wipecode>0</wipecode>
							<wipeaccuracy>100</wipeaccuracy>
							<startratio>0</startratio>
							<endratio>1</endratio>
							<reverse>FALSE</reverse>
						</effect>
					</transitionitem>
					<clipitem id="clipitem-789" premiereChannelType="stereo">
						<masterclipid>masterclip-96</masterclipid>
						<name>Kate_ZOOM0001.WAV</name>
						<enabled>TRUE</enabled>
						<duration>81662</duration>
						<rate>
							<timebase>60</timebase>
							<ntsc>FALSE</ntsc>
						</rate>
						<start>-1</start>
						<end>-1</end>
						<in>64041</in>
						<out>64123</out>
						<pproTicksIn>271123977600000</pproTicksIn>
						<pproTicksOut>271471132800000</pproTicksOut>
						<file id="file-96"/>
						<sourcetrack>
							<mediatype>audio</mediatype>
							<trackindex>2</trackindex>
						</sourcetrack>
						<filter>
							<effect>
								<name>Audio Levels</name>
								<effectid>audiolevels</effectid>
								<effectcategory>audiolevels</effectcategory>
								<effecttype>audiolevels</effecttype>
								<mediatype>audio</mediatype>
								<pproBypass>false</pproBypass>
								<parameter authoringApp="PremierePro">
									<parameterid>level</parameterid>
									<name>Level</name>
									<valuemin>0</valuemin>
									<valuemax>3.98109</valuemax>
									<value>1</value>
									<keyframe>
										<when>63190</when>
										<value>1</value>
									</keyframe>
									<keyframe>
										<when>63208</when>
										<value>0</value>
									</keyframe>
									<keyframe>
										<when>63349</when>
										<value>0</value>
									</keyframe>
									<keyframe>
										<when>63364</when>
										<value>1</value>
									</keyframe>
									<keyframe>
										<when>63624</when>
										<value>1</value>
									</keyframe>
									<keyframe>
										<when>64041</when>
										<value>0</value>
									</keyframe>
									<keyframe>
										<when>64068</when>
										<value>1</value>
									</keyframe>
									<keyframe>
										<when>64570</when>
										<value>1</value>
									</keyframe>
									<keyframe>
										<when>64636</when>
										<value>0</value>
									</keyframe>
								</parameter>
							</effect>
						</filter>
							<marker>
								<comment></comment>
								<name></name>
								<in>8498</in>
								<out>-1</out>
							</marker>
						<link>
							<linkclipref>clipitem-685</linkclipref>
							<mediatype>audio</mediatype>
							<trackindex>15</trackindex>
							<clipindex>22</clipindex>
							<groupindex>1</groupindex>
						</link>
						<link>
							<linkclipref>clipitem-789</linkclipref>
							<mediatype>audio</mediatype>
							<trackindex>16</trackindex>
							<clipindex>22</clipindex>
							<groupindex>1</groupindex>
						</link>
						<logginginfo>
							<description></description>
							<scene></scene>
							<shottake></shottake>
							<lognote></lognote>
							<good></good>
							<originalvideofilename></originalvideofilename>
							<originalaudiofilename></originalaudiofilename>
						</logginginfo>
						<colorinfo>
							<lut></lut>
							<lut1></lut1>
							<asc_sop></asc_sop>
							<asc_sat></asc_sat>
							<lut2></lut2>
						</colorinfo>
						<labels>
							<label2>Blue</label2>
						</labels>
					</clipitem>
					<transitionitem>
						<start>7706</start>
						<end>7708</end>
						<alignment>center</alignment>
						<cutPointTicks>4233600000</cutPointTicks>
						<rate>
							<timebase>60</timebase>
							<ntsc>FALSE</ntsc>
						</rate>
						<effect>
							<name>Cross Fade (+3dB)</name>
							<effectid>KGAudioTransCrossFade3dB</effectid>
							<effecttype>transition</effecttype>
							<mediatype>audio</mediatype>
							<wipecode>0</wipecode>
							<wipeaccuracy>100</wipeaccuracy>
							<startratio>0</startratio>
							<endratio>1</endratio>
							<reverse>FALSE</reverse>
						</effect>
					</transitionitem>
					<clipitem id="clipitem-790" premiereChannelType="stereo">
						<masterclipid>masterclip-96</masterclipid>
						<name>Kate_ZOOM0001.WAV</name>
						<enabled>TRUE</enabled>
						<duration>81662</duration>
						<rate>
							<timebase>60</timebase>
							<ntsc>FALSE</ntsc>
						</rate>
						<start>-1</start>
						<end>-1</end>
						<in>64121</in>
						<out>64144</out>
						<pproTicksIn>271462665600000</pproTicksIn>
						<pproTicksOut>271560038400000</pproTicksOut>
						<file id="file-96"/>
						<sourcetrack>
							<mediatype>audio</mediatype>
							<trackindex>2</trackindex>
						</sourcetrack>
						<filter>
							<effect>
								<name>Audio Levels</name>
								<effectid>audiolevels</effectid>
								<effectcategory>audiolevels</effectcategory>
								<effecttype>audiolevels</effecttype>
								<mediatype>audio</mediatype>
								<pproBypass>false</pproBypass>
								<parameter authoringApp="PremierePro">
									<parameterid>level</parameterid>
									<name>Level</name>
									<valuemin>0</valuemin>
									<valuemax>3.98109</valuemax>
									<value>1</value>
									<keyframe>
										<when>63190</when>
										<value>1</value>
									</keyframe>
									<keyframe>
										<when>63208</when>
										<value>0</value>
									</keyframe>
									<keyframe>
										<when>63349</when>
										<value>0</value>
									</keyframe>
									<keyframe>
										<when>63364</when>
										<value>1</value>
									</keyframe>
									<keyframe>
										<when>63624</when>
										<value>1</value>
									</keyframe>
									<keyframe>
										<when>64041</when>
										<value>0</value>
									</keyframe>
									<keyframe>
										<when>64068</when>
										<value>1</value>
									</keyframe>
									<keyframe>
										<when>64570</when>
										<value>1</value>
									</keyframe>
									<keyframe>
										<when>64636</when>
										<value>0</value>
									</keyframe>
								</parameter>
							</effect>
						</filter>
							<marker>
								<comment></comment>
								<name></name>
								<in>8498</in>
								<out>-1</out>
							</marker>
						<link>
							<linkclipref>clipitem-686</linkclipref>
							<mediatype>audio</mediatype>
							<trackindex>15</trackindex>
							<clipindex>24</clipindex>
							<groupindex>1</groupindex>
						</link>
						<link>
							<linkclipref>clipitem-790</linkclipref>
							<mediatype>audio</mediatype>
							<trackindex>16</trackindex>
							<clipindex>24</clipindex>
							<groupindex>1</groupindex>
						</link>
						<logginginfo>
							<description></description>
							<scene></scene>
							<shottake></shottake>
							<lognote></lognote>
							<good></good>
							<originalvideofilename></originalvideofilename>
							<originalaudiofilename></originalaudiofilename>
						</logginginfo>
						<colorinfo>
							<lut></lut>
							<lut1></lut1>
							<asc_sop></asc_sop>
							<asc_sat></asc_sat>
							<lut2></lut2>
						</colorinfo>
						<labels>
							<label2>Blue</label2>
						</labels>
					</clipitem>
					<transitionitem>
						<start>7727</start>
						<end>7729</end>
						<alignment>center</alignment>
						<cutPointTicks>4233600000</cutPointTicks>
						<rate>
							<timebase>60</timebase>
							<ntsc>FALSE</ntsc>
						</rate>
						<effect>
							<name>Cross Fade (+3dB)</name>
							<effectid>KGAudioTransCrossFade3dB</effectid>
							<effecttype>transition</effecttype>
							<mediatype>audio</mediatype>
							<wipecode>0</wipecode>
							<wipeaccuracy>100</wipeaccuracy>
							<startratio>0</startratio>
							<endratio>1</endratio>
							<reverse>FALSE</reverse>
						</effect>
					</transitionitem>
					<clipitem id="clipitem-791" premiereChannelType="stereo">
						<masterclipid>masterclip-96</masterclipid>
						<name>Kate_ZOOM0001.WAV</name>
						<enabled>TRUE</enabled>
						<duration>81662</duration>
						<rate>
							<timebase>60</timebase>
							<ntsc>FALSE</ntsc>
						</rate>
						<start>-1</start>
						<end>-1</end>
						<in>64166</in>
						<out>64424</out>
						<pproTicksIn>271653177600000</pproTicksIn>
						<pproTicksOut>272745446400000</pproTicksOut>
						<file id="file-96"/>
						<sourcetrack>
							<mediatype>audio</mediatype>
							<trackindex>2</trackindex>
						</sourcetrack>
						<filter>
							<effect>
								<name>Audio Levels</name>
								<effectid>audiolevels</effectid>
								<effectcategory>audiolevels</effectcategory>
								<effecttype>audiolevels</effecttype>
								<mediatype>audio</mediatype>
								<pproBypass>false</pproBypass>
								<parameter authoringApp="PremierePro">
									<parameterid>level</parameterid>
									<name>Level</name>
									<valuemin>0</valuemin>
									<valuemax>3.98109</valuemax>
									<value>1</value>
									<keyframe>
										<when>63190</when>
										<value>1</value>
									</keyframe>
									<keyframe>
										<when>63208</when>
										<value>0</value>
									</keyframe>
									<keyframe>
										<when>63349</when>
										<value>0</value>
									</keyframe>
									<keyframe>
										<when>63364</when>
										<value>1</value>
									</keyframe>
									<keyframe>
										<when>63624</when>
										<value>1</value>
									</keyframe>
									<keyframe>
										<when>64041</when>
										<value>0</value>
									</keyframe>
									<keyframe>
										<when>64068</when>
										<value>1</value>
									</keyframe>
									<keyframe>
										<when>64321</when>
										<value>1</value>
									</keyframe>
									<keyframe>
										<when>64341</when>
										<value>1.27234</value>
									</keyframe>
									<keyframe>
										<when>64570</when>
										<value>1.27234</value>
									</keyframe>
									<keyframe>
										<when>64636</when>
										<value>0</value>
									</keyframe>
								</parameter>
							</effect>
						</filter>
							<marker>
								<comment></comment>
								<name></name>
								<in>8498</in>
								<out>-1</out>
							</marker>
						<link>
							<linkclipref>clipitem-687</linkclipref>
							<mediatype>audio</mediatype>
							<trackindex>15</trackindex>
							<clipindex>26</clipindex>
							<groupindex>1</groupindex>
						</link>
						<link>
							<linkclipref>clipitem-791</linkclipref>
							<mediatype>audio</mediatype>
							<trackindex>16</trackindex>
							<clipindex>26</clipindex>
							<groupindex>1</groupindex>
						</link>
						<logginginfo>
							<description></description>
							<scene></scene>
							<shottake></shottake>
							<lognote></lognote>
							<good></good>
							<originalvideofilename></originalvideofilename>
							<originalaudiofilename></originalaudiofilename>
						</logginginfo>
						<colorinfo>
							<lut></lut>
							<lut1></lut1>
							<asc_sop></asc_sop>
							<asc_sat></asc_sat>
							<lut2></lut2>
						</colorinfo>
						<labels>
							<label2>Blue</label2>
						</labels>
					</clipitem>
					<transitionitem>
						<start>7983</start>
						<end>7985</end>
						<alignment>center</alignment>
						<cutPointTicks>4233600000</cutPointTicks>
						<rate>
							<timebase>60</timebase>
							<ntsc>FALSE</ntsc>
						</rate>
						<effect>
							<name>Cross Fade (+3dB)</name>
							<effectid>KGAudioTransCrossFade3dB</effectid>
							<effecttype>transition</effecttype>
							<mediatype>audio</mediatype>
							<wipecode>0</wipecode>
							<wipeaccuracy>100</wipeaccuracy>
							<startratio>0</startratio>
							<endratio>1</endratio>
							<reverse>FALSE</reverse>
						</effect>
					</transitionitem>
					<clipitem id="clipitem-792" premiereChannelType="stereo">
						<masterclipid>masterclip-96</masterclipid>
						<name>Kate_ZOOM0001.WAV</name>
						<enabled>TRUE</enabled>
						<duration>81662</duration>
						<rate>
							<timebase>60</timebase>
							<ntsc>FALSE</ntsc>
						</rate>
						<start>-1</start>
						<end>-1</end>
						<in>64478</in>
						<out>64581</out>
						<pproTicksIn>272974060800000</pproTicksIn>
						<pproTicksOut>273410121600000</pproTicksOut>
						<file id="file-96"/>
						<sourcetrack>
							<mediatype>audio</mediatype>
							<trackindex>2</trackindex>
						</sourcetrack>
						<filter>
							<effect>
								<name>Audio Levels</name>
								<effectid>audiolevels</effectid>
								<effectcategory>audiolevels</effectcategory>
								<effecttype>audiolevels</effecttype>
								<mediatype>audio</mediatype>
								<pproBypass>false</pproBypass>
								<parameter authoringApp="PremierePro">
									<parameterid>level</parameterid>
									<name>Level</name>
									<valuemin>0</valuemin>
									<valuemax>3.98109</valuemax>
									<value>1</value>
									<keyframe>
										<when>63190</when>
										<value>1</value>
									</keyframe>
									<keyframe>
										<when>63208</when>
										<value>0</value>
									</keyframe>
									<keyframe>
										<when>63349</when>
										<value>0</value>
									</keyframe>
									<keyframe>
										<when>63364</when>
										<value>1</value>
									</keyframe>
									<keyframe>
										<when>63624</when>
										<value>1</value>
									</keyframe>
									<keyframe>
										<when>64041</when>
										<value>0</value>
									</keyframe>
									<keyframe>
										<when>64068</when>
										<value>1.48511</value>
									</keyframe>
									<keyframe>
										<when>64558</when>
										<value>1.48511</value>
									</keyframe>
									<keyframe>
										<when>64581</when>
										<value>0</value>
									</keyframe>
									<keyframe>
										<when>64636</when>
										<value>0</value>
									</keyframe>
								</parameter>
							</effect>
						</filter>
							<marker>
								<comment></comment>
								<name></name>
								<in>8498</in>
								<out>-1</out>
							</marker>
						<link>
							<linkclipref>clipitem-688</linkclipref>
							<mediatype>audio</mediatype>
							<trackindex>15</trackindex>
							<clipindex>28</clipindex>
							<groupindex>1</groupindex>
						</link>
						<link>
							<linkclipref>clipitem-792</linkclipref>
							<mediatype>audio</mediatype>
							<trackindex>16</trackindex>
							<clipindex>28</clipindex>
							<groupindex>1</groupindex>
						</link>
						<logginginfo>
							<description></description>
							<scene></scene>
							<shottake></shottake>
							<lognote></lognote>
							<good></good>
							<originalvideofilename></originalvideofilename>
							<originalaudiofilename></originalaudiofilename>
						</logginginfo>
						<colorinfo>
							<lut></lut>
							<lut1></lut1>
							<asc_sop></asc_sop>
							<asc_sat></asc_sat>
							<lut2></lut2>
						</colorinfo>
						<labels>
							<label2>Blue</label2>
						</labels>
					</clipitem>
					<transitionitem>
						<start>8084</start>
						<end>8086</end>
						<alignment>end-black</alignment>
						<cutPointTicks>8467200000</cutPointTicks>
						<rate>
							<timebase>60</timebase>
							<ntsc>FALSE</ntsc>
						</rate>
						<effect>
							<name>Cross Fade (+3dB)</name>
							<effectid>KGAudioTransCrossFade3dB</effectid>
							<effecttype>transition</effecttype>
							<mediatype>audio</mediatype>
							<wipecode>0</wipecode>
							<wipeaccuracy>100</wipeaccuracy>
							<startratio>0</startratio>
							<endratio>1</endratio>
							<reverse>FALSE</reverse>
						</effect>
					</transitionitem>
					<transitionitem>
						<start>9006</start>
						<end>9008</end>
						<alignment>start-black</alignment>
						<cutPointTicks>0</cutPointTicks>
						<rate>
							<timebase>60</timebase>
							<ntsc>FALSE</ntsc>
						</rate>
						<effect>
							<name>Cross Fade (+3dB)</name>
							<effectid>KGAudioTransCrossFade3dB</effectid>
							<effecttype>transition</effecttype>
							<mediatype>audio</mediatype>
							<wipecode>0</wipecode>
							<wipeaccuracy>100</wipeaccuracy>
							<startratio>0</startratio>
							<endratio>1</endratio>
							<reverse>FALSE</reverse>
						</effect>
					</transitionitem>
					<clipitem id="clipitem-793" premiereChannelType="stereo">
						<masterclipid>masterclip-96</masterclipid>
						<name>Kate_ZOOM0001.WAV</name>
						<enabled>TRUE</enabled>
						<duration>81662</duration>
						<rate>
							<timebase>60</timebase>
							<ntsc>FALSE</ntsc>
						</rate>
						<start>-1</start>
						<end>-1</end>
						<in>64776</in>
						<out>64886</out>
						<pproTicksIn>274235673600000</pproTicksIn>
						<pproTicksOut>274701369600000</pproTicksOut>
						<file id="file-96"/>
						<sourcetrack>
							<mediatype>audio</mediatype>
							<trackindex>2</trackindex>
						</sourcetrack>
						<filter>
							<effect>
								<name>Audio Levels</name>
								<effectid>audiolevels</effectid>
								<effectcategory>audiolevels</effectcategory>
								<effecttype>audiolevels</effecttype>
								<mediatype>audio</mediatype>
								<pproBypass>false</pproBypass>
								<parameter authoringApp="PremierePro">
									<parameterid>level</parameterid>
									<name>Level</name>
									<valuemin>0</valuemin>
									<valuemax>3.98109</valuemax>
									<value>1</value>
									<keyframe>
										<when>63190</when>
										<value>1</value>
									</keyframe>
									<keyframe>
										<when>63208</when>
										<value>0</value>
									</keyframe>
									<keyframe>
										<when>63349</when>
										<value>0</value>
									</keyframe>
									<keyframe>
										<when>63364</when>
										<value>1</value>
									</keyframe>
									<keyframe>
										<when>63624</when>
										<value>1</value>
									</keyframe>
									<keyframe>
										<when>64694</when>
										<value>0</value>
									</keyframe>
									<keyframe>
										<when>64775</when>
										<value>1</value>
									</keyframe>
									<keyframe>
										<when>64776</when>
										<value>0</value>
									</keyframe>
									<keyframe>
										<when>64781</when>
										<value>1</value>
									</keyframe>
									<keyframe>
										<when>64880</when>
										<value>1</value>
									</keyframe>
									<keyframe>
										<when>64893</when>
										<value>0</value>
									</keyframe>
								</parameter>
							</effect>
						</filter>
							<marker>
								<comment></comment>
								<name></name>
								<in>8498</in>
								<out>-1</out>
							</marker>
						<link>
							<linkclipref>clipitem-689</linkclipref>
							<mediatype>audio</mediatype>
							<trackindex>15</trackindex>
							<clipindex>31</clipindex>
							<groupindex>1</groupindex>
						</link>
						<link>
							<linkclipref>clipitem-793</linkclipref>
							<mediatype>audio</mediatype>
							<trackindex>16</trackindex>
							<clipindex>31</clipindex>
							<groupindex>1</groupindex>
						</link>
						<logginginfo>
							<description></description>
							<scene></scene>
							<shottake></shottake>
							<lognote></lognote>
							<good></good>
							<originalvideofilename></originalvideofilename>
							<originalaudiofilename></originalaudiofilename>
						</logginginfo>
						<colorinfo>
							<lut></lut>
							<lut1></lut1>
							<asc_sop></asc_sop>
							<asc_sat></asc_sat>
							<lut2></lut2>
						</colorinfo>
						<labels>
							<label2>Blue</label2>
						</labels>
					</clipitem>
					<transitionitem>
						<start>9114</start>
						<end>9116</end>
						<alignment>end-black</alignment>
						<cutPointTicks>8467200000</cutPointTicks>
						<rate>
							<timebase>60</timebase>
							<ntsc>FALSE</ntsc>
						</rate>
						<effect>
							<name>Cross Fade (+3dB)</name>
							<effectid>KGAudioTransCrossFade3dB</effectid>
							<effecttype>transition</effecttype>
							<mediatype>audio</mediatype>
							<wipecode>0</wipecode>
							<wipeaccuracy>100</wipeaccuracy>
							<startratio>0</startratio>
							<endratio>1</endratio>
							<reverse>FALSE</reverse>
						</effect>
					</transitionitem>
					<transitionitem>
						<start>9388</start>
						<end>9390</end>
						<alignment>start-black</alignment>
						<cutPointTicks>0</cutPointTicks>
						<rate>
							<timebase>60</timebase>
							<ntsc>FALSE</ntsc>
						</rate>
						<effect>
							<name>Cross Fade (+3dB)</name>
							<effectid>KGAudioTransCrossFade3dB</effectid>
							<effecttype>transition</effecttype>
							<mediatype>audio</mediatype>
							<wipecode>0</wipecode>
							<wipeaccuracy>100</wipeaccuracy>
							<startratio>0</startratio>
							<endratio>1</endratio>
							<reverse>FALSE</reverse>
						</effect>
					</transitionitem>
					<clipitem id="clipitem-794" premiereChannelType="stereo">
						<masterclipid>masterclip-96</masterclipid>
						<name>Kate_ZOOM0001.WAV</name>
						<enabled>TRUE</enabled>
						<duration>81662</duration>
						<rate>
							<timebase>60</timebase>
							<ntsc>FALSE</ntsc>
						</rate>
						<start>-1</start>
						<end>-1</end>
						<in>65344</in>
						<out>65476</out>
						<pproTicksIn>276640358400000</pproTicksIn>
						<pproTicksOut>277199193600000</pproTicksOut>
						<file id="file-96"/>
						<sourcetrack>
							<mediatype>audio</mediatype>
							<trackindex>2</trackindex>
						</sourcetrack>
						<filter>
							<effect>
								<name>Audio Levels</name>
								<effectid>audiolevels</effectid>
								<effectcategory>audiolevels</effectcategory>
								<effecttype>audiolevels</effecttype>
								<mediatype>audio</mediatype>
								<pproBypass>false</pproBypass>
								<parameter authoringApp="PremierePro">
									<parameterid>level</parameterid>
									<name>Level</name>
									<valuemin>0</valuemin>
									<valuemax>3.98109</valuemax>
									<value>0</value>
									<keyframe>
										<when>65344</when>
										<value>0</value>
									</keyframe>
									<keyframe>
										<when>65357</when>
										<value>1</value>
									</keyframe>
									<keyframe>
										<when>65718</when>
										<value>1</value>
									</keyframe>
									<keyframe>
										<when>65753</when>
										<value>0</value>
									</keyframe>
								</parameter>
							</effect>
						</filter>
							<marker>
								<comment></comment>
								<name></name>
								<in>8498</in>
								<out>-1</out>
							</marker>
						<link>
							<linkclipref>clipitem-690</linkclipref>
							<mediatype>audio</mediatype>
							<trackindex>15</trackindex>
							<clipindex>34</clipindex>
							<groupindex>1</groupindex>
						</link>
						<link>
							<linkclipref>clipitem-794</linkclipref>
							<mediatype>audio</mediatype>
							<trackindex>16</trackindex>
							<clipindex>34</clipindex>
							<groupindex>1</groupindex>
						</link>
						<logginginfo>
							<description></description>
							<scene></scene>
							<shottake></shottake>
							<lognote></lognote>
							<good></good>
							<originalvideofilename></originalvideofilename>
							<originalaudiofilename></originalaudiofilename>
						</logginginfo>
						<colorinfo>
							<lut></lut>
							<lut1></lut1>
							<asc_sop></asc_sop>
							<asc_sat></asc_sat>
							<lut2></lut2>
						</colorinfo>
						<labels>
							<label2>Blue</label2>
						</labels>
					</clipitem>
					<transitionitem>
						<start>9518</start>
						<end>9520</end>
						<alignment>end-black</alignment>
						<cutPointTicks>8467200000</cutPointTicks>
						<rate>
							<timebase>60</timebase>
							<ntsc>FALSE</ntsc>
						</rate>
						<effect>
							<name>Cross Fade (+3dB)</name>
							<effectid>KGAudioTransCrossFade3dB</effectid>
							<effecttype>transition</effecttype>
							<mediatype>audio</mediatype>
							<wipecode>0</wipecode>
							<wipeaccuracy>100</wipeaccuracy>
							<startratio>0</startratio>
							<endratio>1</endratio>
							<reverse>FALSE</reverse>
						</effect>
					</transitionitem>
					<transitionitem>
						<start>10870</start>
						<end>10872</end>
						<alignment>start-black</alignment>
						<cutPointTicks>0</cutPointTicks>
						<rate>
							<timebase>60</timebase>
							<ntsc>FALSE</ntsc>
						</rate>
						<effect>
							<name>Cross Fade (+3dB)</name>
							<effectid>KGAudioTransCrossFade3dB</effectid>
							<effecttype>transition</effecttype>
							<mediatype>audio</mediatype>
							<wipecode>0</wipecode>
							<wipeaccuracy>100</wipeaccuracy>
							<startratio>0</startratio>
							<endratio>1</endratio>
							<reverse>FALSE</reverse>
						</effect>
					</transitionitem>
					<clipitem id="clipitem-795" premiereChannelType="stereo">
						<masterclipid>masterclip-96</masterclipid>
						<name>Kate_ZOOM0001.WAV</name>
						<enabled>TRUE</enabled>
						<duration>81662</duration>
						<rate>
							<timebase>60</timebase>
							<ntsc>FALSE</ntsc>
						</rate>
						<start>-1</start>
						<end>-1</end>
						<in>17161</in>
						<out>17242</out>
						<pproTicksIn>72652809600000</pproTicksIn>
						<pproTicksOut>72995731200000</pproTicksOut>
						<file id="file-96"/>
						<sourcetrack>
							<mediatype>audio</mediatype>
							<trackindex>2</trackindex>
						</sourcetrack>
						<filter>
							<effect>
								<name>Audio Levels</name>
								<effectid>audiolevels</effectid>
								<effectcategory>audiolevels</effectcategory>
								<effecttype>audiolevels</effecttype>
								<mediatype>audio</mediatype>
								<pproBypass>false</pproBypass>
								<parameter authoringApp="PremierePro">
									<parameterid>level</parameterid>
									<name>Level</name>
									<valuemin>0</valuemin>
									<valuemax>3.98109</valuemax>
									<value>0</value>
									<keyframe>
										<when>17117</when>
										<value>0</value>
									</keyframe>
									<keyframe>
										<when>17147</when>
										<value>1</value>
									</keyframe>
									<keyframe>
										<when>17243</when>
										<value>1</value>
									</keyframe>
									<keyframe>
										<when>17256</when>
										<value>0</value>
									</keyframe>
									<keyframe>
										<when>17367</when>
										<value>0</value>
									</keyframe>
									<keyframe>
										<when>17377</when>
										<value>1</value>
									</keyframe>
								</parameter>
							</effect>
						</filter>
							<marker>
								<comment></comment>
								<name></name>
								<in>8498</in>
								<out>-1</out>
							</marker>
						<link>
							<linkclipref>clipitem-691</linkclipref>
							<mediatype>audio</mediatype>
							<trackindex>15</trackindex>
							<clipindex>37</clipindex>
							<groupindex>1</groupindex>
						</link>
						<link>
							<linkclipref>clipitem-795</linkclipref>
							<mediatype>audio</mediatype>
							<trackindex>16</trackindex>
							<clipindex>37</clipindex>
							<groupindex>1</groupindex>
						</link>
						<logginginfo>
							<description></description>
							<scene></scene>
							<shottake></shottake>
							<lognote></lognote>
							<good></good>
							<originalvideofilename></originalvideofilename>
							<originalaudiofilename></originalaudiofilename>
						</logginginfo>
						<colorinfo>
							<lut></lut>
							<lut1></lut1>
							<asc_sop></asc_sop>
							<asc_sat></asc_sat>
							<lut2></lut2>
						</colorinfo>
						<labels>
							<label2>Purple</label2>
						</labels>
					</clipitem>
					<transitionitem>
						<start>10949</start>
						<end>10951</end>
						<alignment>center</alignment>
						<cutPointTicks>4233600000</cutPointTicks>
						<rate>
							<timebase>60</timebase>
							<ntsc>FALSE</ntsc>
						</rate>
						<effect>
							<name>Cross Fade (+3dB)</name>
							<effectid>KGAudioTransCrossFade3dB</effectid>
							<effecttype>transition</effecttype>
							<mediatype>audio</mediatype>
							<wipecode>0</wipecode>
							<wipeaccuracy>100</wipeaccuracy>
							<startratio>0</startratio>
							<endratio>1</endratio>
							<reverse>FALSE</reverse>
						</effect>
					</transitionitem>
					<clipitem id="clipitem-796" premiereChannelType="stereo">
						<masterclipid>masterclip-96</masterclipid>
						<name>Kate_ZOOM0001.WAV</name>
						<enabled>TRUE</enabled>
						<duration>81662</duration>
						<rate>
							<timebase>60</timebase>
							<ntsc>FALSE</ntsc>
						</rate>
						<start>-1</start>
						<end>-1</end>
						<in>17377</in>
						<out>17504</out>
						<pproTicksIn>73567267200000</pproTicksIn>
						<pproTicksOut>74104934400000</pproTicksOut>
						<file id="file-96"/>
						<sourcetrack>
							<mediatype>audio</mediatype>
							<trackindex>2</trackindex>
						</sourcetrack>
						<filter>
							<effect>
								<name>Audio Levels</name>
								<effectid>audiolevels</effectid>
								<effectcategory>audiolevels</effectcategory>
								<effecttype>audiolevels</effecttype>
								<mediatype>audio</mediatype>
								<pproBypass>false</pproBypass>
								<parameter authoringApp="PremierePro">
									<parameterid>level</parameterid>
									<name>Level</name>
									<valuemin>0</valuemin>
									<valuemax>3.98109</valuemax>
									<value>0</value>
									<keyframe>
										<when>17117</when>
										<value>0</value>
									</keyframe>
									<keyframe>
										<when>17147</when>
										<value>1</value>
									</keyframe>
									<keyframe>
										<when>17243</when>
										<value>1</value>
									</keyframe>
									<keyframe>
										<when>17256</when>
										<value>0</value>
									</keyframe>
									<keyframe>
										<when>17367</when>
										<value>0</value>
									</keyframe>
									<keyframe>
										<when>17377</when>
										<value>1</value>
									</keyframe>
									<keyframe>
										<when>17470</when>
										<value>1</value>
									</keyframe>
									<keyframe>
										<when>17504</when>
										<value>0</value>
									</keyframe>
									<keyframe>
										<when>17556</when>
										<value>0</value>
									</keyframe>
								</parameter>
							</effect>
						</filter>
							<marker>
								<comment></comment>
								<name></name>
								<in>8498</in>
								<out>-1</out>
							</marker>
						<link>
							<linkclipref>clipitem-692</linkclipref>
							<mediatype>audio</mediatype>
							<trackindex>15</trackindex>
							<clipindex>39</clipindex>
							<groupindex>1</groupindex>
						</link>
						<link>
							<linkclipref>clipitem-796</linkclipref>
							<mediatype>audio</mediatype>
							<trackindex>16</trackindex>
							<clipindex>39</clipindex>
							<groupindex>1</groupindex>
						</link>
						<logginginfo>
							<description></description>
							<scene></scene>
							<shottake></shottake>
							<lognote></lognote>
							<good></good>
							<originalvideofilename></originalvideofilename>
							<originalaudiofilename></originalaudiofilename>
						</logginginfo>
						<colorinfo>
							<lut></lut>
							<lut1></lut1>
							<asc_sop></asc_sop>
							<asc_sat></asc_sat>
							<lut2></lut2>
						</colorinfo>
						<labels>
							<label2>Purple</label2>
						</labels>
					</clipitem>
					<transitionitem>
						<start>11074</start>
						<end>11076</end>
						<alignment>end-black</alignment>
						<cutPointTicks>8467200000</cutPointTicks>
						<rate>
							<timebase>60</timebase>
							<ntsc>FALSE</ntsc>
						</rate>
						<effect>
							<name>Cross Fade (+3dB)</name>
							<effectid>KGAudioTransCrossFade3dB</effectid>
							<effecttype>transition</effecttype>
							<mediatype>audio</mediatype>
							<wipecode>0</wipecode>
							<wipeaccuracy>100</wipeaccuracy>
							<startratio>0</startratio>
							<endratio>1</endratio>
							<reverse>FALSE</reverse>
						</effect>
					</transitionitem>
					<transitionitem>
						<start>11265</start>
						<end>11267</end>
						<alignment>start-black</alignment>
						<cutPointTicks>0</cutPointTicks>
						<rate>
							<timebase>60</timebase>
							<ntsc>FALSE</ntsc>
						</rate>
						<effect>
							<name>Cross Fade (+3dB)</name>
							<effectid>KGAudioTransCrossFade3dB</effectid>
							<effecttype>transition</effecttype>
							<mediatype>audio</mediatype>
							<wipecode>0</wipecode>
							<wipeaccuracy>100</wipeaccuracy>
							<startratio>0</startratio>
							<endratio>1</endratio>
							<reverse>FALSE</reverse>
						</effect>
					</transitionitem>
					<clipitem id="clipitem-797" premiereChannelType="stereo">
						<masterclipid>masterclip-96</masterclipid>
						<name>Kate_ZOOM0001.WAV</name>
						<enabled>TRUE</enabled>
						<duration>81662</duration>
						<rate>
							<timebase>60</timebase>
							<ntsc>FALSE</ntsc>
						</rate>
						<start>-1</start>
						<end>-1</end>
						<in>18178</in>
						<out>18451</out>
						<pproTicksIn>76958380800000</pproTicksIn>
						<pproTicksOut>78114153600000</pproTicksOut>
						<file id="file-96"/>
						<sourcetrack>
							<mediatype>audio</mediatype>
							<trackindex>2</trackindex>
						</sourcetrack>
						<filter>
							<effect>
								<name>Audio Levels</name>
								<effectid>audiolevels</effectid>
								<effectcategory>audiolevels</effectcategory>
								<effecttype>audiolevels</effecttype>
								<mediatype>audio</mediatype>
								<pproBypass>false</pproBypass>
								<parameter authoringApp="PremierePro">
									<parameterid>level</parameterid>
									<name>Level</name>
									<valuemin>0</valuemin>
									<valuemax>3.98109</valuemax>
									<value>0</value>
									<keyframe>
										<when>17117</when>
										<value>0</value>
									</keyframe>
									<keyframe>
										<when>17147</when>
										<value>1</value>
									</keyframe>
									<keyframe>
										<when>17243</when>
										<value>1</value>
									</keyframe>
									<keyframe>
										<when>17256</when>
										<value>0</value>
									</keyframe>
									<keyframe>
										<when>17367</when>
										<value>0</value>
									</keyframe>
									<keyframe>
										<when>17377</when>
										<value>0</value>
									</keyframe>
									<keyframe>
										<when>17918</when>
										<value>0</value>
									</keyframe>
									<keyframe>
										<when>17950</when>
										<value>1</value>
									</keyframe>
									<keyframe>
										<when>18178</when>
										<value>0</value>
									</keyframe>
									<keyframe>
										<when>18184</when>
										<value>1</value>
									</keyframe>
								</parameter>
							</effect>
						</filter>
							<marker>
								<comment></comment>
								<name></name>
								<in>8498</in>
								<out>-1</out>
							</marker>
						<link>
							<linkclipref>clipitem-693</linkclipref>
							<mediatype>audio</mediatype>
							<trackindex>15</trackindex>
							<clipindex>42</clipindex>
							<groupindex>1</groupindex>
						</link>
						<link>
							<linkclipref>clipitem-797</linkclipref>
							<mediatype>audio</mediatype>
							<trackindex>16</trackindex>
							<clipindex>42</clipindex>
							<groupindex>1</groupindex>
						</link>
						<logginginfo>
							<description></description>
							<scene></scene>
							<shottake></shottake>
							<lognote></lognote>
							<good></good>
							<originalvideofilename></originalvideofilename>
							<originalaudiofilename></originalaudiofilename>
						</logginginfo>
						<colorinfo>
							<lut></lut>
							<lut1></lut1>
							<asc_sop></asc_sop>
							<asc_sat></asc_sat>
							<lut2></lut2>
						</colorinfo>
						<labels>
							<label2>Tan</label2>
						</labels>
					</clipitem>
					<transitionitem>
						<start>11536</start>
						<end>11538</end>
						<alignment>center</alignment>
						<cutPointTicks>4233600000</cutPointTicks>
						<rate>
							<timebase>60</timebase>
							<ntsc>FALSE</ntsc>
						</rate>
						<effect>
							<name>Cross Fade (+3dB)</name>
							<effectid>KGAudioTransCrossFade3dB</effectid>
							<effecttype>transition</effecttype>
							<mediatype>audio</mediatype>
							<wipecode>0</wipecode>
							<wipeaccuracy>100</wipeaccuracy>
							<startratio>0</startratio>
							<endratio>1</endratio>
							<reverse>FALSE</reverse>
						</effect>
					</transitionitem>
					<clipitem id="clipitem-798" premiereChannelType="stereo">
						<masterclipid>masterclip-96</masterclipid>
						<name>Kate_ZOOM0001.WAV</name>
						<enabled>TRUE</enabled>
						<duration>81662</duration>
						<rate>
							<timebase>60</timebase>
							<ntsc>FALSE</ntsc>
						</rate>
						<start>-1</start>
						<end>-1</end>
						<in>18635</in>
						<out>18777</out>
						<pproTicksIn>78893136000000</pproTicksIn>
						<pproTicksOut>79494307200000</pproTicksOut>
						<file id="file-96"/>
						<sourcetrack>
							<mediatype>audio</mediatype>
							<trackindex>2</trackindex>
						</sourcetrack>
						<filter>
							<effect>
								<name>Audio Levels</name>
								<effectid>audiolevels</effectid>
								<effectcategory>audiolevels</effectcategory>
								<effecttype>audiolevels</effecttype>
								<mediatype>audio</mediatype>
								<pproBypass>false</pproBypass>
								<parameter authoringApp="PremierePro">
									<parameterid>level</parameterid>
									<name>Level</name>
									<valuemin>0</valuemin>
									<valuemax>3.98109</valuemax>
									<value>0</value>
									<keyframe>
										<when>17117</when>
										<value>0</value>
									</keyframe>
									<keyframe>
										<when>17147</when>
										<value>1</value>
									</keyframe>
									<keyframe>
										<when>17243</when>
										<value>1</value>
									</keyframe>
									<keyframe>
										<when>17256</when>
										<value>0</value>
									</keyframe>
									<keyframe>
										<when>17367</when>
										<value>0</value>
									</keyframe>
									<keyframe>
										<when>17377</when>
										<value>0</value>
									</keyframe>
									<keyframe>
										<when>17918</when>
										<value>0</value>
									</keyframe>
									<keyframe>
										<when>17950</when>
										<value>2</value>
									</keyframe>
									<keyframe>
										<when>18756</when>
										<value>2</value>
									</keyframe>
									<keyframe>
										<when>18767</when>
										<value>1.85106</value>
									</keyframe>
									<keyframe>
										<when>18822</when>
										<value>0</value>
									</keyframe>
								</parameter>
							</effect>
						</filter>
							<marker>
								<comment></comment>
								<name></name>
								<in>8498</in>
								<out>-1</out>
							</marker>
						<link>
							<linkclipref>clipitem-694</linkclipref>
							<mediatype>audio</mediatype>
							<trackindex>15</trackindex>
							<clipindex>44</clipindex>
							<groupindex>1</groupindex>
						</link>
						<link>
							<linkclipref>clipitem-798</linkclipref>
							<mediatype>audio</mediatype>
							<trackindex>16</trackindex>
							<clipindex>44</clipindex>
							<groupindex>1</groupindex>
						</link>
						<logginginfo>
							<description></description>
							<scene></scene>
							<shottake></shottake>
							<lognote></lognote>
							<good></good>
							<originalvideofilename></originalvideofilename>
							<originalaudiofilename></originalaudiofilename>
						</logginginfo>
						<colorinfo>
							<lut></lut>
							<lut1></lut1>
							<asc_sop></asc_sop>
							<asc_sat></asc_sat>
							<lut2></lut2>
						</colorinfo>
						<labels>
							<label2>Tan</label2>
						</labels>
					</clipitem>
					<transitionitem>
						<start>11676</start>
						<end>11678</end>
						<alignment>end-black</alignment>
						<cutPointTicks>8467200000</cutPointTicks>
						<rate>
							<timebase>60</timebase>
							<ntsc>FALSE</ntsc>
						</rate>
						<effect>
							<name>Cross Fade (+3dB)</name>
							<effectid>KGAudioTransCrossFade3dB</effectid>
							<effecttype>transition</effecttype>
							<mediatype>audio</mediatype>
							<wipecode>0</wipecode>
							<wipeaccuracy>100</wipeaccuracy>
							<startratio>0</startratio>
							<endratio>1</endratio>
							<reverse>FALSE</reverse>
						</effect>
					</transitionitem>
					<transitionitem>
						<start>11730</start>
						<end>11732</end>
						<alignment>start-black</alignment>
						<cutPointTicks>0</cutPointTicks>
						<rate>
							<timebase>60</timebase>
							<ntsc>FALSE</ntsc>
						</rate>
						<effect>
							<name>Cross Fade (+3dB)</name>
							<effectid>KGAudioTransCrossFade3dB</effectid>
							<effecttype>transition</effecttype>
							<mediatype>audio</mediatype>
							<wipecode>0</wipecode>
							<wipeaccuracy>100</wipeaccuracy>
							<startratio>0</startratio>
							<endratio>1</endratio>
							<reverse>FALSE</reverse>
						</effect>
					</transitionitem>
					<clipitem id="clipitem-799" premiereChannelType="stereo">
						<masterclipid>masterclip-96</masterclipid>
						<name>Kate_ZOOM0001.WAV</name>
						<enabled>TRUE</enabled>
						<duration>81662</duration>
						<rate>
							<timebase>60</timebase>
							<ntsc>FALSE</ntsc>
						</rate>
						<start>-1</start>
						<end>-1</end>
						<in>19647</in>
						<out>20234</out>
						<pproTicksIn>83177539200000</pproTicksIn>
						<pproTicksOut>85662662400000</pproTicksOut>
						<file id="file-96"/>
						<sourcetrack>
							<mediatype>audio</mediatype>
							<trackindex>2</trackindex>
						</sourcetrack>
						<filter>
							<effect>
								<name>Audio Levels</name>
								<effectid>audiolevels</effectid>
								<effectcategory>audiolevels</effectcategory>
								<effecttype>audiolevels</effecttype>
								<mediatype>audio</mediatype>
								<pproBypass>false</pproBypass>
								<parameter authoringApp="PremierePro">
									<parameterid>level</parameterid>
									<name>Level</name>
									<valuemin>0</valuemin>
									<valuemax>3.98109</valuemax>
									<value>0</value>
									<keyframe>
										<when>17117</when>
										<value>0</value>
									</keyframe>
									<keyframe>
										<when>17147</when>
										<value>1</value>
									</keyframe>
									<keyframe>
										<when>17243</when>
										<value>1</value>
									</keyframe>
									<keyframe>
										<when>17256</when>
										<value>0</value>
									</keyframe>
									<keyframe>
										<when>17367</when>
										<value>0</value>
									</keyframe>
									<keyframe>
										<when>17377</when>
										<value>0</value>
									</keyframe>
									<keyframe>
										<when>17918</when>
										<value>0</value>
									</keyframe>
									<keyframe>
										<when>17950</when>
										<value>0</value>
									</keyframe>
									<keyframe>
										<when>19157</when>
										<value>0</value>
									</keyframe>
									<keyframe>
										<when>19183</when>
										<value>0</value>
									</keyframe>
									<keyframe>
										<when>19590</when>
										<value>0</value>
									</keyframe>
									<keyframe>
										<when>19647</when>
										<value>0</value>
									</keyframe>
									<keyframe>
										<when>19667</when>
										<value>1</value>
									</keyframe>
									<keyframe>
										<when>20215</when>
										<value>1</value>
									</keyframe>
									<keyframe>
										<when>20234</when>
										<value>0</value>
									</keyframe>
									<keyframe>
										<when>20245</when>
										<value>1</value>
									</keyframe>
									<keyframe>
										<when>20275</when>
										<value>0</value>
									</keyframe>
									<keyframe>
										<when>20433</when>
										<value>0</value>
									</keyframe>
									<keyframe>
										<when>20463</when>
										<value>0</value>
									</keyframe>
									<keyframe>
										<when>20539</when>
										<value>0</value>
									</keyframe>
									<keyframe>
										<when>20557</when>
										<value>1</value>
									</keyframe>
									<keyframe>
										<when>21357</when>
										<value>1</value>
									</keyframe>
									<keyframe>
										<when>21402</when>
										<value>0</value>
									</keyframe>
									<keyframe>
										<when>21647</when>
										<value>0</value>
									</keyframe>
									<keyframe>
										<when>21749</when>
										<value>1</value>
									</keyframe>
								</parameter>
							</effect>
						</filter>
							<marker>
								<comment></comment>
								<name></name>
								<in>8498</in>
								<out>-1</out>
							</marker>
						<link>
							<linkclipref>clipitem-695</linkclipref>
							<mediatype>audio</mediatype>
							<trackindex>15</trackindex>
							<clipindex>47</clipindex>
							<groupindex>1</groupindex>
						</link>
						<link>
							<linkclipref>clipitem-799</linkclipref>
							<mediatype>audio</mediatype>
							<trackindex>16</trackindex>
							<clipindex>47</clipindex>
							<groupindex>1</groupindex>
						</link>
						<logginginfo>
							<description></description>
							<scene></scene>
							<shottake></shottake>
							<lognote></lognote>
							<good></good>
							<originalvideofilename></originalvideofilename>
							<originalaudiofilename></originalaudiofilename>
						</logginginfo>
						<colorinfo>
							<lut></lut>
							<lut1></lut1>
							<asc_sop></asc_sop>
							<asc_sat></asc_sat>
							<lut2></lut2>
						</colorinfo>
						<labels>
							<label2>Tan</label2>
						</labels>
					</clipitem>
					<transitionitem>
						<start>12315</start>
						<end>12317</end>
						<alignment>end-black</alignment>
						<cutPointTicks>8467200000</cutPointTicks>
						<rate>
							<timebase>60</timebase>
							<ntsc>FALSE</ntsc>
						</rate>
						<effect>
							<name>Cross Fade (+3dB)</name>
							<effectid>KGAudioTransCrossFade3dB</effectid>
							<effecttype>transition</effecttype>
							<mediatype>audio</mediatype>
							<wipecode>0</wipecode>
							<wipeaccuracy>100</wipeaccuracy>
							<startratio>0</startratio>
							<endratio>1</endratio>
							<reverse>FALSE</reverse>
						</effect>
					</transitionitem>
					<clipitem id="clipitem-800" premiereChannelType="stereo">
						<masterclipid>masterclip-96</masterclipid>
						<name>Kate_ZOOM0001.WAV</name>
						<enabled>TRUE</enabled>
						<duration>81662</duration>
						<rate>
							<timebase>60</timebase>
							<ntsc>FALSE</ntsc>
						</rate>
						<start>12621</start>
						<end>13504</end>
						<in>20538</in>
						<out>21421</out>
						<pproTicksIn>86949676800000</pproTicksIn>
						<pproTicksOut>90687945600000</pproTicksOut>
						<file id="file-96"/>
						<sourcetrack>
							<mediatype>audio</mediatype>
							<trackindex>2</trackindex>
						</sourcetrack>
						<filter>
							<effect>
								<name>Audio Levels</name>
								<effectid>audiolevels</effectid>
								<effectcategory>audiolevels</effectcategory>
								<effecttype>audiolevels</effecttype>
								<mediatype>audio</mediatype>
								<pproBypass>false</pproBypass>
								<parameter authoringApp="PremierePro">
									<parameterid>level</parameterid>
									<name>Level</name>
									<valuemin>0</valuemin>
									<valuemax>3.98109</valuemax>
									<value>0</value>
									<keyframe>
										<when>17117</when>
										<value>0</value>
									</keyframe>
									<keyframe>
										<when>17147</when>
										<value>1</value>
									</keyframe>
									<keyframe>
										<when>17243</when>
										<value>1</value>
									</keyframe>
									<keyframe>
										<when>17256</when>
										<value>0</value>
									</keyframe>
									<keyframe>
										<when>17367</when>
										<value>0</value>
									</keyframe>
									<keyframe>
										<when>17377</when>
										<value>0</value>
									</keyframe>
									<keyframe>
										<when>17918</when>
										<value>0</value>
									</keyframe>
									<keyframe>
										<when>17950</when>
										<value>0</value>
									</keyframe>
									<keyframe>
										<when>19157</when>
										<value>0</value>
									</keyframe>
									<keyframe>
										<when>19183</when>
										<value>0</value>
									</keyframe>
									<keyframe>
										<when>19590</when>
										<value>0</value>
									</keyframe>
									<keyframe>
										<when>19656</when>
										<value>1</value>
									</keyframe>
									<keyframe>
										<when>20245</when>
										<value>1</value>
									</keyframe>
									<keyframe>
										<when>20275</when>
										<value>0</value>
									</keyframe>
									<keyframe>
										<when>20433</when>
										<value>0</value>
									</keyframe>
									<keyframe>
										<when>20463</when>
										<value>0</value>
									</keyframe>
									<keyframe>
										<when>20539</when>
										<value>0</value>
									</keyframe>
									<keyframe>
										<when>20557</when>
										<value>1</value>
									</keyframe>
									<keyframe>
										<when>21357</when>
										<value>1</value>
									</keyframe>
									<keyframe>
										<when>21402</when>
										<value>0</value>
									</keyframe>
									<keyframe>
										<when>21647</when>
										<value>0</value>
									</keyframe>
									<keyframe>
										<when>21749</when>
										<value>1</value>
									</keyframe>
								</parameter>
							</effect>
						</filter>
							<marker>
								<comment></comment>
								<name></name>
								<in>8498</in>
								<out>-1</out>
							</marker>
						<link>
							<linkclipref>clipitem-696</linkclipref>
							<mediatype>audio</mediatype>
							<trackindex>15</trackindex>
							<clipindex>49</clipindex>
							<groupindex>1</groupindex>
						</link>
						<link>
							<linkclipref>clipitem-800</linkclipref>
							<mediatype>audio</mediatype>
							<trackindex>16</trackindex>
							<clipindex>49</clipindex>
							<groupindex>1</groupindex>
						</link>
						<logginginfo>
							<description></description>
							<scene></scene>
							<shottake></shottake>
							<lognote></lognote>
							<good></good>
							<originalvideofilename></originalvideofilename>
							<originalaudiofilename></originalaudiofilename>
						</logginginfo>
						<colorinfo>
							<lut></lut>
							<lut1></lut1>
							<asc_sop></asc_sop>
							<asc_sat></asc_sat>
							<lut2></lut2>
						</colorinfo>
						<labels>
							<label2>Green</label2>
						</labels>
					</clipitem>
					<clipitem id="clipitem-801" premiereChannelType="stereo">
						<masterclipid>masterclip-96</masterclipid>
						<name>Kate_ZOOM0001.WAV</name>
						<enabled>TRUE</enabled>
						<duration>81662</duration>
						<rate>
							<timebase>60</timebase>
							<ntsc>FALSE</ntsc>
						</rate>
						<start>14043</start>
						<end>14766</end>
						<in>21632</in>
						<out>22355</out>
						<pproTicksIn>91581235200000</pproTicksIn>
						<pproTicksOut>94642128000000</pproTicksOut>
						<file id="file-96"/>
						<sourcetrack>
							<mediatype>audio</mediatype>
							<trackindex>2</trackindex>
						</sourcetrack>
						<filter>
							<effect>
								<name>Audio Levels</name>
								<effectid>audiolevels</effectid>
								<effectcategory>audiolevels</effectcategory>
								<effecttype>audiolevels</effecttype>
								<mediatype>audio</mediatype>
								<pproBypass>false</pproBypass>
								<parameter authoringApp="PremierePro">
									<parameterid>level</parameterid>
									<name>Level</name>
									<valuemin>0</valuemin>
									<valuemax>3.98109</valuemax>
									<value>0</value>
									<keyframe>
										<when>17117</when>
										<value>0</value>
									</keyframe>
									<keyframe>
										<when>17147</when>
										<value>1</value>
									</keyframe>
									<keyframe>
										<when>17243</when>
										<value>1</value>
									</keyframe>
									<keyframe>
										<when>17256</when>
										<value>0</value>
									</keyframe>
									<keyframe>
										<when>17367</when>
										<value>0</value>
									</keyframe>
									<keyframe>
										<when>17377</when>
										<value>0</value>
									</keyframe>
									<keyframe>
										<when>17918</when>
										<value>0</value>
									</keyframe>
									<keyframe>
										<when>17950</when>
										<value>0</value>
									</keyframe>
									<keyframe>
										<when>19157</when>
										<value>0</value>
									</keyframe>
									<keyframe>
										<when>19183</when>
										<value>0</value>
									</keyframe>
									<keyframe>
										<when>19590</when>
										<value>0</value>
									</keyframe>
									<keyframe>
										<when>19656</when>
										<value>1</value>
									</keyframe>
									<keyframe>
										<when>20245</when>
										<value>1</value>
									</keyframe>
									<keyframe>
										<when>20275</when>
										<value>0</value>
									</keyframe>
									<keyframe>
										<when>20433</when>
										<value>0</value>
									</keyframe>
									<keyframe>
										<when>20463</when>
										<value>1</value>
									</keyframe>
									<keyframe>
										<when>21357</when>
										<value>1</value>
									</keyframe>
									<keyframe>
										<when>21402</when>
										<value>0</value>
									</keyframe>
									<keyframe>
										<when>21647</when>
										<value>0</value>
									</keyframe>
									<keyframe>
										<when>21749</when>
										<value>1</value>
									</keyframe>
									<keyframe>
										<when>21897</when>
										<value>1</value>
									</keyframe>
									<keyframe>
										<when>21904</when>
										<value>0</value>
									</keyframe>
									<keyframe>
										<when>21992</when>
										<value>0</value>
									</keyframe>
									<keyframe>
										<when>22009</when>
										<value>1</value>
									</keyframe>
									<keyframe>
										<when>22180</when>
										<value>1</value>
									</keyframe>
									<keyframe>
										<when>22257</when>
										<value>0</value>
									</keyframe>
									<keyframe>
										<when>22427</when>
										<value>0</value>
									</keyframe>
									<keyframe>
										<when>22478</when>
										<value>1</value>
									</keyframe>
								</parameter>
							</effect>
						</filter>
							<marker>
								<comment></comment>
								<name></name>
								<in>8498</in>
								<out>-1</out>
							</marker>
						<link>
							<linkclipref>clipitem-697</linkclipref>
							<mediatype>audio</mediatype>
							<trackindex>15</trackindex>
							<clipindex>50</clipindex>
							<groupindex>1</groupindex>
						</link>
						<link>
							<linkclipref>clipitem-801</linkclipref>
							<mediatype>audio</mediatype>
							<trackindex>16</trackindex>
							<clipindex>50</clipindex>
							<groupindex>1</groupindex>
						</link>
						<logginginfo>
							<description></description>
							<scene></scene>
							<shottake></shottake>
							<lognote></lognote>
							<good></good>
							<originalvideofilename></originalvideofilename>
							<originalaudiofilename></originalaudiofilename>
						</logginginfo>
						<colorinfo>
							<lut></lut>
							<lut1></lut1>
							<asc_sop></asc_sop>
							<asc_sat></asc_sat>
							<lut2></lut2>
						</colorinfo>
						<labels>
							<label2>Green</label2>
						</labels>
					</clipitem>
					<transitionitem>
						<start>18054</start>
						<end>18056</end>
						<alignment>start-black</alignment>
						<cutPointTicks>0</cutPointTicks>
						<rate>
							<timebase>60</timebase>
							<ntsc>FALSE</ntsc>
						</rate>
						<effect>
							<name>Cross Fade (+3dB)</name>
							<effectid>KGAudioTransCrossFade3dB</effectid>
							<effecttype>transition</effecttype>
							<mediatype>audio</mediatype>
							<wipecode>0</wipecode>
							<wipeaccuracy>100</wipeaccuracy>
							<startratio>0</startratio>
							<endratio>1</endratio>
							<reverse>FALSE</reverse>
						</effect>
					</transitionitem>
					<clipitem id="clipitem-802" premiereChannelType="stereo">
						<masterclipid>masterclip-96</masterclipid>
						<name>Kate_ZOOM0001.WAV</name>
						<enabled>TRUE</enabled>
						<duration>81662</duration>
						<rate>
							<timebase>60</timebase>
							<ntsc>FALSE</ntsc>
						</rate>
						<start>-1</start>
						<end>-1</end>
						<in>25497</in>
						<out>25642</out>
						<pproTicksIn>107944099200000</pproTicksIn>
						<pproTicksOut>108557971200000</pproTicksOut>
						<file id="file-96"/>
						<sourcetrack>
							<mediatype>audio</mediatype>
							<trackindex>2</trackindex>
						</sourcetrack>
						<filter>
							<effect>
								<name>Audio Levels</name>
								<effectid>audiolevels</effectid>
								<effectcategory>audiolevels</effectcategory>
								<effecttype>audiolevels</effecttype>
								<mediatype>audio</mediatype>
								<pproBypass>false</pproBypass>
								<parameter authoringApp="PremierePro">
									<parameterid>level</parameterid>
									<name>Level</name>
									<valuemin>0</valuemin>
									<valuemax>3.98109</valuemax>
									<value>0</value>
									<keyframe>
										<when>17117</when>
										<value>0</value>
									</keyframe>
									<keyframe>
										<when>17147</when>
										<value>1</value>
									</keyframe>
									<keyframe>
										<when>17243</when>
										<value>1</value>
									</keyframe>
									<keyframe>
										<when>17256</when>
										<value>0</value>
									</keyframe>
									<keyframe>
										<when>17367</when>
										<value>0</value>
									</keyframe>
									<keyframe>
										<when>17377</when>
										<value>0</value>
									</keyframe>
									<keyframe>
										<when>17918</when>
										<value>0</value>
									</keyframe>
									<keyframe>
										<when>17950</when>
										<value>0</value>
									</keyframe>
									<keyframe>
										<when>19157</when>
										<value>0</value>
									</keyframe>
									<keyframe>
										<when>19183</when>
										<value>0</value>
									</keyframe>
									<keyframe>
										<when>19590</when>
										<value>0</value>
									</keyframe>
									<keyframe>
										<when>19656</when>
										<value>1</value>
									</keyframe>
									<keyframe>
										<when>20245</when>
										<value>1</value>
									</keyframe>
									<keyframe>
										<when>20275</when>
										<value>0</value>
									</keyframe>
									<keyframe>
										<when>20433</when>
										<value>0</value>
									</keyframe>
									<keyframe>
										<when>20463</when>
										<value>1</value>
									</keyframe>
									<keyframe>
										<when>21357</when>
										<value>1</value>
									</keyframe>
									<keyframe>
										<when>21402</when>
										<value>0</value>
									</keyframe>
									<keyframe>
										<when>21647</when>
										<value>0</value>
									</keyframe>
									<keyframe>
										<when>21749</when>
										<value>1</value>
									</keyframe>
									<keyframe>
										<when>22205</when>
										<value>1</value>
									</keyframe>
									<keyframe>
										<when>22257</when>
										<value>0</value>
									</keyframe>
									<keyframe>
										<when>22427</when>
										<value>0</value>
									</keyframe>
									<keyframe>
										<when>22478</when>
										<value>1</value>
									</keyframe>
									<keyframe>
										<when>23004</when>
										<value>0</value>
									</keyframe>
									<keyframe>
										<when>23046</when>
										<value>1</value>
									</keyframe>
									<keyframe>
										<when>25497</when>
										<value>0</value>
									</keyframe>
									<keyframe>
										<when>25548</when>
										<value>1</value>
									</keyframe>
								</parameter>
							</effect>
						</filter>
							<marker>
								<comment></comment>
								<name></name>
								<in>8498</in>
								<out>-1</out>
							</marker>
						<link>
							<linkclipref>clipitem-698</linkclipref>
							<mediatype>audio</mediatype>
							<trackindex>15</trackindex>
							<clipindex>52</clipindex>
							<groupindex>1</groupindex>
						</link>
						<link>
							<linkclipref>clipitem-802</linkclipref>
							<mediatype>audio</mediatype>
							<trackindex>16</trackindex>
							<clipindex>52</clipindex>
							<groupindex>1</groupindex>
						</link>
						<logginginfo>
							<description></description>
							<scene></scene>
							<shottake></shottake>
							<lognote></lognote>
							<good></good>
							<originalvideofilename></originalvideofilename>
							<originalaudiofilename></originalaudiofilename>
						</logginginfo>
						<colorinfo>
							<lut></lut>
							<lut1></lut1>
							<asc_sop></asc_sop>
							<asc_sat></asc_sat>
							<lut2></lut2>
						</colorinfo>
						<labels>
							<label2>Green</label2>
						</labels>
					</clipitem>
					<transitionitem>
						<start>18197</start>
						<end>18199</end>
						<alignment>center</alignment>
						<cutPointTicks>4233600000</cutPointTicks>
						<rate>
							<timebase>60</timebase>
							<ntsc>FALSE</ntsc>
						</rate>
						<effect>
							<name>Cross Fade (+3dB)</name>
							<effectid>KGAudioTransCrossFade3dB</effectid>
							<effecttype>transition</effecttype>
							<mediatype>audio</mediatype>
							<wipecode>0</wipecode>
							<wipeaccuracy>100</wipeaccuracy>
							<startratio>0</startratio>
							<endratio>1</endratio>
							<reverse>FALSE</reverse>
						</effect>
					</transitionitem>
					<clipitem id="clipitem-803" premiereChannelType="stereo">
						<masterclipid>masterclip-96</masterclipid>
						<name>Kate_ZOOM0001.WAV</name>
						<enabled>TRUE</enabled>
						<duration>81662</duration>
						<rate>
							<timebase>60</timebase>
							<ntsc>FALSE</ntsc>
						</rate>
						<start>-1</start>
						<end>-1</end>
						<in>25657</in>
						<out>25872</out>
						<pproTicksIn>108621475200000</pproTicksIn>
						<pproTicksOut>109531699200000</pproTicksOut>
						<file id="file-96"/>
						<sourcetrack>
							<mediatype>audio</mediatype>
							<trackindex>2</trackindex>
						</sourcetrack>
						<filter>
							<effect>
								<name>Audio Levels</name>
								<effectid>audiolevels</effectid>
								<effectcategory>audiolevels</effectcategory>
								<effecttype>audiolevels</effecttype>
								<mediatype>audio</mediatype>
								<pproBypass>false</pproBypass>
								<parameter authoringApp="PremierePro">
									<parameterid>level</parameterid>
									<name>Level</name>
									<valuemin>0</valuemin>
									<valuemax>3.98109</valuemax>
									<value>0</value>
									<keyframe>
										<when>17117</when>
										<value>0</value>
									</keyframe>
									<keyframe>
										<when>17147</when>
										<value>1</value>
									</keyframe>
									<keyframe>
										<when>17243</when>
										<value>1</value>
									</keyframe>
									<keyframe>
										<when>17256</when>
										<value>0</value>
									</keyframe>
									<keyframe>
										<when>17367</when>
										<value>0</value>
									</keyframe>
									<keyframe>
										<when>17377</when>
										<value>0</value>
									</keyframe>
									<keyframe>
										<when>17918</when>
										<value>0</value>
									</keyframe>
									<keyframe>
										<when>17950</when>
										<value>0</value>
									</keyframe>
									<keyframe>
										<when>19157</when>
										<value>0</value>
									</keyframe>
									<keyframe>
										<when>19183</when>
										<value>0</value>
									</keyframe>
									<keyframe>
										<when>19590</when>
										<value>0</value>
									</keyframe>
									<keyframe>
										<when>19656</when>
										<value>1</value>
									</keyframe>
									<keyframe>
										<when>20245</when>
										<value>1</value>
									</keyframe>
									<keyframe>
										<when>20275</when>
										<value>0</value>
									</keyframe>
									<keyframe>
										<when>20433</when>
										<value>0</value>
									</keyframe>
									<keyframe>
										<when>20463</when>
										<value>1</value>
									</keyframe>
									<keyframe>
										<when>21357</when>
										<value>1</value>
									</keyframe>
									<keyframe>
										<when>21402</when>
										<value>0</value>
									</keyframe>
									<keyframe>
										<when>21647</when>
										<value>0</value>
									</keyframe>
									<keyframe>
										<when>21749</when>
										<value>1</value>
									</keyframe>
									<keyframe>
										<when>22205</when>
										<value>1</value>
									</keyframe>
									<keyframe>
										<when>22257</when>
										<value>0</value>
									</keyframe>
									<keyframe>
										<when>22427</when>
										<value>0</value>
									</keyframe>
									<keyframe>
										<when>22478</when>
										<value>1</value>
									</keyframe>
									<keyframe>
										<when>23004</when>
										<value>0</value>
									</keyframe>
									<keyframe>
										<when>23046</when>
										<value>1</value>
									</keyframe>
									<keyframe>
										<when>25497</when>
										<value>0</value>
									</keyframe>
									<keyframe>
										<when>25548</when>
										<value>1</value>
									</keyframe>
								</parameter>
							</effect>
						</filter>
							<marker>
								<comment></comment>
								<name></name>
								<in>8498</in>
								<out>-1</out>
							</marker>
						<link>
							<linkclipref>clipitem-699</linkclipref>
							<mediatype>audio</mediatype>
							<trackindex>15</trackindex>
							<clipindex>54</clipindex>
							<groupindex>1</groupindex>
						</link>
						<link>
							<linkclipref>clipitem-803</linkclipref>
							<mediatype>audio</mediatype>
							<trackindex>16</trackindex>
							<clipindex>54</clipindex>
							<groupindex>1</groupindex>
						</link>
						<logginginfo>
							<description></description>
							<scene></scene>
							<shottake></shottake>
							<lognote></lognote>
							<good></good>
							<originalvideofilename></originalvideofilename>
							<originalaudiofilename></originalaudiofilename>
						</logginginfo>
						<colorinfo>
							<lut></lut>
							<lut1></lut1>
							<asc_sop></asc_sop>
							<asc_sat></asc_sat>
							<lut2></lut2>
						</colorinfo>
						<labels>
							<label2>Green</label2>
						</labels>
					</clipitem>
					<transitionitem>
						<start>18410</start>
						<end>18412</end>
						<alignment>center</alignment>
						<cutPointTicks>4233600000</cutPointTicks>
						<rate>
							<timebase>60</timebase>
							<ntsc>FALSE</ntsc>
						</rate>
						<effect>
							<name>Cross Fade (+3dB)</name>
							<effectid>KGAudioTransCrossFade3dB</effectid>
							<effecttype>transition</effecttype>
							<mediatype>audio</mediatype>
							<wipecode>0</wipecode>
							<wipeaccuracy>100</wipeaccuracy>
							<startratio>0</startratio>
							<endratio>1</endratio>
							<reverse>FALSE</reverse>
						</effect>
					</transitionitem>
					<clipitem id="clipitem-804" premiereChannelType="stereo">
						<masterclipid>masterclip-96</masterclipid>
						<name>Kate_ZOOM0001.WAV</name>
						<enabled>TRUE</enabled>
						<duration>81662</duration>
						<rate>
							<timebase>60</timebase>
							<ntsc>FALSE</ntsc>
						</rate>
						<start>-1</start>
						<end>-1</end>
						<in>25899</in>
						<out>26071</out>
						<pproTicksIn>109646006400000</pproTicksIn>
						<pproTicksOut>110374185600000</pproTicksOut>
						<file id="file-96"/>
						<sourcetrack>
							<mediatype>audio</mediatype>
							<trackindex>2</trackindex>
						</sourcetrack>
						<filter>
							<effect>
								<name>Audio Levels</name>
								<effectid>audiolevels</effectid>
								<effectcategory>audiolevels</effectcategory>
								<effecttype>audiolevels</effecttype>
								<mediatype>audio</mediatype>
								<pproBypass>false</pproBypass>
								<parameter authoringApp="PremierePro">
									<parameterid>level</parameterid>
									<name>Level</name>
									<valuemin>0</valuemin>
									<valuemax>3.98109</valuemax>
									<value>0</value>
									<keyframe>
										<when>17117</when>
										<value>0</value>
									</keyframe>
									<keyframe>
										<when>17147</when>
										<value>1</value>
									</keyframe>
									<keyframe>
										<when>17243</when>
										<value>1</value>
									</keyframe>
									<keyframe>
										<when>17256</when>
										<value>0</value>
									</keyframe>
									<keyframe>
										<when>17367</when>
										<value>0</value>
									</keyframe>
									<keyframe>
										<when>17377</when>
										<value>0</value>
									</keyframe>
									<keyframe>
										<when>17918</when>
										<value>0</value>
									</keyframe>
									<keyframe>
										<when>17950</when>
										<value>0</value>
									</keyframe>
									<keyframe>
										<when>19157</when>
										<value>0</value>
									</keyframe>
									<keyframe>
										<when>19183</when>
										<value>0</value>
									</keyframe>
									<keyframe>
										<when>19590</when>
										<value>0</value>
									</keyframe>
									<keyframe>
										<when>19656</when>
										<value>1</value>
									</keyframe>
									<keyframe>
										<when>20245</when>
										<value>1</value>
									</keyframe>
									<keyframe>
										<when>20275</when>
										<value>0</value>
									</keyframe>
									<keyframe>
										<when>20433</when>
										<value>0</value>
									</keyframe>
									<keyframe>
										<when>20463</when>
										<value>1</value>
									</keyframe>
									<keyframe>
										<when>21357</when>
										<value>1</value>
									</keyframe>
									<keyframe>
										<when>21402</when>
										<value>0</value>
									</keyframe>
									<keyframe>
										<when>21647</when>
										<value>0</value>
									</keyframe>
									<keyframe>
										<when>21749</when>
										<value>1</value>
									</keyframe>
									<keyframe>
										<when>22205</when>
										<value>1</value>
									</keyframe>
									<keyframe>
										<when>22257</when>
										<value>0</value>
									</keyframe>
									<keyframe>
										<when>22427</when>
										<value>0</value>
									</keyframe>
									<keyframe>
										<when>22478</when>
										<value>1</value>
									</keyframe>
									<keyframe>
										<when>23004</when>
										<value>0</value>
									</keyframe>
									<keyframe>
										<when>23046</when>
										<value>1</value>
									</keyframe>
									<keyframe>
										<when>25497</when>
										<value>0</value>
									</keyframe>
									<keyframe>
										<when>25548</when>
										<value>1</value>
									</keyframe>
									<keyframe>
										<when>26028</when>
										<value>1</value>
									</keyframe>
									<keyframe>
										<when>26071</when>
										<value>0</value>
									</keyframe>
								</parameter>
							</effect>
						</filter>
							<marker>
								<comment></comment>
								<name></name>
								<in>8498</in>
								<out>-1</out>
							</marker>
						<link>
							<linkclipref>clipitem-700</linkclipref>
							<mediatype>audio</mediatype>
							<trackindex>15</trackindex>
							<clipindex>56</clipindex>
							<groupindex>1</groupindex>
						</link>
						<link>
							<linkclipref>clipitem-804</linkclipref>
							<mediatype>audio</mediatype>
							<trackindex>16</trackindex>
							<clipindex>56</clipindex>
							<groupindex>1</groupindex>
						</link>
						<logginginfo>
							<description></description>
							<scene></scene>
							<shottake></shottake>
							<lognote></lognote>
							<good></good>
							<originalvideofilename></originalvideofilename>
							<originalaudiofilename></originalaudiofilename>
						</logginginfo>
						<colorinfo>
							<lut></lut>
							<lut1></lut1>
							<asc_sop></asc_sop>
							<asc_sat></asc_sat>
							<lut2></lut2>
						</colorinfo>
						<labels>
							<label2>Green</label2>
						</labels>
					</clipitem>
					<transitionitem>
						<start>18580</start>
						<end>18582</end>
						<alignment>end-black</alignment>
						<cutPointTicks>8467200000</cutPointTicks>
						<rate>
							<timebase>60</timebase>
							<ntsc>FALSE</ntsc>
						</rate>
						<effect>
							<name>Cross Fade (+3dB)</name>
							<effectid>KGAudioTransCrossFade3dB</effectid>
							<effecttype>transition</effecttype>
							<mediatype>audio</mediatype>
							<wipecode>0</wipecode>
							<wipeaccuracy>100</wipeaccuracy>
							<startratio>0</startratio>
							<endratio>1</endratio>
							<reverse>FALSE</reverse>
						</effect>
					</transitionitem>
					<transitionitem>
						<start>19469</start>
						<end>19471</end>
						<alignment>start-black</alignment>
						<cutPointTicks>0</cutPointTicks>
						<rate>
							<timebase>60</timebase>
							<ntsc>FALSE</ntsc>
						</rate>
						<effect>
							<name>Cross Fade (+3dB)</name>
							<effectid>KGAudioTransCrossFade3dB</effectid>
							<effecttype>transition</effecttype>
							<mediatype>audio</mediatype>
							<wipecode>0</wipecode>
							<wipeaccuracy>100</wipeaccuracy>
							<startratio>0</startratio>
							<endratio>1</endratio>
							<reverse>FALSE</reverse>
						</effect>
					</transitionitem>
					<clipitem id="clipitem-805" premiereChannelType="stereo">
						<masterclipid>masterclip-96</masterclipid>
						<name>Kate_ZOOM0001.WAV</name>
						<enabled>TRUE</enabled>
						<duration>81662</duration>
						<rate>
							<timebase>60</timebase>
							<ntsc>FALSE</ntsc>
						</rate>
						<start>-1</start>
						<end>-1</end>
						<in>27176</in>
						<out>27229</out>
						<pproTicksIn>115052313600000</pproTicksIn>
						<pproTicksOut>115276694400000</pproTicksOut>
						<file id="file-96"/>
						<sourcetrack>
							<mediatype>audio</mediatype>
							<trackindex>2</trackindex>
						</sourcetrack>
						<filter>
							<effect>
								<name>Audio Levels</name>
								<effectid>audiolevels</effectid>
								<effectcategory>audiolevels</effectcategory>
								<effecttype>audiolevels</effecttype>
								<mediatype>audio</mediatype>
								<pproBypass>false</pproBypass>
								<parameter authoringApp="PremierePro">
									<parameterid>level</parameterid>
									<name>Level</name>
									<valuemin>0</valuemin>
									<valuemax>3.98109</valuemax>
									<value>0</value>
									<keyframe>
										<when>17117</when>
										<value>0</value>
									</keyframe>
									<keyframe>
										<when>17147</when>
										<value>1</value>
									</keyframe>
									<keyframe>
										<when>17243</when>
										<value>1</value>
									</keyframe>
									<keyframe>
										<when>17256</when>
										<value>0</value>
									</keyframe>
									<keyframe>
										<when>17367</when>
										<value>0</value>
									</keyframe>
									<keyframe>
										<when>17377</when>
										<value>0</value>
									</keyframe>
									<keyframe>
										<when>17918</when>
										<value>0</value>
									</keyframe>
									<keyframe>
										<when>17950</when>
										<value>0</value>
									</keyframe>
									<keyframe>
										<when>19157</when>
										<value>0</value>
									</keyframe>
									<keyframe>
										<when>19183</when>
										<value>0</value>
									</keyframe>
									<keyframe>
										<when>19590</when>
										<value>0</value>
									</keyframe>
									<keyframe>
										<when>19656</when>
										<value>1</value>
									</keyframe>
									<keyframe>
										<when>20245</when>
										<value>1</value>
									</keyframe>
									<keyframe>
										<when>20275</when>
										<value>0</value>
									</keyframe>
									<keyframe>
										<when>20433</when>
										<value>0</value>
									</keyframe>
									<keyframe>
										<when>20463</when>
										<value>1</value>
									</keyframe>
									<keyframe>
										<when>21357</when>
										<value>1</value>
									</keyframe>
									<keyframe>
										<when>21402</when>
										<value>0</value>
									</keyframe>
									<keyframe>
										<when>21647</when>
										<value>0</value>
									</keyframe>
									<keyframe>
										<when>21749</when>
										<value>1</value>
									</keyframe>
									<keyframe>
										<when>22205</when>
										<value>1</value>
									</keyframe>
									<keyframe>
										<when>22257</when>
										<value>0</value>
									</keyframe>
									<keyframe>
										<when>22427</when>
										<value>0</value>
									</keyframe>
									<keyframe>
										<when>22478</when>
										<value>1</value>
									</keyframe>
									<keyframe>
										<when>23004</when>
										<value>0</value>
									</keyframe>
									<keyframe>
										<when>23046</when>
										<value>1</value>
									</keyframe>
									<keyframe>
										<when>25497</when>
										<value>0</value>
									</keyframe>
									<keyframe>
										<when>25548</when>
										<value>1</value>
									</keyframe>
									<keyframe>
										<when>26934</when>
										<value>0</value>
									</keyframe>
									<keyframe>
										<when>26994</when>
										<value>1</value>
									</keyframe>
									<keyframe>
										<when>28229</when>
										<value>1</value>
									</keyframe>
									<keyframe>
										<when>28310</when>
										<value>0</value>
									</keyframe>
								</parameter>
							</effect>
						</filter>
							<marker>
								<comment></comment>
								<name></name>
								<in>8498</in>
								<out>-1</out>
							</marker>
						<link>
							<linkclipref>clipitem-701</linkclipref>
							<mediatype>audio</mediatype>
							<trackindex>15</trackindex>
							<clipindex>59</clipindex>
							<groupindex>1</groupindex>
						</link>
						<link>
							<linkclipref>clipitem-805</linkclipref>
							<mediatype>audio</mediatype>
							<trackindex>16</trackindex>
							<clipindex>59</clipindex>
							<groupindex>1</groupindex>
						</link>
						<logginginfo>
							<description></description>
							<scene></scene>
							<shottake></shottake>
							<lognote></lognote>
							<good></good>
							<originalvideofilename></originalvideofilename>
							<originalaudiofilename></originalaudiofilename>
						</logginginfo>
						<colorinfo>
							<lut></lut>
							<lut1></lut1>
							<asc_sop></asc_sop>
							<asc_sat></asc_sat>
							<lut2></lut2>
						</colorinfo>
						<labels>
							<label2>Violet</label2>
						</labels>
					</clipitem>
					<transitionitem>
						<start>19520</start>
						<end>19522</end>
						<alignment>center</alignment>
						<cutPointTicks>4233600000</cutPointTicks>
						<rate>
							<timebase>60</timebase>
							<ntsc>FALSE</ntsc>
						</rate>
						<effect>
							<name>Cross Fade (+3dB)</name>
							<effectid>KGAudioTransCrossFade3dB</effectid>
							<effecttype>transition</effecttype>
							<mediatype>audio</mediatype>
							<wipecode>0</wipecode>
							<wipeaccuracy>100</wipeaccuracy>
							<startratio>0</startratio>
							<endratio>1</endratio>
							<reverse>FALSE</reverse>
						</effect>
					</transitionitem>
					<clipitem id="clipitem-806" premiereChannelType="stereo">
						<masterclipid>masterclip-96</masterclipid>
						<name>Kate_ZOOM0001.WAV</name>
						<enabled>TRUE</enabled>
						<duration>81662</duration>
						<rate>
							<timebase>60</timebase>
							<ntsc>FALSE</ntsc>
						</rate>
						<start>-1</start>
						<end>-1</end>
						<in>27262</in>
						<out>27323</out>
						<pproTicksIn>115416403200000</pproTicksIn>
						<pproTicksOut>115674652800000</pproTicksOut>
						<file id="file-96"/>
						<sourcetrack>
							<mediatype>audio</mediatype>
							<trackindex>2</trackindex>
						</sourcetrack>
						<filter>
							<effect>
								<name>Audio Levels</name>
								<effectid>audiolevels</effectid>
								<effectcategory>audiolevels</effectcategory>
								<effecttype>audiolevels</effecttype>
								<mediatype>audio</mediatype>
								<pproBypass>false</pproBypass>
								<parameter authoringApp="PremierePro">
									<parameterid>level</parameterid>
									<name>Level</name>
									<valuemin>0</valuemin>
									<valuemax>3.98109</valuemax>
									<value>0</value>
									<keyframe>
										<when>17117</when>
										<value>0</value>
									</keyframe>
									<keyframe>
										<when>17147</when>
										<value>1</value>
									</keyframe>
									<keyframe>
										<when>17243</when>
										<value>1</value>
									</keyframe>
									<keyframe>
										<when>17256</when>
										<value>0</value>
									</keyframe>
									<keyframe>
										<when>17367</when>
										<value>0</value>
									</keyframe>
									<keyframe>
										<when>17377</when>
										<value>0</value>
									</keyframe>
									<keyframe>
										<when>17918</when>
										<value>0</value>
									</keyframe>
									<keyframe>
										<when>17950</when>
										<value>0</value>
									</keyframe>
									<keyframe>
										<when>19157</when>
										<value>0</value>
									</keyframe>
									<keyframe>
										<when>19183</when>
										<value>0</value>
									</keyframe>
									<keyframe>
										<when>19590</when>
										<value>0</value>
									</keyframe>
									<keyframe>
										<when>19656</when>
										<value>1</value>
									</keyframe>
									<keyframe>
										<when>20245</when>
										<value>1</value>
									</keyframe>
									<keyframe>
										<when>20275</when>
										<value>0</value>
									</keyframe>
									<keyframe>
										<when>20433</when>
										<value>0</value>
									</keyframe>
									<keyframe>
										<when>20463</when>
										<value>1</value>
									</keyframe>
									<keyframe>
										<when>21357</when>
										<value>1</value>
									</keyframe>
									<keyframe>
										<when>21402</when>
										<value>0</value>
									</keyframe>
									<keyframe>
										<when>21647</when>
										<value>0</value>
									</keyframe>
									<keyframe>
										<when>21749</when>
										<value>1</value>
									</keyframe>
									<keyframe>
										<when>22205</when>
										<value>1</value>
									</keyframe>
									<keyframe>
										<when>22257</when>
										<value>0</value>
									</keyframe>
									<keyframe>
										<when>22427</when>
										<value>0</value>
									</keyframe>
									<keyframe>
										<when>22478</when>
										<value>1</value>
									</keyframe>
									<keyframe>
										<when>23004</when>
										<value>0</value>
									</keyframe>
									<keyframe>
										<when>23046</when>
										<value>1</value>
									</keyframe>
									<keyframe>
										<when>25497</when>
										<value>0</value>
									</keyframe>
									<keyframe>
										<when>25548</when>
										<value>1</value>
									</keyframe>
									<keyframe>
										<when>26934</when>
										<value>0</value>
									</keyframe>
									<keyframe>
										<when>26994</when>
										<value>1</value>
									</keyframe>
									<keyframe>
										<when>27309</when>
										<value>1</value>
									</keyframe>
									<keyframe>
										<when>27323</when>
										<value>0</value>
									</keyframe>
									<keyframe>
										<when>28229</when>
										<value>1</value>
									</keyframe>
									<keyframe>
										<when>28310</when>
										<value>0</value>
									</keyframe>
								</parameter>
							</effect>
						</filter>
							<marker>
								<comment></comment>
								<name></name>
								<in>8498</in>
								<out>-1</out>
							</marker>
						<link>
							<linkclipref>clipitem-702</linkclipref>
							<mediatype>audio</mediatype>
							<trackindex>15</trackindex>
							<clipindex>61</clipindex>
							<groupindex>1</groupindex>
						</link>
						<link>
							<linkclipref>clipitem-806</linkclipref>
							<mediatype>audio</mediatype>
							<trackindex>16</trackindex>
							<clipindex>61</clipindex>
							<groupindex>1</groupindex>
						</link>
						<logginginfo>
							<description></description>
							<scene></scene>
							<shottake></shottake>
							<lognote></lognote>
							<good></good>
							<originalvideofilename></originalvideofilename>
							<originalaudiofilename></originalaudiofilename>
						</logginginfo>
						<colorinfo>
							<lut></lut>
							<lut1></lut1>
							<asc_sop></asc_sop>
							<asc_sat></asc_sat>
							<lut2></lut2>
						</colorinfo>
						<labels>
							<label2>Violet</label2>
						</labels>
					</clipitem>
					<transitionitem>
						<start>19579</start>
						<end>19581</end>
						<alignment>end-black</alignment>
						<cutPointTicks>8467200000</cutPointTicks>
						<rate>
							<timebase>60</timebase>
							<ntsc>FALSE</ntsc>
						</rate>
						<effect>
							<name>Cross Fade (+3dB)</name>
							<effectid>KGAudioTransCrossFade3dB</effectid>
							<effecttype>transition</effecttype>
							<mediatype>audio</mediatype>
							<wipecode>0</wipecode>
							<wipeaccuracy>100</wipeaccuracy>
							<startratio>0</startratio>
							<endratio>1</endratio>
							<reverse>FALSE</reverse>
						</effect>
					</transitionitem>
					<transitionitem>
						<start>19614</start>
						<end>19616</end>
						<alignment>start-black</alignment>
						<cutPointTicks>0</cutPointTicks>
						<rate>
							<timebase>60</timebase>
							<ntsc>FALSE</ntsc>
						</rate>
						<effect>
							<name>Cross Fade (+3dB)</name>
							<effectid>KGAudioTransCrossFade3dB</effectid>
							<effecttype>transition</effecttype>
							<mediatype>audio</mediatype>
							<wipecode>0</wipecode>
							<wipeaccuracy>100</wipeaccuracy>
							<startratio>0</startratio>
							<endratio>1</endratio>
							<reverse>FALSE</reverse>
						</effect>
					</transitionitem>
					<clipitem id="clipitem-807" premiereChannelType="stereo">
						<masterclipid>masterclip-96</masterclipid>
						<name>Kate_ZOOM0001.WAV</name>
						<enabled>TRUE</enabled>
						<duration>81662</duration>
						<rate>
							<timebase>60</timebase>
							<ntsc>FALSE</ntsc>
						</rate>
						<start>-1</start>
						<end>19679</end>
						<in>27376</in>
						<out>27441</out>
						<pproTicksIn>115899033600000</pproTicksIn>
						<pproTicksOut>116174217600000</pproTicksOut>
						<file id="file-96"/>
						<sourcetrack>
							<mediatype>audio</mediatype>
							<trackindex>2</trackindex>
						</sourcetrack>
						<filter>
							<effect>
								<name>Audio Levels</name>
								<effectid>audiolevels</effectid>
								<effectcategory>audiolevels</effectcategory>
								<effecttype>audiolevels</effecttype>
								<mediatype>audio</mediatype>
								<pproBypass>false</pproBypass>
								<parameter authoringApp="PremierePro">
									<parameterid>level</parameterid>
									<name>Level</name>
									<valuemin>0</valuemin>
									<valuemax>3.98109</valuemax>
									<value>0</value>
									<keyframe>
										<when>17117</when>
										<value>0</value>
									</keyframe>
									<keyframe>
										<when>17147</when>
										<value>1</value>
									</keyframe>
									<keyframe>
										<when>17243</when>
										<value>1</value>
									</keyframe>
									<keyframe>
										<when>17256</when>
										<value>0</value>
									</keyframe>
									<keyframe>
										<when>17367</when>
										<value>0</value>
									</keyframe>
									<keyframe>
										<when>17377</when>
										<value>0</value>
									</keyframe>
									<keyframe>
										<when>17918</when>
										<value>0</value>
									</keyframe>
									<keyframe>
										<when>17950</when>
										<value>0</value>
									</keyframe>
									<keyframe>
										<when>19157</when>
										<value>0</value>
									</keyframe>
									<keyframe>
										<when>19183</when>
										<value>0</value>
									</keyframe>
									<keyframe>
										<when>19590</when>
										<value>0</value>
									</keyframe>
									<keyframe>
										<when>19656</when>
										<value>1</value>
									</keyframe>
									<keyframe>
										<when>20245</when>
										<value>1</value>
									</keyframe>
									<keyframe>
										<when>20275</when>
										<value>0</value>
									</keyframe>
									<keyframe>
										<when>20433</when>
										<value>0</value>
									</keyframe>
									<keyframe>
										<when>20463</when>
										<value>1</value>
									</keyframe>
									<keyframe>
										<when>21357</when>
										<value>1</value>
									</keyframe>
									<keyframe>
										<when>21402</when>
										<value>0</value>
									</keyframe>
									<keyframe>
										<when>21647</when>
										<value>0</value>
									</keyframe>
									<keyframe>
										<when>21749</when>
										<value>1</value>
									</keyframe>
									<keyframe>
										<when>22205</when>
										<value>1</value>
									</keyframe>
									<keyframe>
										<when>22257</when>
										<value>0</value>
									</keyframe>
									<keyframe>
										<when>22427</when>
										<value>0</value>
									</keyframe>
									<keyframe>
										<when>22478</when>
										<value>1</value>
									</keyframe>
									<keyframe>
										<when>23004</when>
										<value>0</value>
									</keyframe>
									<keyframe>
										<when>23046</when>
										<value>1</value>
									</keyframe>
									<keyframe>
										<when>25497</when>
										<value>0</value>
									</keyframe>
									<keyframe>
										<when>25548</when>
										<value>1</value>
									</keyframe>
									<keyframe>
										<when>26934</when>
										<value>0</value>
									</keyframe>
									<keyframe>
										<when>26994</when>
										<value>1</value>
									</keyframe>
									<keyframe>
										<when>27433</when>
										<value>1</value>
									</keyframe>
									<keyframe>
										<when>27441</when>
										<value>0</value>
									</keyframe>
									<keyframe>
										<when>28229</when>
										<value>1</value>
									</keyframe>
									<keyframe>
										<when>28310</when>
										<value>0</value>
									</keyframe>
								</parameter>
							</effect>
						</filter>
							<marker>
								<comment></comment>
								<name></name>
								<in>8498</in>
								<out>-1</out>
							</marker>
						<link>
							<linkclipref>clipitem-703</linkclipref>
							<mediatype>audio</mediatype>
							<trackindex>15</trackindex>
							<clipindex>64</clipindex>
							<groupindex>1</groupindex>
						</link>
						<link>
							<linkclipref>clipitem-807</linkclipref>
							<mediatype>audio</mediatype>
							<trackindex>16</trackindex>
							<clipindex>64</clipindex>
							<groupindex>1</groupindex>
						</link>
						<logginginfo>
							<description></description>
							<scene></scene>
							<shottake></shottake>
							<lognote></lognote>
							<good></good>
							<originalvideofilename></originalvideofilename>
							<originalaudiofilename></originalaudiofilename>
						</logginginfo>
						<colorinfo>
							<lut></lut>
							<lut1></lut1>
							<asc_sop></asc_sop>
							<asc_sat></asc_sat>
							<lut2></lut2>
						</colorinfo>
						<labels>
							<label2>Violet</label2>
						</labels>
					</clipitem>
					<transitionitem>
						<start>19735</start>
						<end>19737</end>
						<alignment>start-black</alignment>
						<cutPointTicks>0</cutPointTicks>
						<rate>
							<timebase>60</timebase>
							<ntsc>FALSE</ntsc>
						</rate>
						<effect>
							<name>Cross Fade (+3dB)</name>
							<effectid>KGAudioTransCrossFade3dB</effectid>
							<effecttype>transition</effecttype>
							<mediatype>audio</mediatype>
							<wipecode>0</wipecode>
							<wipeaccuracy>100</wipeaccuracy>
							<startratio>0</startratio>
							<endratio>1</endratio>
							<reverse>FALSE</reverse>
						</effect>
					</transitionitem>
					<clipitem id="clipitem-808" premiereChannelType="stereo">
						<masterclipid>masterclip-96</masterclipid>
						<name>Kate_ZOOM0001.WAV</name>
						<enabled>TRUE</enabled>
						<duration>81662</duration>
						<rate>
							<timebase>60</timebase>
							<ntsc>FALSE</ntsc>
						</rate>
						<start>-1</start>
						<end>-1</end>
						<in>28033</in>
						<out>28310</out>
						<pproTicksIn>118680508800000</pproTicksIn>
						<pproTicksOut>119853216000000</pproTicksOut>
						<file id="file-96"/>
						<sourcetrack>
							<mediatype>audio</mediatype>
							<trackindex>2</trackindex>
						</sourcetrack>
						<filter>
							<effect>
								<name>Audio Levels</name>
								<effectid>audiolevels</effectid>
								<effectcategory>audiolevels</effectcategory>
								<effecttype>audiolevels</effecttype>
								<mediatype>audio</mediatype>
								<pproBypass>false</pproBypass>
								<parameter authoringApp="PremierePro">
									<parameterid>level</parameterid>
									<name>Level</name>
									<valuemin>0</valuemin>
									<valuemax>3.98109</valuemax>
									<value>0</value>
									<keyframe>
										<when>17117</when>
										<value>0</value>
									</keyframe>
									<keyframe>
										<when>17147</when>
										<value>1</value>
									</keyframe>
									<keyframe>
										<when>17243</when>
										<value>1</value>
									</keyframe>
									<keyframe>
										<when>17256</when>
										<value>0</value>
									</keyframe>
									<keyframe>
										<when>17367</when>
										<value>0</value>
									</keyframe>
									<keyframe>
										<when>17377</when>
										<value>0</value>
									</keyframe>
									<keyframe>
										<when>17918</when>
										<value>0</value>
									</keyframe>
									<keyframe>
										<when>17950</when>
										<value>0</value>
									</keyframe>
									<keyframe>
										<when>19157</when>
										<value>0</value>
									</keyframe>
									<keyframe>
										<when>19183</when>
										<value>0</value>
									</keyframe>
									<keyframe>
										<when>19590</when>
										<value>0</value>
									</keyframe>
									<keyframe>
										<when>19656</when>
										<value>1</value>
									</keyframe>
									<keyframe>
										<when>20245</when>
										<value>1</value>
									</keyframe>
									<keyframe>
										<when>20275</when>
										<value>0</value>
									</keyframe>
									<keyframe>
										<when>20433</when>
										<value>0</value>
									</keyframe>
									<keyframe>
										<when>20463</when>
										<value>1</value>
									</keyframe>
									<keyframe>
										<when>21357</when>
										<value>1</value>
									</keyframe>
									<keyframe>
										<when>21402</when>
										<value>0</value>
									</keyframe>
									<keyframe>
										<when>21647</when>
										<value>0</value>
									</keyframe>
									<keyframe>
										<when>21749</when>
										<value>1</value>
									</keyframe>
									<keyframe>
										<when>22205</when>
										<value>1</value>
									</keyframe>
									<keyframe>
										<when>22257</when>
										<value>0</value>
									</keyframe>
									<keyframe>
										<when>22427</when>
										<value>0</value>
									</keyframe>
									<keyframe>
										<when>22478</when>
										<value>1</value>
									</keyframe>
									<keyframe>
										<when>23004</when>
										<value>0</value>
									</keyframe>
									<keyframe>
										<when>23046</when>
										<value>1</value>
									</keyframe>
									<keyframe>
										<when>25497</when>
										<value>0</value>
									</keyframe>
									<keyframe>
										<when>25548</when>
										<value>1</value>
									</keyframe>
									<keyframe>
										<when>26934</when>
										<value>0</value>
									</keyframe>
									<keyframe>
										<when>26994</when>
										<value>1</value>
									</keyframe>
									<keyframe>
										<when>28135</when>
										<value>1</value>
									</keyframe>
									<keyframe>
										<when>28179</when>
										<value>0.344681</value>
									</keyframe>
									<keyframe>
										<when>28229</when>
										<value>0.344681</value>
									</keyframe>
									<keyframe>
										<when>28310</when>
										<value>0</value>
									</keyframe>
								</parameter>
							</effect>
						</filter>
							<marker>
								<comment></comment>
								<name></name>
								<in>8498</in>
								<out>-1</out>
							</marker>
						<link>
							<linkclipref>clipitem-704</linkclipref>
							<mediatype>audio</mediatype>
							<trackindex>15</trackindex>
							<clipindex>66</clipindex>
							<groupindex>1</groupindex>
						</link>
						<link>
							<linkclipref>clipitem-808</linkclipref>
							<mediatype>audio</mediatype>
							<trackindex>16</trackindex>
							<clipindex>66</clipindex>
							<groupindex>1</groupindex>
						</link>
						<logginginfo>
							<description></description>
							<scene></scene>
							<shottake></shottake>
							<lognote></lognote>
							<good></good>
							<originalvideofilename></originalvideofilename>
							<originalaudiofilename></originalaudiofilename>
						</logginginfo>
						<colorinfo>
							<lut></lut>
							<lut1></lut1>
							<asc_sop></asc_sop>
							<asc_sat></asc_sat>
							<lut2></lut2>
						</colorinfo>
						<labels>
							<label2>Violet</label2>
						</labels>
					</clipitem>
					<transitionitem>
						<start>20010</start>
						<end>20012</end>
						<alignment>end-black</alignment>
						<cutPointTicks>8467200000</cutPointTicks>
						<rate>
							<timebase>60</timebase>
							<ntsc>FALSE</ntsc>
						</rate>
						<effect>
							<name>Cross Fade (+3dB)</name>
							<effectid>KGAudioTransCrossFade3dB</effectid>
							<effecttype>transition</effecttype>
							<mediatype>audio</mediatype>
							<wipecode>0</wipecode>
							<wipeaccuracy>100</wipeaccuracy>
							<startratio>0</startratio>
							<endratio>1</endratio>
							<reverse>FALSE</reverse>
						</effect>
					</transitionitem>
					<transitionitem>
						<start>20533</start>
						<end>20535</end>
						<alignment>start-black</alignment>
						<cutPointTicks>0</cutPointTicks>
						<rate>
							<timebase>60</timebase>
							<ntsc>FALSE</ntsc>
						</rate>
						<effect>
							<name>Cross Fade (+3dB)</name>
							<effectid>KGAudioTransCrossFade3dB</effectid>
							<effecttype>transition</effecttype>
							<mediatype>audio</mediatype>
							<wipecode>0</wipecode>
							<wipeaccuracy>100</wipeaccuracy>
							<startratio>0</startratio>
							<endratio>1</endratio>
							<reverse>FALSE</reverse>
						</effect>
					</transitionitem>
					<clipitem id="clipitem-809" premiereChannelType="stereo">
						<masterclipid>masterclip-95</masterclipid>
						<name>BrookePart2_ZOOM0001.WAV</name>
						<enabled>TRUE</enabled>
						<duration>136757</duration>
						<rate>
							<timebase>60</timebase>
							<ntsc>FALSE</ntsc>
						</rate>
						<start>-1</start>
						<end>-1</end>
						<in>54090</in>
						<out>54217</out>
						<pproTicksIn>228995424000000</pproTicksIn>
						<pproTicksOut>229533091200000</pproTicksOut>
						<file id="file-95"/>
						<sourcetrack>
							<mediatype>audio</mediatype>
							<trackindex>2</trackindex>
						</sourcetrack>
						<filter>
							<effect>
								<name>Gain</name>
								<effectid>{61756678, 4761696e, 4b657947}</effectid>
								<effecttype>filter</effecttype>
								<mediatype>audio</mediatype>
								<parameter authoringApp="PremierePro">
									<parameterid>Gain(dB)</parameterid>
									<name>Gain(dB)</name>
									<valuemin>-96</valuemin>
									<valuemax>96</valuemax>
									<value>3</value>
								</parameter>
							</effect>
						</filter>
							<marker>
								<comment></comment>
								<name></name>
								<in>6836</in>
								<out>-1</out>
							</marker>
						<link>
							<linkclipref>clipitem-705</linkclipref>
							<mediatype>audio</mediatype>
							<trackindex>15</trackindex>
							<clipindex>69</clipindex>
							<groupindex>1</groupindex>
						</link>
						<link>
							<linkclipref>clipitem-809</linkclipref>
							<mediatype>audio</mediatype>
							<trackindex>16</trackindex>
							<clipindex>69</clipindex>
							<groupindex>1</groupindex>
						</link>
						<logginginfo>
							<description></description>
							<scene></scene>
							<shottake></shottake>
							<lognote></lognote>
							<good></good>
							<originalvideofilename></originalvideofilename>
							<originalaudiofilename></originalaudiofilename>
						</logginginfo>
						<colorinfo>
							<lut></lut>
							<lut1></lut1>
							<asc_sop></asc_sop>
							<asc_sat></asc_sat>
							<lut2></lut2>
						</colorinfo>
						<labels>
							<label2>Blue</label2>
						</labels>
					</clipitem>
					<transitionitem>
						<start>20658</start>
						<end>20660</end>
						<alignment>end-black</alignment>
						<cutPointTicks>8467200000</cutPointTicks>
						<rate>
							<timebase>60</timebase>
							<ntsc>FALSE</ntsc>
						</rate>
						<effect>
							<name>Cross Fade (+3dB)</name>
							<effectid>KGAudioTransCrossFade3dB</effectid>
							<effecttype>transition</effecttype>
							<mediatype>audio</mediatype>
							<wipecode>0</wipecode>
							<wipeaccuracy>100</wipeaccuracy>
							<startratio>0</startratio>
							<endratio>1</endratio>
							<reverse>FALSE</reverse>
						</effect>
					</transitionitem>
					<transitionitem>
						<start>22751</start>
						<end>22753</end>
						<alignment>start-black</alignment>
						<cutPointTicks>0</cutPointTicks>
						<rate>
							<timebase>60</timebase>
							<ntsc>FALSE</ntsc>
						</rate>
						<effect>
							<name>Cross Fade (+3dB)</name>
							<effectid>KGAudioTransCrossFade3dB</effectid>
							<effecttype>transition</effecttype>
							<mediatype>audio</mediatype>
							<wipecode>0</wipecode>
							<wipeaccuracy>100</wipeaccuracy>
							<startratio>0</startratio>
							<endratio>1</endratio>
							<reverse>FALSE</reverse>
						</effect>
					</transitionitem>
					<clipitem id="clipitem-810" premiereChannelType="stereo">
						<masterclipid>masterclip-96</masterclipid>
						<name>Kate_ZOOM0001.WAV</name>
						<enabled>TRUE</enabled>
						<duration>81662</duration>
						<rate>
							<timebase>60</timebase>
							<ntsc>FALSE</ntsc>
						</rate>
						<start>-1</start>
						<end>-1</end>
						<in>24201</in>
						<out>24237</out>
						<pproTicksIn>102457353600000</pproTicksIn>
						<pproTicksOut>102609763200000</pproTicksOut>
						<file id="file-96"/>
						<sourcetrack>
							<mediatype>audio</mediatype>
							<trackindex>2</trackindex>
						</sourcetrack>
							<marker>
								<comment></comment>
								<name></name>
								<in>8498</in>
								<out>-1</out>
							</marker>
						<link>
							<linkclipref>clipitem-706</linkclipref>
							<mediatype>audio</mediatype>
							<trackindex>15</trackindex>
							<clipindex>72</clipindex>
							<groupindex>1</groupindex>
						</link>
						<link>
							<linkclipref>clipitem-810</linkclipref>
							<mediatype>audio</mediatype>
							<trackindex>16</trackindex>
							<clipindex>72</clipindex>
							<groupindex>1</groupindex>
						</link>
						<logginginfo>
							<description></description>
							<scene></scene>
							<shottake></shottake>
							<lognote></lognote>
							<good></good>
							<originalvideofilename></originalvideofilename>
							<originalaudiofilename></originalaudiofilename>
						</logginginfo>
						<colorinfo>
							<lut></lut>
							<lut1></lut1>
							<asc_sop></asc_sop>
							<asc_sat></asc_sat>
							<lut2></lut2>
						</colorinfo>
						<labels>
							<label2>Violet</label2>
						</labels>
					</clipitem>
					<transitionitem>
						<start>22785</start>
						<end>22787</end>
						<alignment>center</alignment>
						<cutPointTicks>4233600000</cutPointTicks>
						<rate>
							<timebase>60</timebase>
							<ntsc>FALSE</ntsc>
						</rate>
						<effect>
							<name>Cross Fade (+3dB)</name>
							<effectid>KGAudioTransCrossFade3dB</effectid>
							<effecttype>transition</effecttype>
							<mediatype>audio</mediatype>
							<wipecode>0</wipecode>
							<wipeaccuracy>100</wipeaccuracy>
							<startratio>0</startratio>
							<endratio>1</endratio>
							<reverse>FALSE</reverse>
						</effect>
					</transitionitem>
					<clipitem id="clipitem-811" premiereChannelType="stereo">
						<masterclipid>masterclip-96</masterclipid>
						<name>Kate_ZOOM0001.WAV</name>
						<enabled>TRUE</enabled>
						<duration>81662</duration>
						<rate>
							<timebase>60</timebase>
							<ntsc>FALSE</ntsc>
						</rate>
						<start>-1</start>
						<end>-1</end>
						<in>27210</in>
						<out>27350</out>
						<pproTicksIn>115196256000000</pproTicksIn>
						<pproTicksOut>115788960000000</pproTicksOut>
						<file id="file-96"/>
						<sourcetrack>
							<mediatype>audio</mediatype>
							<trackindex>2</trackindex>
						</sourcetrack>
						<filter>
							<effect>
								<name>Audio Levels</name>
								<effectid>audiolevels</effectid>
								<effectcategory>audiolevels</effectcategory>
								<effecttype>audiolevels</effecttype>
								<mediatype>audio</mediatype>
								<pproBypass>false</pproBypass>
								<parameter authoringApp="PremierePro">
									<parameterid>level</parameterid>
									<name>Level</name>
									<valuemin>0</valuemin>
									<valuemax>3.98109</valuemax>
									<value>1</value>
									<keyframe>
										<when>27311</when>
										<value>1</value>
									</keyframe>
									<keyframe>
										<when>27325</when>
										<value>0</value>
									</keyframe>
								</parameter>
							</effect>
						</filter>
							<marker>
								<comment></comment>
								<name></name>
								<in>8498</in>
								<out>-1</out>
							</marker>
						<link>
							<linkclipref>clipitem-707</linkclipref>
							<mediatype>audio</mediatype>
							<trackindex>15</trackindex>
							<clipindex>74</clipindex>
							<groupindex>1</groupindex>
						</link>
						<link>
							<linkclipref>clipitem-811</linkclipref>
							<mediatype>audio</mediatype>
							<trackindex>16</trackindex>
							<clipindex>74</clipindex>
							<groupindex>1</groupindex>
						</link>
						<logginginfo>
							<description></description>
							<scene></scene>
							<shottake></shottake>
							<lognote></lognote>
							<good></good>
							<originalvideofilename></originalvideofilename>
							<originalaudiofilename></originalaudiofilename>
						</logginginfo>
						<colorinfo>
							<lut></lut>
							<lut1></lut1>
							<asc_sop></asc_sop>
							<asc_sat></asc_sat>
							<lut2></lut2>
						</colorinfo>
						<labels>
							<label2>Violet</label2>
						</labels>
					</clipitem>
					<transitionitem>
						<start>22923</start>
						<end>22925</end>
						<alignment>end-black</alignment>
						<cutPointTicks>8467200000</cutPointTicks>
						<rate>
							<timebase>60</timebase>
							<ntsc>FALSE</ntsc>
						</rate>
						<effect>
							<name>Cross Fade (+3dB)</name>
							<effectid>KGAudioTransCrossFade3dB</effectid>
							<effecttype>transition</effecttype>
							<mediatype>audio</mediatype>
							<wipecode>0</wipecode>
							<wipeaccuracy>100</wipeaccuracy>
							<startratio>0</startratio>
							<endratio>1</endratio>
							<reverse>FALSE</reverse>
						</effect>
					</transitionitem>
					<transitionitem>
						<start>22925</start>
						<end>22927</end>
						<alignment>start-black</alignment>
						<cutPointTicks>0</cutPointTicks>
						<rate>
							<timebase>60</timebase>
							<ntsc>FALSE</ntsc>
						</rate>
						<effect>
							<name>Cross Fade (+3dB)</name>
							<effectid>KGAudioTransCrossFade3dB</effectid>
							<effecttype>transition</effecttype>
							<mediatype>audio</mediatype>
							<wipecode>0</wipecode>
							<wipeaccuracy>100</wipeaccuracy>
							<startratio>0</startratio>
							<endratio>1</endratio>
							<reverse>FALSE</reverse>
						</effect>
					</transitionitem>
					<clipitem id="clipitem-812" premiereChannelType="stereo">
						<masterclipid>masterclip-96</masterclipid>
						<name>Kate_ZOOM0001.WAV</name>
						<enabled>TRUE</enabled>
						<duration>81662</duration>
						<rate>
							<timebase>60</timebase>
							<ntsc>FALSE</ntsc>
						</rate>
						<start>-1</start>
						<end>-1</end>
						<in>30714</in>
						<out>31240</out>
						<pproTicksIn>130030790400000</pproTicksIn>
						<pproTicksOut>132257664000000</pproTicksOut>
						<file id="file-96"/>
						<sourcetrack>
							<mediatype>audio</mediatype>
							<trackindex>2</trackindex>
						</sourcetrack>
						<filter>
							<effect>
								<name>Audio Levels</name>
								<effectid>audiolevels</effectid>
								<effectcategory>audiolevels</effectcategory>
								<effecttype>audiolevels</effecttype>
								<mediatype>audio</mediatype>
								<pproBypass>false</pproBypass>
								<parameter authoringApp="PremierePro">
									<parameterid>level</parameterid>
									<name>Level</name>
									<valuemin>0</valuemin>
									<valuemax>3.98109</valuemax>
									<value>0</value>
									<keyframe>
										<when>30715</when>
										<value>0</value>
									</keyframe>
									<keyframe>
										<when>30721</when>
										<value>1</value>
									</keyframe>
									<keyframe>
										<when>31228</when>
										<value>1</value>
									</keyframe>
									<keyframe>
										<when>31240</when>
										<value>0</value>
									</keyframe>
									<keyframe>
										<when>31253</when>
										<value>0</value>
									</keyframe>
								</parameter>
							</effect>
						</filter>
							<marker>
								<comment></comment>
								<name></name>
								<in>8498</in>
								<out>-1</out>
							</marker>
						<link>
							<linkclipref>clipitem-708</linkclipref>
							<mediatype>audio</mediatype>
							<trackindex>15</trackindex>
							<clipindex>77</clipindex>
							<groupindex>1</groupindex>
						</link>
						<link>
							<linkclipref>clipitem-812</linkclipref>
							<mediatype>audio</mediatype>
							<trackindex>16</trackindex>
							<clipindex>77</clipindex>
							<groupindex>1</groupindex>
						</link>
						<logginginfo>
							<description></description>
							<scene></scene>
							<shottake></shottake>
							<lognote></lognote>
							<good></good>
							<originalvideofilename></originalvideofilename>
							<originalaudiofilename></originalaudiofilename>
						</logginginfo>
						<colorinfo>
							<lut></lut>
							<lut1></lut1>
							<asc_sop></asc_sop>
							<asc_sat></asc_sat>
							<lut2></lut2>
						</colorinfo>
						<labels>
							<label2>Mango</label2>
						</labels>
					</clipitem>
					<transitionitem>
						<start>23449</start>
						<end>23451</end>
						<alignment>end-black</alignment>
						<cutPointTicks>8467200000</cutPointTicks>
						<rate>
							<timebase>60</timebase>
							<ntsc>FALSE</ntsc>
						</rate>
						<effect>
							<name>Cross Fade (+3dB)</name>
							<effectid>KGAudioTransCrossFade3dB</effectid>
							<effecttype>transition</effecttype>
							<mediatype>audio</mediatype>
							<wipecode>0</wipecode>
							<wipeaccuracy>100</wipeaccuracy>
							<startratio>0</startratio>
							<endratio>1</endratio>
							<reverse>FALSE</reverse>
						</effect>
					</transitionitem>
					<transitionitem>
						<start>24238</start>
						<end>24240</end>
						<alignment>start-black</alignment>
						<cutPointTicks>0</cutPointTicks>
						<rate>
							<timebase>60</timebase>
							<ntsc>FALSE</ntsc>
						</rate>
						<effect>
							<name>Cross Fade (+3dB)</name>
							<effectid>KGAudioTransCrossFade3dB</effectid>
							<effecttype>transition</effecttype>
							<mediatype>audio</mediatype>
							<wipecode>0</wipecode>
							<wipeaccuracy>100</wipeaccuracy>
							<startratio>0</startratio>
							<endratio>1</endratio>
							<reverse>FALSE</reverse>
						</effect>
					</transitionitem>
					<clipitem id="clipitem-813" premiereChannelType="stereo">
						<masterclipid>masterclip-96</masterclipid>
						<name>Kate_ZOOM0001.WAV</name>
						<enabled>TRUE</enabled>
						<duration>81662</duration>
						<rate>
							<timebase>60</timebase>
							<ntsc>FALSE</ntsc>
						</rate>
						<start>-1</start>
						<end>-1</end>
						<in>31732</in>
						<out>31931</out>
						<pproTicksIn>134340595200000</pproTicksIn>
						<pproTicksOut>135183081600000</pproTicksOut>
						<file id="file-96"/>
						<sourcetrack>
							<mediatype>audio</mediatype>
							<trackindex>2</trackindex>
						</sourcetrack>
							<marker>
								<comment></comment>
								<name></name>
								<in>8498</in>
								<out>-1</out>
							</marker>
						<link>
							<linkclipref>clipitem-709</linkclipref>
							<mediatype>audio</mediatype>
							<trackindex>15</trackindex>
							<clipindex>80</clipindex>
							<groupindex>1</groupindex>
						</link>
						<link>
							<linkclipref>clipitem-813</linkclipref>
							<mediatype>audio</mediatype>
							<trackindex>16</trackindex>
							<clipindex>80</clipindex>
							<groupindex>1</groupindex>
						</link>
						<logginginfo>
							<description></description>
							<scene></scene>
							<shottake></shottake>
							<lognote></lognote>
							<good></good>
							<originalvideofilename></originalvideofilename>
							<originalaudiofilename></originalaudiofilename>
						</logginginfo>
						<colorinfo>
							<lut></lut>
							<lut1></lut1>
							<asc_sop></asc_sop>
							<asc_sat></asc_sat>
							<lut2></lut2>
						</colorinfo>
						<labels>
							<label2>Mango</label2>
						</labels>
					</clipitem>
					<transitionitem>
						<start>24435</start>
						<end>24437</end>
						<alignment>end-black</alignment>
						<cutPointTicks>8467200000</cutPointTicks>
						<rate>
							<timebase>60</timebase>
							<ntsc>FALSE</ntsc>
						</rate>
						<effect>
							<name>Cross Fade (+3dB)</name>
							<effectid>KGAudioTransCrossFade3dB</effectid>
							<effecttype>transition</effecttype>
							<mediatype>audio</mediatype>
							<wipecode>0</wipecode>
							<wipeaccuracy>100</wipeaccuracy>
							<startratio>0</startratio>
							<endratio>1</endratio>
							<reverse>FALSE</reverse>
						</effect>
					</transitionitem>
					<transitionitem>
						<start>24457</start>
						<end>24459</end>
						<alignment>start-black</alignment>
						<cutPointTicks>0</cutPointTicks>
						<rate>
							<timebase>60</timebase>
							<ntsc>FALSE</ntsc>
						</rate>
						<effect>
							<name>Cross Fade (+3dB)</name>
							<effectid>KGAudioTransCrossFade3dB</effectid>
							<effecttype>transition</effecttype>
							<mediatype>audio</mediatype>
							<wipecode>0</wipecode>
							<wipeaccuracy>100</wipeaccuracy>
							<startratio>0</startratio>
							<endratio>1</endratio>
							<reverse>FALSE</reverse>
						</effect>
					</transitionitem>
					<clipitem id="clipitem-814" premiereChannelType="stereo">
						<masterclipid>masterclip-96</masterclipid>
						<name>Kate_ZOOM0001.WAV</name>
						<enabled>TRUE</enabled>
						<duration>81662</duration>
						<rate>
							<timebase>60</timebase>
							<ntsc>FALSE</ntsc>
						</rate>
						<start>-1</start>
						<end>-1</end>
						<in>32054</in>
						<out>32109</out>
						<pproTicksIn>135703814400000</pproTicksIn>
						<pproTicksOut>135936662400000</pproTicksOut>
						<file id="file-96"/>
						<sourcetrack>
							<mediatype>audio</mediatype>
							<trackindex>2</trackindex>
						</sourcetrack>
						<filter>
							<effect>
								<name>Audio Levels</name>
								<effectid>audiolevels</effectid>
								<effectcategory>audiolevels</effectcategory>
								<effecttype>audiolevels</effecttype>
								<mediatype>audio</mediatype>
								<pproBypass>false</pproBypass>
								<parameter authoringApp="PremierePro">
									<parameterid>level</parameterid>
									<name>Level</name>
									<valuemin>0</valuemin>
									<valuemax>3.98109</valuemax>
									<value>1.48511</value>
								</parameter>
							</effect>
						</filter>
							<marker>
								<comment></comment>
								<name></name>
								<in>8498</in>
								<out>-1</out>
							</marker>
						<link>
							<linkclipref>clipitem-710</linkclipref>
							<mediatype>audio</mediatype>
							<trackindex>15</trackindex>
							<clipindex>83</clipindex>
							<groupindex>1</groupindex>
						</link>
						<link>
							<linkclipref>clipitem-814</linkclipref>
							<mediatype>audio</mediatype>
							<trackindex>16</trackindex>
							<clipindex>83</clipindex>
							<groupindex>1</groupindex>
						</link>
						<logginginfo>
							<description></description>
							<scene></scene>
							<shottake></shottake>
							<lognote></lognote>
							<good></good>
							<originalvideofilename></originalvideofilename>
							<originalaudiofilename></originalaudiofilename>
						</logginginfo>
						<colorinfo>
							<lut></lut>
							<lut1></lut1>
							<asc_sop></asc_sop>
							<asc_sat></asc_sat>
							<lut2></lut2>
						</colorinfo>
						<labels>
							<label2>Mango</label2>
						</labels>
					</clipitem>
					<transitionitem>
						<start>24510</start>
						<end>24512</end>
						<alignment>center</alignment>
						<cutPointTicks>4233600000</cutPointTicks>
						<rate>
							<timebase>60</timebase>
							<ntsc>FALSE</ntsc>
						</rate>
						<effect>
							<name>Cross Fade (+3dB)</name>
							<effectid>KGAudioTransCrossFade3dB</effectid>
							<effecttype>transition</effecttype>
							<mediatype>audio</mediatype>
							<wipecode>0</wipecode>
							<wipeaccuracy>100</wipeaccuracy>
							<startratio>0</startratio>
							<endratio>1</endratio>
							<reverse>FALSE</reverse>
						</effect>
					</transitionitem>
					<clipitem id="clipitem-815" premiereChannelType="stereo">
						<masterclipid>masterclip-96</masterclipid>
						<name>Kate_ZOOM0001.WAV</name>
						<enabled>TRUE</enabled>
						<duration>81662</duration>
						<rate>
							<timebase>60</timebase>
							<ntsc>FALSE</ntsc>
						</rate>
						<start>-1</start>
						<end>-1</end>
						<in>32163</in>
						<out>32324</out>
						<pproTicksIn>136165276800000</pproTicksIn>
						<pproTicksOut>136846886400000</pproTicksOut>
						<file id="file-96"/>
						<sourcetrack>
							<mediatype>audio</mediatype>
							<trackindex>2</trackindex>
						</sourcetrack>
						<filter>
							<effect>
								<name>Audio Levels</name>
								<effectid>audiolevels</effectid>
								<effectcategory>audiolevels</effectcategory>
								<effecttype>audiolevels</effecttype>
								<mediatype>audio</mediatype>
								<pproBypass>false</pproBypass>
								<parameter authoringApp="PremierePro">
									<parameterid>level</parameterid>
									<name>Level</name>
									<valuemin>0</valuemin>
									<valuemax>3.98109</valuemax>
									<value>1</value>
									<keyframe>
										<when>32179</when>
										<value>1</value>
									</keyframe>
									<keyframe>
										<when>32185</when>
										<value>1.22128</value>
									</keyframe>
									<keyframe>
										<when>32245</when>
										<value>1.22128</value>
									</keyframe>
									<keyframe>
										<when>32262</when>
										<value>0</value>
									</keyframe>
								</parameter>
							</effect>
						</filter>
							<marker>
								<comment></comment>
								<name></name>
								<in>8498</in>
								<out>-1</out>
							</marker>
						<link>
							<linkclipref>clipitem-711</linkclipref>
							<mediatype>audio</mediatype>
							<trackindex>15</trackindex>
							<clipindex>85</clipindex>
							<groupindex>1</groupindex>
						</link>
						<link>
							<linkclipref>clipitem-815</linkclipref>
							<mediatype>audio</mediatype>
							<trackindex>16</trackindex>
							<clipindex>85</clipindex>
							<groupindex>1</groupindex>
						</link>
						<logginginfo>
							<description></description>
							<scene></scene>
							<shottake></shottake>
							<lognote></lognote>
							<good></good>
							<originalvideofilename></originalvideofilename>
							<originalaudiofilename></originalaudiofilename>
						</logginginfo>
						<colorinfo>
							<lut></lut>
							<lut1></lut1>
							<asc_sop></asc_sop>
							<asc_sat></asc_sat>
							<lut2></lut2>
						</colorinfo>
						<labels>
							<label2>Mango</label2>
						</labels>
					</clipitem>
					<transitionitem>
						<start>24669</start>
						<end>24671</end>
						<alignment>end-black</alignment>
						<cutPointTicks>8467200000</cutPointTicks>
						<rate>
							<timebase>60</timebase>
							<ntsc>FALSE</ntsc>
						</rate>
						<effect>
							<name>Cross Fade (+3dB)</name>
							<effectid>KGAudioTransCrossFade3dB</effectid>
							<effecttype>transition</effecttype>
							<mediatype>audio</mediatype>
							<wipecode>0</wipecode>
							<wipeaccuracy>100</wipeaccuracy>
							<startratio>0</startratio>
							<endratio>1</endratio>
							<reverse>FALSE</reverse>
						</effect>
					</transitionitem>
					<transitionitem>
						<start>24855</start>
						<end>24857</end>
						<alignment>start-black</alignment>
						<cutPointTicks>0</cutPointTicks>
						<rate>
							<timebase>60</timebase>
							<ntsc>FALSE</ntsc>
						</rate>
						<effect>
							<name>Cross Fade (+3dB)</name>
							<effectid>KGAudioTransCrossFade3dB</effectid>
							<effecttype>transition</effecttype>
							<mediatype>audio</mediatype>
							<wipecode>0</wipecode>
							<wipeaccuracy>100</wipeaccuracy>
							<startratio>0</startratio>
							<endratio>1</endratio>
							<reverse>FALSE</reverse>
						</effect>
					</transitionitem>
					<clipitem id="clipitem-816" premiereChannelType="stereo">
						<masterclipid>masterclip-96</masterclipid>
						<name>Kate_ZOOM0001.WAV</name>
						<enabled>FALSE</enabled>
						<duration>81662</duration>
						<rate>
							<timebase>60</timebase>
							<ntsc>FALSE</ntsc>
						</rate>
						<start>-1</start>
						<end>-1</end>
						<in>31732</in>
						<out>32402</out>
						<pproTicksIn>134340595200000</pproTicksIn>
						<pproTicksOut>137177107200000</pproTicksOut>
						<file id="file-96"/>
						<sourcetrack>
							<mediatype>audio</mediatype>
							<trackindex>2</trackindex>
						</sourcetrack>
							<marker>
								<comment></comment>
								<name></name>
								<in>8498</in>
								<out>-1</out>
							</marker>
						<link>
							<linkclipref>clipitem-712</linkclipref>
							<mediatype>audio</mediatype>
							<trackindex>15</trackindex>
							<clipindex>88</clipindex>
							<groupindex>1</groupindex>
						</link>
						<link>
							<linkclipref>clipitem-816</linkclipref>
							<mediatype>audio</mediatype>
							<trackindex>16</trackindex>
							<clipindex>88</clipindex>
							<groupindex>1</groupindex>
						</link>
						<logginginfo>
							<description></description>
							<scene></scene>
							<shottake></shottake>
							<lognote></lognote>
							<good></good>
							<originalvideofilename></originalvideofilename>
							<originalaudiofilename></originalaudiofilename>
						</logginginfo>
						<colorinfo>
							<lut></lut>
							<lut1></lut1>
							<asc_sop></asc_sop>
							<asc_sat></asc_sat>
							<lut2></lut2>
						</colorinfo>
						<labels>
							<label2>Mango</label2>
						</labels>
					</clipitem>
					<transitionitem>
						<start>25523</start>
						<end>25525</end>
						<alignment>end-black</alignment>
						<cutPointTicks>8467200000</cutPointTicks>
						<rate>
							<timebase>60</timebase>
							<ntsc>FALSE</ntsc>
						</rate>
						<effect>
							<name>Cross Fade (+3dB)</name>
							<effectid>KGAudioTransCrossFade3dB</effectid>
							<effecttype>transition</effecttype>
							<mediatype>audio</mediatype>
							<wipecode>0</wipecode>
							<wipeaccuracy>100</wipeaccuracy>
							<startratio>0</startratio>
							<endratio>1</endratio>
							<reverse>FALSE</reverse>
						</effect>
					</transitionitem>
					<transitionitem>
						<start>30670</start>
						<end>30672</end>
						<alignment>start-black</alignment>
						<cutPointTicks>0</cutPointTicks>
						<rate>
							<timebase>60</timebase>
							<ntsc>FALSE</ntsc>
						</rate>
						<effect>
							<name>Cross Fade (+3dB)</name>
							<effectid>KGAudioTransCrossFade3dB</effectid>
							<effecttype>transition</effecttype>
							<mediatype>audio</mediatype>
							<wipecode>0</wipecode>
							<wipeaccuracy>100</wipeaccuracy>
							<startratio>0</startratio>
							<endratio>1</endratio>
							<reverse>FALSE</reverse>
						</effect>
					</transitionitem>
					<clipitem id="clipitem-817" premiereChannelType="stereo">
						<masterclipid>masterclip-95</masterclipid>
						<name>BrookePart2_ZOOM0001.WAV</name>
						<enabled>TRUE</enabled>
						<duration>136757</duration>
						<rate>
							<timebase>60</timebase>
							<ntsc>FALSE</ntsc>
						</rate>
						<start>-1</start>
						<end>31168</end>
						<in>134755</in>
						<out>135253</out>
						<pproTicksIn>570498768000000</pproTicksIn>
						<pproTicksOut>572607100800000</pproTicksOut>
						<file id="file-95"/>
						<sourcetrack>
							<mediatype>audio</mediatype>
							<trackindex>2</trackindex>
						</sourcetrack>
						<filter>
							<effect>
								<name>Audio Levels</name>
								<effectid>audiolevels</effectid>
								<effectcategory>audiolevels</effectcategory>
								<effecttype>audiolevels</effecttype>
								<mediatype>audio</mediatype>
								<pproBypass>false</pproBypass>
								<parameter authoringApp="PremierePro">
									<parameterid>level</parameterid>
									<name>Level</name>
									<valuemin>0</valuemin>
									<valuemax>3.98109</valuemax>
									<value>1</value>
									<keyframe>
										<when>135590</when>
										<value>1</value>
									</keyframe>
									<keyframe>
										<when>135645</when>
										<value>0</value>
									</keyframe>
								</parameter>
							</effect>
						</filter>
							<marker>
								<comment></comment>
								<name></name>
								<in>6836</in>
								<out>-1</out>
							</marker>
						<link>
							<linkclipref>clipitem-713</linkclipref>
							<mediatype>audio</mediatype>
							<trackindex>15</trackindex>
							<clipindex>91</clipindex>
							<groupindex>1</groupindex>
						</link>
						<link>
							<linkclipref>clipitem-817</linkclipref>
							<mediatype>audio</mediatype>
							<trackindex>16</trackindex>
							<clipindex>91</clipindex>
							<groupindex>1</groupindex>
						</link>
						<logginginfo>
							<description></description>
							<scene></scene>
							<shottake></shottake>
							<lognote></lognote>
							<good></good>
							<originalvideofilename></originalvideofilename>
							<originalaudiofilename></originalaudiofilename>
						</logginginfo>
						<colorinfo>
							<lut></lut>
							<lut1></lut1>
							<asc_sop></asc_sop>
							<asc_sat></asc_sat>
							<lut2></lut2>
						</colorinfo>
						<labels>
							<label2>Green</label2>
						</labels>
					</clipitem>
					<clipitem id="clipitem-818" premiereChannelType="stereo">
						<masterclipid>masterclip-95</masterclipid>
						<name>BrookePart2_ZOOM0001.WAV</name>
						<enabled>TRUE</enabled>
						<duration>136757</duration>
						<rate>
							<timebase>60</timebase>
							<ntsc>FALSE</ntsc>
						</rate>
						<start>31168</start>
						<end>-1</end>
						<in>135253</in>
						<out>135683</out>
						<pproTicksIn>572607100800000</pproTicksIn>
						<pproTicksOut>574427548800000</pproTicksOut>
						<file id="file-95"/>
						<sourcetrack>
							<mediatype>audio</mediatype>
							<trackindex>2</trackindex>
						</sourcetrack>
						<filter>
							<effect>
								<name>Audio Levels</name>
								<effectid>audiolevels</effectid>
								<effectcategory>audiolevels</effectcategory>
								<effecttype>audiolevels</effecttype>
								<mediatype>audio</mediatype>
								<pproBypass>false</pproBypass>
								<parameter authoringApp="PremierePro">
									<parameterid>level</parameterid>
									<name>Level</name>
									<valuemin>0</valuemin>
									<valuemax>3.98109</valuemax>
									<value>1</value>
									<keyframe>
										<when>135590</when>
										<value>1</value>
									</keyframe>
									<keyframe>
										<when>135645</when>
										<value>0</value>
									</keyframe>
								</parameter>
							</effect>
						</filter>
							<marker>
								<comment></comment>
								<name></name>
								<in>6836</in>
								<out>-1</out>
							</marker>
						<link>
							<linkclipref>clipitem-714</linkclipref>
							<mediatype>audio</mediatype>
							<trackindex>15</trackindex>
							<clipindex>92</clipindex>
							<groupindex>1</groupindex>
						</link>
						<link>
							<linkclipref>clipitem-818</linkclipref>
							<mediatype>audio</mediatype>
							<trackindex>16</trackindex>
							<clipindex>92</clipindex>
							<groupindex>1</groupindex>
						</link>
						<logginginfo>
							<description></description>
							<scene></scene>
							<shottake></shottake>
							<lognote></lognote>
							<good></good>
							<originalvideofilename></originalvideofilename>
							<originalaudiofilename></originalaudiofilename>
						</logginginfo>
						<colorinfo>
							<lut></lut>
							<lut1></lut1>
							<asc_sop></asc_sop>
							<asc_sat></asc_sat>
							<lut2></lut2>
						</colorinfo>
						<labels>
							<label2>Green</label2>
						</labels>
					</clipitem>
					<transitionitem>
						<start>31596</start>
						<end>31598</end>
						<alignment>end-black</alignment>
						<cutPointTicks>8467200000</cutPointTicks>
						<rate>
							<timebase>60</timebase>
							<ntsc>FALSE</ntsc>
						</rate>
						<effect>
							<name>Cross Fade (+3dB)</name>
							<effectid>KGAudioTransCrossFade3dB</effectid>
							<effecttype>transition</effecttype>
							<mediatype>audio</mediatype>
							<wipecode>0</wipecode>
							<wipeaccuracy>100</wipeaccuracy>
							<startratio>0</startratio>
							<endratio>1</endratio>
							<reverse>FALSE</reverse>
						</effect>
					</transitionitem>
					<clipitem id="clipitem-819" premiereChannelType="stereo">
						<masterclipid>masterclip-95</masterclipid>
						<name>BrookePart2_ZOOM0001.WAV</name>
						<enabled>TRUE</enabled>
						<duration>136757</duration>
						<rate>
							<timebase>60</timebase>
							<ntsc>FALSE</ntsc>
						</rate>
						<start>34061</start>
						<end>34170</end>
						<in>110727</in>
						<out>110836</out>
						<pproTicksIn>468773827200000</pproTicksIn>
						<pproTicksOut>469235289600000</pproTicksOut>
						<file id="file-95"/>
						<sourcetrack>
							<mediatype>audio</mediatype>
							<trackindex>2</trackindex>
						</sourcetrack>
						<filter>
							<effect>
								<name>Audio Levels</name>
								<effectid>audiolevels</effectid>
								<effectcategory>audiolevels</effectcategory>
								<effecttype>audiolevels</effecttype>
								<mediatype>audio</mediatype>
								<pproBypass>false</pproBypass>
								<parameter authoringApp="PremierePro">
									<parameterid>level</parameterid>
									<name>Level</name>
									<valuemin>0</valuemin>
									<valuemax>3.98109</valuemax>
									<value>0</value>
									<keyframe>
										<when>110730</when>
										<value>0</value>
									</keyframe>
									<keyframe>
										<when>110732</when>
										<value>1</value>
									</keyframe>
									<keyframe>
										<when>110820</when>
										<value>1</value>
									</keyframe>
									<keyframe>
										<when>110825</when>
										<value>0</value>
									</keyframe>
								</parameter>
							</effect>
						</filter>
							<marker>
								<comment></comment>
								<name></name>
								<in>6836</in>
								<out>-1</out>
							</marker>
						<link>
							<linkclipref>clipitem-715</linkclipref>
							<mediatype>audio</mediatype>
							<trackindex>15</trackindex>
							<clipindex>94</clipindex>
							<groupindex>1</groupindex>
						</link>
						<link>
							<linkclipref>clipitem-819</linkclipref>
							<mediatype>audio</mediatype>
							<trackindex>16</trackindex>
							<clipindex>94</clipindex>
							<groupindex>1</groupindex>
						</link>
						<logginginfo>
							<description></description>
							<scene></scene>
							<shottake></shottake>
							<lognote></lognote>
							<good></good>
							<originalvideofilename></originalvideofilename>
							<originalaudiofilename></originalaudiofilename>
						</logginginfo>
						<colorinfo>
							<lut></lut>
							<lut1></lut1>
							<asc_sop></asc_sop>
							<asc_sat></asc_sat>
							<lut2></lut2>
						</colorinfo>
						<labels>
							<label2>Cerulean</label2>
						</labels>
					</clipitem>
					<clipitem id="clipitem-820" premiereChannelType="stereo">
						<masterclipid>masterclip-95</masterclipid>
						<name>BrookePart2_ZOOM0001.WAV</name>
						<enabled>TRUE</enabled>
						<duration>136757</duration>
						<rate>
							<timebase>60</timebase>
							<ntsc>FALSE</ntsc>
						</rate>
						<start>34209</start>
						<end>-1</end>
						<in>110882</in>
						<out>110987</out>
						<pproTicksIn>469430035200000</pproTicksIn>
						<pproTicksOut>469874563200000</pproTicksOut>
						<file id="file-95"/>
						<sourcetrack>
							<mediatype>audio</mediatype>
							<trackindex>2</trackindex>
						</sourcetrack>
							<marker>
								<comment></comment>
								<name></name>
								<in>6836</in>
								<out>-1</out>
							</marker>
						<link>
							<linkclipref>clipitem-716</linkclipref>
							<mediatype>audio</mediatype>
							<trackindex>15</trackindex>
							<clipindex>95</clipindex>
							<groupindex>1</groupindex>
						</link>
						<link>
							<linkclipref>clipitem-820</linkclipref>
							<mediatype>audio</mediatype>
							<trackindex>16</trackindex>
							<clipindex>95</clipindex>
							<groupindex>1</groupindex>
						</link>
						<logginginfo>
							<description></description>
							<scene></scene>
							<shottake></shottake>
							<lognote></lognote>
							<good></good>
							<originalvideofilename></originalvideofilename>
							<originalaudiofilename></originalaudiofilename>
						</logginginfo>
						<colorinfo>
							<lut></lut>
							<lut1></lut1>
							<asc_sop></asc_sop>
							<asc_sat></asc_sat>
							<lut2></lut2>
						</colorinfo>
						<labels>
							<label2>Cerulean</label2>
						</labels>
					</clipitem>
					<transitionitem>
						<start>34312</start>
						<end>34314</end>
						<alignment>center</alignment>
						<cutPointTicks>4233600000</cutPointTicks>
						<rate>
							<timebase>60</timebase>
							<ntsc>FALSE</ntsc>
						</rate>
						<effect>
							<name>Cross Fade (+3dB)</name>
							<effectid>KGAudioTransCrossFade3dB</effectid>
							<effecttype>transition</effecttype>
							<mediatype>audio</mediatype>
							<wipecode>0</wipecode>
							<wipeaccuracy>100</wipeaccuracy>
							<startratio>0</startratio>
							<endratio>1</endratio>
							<reverse>FALSE</reverse>
						</effect>
					</transitionitem>
					<clipitem id="clipitem-821" premiereChannelType="stereo">
						<masterclipid>masterclip-95</masterclipid>
						<name>BrookePart2_ZOOM0001.WAV</name>
						<enabled>TRUE</enabled>
						<duration>136757</duration>
						<rate>
							<timebase>60</timebase>
							<ntsc>FALSE</ntsc>
						</rate>
						<start>-1</start>
						<end>-1</end>
						<in>111111</in>
						<out>111314</out>
						<pproTicksIn>470399529600000</pproTicksIn>
						<pproTicksOut>471258950400000</pproTicksOut>
						<file id="file-95"/>
						<sourcetrack>
							<mediatype>audio</mediatype>
							<trackindex>2</trackindex>
						</sourcetrack>
							<marker>
								<comment></comment>
								<name></name>
								<in>6836</in>
								<out>-1</out>
							</marker>
						<link>
							<linkclipref>clipitem-717</linkclipref>
							<mediatype>audio</mediatype>
							<trackindex>15</trackindex>
							<clipindex>97</clipindex>
							<groupindex>1</groupindex>
						</link>
						<link>
							<linkclipref>clipitem-821</linkclipref>
							<mediatype>audio</mediatype>
							<trackindex>16</trackindex>
							<clipindex>97</clipindex>
							<groupindex>1</groupindex>
						</link>
						<logginginfo>
							<description></description>
							<scene></scene>
							<shottake></shottake>
							<lognote></lognote>
							<good></good>
							<originalvideofilename></originalvideofilename>
							<originalaudiofilename></originalaudiofilename>
						</logginginfo>
						<colorinfo>
							<lut></lut>
							<lut1></lut1>
							<asc_sop></asc_sop>
							<asc_sat></asc_sat>
							<lut2></lut2>
						</colorinfo>
						<labels>
							<label2>Cerulean</label2>
						</labels>
					</clipitem>
					<transitionitem>
						<start>34513</start>
						<end>34515</end>
						<alignment>center</alignment>
						<cutPointTicks>4233600000</cutPointTicks>
						<rate>
							<timebase>60</timebase>
							<ntsc>FALSE</ntsc>
						</rate>
						<effect>
							<name>Cross Fade (+3dB)</name>
							<effectid>KGAudioTransCrossFade3dB</effectid>
							<effecttype>transition</effecttype>
							<mediatype>audio</mediatype>
							<wipecode>0</wipecode>
							<wipeaccuracy>100</wipeaccuracy>
							<startratio>0</startratio>
							<endratio>1</endratio>
							<reverse>FALSE</reverse>
						</effect>
					</transitionitem>
					<clipitem id="clipitem-822" premiereChannelType="stereo">
						<masterclipid>masterclip-95</masterclipid>
						<name>BrookePart2_ZOOM0001.WAV</name>
						<enabled>TRUE</enabled>
						<duration>136757</duration>
						<rate>
							<timebase>60</timebase>
							<ntsc>FALSE</ntsc>
						</rate>
						<start>-1</start>
						<end>-1</end>
						<in>111311</in>
						<out>111379</out>
						<pproTicksIn>471246249600000</pproTicksIn>
						<pproTicksOut>471534134400000</pproTicksOut>
						<file id="file-95"/>
						<sourcetrack>
							<mediatype>audio</mediatype>
							<trackindex>2</trackindex>
						</sourcetrack>
						<filter>
							<effect>
								<name>Audio Levels</name>
								<effectid>audiolevels</effectid>
								<effectcategory>audiolevels</effectcategory>
								<effecttype>audiolevels</effecttype>
								<mediatype>audio</mediatype>
								<pproBypass>false</pproBypass>
								<parameter authoringApp="PremierePro">
									<parameterid>level</parameterid>
									<name>Level</name>
									<valuemin>0</valuemin>
									<valuemax>3.98109</valuemax>
									<value>1.87719</value>
									<keyframe>
										<when>111362</when>
										<value>1.87719</value>
									</keyframe>
									<keyframe>
										<when>111379</when>
										<value>0</value>
									</keyframe>
								</parameter>
							</effect>
						</filter>
							<marker>
								<comment></comment>
								<name></name>
								<in>6836</in>
								<out>-1</out>
							</marker>
						<link>
							<linkclipref>clipitem-718</linkclipref>
							<mediatype>audio</mediatype>
							<trackindex>15</trackindex>
							<clipindex>99</clipindex>
							<groupindex>1</groupindex>
						</link>
						<link>
							<linkclipref>clipitem-822</linkclipref>
							<mediatype>audio</mediatype>
							<trackindex>16</trackindex>
							<clipindex>99</clipindex>
							<groupindex>1</groupindex>
						</link>
						<logginginfo>
							<description></description>
							<scene></scene>
							<shottake></shottake>
							<lognote></lognote>
							<good></good>
							<originalvideofilename></originalvideofilename>
							<originalaudiofilename></originalaudiofilename>
						</logginginfo>
						<colorinfo>
							<lut></lut>
							<lut1></lut1>
							<asc_sop></asc_sop>
							<asc_sat></asc_sat>
							<lut2></lut2>
						</colorinfo>
						<labels>
							<label2>Cerulean</label2>
						</labels>
					</clipitem>
					<transitionitem>
						<start>34579</start>
						<end>34581</end>
						<alignment>end-black</alignment>
						<cutPointTicks>8467200000</cutPointTicks>
						<rate>
							<timebase>60</timebase>
							<ntsc>FALSE</ntsc>
						</rate>
						<effect>
							<name>Cross Fade (+3dB)</name>
							<effectid>KGAudioTransCrossFade3dB</effectid>
							<effecttype>transition</effecttype>
							<mediatype>audio</mediatype>
							<wipecode>0</wipecode>
							<wipeaccuracy>100</wipeaccuracy>
							<startratio>0</startratio>
							<endratio>1</endratio>
							<reverse>FALSE</reverse>
						</effect>
					</transitionitem>
					<transitionitem>
						<start>35321</start>
						<end>35323</end>
						<alignment>start-black</alignment>
						<cutPointTicks>0</cutPointTicks>
						<rate>
							<timebase>60</timebase>
							<ntsc>FALSE</ntsc>
						</rate>
						<effect>
							<name>Cross Fade (+3dB)</name>
							<effectid>KGAudioTransCrossFade3dB</effectid>
							<effecttype>transition</effecttype>
							<mediatype>audio</mediatype>
							<wipecode>0</wipecode>
							<wipeaccuracy>100</wipeaccuracy>
							<startratio>0</startratio>
							<endratio>1</endratio>
							<reverse>FALSE</reverse>
						</effect>
					</transitionitem>
					<clipitem id="clipitem-823" premiereChannelType="stereo">
						<masterclipid>masterclip-95</masterclipid>
						<name>BrookePart2_ZOOM0001.WAV</name>
						<enabled>FALSE</enabled>
						<duration>136757</duration>
						<rate>
							<timebase>60</timebase>
							<ntsc>FALSE</ntsc>
						</rate>
						<start>-1</start>
						<end>35535</end>
						<in>108935</in>
						<out>109149</out>
						<pproTicksIn>461187216000000</pproTicksIn>
						<pproTicksOut>462093206400000</pproTicksOut>
						<file id="file-95"/>
						<sourcetrack>
							<mediatype>audio</mediatype>
							<trackindex>2</trackindex>
						</sourcetrack>
						<filter>
							<effect>
								<name>Audio Levels</name>
								<effectid>audiolevels</effectid>
								<effectcategory>audiolevels</effectcategory>
								<effecttype>audiolevels</effecttype>
								<mediatype>audio</mediatype>
								<pproBypass>false</pproBypass>
								<parameter authoringApp="PremierePro">
									<parameterid>level</parameterid>
									<name>Level</name>
									<valuemin>0</valuemin>
									<valuemax>3.98109</valuemax>
									<value>1</value>
									<keyframe>
										<when>108935</when>
										<value>0</value>
									</keyframe>
									<keyframe>
										<when>108969</when>
										<value>1</value>
									</keyframe>
								</parameter>
							</effect>
						</filter>
							<marker>
								<comment></comment>
								<name></name>
								<in>6836</in>
								<out>-1</out>
							</marker>
						<link>
							<linkclipref>clipitem-719</linkclipref>
							<mediatype>audio</mediatype>
							<trackindex>15</trackindex>
							<clipindex>102</clipindex>
							<groupindex>1</groupindex>
						</link>
						<link>
							<linkclipref>clipitem-823</linkclipref>
							<mediatype>audio</mediatype>
							<trackindex>16</trackindex>
							<clipindex>102</clipindex>
							<groupindex>1</groupindex>
						</link>
						<logginginfo>
							<description></description>
							<scene></scene>
							<shottake></shottake>
							<lognote></lognote>
							<good></good>
							<originalvideofilename></originalvideofilename>
							<originalaudiofilename></originalaudiofilename>
						</logginginfo>
						<colorinfo>
							<lut></lut>
							<lut1></lut1>
							<asc_sop></asc_sop>
							<asc_sat></asc_sat>
							<lut2></lut2>
						</colorinfo>
						<labels>
							<label2>Cerulean</label2>
						</labels>
					</clipitem>
					<clipitem id="clipitem-824" premiereChannelType="stereo">
						<masterclipid>masterclip-95</masterclipid>
						<name>BrookePart2_ZOOM0001.WAV</name>
						<enabled>FALSE</enabled>
						<duration>136757</duration>
						<rate>
							<timebase>60</timebase>
							<ntsc>FALSE</ntsc>
						</rate>
						<start>35535</start>
						<end>-1</end>
						<in>109149</in>
						<out>109234</out>
						<pproTicksIn>462093206400000</pproTicksIn>
						<pproTicksOut>462453062400000</pproTicksOut>
						<file id="file-95"/>
						<sourcetrack>
							<mediatype>audio</mediatype>
							<trackindex>2</trackindex>
						</sourcetrack>
						<filter>
							<effect>
								<name>Audio Levels</name>
								<effectid>audiolevels</effectid>
								<effectcategory>audiolevels</effectcategory>
								<effecttype>audiolevels</effecttype>
								<mediatype>audio</mediatype>
								<pproBypass>false</pproBypass>
								<parameter authoringApp="PremierePro">
									<parameterid>level</parameterid>
									<name>Level</name>
									<valuemin>0</valuemin>
									<valuemax>3.98109</valuemax>
									<value>1</value>
									<keyframe>
										<when>108935</when>
										<value>0</value>
									</keyframe>
									<keyframe>
										<when>108969</when>
										<value>1</value>
									</keyframe>
								</parameter>
							</effect>
						</filter>
							<marker>
								<comment></comment>
								<name></name>
								<in>6836</in>
								<out>-1</out>
							</marker>
						<link>
							<linkclipref>clipitem-720</linkclipref>
							<mediatype>audio</mediatype>
							<trackindex>15</trackindex>
							<clipindex>103</clipindex>
							<groupindex>1</groupindex>
						</link>
						<link>
							<linkclipref>clipitem-824</linkclipref>
							<mediatype>audio</mediatype>
							<trackindex>16</trackindex>
							<clipindex>103</clipindex>
							<groupindex>1</groupindex>
						</link>
						<logginginfo>
							<description></description>
							<scene></scene>
							<shottake></shottake>
							<lognote></lognote>
							<good></good>
							<originalvideofilename></originalvideofilename>
							<originalaudiofilename></originalaudiofilename>
						</logginginfo>
						<colorinfo>
							<lut></lut>
							<lut1></lut1>
							<asc_sop></asc_sop>
							<asc_sat></asc_sat>
							<lut2></lut2>
						</colorinfo>
						<labels>
							<label2>Cerulean</label2>
						</labels>
					</clipitem>
					<transitionitem>
						<start>35618</start>
						<end>35620</end>
						<alignment>center</alignment>
						<cutPointTicks>4233600000</cutPointTicks>
						<rate>
							<timebase>60</timebase>
							<ntsc>FALSE</ntsc>
						</rate>
						<effect>
							<name>Cross Fade (+3dB)</name>
							<effectid>KGAudioTransCrossFade3dB</effectid>
							<effecttype>transition</effecttype>
							<mediatype>audio</mediatype>
							<wipecode>0</wipecode>
							<wipeaccuracy>100</wipeaccuracy>
							<startratio>0</startratio>
							<endratio>1</endratio>
							<reverse>FALSE</reverse>
						</effect>
					</transitionitem>
					<clipitem id="clipitem-825" premiereChannelType="stereo">
						<masterclipid>masterclip-95</masterclipid>
						<name>BrookePart2_ZOOM0001.WAV</name>
						<enabled>FALSE</enabled>
						<duration>136757</duration>
						<rate>
							<timebase>60</timebase>
							<ntsc>FALSE</ntsc>
						</rate>
						<start>-1</start>
						<end>-1</end>
						<in>109322</in>
						<out>109519</out>
						<pproTicksIn>462825619200000</pproTicksIn>
						<pproTicksOut>463659638400000</pproTicksOut>
						<file id="file-95"/>
						<sourcetrack>
							<mediatype>audio</mediatype>
							<trackindex>2</trackindex>
						</sourcetrack>
						<filter>
							<effect>
								<name>Audio Levels</name>
								<effectid>audiolevels</effectid>
								<effectcategory>audiolevels</effectcategory>
								<effecttype>audiolevels</effecttype>
								<mediatype>audio</mediatype>
								<pproBypass>false</pproBypass>
								<parameter authoringApp="PremierePro">
									<parameterid>level</parameterid>
									<name>Level</name>
									<valuemin>0</valuemin>
									<valuemax>3.98109</valuemax>
									<value>0.000378549</value>
									<keyframe>
										<when>108935</when>
										<value>0</value>
									</keyframe>
									<keyframe>
										<when>108969</when>
										<value>1</value>
									</keyframe>
									<keyframe>
										<when>109466</when>
										<value>1</value>
									</keyframe>
									<keyframe>
										<when>109519</when>
										<value>0</value>
									</keyframe>
								</parameter>
							</effect>
						</filter>
							<marker>
								<comment></comment>
								<name></name>
								<in>6836</in>
								<out>-1</out>
							</marker>
						<link>
							<linkclipref>clipitem-721</linkclipref>
							<mediatype>audio</mediatype>
							<trackindex>15</trackindex>
							<clipindex>105</clipindex>
							<groupindex>1</groupindex>
						</link>
						<link>
							<linkclipref>clipitem-825</linkclipref>
							<mediatype>audio</mediatype>
							<trackindex>16</trackindex>
							<clipindex>105</clipindex>
							<groupindex>1</groupindex>
						</link>
						<logginginfo>
							<description></description>
							<scene></scene>
							<shottake></shottake>
							<lognote></lognote>
							<good></good>
							<originalvideofilename></originalvideofilename>
							<originalaudiofilename></originalaudiofilename>
						</logginginfo>
						<colorinfo>
							<lut></lut>
							<lut1></lut1>
							<asc_sop></asc_sop>
							<asc_sat></asc_sat>
							<lut2></lut2>
						</colorinfo>
						<labels>
							<label2>Cerulean</label2>
						</labels>
					</clipitem>
					<transitionitem>
						<start>35813</start>
						<end>35815</end>
						<alignment>end-black</alignment>
						<cutPointTicks>8467200000</cutPointTicks>
						<rate>
							<timebase>60</timebase>
							<ntsc>FALSE</ntsc>
						</rate>
						<effect>
							<name>Cross Fade (+3dB)</name>
							<effectid>KGAudioTransCrossFade3dB</effectid>
							<effecttype>transition</effecttype>
							<mediatype>audio</mediatype>
							<wipecode>0</wipecode>
							<wipeaccuracy>100</wipeaccuracy>
							<startratio>0</startratio>
							<endratio>1</endratio>
							<reverse>FALSE</reverse>
						</effect>
					</transitionitem>
					<clipitem id="clipitem-826" premiereChannelType="stereo">
						<masterclipid>masterclip-97</masterclipid>
						<name>K1Pro-Brooke_20180508.WAV</name>
						<enabled>FALSE</enabled>
						<duration>129341</duration>
						<rate>
							<timebase>60</timebase>
							<ntsc>FALSE</ntsc>
						</rate>
						<start>36422</start>
						<end>36686</end>
						<in>78138</in>
						<out>78402</out>
						<pproTicksIn>330805036800000</pproTicksIn>
						<pproTicksOut>331922707200000</pproTicksOut>
						<file id="file-97"/>
						<sourcetrack>
							<mediatype>audio</mediatype>
							<trackindex>2</trackindex>
						</sourcetrack>
							<marker>
								<comment></comment>
								<name></name>
								<in>69901</in>
								<out>-1</out>
							</marker>
							<marker>
								<comment></comment>
								<name></name>
								<in>88491</in>
								<out>-1</out>
							</marker>
							<marker>
								<comment></comment>
								<name></name>
								<in>28153</in>
								<out>-1</out>
							</marker>
							<marker>
								<comment></comment>
								<name></name>
								<in>33835</in>
								<out>-1</out>
							</marker>
						<link>
							<linkclipref>clipitem-722</linkclipref>
							<mediatype>audio</mediatype>
							<trackindex>15</trackindex>
							<clipindex>107</clipindex>
							<groupindex>1</groupindex>
						</link>
						<link>
							<linkclipref>clipitem-826</linkclipref>
							<mediatype>audio</mediatype>
							<trackindex>16</trackindex>
							<clipindex>107</clipindex>
							<groupindex>1</groupindex>
						</link>
						<logginginfo>
							<description></description>
							<scene></scene>
							<shottake></shottake>
							<lognote></lognote>
							<good></good>
							<originalvideofilename></originalvideofilename>
							<originalaudiofilename></originalaudiofilename>
						</logginginfo>
						<colorinfo>
							<lut></lut>
							<lut1></lut1>
							<asc_sop></asc_sop>
							<asc_sat></asc_sat>
							<lut2></lut2>
						</colorinfo>
						<labels>
							<label2>Rose</label2>
						</labels>
					</clipitem>
					<transitionitem>
						<start>37146</start>
						<end>37148</end>
						<alignment>start-black</alignment>
						<cutPointTicks>0</cutPointTicks>
						<rate>
							<timebase>60</timebase>
							<ntsc>FALSE</ntsc>
						</rate>
						<effect>
							<name>Cross Fade (+3dB)</name>
							<effectid>KGAudioTransCrossFade3dB</effectid>
							<effecttype>transition</effecttype>
							<mediatype>audio</mediatype>
							<wipecode>0</wipecode>
							<wipeaccuracy>100</wipeaccuracy>
							<startratio>0</startratio>
							<endratio>1</endratio>
							<reverse>FALSE</reverse>
						</effect>
					</transitionitem>
					<clipitem id="clipitem-827" premiereChannelType="stereo">
						<masterclipid>masterclip-95</masterclipid>
						<name>BrookePart2_ZOOM0001.WAV</name>
						<enabled>FALSE</enabled>
						<duration>136757</duration>
						<rate>
							<timebase>60</timebase>
							<ntsc>FALSE</ntsc>
						</rate>
						<start>-1</start>
						<end>-1</end>
						<in>61492</in>
						<out>61761</out>
						<pproTicksIn>260332531200000</pproTicksIn>
						<pproTicksOut>261471369600000</pproTicksOut>
						<file id="file-95"/>
						<sourcetrack>
							<mediatype>audio</mediatype>
							<trackindex>2</trackindex>
						</sourcetrack>
						<filter>
							<effect>
								<name>Gain</name>
								<effectid>{61756678, 4761696e, 4b657947}</effectid>
								<effecttype>filter</effecttype>
								<mediatype>audio</mediatype>
								<parameter authoringApp="PremierePro">
									<parameterid>Gain(dB)</parameterid>
									<name>Gain(dB)</name>
									<valuemin>-96</valuemin>
									<valuemax>96</valuemax>
									<value>3</value>
								</parameter>
							</effect>
						</filter>
						<filter>
							<effect>
								<name>Audio Levels</name>
								<effectid>audiolevels</effectid>
								<effectcategory>audiolevels</effectcategory>
								<effecttype>audiolevels</effecttype>
								<mediatype>audio</mediatype>
								<pproBypass>false</pproBypass>
								<parameter authoringApp="PremierePro">
									<parameterid>level</parameterid>
									<name>Level</name>
									<valuemin>0</valuemin>
									<valuemax>3.98109</valuemax>
									<value>1</value>
									<keyframe>
										<when>61492</when>
										<value>0</value>
									</keyframe>
									<keyframe>
										<when>61493</when>
										<value>1</value>
									</keyframe>
									<keyframe>
										<when>61819</when>
										<value>1</value>
									</keyframe>
									<keyframe>
										<when>61836</when>
										<value>0</value>
									</keyframe>
								</parameter>
							</effect>
						</filter>
							<marker>
								<comment></comment>
								<name></name>
								<in>6836</in>
								<out>-1</out>
							</marker>
						<link>
							<linkclipref>clipitem-723</linkclipref>
							<mediatype>audio</mediatype>
							<trackindex>15</trackindex>
							<clipindex>109</clipindex>
							<groupindex>1</groupindex>
						</link>
						<link>
							<linkclipref>clipitem-827</linkclipref>
							<mediatype>audio</mediatype>
							<trackindex>16</trackindex>
							<clipindex>109</clipindex>
							<groupindex>1</groupindex>
						</link>
						<logginginfo>
							<description></description>
							<scene></scene>
							<shottake></shottake>
							<lognote></lognote>
							<good></good>
							<originalvideofilename></originalvideofilename>
							<originalaudiofilename></originalaudiofilename>
						</logginginfo>
						<colorinfo>
							<lut></lut>
							<lut1></lut1>
							<asc_sop></asc_sop>
							<asc_sat></asc_sat>
							<lut2></lut2>
						</colorinfo>
						<labels>
							<label2>Cerulean</label2>
						</labels>
					</clipitem>
					<transitionitem>
						<start>37413</start>
						<end>37415</end>
						<alignment>center</alignment>
						<cutPointTicks>4233600000</cutPointTicks>
						<rate>
							<timebase>60</timebase>
							<ntsc>FALSE</ntsc>
						</rate>
						<effect>
							<name>Cross Fade (+3dB)</name>
							<effectid>KGAudioTransCrossFade3dB</effectid>
							<effecttype>transition</effecttype>
							<mediatype>audio</mediatype>
							<wipecode>0</wipecode>
							<wipeaccuracy>100</wipeaccuracy>
							<startratio>0</startratio>
							<endratio>1</endratio>
							<reverse>FALSE</reverse>
						</effect>
					</transitionitem>
					<clipitem id="clipitem-828" premiereChannelType="stereo">
						<masterclipid>masterclip-95</masterclipid>
						<name>BrookePart2_ZOOM0001.WAV</name>
						<enabled>FALSE</enabled>
						<duration>136757</duration>
						<rate>
							<timebase>60</timebase>
							<ntsc>FALSE</ntsc>
						</rate>
						<start>-1</start>
						<end>-1</end>
						<in>61787</in>
						<out>61846</out>
						<pproTicksIn>261581443200000</pproTicksIn>
						<pproTicksOut>261831225600000</pproTicksOut>
						<file id="file-95"/>
						<sourcetrack>
							<mediatype>audio</mediatype>
							<trackindex>2</trackindex>
						</sourcetrack>
						<filter>
							<effect>
								<name>Gain</name>
								<effectid>{61756678, 4761696e, 4b657947}</effectid>
								<effecttype>filter</effecttype>
								<mediatype>audio</mediatype>
								<parameter authoringApp="PremierePro">
									<parameterid>Gain(dB)</parameterid>
									<name>Gain(dB)</name>
									<valuemin>-96</valuemin>
									<valuemax>96</valuemax>
									<value>3</value>
								</parameter>
							</effect>
						</filter>
						<filter>
							<effect>
								<name>Audio Levels</name>
								<effectid>audiolevels</effectid>
								<effectcategory>audiolevels</effectcategory>
								<effecttype>audiolevels</effecttype>
								<mediatype>audio</mediatype>
								<pproBypass>false</pproBypass>
								<parameter authoringApp="PremierePro">
									<parameterid>level</parameterid>
									<name>Level</name>
									<valuemin>0</valuemin>
									<valuemax>3.98109</valuemax>
									<value>1</value>
									<keyframe>
										<when>61492</when>
										<value>0</value>
									</keyframe>
									<keyframe>
										<when>61493</when>
										<value>1</value>
									</keyframe>
									<keyframe>
										<when>61819</when>
										<value>1</value>
									</keyframe>
									<keyframe>
										<when>61836</when>
										<value>0</value>
									</keyframe>
								</parameter>
							</effect>
						</filter>
							<marker>
								<comment></comment>
								<name></name>
								<in>6836</in>
								<out>-1</out>
							</marker>
						<link>
							<linkclipref>clipitem-724</linkclipref>
							<mediatype>audio</mediatype>
							<trackindex>15</trackindex>
							<clipindex>111</clipindex>
							<groupindex>1</groupindex>
						</link>
						<link>
							<linkclipref>clipitem-828</linkclipref>
							<mediatype>audio</mediatype>
							<trackindex>16</trackindex>
							<clipindex>111</clipindex>
							<groupindex>1</groupindex>
						</link>
						<logginginfo>
							<description></description>
							<scene></scene>
							<shottake></shottake>
							<lognote></lognote>
							<good></good>
							<originalvideofilename></originalvideofilename>
							<originalaudiofilename></originalaudiofilename>
						</logginginfo>
						<colorinfo>
							<lut></lut>
							<lut1></lut1>
							<asc_sop></asc_sop>
							<asc_sat></asc_sat>
							<lut2></lut2>
						</colorinfo>
						<labels>
							<label2>Cerulean</label2>
						</labels>
					</clipitem>
					<transitionitem>
						<start>37470</start>
						<end>37472</end>
						<alignment>end-black</alignment>
						<cutPointTicks>8467200000</cutPointTicks>
						<rate>
							<timebase>60</timebase>
							<ntsc>FALSE</ntsc>
						</rate>
						<effect>
							<name>Cross Fade (+3dB)</name>
							<effectid>KGAudioTransCrossFade3dB</effectid>
							<effecttype>transition</effecttype>
							<mediatype>audio</mediatype>
							<wipecode>0</wipecode>
							<wipeaccuracy>100</wipeaccuracy>
							<startratio>0</startratio>
							<endratio>1</endratio>
							<reverse>FALSE</reverse>
						</effect>
					</transitionitem>
					<clipitem id="clipitem-829" premiereChannelType="stereo">
						<masterclipid>masterclip-97</masterclipid>
						<name>K1Pro-Brooke_20180508.WAV</name>
						<enabled>FALSE</enabled>
						<duration>129341</duration>
						<rate>
							<timebase>60</timebase>
							<ntsc>FALSE</ntsc>
						</rate>
						<start>38985</start>
						<end>39403</end>
						<in>88499</in>
						<out>88917</out>
						<pproTicksIn>374669366400000</pproTicksIn>
						<pproTicksOut>376439011200000</pproTicksOut>
						<file id="file-97"/>
						<sourcetrack>
							<mediatype>audio</mediatype>
							<trackindex>2</trackindex>
						</sourcetrack>
							<marker>
								<comment></comment>
								<name></name>
								<in>69901</in>
								<out>-1</out>
							</marker>
							<marker>
								<comment></comment>
								<name></name>
								<in>88491</in>
								<out>-1</out>
							</marker>
							<marker>
								<comment></comment>
								<name></name>
								<in>28153</in>
								<out>-1</out>
							</marker>
							<marker>
								<comment></comment>
								<name></name>
								<in>33835</in>
								<out>-1</out>
							</marker>
						<link>
							<linkclipref>clipitem-725</linkclipref>
							<mediatype>audio</mediatype>
							<trackindex>15</trackindex>
							<clipindex>113</clipindex>
							<groupindex>1</groupindex>
						</link>
						<link>
							<linkclipref>clipitem-829</linkclipref>
							<mediatype>audio</mediatype>
							<trackindex>16</trackindex>
							<clipindex>113</clipindex>
							<groupindex>1</groupindex>
						</link>
						<logginginfo>
							<description></description>
							<scene></scene>
							<shottake></shottake>
							<lognote></lognote>
							<good></good>
							<originalvideofilename></originalvideofilename>
							<originalaudiofilename></originalaudiofilename>
						</logginginfo>
						<colorinfo>
							<lut></lut>
							<lut1></lut1>
							<asc_sop></asc_sop>
							<asc_sat></asc_sat>
							<lut2></lut2>
						</colorinfo>
						<labels>
							<label2>Green</label2>
						</labels>
					</clipitem>
					<clipitem id="clipitem-830" premiereChannelType="stereo">
						<masterclipid>masterclip-95</masterclipid>
						<name>BrookePart2_ZOOM0001.WAV</name>
						<enabled>TRUE</enabled>
						<duration>136757</duration>
						<rate>
							<timebase>60</timebase>
							<ntsc>FALSE</ntsc>
						</rate>
						<start>39524</start>
						<end>40101</end>
						<in>37486</in>
						<out>38063</out>
						<pproTicksIn>158700729600000</pproTicksIn>
						<pproTicksOut>161143516800000</pproTicksOut>
						<file id="file-95"/>
						<sourcetrack>
							<mediatype>audio</mediatype>
							<trackindex>2</trackindex>
						</sourcetrack>
						<filter>
							<effect>
								<name>Audio Levels</name>
								<effectid>audiolevels</effectid>
								<effectcategory>audiolevels</effectcategory>
								<effecttype>audiolevels</effecttype>
								<mediatype>audio</mediatype>
								<pproBypass>false</pproBypass>
								<parameter authoringApp="PremierePro">
									<parameterid>level</parameterid>
									<name>Level</name>
									<valuemin>0</valuemin>
									<valuemax>3.98109</valuemax>
									<value>0</value>
									<keyframe>
										<when>37491</when>
										<value>0</value>
									</keyframe>
									<keyframe>
										<when>37506</when>
										<value>1</value>
									</keyframe>
									<keyframe>
										<when>38028</when>
										<value>1</value>
									</keyframe>
									<keyframe>
										<when>38059</when>
										<value>0</value>
									</keyframe>
								</parameter>
							</effect>
						</filter>
							<marker>
								<comment></comment>
								<name></name>
								<in>6836</in>
								<out>-1</out>
							</marker>
						<link>
							<linkclipref>clipitem-726</linkclipref>
							<mediatype>audio</mediatype>
							<trackindex>15</trackindex>
							<clipindex>114</clipindex>
							<groupindex>1</groupindex>
						</link>
						<link>
							<linkclipref>clipitem-830</linkclipref>
							<mediatype>audio</mediatype>
							<trackindex>16</trackindex>
							<clipindex>114</clipindex>
							<groupindex>1</groupindex>
						</link>
						<logginginfo>
							<description></description>
							<scene></scene>
							<shottake></shottake>
							<lognote></lognote>
							<good></good>
							<originalvideofilename></originalvideofilename>
							<originalaudiofilename></originalaudiofilename>
						</logginginfo>
						<colorinfo>
							<lut></lut>
							<lut1></lut1>
							<asc_sop></asc_sop>
							<asc_sat></asc_sat>
							<lut2></lut2>
						</colorinfo>
						<labels>
							<label2>Green</label2>
						</labels>
					</clipitem>
					<clipitem id="clipitem-831" premiereChannelType="stereo">
						<masterclipid>masterclip-95</masterclipid>
						<name>BrookePart2_ZOOM0001.WAV</name>
						<enabled>FALSE</enabled>
						<duration>136757</duration>
						<rate>
							<timebase>60</timebase>
							<ntsc>FALSE</ntsc>
						</rate>
						<start>40759</start>
						<end>40939</end>
						<in>127170</in>
						<out>127350</out>
						<pproTicksIn>538386912000000</pproTicksIn>
						<pproTicksOut>539148960000000</pproTicksOut>
						<file id="file-95"/>
						<sourcetrack>
							<mediatype>audio</mediatype>
							<trackindex>2</trackindex>
						</sourcetrack>
							<marker>
								<comment></comment>
								<name></name>
								<in>6836</in>
								<out>-1</out>
							</marker>
						<link>
							<linkclipref>clipitem-727</linkclipref>
							<mediatype>audio</mediatype>
							<trackindex>15</trackindex>
							<clipindex>115</clipindex>
							<groupindex>1</groupindex>
						</link>
						<link>
							<linkclipref>clipitem-831</linkclipref>
							<mediatype>audio</mediatype>
							<trackindex>16</trackindex>
							<clipindex>115</clipindex>
							<groupindex>1</groupindex>
						</link>
						<logginginfo>
							<description></description>
							<scene></scene>
							<shottake></shottake>
							<lognote></lognote>
							<good></good>
							<originalvideofilename></originalvideofilename>
							<originalaudiofilename></originalaudiofilename>
						</logginginfo>
						<colorinfo>
							<lut></lut>
							<lut1></lut1>
							<asc_sop></asc_sop>
							<asc_sat></asc_sat>
							<lut2></lut2>
						</colorinfo>
						<labels>
							<label2>Green</label2>
						</labels>
					</clipitem>
					<clipitem id="clipitem-832" premiereChannelType="stereo">
						<masterclipid>masterclip-95</masterclipid>
						<name>BrookePart2_ZOOM0001.WAV</name>
						<enabled>FALSE</enabled>
						<duration>136757</duration>
						<rate>
							<timebase>60</timebase>
							<ntsc>FALSE</ntsc>
						</rate>
						<start>41008</start>
						<end>41191</end>
						<in>91542</in>
						<out>91725</out>
						<pproTicksIn>387552211200000</pproTicksIn>
						<pproTicksOut>388326960000000</pproTicksOut>
						<file id="file-95"/>
						<sourcetrack>
							<mediatype>audio</mediatype>
							<trackindex>2</trackindex>
						</sourcetrack>
							<marker>
								<comment></comment>
								<name></name>
								<in>6836</in>
								<out>-1</out>
							</marker>
						<link>
							<linkclipref>clipitem-728</linkclipref>
							<mediatype>audio</mediatype>
							<trackindex>15</trackindex>
							<clipindex>116</clipindex>
							<groupindex>1</groupindex>
						</link>
						<link>
							<linkclipref>clipitem-832</linkclipref>
							<mediatype>audio</mediatype>
							<trackindex>16</trackindex>
							<clipindex>116</clipindex>
							<groupindex>1</groupindex>
						</link>
						<logginginfo>
							<description></description>
							<scene></scene>
							<shottake></shottake>
							<lognote></lognote>
							<good></good>
							<originalvideofilename></originalvideofilename>
							<originalaudiofilename></originalaudiofilename>
						</logginginfo>
						<colorinfo>
							<lut></lut>
							<lut1></lut1>
							<asc_sop></asc_sop>
							<asc_sat></asc_sat>
							<lut2></lut2>
						</colorinfo>
						<labels>
							<label2>Green</label2>
						</labels>
					</clipitem>
					<clipitem id="clipitem-833" premiereChannelType="stereo">
						<masterclipid>masterclip-95</masterclipid>
						<name>BrookePart2_ZOOM0001.WAV</name>
						<enabled>FALSE</enabled>
						<duration>136757</duration>
						<rate>
							<timebase>60</timebase>
							<ntsc>FALSE</ntsc>
						</rate>
						<start>41239</start>
						<end>41473</end>
						<in>54402</in>
						<out>54636</out>
						<pproTicksIn>230316307200000</pproTicksIn>
						<pproTicksOut>231306969600000</pproTicksOut>
						<file id="file-95"/>
						<sourcetrack>
							<mediatype>audio</mediatype>
							<trackindex>2</trackindex>
						</sourcetrack>
							<marker>
								<comment></comment>
								<name></name>
								<in>6836</in>
								<out>-1</out>
							</marker>
						<link>
							<linkclipref>clipitem-729</linkclipref>
							<mediatype>audio</mediatype>
							<trackindex>15</trackindex>
							<clipindex>117</clipindex>
							<groupindex>1</groupindex>
						</link>
						<link>
							<linkclipref>clipitem-833</linkclipref>
							<mediatype>audio</mediatype>
							<trackindex>16</trackindex>
							<clipindex>117</clipindex>
							<groupindex>1</groupindex>
						</link>
						<logginginfo>
							<description></description>
							<scene></scene>
							<shottake></shottake>
							<lognote></lognote>
							<good></good>
							<originalvideofilename></originalvideofilename>
							<originalaudiofilename></originalaudiofilename>
						</logginginfo>
						<colorinfo>
							<lut></lut>
							<lut1></lut1>
							<asc_sop></asc_sop>
							<asc_sat></asc_sat>
							<lut2></lut2>
						</colorinfo>
						<labels>
							<label2>Green</label2>
						</labels>
					</clipitem>
					<transitionitem>
						<start>44077</start>
						<end>44079</end>
						<alignment>start-black</alignment>
						<cutPointTicks>0</cutPointTicks>
						<rate>
							<timebase>60</timebase>
							<ntsc>FALSE</ntsc>
						</rate>
						<effect>
							<name>Cross Fade (+3dB)</name>
							<effectid>KGAudioTransCrossFade3dB</effectid>
							<effecttype>transition</effecttype>
							<mediatype>audio</mediatype>
							<wipecode>0</wipecode>
							<wipeaccuracy>100</wipeaccuracy>
							<startratio>0</startratio>
							<endratio>1</endratio>
							<reverse>FALSE</reverse>
						</effect>
					</transitionitem>
					<clipitem id="clipitem-834" premiereChannelType="stereo">
						<masterclipid>masterclip-97</masterclipid>
						<name>K1Pro-Brooke_20180508.WAV</name>
						<enabled>TRUE</enabled>
						<duration>129341</duration>
						<rate>
							<timebase>60</timebase>
							<ntsc>FALSE</ntsc>
						</rate>
						<start>-1</start>
						<end>-1</end>
						<in>115628</in>
						<out>115698</out>
						<pproTicksIn>489522700800000</pproTicksIn>
						<pproTicksOut>489819052800000</pproTicksOut>
						<file id="file-97"/>
						<sourcetrack>
							<mediatype>audio</mediatype>
							<trackindex>2</trackindex>
						</sourcetrack>
							<marker>
								<comment></comment>
								<name></name>
								<in>69901</in>
								<out>-1</out>
							</marker>
							<marker>
								<comment></comment>
								<name></name>
								<in>88491</in>
								<out>-1</out>
							</marker>
							<marker>
								<comment></comment>
								<name></name>
								<in>28153</in>
								<out>-1</out>
							</marker>
							<marker>
								<comment></comment>
								<name></name>
								<in>33835</in>
								<out>-1</out>
							</marker>
						<link>
							<linkclipref>clipitem-730</linkclipref>
							<mediatype>audio</mediatype>
							<trackindex>15</trackindex>
							<clipindex>119</clipindex>
							<groupindex>1</groupindex>
						</link>
						<link>
							<linkclipref>clipitem-834</linkclipref>
							<mediatype>audio</mediatype>
							<trackindex>16</trackindex>
							<clipindex>119</clipindex>
							<groupindex>1</groupindex>
						</link>
						<logginginfo>
							<description></description>
							<scene></scene>
							<shottake></shottake>
							<lognote></lognote>
							<good></good>
							<originalvideofilename></originalvideofilename>
							<originalaudiofilename></originalaudiofilename>
						</logginginfo>
						<colorinfo>
							<lut></lut>
							<lut1></lut1>
							<asc_sop></asc_sop>
							<asc_sat></asc_sat>
							<lut2></lut2>
						</colorinfo>
						<labels>
							<label2>Rose</label2>
						</labels>
					</clipitem>
					<transitionitem>
						<start>44145</start>
						<end>44147</end>
						<alignment>center</alignment>
						<cutPointTicks>4233600000</cutPointTicks>
						<rate>
							<timebase>60</timebase>
							<ntsc>FALSE</ntsc>
						</rate>
						<effect>
							<name>Cross Fade (+3dB)</name>
							<effectid>KGAudioTransCrossFade3dB</effectid>
							<effecttype>transition</effecttype>
							<mediatype>audio</mediatype>
							<wipecode>0</wipecode>
							<wipeaccuracy>100</wipeaccuracy>
							<startratio>0</startratio>
							<endratio>1</endratio>
							<reverse>FALSE</reverse>
						</effect>
					</transitionitem>
					<clipitem id="clipitem-835" premiereChannelType="stereo">
						<masterclipid>masterclip-97</masterclipid>
						<name>K1Pro-Brooke_20180508.WAV</name>
						<enabled>TRUE</enabled>
						<duration>129341</duration>
						<rate>
							<timebase>60</timebase>
							<ntsc>FALSE</ntsc>
						</rate>
						<start>-1</start>
						<end>-1</end>
						<in>115705</in>
						<out>115732</out>
						<pproTicksIn>489848688000000</pproTicksIn>
						<pproTicksOut>489962995200000</pproTicksOut>
						<file id="file-97"/>
						<sourcetrack>
							<mediatype>audio</mediatype>
							<trackindex>2</trackindex>
						</sourcetrack>
						<filter>
							<effect>
								<name>Audio Levels</name>
								<effectid>audiolevels</effectid>
								<effectcategory>audiolevels</effectcategory>
								<effecttype>audiolevels</effecttype>
								<mediatype>audio</mediatype>
								<pproBypass>false</pproBypass>
								<parameter authoringApp="PremierePro">
									<parameterid>level</parameterid>
									<name>Level</name>
									<valuemin>0</valuemin>
									<valuemax>3.98109</valuemax>
									<value>1.5625</value>
								</parameter>
							</effect>
						</filter>
							<marker>
								<comment></comment>
								<name></name>
								<in>69901</in>
								<out>-1</out>
							</marker>
							<marker>
								<comment></comment>
								<name></name>
								<in>88491</in>
								<out>-1</out>
							</marker>
							<marker>
								<comment></comment>
								<name></name>
								<in>28153</in>
								<out>-1</out>
							</marker>
							<marker>
								<comment></comment>
								<name></name>
								<in>33835</in>
								<out>-1</out>
							</marker>
						<link>
							<linkclipref>clipitem-731</linkclipref>
							<mediatype>audio</mediatype>
							<trackindex>15</trackindex>
							<clipindex>121</clipindex>
							<groupindex>1</groupindex>
						</link>
						<link>
							<linkclipref>clipitem-835</linkclipref>
							<mediatype>audio</mediatype>
							<trackindex>16</trackindex>
							<clipindex>121</clipindex>
							<groupindex>1</groupindex>
						</link>
						<logginginfo>
							<description></description>
							<scene></scene>
							<shottake></shottake>
							<lognote></lognote>
							<good></good>
							<originalvideofilename></originalvideofilename>
							<originalaudiofilename></originalaudiofilename>
						</logginginfo>
						<colorinfo>
							<lut></lut>
							<lut1></lut1>
							<asc_sop></asc_sop>
							<asc_sat></asc_sat>
							<lut2></lut2>
						</colorinfo>
						<labels>
							<label2>Rose</label2>
						</labels>
					</clipitem>
					<transitionitem>
						<start>44170</start>
						<end>44172</end>
						<alignment>center</alignment>
						<cutPointTicks>4233600000</cutPointTicks>
						<rate>
							<timebase>60</timebase>
							<ntsc>FALSE</ntsc>
						</rate>
						<effect>
							<name>Cross Fade (+3dB)</name>
							<effectid>KGAudioTransCrossFade3dB</effectid>
							<effecttype>transition</effecttype>
							<mediatype>audio</mediatype>
							<wipecode>0</wipecode>
							<wipeaccuracy>100</wipeaccuracy>
							<startratio>0</startratio>
							<endratio>1</endratio>
							<reverse>FALSE</reverse>
						</effect>
					</transitionitem>
					<clipitem id="clipitem-836" premiereChannelType="stereo">
						<masterclipid>masterclip-97</masterclipid>
						<name>K1Pro-Brooke_20180508.WAV</name>
						<enabled>TRUE</enabled>
						<duration>129341</duration>
						<rate>
							<timebase>60</timebase>
							<ntsc>FALSE</ntsc>
						</rate>
						<start>-1</start>
						<end>-1</end>
						<in>115786</in>
						<out>115941</out>
						<pproTicksIn>490191609600000</pproTicksIn>
						<pproTicksOut>490847817600000</pproTicksOut>
						<file id="file-97"/>
						<sourcetrack>
							<mediatype>audio</mediatype>
							<trackindex>2</trackindex>
						</sourcetrack>
							<marker>
								<comment></comment>
								<name></name>
								<in>69901</in>
								<out>-1</out>
							</marker>
							<marker>
								<comment></comment>
								<name></name>
								<in>88491</in>
								<out>-1</out>
							</marker>
							<marker>
								<comment></comment>
								<name></name>
								<in>28153</in>
								<out>-1</out>
							</marker>
							<marker>
								<comment></comment>
								<name></name>
								<in>33835</in>
								<out>-1</out>
							</marker>
						<link>
							<linkclipref>clipitem-732</linkclipref>
							<mediatype>audio</mediatype>
							<trackindex>15</trackindex>
							<clipindex>123</clipindex>
							<groupindex>1</groupindex>
						</link>
						<link>
							<linkclipref>clipitem-836</linkclipref>
							<mediatype>audio</mediatype>
							<trackindex>16</trackindex>
							<clipindex>123</clipindex>
							<groupindex>1</groupindex>
						</link>
						<logginginfo>
							<description></description>
							<scene></scene>
							<shottake></shottake>
							<lognote></lognote>
							<good></good>
							<originalvideofilename></originalvideofilename>
							<originalaudiofilename></originalaudiofilename>
						</logginginfo>
						<colorinfo>
							<lut></lut>
							<lut1></lut1>
							<asc_sop></asc_sop>
							<asc_sat></asc_sat>
							<lut2></lut2>
						</colorinfo>
						<labels>
							<label2>Rose</label2>
						</labels>
					</clipitem>
					<transitionitem>
						<start>44323</start>
						<end>44325</end>
						<alignment>center</alignment>
						<cutPointTicks>4233600000</cutPointTicks>
						<rate>
							<timebase>60</timebase>
							<ntsc>FALSE</ntsc>
						</rate>
						<effect>
							<name>Cross Fade (+3dB)</name>
							<effectid>KGAudioTransCrossFade3dB</effectid>
							<effecttype>transition</effecttype>
							<mediatype>audio</mediatype>
							<wipecode>0</wipecode>
							<wipeaccuracy>100</wipeaccuracy>
							<startratio>0</startratio>
							<endratio>1</endratio>
							<reverse>FALSE</reverse>
						</effect>
					</transitionitem>
					<clipitem id="clipitem-837" premiereChannelType="stereo">
						<masterclipid>masterclip-97</masterclipid>
						<name>K1Pro-Brooke_20180508.WAV</name>
						<enabled>TRUE</enabled>
						<duration>129341</duration>
						<rate>
							<timebase>60</timebase>
							<ntsc>FALSE</ntsc>
						</rate>
						<start>-1</start>
						<end>44560</end>
						<in>116104</in>
						<out>116341</out>
						<pproTicksIn>491537894400000</pproTicksIn>
						<pproTicksOut>492541257600000</pproTicksOut>
						<file id="file-97"/>
						<sourcetrack>
							<mediatype>audio</mediatype>
							<trackindex>2</trackindex>
						</sourcetrack>
							<marker>
								<comment></comment>
								<name></name>
								<in>69901</in>
								<out>-1</out>
							</marker>
							<marker>
								<comment></comment>
								<name></name>
								<in>88491</in>
								<out>-1</out>
							</marker>
							<marker>
								<comment></comment>
								<name></name>
								<in>28153</in>
								<out>-1</out>
							</marker>
							<marker>
								<comment></comment>
								<name></name>
								<in>33835</in>
								<out>-1</out>
							</marker>
						<link>
							<linkclipref>clipitem-733</linkclipref>
							<mediatype>audio</mediatype>
							<trackindex>15</trackindex>
							<clipindex>125</clipindex>
							<groupindex>1</groupindex>
						</link>
						<link>
							<linkclipref>clipitem-837</linkclipref>
							<mediatype>audio</mediatype>
							<trackindex>16</trackindex>
							<clipindex>125</clipindex>
							<groupindex>1</groupindex>
						</link>
						<logginginfo>
							<description></description>
							<scene></scene>
							<shottake></shottake>
							<lognote></lognote>
							<good></good>
							<originalvideofilename></originalvideofilename>
							<originalaudiofilename></originalaudiofilename>
						</logginginfo>
						<colorinfo>
							<lut></lut>
							<lut1></lut1>
							<asc_sop></asc_sop>
							<asc_sat></asc_sat>
							<lut2></lut2>
						</colorinfo>
						<labels>
							<label2>Rose</label2>
						</labels>
					</clipitem>
					<clipitem id="clipitem-838" premiereChannelType="stereo">
						<masterclipid>masterclip-97</masterclipid>
						<name>K1Pro-Brooke_20180508.WAV</name>
						<enabled>TRUE</enabled>
						<duration>129341</duration>
						<rate>
							<timebase>60</timebase>
							<ntsc>FALSE</ntsc>
						</rate>
						<start>44560</start>
						<end>-1</end>
						<in>116452</in>
						<out>116848</out>
						<pproTicksIn>493011187200000</pproTicksIn>
						<pproTicksOut>494687692800000</pproTicksOut>
						<file id="file-97"/>
						<sourcetrack>
							<mediatype>audio</mediatype>
							<trackindex>2</trackindex>
						</sourcetrack>
							<marker>
								<comment></comment>
								<name></name>
								<in>69901</in>
								<out>-1</out>
							</marker>
							<marker>
								<comment></comment>
								<name></name>
								<in>88491</in>
								<out>-1</out>
							</marker>
							<marker>
								<comment></comment>
								<name></name>
								<in>28153</in>
								<out>-1</out>
							</marker>
							<marker>
								<comment></comment>
								<name></name>
								<in>33835</in>
								<out>-1</out>
							</marker>
						<link>
							<linkclipref>clipitem-734</linkclipref>
							<mediatype>audio</mediatype>
							<trackindex>15</trackindex>
							<clipindex>126</clipindex>
							<groupindex>1</groupindex>
						</link>
						<link>
							<linkclipref>clipitem-838</linkclipref>
							<mediatype>audio</mediatype>
							<trackindex>16</trackindex>
							<clipindex>126</clipindex>
							<groupindex>1</groupindex>
						</link>
						<logginginfo>
							<description></description>
							<scene></scene>
							<shottake></shottake>
							<lognote></lognote>
							<good></good>
							<originalvideofilename></originalvideofilename>
							<originalaudiofilename></originalaudiofilename>
						</logginginfo>
						<colorinfo>
							<lut></lut>
							<lut1></lut1>
							<asc_sop></asc_sop>
							<asc_sat></asc_sat>
							<lut2></lut2>
						</colorinfo>
						<labels>
							<label2>Rose</label2>
						</labels>
					</clipitem>
					<transitionitem>
						<start>44954</start>
						<end>44956</end>
						<alignment>center</alignment>
						<cutPointTicks>4233600000</cutPointTicks>
						<rate>
							<timebase>60</timebase>
							<ntsc>FALSE</ntsc>
						</rate>
						<effect>
							<name>Cross Fade (+3dB)</name>
							<effectid>KGAudioTransCrossFade3dB</effectid>
							<effecttype>transition</effecttype>
							<mediatype>audio</mediatype>
							<wipecode>0</wipecode>
							<wipeaccuracy>100</wipeaccuracy>
							<startratio>0</startratio>
							<endratio>1</endratio>
							<reverse>FALSE</reverse>
						</effect>
					</transitionitem>
					<clipitem id="clipitem-839" premiereChannelType="stereo">
						<masterclipid>masterclip-97</masterclipid>
						<name>K1Pro-Brooke_20180508.WAV</name>
						<enabled>TRUE</enabled>
						<duration>129341</duration>
						<rate>
							<timebase>60</timebase>
							<ntsc>FALSE</ntsc>
						</rate>
						<start>-1</start>
						<end>-1</end>
						<in>116912</in>
						<out>117063</out>
						<pproTicksIn>494958643200000</pproTicksIn>
						<pproTicksOut>495597916800000</pproTicksOut>
						<file id="file-97"/>
						<sourcetrack>
							<mediatype>audio</mediatype>
							<trackindex>2</trackindex>
						</sourcetrack>
							<marker>
								<comment></comment>
								<name></name>
								<in>69901</in>
								<out>-1</out>
							</marker>
							<marker>
								<comment></comment>
								<name></name>
								<in>88491</in>
								<out>-1</out>
							</marker>
							<marker>
								<comment></comment>
								<name></name>
								<in>28153</in>
								<out>-1</out>
							</marker>
							<marker>
								<comment></comment>
								<name></name>
								<in>33835</in>
								<out>-1</out>
							</marker>
						<link>
							<linkclipref>clipitem-735</linkclipref>
							<mediatype>audio</mediatype>
							<trackindex>15</trackindex>
							<clipindex>128</clipindex>
							<groupindex>1</groupindex>
						</link>
						<link>
							<linkclipref>clipitem-839</linkclipref>
							<mediatype>audio</mediatype>
							<trackindex>16</trackindex>
							<clipindex>128</clipindex>
							<groupindex>1</groupindex>
						</link>
						<logginginfo>
							<description></description>
							<scene></scene>
							<shottake></shottake>
							<lognote></lognote>
							<good></good>
							<originalvideofilename></originalvideofilename>
							<originalaudiofilename></originalaudiofilename>
						</logginginfo>
						<colorinfo>
							<lut></lut>
							<lut1></lut1>
							<asc_sop></asc_sop>
							<asc_sat></asc_sat>
							<lut2></lut2>
						</colorinfo>
						<labels>
							<label2>Rose</label2>
						</labels>
					</clipitem>
					<transitionitem>
						<start>45103</start>
						<end>45105</end>
						<alignment>center</alignment>
						<cutPointTicks>4233600000</cutPointTicks>
						<rate>
							<timebase>60</timebase>
							<ntsc>FALSE</ntsc>
						</rate>
						<effect>
							<name>Cross Fade (+3dB)</name>
							<effectid>KGAudioTransCrossFade3dB</effectid>
							<effecttype>transition</effecttype>
							<mediatype>audio</mediatype>
							<wipecode>0</wipecode>
							<wipeaccuracy>100</wipeaccuracy>
							<startratio>0</startratio>
							<endratio>1</endratio>
							<reverse>FALSE</reverse>
						</effect>
					</transitionitem>
					<clipitem id="clipitem-840" premiereChannelType="stereo">
						<masterclipid>masterclip-97</masterclipid>
						<name>K1Pro-Brooke_20180508.WAV</name>
						<enabled>TRUE</enabled>
						<duration>129341</duration>
						<rate>
							<timebase>60</timebase>
							<ntsc>FALSE</ntsc>
						</rate>
						<start>-1</start>
						<end>-1</end>
						<in>117108</in>
						<out>117294</out>
						<pproTicksIn>495788428800000</pproTicksIn>
						<pproTicksOut>496575878400000</pproTicksOut>
						<file id="file-97"/>
						<sourcetrack>
							<mediatype>audio</mediatype>
							<trackindex>2</trackindex>
						</sourcetrack>
							<marker>
								<comment></comment>
								<name></name>
								<in>69901</in>
								<out>-1</out>
							</marker>
							<marker>
								<comment></comment>
								<name></name>
								<in>88491</in>
								<out>-1</out>
							</marker>
							<marker>
								<comment></comment>
								<name></name>
								<in>28153</in>
								<out>-1</out>
							</marker>
							<marker>
								<comment></comment>
								<name></name>
								<in>33835</in>
								<out>-1</out>
							</marker>
						<link>
							<linkclipref>clipitem-736</linkclipref>
							<mediatype>audio</mediatype>
							<trackindex>15</trackindex>
							<clipindex>130</clipindex>
							<groupindex>1</groupindex>
						</link>
						<link>
							<linkclipref>clipitem-840</linkclipref>
							<mediatype>audio</mediatype>
							<trackindex>16</trackindex>
							<clipindex>130</clipindex>
							<groupindex>1</groupindex>
						</link>
						<logginginfo>
							<description></description>
							<scene></scene>
							<shottake></shottake>
							<lognote></lognote>
							<good></good>
							<originalvideofilename></originalvideofilename>
							<originalaudiofilename></originalaudiofilename>
						</logginginfo>
						<colorinfo>
							<lut></lut>
							<lut1></lut1>
							<asc_sop></asc_sop>
							<asc_sat></asc_sat>
							<lut2></lut2>
						</colorinfo>
						<labels>
							<label2>Rose</label2>
						</labels>
					</clipitem>
					<transitionitem>
						<start>45287</start>
						<end>45289</end>
						<alignment>end-black</alignment>
						<cutPointTicks>8467200000</cutPointTicks>
						<rate>
							<timebase>60</timebase>
							<ntsc>FALSE</ntsc>
						</rate>
						<effect>
							<name>Cross Fade (+3dB)</name>
							<effectid>KGAudioTransCrossFade3dB</effectid>
							<effecttype>transition</effecttype>
							<mediatype>audio</mediatype>
							<wipecode>0</wipecode>
							<wipeaccuracy>100</wipeaccuracy>
							<startratio>0</startratio>
							<endratio>1</endratio>
							<reverse>FALSE</reverse>
						</effect>
					</transitionitem>
					<transitionitem>
						<start>48880</start>
						<end>48882</end>
						<alignment>start-black</alignment>
						<cutPointTicks>0</cutPointTicks>
						<rate>
							<timebase>60</timebase>
							<ntsc>FALSE</ntsc>
						</rate>
						<effect>
							<name>Cross Fade (+3dB)</name>
							<effectid>KGAudioTransCrossFade3dB</effectid>
							<effecttype>transition</effecttype>
							<mediatype>audio</mediatype>
							<wipecode>0</wipecode>
							<wipeaccuracy>100</wipeaccuracy>
							<startratio>0</startratio>
							<endratio>1</endratio>
							<reverse>FALSE</reverse>
						</effect>
					</transitionitem>
					<clipitem id="clipitem-841" premiereChannelType="stereo">
						<masterclipid>masterclip-95</masterclipid>
						<name>BrookePart2_ZOOM0001.WAV</name>
						<enabled>TRUE</enabled>
						<duration>136757</duration>
						<rate>
							<timebase>60</timebase>
							<ntsc>FALSE</ntsc>
						</rate>
						<start>-1</start>
						<end>49180</end>
						<in>105048</in>
						<out>105348</out>
						<pproTicksIn>444731212800000</pproTicksIn>
						<pproTicksOut>446001292800000</pproTicksOut>
						<file id="file-95"/>
						<sourcetrack>
							<mediatype>audio</mediatype>
							<trackindex>2</trackindex>
						</sourcetrack>
							<marker>
								<comment></comment>
								<name></name>
								<in>6836</in>
								<out>-1</out>
							</marker>
						<link>
							<linkclipref>clipitem-737</linkclipref>
							<mediatype>audio</mediatype>
							<trackindex>15</trackindex>
							<clipindex>133</clipindex>
							<groupindex>1</groupindex>
						</link>
						<link>
							<linkclipref>clipitem-841</linkclipref>
							<mediatype>audio</mediatype>
							<trackindex>16</trackindex>
							<clipindex>133</clipindex>
							<groupindex>1</groupindex>
						</link>
						<logginginfo>
							<description></description>
							<scene></scene>
							<shottake></shottake>
							<lognote></lognote>
							<good></good>
							<originalvideofilename></originalvideofilename>
							<originalaudiofilename></originalaudiofilename>
						</logginginfo>
						<colorinfo>
							<lut></lut>
							<lut1></lut1>
							<asc_sop></asc_sop>
							<asc_sat></asc_sat>
							<lut2></lut2>
						</colorinfo>
						<labels>
							<label2>Rose</label2>
						</labels>
					</clipitem>
					<clipitem id="clipitem-842" premiereChannelType="stereo">
						<masterclipid>masterclip-95</masterclipid>
						<name>BrookePart2_ZOOM0001.WAV</name>
						<enabled>TRUE</enabled>
						<duration>136757</duration>
						<rate>
							<timebase>60</timebase>
							<ntsc>FALSE</ntsc>
						</rate>
						<start>49328</start>
						<end>-1</end>
						<in>105810</in>
						<out>105893</out>
						<pproTicksIn>447957216000000</pproTicksIn>
						<pproTicksOut>448308604800000</pproTicksOut>
						<file id="file-95"/>
						<sourcetrack>
							<mediatype>audio</mediatype>
							<trackindex>2</trackindex>
						</sourcetrack>
							<marker>
								<comment></comment>
								<name></name>
								<in>6836</in>
								<out>-1</out>
							</marker>
						<link>
							<linkclipref>clipitem-738</linkclipref>
							<mediatype>audio</mediatype>
							<trackindex>15</trackindex>
							<clipindex>134</clipindex>
							<groupindex>1</groupindex>
						</link>
						<link>
							<linkclipref>clipitem-842</linkclipref>
							<mediatype>audio</mediatype>
							<trackindex>16</trackindex>
							<clipindex>134</clipindex>
							<groupindex>1</groupindex>
						</link>
						<logginginfo>
							<description></description>
							<scene></scene>
							<shottake></shottake>
							<lognote></lognote>
							<good></good>
							<originalvideofilename></originalvideofilename>
							<originalaudiofilename></originalaudiofilename>
						</logginginfo>
						<colorinfo>
							<lut></lut>
							<lut1></lut1>
							<asc_sop></asc_sop>
							<asc_sat></asc_sat>
							<lut2></lut2>
						</colorinfo>
						<labels>
							<label2>Rose</label2>
						</labels>
					</clipitem>
					<transitionitem>
						<start>49409</start>
						<end>49411</end>
						<alignment>center</alignment>
						<cutPointTicks>4233600000</cutPointTicks>
						<rate>
							<timebase>60</timebase>
							<ntsc>FALSE</ntsc>
						</rate>
						<effect>
							<name>Cross Fade (+3dB)</name>
							<effectid>KGAudioTransCrossFade3dB</effectid>
							<effecttype>transition</effecttype>
							<mediatype>audio</mediatype>
							<wipecode>0</wipecode>
							<wipeaccuracy>100</wipeaccuracy>
							<startratio>0</startratio>
							<endratio>1</endratio>
							<reverse>FALSE</reverse>
						</effect>
					</transitionitem>
					<clipitem id="clipitem-843" premiereChannelType="stereo">
						<masterclipid>masterclip-95</masterclipid>
						<name>BrookePart2_ZOOM0001.WAV</name>
						<enabled>TRUE</enabled>
						<duration>136757</duration>
						<rate>
							<timebase>60</timebase>
							<ntsc>FALSE</ntsc>
						</rate>
						<start>-1</start>
						<end>-1</end>
						<in>106004</in>
						<out>106073</out>
						<pproTicksIn>448778534400000</pproTicksIn>
						<pproTicksOut>449070652800000</pproTicksOut>
						<file id="file-95"/>
						<sourcetrack>
							<mediatype>audio</mediatype>
							<trackindex>2</trackindex>
						</sourcetrack>
							<marker>
								<comment></comment>
								<name></name>
								<in>6836</in>
								<out>-1</out>
							</marker>
						<link>
							<linkclipref>clipitem-739</linkclipref>
							<mediatype>audio</mediatype>
							<trackindex>15</trackindex>
							<clipindex>136</clipindex>
							<groupindex>1</groupindex>
						</link>
						<link>
							<linkclipref>clipitem-843</linkclipref>
							<mediatype>audio</mediatype>
							<trackindex>16</trackindex>
							<clipindex>136</clipindex>
							<groupindex>1</groupindex>
						</link>
						<logginginfo>
							<description></description>
							<scene></scene>
							<shottake></shottake>
							<lognote></lognote>
							<good></good>
							<originalvideofilename></originalvideofilename>
							<originalaudiofilename></originalaudiofilename>
						</logginginfo>
						<colorinfo>
							<lut></lut>
							<lut1></lut1>
							<asc_sop></asc_sop>
							<asc_sat></asc_sat>
							<lut2></lut2>
						</colorinfo>
						<labels>
							<label2>Rose</label2>
						</labels>
					</clipitem>
					<transitionitem>
						<start>49476</start>
						<end>49478</end>
						<alignment>center</alignment>
						<cutPointTicks>4233600000</cutPointTicks>
						<rate>
							<timebase>60</timebase>
							<ntsc>FALSE</ntsc>
						</rate>
						<effect>
							<name>Cross Fade (+3dB)</name>
							<effectid>KGAudioTransCrossFade3dB</effectid>
							<effecttype>transition</effecttype>
							<mediatype>audio</mediatype>
							<wipecode>0</wipecode>
							<wipeaccuracy>100</wipeaccuracy>
							<startratio>0</startratio>
							<endratio>1</endratio>
							<reverse>FALSE</reverse>
						</effect>
					</transitionitem>
					<clipitem id="clipitem-844" premiereChannelType="stereo">
						<masterclipid>masterclip-95</masterclipid>
						<name>BrookePart2_ZOOM0001.WAV</name>
						<enabled>TRUE</enabled>
						<duration>136757</duration>
						<rate>
							<timebase>60</timebase>
							<ntsc>FALSE</ntsc>
						</rate>
						<start>-1</start>
						<end>49565</end>
						<in>106090</in>
						<out>106179</out>
						<pproTicksIn>449142624000000</pproTicksIn>
						<pproTicksOut>449519414400000</pproTicksOut>
						<file id="file-95"/>
						<sourcetrack>
							<mediatype>audio</mediatype>
							<trackindex>2</trackindex>
						</sourcetrack>
							<marker>
								<comment></comment>
								<name></name>
								<in>6836</in>
								<out>-1</out>
							</marker>
						<link>
							<linkclipref>clipitem-740</linkclipref>
							<mediatype>audio</mediatype>
							<trackindex>15</trackindex>
							<clipindex>138</clipindex>
							<groupindex>1</groupindex>
						</link>
						<link>
							<linkclipref>clipitem-844</linkclipref>
							<mediatype>audio</mediatype>
							<trackindex>16</trackindex>
							<clipindex>138</clipindex>
							<groupindex>1</groupindex>
						</link>
						<logginginfo>
							<description></description>
							<scene></scene>
							<shottake></shottake>
							<lognote></lognote>
							<good></good>
							<originalvideofilename></originalvideofilename>
							<originalaudiofilename></originalaudiofilename>
						</logginginfo>
						<colorinfo>
							<lut></lut>
							<lut1></lut1>
							<asc_sop></asc_sop>
							<asc_sat></asc_sat>
							<lut2></lut2>
						</colorinfo>
						<labels>
							<label2>Rose</label2>
						</labels>
					</clipitem>
					<clipitem id="clipitem-845" premiereChannelType="stereo">
						<masterclipid>masterclip-95</masterclipid>
						<name>BrookePart2_ZOOM0001.WAV</name>
						<enabled>TRUE</enabled>
						<duration>136757</duration>
						<rate>
							<timebase>60</timebase>
							<ntsc>FALSE</ntsc>
						</rate>
						<start>49565</start>
						<end>-1</end>
						<in>106401</in>
						<out>106735</out>
						<pproTicksIn>450459273600000</pproTicksIn>
						<pproTicksOut>451873296000000</pproTicksOut>
						<file id="file-95"/>
						<sourcetrack>
							<mediatype>audio</mediatype>
							<trackindex>2</trackindex>
						</sourcetrack>
							<marker>
								<comment></comment>
								<name></name>
								<in>6836</in>
								<out>-1</out>
							</marker>
						<link>
							<linkclipref>clipitem-741</linkclipref>
							<mediatype>audio</mediatype>
							<trackindex>15</trackindex>
							<clipindex>139</clipindex>
							<groupindex>1</groupindex>
						</link>
						<link>
							<linkclipref>clipitem-845</linkclipref>
							<mediatype>audio</mediatype>
							<trackindex>16</trackindex>
							<clipindex>139</clipindex>
							<groupindex>1</groupindex>
						</link>
						<logginginfo>
							<description></description>
							<scene></scene>
							<shottake></shottake>
							<lognote></lognote>
							<good></good>
							<originalvideofilename></originalvideofilename>
							<originalaudiofilename></originalaudiofilename>
						</logginginfo>
						<colorinfo>
							<lut></lut>
							<lut1></lut1>
							<asc_sop></asc_sop>
							<asc_sat></asc_sat>
							<lut2></lut2>
						</colorinfo>
						<labels>
							<label2>Rose</label2>
						</labels>
					</clipitem>
					<transitionitem>
						<start>49897</start>
						<end>49899</end>
						<alignment>center</alignment>
						<cutPointTicks>4233600000</cutPointTicks>
						<rate>
							<timebase>60</timebase>
							<ntsc>FALSE</ntsc>
						</rate>
						<effect>
							<name>Cross Fade (+3dB)</name>
							<effectid>KGAudioTransCrossFade3dB</effectid>
							<effecttype>transition</effecttype>
							<mediatype>audio</mediatype>
							<wipecode>0</wipecode>
							<wipeaccuracy>100</wipeaccuracy>
							<startratio>0</startratio>
							<endratio>1</endratio>
							<reverse>FALSE</reverse>
						</effect>
					</transitionitem>
					<clipitem id="clipitem-846" premiereChannelType="stereo">
						<masterclipid>masterclip-95</masterclipid>
						<name>BrookePart2_ZOOM0001.WAV</name>
						<enabled>TRUE</enabled>
						<duration>136757</duration>
						<rate>
							<timebase>60</timebase>
							<ntsc>FALSE</ntsc>
						</rate>
						<start>-1</start>
						<end>50237</end>
						<in>106812</in>
						<out>107152</out>
						<pproTicksIn>452199283200000</pproTicksIn>
						<pproTicksOut>453638707200000</pproTicksOut>
						<file id="file-95"/>
						<sourcetrack>
							<mediatype>audio</mediatype>
							<trackindex>2</trackindex>
						</sourcetrack>
						<filter>
							<effect>
								<name>Audio Levels</name>
								<effectid>audiolevels</effectid>
								<effectcategory>audiolevels</effectcategory>
								<effecttype>audiolevels</effecttype>
								<mediatype>audio</mediatype>
								<pproBypass>false</pproBypass>
								<parameter authoringApp="PremierePro">
									<parameterid>level</parameterid>
									<name>Level</name>
									<valuemin>0</valuemin>
									<valuemax>3.98109</valuemax>
									<value>1</value>
									<keyframe>
										<when>107091</when>
										<value>1</value>
									</keyframe>
									<keyframe>
										<when>107121</when>
										<value>0</value>
									</keyframe>
								</parameter>
							</effect>
						</filter>
							<marker>
								<comment></comment>
								<name></name>
								<in>6836</in>
								<out>-1</out>
							</marker>
						<link>
							<linkclipref>clipitem-742</linkclipref>
							<mediatype>audio</mediatype>
							<trackindex>15</trackindex>
							<clipindex>141</clipindex>
							<groupindex>1</groupindex>
						</link>
						<link>
							<linkclipref>clipitem-846</linkclipref>
							<mediatype>audio</mediatype>
							<trackindex>16</trackindex>
							<clipindex>141</clipindex>
							<groupindex>1</groupindex>
						</link>
						<logginginfo>
							<description></description>
							<scene></scene>
							<shottake></shottake>
							<lognote></lognote>
							<good></good>
							<originalvideofilename></originalvideofilename>
							<originalaudiofilename></originalaudiofilename>
						</logginginfo>
						<colorinfo>
							<lut></lut>
							<lut1></lut1>
							<asc_sop></asc_sop>
							<asc_sat></asc_sat>
							<lut2></lut2>
						</colorinfo>
						<labels>
							<label2>Rose</label2>
						</labels>
					</clipitem>
					<transitionitem>
						<start>50304</start>
						<end>50306</end>
						<alignment>start-black</alignment>
						<cutPointTicks>0</cutPointTicks>
						<rate>
							<timebase>60</timebase>
							<ntsc>FALSE</ntsc>
						</rate>
						<effect>
							<name>Cross Fade (+3dB)</name>
							<effectid>KGAudioTransCrossFade3dB</effectid>
							<effecttype>transition</effecttype>
							<mediatype>audio</mediatype>
							<wipecode>0</wipecode>
							<wipeaccuracy>100</wipeaccuracy>
							<startratio>0</startratio>
							<endratio>1</endratio>
							<reverse>FALSE</reverse>
						</effect>
					</transitionitem>
					<clipitem id="clipitem-847" premiereChannelType="stereo">
						<masterclipid>masterclip-95</masterclipid>
						<name>BrookePart2_ZOOM0001.WAV</name>
						<enabled>TRUE</enabled>
						<duration>136757</duration>
						<rate>
							<timebase>60</timebase>
							<ntsc>FALSE</ntsc>
						</rate>
						<start>-1</start>
						<end>-1</end>
						<in>105448</in>
						<out>105547</out>
						<pproTicksIn>446424652800000</pproTicksIn>
						<pproTicksOut>446843779200000</pproTicksOut>
						<file id="file-95"/>
						<sourcetrack>
							<mediatype>audio</mediatype>
							<trackindex>2</trackindex>
						</sourcetrack>
						<filter>
							<effect>
								<name>Audio Levels</name>
								<effectid>audiolevels</effectid>
								<effectcategory>audiolevels</effectcategory>
								<effecttype>audiolevels</effecttype>
								<mediatype>audio</mediatype>
								<pproBypass>false</pproBypass>
								<parameter authoringApp="PremierePro">
									<parameterid>level</parameterid>
									<name>Level</name>
									<valuemin>0</valuemin>
									<valuemax>3.98109</valuemax>
									<value>0</value>
									<keyframe>
										<when>105448</when>
										<value>0</value>
									</keyframe>
									<keyframe>
										<when>105458</when>
										<value>1</value>
									</keyframe>
								</parameter>
							</effect>
						</filter>
							<marker>
								<comment></comment>
								<name></name>
								<in>6836</in>
								<out>-1</out>
							</marker>
						<link>
							<linkclipref>clipitem-743</linkclipref>
							<mediatype>audio</mediatype>
							<trackindex>15</trackindex>
							<clipindex>143</clipindex>
							<groupindex>1</groupindex>
						</link>
						<link>
							<linkclipref>clipitem-847</linkclipref>
							<mediatype>audio</mediatype>
							<trackindex>16</trackindex>
							<clipindex>143</clipindex>
							<groupindex>1</groupindex>
						</link>
						<logginginfo>
							<description></description>
							<scene></scene>
							<shottake></shottake>
							<lognote></lognote>
							<good></good>
							<originalvideofilename></originalvideofilename>
							<originalaudiofilename></originalaudiofilename>
						</logginginfo>
						<colorinfo>
							<lut></lut>
							<lut1></lut1>
							<asc_sop></asc_sop>
							<asc_sat></asc_sat>
							<lut2></lut2>
						</colorinfo>
						<labels>
							<label2>Rose</label2>
						</labels>
					</clipitem>
					<transitionitem>
						<start>50401</start>
						<end>50403</end>
						<alignment>center</alignment>
						<cutPointTicks>4233600000</cutPointTicks>
						<rate>
							<timebase>60</timebase>
							<ntsc>FALSE</ntsc>
						</rate>
						<effect>
							<name>Cross Fade (+3dB)</name>
							<effectid>KGAudioTransCrossFade3dB</effectid>
							<effecttype>transition</effecttype>
							<mediatype>audio</mediatype>
							<wipecode>0</wipecode>
							<wipeaccuracy>100</wipeaccuracy>
							<startratio>0</startratio>
							<endratio>1</endratio>
							<reverse>FALSE</reverse>
						</effect>
					</transitionitem>
					<clipitem id="clipitem-848" premiereChannelType="stereo">
						<masterclipid>masterclip-95</masterclipid>
						<name>BrookePart2_ZOOM0001.WAV</name>
						<enabled>TRUE</enabled>
						<duration>136757</duration>
						<rate>
							<timebase>60</timebase>
							<ntsc>FALSE</ntsc>
						</rate>
						<start>-1</start>
						<end>-1</end>
						<in>105556</in>
						<out>105590</out>
						<pproTicksIn>446881881600000</pproTicksIn>
						<pproTicksOut>447025824000000</pproTicksOut>
						<file id="file-95"/>
						<sourcetrack>
							<mediatype>audio</mediatype>
							<trackindex>2</trackindex>
						</sourcetrack>
						<filter>
							<effect>
								<name>Audio Levels</name>
								<effectid>audiolevels</effectid>
								<effectcategory>audiolevels</effectcategory>
								<effecttype>audiolevels</effecttype>
								<mediatype>audio</mediatype>
								<pproBypass>false</pproBypass>
								<parameter authoringApp="PremierePro">
									<parameterid>level</parameterid>
									<name>Level</name>
									<valuemin>0</valuemin>
									<valuemax>3.98109</valuemax>
									<value>0</value>
									<keyframe>
										<when>105448</when>
										<value>0</value>
									</keyframe>
									<keyframe>
										<when>105458</when>
										<value>1</value>
									</keyframe>
								</parameter>
							</effect>
						</filter>
							<marker>
								<comment></comment>
								<name></name>
								<in>6836</in>
								<out>-1</out>
							</marker>
						<link>
							<linkclipref>clipitem-744</linkclipref>
							<mediatype>audio</mediatype>
							<trackindex>15</trackindex>
							<clipindex>145</clipindex>
							<groupindex>1</groupindex>
						</link>
						<link>
							<linkclipref>clipitem-848</linkclipref>
							<mediatype>audio</mediatype>
							<trackindex>16</trackindex>
							<clipindex>145</clipindex>
							<groupindex>1</groupindex>
						</link>
						<logginginfo>
							<description></description>
							<scene></scene>
							<shottake></shottake>
							<lognote></lognote>
							<good></good>
							<originalvideofilename></originalvideofilename>
							<originalaudiofilename></originalaudiofilename>
						</logginginfo>
						<colorinfo>
							<lut></lut>
							<lut1></lut1>
							<asc_sop></asc_sop>
							<asc_sat></asc_sat>
							<lut2></lut2>
						</colorinfo>
						<labels>
							<label2>Rose</label2>
						</labels>
					</clipitem>
					<transitionitem>
						<start>50433</start>
						<end>50435</end>
						<alignment>center</alignment>
						<cutPointTicks>4233600000</cutPointTicks>
						<rate>
							<timebase>60</timebase>
							<ntsc>FALSE</ntsc>
						</rate>
						<effect>
							<name>Cross Fade (+3dB)</name>
							<effectid>KGAudioTransCrossFade3dB</effectid>
							<effecttype>transition</effecttype>
							<mediatype>audio</mediatype>
							<wipecode>0</wipecode>
							<wipeaccuracy>100</wipeaccuracy>
							<startratio>0</startratio>
							<endratio>1</endratio>
							<reverse>FALSE</reverse>
						</effect>
					</transitionitem>
					<clipitem id="clipitem-849" premiereChannelType="stereo">
						<masterclipid>masterclip-95</masterclipid>
						<name>BrookePart2_ZOOM0001.WAV</name>
						<enabled>TRUE</enabled>
						<duration>136757</duration>
						<rate>
							<timebase>60</timebase>
							<ntsc>FALSE</ntsc>
						</rate>
						<start>-1</start>
						<end>-1</end>
						<in>105634</in>
						<out>105749</out>
						<pproTicksIn>447212102400000</pproTicksIn>
						<pproTicksOut>447698966400000</pproTicksOut>
						<file id="file-95"/>
						<sourcetrack>
							<mediatype>audio</mediatype>
							<trackindex>2</trackindex>
						</sourcetrack>
						<filter>
							<effect>
								<name>Audio Levels</name>
								<effectid>audiolevels</effectid>
								<effectcategory>audiolevels</effectcategory>
								<effecttype>audiolevels</effecttype>
								<mediatype>audio</mediatype>
								<pproBypass>false</pproBypass>
								<parameter authoringApp="PremierePro">
									<parameterid>level</parameterid>
									<name>Level</name>
									<valuemin>0</valuemin>
									<valuemax>3.98109</valuemax>
									<value>0</value>
									<keyframe>
										<when>105448</when>
										<value>0</value>
									</keyframe>
									<keyframe>
										<when>105458</when>
										<value>1</value>
									</keyframe>
									<keyframe>
										<when>105716</when>
										<value>1</value>
									</keyframe>
									<keyframe>
										<when>105749</when>
										<value>0</value>
									</keyframe>
								</parameter>
							</effect>
						</filter>
							<marker>
								<comment></comment>
								<name></name>
								<in>6836</in>
								<out>-1</out>
							</marker>
						<link>
							<linkclipref>clipitem-745</linkclipref>
							<mediatype>audio</mediatype>
							<trackindex>15</trackindex>
							<clipindex>147</clipindex>
							<groupindex>1</groupindex>
						</link>
						<link>
							<linkclipref>clipitem-849</linkclipref>
							<mediatype>audio</mediatype>
							<trackindex>16</trackindex>
							<clipindex>147</clipindex>
							<groupindex>1</groupindex>
						</link>
						<logginginfo>
							<description></description>
							<scene></scene>
							<shottake></shottake>
							<lognote></lognote>
							<good></good>
							<originalvideofilename></originalvideofilename>
							<originalaudiofilename></originalaudiofilename>
						</logginginfo>
						<colorinfo>
							<lut></lut>
							<lut1></lut1>
							<asc_sop></asc_sop>
							<asc_sat></asc_sat>
							<lut2></lut2>
						</colorinfo>
						<labels>
							<label2>Rose</label2>
						</labels>
					</clipitem>
					<transitionitem>
						<start>50546</start>
						<end>50548</end>
						<alignment>end-black</alignment>
						<cutPointTicks>8467200000</cutPointTicks>
						<rate>
							<timebase>60</timebase>
							<ntsc>FALSE</ntsc>
						</rate>
						<effect>
							<name>Cross Fade (+3dB)</name>
							<effectid>KGAudioTransCrossFade3dB</effectid>
							<effecttype>transition</effecttype>
							<mediatype>audio</mediatype>
							<wipecode>0</wipecode>
							<wipeaccuracy>100</wipeaccuracy>
							<startratio>0</startratio>
							<endratio>1</endratio>
							<reverse>FALSE</reverse>
						</effect>
					</transitionitem>
					<clipitem id="clipitem-850" premiereChannelType="stereo">
						<masterclipid>masterclip-98</masterclipid>
						<name>ZOOM0002.WAV</name>
						<enabled>FALSE</enabled>
						<duration>43784</duration>
						<rate>
							<timebase>60</timebase>
							<ntsc>FALSE</ntsc>
						</rate>
						<start>52369</start>
						<end>52523</end>
						<in>25053</in>
						<out>25207</out>
						<pproTicksIn>106064380800000</pproTicksIn>
						<pproTicksOut>106716355200000</pproTicksOut>
						<file id="file-98"/>
						<sourcetrack>
							<mediatype>audio</mediatype>
							<trackindex>2</trackindex>
						</sourcetrack>
							<marker>
								<comment></comment>
								<name></name>
								<in>14634</in>
								<out>-1</out>
							</marker>
						<link>
							<linkclipref>clipitem-746</linkclipref>
							<mediatype>audio</mediatype>
							<trackindex>15</trackindex>
							<clipindex>149</clipindex>
							<groupindex>1</groupindex>
						</link>
						<link>
							<linkclipref>clipitem-850</linkclipref>
							<mediatype>audio</mediatype>
							<trackindex>16</trackindex>
							<clipindex>149</clipindex>
							<groupindex>1</groupindex>
						</link>
						<logginginfo>
							<description></description>
							<scene></scene>
							<shottake></shottake>
							<lognote></lognote>
							<good></good>
							<originalvideofilename></originalvideofilename>
							<originalaudiofilename></originalaudiofilename>
						</logginginfo>
						<colorinfo>
							<lut></lut>
							<lut1></lut1>
							<asc_sop></asc_sop>
							<asc_sat></asc_sat>
							<lut2></lut2>
						</colorinfo>
						<labels>
							<label2>Blue</label2>
						</labels>
					</clipitem>
					<clipitem id="clipitem-851" premiereChannelType="stereo">
						<masterclipid>masterclip-98</masterclipid>
						<name>ZOOM0002.WAV</name>
						<enabled>FALSE</enabled>
						<duration>43784</duration>
						<rate>
							<timebase>60</timebase>
							<ntsc>FALSE</ntsc>
						</rate>
						<start>52550</start>
						<end>52983</end>
						<in>25330</in>
						<out>25763</out>
						<pproTicksIn>107237088000000</pproTicksIn>
						<pproTicksOut>109070236800000</pproTicksOut>
						<file id="file-98"/>
						<sourcetrack>
							<mediatype>audio</mediatype>
							<trackindex>2</trackindex>
						</sourcetrack>
							<marker>
								<comment></comment>
								<name></name>
								<in>14634</in>
								<out>-1</out>
							</marker>
						<link>
							<linkclipref>clipitem-747</linkclipref>
							<mediatype>audio</mediatype>
							<trackindex>15</trackindex>
							<clipindex>150</clipindex>
							<groupindex>1</groupindex>
						</link>
						<link>
							<linkclipref>clipitem-851</linkclipref>
							<mediatype>audio</mediatype>
							<trackindex>16</trackindex>
							<clipindex>150</clipindex>
							<groupindex>1</groupindex>
						</link>
						<logginginfo>
							<description></description>
							<scene></scene>
							<shottake></shottake>
							<lognote></lognote>
							<good></good>
							<originalvideofilename></originalvideofilename>
							<originalaudiofilename></originalaudiofilename>
						</logginginfo>
						<colorinfo>
							<lut></lut>
							<lut1></lut1>
							<asc_sop></asc_sop>
							<asc_sat></asc_sat>
							<lut2></lut2>
						</colorinfo>
						<labels>
							<label2>Blue</label2>
						</labels>
					</clipitem>
					<clipitem id="clipitem-852" premiereChannelType="stereo">
						<masterclipid>masterclip-98</masterclipid>
						<name>ZOOM0002.WAV</name>
						<enabled>FALSE</enabled>
						<duration>43784</duration>
						<rate>
							<timebase>60</timebase>
							<ntsc>FALSE</ntsc>
						</rate>
						<start>52983</start>
						<end>53206</end>
						<in>25763</in>
						<out>25986</out>
						<pproTicksIn>109070236800000</pproTicksIn>
						<pproTicksOut>110014329600000</pproTicksOut>
						<file id="file-98"/>
						<sourcetrack>
							<mediatype>audio</mediatype>
							<trackindex>2</trackindex>
						</sourcetrack>
							<marker>
								<comment></comment>
								<name></name>
								<in>14634</in>
								<out>-1</out>
							</marker>
						<link>
							<linkclipref>clipitem-748</linkclipref>
							<mediatype>audio</mediatype>
							<trackindex>15</trackindex>
							<clipindex>151</clipindex>
							<groupindex>1</groupindex>
						</link>
						<link>
							<linkclipref>clipitem-852</linkclipref>
							<mediatype>audio</mediatype>
							<trackindex>16</trackindex>
							<clipindex>151</clipindex>
							<groupindex>1</groupindex>
						</link>
						<logginginfo>
							<description></description>
							<scene></scene>
							<shottake></shottake>
							<lognote></lognote>
							<good></good>
							<originalvideofilename></originalvideofilename>
							<originalaudiofilename></originalaudiofilename>
						</logginginfo>
						<colorinfo>
							<lut></lut>
							<lut1></lut1>
							<asc_sop></asc_sop>
							<asc_sat></asc_sat>
							<lut2></lut2>
						</colorinfo>
						<labels>
							<label2>Blue</label2>
						</labels>
					</clipitem>
					<clipitem id="clipitem-853" premiereChannelType="stereo">
						<masterclipid>masterclip-98</masterclipid>
						<name>ZOOM0002.WAV</name>
						<enabled>FALSE</enabled>
						<duration>43784</duration>
						<rate>
							<timebase>60</timebase>
							<ntsc>FALSE</ntsc>
						</rate>
						<start>53206</start>
						<end>53518</end>
						<in>25986</in>
						<out>26298</out>
						<pproTicksIn>110014329600000</pproTicksIn>
						<pproTicksOut>111335212800000</pproTicksOut>
						<file id="file-98"/>
						<sourcetrack>
							<mediatype>audio</mediatype>
							<trackindex>2</trackindex>
						</sourcetrack>
							<marker>
								<comment></comment>
								<name></name>
								<in>14634</in>
								<out>-1</out>
							</marker>
						<link>
							<linkclipref>clipitem-749</linkclipref>
							<mediatype>audio</mediatype>
							<trackindex>15</trackindex>
							<clipindex>152</clipindex>
							<groupindex>1</groupindex>
						</link>
						<link>
							<linkclipref>clipitem-853</linkclipref>
							<mediatype>audio</mediatype>
							<trackindex>16</trackindex>
							<clipindex>152</clipindex>
							<groupindex>1</groupindex>
						</link>
						<logginginfo>
							<description></description>
							<scene></scene>
							<shottake></shottake>
							<lognote></lognote>
							<good></good>
							<originalvideofilename></originalvideofilename>
							<originalaudiofilename></originalaudiofilename>
						</logginginfo>
						<colorinfo>
							<lut></lut>
							<lut1></lut1>
							<asc_sop></asc_sop>
							<asc_sat></asc_sat>
							<lut2></lut2>
						</colorinfo>
						<labels>
							<label2>Blue</label2>
						</labels>
					</clipitem>
					<clipitem id="clipitem-854" premiereChannelType="stereo">
						<masterclipid>masterclip-98</masterclipid>
						<name>ZOOM0002.WAV</name>
						<enabled>FALSE</enabled>
						<duration>43784</duration>
						<rate>
							<timebase>60</timebase>
							<ntsc>FALSE</ntsc>
						</rate>
						<start>53518</start>
						<end>53930</end>
						<in>26298</in>
						<out>26710</out>
						<pproTicksIn>111335212800000</pproTicksIn>
						<pproTicksOut>113079456000000</pproTicksOut>
						<file id="file-98"/>
						<sourcetrack>
							<mediatype>audio</mediatype>
							<trackindex>2</trackindex>
						</sourcetrack>
							<marker>
								<comment></comment>
								<name></name>
								<in>14634</in>
								<out>-1</out>
							</marker>
						<link>
							<linkclipref>clipitem-750</linkclipref>
							<mediatype>audio</mediatype>
							<trackindex>15</trackindex>
							<clipindex>153</clipindex>
							<groupindex>1</groupindex>
						</link>
						<link>
							<linkclipref>clipitem-854</linkclipref>
							<mediatype>audio</mediatype>
							<trackindex>16</trackindex>
							<clipindex>153</clipindex>
							<groupindex>1</groupindex>
						</link>
						<logginginfo>
							<description></description>
							<scene></scene>
							<shottake></shottake>
							<lognote></lognote>
							<good></good>
							<originalvideofilename></originalvideofilename>
							<originalaudiofilename></originalaudiofilename>
						</logginginfo>
						<colorinfo>
							<lut></lut>
							<lut1></lut1>
							<asc_sop></asc_sop>
							<asc_sat></asc_sat>
							<lut2></lut2>
						</colorinfo>
						<labels>
							<label2>Blue</label2>
						</labels>
					</clipitem>
					<clipitem id="clipitem-855" premiereChannelType="stereo">
						<masterclipid>masterclip-98</masterclipid>
						<name>ZOOM0002.WAV</name>
						<enabled>FALSE</enabled>
						<duration>43784</duration>
						<rate>
							<timebase>60</timebase>
							<ntsc>FALSE</ntsc>
						</rate>
						<start>53930</start>
						<end>54623</end>
						<in>26710</in>
						<out>27403</out>
						<pproTicksIn>113079456000000</pproTicksIn>
						<pproTicksOut>116013340800000</pproTicksOut>
						<file id="file-98"/>
						<sourcetrack>
							<mediatype>audio</mediatype>
							<trackindex>2</trackindex>
						</sourcetrack>
							<marker>
								<comment></comment>
								<name></name>
								<in>14634</in>
								<out>-1</out>
							</marker>
						<link>
							<linkclipref>clipitem-751</linkclipref>
							<mediatype>audio</mediatype>
							<trackindex>15</trackindex>
							<clipindex>154</clipindex>
							<groupindex>1</groupindex>
						</link>
						<link>
							<linkclipref>clipitem-855</linkclipref>
							<mediatype>audio</mediatype>
							<trackindex>16</trackindex>
							<clipindex>154</clipindex>
							<groupindex>1</groupindex>
						</link>
						<logginginfo>
							<description></description>
							<scene></scene>
							<shottake></shottake>
							<lognote></lognote>
							<good></good>
							<originalvideofilename></originalvideofilename>
							<originalaudiofilename></originalaudiofilename>
						</logginginfo>
						<colorinfo>
							<lut></lut>
							<lut1></lut1>
							<asc_sop></asc_sop>
							<asc_sat></asc_sat>
							<lut2></lut2>
						</colorinfo>
						<labels>
							<label2>Violet</label2>
						</labels>
					</clipitem>
					<clipitem id="clipitem-856" premiereChannelType="stereo">
						<masterclipid>masterclip-98</masterclipid>
						<name>ZOOM0002.WAV</name>
						<enabled>FALSE</enabled>
						<duration>43784</duration>
						<rate>
							<timebase>60</timebase>
							<ntsc>FALSE</ntsc>
						</rate>
						<start>54623</start>
						<end>55523</end>
						<in>27589</in>
						<out>28489</out>
						<pproTicksIn>116800790400000</pproTicksIn>
						<pproTicksOut>120611030400000</pproTicksOut>
						<file id="file-98"/>
						<sourcetrack>
							<mediatype>audio</mediatype>
							<trackindex>2</trackindex>
						</sourcetrack>
						<filter>
							<effect>
								<name>Audio Levels</name>
								<effectid>audiolevels</effectid>
								<effectcategory>audiolevels</effectcategory>
								<effecttype>audiolevels</effecttype>
								<mediatype>audio</mediatype>
								<pproBypass>false</pproBypass>
								<parameter authoringApp="PremierePro">
									<parameterid>level</parameterid>
									<name>Level</name>
									<valuemin>0</valuemin>
									<valuemax>3.98109</valuemax>
									<value>0</value>
									<keyframe>
										<when>28453</when>
										<value>1</value>
									</keyframe>
									<keyframe>
										<when>28489</when>
										<value>0</value>
									</keyframe>
								</parameter>
							</effect>
						</filter>
							<marker>
								<comment></comment>
								<name></name>
								<in>14634</in>
								<out>-1</out>
							</marker>
						<link>
							<linkclipref>clipitem-752</linkclipref>
							<mediatype>audio</mediatype>
							<trackindex>15</trackindex>
							<clipindex>155</clipindex>
							<groupindex>1</groupindex>
						</link>
						<link>
							<linkclipref>clipitem-856</linkclipref>
							<mediatype>audio</mediatype>
							<trackindex>16</trackindex>
							<clipindex>155</clipindex>
							<groupindex>1</groupindex>
						</link>
						<logginginfo>
							<description></description>
							<scene></scene>
							<shottake></shottake>
							<lognote></lognote>
							<good></good>
							<originalvideofilename></originalvideofilename>
							<originalaudiofilename></originalaudiofilename>
						</logginginfo>
						<colorinfo>
							<lut></lut>
							<lut1></lut1>
							<asc_sop></asc_sop>
							<asc_sat></asc_sat>
							<lut2></lut2>
						</colorinfo>
						<labels>
							<label2>Violet</label2>
						</labels>
					</clipitem>
					<transitionitem>
						<start>55880</start>
						<end>55882</end>
						<alignment>start-black</alignment>
						<cutPointTicks>0</cutPointTicks>
						<rate>
							<timebase>60</timebase>
							<ntsc>FALSE</ntsc>
						</rate>
						<effect>
							<name>Cross Fade (+3dB)</name>
							<effectid>KGAudioTransCrossFade3dB</effectid>
							<effecttype>transition</effecttype>
							<mediatype>audio</mediatype>
							<wipecode>0</wipecode>
							<wipeaccuracy>100</wipeaccuracy>
							<startratio>0</startratio>
							<endratio>1</endratio>
							<reverse>FALSE</reverse>
						</effect>
					</transitionitem>
					<clipitem id="clipitem-857" premiereChannelType="stereo">
						<masterclipid>masterclip-95</masterclipid>
						<name>BrookePart2_ZOOM0001.WAV</name>
						<enabled>TRUE</enabled>
						<duration>136757</duration>
						<rate>
							<timebase>60</timebase>
							<ntsc>FALSE</ntsc>
						</rate>
						<start>-1</start>
						<end>-1</end>
						<in>62958</in>
						<out>63245</out>
						<pproTicksIn>266538988800000</pproTicksIn>
						<pproTicksOut>267754032000000</pproTicksOut>
						<file id="file-95"/>
						<sourcetrack>
							<mediatype>audio</mediatype>
							<trackindex>2</trackindex>
						</sourcetrack>
							<marker>
								<comment></comment>
								<name></name>
								<in>6836</in>
								<out>-1</out>
							</marker>
						<link>
							<linkclipref>clipitem-753</linkclipref>
							<mediatype>audio</mediatype>
							<trackindex>15</trackindex>
							<clipindex>157</clipindex>
							<groupindex>1</groupindex>
						</link>
						<link>
							<linkclipref>clipitem-857</linkclipref>
							<mediatype>audio</mediatype>
							<trackindex>16</trackindex>
							<clipindex>157</clipindex>
							<groupindex>1</groupindex>
						</link>
						<logginginfo>
							<description></description>
							<scene></scene>
							<shottake></shottake>
							<lognote></lognote>
							<good></good>
							<originalvideofilename></originalvideofilename>
							<originalaudiofilename></originalaudiofilename>
						</logginginfo>
						<colorinfo>
							<lut></lut>
							<lut1></lut1>
							<asc_sop></asc_sop>
							<asc_sat></asc_sat>
							<lut2></lut2>
						</colorinfo>
						<labels>
							<label2>Violet</label2>
						</labels>
					</clipitem>
					<transitionitem>
						<start>56165</start>
						<end>56167</end>
						<alignment>center</alignment>
						<cutPointTicks>4233600000</cutPointTicks>
						<rate>
							<timebase>60</timebase>
							<ntsc>FALSE</ntsc>
						</rate>
						<effect>
							<name>Cross Fade (+3dB)</name>
							<effectid>KGAudioTransCrossFade3dB</effectid>
							<effecttype>transition</effecttype>
							<mediatype>audio</mediatype>
							<wipecode>0</wipecode>
							<wipeaccuracy>100</wipeaccuracy>
							<startratio>0</startratio>
							<endratio>1</endratio>
							<reverse>FALSE</reverse>
						</effect>
					</transitionitem>
					<clipitem id="clipitem-858" premiereChannelType="stereo">
						<masterclipid>masterclip-95</masterclipid>
						<name>BrookePart2_ZOOM0001.WAV</name>
						<enabled>TRUE</enabled>
						<duration>136757</duration>
						<rate>
							<timebase>60</timebase>
							<ntsc>FALSE</ntsc>
						</rate>
						<start>-1</start>
						<end>-1</end>
						<in>63337</in>
						<out>63403</out>
						<pproTicksIn>268143523200000</pproTicksIn>
						<pproTicksOut>268422940800000</pproTicksOut>
						<file id="file-95"/>
						<sourcetrack>
							<mediatype>audio</mediatype>
							<trackindex>2</trackindex>
						</sourcetrack>
						<filter>
							<effect>
								<name>Audio Levels</name>
								<effectid>audiolevels</effectid>
								<effectcategory>audiolevels</effectcategory>
								<effecttype>audiolevels</effecttype>
								<mediatype>audio</mediatype>
								<pproBypass>false</pproBypass>
								<parameter authoringApp="PremierePro">
									<parameterid>level</parameterid>
									<name>Level</name>
									<valuemin>0</valuemin>
									<valuemax>3.98109</valuemax>
									<value>1</value>
									<keyframe>
										<when>63603</when>
										<value>1</value>
									</keyframe>
									<keyframe>
										<when>63634</when>
										<value>0</value>
									</keyframe>
								</parameter>
							</effect>
						</filter>
							<marker>
								<comment></comment>
								<name></name>
								<in>6836</in>
								<out>-1</out>
							</marker>
						<link>
							<linkclipref>clipitem-754</linkclipref>
							<mediatype>audio</mediatype>
							<trackindex>15</trackindex>
							<clipindex>159</clipindex>
							<groupindex>1</groupindex>
						</link>
						<link>
							<linkclipref>clipitem-858</linkclipref>
							<mediatype>audio</mediatype>
							<trackindex>16</trackindex>
							<clipindex>159</clipindex>
							<groupindex>1</groupindex>
						</link>
						<logginginfo>
							<description></description>
							<scene></scene>
							<shottake></shottake>
							<lognote></lognote>
							<good></good>
							<originalvideofilename></originalvideofilename>
							<originalaudiofilename></originalaudiofilename>
						</logginginfo>
						<colorinfo>
							<lut></lut>
							<lut1></lut1>
							<asc_sop></asc_sop>
							<asc_sat></asc_sat>
							<lut2></lut2>
						</colorinfo>
						<labels>
							<label2>Violet</label2>
						</labels>
					</clipitem>
					<transitionitem>
						<start>56229</start>
						<end>56231</end>
						<alignment>center</alignment>
						<cutPointTicks>4233600000</cutPointTicks>
						<rate>
							<timebase>60</timebase>
							<ntsc>FALSE</ntsc>
						</rate>
						<effect>
							<name>Cross Fade (+3dB)</name>
							<effectid>KGAudioTransCrossFade3dB</effectid>
							<effecttype>transition</effecttype>
							<mediatype>audio</mediatype>
							<wipecode>0</wipecode>
							<wipeaccuracy>100</wipeaccuracy>
							<startratio>0</startratio>
							<endratio>1</endratio>
							<reverse>FALSE</reverse>
						</effect>
					</transitionitem>
					<clipitem id="clipitem-859" premiereChannelType="stereo">
						<masterclipid>masterclip-95</masterclipid>
						<name>BrookePart2_ZOOM0001.WAV</name>
						<enabled>TRUE</enabled>
						<duration>136757</duration>
						<rate>
							<timebase>60</timebase>
							<ntsc>FALSE</ntsc>
						</rate>
						<start>-1</start>
						<end>-1</end>
						<in>63401</in>
						<out>63437</out>
						<pproTicksIn>268414473600000</pproTicksIn>
						<pproTicksOut>268566883200000</pproTicksOut>
						<file id="file-95"/>
						<sourcetrack>
							<mediatype>audio</mediatype>
							<trackindex>2</trackindex>
						</sourcetrack>
						<filter>
							<effect>
								<name>Audio Levels</name>
								<effectid>audiolevels</effectid>
								<effectcategory>audiolevels</effectcategory>
								<effecttype>audiolevels</effecttype>
								<mediatype>audio</mediatype>
								<pproBypass>false</pproBypass>
								<parameter authoringApp="PremierePro">
									<parameterid>level</parameterid>
									<name>Level</name>
									<valuemin>0</valuemin>
									<valuemax>3.98109</valuemax>
									<value>1</value>
									<keyframe>
										<when>63603</when>
										<value>1</value>
									</keyframe>
									<keyframe>
										<when>63634</when>
										<value>0</value>
									</keyframe>
								</parameter>
							</effect>
						</filter>
							<marker>
								<comment></comment>
								<name></name>
								<in>6836</in>
								<out>-1</out>
							</marker>
						<link>
							<linkclipref>clipitem-755</linkclipref>
							<mediatype>audio</mediatype>
							<trackindex>15</trackindex>
							<clipindex>161</clipindex>
							<groupindex>1</groupindex>
						</link>
						<link>
							<linkclipref>clipitem-859</linkclipref>
							<mediatype>audio</mediatype>
							<trackindex>16</trackindex>
							<clipindex>161</clipindex>
							<groupindex>1</groupindex>
						</link>
						<logginginfo>
							<description></description>
							<scene></scene>
							<shottake></shottake>
							<lognote></lognote>
							<good></good>
							<originalvideofilename></originalvideofilename>
							<originalaudiofilename></originalaudiofilename>
						</logginginfo>
						<colorinfo>
							<lut></lut>
							<lut1></lut1>
							<asc_sop></asc_sop>
							<asc_sat></asc_sat>
							<lut2></lut2>
						</colorinfo>
						<labels>
							<label2>Violet</label2>
						</labels>
					</clipitem>
					<transitionitem>
						<start>56263</start>
						<end>56265</end>
						<alignment>center</alignment>
						<cutPointTicks>4233600000</cutPointTicks>
						<rate>
							<timebase>60</timebase>
							<ntsc>FALSE</ntsc>
						</rate>
						<effect>
							<name>Cross Fade (+3dB)</name>
							<effectid>KGAudioTransCrossFade3dB</effectid>
							<effecttype>transition</effecttype>
							<mediatype>audio</mediatype>
							<wipecode>0</wipecode>
							<wipeaccuracy>100</wipeaccuracy>
							<startratio>0</startratio>
							<endratio>1</endratio>
							<reverse>FALSE</reverse>
						</effect>
					</transitionitem>
					<clipitem id="clipitem-860" premiereChannelType="stereo">
						<masterclipid>masterclip-95</masterclipid>
						<name>BrookePart2_ZOOM0001.WAV</name>
						<enabled>TRUE</enabled>
						<duration>136757</duration>
						<rate>
							<timebase>60</timebase>
							<ntsc>FALSE</ntsc>
						</rate>
						<start>-1</start>
						<end>-1</end>
						<in>63455</in>
						<out>63634</out>
						<pproTicksIn>268643088000000</pproTicksIn>
						<pproTicksOut>269400902400000</pproTicksOut>
						<file id="file-95"/>
						<sourcetrack>
							<mediatype>audio</mediatype>
							<trackindex>2</trackindex>
						</sourcetrack>
						<filter>
							<effect>
								<name>Audio Levels</name>
								<effectid>audiolevels</effectid>
								<effectcategory>audiolevels</effectcategory>
								<effecttype>audiolevels</effecttype>
								<mediatype>audio</mediatype>
								<pproBypass>false</pproBypass>
								<parameter authoringApp="PremierePro">
									<parameterid>level</parameterid>
									<name>Level</name>
									<valuemin>0</valuemin>
									<valuemax>3.98109</valuemax>
									<value>1</value>
									<keyframe>
										<when>63603</when>
										<value>1</value>
									</keyframe>
									<keyframe>
										<when>63634</when>
										<value>0</value>
									</keyframe>
								</parameter>
							</effect>
						</filter>
							<marker>
								<comment></comment>
								<name></name>
								<in>6836</in>
								<out>-1</out>
							</marker>
						<link>
							<linkclipref>clipitem-756</linkclipref>
							<mediatype>audio</mediatype>
							<trackindex>15</trackindex>
							<clipindex>163</clipindex>
							<groupindex>1</groupindex>
						</link>
						<link>
							<linkclipref>clipitem-860</linkclipref>
							<mediatype>audio</mediatype>
							<trackindex>16</trackindex>
							<clipindex>163</clipindex>
							<groupindex>1</groupindex>
						</link>
						<logginginfo>
							<description></description>
							<scene></scene>
							<shottake></shottake>
							<lognote></lognote>
							<good></good>
							<originalvideofilename></originalvideofilename>
							<originalaudiofilename></originalaudiofilename>
						</logginginfo>
						<colorinfo>
							<lut></lut>
							<lut1></lut1>
							<asc_sop></asc_sop>
							<asc_sat></asc_sat>
							<lut2></lut2>
						</colorinfo>
						<labels>
							<label2>Violet</label2>
						</labels>
					</clipitem>
					<transitionitem>
						<start>56440</start>
						<end>56442</end>
						<alignment>end-black</alignment>
						<cutPointTicks>8467200000</cutPointTicks>
						<rate>
							<timebase>60</timebase>
							<ntsc>FALSE</ntsc>
						</rate>
						<effect>
							<name>Cross Fade (+3dB)</name>
							<effectid>KGAudioTransCrossFade3dB</effectid>
							<effecttype>transition</effecttype>
							<mediatype>audio</mediatype>
							<wipecode>0</wipecode>
							<wipeaccuracy>100</wipeaccuracy>
							<startratio>0</startratio>
							<endratio>1</endratio>
							<reverse>FALSE</reverse>
						</effect>
					</transitionitem>
					<transitionitem>
						<start>56470</start>
						<end>56472</end>
						<alignment>start-black</alignment>
						<cutPointTicks>0</cutPointTicks>
						<rate>
							<timebase>60</timebase>
							<ntsc>FALSE</ntsc>
						</rate>
						<effect>
							<name>Cross Fade (+3dB)</name>
							<effectid>KGAudioTransCrossFade3dB</effectid>
							<effecttype>transition</effecttype>
							<mediatype>audio</mediatype>
							<wipecode>0</wipecode>
							<wipeaccuracy>100</wipeaccuracy>
							<startratio>0</startratio>
							<endratio>1</endratio>
							<reverse>FALSE</reverse>
						</effect>
					</transitionitem>
					<clipitem id="clipitem-861" premiereChannelType="stereo">
						<masterclipid>masterclip-95</masterclipid>
						<name>BrookePart2_ZOOM0001.WAV</name>
						<enabled>TRUE</enabled>
						<duration>136757</duration>
						<rate>
							<timebase>60</timebase>
							<ntsc>FALSE</ntsc>
						</rate>
						<start>-1</start>
						<end>-1</end>
						<in>63670</in>
						<out>63771</out>
						<pproTicksIn>269553312000000</pproTicksIn>
						<pproTicksOut>269980905600000</pproTicksOut>
						<file id="file-95"/>
						<sourcetrack>
							<mediatype>audio</mediatype>
							<trackindex>2</trackindex>
						</sourcetrack>
						<filter>
							<effect>
								<name>Audio Levels</name>
								<effectid>audiolevels</effectid>
								<effectcategory>audiolevels</effectcategory>
								<effecttype>audiolevels</effecttype>
								<mediatype>audio</mediatype>
								<pproBypass>false</pproBypass>
								<parameter authoringApp="PremierePro">
									<parameterid>level</parameterid>
									<name>Level</name>
									<valuemin>0</valuemin>
									<valuemax>3.98109</valuemax>
									<value>1.42105</value>
								</parameter>
							</effect>
						</filter>
							<marker>
								<comment></comment>
								<name></name>
								<in>6836</in>
								<out>-1</out>
							</marker>
						<link>
							<linkclipref>clipitem-757</linkclipref>
							<mediatype>audio</mediatype>
							<trackindex>15</trackindex>
							<clipindex>166</clipindex>
							<groupindex>1</groupindex>
						</link>
						<link>
							<linkclipref>clipitem-861</linkclipref>
							<mediatype>audio</mediatype>
							<trackindex>16</trackindex>
							<clipindex>166</clipindex>
							<groupindex>1</groupindex>
						</link>
						<logginginfo>
							<description></description>
							<scene></scene>
							<shottake></shottake>
							<lognote></lognote>
							<good></good>
							<originalvideofilename></originalvideofilename>
							<originalaudiofilename></originalaudiofilename>
						</logginginfo>
						<colorinfo>
							<lut></lut>
							<lut1></lut1>
							<asc_sop></asc_sop>
							<asc_sat></asc_sat>
							<lut2></lut2>
						</colorinfo>
						<labels>
							<label2>Blue</label2>
						</labels>
					</clipitem>
					<transitionitem>
						<start>56569</start>
						<end>56571</end>
						<alignment>center</alignment>
						<cutPointTicks>4233600000</cutPointTicks>
						<rate>
							<timebase>60</timebase>
							<ntsc>FALSE</ntsc>
						</rate>
						<effect>
							<name>Cross Fade (+3dB)</name>
							<effectid>KGAudioTransCrossFade3dB</effectid>
							<effecttype>transition</effecttype>
							<mediatype>audio</mediatype>
							<wipecode>0</wipecode>
							<wipeaccuracy>100</wipeaccuracy>
							<startratio>0</startratio>
							<endratio>1</endratio>
							<reverse>FALSE</reverse>
						</effect>
					</transitionitem>
					<clipitem id="clipitem-862" premiereChannelType="stereo">
						<masterclipid>masterclip-95</masterclipid>
						<name>BrookePart2_ZOOM0001.WAV</name>
						<enabled>TRUE</enabled>
						<duration>136757</duration>
						<rate>
							<timebase>60</timebase>
							<ntsc>FALSE</ntsc>
						</rate>
						<start>-1</start>
						<end>-1</end>
						<in>63790</in>
						<out>64159</out>
						<pproTicksIn>270061344000000</pproTicksIn>
						<pproTicksOut>271623542400000</pproTicksOut>
						<file id="file-95"/>
						<sourcetrack>
							<mediatype>audio</mediatype>
							<trackindex>2</trackindex>
						</sourcetrack>
							<marker>
								<comment></comment>
								<name></name>
								<in>6836</in>
								<out>-1</out>
							</marker>
						<link>
							<linkclipref>clipitem-758</linkclipref>
							<mediatype>audio</mediatype>
							<trackindex>15</trackindex>
							<clipindex>168</clipindex>
							<groupindex>1</groupindex>
						</link>
						<link>
							<linkclipref>clipitem-862</linkclipref>
							<mediatype>audio</mediatype>
							<trackindex>16</trackindex>
							<clipindex>168</clipindex>
							<groupindex>1</groupindex>
						</link>
						<logginginfo>
							<description></description>
							<scene></scene>
							<shottake></shottake>
							<lognote></lognote>
							<good></good>
							<originalvideofilename></originalvideofilename>
							<originalaudiofilename></originalaudiofilename>
						</logginginfo>
						<colorinfo>
							<lut></lut>
							<lut1></lut1>
							<asc_sop></asc_sop>
							<asc_sat></asc_sat>
							<lut2></lut2>
						</colorinfo>
						<labels>
							<label2>Blue</label2>
						</labels>
					</clipitem>
					<transitionitem>
						<start>56936</start>
						<end>56938</end>
						<alignment>center</alignment>
						<cutPointTicks>4233600000</cutPointTicks>
						<rate>
							<timebase>60</timebase>
							<ntsc>FALSE</ntsc>
						</rate>
						<effect>
							<name>Cross Fade (+3dB)</name>
							<effectid>KGAudioTransCrossFade3dB</effectid>
							<effecttype>transition</effecttype>
							<mediatype>audio</mediatype>
							<wipecode>0</wipecode>
							<wipeaccuracy>100</wipeaccuracy>
							<startratio>0</startratio>
							<endratio>1</endratio>
							<reverse>FALSE</reverse>
						</effect>
					</transitionitem>
					<clipitem id="clipitem-863" premiereChannelType="stereo">
						<masterclipid>masterclip-95</masterclipid>
						<name>BrookePart2_ZOOM0001.WAV</name>
						<enabled>TRUE</enabled>
						<duration>136757</duration>
						<rate>
							<timebase>60</timebase>
							<ntsc>FALSE</ntsc>
						</rate>
						<start>-1</start>
						<end>-1</end>
						<in>64204</in>
						<out>64309</out>
						<pproTicksIn>271814054400000</pproTicksIn>
						<pproTicksOut>272258582400000</pproTicksOut>
						<file id="file-95"/>
						<sourcetrack>
							<mediatype>audio</mediatype>
							<trackindex>2</trackindex>
						</sourcetrack>
						<filter>
							<effect>
								<name>Audio Levels</name>
								<effectid>audiolevels</effectid>
								<effectcategory>audiolevels</effectcategory>
								<effecttype>audiolevels</effecttype>
								<mediatype>audio</mediatype>
								<pproBypass>false</pproBypass>
								<parameter authoringApp="PremierePro">
									<parameterid>level</parameterid>
									<name>Level</name>
									<valuemin>0</valuemin>
									<valuemax>3.98109</valuemax>
									<value>1.21053</value>
								</parameter>
							</effect>
						</filter>
							<marker>
								<comment></comment>
								<name></name>
								<in>6836</in>
								<out>-1</out>
							</marker>
						<link>
							<linkclipref>clipitem-759</linkclipref>
							<mediatype>audio</mediatype>
							<trackindex>15</trackindex>
							<clipindex>170</clipindex>
							<groupindex>1</groupindex>
						</link>
						<link>
							<linkclipref>clipitem-863</linkclipref>
							<mediatype>audio</mediatype>
							<trackindex>16</trackindex>
							<clipindex>170</clipindex>
							<groupindex>1</groupindex>
						</link>
						<logginginfo>
							<description></description>
							<scene></scene>
							<shottake></shottake>
							<lognote></lognote>
							<good></good>
							<originalvideofilename></originalvideofilename>
							<originalaudiofilename></originalaudiofilename>
						</logginginfo>
						<colorinfo>
							<lut></lut>
							<lut1></lut1>
							<asc_sop></asc_sop>
							<asc_sat></asc_sat>
							<lut2></lut2>
						</colorinfo>
						<labels>
							<label2>Blue</label2>
						</labels>
					</clipitem>
					<transitionitem>
						<start>57039</start>
						<end>57041</end>
						<alignment>center</alignment>
						<cutPointTicks>4233600000</cutPointTicks>
						<rate>
							<timebase>60</timebase>
							<ntsc>FALSE</ntsc>
						</rate>
						<effect>
							<name>Cross Fade (+3dB)</name>
							<effectid>KGAudioTransCrossFade3dB</effectid>
							<effecttype>transition</effecttype>
							<mediatype>audio</mediatype>
							<wipecode>0</wipecode>
							<wipeaccuracy>100</wipeaccuracy>
							<startratio>0</startratio>
							<endratio>1</endratio>
							<reverse>FALSE</reverse>
						</effect>
					</transitionitem>
					<clipitem id="clipitem-864" premiereChannelType="stereo">
						<masterclipid>masterclip-95</masterclipid>
						<name>BrookePart2_ZOOM0001.WAV</name>
						<enabled>TRUE</enabled>
						<duration>136757</duration>
						<rate>
							<timebase>60</timebase>
							<ntsc>FALSE</ntsc>
						</rate>
						<start>-1</start>
						<end>-1</end>
						<in>64930</in>
						<out>65049</out>
						<pproTicksIn>274887648000000</pproTicksIn>
						<pproTicksOut>275391446400000</pproTicksOut>
						<file id="file-95"/>
						<sourcetrack>
							<mediatype>audio</mediatype>
							<trackindex>2</trackindex>
						</sourcetrack>
							<marker>
								<comment></comment>
								<name></name>
								<in>6836</in>
								<out>-1</out>
							</marker>
						<link>
							<linkclipref>clipitem-760</linkclipref>
							<mediatype>audio</mediatype>
							<trackindex>15</trackindex>
							<clipindex>172</clipindex>
							<groupindex>1</groupindex>
						</link>
						<link>
							<linkclipref>clipitem-864</linkclipref>
							<mediatype>audio</mediatype>
							<trackindex>16</trackindex>
							<clipindex>172</clipindex>
							<groupindex>1</groupindex>
						</link>
						<logginginfo>
							<description></description>
							<scene></scene>
							<shottake></shottake>
							<lognote></lognote>
							<good></good>
							<originalvideofilename></originalvideofilename>
							<originalaudiofilename></originalaudiofilename>
						</logginginfo>
						<colorinfo>
							<lut></lut>
							<lut1></lut1>
							<asc_sop></asc_sop>
							<asc_sat></asc_sat>
							<lut2></lut2>
						</colorinfo>
						<labels>
							<label2>Blue</label2>
						</labels>
					</clipitem>
					<transitionitem>
						<start>57156</start>
						<end>57158</end>
						<alignment>center</alignment>
						<cutPointTicks>4233600000</cutPointTicks>
						<rate>
							<timebase>60</timebase>
							<ntsc>FALSE</ntsc>
						</rate>
						<effect>
							<name>Cross Fade (+3dB)</name>
							<effectid>KGAudioTransCrossFade3dB</effectid>
							<effecttype>transition</effecttype>
							<mediatype>audio</mediatype>
							<wipecode>0</wipecode>
							<wipeaccuracy>100</wipeaccuracy>
							<startratio>0</startratio>
							<endratio>1</endratio>
							<reverse>FALSE</reverse>
						</effect>
					</transitionitem>
					<clipitem id="clipitem-865" premiereChannelType="stereo">
						<masterclipid>masterclip-95</masterclipid>
						<name>BrookePart2_ZOOM0001.WAV</name>
						<enabled>TRUE</enabled>
						<duration>136757</duration>
						<rate>
							<timebase>60</timebase>
							<ntsc>FALSE</ntsc>
						</rate>
						<start>-1</start>
						<end>-1</end>
						<in>65084</in>
						<out>65142</out>
						<pproTicksIn>275539622400000</pproTicksIn>
						<pproTicksOut>275785171200000</pproTicksOut>
						<file id="file-95"/>
						<sourcetrack>
							<mediatype>audio</mediatype>
							<trackindex>2</trackindex>
						</sourcetrack>
						<filter>
							<effect>
								<name>Audio Levels</name>
								<effectid>audiolevels</effectid>
								<effectcategory>audiolevels</effectcategory>
								<effecttype>audiolevels</effecttype>
								<mediatype>audio</mediatype>
								<pproBypass>false</pproBypass>
								<parameter authoringApp="PremierePro">
									<parameterid>level</parameterid>
									<name>Level</name>
									<valuemin>0</valuemin>
									<valuemax>3.98109</valuemax>
									<value>1.52632</value>
								</parameter>
							</effect>
						</filter>
							<marker>
								<comment></comment>
								<name></name>
								<in>6836</in>
								<out>-1</out>
							</marker>
						<link>
							<linkclipref>clipitem-761</linkclipref>
							<mediatype>audio</mediatype>
							<trackindex>15</trackindex>
							<clipindex>174</clipindex>
							<groupindex>1</groupindex>
						</link>
						<link>
							<linkclipref>clipitem-865</linkclipref>
							<mediatype>audio</mediatype>
							<trackindex>16</trackindex>
							<clipindex>174</clipindex>
							<groupindex>1</groupindex>
						</link>
						<logginginfo>
							<description></description>
							<scene></scene>
							<shottake></shottake>
							<lognote></lognote>
							<good></good>
							<originalvideofilename></originalvideofilename>
							<originalaudiofilename></originalaudiofilename>
						</logginginfo>
						<colorinfo>
							<lut></lut>
							<lut1></lut1>
							<asc_sop></asc_sop>
							<asc_sat></asc_sat>
							<lut2></lut2>
						</colorinfo>
						<labels>
							<label2>Blue</label2>
						</labels>
					</clipitem>
					<transitionitem>
						<start>57212</start>
						<end>57214</end>
						<alignment>center</alignment>
						<cutPointTicks>4233600000</cutPointTicks>
						<rate>
							<timebase>60</timebase>
							<ntsc>FALSE</ntsc>
						</rate>
						<effect>
							<name>Cross Fade (+3dB)</name>
							<effectid>KGAudioTransCrossFade3dB</effectid>
							<effecttype>transition</effecttype>
							<mediatype>audio</mediatype>
							<wipecode>0</wipecode>
							<wipeaccuracy>100</wipeaccuracy>
							<startratio>0</startratio>
							<endratio>1</endratio>
							<reverse>FALSE</reverse>
						</effect>
					</transitionitem>
					<clipitem id="clipitem-866" premiereChannelType="stereo">
						<masterclipid>masterclip-95</masterclipid>
						<name>BrookePart2_ZOOM0001.WAV</name>
						<enabled>TRUE</enabled>
						<duration>136757</duration>
						<rate>
							<timebase>60</timebase>
							<ntsc>FALSE</ntsc>
						</rate>
						<start>-1</start>
						<end>-1</end>
						<in>65159</in>
						<out>65213</out>
						<pproTicksIn>275857142400000</pproTicksIn>
						<pproTicksOut>276085756800000</pproTicksOut>
						<file id="file-95"/>
						<sourcetrack>
							<mediatype>audio</mediatype>
							<trackindex>2</trackindex>
						</sourcetrack>
						<filter>
							<effect>
								<name>Audio Levels</name>
								<effectid>audiolevels</effectid>
								<effectcategory>audiolevels</effectcategory>
								<effecttype>audiolevels</effecttype>
								<mediatype>audio</mediatype>
								<pproBypass>false</pproBypass>
								<parameter authoringApp="PremierePro">
									<parameterid>level</parameterid>
									<name>Level</name>
									<valuemin>0</valuemin>
									<valuemax>3.98109</valuemax>
									<value>1.49123</value>
								</parameter>
							</effect>
						</filter>
							<marker>
								<comment></comment>
								<name></name>
								<in>6836</in>
								<out>-1</out>
							</marker>
						<link>
							<linkclipref>clipitem-762</linkclipref>
							<mediatype>audio</mediatype>
							<trackindex>15</trackindex>
							<clipindex>176</clipindex>
							<groupindex>1</groupindex>
						</link>
						<link>
							<linkclipref>clipitem-866</linkclipref>
							<mediatype>audio</mediatype>
							<trackindex>16</trackindex>
							<clipindex>176</clipindex>
							<groupindex>1</groupindex>
						</link>
						<logginginfo>
							<description></description>
							<scene></scene>
							<shottake></shottake>
							<lognote></lognote>
							<good></good>
							<originalvideofilename></originalvideofilename>
							<originalaudiofilename></originalaudiofilename>
						</logginginfo>
						<colorinfo>
							<lut></lut>
							<lut1></lut1>
							<asc_sop></asc_sop>
							<asc_sat></asc_sat>
							<lut2></lut2>
						</colorinfo>
						<labels>
							<label2>Blue</label2>
						</labels>
					</clipitem>
					<transitionitem>
						<start>57264</start>
						<end>57266</end>
						<alignment>end-black</alignment>
						<cutPointTicks>8467200000</cutPointTicks>
						<rate>
							<timebase>60</timebase>
							<ntsc>FALSE</ntsc>
						</rate>
						<effect>
							<name>Cross Fade (+3dB)</name>
							<effectid>KGAudioTransCrossFade3dB</effectid>
							<effecttype>transition</effecttype>
							<mediatype>audio</mediatype>
							<wipecode>0</wipecode>
							<wipeaccuracy>100</wipeaccuracy>
							<startratio>0</startratio>
							<endratio>1</endratio>
							<reverse>FALSE</reverse>
						</effect>
					</transitionitem>
					<transitionitem>
						<start>57322</start>
						<end>57324</end>
						<alignment>start-black</alignment>
						<cutPointTicks>0</cutPointTicks>
						<rate>
							<timebase>60</timebase>
							<ntsc>FALSE</ntsc>
						</rate>
						<effect>
							<name>Cross Fade (+3dB)</name>
							<effectid>KGAudioTransCrossFade3dB</effectid>
							<effecttype>transition</effecttype>
							<mediatype>audio</mediatype>
							<wipecode>0</wipecode>
							<wipeaccuracy>100</wipeaccuracy>
							<startratio>0</startratio>
							<endratio>1</endratio>
							<reverse>FALSE</reverse>
						</effect>
					</transitionitem>
					<clipitem id="clipitem-867" premiereChannelType="stereo">
						<masterclipid>masterclip-95</masterclipid>
						<name>BrookePart2_ZOOM0001.WAV</name>
						<enabled>TRUE</enabled>
						<duration>136757</duration>
						<rate>
							<timebase>60</timebase>
							<ntsc>FALSE</ntsc>
						</rate>
						<start>-1</start>
						<end>-1</end>
						<in>65258</in>
						<out>65603</out>
						<pproTicksIn>276276268800000</pproTicksIn>
						<pproTicksOut>277736860800000</pproTicksOut>
						<file id="file-95"/>
						<sourcetrack>
							<mediatype>audio</mediatype>
							<trackindex>2</trackindex>
						</sourcetrack>
						<filter>
							<effect>
								<name>Audio Levels</name>
								<effectid>audiolevels</effectid>
								<effectcategory>audiolevels</effectcategory>
								<effecttype>audiolevels</effecttype>
								<mediatype>audio</mediatype>
								<pproBypass>false</pproBypass>
								<parameter authoringApp="PremierePro">
									<parameterid>level</parameterid>
									<name>Level</name>
									<valuemin>0</valuemin>
									<valuemax>3.98109</valuemax>
									<value>1</value>
									<keyframe>
										<when>65572</when>
										<value>1</value>
									</keyframe>
									<keyframe>
										<when>65581</when>
										<value>0</value>
									</keyframe>
								</parameter>
							</effect>
						</filter>
							<marker>
								<comment></comment>
								<name></name>
								<in>6836</in>
								<out>-1</out>
							</marker>
						<link>
							<linkclipref>clipitem-763</linkclipref>
							<mediatype>audio</mediatype>
							<trackindex>15</trackindex>
							<clipindex>179</clipindex>
							<groupindex>1</groupindex>
						</link>
						<link>
							<linkclipref>clipitem-867</linkclipref>
							<mediatype>audio</mediatype>
							<trackindex>16</trackindex>
							<clipindex>179</clipindex>
							<groupindex>1</groupindex>
						</link>
						<logginginfo>
							<description></description>
							<scene></scene>
							<shottake></shottake>
							<lognote></lognote>
							<good></good>
							<originalvideofilename></originalvideofilename>
							<originalaudiofilename></originalaudiofilename>
						</logginginfo>
						<colorinfo>
							<lut></lut>
							<lut1></lut1>
							<asc_sop></asc_sop>
							<asc_sat></asc_sat>
							<lut2></lut2>
						</colorinfo>
						<labels>
							<label2>Blue</label2>
						</labels>
					</clipitem>
					<transitionitem>
						<start>57665</start>
						<end>57667</end>
						<alignment>end-black</alignment>
						<cutPointTicks>8467200000</cutPointTicks>
						<rate>
							<timebase>60</timebase>
							<ntsc>FALSE</ntsc>
						</rate>
						<effect>
							<name>Cross Fade (+3dB)</name>
							<effectid>KGAudioTransCrossFade3dB</effectid>
							<effecttype>transition</effecttype>
							<mediatype>audio</mediatype>
							<wipecode>0</wipecode>
							<wipeaccuracy>100</wipeaccuracy>
							<startratio>0</startratio>
							<endratio>1</endratio>
							<reverse>FALSE</reverse>
						</effect>
					</transitionitem>
					<transitionitem>
						<start>57705</start>
						<end>57707</end>
						<alignment>start-black</alignment>
						<cutPointTicks>0</cutPointTicks>
						<rate>
							<timebase>60</timebase>
							<ntsc>FALSE</ntsc>
						</rate>
						<effect>
							<name>Cross Fade (+3dB)</name>
							<effectid>KGAudioTransCrossFade3dB</effectid>
							<effecttype>transition</effecttype>
							<mediatype>audio</mediatype>
							<wipecode>0</wipecode>
							<wipeaccuracy>100</wipeaccuracy>
							<startratio>0</startratio>
							<endratio>1</endratio>
							<reverse>FALSE</reverse>
						</effect>
					</transitionitem>
					<clipitem id="clipitem-868" premiereChannelType="stereo">
						<masterclipid>masterclip-95</masterclipid>
						<name>BrookePart2_ZOOM0001.WAV</name>
						<enabled>TRUE</enabled>
						<duration>136757</duration>
						<rate>
							<timebase>60</timebase>
							<ntsc>FALSE</ntsc>
						</rate>
						<start>-1</start>
						<end>-1</end>
						<in>71340</in>
						<out>71687</out>
						<pproTicksIn>302025024000000</pproTicksIn>
						<pproTicksOut>303494083200000</pproTicksOut>
						<file id="file-95"/>
						<sourcetrack>
							<mediatype>audio</mediatype>
							<trackindex>2</trackindex>
						</sourcetrack>
						<filter>
							<effect>
								<name>Audio Levels</name>
								<effectid>audiolevels</effectid>
								<effectcategory>audiolevels</effectcategory>
								<effecttype>audiolevels</effecttype>
								<mediatype>audio</mediatype>
								<pproBypass>false</pproBypass>
								<parameter authoringApp="PremierePro">
									<parameterid>level</parameterid>
									<name>Level</name>
									<valuemin>0</valuemin>
									<valuemax>3.98109</valuemax>
									<value>0</value>
									<keyframe>
										<when>71352</when>
										<value>0</value>
									</keyframe>
									<keyframe>
										<when>71359</when>
										<value>1</value>
									</keyframe>
									<keyframe>
										<when>71794</when>
										<value>1</value>
									</keyframe>
									<keyframe>
										<when>71826</when>
										<value>0</value>
									</keyframe>
								</parameter>
							</effect>
						</filter>
							<marker>
								<comment></comment>
								<name></name>
								<in>6836</in>
								<out>-1</out>
							</marker>
						<link>
							<linkclipref>clipitem-764</linkclipref>
							<mediatype>audio</mediatype>
							<trackindex>15</trackindex>
							<clipindex>182</clipindex>
							<groupindex>1</groupindex>
						</link>
						<link>
							<linkclipref>clipitem-868</linkclipref>
							<mediatype>audio</mediatype>
							<trackindex>16</trackindex>
							<clipindex>182</clipindex>
							<groupindex>1</groupindex>
						</link>
						<logginginfo>
							<description></description>
							<scene></scene>
							<shottake></shottake>
							<lognote></lognote>
							<good></good>
							<originalvideofilename></originalvideofilename>
							<originalaudiofilename></originalaudiofilename>
						</logginginfo>
						<colorinfo>
							<lut></lut>
							<lut1></lut1>
							<asc_sop></asc_sop>
							<asc_sat></asc_sat>
							<lut2></lut2>
						</colorinfo>
						<labels>
							<label2>Blue</label2>
						</labels>
					</clipitem>
					<transitionitem>
						<start>58050</start>
						<end>58052</end>
						<alignment>center</alignment>
						<cutPointTicks>4233600000</cutPointTicks>
						<rate>
							<timebase>60</timebase>
							<ntsc>FALSE</ntsc>
						</rate>
						<effect>
							<name>Cross Fade (+3dB)</name>
							<effectid>KGAudioTransCrossFade3dB</effectid>
							<effecttype>transition</effecttype>
							<mediatype>audio</mediatype>
							<wipecode>0</wipecode>
							<wipeaccuracy>100</wipeaccuracy>
							<startratio>0</startratio>
							<endratio>1</endratio>
							<reverse>FALSE</reverse>
						</effect>
					</transitionitem>
					<clipitem id="clipitem-869" premiereChannelType="stereo">
						<masterclipid>masterclip-95</masterclipid>
						<name>BrookePart2_ZOOM0001.WAV</name>
						<enabled>TRUE</enabled>
						<duration>136757</duration>
						<rate>
							<timebase>60</timebase>
							<ntsc>FALSE</ntsc>
						</rate>
						<start>-1</start>
						<end>-1</end>
						<in>71718</in>
						<out>71826</out>
						<pproTicksIn>303625324800000</pproTicksIn>
						<pproTicksOut>304082553600000</pproTicksOut>
						<file id="file-95"/>
						<sourcetrack>
							<mediatype>audio</mediatype>
							<trackindex>2</trackindex>
						</sourcetrack>
						<filter>
							<effect>
								<name>Audio Levels</name>
								<effectid>audiolevels</effectid>
								<effectcategory>audiolevels</effectcategory>
								<effecttype>audiolevels</effecttype>
								<mediatype>audio</mediatype>
								<pproBypass>false</pproBypass>
								<parameter authoringApp="PremierePro">
									<parameterid>level</parameterid>
									<name>Level</name>
									<valuemin>0</valuemin>
									<valuemax>3.98109</valuemax>
									<value>1</value>
									<keyframe>
										<when>71794</when>
										<value>1</value>
									</keyframe>
									<keyframe>
										<when>71826</when>
										<value>0</value>
									</keyframe>
								</parameter>
							</effect>
						</filter>
							<marker>
								<comment></comment>
								<name></name>
								<in>6836</in>
								<out>-1</out>
							</marker>
						<link>
							<linkclipref>clipitem-765</linkclipref>
							<mediatype>audio</mediatype>
							<trackindex>15</trackindex>
							<clipindex>184</clipindex>
							<groupindex>1</groupindex>
						</link>
						<link>
							<linkclipref>clipitem-869</linkclipref>
							<mediatype>audio</mediatype>
							<trackindex>16</trackindex>
							<clipindex>184</clipindex>
							<groupindex>1</groupindex>
						</link>
						<logginginfo>
							<description></description>
							<scene></scene>
							<shottake></shottake>
							<lognote></lognote>
							<good></good>
							<originalvideofilename></originalvideofilename>
							<originalaudiofilename></originalaudiofilename>
						</logginginfo>
						<colorinfo>
							<lut></lut>
							<lut1></lut1>
							<asc_sop></asc_sop>
							<asc_sat></asc_sat>
							<lut2></lut2>
						</colorinfo>
						<labels>
							<label2>Blue</label2>
						</labels>
					</clipitem>
					<transitionitem>
						<start>58156</start>
						<end>58158</end>
						<alignment>end-black</alignment>
						<cutPointTicks>8467200000</cutPointTicks>
						<rate>
							<timebase>60</timebase>
							<ntsc>FALSE</ntsc>
						</rate>
						<effect>
							<name>Cross Fade (+3dB)</name>
							<effectid>KGAudioTransCrossFade3dB</effectid>
							<effecttype>transition</effecttype>
							<mediatype>audio</mediatype>
							<wipecode>0</wipecode>
							<wipeaccuracy>100</wipeaccuracy>
							<startratio>0</startratio>
							<endratio>1</endratio>
							<reverse>FALSE</reverse>
						</effect>
					</transitionitem>
					<transitionitem>
						<start>59082</start>
						<end>59084</end>
						<alignment>start-black</alignment>
						<cutPointTicks>0</cutPointTicks>
						<rate>
							<timebase>60</timebase>
							<ntsc>FALSE</ntsc>
						</rate>
						<effect>
							<name>Cross Fade (+3dB)</name>
							<effectid>KGAudioTransCrossFade3dB</effectid>
							<effecttype>transition</effecttype>
							<mediatype>audio</mediatype>
							<wipecode>0</wipecode>
							<wipeaccuracy>100</wipeaccuracy>
							<startratio>0</startratio>
							<endratio>1</endratio>
							<reverse>FALSE</reverse>
						</effect>
					</transitionitem>
					<clipitem id="clipitem-870" premiereChannelType="stereo">
						<masterclipid>masterclip-99</masterclipid>
						<name>Kate_ZOOM0002.WAV</name>
						<enabled>TRUE</enabled>
						<duration>62251</duration>
						<rate>
							<timebase>60</timebase>
							<ntsc>FALSE</ntsc>
						</rate>
						<start>-1</start>
						<end>-1</end>
						<in>30032</in>
						<out>30121</out>
						<pproTicksIn>127143475200000</pproTicksIn>
						<pproTicksOut>127520265600000</pproTicksOut>
						<file id="file-99"/>
						<sourcetrack>
							<mediatype>audio</mediatype>
							<trackindex>2</trackindex>
						</sourcetrack>
						<filter>
							<effect>
								<name>Gain</name>
								<effectid>{61756678, 4761696e, 4b657947}</effectid>
								<effecttype>filter</effecttype>
								<mediatype>audio</mediatype>
								<parameter authoringApp="PremierePro">
									<parameterid>Gain(dB)</parameterid>
									<name>Gain(dB)</name>
									<valuemin>-96</valuemin>
									<valuemax>96</valuemax>
									<value>3</value>
								</parameter>
							</effect>
						</filter>
						<link>
							<linkclipref>clipitem-766</linkclipref>
							<mediatype>audio</mediatype>
							<trackindex>15</trackindex>
							<clipindex>187</clipindex>
							<groupindex>1</groupindex>
						</link>
						<link>
							<linkclipref>clipitem-870</linkclipref>
							<mediatype>audio</mediatype>
							<trackindex>16</trackindex>
							<clipindex>187</clipindex>
							<groupindex>1</groupindex>
						</link>
						<logginginfo>
							<description></description>
							<scene></scene>
							<shottake></shottake>
							<lognote></lognote>
							<good></good>
							<originalvideofilename></originalvideofilename>
							<originalaudiofilename></originalaudiofilename>
						</logginginfo>
						<colorinfo>
							<lut></lut>
							<lut1></lut1>
							<asc_sop></asc_sop>
							<asc_sat></asc_sat>
							<lut2></lut2>
						</colorinfo>
						<labels>
							<label2>Mango</label2>
						</labels>
					</clipitem>
					<transitionitem>
						<start>59170</start>
						<end>59172</end>
						<alignment>center</alignment>
						<cutPointTicks>4233600000</cutPointTicks>
						<rate>
							<timebase>60</timebase>
							<ntsc>FALSE</ntsc>
						</rate>
						<effect>
							<name>Cross Fade (+3dB)</name>
							<effectid>KGAudioTransCrossFade3dB</effectid>
							<effecttype>transition</effecttype>
							<mediatype>audio</mediatype>
							<wipecode>0</wipecode>
							<wipeaccuracy>100</wipeaccuracy>
							<startratio>0</startratio>
							<endratio>1</endratio>
							<reverse>FALSE</reverse>
						</effect>
					</transitionitem>
					<clipitem id="clipitem-871" premiereChannelType="stereo">
						<masterclipid>masterclip-99</masterclipid>
						<name>Kate_ZOOM0002.WAV</name>
						<enabled>TRUE</enabled>
						<duration>62251</duration>
						<rate>
							<timebase>60</timebase>
							<ntsc>FALSE</ntsc>
						</rate>
						<start>-1</start>
						<end>-1</end>
						<in>30134</in>
						<out>30284</out>
						<pproTicksIn>127575302400000</pproTicksIn>
						<pproTicksOut>128210342400000</pproTicksOut>
						<file id="file-99"/>
						<sourcetrack>
							<mediatype>audio</mediatype>
							<trackindex>2</trackindex>
						</sourcetrack>
						<filter>
							<effect>
								<name>Gain</name>
								<effectid>{61756678, 4761696e, 4b657947}</effectid>
								<effecttype>filter</effecttype>
								<mediatype>audio</mediatype>
								<parameter authoringApp="PremierePro">
									<parameterid>Gain(dB)</parameterid>
									<name>Gain(dB)</name>
									<valuemin>-96</valuemin>
									<valuemax>96</valuemax>
									<value>3</value>
								</parameter>
							</effect>
						</filter>
						<link>
							<linkclipref>clipitem-767</linkclipref>
							<mediatype>audio</mediatype>
							<trackindex>15</trackindex>
							<clipindex>189</clipindex>
							<groupindex>1</groupindex>
						</link>
						<link>
							<linkclipref>clipitem-871</linkclipref>
							<mediatype>audio</mediatype>
							<trackindex>16</trackindex>
							<clipindex>189</clipindex>
							<groupindex>1</groupindex>
						</link>
						<logginginfo>
							<description></description>
							<scene></scene>
							<shottake></shottake>
							<lognote></lognote>
							<good></good>
							<originalvideofilename></originalvideofilename>
							<originalaudiofilename></originalaudiofilename>
						</logginginfo>
						<colorinfo>
							<lut></lut>
							<lut1></lut1>
							<asc_sop></asc_sop>
							<asc_sat></asc_sat>
							<lut2></lut2>
						</colorinfo>
						<labels>
							<label2>Mango</label2>
						</labels>
					</clipitem>
					<transitionitem>
						<start>59317</start>
						<end>59321</end>
						<alignment>center</alignment>
						<cutPointTicks>8467200000</cutPointTicks>
						<rate>
							<timebase>60</timebase>
							<ntsc>FALSE</ntsc>
						</rate>
						<effect>
							<name>Cross Fade (+3dB)</name>
							<effectid>KGAudioTransCrossFade3dB</effectid>
							<effecttype>transition</effecttype>
							<mediatype>audio</mediatype>
							<wipecode>0</wipecode>
							<wipeaccuracy>100</wipeaccuracy>
							<startratio>0</startratio>
							<endratio>1</endratio>
							<reverse>FALSE</reverse>
						</effect>
					</transitionitem>
					<clipitem id="clipitem-872" premiereChannelType="stereo">
						<masterclipid>masterclip-99</masterclipid>
						<name>Kate_ZOOM0002.WAV</name>
						<enabled>TRUE</enabled>
						<duration>62251</duration>
						<rate>
							<timebase>60</timebase>
							<ntsc>FALSE</ntsc>
						</rate>
						<start>-1</start>
						<end>59389</end>
						<in>31327</in>
						<out>31400</out>
						<pproTicksIn>132625987200000</pproTicksIn>
						<pproTicksOut>132935040000000</pproTicksOut>
						<file id="file-99"/>
						<sourcetrack>
							<mediatype>audio</mediatype>
							<trackindex>2</trackindex>
						</sourcetrack>
						<filter>
							<effect>
								<name>Gain</name>
								<effectid>{61756678, 4761696e, 4b657947}</effectid>
								<effecttype>filter</effecttype>
								<mediatype>audio</mediatype>
								<parameter authoringApp="PremierePro">
									<parameterid>Gain(dB)</parameterid>
									<name>Gain(dB)</name>
									<valuemin>-96</valuemin>
									<valuemax>96</valuemax>
									<value>3</value>
								</parameter>
							</effect>
						</filter>
						<link>
							<linkclipref>clipitem-768</linkclipref>
							<mediatype>audio</mediatype>
							<trackindex>15</trackindex>
							<clipindex>191</clipindex>
							<groupindex>1</groupindex>
						</link>
						<link>
							<linkclipref>clipitem-872</linkclipref>
							<mediatype>audio</mediatype>
							<trackindex>16</trackindex>
							<clipindex>191</clipindex>
							<groupindex>1</groupindex>
						</link>
						<logginginfo>
							<description></description>
							<scene></scene>
							<shottake></shottake>
							<lognote></lognote>
							<good></good>
							<originalvideofilename></originalvideofilename>
							<originalaudiofilename></originalaudiofilename>
						</logginginfo>
						<colorinfo>
							<lut></lut>
							<lut1></lut1>
							<asc_sop></asc_sop>
							<asc_sat></asc_sat>
							<lut2></lut2>
						</colorinfo>
						<labels>
							<label2>Mango</label2>
						</labels>
					</clipitem>
					<clipitem id="clipitem-873" premiereChannelType="stereo">
						<masterclipid>masterclip-99</masterclipid>
						<name>Kate_ZOOM0002.WAV</name>
						<enabled>TRUE</enabled>
						<duration>62251</duration>
						<rate>
							<timebase>60</timebase>
							<ntsc>FALSE</ntsc>
						</rate>
						<start>59389</start>
						<end>-1</end>
						<in>31529</in>
						<out>31660</out>
						<pproTicksIn>133481174400000</pproTicksIn>
						<pproTicksOut>134035776000000</pproTicksOut>
						<file id="file-99"/>
						<sourcetrack>
							<mediatype>audio</mediatype>
							<trackindex>2</trackindex>
						</sourcetrack>
						<filter>
							<effect>
								<name>Gain</name>
								<effectid>{61756678, 4761696e, 4b657947}</effectid>
								<effecttype>filter</effecttype>
								<mediatype>audio</mediatype>
								<parameter authoringApp="PremierePro">
									<parameterid>Gain(dB)</parameterid>
									<name>Gain(dB)</name>
									<valuemin>-96</valuemin>
									<valuemax>96</valuemax>
									<value>3</value>
								</parameter>
							</effect>
						</filter>
						<link>
							<linkclipref>clipitem-769</linkclipref>
							<mediatype>audio</mediatype>
							<trackindex>15</trackindex>
							<clipindex>192</clipindex>
							<groupindex>1</groupindex>
						</link>
						<link>
							<linkclipref>clipitem-873</linkclipref>
							<mediatype>audio</mediatype>
							<trackindex>16</trackindex>
							<clipindex>192</clipindex>
							<groupindex>1</groupindex>
						</link>
						<logginginfo>
							<description></description>
							<scene></scene>
							<shottake></shottake>
							<lognote></lognote>
							<good></good>
							<originalvideofilename></originalvideofilename>
							<originalaudiofilename></originalaudiofilename>
						</logginginfo>
						<colorinfo>
							<lut></lut>
							<lut1></lut1>
							<asc_sop></asc_sop>
							<asc_sat></asc_sat>
							<lut2></lut2>
						</colorinfo>
						<labels>
							<label2>Mango</label2>
						</labels>
					</clipitem>
					<transitionitem>
						<start>59516</start>
						<end>59519</end>
						<alignment>end-black</alignment>
						<cutPointTicks>12700800000</cutPointTicks>
						<rate>
							<timebase>60</timebase>
							<ntsc>FALSE</ntsc>
						</rate>
						<effect>
							<name>Cross Fade (+3dB)</name>
							<effectid>KGAudioTransCrossFade3dB</effectid>
							<effecttype>transition</effecttype>
							<mediatype>audio</mediatype>
							<wipecode>0</wipecode>
							<wipeaccuracy>100</wipeaccuracy>
							<startratio>0</startratio>
							<endratio>1</endratio>
							<reverse>FALSE</reverse>
						</effect>
					</transitionitem>
					<transitionitem>
						<start>59559</start>
						<end>59561</end>
						<alignment>start-black</alignment>
						<cutPointTicks>0</cutPointTicks>
						<rate>
							<timebase>60</timebase>
							<ntsc>FALSE</ntsc>
						</rate>
						<effect>
							<name>Cross Fade (+3dB)</name>
							<effectid>KGAudioTransCrossFade3dB</effectid>
							<effecttype>transition</effecttype>
							<mediatype>audio</mediatype>
							<wipecode>0</wipecode>
							<wipeaccuracy>100</wipeaccuracy>
							<startratio>0</startratio>
							<endratio>1</endratio>
							<reverse>FALSE</reverse>
						</effect>
					</transitionitem>
					<clipitem id="clipitem-874" premiereChannelType="stereo">
						<masterclipid>masterclip-99</masterclipid>
						<name>Kate_ZOOM0002.WAV</name>
						<enabled>TRUE</enabled>
						<duration>62251</duration>
						<rate>
							<timebase>60</timebase>
							<ntsc>FALSE</ntsc>
						</rate>
						<start>-1</start>
						<end>-1</end>
						<in>30726</in>
						<out>30777</out>
						<pproTicksIn>130081593600000</pproTicksIn>
						<pproTicksOut>130297507200000</pproTicksOut>
						<file id="file-99"/>
						<sourcetrack>
							<mediatype>audio</mediatype>
							<trackindex>2</trackindex>
						</sourcetrack>
						<filter>
							<effect>
								<name>Gain</name>
								<effectid>{61756678, 4761696e, 4b657947}</effectid>
								<effecttype>filter</effecttype>
								<mediatype>audio</mediatype>
								<parameter authoringApp="PremierePro">
									<parameterid>Gain(dB)</parameterid>
									<name>Gain(dB)</name>
									<valuemin>-96</valuemin>
									<valuemax>96</valuemax>
									<value>3</value>
								</parameter>
							</effect>
						</filter>
						<link>
							<linkclipref>clipitem-770</linkclipref>
							<mediatype>audio</mediatype>
							<trackindex>15</trackindex>
							<clipindex>195</clipindex>
							<groupindex>1</groupindex>
						</link>
						<link>
							<linkclipref>clipitem-874</linkclipref>
							<mediatype>audio</mediatype>
							<trackindex>16</trackindex>
							<clipindex>195</clipindex>
							<groupindex>1</groupindex>
						</link>
						<logginginfo>
							<description></description>
							<scene></scene>
							<shottake></shottake>
							<lognote></lognote>
							<good></good>
							<originalvideofilename></originalvideofilename>
							<originalaudiofilename></originalaudiofilename>
						</logginginfo>
						<colorinfo>
							<lut></lut>
							<lut1></lut1>
							<asc_sop></asc_sop>
							<asc_sat></asc_sat>
							<lut2></lut2>
						</colorinfo>
						<labels>
							<label2>Purple</label2>
						</labels>
					</clipitem>
					<transitionitem>
						<start>59608</start>
						<end>59610</end>
						<alignment>center</alignment>
						<cutPointTicks>4233600000</cutPointTicks>
						<rate>
							<timebase>60</timebase>
							<ntsc>FALSE</ntsc>
						</rate>
						<effect>
							<name>Cross Fade (+3dB)</name>
							<effectid>KGAudioTransCrossFade3dB</effectid>
							<effecttype>transition</effecttype>
							<mediatype>audio</mediatype>
							<wipecode>0</wipecode>
							<wipeaccuracy>100</wipeaccuracy>
							<startratio>0</startratio>
							<endratio>1</endratio>
							<reverse>FALSE</reverse>
						</effect>
					</transitionitem>
					<clipitem id="clipitem-875" premiereChannelType="stereo">
						<masterclipid>masterclip-99</masterclipid>
						<name>Kate_ZOOM0002.WAV</name>
						<enabled>TRUE</enabled>
						<duration>62251</duration>
						<rate>
							<timebase>60</timebase>
							<ntsc>FALSE</ntsc>
						</rate>
						<start>-1</start>
						<end>-1</end>
						<in>30824</in>
						<out>31021</out>
						<pproTicksIn>130496486400000</pproTicksIn>
						<pproTicksOut>131330505600000</pproTicksOut>
						<file id="file-99"/>
						<sourcetrack>
							<mediatype>audio</mediatype>
							<trackindex>2</trackindex>
						</sourcetrack>
						<filter>
							<effect>
								<name>Gain</name>
								<effectid>{61756678, 4761696e, 4b657947}</effectid>
								<effecttype>filter</effecttype>
								<mediatype>audio</mediatype>
								<parameter authoringApp="PremierePro">
									<parameterid>Gain(dB)</parameterid>
									<name>Gain(dB)</name>
									<valuemin>-96</valuemin>
									<valuemax>96</valuemax>
									<value>3</value>
								</parameter>
							</effect>
						</filter>
						<link>
							<linkclipref>clipitem-771</linkclipref>
							<mediatype>audio</mediatype>
							<trackindex>15</trackindex>
							<clipindex>197</clipindex>
							<groupindex>1</groupindex>
						</link>
						<link>
							<linkclipref>clipitem-875</linkclipref>
							<mediatype>audio</mediatype>
							<trackindex>16</trackindex>
							<clipindex>197</clipindex>
							<groupindex>1</groupindex>
						</link>
						<logginginfo>
							<description></description>
							<scene></scene>
							<shottake></shottake>
							<lognote></lognote>
							<good></good>
							<originalvideofilename></originalvideofilename>
							<originalaudiofilename></originalaudiofilename>
						</logginginfo>
						<colorinfo>
							<lut></lut>
							<lut1></lut1>
							<asc_sop></asc_sop>
							<asc_sat></asc_sat>
							<lut2></lut2>
						</colorinfo>
						<labels>
							<label2>Purple</label2>
						</labels>
					</clipitem>
					<transitionitem>
						<start>59803</start>
						<end>59805</end>
						<alignment>center</alignment>
						<cutPointTicks>4233600000</cutPointTicks>
						<rate>
							<timebase>60</timebase>
							<ntsc>FALSE</ntsc>
						</rate>
						<effect>
							<name>Cross Fade (+3dB)</name>
							<effectid>KGAudioTransCrossFade3dB</effectid>
							<effecttype>transition</effecttype>
							<mediatype>audio</mediatype>
							<wipecode>0</wipecode>
							<wipeaccuracy>100</wipeaccuracy>
							<startratio>0</startratio>
							<endratio>1</endratio>
							<reverse>FALSE</reverse>
						</effect>
					</transitionitem>
					<clipitem id="clipitem-876" premiereChannelType="stereo">
						<masterclipid>masterclip-99</masterclipid>
						<name>Kate_ZOOM0002.WAV</name>
						<enabled>TRUE</enabled>
						<duration>62251</duration>
						<rate>
							<timebase>60</timebase>
							<ntsc>FALSE</ntsc>
						</rate>
						<start>-1</start>
						<end>-1</end>
						<in>31049</in>
						<out>31094</out>
						<pproTicksIn>131449046400000</pproTicksIn>
						<pproTicksOut>131639558400000</pproTicksOut>
						<file id="file-99"/>
						<sourcetrack>
							<mediatype>audio</mediatype>
							<trackindex>2</trackindex>
						</sourcetrack>
						<filter>
							<effect>
								<name>Gain</name>
								<effectid>{61756678, 4761696e, 4b657947}</effectid>
								<effecttype>filter</effecttype>
								<mediatype>audio</mediatype>
								<parameter authoringApp="PremierePro">
									<parameterid>Gain(dB)</parameterid>
									<name>Gain(dB)</name>
									<valuemin>-96</valuemin>
									<valuemax>96</valuemax>
									<value>3</value>
								</parameter>
							</effect>
						</filter>
						<link>
							<linkclipref>clipitem-772</linkclipref>
							<mediatype>audio</mediatype>
							<trackindex>15</trackindex>
							<clipindex>199</clipindex>
							<groupindex>1</groupindex>
						</link>
						<link>
							<linkclipref>clipitem-876</linkclipref>
							<mediatype>audio</mediatype>
							<trackindex>16</trackindex>
							<clipindex>199</clipindex>
							<groupindex>1</groupindex>
						</link>
						<logginginfo>
							<description></description>
							<scene></scene>
							<shottake></shottake>
							<lognote></lognote>
							<good></good>
							<originalvideofilename></originalvideofilename>
							<originalaudiofilename></originalaudiofilename>
						</logginginfo>
						<colorinfo>
							<lut></lut>
							<lut1></lut1>
							<asc_sop></asc_sop>
							<asc_sat></asc_sat>
							<lut2></lut2>
						</colorinfo>
						<labels>
							<label2>Purple</label2>
						</labels>
					</clipitem>
					<transitionitem>
						<start>59846</start>
						<end>59848</end>
						<alignment>end-black</alignment>
						<cutPointTicks>8467200000</cutPointTicks>
						<rate>
							<timebase>60</timebase>
							<ntsc>FALSE</ntsc>
						</rate>
						<effect>
							<name>Cross Fade (+3dB)</name>
							<effectid>KGAudioTransCrossFade3dB</effectid>
							<effecttype>transition</effecttype>
							<mediatype>audio</mediatype>
							<wipecode>0</wipecode>
							<wipeaccuracy>100</wipeaccuracy>
							<startratio>0</startratio>
							<endratio>1</endratio>
							<reverse>FALSE</reverse>
						</effect>
					</transitionitem>
					<transitionitem>
						<start>59900</start>
						<end>59902</end>
						<alignment>start-black</alignment>
						<cutPointTicks>0</cutPointTicks>
						<rate>
							<timebase>60</timebase>
							<ntsc>FALSE</ntsc>
						</rate>
						<effect>
							<name>Cross Fade (+3dB)</name>
							<effectid>KGAudioTransCrossFade3dB</effectid>
							<effecttype>transition</effecttype>
							<mediatype>audio</mediatype>
							<wipecode>0</wipecode>
							<wipeaccuracy>100</wipeaccuracy>
							<startratio>0</startratio>
							<endratio>1</endratio>
							<reverse>FALSE</reverse>
						</effect>
					</transitionitem>
					<clipitem id="clipitem-877" premiereChannelType="stereo">
						<masterclipid>masterclip-99</masterclipid>
						<name>Kate_ZOOM0002.WAV</name>
						<enabled>TRUE</enabled>
						<duration>62251</duration>
						<rate>
							<timebase>60</timebase>
							<ntsc>FALSE</ntsc>
						</rate>
						<start>-1</start>
						<end>-1</end>
						<in>3109</in>
						<out>3380</out>
						<pproTicksIn>13162262400000</pproTicksIn>
						<pproTicksOut>14309568000000</pproTicksOut>
						<file id="file-99"/>
						<sourcetrack>
							<mediatype>audio</mediatype>
							<trackindex>2</trackindex>
						</sourcetrack>
						<filter>
							<effect>
								<name>Gain</name>
								<effectid>{61756678, 4761696e, 4b657947}</effectid>
								<effecttype>filter</effecttype>
								<mediatype>audio</mediatype>
								<parameter authoringApp="PremierePro">
									<parameterid>Gain(dB)</parameterid>
									<name>Gain(dB)</name>
									<valuemin>-96</valuemin>
									<valuemax>96</valuemax>
									<value>3</value>
								</parameter>
							</effect>
						</filter>
						<link>
							<linkclipref>clipitem-773</linkclipref>
							<mediatype>audio</mediatype>
							<trackindex>15</trackindex>
							<clipindex>202</clipindex>
							<groupindex>1</groupindex>
						</link>
						<link>
							<linkclipref>clipitem-877</linkclipref>
							<mediatype>audio</mediatype>
							<trackindex>16</trackindex>
							<clipindex>202</clipindex>
							<groupindex>1</groupindex>
						</link>
						<logginginfo>
							<description></description>
							<scene></scene>
							<shottake></shottake>
							<lognote></lognote>
							<good></good>
							<originalvideofilename></originalvideofilename>
							<originalaudiofilename></originalaudiofilename>
						</logginginfo>
						<colorinfo>
							<lut></lut>
							<lut1></lut1>
							<asc_sop></asc_sop>
							<asc_sat></asc_sat>
							<lut2></lut2>
						</colorinfo>
						<labels>
							<label2>Caribbean</label2>
						</labels>
					</clipitem>
					<transitionitem>
						<start>60169</start>
						<end>60171</end>
						<alignment>center</alignment>
						<cutPointTicks>4233600000</cutPointTicks>
						<rate>
							<timebase>60</timebase>
							<ntsc>FALSE</ntsc>
						</rate>
						<effect>
							<name>Cross Fade (+3dB)</name>
							<effectid>KGAudioTransCrossFade3dB</effectid>
							<effecttype>transition</effecttype>
							<mediatype>audio</mediatype>
							<wipecode>0</wipecode>
							<wipeaccuracy>100</wipeaccuracy>
							<startratio>0</startratio>
							<endratio>1</endratio>
							<reverse>FALSE</reverse>
						</effect>
					</transitionitem>
					<clipitem id="clipitem-878" premiereChannelType="stereo">
						<masterclipid>masterclip-99</masterclipid>
						<name>Kate_ZOOM0002.WAV</name>
						<enabled>TRUE</enabled>
						<duration>62251</duration>
						<rate>
							<timebase>60</timebase>
							<ntsc>FALSE</ntsc>
						</rate>
						<start>-1</start>
						<end>-1</end>
						<in>32754</in>
						<out>32998</out>
						<pproTicksIn>138667334400000</pproTicksIn>
						<pproTicksOut>139700332800000</pproTicksOut>
						<file id="file-99"/>
						<sourcetrack>
							<mediatype>audio</mediatype>
							<trackindex>2</trackindex>
						</sourcetrack>
						<filter>
							<effect>
								<name>Gain</name>
								<effectid>{61756678, 4761696e, 4b657947}</effectid>
								<effecttype>filter</effecttype>
								<mediatype>audio</mediatype>
								<parameter authoringApp="PremierePro">
									<parameterid>Gain(dB)</parameterid>
									<name>Gain(dB)</name>
									<valuemin>-96</valuemin>
									<valuemax>96</valuemax>
									<value>3</value>
								</parameter>
							</effect>
						</filter>
						<link>
							<linkclipref>clipitem-774</linkclipref>
							<mediatype>audio</mediatype>
							<trackindex>15</trackindex>
							<clipindex>204</clipindex>
							<groupindex>1</groupindex>
						</link>
						<link>
							<linkclipref>clipitem-878</linkclipref>
							<mediatype>audio</mediatype>
							<trackindex>16</trackindex>
							<clipindex>204</clipindex>
							<groupindex>1</groupindex>
						</link>
						<logginginfo>
							<description></description>
							<scene></scene>
							<shottake></shottake>
							<lognote></lognote>
							<good></good>
							<originalvideofilename></originalvideofilename>
							<originalaudiofilename></originalaudiofilename>
						</logginginfo>
						<colorinfo>
							<lut></lut>
							<lut1></lut1>
							<asc_sop></asc_sop>
							<asc_sat></asc_sat>
							<lut2></lut2>
						</colorinfo>
						<labels>
							<label2>Mango</label2>
						</labels>
					</clipitem>
					<transitionitem>
						<start>60412</start>
						<end>60414</end>
						<alignment>center</alignment>
						<cutPointTicks>4233600000</cutPointTicks>
						<rate>
							<timebase>60</timebase>
							<ntsc>FALSE</ntsc>
						</rate>
						<effect>
							<name>Cross Fade (+3dB)</name>
							<effectid>KGAudioTransCrossFade3dB</effectid>
							<effecttype>transition</effecttype>
							<mediatype>audio</mediatype>
							<wipecode>0</wipecode>
							<wipeaccuracy>100</wipeaccuracy>
							<startratio>0</startratio>
							<endratio>1</endratio>
							<reverse>FALSE</reverse>
						</effect>
					</transitionitem>
					<clipitem id="clipitem-879" premiereChannelType="stereo">
						<masterclipid>masterclip-99</masterclipid>
						<name>Kate_ZOOM0002.WAV</name>
						<enabled>TRUE</enabled>
						<duration>62251</duration>
						<rate>
							<timebase>60</timebase>
							<ntsc>FALSE</ntsc>
						</rate>
						<start>-1</start>
						<end>-1</end>
						<in>33042</in>
						<out>33232</out>
						<pproTicksIn>139886611200000</pproTicksIn>
						<pproTicksOut>140690995200000</pproTicksOut>
						<file id="file-99"/>
						<sourcetrack>
							<mediatype>audio</mediatype>
							<trackindex>2</trackindex>
						</sourcetrack>
						<filter>
							<effect>
								<name>Gain</name>
								<effectid>{61756678, 4761696e, 4b657947}</effectid>
								<effecttype>filter</effecttype>
								<mediatype>audio</mediatype>
								<parameter authoringApp="PremierePro">
									<parameterid>Gain(dB)</parameterid>
									<name>Gain(dB)</name>
									<valuemin>-96</valuemin>
									<valuemax>96</valuemax>
									<value>3</value>
								</parameter>
							</effect>
						</filter>
						<link>
							<linkclipref>clipitem-775</linkclipref>
							<mediatype>audio</mediatype>
							<trackindex>15</trackindex>
							<clipindex>206</clipindex>
							<groupindex>1</groupindex>
						</link>
						<link>
							<linkclipref>clipitem-879</linkclipref>
							<mediatype>audio</mediatype>
							<trackindex>16</trackindex>
							<clipindex>206</clipindex>
							<groupindex>1</groupindex>
						</link>
						<logginginfo>
							<description></description>
							<scene></scene>
							<shottake></shottake>
							<lognote></lognote>
							<good></good>
							<originalvideofilename></originalvideofilename>
							<originalaudiofilename></originalaudiofilename>
						</logginginfo>
						<colorinfo>
							<lut></lut>
							<lut1></lut1>
							<asc_sop></asc_sop>
							<asc_sat></asc_sat>
							<lut2></lut2>
						</colorinfo>
						<labels>
							<label2>Mango</label2>
						</labels>
					</clipitem>
					<transitionitem>
						<start>60601</start>
						<end>60603</end>
						<alignment>center</alignment>
						<cutPointTicks>4233600000</cutPointTicks>
						<rate>
							<timebase>60</timebase>
							<ntsc>FALSE</ntsc>
						</rate>
						<effect>
							<name>Cross Fade (+3dB)</name>
							<effectid>KGAudioTransCrossFade3dB</effectid>
							<effecttype>transition</effecttype>
							<mediatype>audio</mediatype>
							<wipecode>0</wipecode>
							<wipeaccuracy>100</wipeaccuracy>
							<startratio>0</startratio>
							<endratio>1</endratio>
							<reverse>FALSE</reverse>
						</effect>
					</transitionitem>
					<clipitem id="clipitem-880" premiereChannelType="stereo">
						<masterclipid>masterclip-99</masterclipid>
						<name>Kate_ZOOM0002.WAV</name>
						<enabled>TRUE</enabled>
						<duration>62251</duration>
						<rate>
							<timebase>60</timebase>
							<ntsc>FALSE</ntsc>
						</rate>
						<start>-1</start>
						<end>-1</end>
						<in>33390</in>
						<out>33569</out>
						<pproTicksIn>141359904000000</pproTicksIn>
						<pproTicksOut>142117718400000</pproTicksOut>
						<file id="file-99"/>
						<sourcetrack>
							<mediatype>audio</mediatype>
							<trackindex>2</trackindex>
						</sourcetrack>
						<filter>
							<effect>
								<name>Gain</name>
								<effectid>{61756678, 4761696e, 4b657947}</effectid>
								<effecttype>filter</effecttype>
								<mediatype>audio</mediatype>
								<parameter authoringApp="PremierePro">
									<parameterid>Gain(dB)</parameterid>
									<name>Gain(dB)</name>
									<valuemin>-96</valuemin>
									<valuemax>96</valuemax>
									<value>3</value>
								</parameter>
							</effect>
						</filter>
						<filter>
							<effect>
								<name>Audio Levels</name>
								<effectid>audiolevels</effectid>
								<effectcategory>audiolevels</effectcategory>
								<effecttype>audiolevels</effecttype>
								<mediatype>audio</mediatype>
								<pproBypass>false</pproBypass>
								<parameter authoringApp="PremierePro">
									<parameterid>level</parameterid>
									<name>Level</name>
									<valuemin>0</valuemin>
									<valuemax>3.98109</valuemax>
									<value>1</value>
									<keyframe>
										<when>33519</when>
										<value>1</value>
									</keyframe>
									<keyframe>
										<when>33529</when>
										<value>0.992126</value>
									</keyframe>
									<keyframe>
										<when>33529</when>
										<value>2</value>
									</keyframe>
								</parameter>
							</effect>
						</filter>
						<link>
							<linkclipref>clipitem-776</linkclipref>
							<mediatype>audio</mediatype>
							<trackindex>15</trackindex>
							<clipindex>208</clipindex>
							<groupindex>1</groupindex>
						</link>
						<link>
							<linkclipref>clipitem-880</linkclipref>
							<mediatype>audio</mediatype>
							<trackindex>16</trackindex>
							<clipindex>208</clipindex>
							<groupindex>1</groupindex>
						</link>
						<logginginfo>
							<description></description>
							<scene></scene>
							<shottake></shottake>
							<lognote></lognote>
							<good></good>
							<originalvideofilename></originalvideofilename>
							<originalaudiofilename></originalaudiofilename>
						</logginginfo>
						<colorinfo>
							<lut></lut>
							<lut1></lut1>
							<asc_sop></asc_sop>
							<asc_sat></asc_sat>
							<lut2></lut2>
						</colorinfo>
						<labels>
							<label2>Mango</label2>
						</labels>
					</clipitem>
					<transitionitem>
						<start>60777</start>
						<end>60779</end>
						<alignment>end-black</alignment>
						<cutPointTicks>8467200000</cutPointTicks>
						<rate>
							<timebase>60</timebase>
							<ntsc>FALSE</ntsc>
						</rate>
						<effect>
							<name>Cross Fade (+3dB)</name>
							<effectid>KGAudioTransCrossFade3dB</effectid>
							<effecttype>transition</effecttype>
							<mediatype>audio</mediatype>
							<wipecode>0</wipecode>
							<wipeaccuracy>100</wipeaccuracy>
							<startratio>0</startratio>
							<endratio>1</endratio>
							<reverse>FALSE</reverse>
						</effect>
					</transitionitem>
					<transitionitem>
						<start>60867</start>
						<end>60869</end>
						<alignment>start-black</alignment>
						<cutPointTicks>0</cutPointTicks>
						<rate>
							<timebase>60</timebase>
							<ntsc>FALSE</ntsc>
						</rate>
						<effect>
							<name>Cross Fade (+3dB)</name>
							<effectid>KGAudioTransCrossFade3dB</effectid>
							<effecttype>transition</effecttype>
							<mediatype>audio</mediatype>
							<wipecode>0</wipecode>
							<wipeaccuracy>100</wipeaccuracy>
							<startratio>0</startratio>
							<endratio>1</endratio>
							<reverse>FALSE</reverse>
						</effect>
					</transitionitem>
					<clipitem id="clipitem-881" premiereChannelType="stereo">
						<masterclipid>masterclip-99</masterclipid>
						<name>Kate_ZOOM0002.WAV</name>
						<enabled>TRUE</enabled>
						<duration>62251</duration>
						<rate>
							<timebase>60</timebase>
							<ntsc>FALSE</ntsc>
						</rate>
						<start>-1</start>
						<end>-1</end>
						<in>37357</in>
						<out>37758</out>
						<pproTicksIn>158154595200000</pproTicksIn>
						<pproTicksOut>159852268800000</pproTicksOut>
						<file id="file-99"/>
						<sourcetrack>
							<mediatype>audio</mediatype>
							<trackindex>2</trackindex>
						</sourcetrack>
						<filter>
							<effect>
								<name>Gain</name>
								<effectid>{61756678, 4761696e, 4b657947}</effectid>
								<effecttype>filter</effecttype>
								<mediatype>audio</mediatype>
								<parameter authoringApp="PremierePro">
									<parameterid>Gain(dB)</parameterid>
									<name>Gain(dB)</name>
									<valuemin>-96</valuemin>
									<valuemax>96</valuemax>
									<value>3</value>
								</parameter>
							</effect>
						</filter>
						<filter>
							<effect>
								<name>Audio Levels</name>
								<effectid>audiolevels</effectid>
								<effectcategory>audiolevels</effectcategory>
								<effecttype>audiolevels</effecttype>
								<mediatype>audio</mediatype>
								<pproBypass>false</pproBypass>
								<parameter authoringApp="PremierePro">
									<parameterid>level</parameterid>
									<name>Level</name>
									<valuemin>0</valuemin>
									<valuemax>3.98109</valuemax>
									<value>1.49123</value>
									<keyframe>
										<when>37563</when>
										<value>1.49123</value>
									</keyframe>
									<keyframe>
										<when>37615</when>
										<value>1.91228</value>
									</keyframe>
									<keyframe>
										<when>37737</when>
										<value>1.91228</value>
									</keyframe>
									<keyframe>
										<when>37758</when>
										<value>0</value>
									</keyframe>
								</parameter>
							</effect>
						</filter>
						<link>
							<linkclipref>clipitem-777</linkclipref>
							<mediatype>audio</mediatype>
							<trackindex>15</trackindex>
							<clipindex>211</clipindex>
							<groupindex>1</groupindex>
						</link>
						<link>
							<linkclipref>clipitem-881</linkclipref>
							<mediatype>audio</mediatype>
							<trackindex>16</trackindex>
							<clipindex>211</clipindex>
							<groupindex>1</groupindex>
						</link>
						<logginginfo>
							<description></description>
							<scene></scene>
							<shottake></shottake>
							<lognote></lognote>
							<good></good>
							<originalvideofilename></originalvideofilename>
							<originalaudiofilename></originalaudiofilename>
						</logginginfo>
						<colorinfo>
							<lut></lut>
							<lut1></lut1>
							<asc_sop></asc_sop>
							<asc_sat></asc_sat>
							<lut2></lut2>
						</colorinfo>
						<labels>
							<label2>Violet</label2>
						</labels>
					</clipitem>
					<transitionitem>
						<start>61266</start>
						<end>61268</end>
						<alignment>end-black</alignment>
						<cutPointTicks>8467200000</cutPointTicks>
						<rate>
							<timebase>60</timebase>
							<ntsc>FALSE</ntsc>
						</rate>
						<effect>
							<name>Cross Fade (+3dB)</name>
							<effectid>KGAudioTransCrossFade3dB</effectid>
							<effecttype>transition</effecttype>
							<mediatype>audio</mediatype>
							<wipecode>0</wipecode>
							<wipeaccuracy>100</wipeaccuracy>
							<startratio>0</startratio>
							<endratio>1</endratio>
							<reverse>FALSE</reverse>
						</effect>
					</transitionitem>
					<transitionitem>
						<start>61317</start>
						<end>61319</end>
						<alignment>start-black</alignment>
						<cutPointTicks>0</cutPointTicks>
						<rate>
							<timebase>60</timebase>
							<ntsc>FALSE</ntsc>
						</rate>
						<effect>
							<name>Cross Fade (+3dB)</name>
							<effectid>KGAudioTransCrossFade3dB</effectid>
							<effecttype>transition</effecttype>
							<mediatype>audio</mediatype>
							<wipecode>0</wipecode>
							<wipeaccuracy>100</wipeaccuracy>
							<startratio>0</startratio>
							<endratio>1</endratio>
							<reverse>FALSE</reverse>
						</effect>
					</transitionitem>
					<clipitem id="clipitem-882" premiereChannelType="stereo">
						<masterclipid>masterclip-99</masterclipid>
						<name>Kate_ZOOM0002.WAV</name>
						<enabled>TRUE</enabled>
						<duration>62251</duration>
						<rate>
							<timebase>60</timebase>
							<ntsc>FALSE</ntsc>
						</rate>
						<start>-1</start>
						<end>-1</end>
						<in>33856</in>
						<out>34010</out>
						<pproTicksIn>143332761600000</pproTicksIn>
						<pproTicksOut>143984736000000</pproTicksOut>
						<file id="file-99"/>
						<sourcetrack>
							<mediatype>audio</mediatype>
							<trackindex>2</trackindex>
						</sourcetrack>
						<filter>
							<effect>
								<name>Gain</name>
								<effectid>{61756678, 4761696e, 4b657947}</effectid>
								<effecttype>filter</effecttype>
								<mediatype>audio</mediatype>
								<parameter authoringApp="PremierePro">
									<parameterid>Gain(dB)</parameterid>
									<name>Gain(dB)</name>
									<valuemin>-96</valuemin>
									<valuemax>96</valuemax>
									<value>3</value>
								</parameter>
							</effect>
						</filter>
						<filter>
							<effect>
								<name>Audio Levels</name>
								<effectid>audiolevels</effectid>
								<effectcategory>audiolevels</effectcategory>
								<effecttype>audiolevels</effecttype>
								<mediatype>audio</mediatype>
								<pproBypass>false</pproBypass>
								<parameter authoringApp="PremierePro">
									<parameterid>level</parameterid>
									<name>Level</name>
									<valuemin>0</valuemin>
									<valuemax>3.98109</valuemax>
									<value>0</value>
									<keyframe>
										<when>33856</when>
										<value>0</value>
									</keyframe>
									<keyframe>
										<when>33860</when>
										<value>1.45614</value>
									</keyframe>
									<keyframe>
										<when>33995</when>
										<value>1.45614</value>
									</keyframe>
									<keyframe>
										<when>34009</when>
										<value>0</value>
									</keyframe>
								</parameter>
							</effect>
						</filter>
						<link>
							<linkclipref>clipitem-778</linkclipref>
							<mediatype>audio</mediatype>
							<trackindex>15</trackindex>
							<clipindex>214</clipindex>
							<groupindex>1</groupindex>
						</link>
						<link>
							<linkclipref>clipitem-882</linkclipref>
							<mediatype>audio</mediatype>
							<trackindex>16</trackindex>
							<clipindex>214</clipindex>
							<groupindex>1</groupindex>
						</link>
						<logginginfo>
							<description></description>
							<scene></scene>
							<shottake></shottake>
							<lognote></lognote>
							<good></good>
							<originalvideofilename></originalvideofilename>
							<originalaudiofilename></originalaudiofilename>
						</logginginfo>
						<colorinfo>
							<lut></lut>
							<lut1></lut1>
							<asc_sop></asc_sop>
							<asc_sat></asc_sat>
							<lut2></lut2>
						</colorinfo>
						<labels>
							<label2>Mango</label2>
						</labels>
					</clipitem>
					<transitionitem>
						<start>61469</start>
						<end>61471</end>
						<alignment>end-black</alignment>
						<cutPointTicks>8467200000</cutPointTicks>
						<rate>
							<timebase>60</timebase>
							<ntsc>FALSE</ntsc>
						</rate>
						<effect>
							<name>Cross Fade (+3dB)</name>
							<effectid>KGAudioTransCrossFade3dB</effectid>
							<effecttype>transition</effecttype>
							<mediatype>audio</mediatype>
							<wipecode>0</wipecode>
							<wipeaccuracy>100</wipeaccuracy>
							<startratio>0</startratio>
							<endratio>1</endratio>
							<reverse>FALSE</reverse>
						</effect>
					</transitionitem>
					<enabled>TRUE</enabled>
					<locked>FALSE</locked>
					<outputchannelindex>2</outputchannelindex>
				</track>
				<track TL.SQTrackAudioKeyframeStyle="0" TL.SQTrackShy="0" TL.SQTrackExpandedHeight="75" TL.SQTrackExpanded="0" MZ.TrackTargeted="0" PannerCurrentValue="0.5" PannerIsInverted="true" PannerStartKeyframe="-91445760000000000,0.5,0,0,0,0,0,0" PannerName="Balance" currentExplodedTrackIndex="0" totalExplodedTrackCount="2" premiereTrackType="Stereo">
					<clipitem id="clipitem-883" premiereChannelType="stereo">
						<masterclipid>masterclip-100</masterclipid>
						<name>20474912_future-dreams_by_davidyan_preview.mp3</name>
						<enabled>TRUE</enabled>
						<duration>17872</duration>
						<rate>
							<timebase>60</timebase>
							<ntsc>FALSE</ntsc>
						</rate>
						<start>228</start>
						<end>2011</end>
						<in>30</in>
						<out>1813</out>
						<pproTicksIn>127008000000</pproTicksIn>
						<pproTicksOut>7675516800000</pproTicksOut>
						<file id="file-100">
							<name>20474912_future-dreams_by_davidyan_preview.mp3</name>
							<pathurl>file://localhost/G%3a/Departments/_Post/__Projects/035_Chimps_Part_2/3.Audio/Music/Samples/20474912_future-dreams_by_davidyan_preview.mp3</pathurl>
							<rate>
								<timebase>30</timebase>
								<ntsc>TRUE</ntsc>
							</rate>
							<duration>8927</duration>
							<timecode>
								<rate>
									<timebase>30</timebase>
									<ntsc>TRUE</ntsc>
								</rate>
								<string>00;00;01;02</string>
								<frame>32</frame>
								<displayformat>DF</displayformat>
							</timecode>
							<media>
								<audio>
									<samplecharacteristics>
										<depth>16</depth>
										<samplerate>44100</samplerate>
									</samplecharacteristics>
									<channelcount>2</channelcount>
								</audio>
							</media>
						</file>
						<sourcetrack>
							<mediatype>audio</mediatype>
							<trackindex>1</trackindex>
						</sourcetrack>
						<filter>
							<effect>
								<name>Gain</name>
								<effectid>{61756678, 4761696e, 4b657947}</effectid>
								<effecttype>filter</effecttype>
								<mediatype>audio</mediatype>
								<parameter authoringApp="PremierePro">
									<parameterid>Gain(dB)</parameterid>
									<name>Gain(dB)</name>
									<valuemin>-96</valuemin>
									<valuemax>96</valuemax>
									<value>-21</value>
								</parameter>
							</effect>
						</filter>
						<filter>
							<effect>
								<name>Audio Levels</name>
								<effectid>audiolevels</effectid>
								<effectcategory>audiolevels</effectcategory>
								<effecttype>audiolevels</effecttype>
								<mediatype>audio</mediatype>
								<pproBypass>false</pproBypass>
								<parameter authoringApp="PremierePro">
									<parameterid>level</parameterid>
									<name>Level</name>
									<valuemin>0</valuemin>
									<valuemax>3.98109</valuemax>
									<value>0</value>
									<keyframe>
										<when>1243</when>
										<value>1</value>
									</keyframe>
									<keyframe>
										<when>1655</when>
										<value>0</value>
									</keyframe>
								</parameter>
							</effect>
						</filter>
						<link>
							<linkclipref>clipitem-883</linkclipref>
							<mediatype>audio</mediatype>
							<trackindex>17</trackindex>
							<clipindex>1</clipindex>
							<groupindex>1</groupindex>
						</link>
						<link>
							<linkclipref>clipitem-885</linkclipref>
							<mediatype>audio</mediatype>
							<trackindex>18</trackindex>
							<clipindex>1</clipindex>
							<groupindex>1</groupindex>
						</link>
						<logginginfo>
							<description></description>
							<scene></scene>
							<shottake></shottake>
							<lognote></lognote>
							<good></good>
							<originalvideofilename></originalvideofilename>
							<originalaudiofilename></originalaudiofilename>
						</logginginfo>
						<colorinfo>
							<lut></lut>
							<lut1></lut1>
							<asc_sop></asc_sop>
							<asc_sat></asc_sat>
							<lut2></lut2>
						</colorinfo>
						<labels>
							<label2>Caribbean</label2>
						</labels>
					</clipitem>
					<clipitem id="clipitem-884" premiereChannelType="stereo">
						<masterclipid>masterclip-100</masterclipid>
						<name>20474912_future-dreams_by_davidyan_preview.mp3</name>
						<enabled>TRUE</enabled>
						<duration>17872</duration>
						<rate>
							<timebase>60</timebase>
							<ntsc>FALSE</ntsc>
						</rate>
						<start>55820</start>
						<end>62311</end>
						<in>0</in>
						<out>6491</out>
						<pproTicksIn>0</pproTicksIn>
						<pproTicksOut>27480297600000</pproTicksOut>
						<file id="file-100"/>
						<sourcetrack>
							<mediatype>audio</mediatype>
							<trackindex>1</trackindex>
						</sourcetrack>
						<filter>
							<effect>
								<name>Gain</name>
								<effectid>{61756678, 4761696e, 4b657947}</effectid>
								<effecttype>filter</effecttype>
								<mediatype>audio</mediatype>
								<parameter authoringApp="PremierePro">
									<parameterid>Gain(dB)</parameterid>
									<name>Gain(dB)</name>
									<valuemin>-96</valuemin>
									<valuemax>96</valuemax>
									<value>-21</value>
								</parameter>
							</effect>
						</filter>
						<filter>
							<effect>
								<name>Audio Levels</name>
								<effectid>audiolevels</effectid>
								<effectcategory>audiolevels</effectcategory>
								<effecttype>audiolevels</effecttype>
								<mediatype>audio</mediatype>
								<pproBypass>false</pproBypass>
								<parameter authoringApp="PremierePro">
									<parameterid>level</parameterid>
									<name>Level</name>
									<valuemin>0</valuemin>
									<valuemax>3.98109</valuemax>
									<value>0</value>
									<keyframe>
										<when>0</when>
										<value>0.0350877</value>
									</keyframe>
									<keyframe>
										<when>1226</when>
										<value>0.298246</value>
									</keyframe>
									<keyframe>
										<when>1694</when>
										<value>0.593219</value>
									</keyframe>
									<keyframe>
										<when>2134</when>
										<value>0.610053</value>
									</keyframe>
									<keyframe>
										<when>2231</when>
										<value>1.01754</value>
									</keyframe>
									<keyframe>
										<when>2413</when>
										<value>1.40351</value>
									</keyframe>
									<keyframe>
										<when>2876</when>
										<value>1.40351</value>
									</keyframe>
									<keyframe>
										<when>2966</when>
										<value>1.19298</value>
									</keyframe>
									<keyframe>
										<when>3138</when>
										<value>1.01754</value>
									</keyframe>
									<keyframe>
										<when>3326</when>
										<value>0.45614</value>
									</keyframe>
									<keyframe>
										<when>5606</when>
										<value>0.421715</value>
									</keyframe>
									<keyframe>
										<when>5650</when>
										<value>0.596491</value>
									</keyframe>
									<keyframe>
										<when>5892</when>
										<value>0.577968</value>
									</keyframe>
									<keyframe>
										<when>6473</when>
										<value>0</value>
									</keyframe>
								</parameter>
							</effect>
						</filter>
						<link>
							<linkclipref>clipitem-884</linkclipref>
							<mediatype>audio</mediatype>
							<trackindex>17</trackindex>
							<clipindex>2</clipindex>
							<groupindex>1</groupindex>
						</link>
						<link>
							<linkclipref>clipitem-886</linkclipref>
							<mediatype>audio</mediatype>
							<trackindex>18</trackindex>
							<clipindex>2</clipindex>
							<groupindex>1</groupindex>
						</link>
						<logginginfo>
							<description></description>
							<scene></scene>
							<shottake></shottake>
							<lognote></lognote>
							<good></good>
							<originalvideofilename></originalvideofilename>
							<originalaudiofilename></originalaudiofilename>
						</logginginfo>
						<colorinfo>
							<lut></lut>
							<lut1></lut1>
							<asc_sop></asc_sop>
							<asc_sat></asc_sat>
							<lut2></lut2>
						</colorinfo>
						<labels>
							<label2>Caribbean</label2>
						</labels>
					</clipitem>
					<enabled>TRUE</enabled>
					<locked>FALSE</locked>
					<outputchannelindex>1</outputchannelindex>
				</track>
				<track TL.SQTrackAudioKeyframeStyle="0" TL.SQTrackShy="0" TL.SQTrackExpandedHeight="75" TL.SQTrackExpanded="0" MZ.TrackTargeted="0" PannerCurrentValue="0.5" PannerIsInverted="true" PannerStartKeyframe="-91445760000000000,0.5,0,0,0,0,0,0" PannerName="Balance" currentExplodedTrackIndex="1" totalExplodedTrackCount="2" premiereTrackType="Stereo">
					<clipitem id="clipitem-885" premiereChannelType="stereo">
						<masterclipid>masterclip-100</masterclipid>
						<name>20474912_future-dreams_by_davidyan_preview.mp3</name>
						<enabled>TRUE</enabled>
						<duration>17872</duration>
						<rate>
							<timebase>60</timebase>
							<ntsc>FALSE</ntsc>
						</rate>
						<start>228</start>
						<end>2011</end>
						<in>30</in>
						<out>1813</out>
						<pproTicksIn>127008000000</pproTicksIn>
						<pproTicksOut>7675516800000</pproTicksOut>
						<file id="file-100"/>
						<sourcetrack>
							<mediatype>audio</mediatype>
							<trackindex>2</trackindex>
						</sourcetrack>
						<filter>
							<effect>
								<name>Gain</name>
								<effectid>{61756678, 4761696e, 4b657947}</effectid>
								<effecttype>filter</effecttype>
								<mediatype>audio</mediatype>
								<parameter authoringApp="PremierePro">
									<parameterid>Gain(dB)</parameterid>
									<name>Gain(dB)</name>
									<valuemin>-96</valuemin>
									<valuemax>96</valuemax>
									<value>-21</value>
								</parameter>
							</effect>
						</filter>
						<filter>
							<effect>
								<name>Audio Levels</name>
								<effectid>audiolevels</effectid>
								<effectcategory>audiolevels</effectcategory>
								<effecttype>audiolevels</effecttype>
								<mediatype>audio</mediatype>
								<pproBypass>false</pproBypass>
								<parameter authoringApp="PremierePro">
									<parameterid>level</parameterid>
									<name>Level</name>
									<valuemin>0</valuemin>
									<valuemax>3.98109</valuemax>
									<value>0</value>
									<keyframe>
										<when>1243</when>
										<value>1</value>
									</keyframe>
									<keyframe>
										<when>1655</when>
										<value>0</value>
									</keyframe>
								</parameter>
							</effect>
						</filter>
						<link>
							<linkclipref>clipitem-883</linkclipref>
							<mediatype>audio</mediatype>
							<trackindex>17</trackindex>
							<clipindex>1</clipindex>
							<groupindex>1</groupindex>
						</link>
						<link>
							<linkclipref>clipitem-885</linkclipref>
							<mediatype>audio</mediatype>
							<trackindex>18</trackindex>
							<clipindex>1</clipindex>
							<groupindex>1</groupindex>
						</link>
						<logginginfo>
							<description></description>
							<scene></scene>
							<shottake></shottake>
							<lognote></lognote>
							<good></good>
							<originalvideofilename></originalvideofilename>
							<originalaudiofilename></originalaudiofilename>
						</logginginfo>
						<colorinfo>
							<lut></lut>
							<lut1></lut1>
							<asc_sop></asc_sop>
							<asc_sat></asc_sat>
							<lut2></lut2>
						</colorinfo>
						<labels>
							<label2>Caribbean</label2>
						</labels>
					</clipitem>
					<clipitem id="clipitem-886" premiereChannelType="stereo">
						<masterclipid>masterclip-100</masterclipid>
						<name>20474912_future-dreams_by_davidyan_preview.mp3</name>
						<enabled>TRUE</enabled>
						<duration>17872</duration>
						<rate>
							<timebase>60</timebase>
							<ntsc>FALSE</ntsc>
						</rate>
						<start>55820</start>
						<end>62311</end>
						<in>0</in>
						<out>6491</out>
						<pproTicksIn>0</pproTicksIn>
						<pproTicksOut>27480297600000</pproTicksOut>
						<file id="file-100"/>
						<sourcetrack>
							<mediatype>audio</mediatype>
							<trackindex>2</trackindex>
						</sourcetrack>
						<filter>
							<effect>
								<name>Gain</name>
								<effectid>{61756678, 4761696e, 4b657947}</effectid>
								<effecttype>filter</effecttype>
								<mediatype>audio</mediatype>
								<parameter authoringApp="PremierePro">
									<parameterid>Gain(dB)</parameterid>
									<name>Gain(dB)</name>
									<valuemin>-96</valuemin>
									<valuemax>96</valuemax>
									<value>-21</value>
								</parameter>
							</effect>
						</filter>
						<filter>
							<effect>
								<name>Audio Levels</name>
								<effectid>audiolevels</effectid>
								<effectcategory>audiolevels</effectcategory>
								<effecttype>audiolevels</effecttype>
								<mediatype>audio</mediatype>
								<pproBypass>false</pproBypass>
								<parameter authoringApp="PremierePro">
									<parameterid>level</parameterid>
									<name>Level</name>
									<valuemin>0</valuemin>
									<valuemax>3.98109</valuemax>
									<value>0</value>
									<keyframe>
										<when>0</when>
										<value>0.0350877</value>
									</keyframe>
									<keyframe>
										<when>1226</when>
										<value>0.298246</value>
									</keyframe>
									<keyframe>
										<when>1694</when>
										<value>0.593219</value>
									</keyframe>
									<keyframe>
										<when>2134</when>
										<value>0.610053</value>
									</keyframe>
									<keyframe>
										<when>2231</when>
										<value>1.01754</value>
									</keyframe>
									<keyframe>
										<when>2413</when>
										<value>1.40351</value>
									</keyframe>
									<keyframe>
										<when>2876</when>
										<value>1.40351</value>
									</keyframe>
									<keyframe>
										<when>2966</when>
										<value>1.19298</value>
									</keyframe>
									<keyframe>
										<when>3138</when>
										<value>1.01754</value>
									</keyframe>
									<keyframe>
										<when>3326</when>
										<value>0.45614</value>
									</keyframe>
									<keyframe>
										<when>5606</when>
										<value>0.421715</value>
									</keyframe>
									<keyframe>
										<when>5650</when>
										<value>0.596491</value>
									</keyframe>
									<keyframe>
										<when>5892</when>
										<value>0.577968</value>
									</keyframe>
									<keyframe>
										<when>6473</when>
										<value>0</value>
									</keyframe>
								</parameter>
							</effect>
						</filter>
						<link>
							<linkclipref>clipitem-884</linkclipref>
							<mediatype>audio</mediatype>
							<trackindex>17</trackindex>
							<clipindex>2</clipindex>
							<groupindex>1</groupindex>
						</link>
						<link>
							<linkclipref>clipitem-886</linkclipref>
							<mediatype>audio</mediatype>
							<trackindex>18</trackindex>
							<clipindex>2</clipindex>
							<groupindex>1</groupindex>
						</link>
						<logginginfo>
							<description></description>
							<scene></scene>
							<shottake></shottake>
							<lognote></lognote>
							<good></good>
							<originalvideofilename></originalvideofilename>
							<originalaudiofilename></originalaudiofilename>
						</logginginfo>
						<colorinfo>
							<lut></lut>
							<lut1></lut1>
							<asc_sop></asc_sop>
							<asc_sat></asc_sat>
							<lut2></lut2>
						</colorinfo>
						<labels>
							<label2>Caribbean</label2>
						</labels>
					</clipitem>
					<enabled>TRUE</enabled>
					<locked>FALSE</locked>
					<outputchannelindex>2</outputchannelindex>
				</track>
			</audio>
		</media>
		<timecode>
			<rate>
				<timebase>60</timebase>
				<ntsc>FALSE</ntsc>
			</rate>
			<string>00:00:00:00</string>
			<frame>0</frame>
			<displayformat>NDF</displayformat>
		</timecode>
			<marker>
				<comment></comment>
				<name></name>
				<in>31299</in>
				<out>-1</out>
				<pproColor>4281740498</pproColor>
			</marker>
			<marker>
				<comment></comment>
				<name>HERCULES - NEEDS VO</name>
				<in>47914</in>
				<out>52163</out>
				<pproColor>4281740498</pproColor>
			</marker>
			<marker>
				<comment></comment>
				<name></name>
				<in>20569</in>
				<out>-1</out>
				<pproColor>4294741314</pproColor>
			</marker>
			<marker>
				<comment></comment>
				<name></name>
				<in>40527</in>
				<out>-1</out>
			</marker>
			<marker>
				<comment></comment>
				<name></name>
				<in>8399</in>
				<out>-1</out>
			</marker>
			<marker>
				<comment></comment>
				<name></name>
				<in>65777</in>
				<out>-1</out>
			</marker>
			<marker>
				<comment></comment>
				<name></name>
				<in>92004</in>
				<out>-1</out>
			</marker>
			<marker>
				<comment></comment>
				<name>DAY 2</name>
				<in>47170</in>
				<out>-1</out>
			</marker>
			<marker>
				<comment></comment>
				<name></name>
				<in>44209</in>
				<out>-1</out>
				<pproColor>4281049552</pproColor>
			</marker>
		<labels>
			<label2>Forest</label2>
		</labels>
	</sequence>
</xmeml>
