<?xml version="1.0" encoding="UTF-8"?>
<!DOCTYPE xmeml>
<xmeml version="4">
	<sequence id="sequence-1" TL.SQAudioVisibleBase="0" TL.SQVideoVisibleBase="0" TL.SQVisibleBaseTime="77768794867137" TL.SQAVDividerPosition="0.446360141039" TL.SQHideShyTracks="0" TL.SQHeaderWidth="236" Monitor.ProgramZoomOut="25401600000000" Monitor.ProgramZoomIn="0" TL.SQTimePerPixel="0.082668382091770465" AM.TrackVScrollPosition="0" AM.TrackScrollPosition="0" MZ.EditLine="20002574592000" MZ.Sequence.PreviewFrameSizeHeight="5760" MZ.Sequence.PreviewFrameSizeWidth="5760" MZ.Sequence.AudioTimeDisplayFormat="200" MZ.Sequence.PreviewRenderingClassID="1297106761" MZ.Sequence.PreviewRenderingPresetCodec="1128679492" MZ.Sequence.PreviewRenderingPresetPath="EncoderPresets\SequencePreview\9678af98-a7b7-4bdb-b477-7ac9c8df4a4e\Quicktime GoPro CineForm (YUV 10-bit).epr" MZ.Sequence.PreviewUseMaxRenderQuality="true" MZ.Sequence.PreviewUseMaxBitDepth="true" MZ.Sequence.EditingModeGUID="9678af98-a7b7-4bdb-b477-7ac9c8df4a4e" MZ.Sequence.VideoTimeDisplayFormat="102" MZ.WorkOutPoint="38776177440000" MZ.WorkInPoint="0" MZ.ZeroPoint="0" explodedTracks="true">
		<uuid>dc687d34-8752-420d-a8fe-7c8740bbe780</uuid>
		<duration>20180</duration>
		<rate>
			<timebase>30</timebase>
			<ntsc>TRUE</ntsc>
		</rate>
		<name>Chimp_Final Cut_SWAPS_6k</name>
		<media>
			<video>
				<format>
					<samplecharacteristics>
						<rate>
							<timebase>30</timebase>
							<ntsc>TRUE</ntsc>
						</rate>
						<codec>
							<name>Apple ProRes 422</name>
							<appspecificdata>
								<appname>Final Cut Pro</appname>
								<appmanufacturer>Apple Inc.</appmanufacturer>
								<appversion>7.0</appversion>
								<data>
									<qtcodec>
										<codecname>Apple ProRes 422</codecname>
										<codectypename>Apple ProRes 422</codectypename>
										<codectypecode>apcn</codectypecode>
										<codecvendorcode>appl</codecvendorcode>
										<spatialquality>1024</spatialquality>
										<temporalquality>0</temporalquality>
										<keyframerate>0</keyframerate>
										<datarate>0</datarate>
									</qtcodec>
								</data>
							</appspecificdata>
						</codec>
						<width>5760</width>
						<height>5760</height>
						<anamorphic>FALSE</anamorphic>
						<pixelaspectratio>square</pixelaspectratio>
						<fielddominance>none</fielddominance>
						<colordepth>24</colordepth>
					</samplecharacteristics>
				</format>
				<track TL.SQTrackShy="0" TL.SQTrackExpandedHeight="47" TL.SQTrackExpanded="0" MZ.TrackTargeted="1">
					<clipitem id="clipitem-1">
						<masterclipid>masterclip-1</masterclipid>
						<name>CMP_ZCAM0049_v004.5834.png</name>
						<enabled>TRUE</enabled>
						<duration>3166</duration>
						<rate>
							<timebase>30</timebase>
							<ntsc>TRUE</ntsc>
						</rate>
						<start>114</start>
						<end>3166</end>
						<in>114</in>
						<out>3166</out>
						<pproTicksIn>966226060800</pproTicksIn>
						<pproTicksOut>26833962355200</pproTicksOut>
						<alphatype>none</alphatype>
						<pixelaspectratio>square</pixelaspectratio>
						<anamorphic>FALSE</anamorphic>
						<file id="file-1">
							<name>CMP_ZCAM0049_v004.5834.png</name>
							<pathurl>file://localhost/G%3a/Departments/_Post/__Projects/033_Chimps_CMP/6.VFX/CMP_ZCAM0049/CMP_ZCAM0049_v004/Prerenders/CMP_ZCAM0049_v004.5834.png</pathurl>
							<rate>
								<timebase>30</timebase>
								<ntsc>TRUE</ntsc>
							</rate>
							<duration>3166</duration>
							<timecode>
								<rate>
									<timebase>30</timebase>
									<ntsc>TRUE</ntsc>
								</rate>
								<string>00:00:00:00</string>
								<frame>0</frame>
								<displayformat>NDF</displayformat>
							</timecode>
							<media>
								<video>
									<samplecharacteristics>
										<rate>
											<timebase>30</timebase>
											<ntsc>TRUE</ntsc>
										</rate>
										<width>5760</width>
										<height>5760</height>
										<anamorphic>FALSE</anamorphic>
										<pixelaspectratio>square</pixelaspectratio>
										<fielddominance>none</fielddominance>
									</samplecharacteristics>
								</video>
							</media>
						</file>
							<marker>
								<comment>Jacob Rules</comment>
								<name>VFX</name>
								<in>2258</in>
								<out>-1</out>
							</marker>
							<marker>
								<comment></comment>
								<name>VFX</name>
								<in>2360</in>
								<out>-1</out>
							</marker>
							<marker>
								<comment></comment>
								<name></name>
								<in>324</in>
								<out>-1</out>
							</marker>
						<logginginfo>
							<description></description>
							<scene></scene>
							<shottake></shottake>
							<lognote></lognote>
							<good></good>
							<originalvideofilename></originalvideofilename>
							<originalaudiofilename></originalaudiofilename>
						</logginginfo>
						<colorinfo>
							<lut></lut>
							<lut1></lut1>
							<asc_sop></asc_sop>
							<asc_sat></asc_sat>
							<lut2></lut2>
						</colorinfo>
						<labels>
							<label2>Green</label2>
						</labels>
					</clipitem>
					<clipitem id="clipitem-2">
						<masterclipid>masterclip-2</masterclipid>
						<name>CMP_ZCAM0050-1_v003.0001.png</name>
						<enabled>TRUE</enabled>
						<duration>3502</duration>
						<rate>
							<timebase>30</timebase>
							<ntsc>TRUE</ntsc>
						</rate>
						<start>3166</start>
						<end>5501</end>
						<in>0</in>
						<out>2335</out>
						<pproTicksIn>0</pproTicksIn>
						<pproTicksOut>19790682912000</pproTicksOut>
						<alphatype>none</alphatype>
						<pixelaspectratio>square</pixelaspectratio>
						<anamorphic>FALSE</anamorphic>
						<file id="file-2">
							<name>CMP_ZCAM0050-1_v003.0001.png</name>
							<pathurl>file://localhost/G%3a/Departments/_Post/__Projects/033_Chimps_CMP/6.VFX/CMP_ZCAM0050-1/CMP_ZCAM0050-1_V004/Prerenders/CMP_ZCAM0050-1_v003.0001.png</pathurl>
							<rate>
								<timebase>30</timebase>
								<ntsc>TRUE</ntsc>
							</rate>
							<duration>3502</duration>
							<timecode>
								<rate>
									<timebase>30</timebase>
									<ntsc>TRUE</ntsc>
								</rate>
								<string>00:00:00:00</string>
								<frame>0</frame>
								<displayformat>NDF</displayformat>
							</timecode>
							<media>
								<video>
									<samplecharacteristics>
										<rate>
											<timebase>30</timebase>
											<ntsc>TRUE</ntsc>
										</rate>
										<width>5760</width>
										<height>5760</height>
										<anamorphic>FALSE</anamorphic>
										<pixelaspectratio>square</pixelaspectratio>
										<fielddominance>none</fielddominance>
									</samplecharacteristics>
								</video>
							</media>
						</file>
							<marker>
								<comment>Stabalize</comment>
								<name>VFX</name>
								<in>1270</in>
								<out>1450</out>
								<pproColor>4292277273</pproColor>
							</marker>
							<marker>
								<comment>color flash</comment>
								<name>VFX</name>
								<in>721</in>
								<out>-1</out>
							</marker>
							<marker>
								<comment>color flash</comment>
								<name>VFX</name>
								<in>502</in>
								<out>-1</out>
							</marker>
							<marker>
								<comment>corrupt frame</comment>
								<name>VFX</name>
								<in>111</in>
								<out>-1</out>
								<pproColor>4281740498</pproColor>
							</marker>
						<logginginfo>
							<description></description>
							<scene></scene>
							<shottake></shottake>
							<lognote></lognote>
							<good></good>
							<originalvideofilename></originalvideofilename>
							<originalaudiofilename></originalaudiofilename>
						</logginginfo>
						<colorinfo>
							<lut></lut>
							<lut1></lut1>
							<asc_sop></asc_sop>
							<asc_sat></asc_sat>
							<lut2></lut2>
						</colorinfo>
						<labels>
							<label2>Green</label2>
						</labels>
					</clipitem>
					<clipitem id="clipitem-3">
						<masterclipid>masterclip-3</masterclipid>
						<name>CMP_JS3_000_v001_right.0001.png</name>
						<enabled>TRUE</enabled>
						<duration>3620</duration>
						<rate>
							<timebase>30</timebase>
							<ntsc>TRUE</ntsc>
						</rate>
						<start>5501</start>
						<end>8879</end>
						<in>120</in>
						<out>3498</out>
						<pproTicksIn>1017080064000</pproTicksIn>
						<pproTicksOut>29647883865600</pproTicksOut>
						<alphatype>none</alphatype>
						<pixelaspectratio>square</pixelaspectratio>
						<anamorphic>FALSE</anamorphic>
						<file id="file-3">
							<name>CMP_JS3_000_v001_right.0001.png</name>
							<pathurl>file://localhost/G%3a/Departments/_Post/__Projects/033_Chimps_CMP/6.VFX/CMP_JS3_000/CMP_JS3_000_v001/render/right/CMP_JS3_000_v001_right.0001.png</pathurl>
							<rate>
								<timebase>30</timebase>
								<ntsc>TRUE</ntsc>
							</rate>
							<duration>3620</duration>
							<timecode>
								<rate>
									<timebase>30</timebase>
									<ntsc>TRUE</ntsc>
								</rate>
								<string>00:00:00:00</string>
								<frame>0</frame>
								<displayformat>NDF</displayformat>
							</timecode>
							<media>
								<video>
									<samplecharacteristics>
										<rate>
											<timebase>30</timebase>
											<ntsc>TRUE</ntsc>
										</rate>
										<width>4096</width>
										<height>2048</height>
										<anamorphic>FALSE</anamorphic>
										<pixelaspectratio>square</pixelaspectratio>
										<fielddominance>none</fielddominance>
									</samplecharacteristics>
								</video>
							</media>
						</file>
						<filter>
							<effect>
								<name>Basic Motion</name>
								<effectid>basic</effectid>
								<effectcategory>motion</effectcategory>
								<effecttype>motion</effecttype>
								<mediatype>video</mediatype>
								<pproBypass>false</pproBypass>
								<parameter authoringApp="PremierePro">
									<parameterid>scale</parameterid>
									<name>Scale</name>
									<valuemin>0</valuemin>
									<valuemax>1000</valuemax>
									<value>140.7</value>
								</parameter>
								<parameter authoringApp="PremierePro">
									<parameterid>rotation</parameterid>
									<name>Rotation</name>
									<valuemin>-8640</valuemin>
									<valuemax>8640</valuemax>
									<value>0</value>
								</parameter>
								<parameter authoringApp="PremierePro">
									<parameterid>center</parameterid>
									<name>Center</name>
									<value>
										<horiz>0</horiz>
										<vert>0.703125</vert>
									</value>
								</parameter>
								<parameter authoringApp="PremierePro">
									<parameterid>centerOffset</parameterid>
									<name>Anchor Point</name>
									<value>
										<horiz>0</horiz>
										<vert>0</vert>
									</value>
								</parameter>
								<parameter authoringApp="PremierePro">
									<parameterid>antiflicker</parameterid>
									<name>Anti-flicker Filter</name>
									<valuemin>0.0</valuemin>
									<valuemax>1.0</valuemax>
									<value>0</value>
								</parameter>
							</effect>
						</filter>
						<logginginfo>
							<description></description>
							<scene></scene>
							<shottake></shottake>
							<lognote></lognote>
							<good></good>
							<originalvideofilename></originalvideofilename>
							<originalaudiofilename></originalaudiofilename>
						</logginginfo>
						<colorinfo>
							<lut></lut>
							<lut1></lut1>
							<asc_sop></asc_sop>
							<asc_sat></asc_sat>
							<lut2></lut2>
						</colorinfo>
						<labels>
							<label2>Green</label2>
						</labels>
					</clipitem>
					<clipitem id="clipitem-4">
						<masterclipid>masterclip-4</masterclipid>
						<name>Pano-R_merged_CMP_JS2__002_CMP_JS2__002_0_13440.mov</name>
						<enabled>TRUE</enabled>
						<duration>13440</duration>
						<rate>
							<timebase>30</timebase>
							<ntsc>TRUE</ntsc>
						</rate>
						<start>8879</start>
						<end>9274</end>
						<in>1073</in>
						<out>1468</out>
						<pproTicksIn>9094390905600</pproTicksIn>
						<pproTicksOut>12442279449600</pproTicksOut>
						<alphatype>none</alphatype>
						<pixelaspectratio>square</pixelaspectratio>
						<anamorphic>FALSE</anamorphic>
						<file id="file-4">
							<name>Pano-R_merged_CMP_JS2__002_CMP_JS2__002_0_13440.mov</name>
							<pathurl>file://Gladiator/ssd/vrweb/CMP_PROD/CMP_JS2__002/CMP_JS2__002_js_v3_1_1_0_13440/Movies_CMP_JS2__002/Pano-R_merged_CMP_JS2__002_CMP_JS2__002_0_13440.mov</pathurl>
							<rate>
								<timebase>30</timebase>
								<ntsc>TRUE</ntsc>
							</rate>
							<duration>13440</duration>
							<timecode>
								<rate>
									<timebase>30</timebase>
									<ntsc>TRUE</ntsc>
								</rate>
								<string>00:00:00:00</string>
								<frame>0</frame>
								<displayformat>NDF</displayformat>
							</timecode>
							<media>
								<video>
									<samplecharacteristics>
										<rate>
											<timebase>30</timebase>
											<ntsc>TRUE</ntsc>
										</rate>
										<width>4096</width>
										<height>2048</height>
										<anamorphic>FALSE</anamorphic>
										<pixelaspectratio>square</pixelaspectratio>
										<fielddominance>none</fielddominance>
									</samplecharacteristics>
								</video>
								<audio>
									<samplecharacteristics>
										<depth>16</depth>
										<samplerate>48000</samplerate>
									</samplecharacteristics>
									<channelcount>2</channelcount>
								</audio>
							</media>
						</file>
						<filter>
							<effect>
								<name>Basic Motion</name>
								<effectid>basic</effectid>
								<effectcategory>motion</effectcategory>
								<effecttype>motion</effecttype>
								<mediatype>video</mediatype>
								<pproBypass>false</pproBypass>
								<parameter authoringApp="PremierePro">
									<parameterid>scale</parameterid>
									<name>Scale</name>
									<valuemin>0</valuemin>
									<valuemax>1000</valuemax>
									<value>140.7</value>
								</parameter>
								<parameter authoringApp="PremierePro">
									<parameterid>rotation</parameterid>
									<name>Rotation</name>
									<valuemin>-8640</valuemin>
									<valuemax>8640</valuemax>
									<value>0</value>
								</parameter>
								<parameter authoringApp="PremierePro">
									<parameterid>center</parameterid>
									<name>Center</name>
									<value>
										<horiz>0</horiz>
										<vert>0.703125</vert>
									</value>
								</parameter>
								<parameter authoringApp="PremierePro">
									<parameterid>centerOffset</parameterid>
									<name>Anchor Point</name>
									<value>
										<horiz>0</horiz>
										<vert>0</vert>
									</value>
								</parameter>
								<parameter authoringApp="PremierePro">
									<parameterid>antiflicker</parameterid>
									<name>Anti-flicker Filter</name>
									<valuemin>0.0</valuemin>
									<valuemax>1.0</valuemax>
									<value>0</value>
								</parameter>
							</effect>
						</filter>
						<logginginfo>
							<description></description>
							<scene></scene>
							<shottake></shottake>
							<lognote></lognote>
							<good></good>
							<originalvideofilename></originalvideofilename>
							<originalaudiofilename></originalaudiofilename>
						</logginginfo>
						<colorinfo>
							<lut></lut>
							<lut1></lut1>
							<asc_sop></asc_sop>
							<asc_sat></asc_sat>
							<lut2></lut2>
						</colorinfo>
						<labels>
							<label2>Green</label2>
						</labels>
					</clipitem>
					<clipitem id="clipitem-5">
						<masterclipid>masterclip-5</masterclipid>
						<name>CMP_ZCAM0050-2_v004.3478.png</name>
						<enabled>TRUE</enabled>
						<duration>528</duration>
						<rate>
							<timebase>30</timebase>
							<ntsc>TRUE</ntsc>
						</rate>
						<start>9274</start>
						<end>9562</end>
						<in>120</in>
						<out>408</out>
						<pproTicksIn>1017080064000</pproTicksIn>
						<pproTicksOut>3458072217600</pproTicksOut>
						<alphatype>none</alphatype>
						<pixelaspectratio>square</pixelaspectratio>
						<anamorphic>FALSE</anamorphic>
						<file id="file-5">
							<name>CMP_ZCAM0050-2_v004.3478.png</name>
							<pathurl>file://localhost/G%3a/Departments/_Post/__Projects/033_Chimps_CMP/6.VFX/CMP_ZCAM0050-2/CMP_ZCAM0050-2_v004/CMP_ZCAM0050-2_v004.3478.png</pathurl>
							<rate>
								<timebase>30</timebase>
								<ntsc>TRUE</ntsc>
							</rate>
							<duration>528</duration>
							<timecode>
								<rate>
									<timebase>30</timebase>
									<ntsc>TRUE</ntsc>
								</rate>
								<string>00:00:00:00</string>
								<frame>0</frame>
								<displayformat>NDF</displayformat>
							</timecode>
							<media>
								<video>
									<samplecharacteristics>
										<rate>
											<timebase>30</timebase>
											<ntsc>TRUE</ntsc>
										</rate>
										<width>5760</width>
										<height>5760</height>
										<anamorphic>FALSE</anamorphic>
										<pixelaspectratio>square</pixelaspectratio>
										<fielddominance>none</fielddominance>
									</samplecharacteristics>
								</video>
							</media>
						</file>
						<logginginfo>
							<description></description>
							<scene></scene>
							<shottake></shottake>
							<lognote></lognote>
							<good></good>
							<originalvideofilename></originalvideofilename>
							<originalaudiofilename></originalaudiofilename>
						</logginginfo>
						<colorinfo>
							<lut></lut>
							<lut1></lut1>
							<asc_sop></asc_sop>
							<asc_sat></asc_sat>
							<lut2></lut2>
						</colorinfo>
						<labels>
							<label2>Green</label2>
						</labels>
					</clipitem>
					<clipitem id="clipitem-6">
						<masterclipid>masterclip-4</masterclipid>
						<name>Pano-R_merged_CMP_JS2__002_CMP_JS2__002_0_13440.mov</name>
						<enabled>TRUE</enabled>
						<duration>13440</duration>
						<rate>
							<timebase>30</timebase>
							<ntsc>TRUE</ntsc>
						</rate>
						<start>9562</start>
						<end>11251</end>
						<in>1469</in>
						<out>3158</out>
						<pproTicksIn>12450755116800</pproTicksIn>
						<pproTicksOut>26766157017600</pproTicksOut>
						<alphatype>none</alphatype>
						<file id="file-4"/>
						<filter>
							<effect>
								<name>Basic Motion</name>
								<effectid>basic</effectid>
								<effectcategory>motion</effectcategory>
								<effecttype>motion</effecttype>
								<mediatype>video</mediatype>
								<pproBypass>false</pproBypass>
								<parameter authoringApp="PremierePro">
									<parameterid>scale</parameterid>
									<name>Scale</name>
									<valuemin>0</valuemin>
									<valuemax>1000</valuemax>
									<value>140.7</value>
								</parameter>
								<parameter authoringApp="PremierePro">
									<parameterid>rotation</parameterid>
									<name>Rotation</name>
									<valuemin>-8640</valuemin>
									<valuemax>8640</valuemax>
									<value>0</value>
								</parameter>
								<parameter authoringApp="PremierePro">
									<parameterid>center</parameterid>
									<name>Center</name>
									<value>
										<horiz>0</horiz>
										<vert>0.703125</vert>
									</value>
								</parameter>
								<parameter authoringApp="PremierePro">
									<parameterid>centerOffset</parameterid>
									<name>Anchor Point</name>
									<value>
										<horiz>0</horiz>
										<vert>0</vert>
									</value>
								</parameter>
								<parameter authoringApp="PremierePro">
									<parameterid>antiflicker</parameterid>
									<name>Anti-flicker Filter</name>
									<valuemin>0.0</valuemin>
									<valuemax>1.0</valuemax>
									<value>0</value>
								</parameter>
							</effect>
						</filter>
						<logginginfo>
							<description></description>
							<scene></scene>
							<shottake></shottake>
							<lognote></lognote>
							<good></good>
							<originalvideofilename></originalvideofilename>
							<originalaudiofilename></originalaudiofilename>
						</logginginfo>
						<colorinfo>
							<lut></lut>
							<lut1></lut1>
							<asc_sop></asc_sop>
							<asc_sat></asc_sat>
							<lut2></lut2>
						</colorinfo>
						<labels>
							<label2>Green</label2>
						</labels>
					</clipitem>
					<clipitem id="clipitem-7">
						<masterclipid>masterclip-6</masterclipid>
						<name>CMP_ZCAM0054_v002.6591.png</name>
						<enabled>TRUE</enabled>
						<duration>1346</duration>
						<rate>
							<timebase>30</timebase>
							<ntsc>TRUE</ntsc>
						</rate>
						<start>11251</start>
						<end>12477</end>
						<in>0</in>
						<out>1226</out>
						<pproTicksIn>0</pproTicksIn>
						<pproTicksOut>10391167987200</pproTicksOut>
						<alphatype>none</alphatype>
						<pixelaspectratio>square</pixelaspectratio>
						<anamorphic>FALSE</anamorphic>
						<file id="file-6">
							<name>CMP_ZCAM0054_v002.6591.png</name>
							<pathurl>file://localhost/G%3a/Departments/_Post/__Projects/033_Chimps_CMP/6.VFX/CMP_ZCAM0054/CMP_ZCAM0054_v002/Prerenders/CMP_ZCAM0054_v002.6591.png</pathurl>
							<rate>
								<timebase>30</timebase>
								<ntsc>TRUE</ntsc>
							</rate>
							<duration>1346</duration>
							<timecode>
								<rate>
									<timebase>30</timebase>
									<ntsc>TRUE</ntsc>
								</rate>
								<string>00:00:00:00</string>
								<frame>0</frame>
								<displayformat>NDF</displayformat>
							</timecode>
							<media>
								<video>
									<samplecharacteristics>
										<rate>
											<timebase>30</timebase>
											<ntsc>TRUE</ntsc>
										</rate>
										<width>5760</width>
										<height>5760</height>
										<anamorphic>FALSE</anamorphic>
										<pixelaspectratio>square</pixelaspectratio>
										<fielddominance>none</fielddominance>
									</samplecharacteristics>
								</video>
							</media>
						</file>
						<logginginfo>
							<description></description>
							<scene></scene>
							<shottake></shottake>
							<lognote></lognote>
							<good></good>
							<originalvideofilename></originalvideofilename>
							<originalaudiofilename></originalaudiofilename>
						</logginginfo>
						<colorinfo>
							<lut></lut>
							<lut1></lut1>
							<asc_sop></asc_sop>
							<asc_sat></asc_sat>
							<lut2></lut2>
						</colorinfo>
						<labels>
							<label2>Green</label2>
						</labels>
					</clipitem>
					<clipitem id="clipitem-8">
						<masterclipid>masterclip-7</masterclipid>
						<name>CMP_JS2__005_v001_right.1059.png</name>
						<enabled>TRUE</enabled>
						<duration>5159</duration>
						<rate>
							<timebase>30</timebase>
							<ntsc>TRUE</ntsc>
						</rate>
						<start>12477</start>
						<end>17396</end>
						<in>120</in>
						<out>5039</out>
						<pproTicksIn>1017080064000</pproTicksIn>
						<pproTicksOut>42708887020800</pproTicksOut>
						<alphatype>none</alphatype>
						<pixelaspectratio>square</pixelaspectratio>
						<anamorphic>FALSE</anamorphic>
						<file id="file-7">
							<name>CMP_JS2__005_v001_right.1059.png</name>
							<pathurl>file://localhost/G%3a/Departments/_Post/__Projects/033_Chimps_CMP/6.VFX/CMP_JS2_005/CMP_JS2_005_v001/render/render/right/CMP_JS2__005_v001_right.1059.png</pathurl>
							<rate>
								<timebase>30</timebase>
								<ntsc>TRUE</ntsc>
							</rate>
							<duration>5159</duration>
							<timecode>
								<rate>
									<timebase>30</timebase>
									<ntsc>TRUE</ntsc>
								</rate>
								<string>00:00:00:00</string>
								<frame>0</frame>
								<displayformat>NDF</displayformat>
							</timecode>
							<media>
								<video>
									<samplecharacteristics>
										<rate>
											<timebase>30</timebase>
											<ntsc>TRUE</ntsc>
										</rate>
										<width>4096</width>
										<height>2048</height>
										<anamorphic>FALSE</anamorphic>
										<pixelaspectratio>square</pixelaspectratio>
										<fielddominance>none</fielddominance>
									</samplecharacteristics>
								</video>
							</media>
						</file>
						<filter>
							<effect>
								<name>Basic Motion</name>
								<effectid>basic</effectid>
								<effectcategory>motion</effectcategory>
								<effecttype>motion</effecttype>
								<mediatype>video</mediatype>
								<pproBypass>false</pproBypass>
								<parameter authoringApp="PremierePro">
									<parameterid>scale</parameterid>
									<name>Scale</name>
									<valuemin>0</valuemin>
									<valuemax>1000</valuemax>
									<value>140.7</value>
								</parameter>
								<parameter authoringApp="PremierePro">
									<parameterid>rotation</parameterid>
									<name>Rotation</name>
									<valuemin>-8640</valuemin>
									<valuemax>8640</valuemax>
									<value>0</value>
								</parameter>
								<parameter authoringApp="PremierePro">
									<parameterid>center</parameterid>
									<name>Center</name>
									<value>
										<horiz>0</horiz>
										<vert>0.703125</vert>
									</value>
								</parameter>
								<parameter authoringApp="PremierePro">
									<parameterid>centerOffset</parameterid>
									<name>Anchor Point</name>
									<value>
										<horiz>0</horiz>
										<vert>0</vert>
									</value>
								</parameter>
								<parameter authoringApp="PremierePro">
									<parameterid>antiflicker</parameterid>
									<name>Anti-flicker Filter</name>
									<valuemin>0.0</valuemin>
									<valuemax>1.0</valuemax>
									<value>0</value>
								</parameter>
							</effect>
						</filter>
						<logginginfo>
							<description></description>
							<scene></scene>
							<shottake></shottake>
							<lognote></lognote>
							<good></good>
							<originalvideofilename></originalvideofilename>
							<originalaudiofilename></originalaudiofilename>
						</logginginfo>
						<colorinfo>
							<lut></lut>
							<lut1></lut1>
							<asc_sop></asc_sop>
							<asc_sat></asc_sat>
							<lut2></lut2>
						</colorinfo>
						<labels>
							<label2>Green</label2>
						</labels>
					</clipitem>
					<clipitem id="clipitem-9">
						<masterclipid>masterclip-8</masterclipid>
						<name>CMP_ZCAM0050-3_v003.5554.png</name>
						<enabled>TRUE</enabled>
						<duration>622</duration>
						<rate>
							<timebase>30</timebase>
							<ntsc>TRUE</ntsc>
						</rate>
						<start>17396</start>
						<end>17897</end>
						<in>121</in>
						<out>622</out>
						<pproTicksIn>1025555731200</pproTicksIn>
						<pproTicksOut>5271864998400</pproTicksOut>
						<alphatype>none</alphatype>
						<pixelaspectratio>square</pixelaspectratio>
						<anamorphic>FALSE</anamorphic>
						<file id="file-8">
							<name>CMP_ZCAM0050-3_v003.5554.png</name>
							<pathurl>file://localhost/G%3a/Departments/_Post/__Projects/033_Chimps_CMP/6.VFX/CMP_ZCAM0050-3/CMP_ZCAM0050-3_v003/Prerenders/CMP_ZCAM0050-3_v003.5554.png</pathurl>
							<rate>
								<timebase>30</timebase>
								<ntsc>TRUE</ntsc>
							</rate>
							<duration>622</duration>
							<timecode>
								<rate>
									<timebase>30</timebase>
									<ntsc>TRUE</ntsc>
								</rate>
								<string>00:00:00:00</string>
								<frame>0</frame>
								<displayformat>NDF</displayformat>
							</timecode>
							<media>
								<video>
									<samplecharacteristics>
										<rate>
											<timebase>30</timebase>
											<ntsc>TRUE</ntsc>
										</rate>
										<width>5760</width>
										<height>5760</height>
										<anamorphic>FALSE</anamorphic>
										<pixelaspectratio>square</pixelaspectratio>
										<fielddominance>none</fielddominance>
									</samplecharacteristics>
								</video>
							</media>
						</file>
						<logginginfo>
							<description></description>
							<scene></scene>
							<shottake></shottake>
							<lognote></lognote>
							<good></good>
							<originalvideofilename></originalvideofilename>
							<originalaudiofilename></originalaudiofilename>
						</logginginfo>
						<colorinfo>
							<lut></lut>
							<lut1></lut1>
							<asc_sop></asc_sop>
							<asc_sat></asc_sat>
							<lut2></lut2>
						</colorinfo>
						<labels>
							<label2>Green</label2>
						</labels>
					</clipitem>
					<clipitem id="clipitem-10">
						<masterclipid>masterclip-9</masterclipid>
						<name>CMP_JS2D1S3_v001_right.3000.png</name>
						<enabled>TRUE</enabled>
						<duration>3199</duration>
						<rate>
							<timebase>30</timebase>
							<ntsc>TRUE</ntsc>
						</rate>
						<start>17897</start>
						<end>20180</end>
						<in>796</in>
						<out>3079</out>
						<pproTicksIn>6746631091200</pproTicksIn>
						<pproTicksOut>26096579308800</pproTicksOut>
						<alphatype>none</alphatype>
						<pixelaspectratio>square</pixelaspectratio>
						<anamorphic>FALSE</anamorphic>
						<file id="file-9">
							<name>CMP_JS2D1S3_v001_right.3000.png</name>
							<pathurl>file://localhost/G%3a/Departments/_Post/__Projects/033_Chimps_CMP/6.VFX/CMP_JS2D1S3/CMP_JS2D1S3_v001/Prerenders/Right/CMP_JS2D1S3_v001_right.3000.png</pathurl>
							<rate>
								<timebase>30</timebase>
								<ntsc>TRUE</ntsc>
							</rate>
							<duration>3199</duration>
							<timecode>
								<rate>
									<timebase>30</timebase>
									<ntsc>TRUE</ntsc>
								</rate>
								<string>00:00:00:00</string>
								<frame>0</frame>
								<displayformat>NDF</displayformat>
							</timecode>
							<media>
								<video>
									<samplecharacteristics>
										<rate>
											<timebase>30</timebase>
											<ntsc>TRUE</ntsc>
										</rate>
										<width>4096</width>
										<height>2048</height>
										<anamorphic>FALSE</anamorphic>
										<pixelaspectratio>square</pixelaspectratio>
										<fielddominance>none</fielddominance>
									</samplecharacteristics>
								</video>
							</media>
						</file>
						<filter>
							<effect>
								<name>Basic Motion</name>
								<effectid>basic</effectid>
								<effectcategory>motion</effectcategory>
								<effecttype>motion</effecttype>
								<mediatype>video</mediatype>
								<pproBypass>false</pproBypass>
								<parameter authoringApp="PremierePro">
									<parameterid>scale</parameterid>
									<name>Scale</name>
									<valuemin>0</valuemin>
									<valuemax>1000</valuemax>
									<value>140.7</value>
								</parameter>
								<parameter authoringApp="PremierePro">
									<parameterid>rotation</parameterid>
									<name>Rotation</name>
									<valuemin>-8640</valuemin>
									<valuemax>8640</valuemax>
									<value>0</value>
								</parameter>
								<parameter authoringApp="PremierePro">
									<parameterid>center</parameterid>
									<name>Center</name>
									<value>
										<horiz>0</horiz>
										<vert>0.703125</vert>
									</value>
								</parameter>
								<parameter authoringApp="PremierePro">
									<parameterid>centerOffset</parameterid>
									<name>Anchor Point</name>
									<value>
										<horiz>0</horiz>
										<vert>0</vert>
									</value>
								</parameter>
								<parameter authoringApp="PremierePro">
									<parameterid>antiflicker</parameterid>
									<name>Anti-flicker Filter</name>
									<valuemin>0.0</valuemin>
									<valuemax>1.0</valuemax>
									<value>0</value>
								</parameter>
							</effect>
						</filter>
						<filter>
							<effect>
								<name>Opacity</name>
								<effectid>opacity</effectid>
								<effectcategory>motion</effectcategory>
								<effecttype>motion</effecttype>
								<mediatype>video</mediatype>
								<pproBypass>false</pproBypass>
								<parameter authoringApp="PremierePro">
									<parameterid>opacity</parameterid>
									<name>opacity</name>
									<valuemin>0</valuemin>
									<valuemax>100</valuemax>
									<value>100</value>
									<keyframe>
										<when>2897</when>
										<value>100</value>
									</keyframe>
									<keyframe>
										<when>3079</when>
										<value>0</value>
									</keyframe>
									<keyframe>
										<when>3797</when>
										<value>100</value>
									</keyframe>
									<keyframe>
										<when>3977</when>
										<value>0</value>
									</keyframe>
								</parameter>
							</effect>
						</filter>
						<logginginfo>
							<description></description>
							<scene></scene>
							<shottake></shottake>
							<lognote></lognote>
							<good></good>
							<originalvideofilename></originalvideofilename>
							<originalaudiofilename></originalaudiofilename>
						</logginginfo>
						<colorinfo>
							<lut></lut>
							<lut1></lut1>
							<asc_sop></asc_sop>
							<asc_sat></asc_sat>
							<lut2></lut2>
						</colorinfo>
						<labels>
							<label2>Green</label2>
						</labels>
					</clipitem>
					<enabled>TRUE</enabled>
					<locked>FALSE</locked>
				</track>
				<track TL.SQTrackShy="0" TL.SQTrackExpandedHeight="47" TL.SQTrackExpanded="0" MZ.TrackTargeted="1">
					<clipitem id="clipitem-11">
						<masterclipid>masterclip-10</masterclipid>
						<name>logo_swipe/logo.aep</name>
						<enabled>TRUE</enabled>
						<duration>899</duration>
						<rate>
							<timebase>30</timebase>
							<ntsc>TRUE</ntsc>
						</rate>
						<start>15</start>
						<end>-1</end>
						<in>0</in>
						<out>85</out>
						<pproTicksIn>0</pproTicksIn>
						<pproTicksOut>720431712000</pproTicksOut>
						<alphatype>none</alphatype>
						<pixelaspectratio>square</pixelaspectratio>
						<anamorphic>FALSE</anamorphic>
						<file id="file-10">
							<name>logo_swipe/logo.aep</name>
							<pathurl>file://Gladiator/hd/Departments/_Post/__Projects/033_Chimps_CMP/4.Graphics/Logos/logo.aep</pathurl>
							<rate>
								<timebase>30</timebase>
								<ntsc>TRUE</ntsc>
							</rate>
							<duration>899</duration>
							<timecode>
								<rate>
									<timebase>30</timebase>
									<ntsc>TRUE</ntsc>
								</rate>
								<string>00;00;00;00</string>
								<frame>0</frame>
								<displayformat>DF</displayformat>
							</timecode>
							<media>
								<video>
									<samplecharacteristics>
										<rate>
											<timebase>30</timebase>
											<ntsc>TRUE</ntsc>
										</rate>
										<width>5760</width>
										<height>5760</height>
										<anamorphic>FALSE</anamorphic>
										<pixelaspectratio>square</pixelaspectratio>
										<fielddominance>lower</fielddominance>
									</samplecharacteristics>
								</video>
							</media>
						</file>
						<logginginfo>
							<description></description>
							<scene></scene>
							<shottake></shottake>
							<lognote></lognote>
							<good></good>
							<originalvideofilename></originalvideofilename>
							<originalaudiofilename></originalaudiofilename>
						</logginginfo>
						<colorinfo>
							<lut></lut>
							<lut1></lut1>
							<asc_sop></asc_sop>
							<asc_sat></asc_sat>
							<lut2></lut2>
						</colorinfo>
						<labels>
							<label2>Purple</label2>
						</labels>
					</clipitem>
					<transitionitem>
						<start>70</start>
						<end>100</end>
						<alignment>end-black</alignment>
						<cutPointTicks>254270016000</cutPointTicks>
						<rate>
							<timebase>30</timebase>
							<ntsc>TRUE</ntsc>
						</rate>
						<effect>
							<name>Cross Dissolve</name>
							<effectid>Cross Dissolve</effectid>
							<effectcategory>Dissolve</effectcategory>
							<effecttype>transition</effecttype>
							<mediatype>video</mediatype>
							<wipecode>0</wipecode>
							<wipeaccuracy>100</wipeaccuracy>
							<startratio>0</startratio>
							<endratio>1</endratio>
							<reverse>FALSE</reverse>
						</effect>
					</transitionitem>
					<clipitem id="clipitem-12">
						<masterclipid>masterclip-11</masterclipid>
						<name>01_root/CMP_graphics_v002.aep</name>
						<enabled>TRUE</enabled>
						<duration>325</duration>
						<rate>
							<timebase>30</timebase>
							<ntsc>TRUE</ntsc>
						</rate>
						<start>126</start>
						<end>451</end>
						<in>0</in>
						<out>325</out>
						<pproTicksIn>0</pproTicksIn>
						<pproTicksOut>2754591840000</pproTicksOut>
						<alphatype>none</alphatype>
						<pixelaspectratio>square</pixelaspectratio>
						<anamorphic>FALSE</anamorphic>
						<file id="file-11">
							<name>01_root/CMP_graphics_v002.aep</name>
							<pathurl>file://Gladiator/hd/Departments/_Post/__Projects/033_Chimps_CMP/__Project%20Files/After%20Effects/CMP_graphics_v002.aep</pathurl>
							<rate>
								<timebase>30</timebase>
								<ntsc>TRUE</ntsc>
							</rate>
							<duration>325</duration>
							<timecode>
								<rate>
									<timebase>30</timebase>
									<ntsc>TRUE</ntsc>
								</rate>
								<string>00;00;00;00</string>
								<frame>0</frame>
								<displayformat>DF</displayformat>
							</timecode>
							<media>
								<video>
									<samplecharacteristics>
										<rate>
											<timebase>30</timebase>
											<ntsc>TRUE</ntsc>
										</rate>
										<width>5760</width>
										<height>5760</height>
										<anamorphic>FALSE</anamorphic>
										<pixelaspectratio>square</pixelaspectratio>
										<fielddominance>lower</fielddominance>
									</samplecharacteristics>
								</video>
							</media>
						</file>
						<logginginfo>
							<description></description>
							<scene></scene>
							<shottake></shottake>
							<lognote></lognote>
							<good></good>
							<originalvideofilename></originalvideofilename>
							<originalaudiofilename></originalaudiofilename>
						</logginginfo>
						<colorinfo>
							<lut></lut>
							<lut1></lut1>
							<asc_sop></asc_sop>
							<asc_sat></asc_sat>
							<lut2></lut2>
						</colorinfo>
						<labels>
							<label2>Purple</label2>
						</labels>
					</clipitem>
					<clipitem id="clipitem-13">
						<masterclipid>masterclip-12</masterclipid>
						<name>02_root/CMP_graphics_v002.aep</name>
						<enabled>TRUE</enabled>
						<duration>177</duration>
						<rate>
							<timebase>30</timebase>
							<ntsc>TRUE</ntsc>
						</rate>
						<start>456</start>
						<end>633</end>
						<in>0</in>
						<out>177</out>
						<pproTicksIn>0</pproTicksIn>
						<pproTicksOut>1500193094400</pproTicksOut>
						<alphatype>none</alphatype>
						<pixelaspectratio>square</pixelaspectratio>
						<anamorphic>FALSE</anamorphic>
						<file id="file-12">
							<name>02_root/CMP_graphics_v002.aep</name>
							<pathurl>file://Gladiator/hd/Departments/_Post/__Projects/033_Chimps_CMP/__Project%20Files/After%20Effects/CMP_graphics_v002.aep</pathurl>
							<rate>
								<timebase>30</timebase>
								<ntsc>TRUE</ntsc>
							</rate>
							<duration>177</duration>
							<timecode>
								<rate>
									<timebase>30</timebase>
									<ntsc>TRUE</ntsc>
								</rate>
								<string>00;00;00;00</string>
								<frame>0</frame>
								<displayformat>DF</displayformat>
							</timecode>
							<media>
								<video>
									<samplecharacteristics>
										<rate>
											<timebase>30</timebase>
											<ntsc>TRUE</ntsc>
										</rate>
										<width>5760</width>
										<height>5760</height>
										<anamorphic>FALSE</anamorphic>
										<pixelaspectratio>square</pixelaspectratio>
										<fielddominance>lower</fielddominance>
									</samplecharacteristics>
								</video>
							</media>
						</file>
						<logginginfo>
							<description></description>
							<scene></scene>
							<shottake></shottake>
							<lognote></lognote>
							<good></good>
							<originalvideofilename></originalvideofilename>
							<originalaudiofilename></originalaudiofilename>
						</logginginfo>
						<colorinfo>
							<lut></lut>
							<lut1></lut1>
							<asc_sop></asc_sop>
							<asc_sat></asc_sat>
							<lut2></lut2>
						</colorinfo>
						<labels>
							<label2>Purple</label2>
						</labels>
					</clipitem>
					<clipitem id="clipitem-14">
						<masterclipid>masterclip-13</masterclipid>
						<name>CMP_JS3_000_v001_left.0001.png</name>
						<enabled>TRUE</enabled>
						<duration>3620</duration>
						<rate>
							<timebase>30</timebase>
							<ntsc>TRUE</ntsc>
						</rate>
						<start>5386</start>
						<end>8879</end>
						<in>5</in>
						<out>3498</out>
						<pproTicksIn>42378336000</pproTicksIn>
						<pproTicksOut>29647883865600</pproTicksOut>
						<alphatype>none</alphatype>
						<pixelaspectratio>square</pixelaspectratio>
						<anamorphic>FALSE</anamorphic>
						<file id="file-13">
							<name>CMP_JS3_000_v001_left.0001.png</name>
							<pathurl>file://localhost/G%3a/Departments/_Post/__Projects/033_Chimps_CMP/6.VFX/CMP_JS3_000/CMP_JS3_000_v001/render/left/CMP_JS3_000_v001_left.0001.png</pathurl>
							<rate>
								<timebase>30</timebase>
								<ntsc>TRUE</ntsc>
							</rate>
							<duration>3620</duration>
							<timecode>
								<rate>
									<timebase>30</timebase>
									<ntsc>TRUE</ntsc>
								</rate>
								<string>00:00:00:00</string>
								<frame>0</frame>
								<displayformat>NDF</displayformat>
							</timecode>
							<media>
								<video>
									<samplecharacteristics>
										<rate>
											<timebase>30</timebase>
											<ntsc>TRUE</ntsc>
										</rate>
										<width>4096</width>
										<height>2048</height>
										<anamorphic>FALSE</anamorphic>
										<pixelaspectratio>square</pixelaspectratio>
										<fielddominance>none</fielddominance>
									</samplecharacteristics>
								</video>
							</media>
						</file>
						<filter>
							<effect>
								<name>Basic Motion</name>
								<effectid>basic</effectid>
								<effectcategory>motion</effectcategory>
								<effecttype>motion</effecttype>
								<mediatype>video</mediatype>
								<pproBypass>false</pproBypass>
								<parameter authoringApp="PremierePro">
									<parameterid>scale</parameterid>
									<name>Scale</name>
									<valuemin>0</valuemin>
									<valuemax>1000</valuemax>
									<value>140.7</value>
								</parameter>
								<parameter authoringApp="PremierePro">
									<parameterid>rotation</parameterid>
									<name>Rotation</name>
									<valuemin>-8640</valuemin>
									<valuemax>8640</valuemax>
									<value>0</value>
								</parameter>
								<parameter authoringApp="PremierePro">
									<parameterid>center</parameterid>
									<name>Center</name>
									<value>
										<horiz>0</horiz>
										<vert>-0.703125</vert>
									</value>
								</parameter>
								<parameter authoringApp="PremierePro">
									<parameterid>centerOffset</parameterid>
									<name>Anchor Point</name>
									<value>
										<horiz>0</horiz>
										<vert>0</vert>
									</value>
								</parameter>
								<parameter authoringApp="PremierePro">
									<parameterid>antiflicker</parameterid>
									<name>Anti-flicker Filter</name>
									<valuemin>0.0</valuemin>
									<valuemax>1.0</valuemax>
									<value>0</value>
								</parameter>
							</effect>
						</filter>
						<logginginfo>
							<description></description>
							<scene></scene>
							<shottake></shottake>
							<lognote></lognote>
							<good></good>
							<originalvideofilename></originalvideofilename>
							<originalaudiofilename></originalaudiofilename>
						</logginginfo>
						<colorinfo>
							<lut></lut>
							<lut1></lut1>
							<asc_sop></asc_sop>
							<asc_sat></asc_sat>
							<lut2></lut2>
						</colorinfo>
						<labels>
							<label2>Green</label2>
						</labels>
					</clipitem>
					<clipitem id="clipitem-15">
						<masterclipid>masterclip-14</masterclipid>
						<name>Pano-L_merged_CMP_JS2__002_CMP_JS2__002_0_13440.mov</name>
						<enabled>TRUE</enabled>
						<duration>13440</duration>
						<rate>
							<timebase>30</timebase>
							<ntsc>TRUE</ntsc>
						</rate>
						<start>8879</start>
						<end>9276</end>
						<in>1443</in>
						<out>1840</out>
						<pproTicksIn>12230387769600</pproTicksIn>
						<pproTicksOut>15595227648000</pproTicksOut>
						<alphatype>none</alphatype>
						<pixelaspectratio>square</pixelaspectratio>
						<anamorphic>FALSE</anamorphic>
						<file id="file-14">
							<name>Pano-L_merged_CMP_JS2__002_CMP_JS2__002_0_13440.mov</name>
							<pathurl>file://Gladiator/ssd/vrweb/CMP_PROD/CMP_JS2__002/CMP_JS2__002_js_v3_1_1_0_13440/Movies_CMP_JS2__002/Pano-L_merged_CMP_JS2__002_CMP_JS2__002_0_13440.mov</pathurl>
							<rate>
								<timebase>30</timebase>
								<ntsc>TRUE</ntsc>
							</rate>
							<duration>13440</duration>
							<timecode>
								<rate>
									<timebase>30</timebase>
									<ntsc>TRUE</ntsc>
								</rate>
								<string>00:00:00:00</string>
								<frame>0</frame>
								<displayformat>NDF</displayformat>
							</timecode>
							<media>
								<video>
									<samplecharacteristics>
										<rate>
											<timebase>30</timebase>
											<ntsc>TRUE</ntsc>
										</rate>
										<width>4096</width>
										<height>2048</height>
										<anamorphic>FALSE</anamorphic>
										<pixelaspectratio>square</pixelaspectratio>
										<fielddominance>none</fielddominance>
									</samplecharacteristics>
								</video>
								<audio>
									<samplecharacteristics>
										<depth>16</depth>
										<samplerate>48000</samplerate>
									</samplecharacteristics>
									<channelcount>2</channelcount>
								</audio>
							</media>
						</file>
						<filter>
							<effect>
								<name>Basic Motion</name>
								<effectid>basic</effectid>
								<effectcategory>motion</effectcategory>
								<effecttype>motion</effecttype>
								<mediatype>video</mediatype>
								<pproBypass>false</pproBypass>
								<parameter authoringApp="PremierePro">
									<parameterid>scale</parameterid>
									<name>Scale</name>
									<valuemin>0</valuemin>
									<valuemax>1000</valuemax>
									<value>140.7</value>
								</parameter>
								<parameter authoringApp="PremierePro">
									<parameterid>rotation</parameterid>
									<name>Rotation</name>
									<valuemin>-8640</valuemin>
									<valuemax>8640</valuemax>
									<value>0</value>
								</parameter>
								<parameter authoringApp="PremierePro">
									<parameterid>center</parameterid>
									<name>Center</name>
									<value>
										<horiz>0</horiz>
										<vert>-0.703125</vert>
									</value>
								</parameter>
								<parameter authoringApp="PremierePro">
									<parameterid>centerOffset</parameterid>
									<name>Anchor Point</name>
									<value>
										<horiz>0</horiz>
										<vert>0</vert>
									</value>
								</parameter>
								<parameter authoringApp="PremierePro">
									<parameterid>antiflicker</parameterid>
									<name>Anti-flicker Filter</name>
									<valuemin>0.0</valuemin>
									<valuemax>1.0</valuemax>
									<value>0</value>
								</parameter>
							</effect>
						</filter>
						<logginginfo>
							<description></description>
							<scene></scene>
							<shottake></shottake>
							<lognote></lognote>
							<good></good>
							<originalvideofilename></originalvideofilename>
							<originalaudiofilename></originalaudiofilename>
						</logginginfo>
						<colorinfo>
							<lut></lut>
							<lut1></lut1>
							<asc_sop></asc_sop>
							<asc_sat></asc_sat>
							<lut2></lut2>
						</colorinfo>
						<labels>
							<label2>Green</label2>
						</labels>
					</clipitem>
					<clipitem id="clipitem-16">
						<masterclipid>masterclip-14</masterclipid>
						<name>CMP_JS2_002</name>
						<enabled>TRUE</enabled>
						<duration>13440</duration>
						<rate>
							<timebase>30</timebase>
							<ntsc>TRUE</ntsc>
						</rate>
						<start>9562</start>
						<end>11251</end>
						<in>1469</in>
						<out>3158</out>
						<pproTicksIn>12450755116800</pproTicksIn>
						<pproTicksOut>26766157017600</pproTicksOut>
						<alphatype>none</alphatype>
						<file id="file-14"/>
						<filter>
							<effect>
								<name>Basic Motion</name>
								<effectid>basic</effectid>
								<effectcategory>motion</effectcategory>
								<effecttype>motion</effecttype>
								<mediatype>video</mediatype>
								<pproBypass>false</pproBypass>
								<parameter authoringApp="PremierePro">
									<parameterid>scale</parameterid>
									<name>Scale</name>
									<valuemin>0</valuemin>
									<valuemax>1000</valuemax>
									<value>140.7</value>
								</parameter>
								<parameter authoringApp="PremierePro">
									<parameterid>rotation</parameterid>
									<name>Rotation</name>
									<valuemin>-8640</valuemin>
									<valuemax>8640</valuemax>
									<value>0</value>
								</parameter>
								<parameter authoringApp="PremierePro">
									<parameterid>center</parameterid>
									<name>Center</name>
									<value>
										<horiz>0</horiz>
										<vert>-0.703125</vert>
									</value>
								</parameter>
								<parameter authoringApp="PremierePro">
									<parameterid>centerOffset</parameterid>
									<name>Anchor Point</name>
									<value>
										<horiz>0</horiz>
										<vert>0</vert>
									</value>
								</parameter>
								<parameter authoringApp="PremierePro">
									<parameterid>antiflicker</parameterid>
									<name>Anti-flicker Filter</name>
									<valuemin>0.0</valuemin>
									<valuemax>1.0</valuemax>
									<value>0</value>
								</parameter>
							</effect>
						</filter>
						<logginginfo>
							<description></description>
							<scene></scene>
							<shottake></shottake>
							<lognote></lognote>
							<good></good>
							<originalvideofilename></originalvideofilename>
							<originalaudiofilename></originalaudiofilename>
						</logginginfo>
						<colorinfo>
							<lut></lut>
							<lut1></lut1>
							<asc_sop></asc_sop>
							<asc_sat></asc_sat>
							<lut2></lut2>
						</colorinfo>
						<labels>
							<label2>Green</label2>
						</labels>
					</clipitem>
					<clipitem id="clipitem-17">
						<masterclipid>masterclip-15</masterclipid>
						<name>CMP_JS2__005_v001_left.1059.png</name>
						<enabled>TRUE</enabled>
						<duration>5159</duration>
						<rate>
							<timebase>30</timebase>
							<ntsc>TRUE</ntsc>
						</rate>
						<start>12477</start>
						<end>17396</end>
						<in>120</in>
						<out>5039</out>
						<pproTicksIn>1017080064000</pproTicksIn>
						<pproTicksOut>42708887020800</pproTicksOut>
						<alphatype>none</alphatype>
						<pixelaspectratio>square</pixelaspectratio>
						<anamorphic>FALSE</anamorphic>
						<file id="file-15">
							<name>CMP_JS2__005_v001_left.1059.png</name>
							<pathurl>file://localhost/G%3a/Departments/_Post/__Projects/033_Chimps_CMP/6.VFX/CMP_JS2_005/CMP_JS2_005_v001/render/render/left/CMP_JS2__005_v001_left.1059.png</pathurl>
							<rate>
								<timebase>30</timebase>
								<ntsc>TRUE</ntsc>
							</rate>
							<duration>5159</duration>
							<timecode>
								<rate>
									<timebase>30</timebase>
									<ntsc>TRUE</ntsc>
								</rate>
								<string>00:00:00:00</string>
								<frame>0</frame>
								<displayformat>NDF</displayformat>
							</timecode>
							<media>
								<video>
									<samplecharacteristics>
										<rate>
											<timebase>30</timebase>
											<ntsc>TRUE</ntsc>
										</rate>
										<width>4096</width>
										<height>2048</height>
										<anamorphic>FALSE</anamorphic>
										<pixelaspectratio>square</pixelaspectratio>
										<fielddominance>none</fielddominance>
									</samplecharacteristics>
								</video>
							</media>
						</file>
						<filter>
							<effect>
								<name>Basic Motion</name>
								<effectid>basic</effectid>
								<effectcategory>motion</effectcategory>
								<effecttype>motion</effecttype>
								<mediatype>video</mediatype>
								<pproBypass>false</pproBypass>
								<parameter authoringApp="PremierePro">
									<parameterid>scale</parameterid>
									<name>Scale</name>
									<valuemin>0</valuemin>
									<valuemax>1000</valuemax>
									<value>140.7</value>
								</parameter>
								<parameter authoringApp="PremierePro">
									<parameterid>rotation</parameterid>
									<name>Rotation</name>
									<valuemin>-8640</valuemin>
									<valuemax>8640</valuemax>
									<value>0</value>
								</parameter>
								<parameter authoringApp="PremierePro">
									<parameterid>center</parameterid>
									<name>Center</name>
									<value>
										<horiz>0</horiz>
										<vert>-0.703125</vert>
									</value>
								</parameter>
								<parameter authoringApp="PremierePro">
									<parameterid>centerOffset</parameterid>
									<name>Anchor Point</name>
									<value>
										<horiz>0</horiz>
										<vert>0</vert>
									</value>
								</parameter>
								<parameter authoringApp="PremierePro">
									<parameterid>antiflicker</parameterid>
									<name>Anti-flicker Filter</name>
									<valuemin>0.0</valuemin>
									<valuemax>1.0</valuemax>
									<value>0</value>
								</parameter>
							</effect>
						</filter>
						<logginginfo>
							<description></description>
							<scene></scene>
							<shottake></shottake>
							<lognote></lognote>
							<good></good>
							<originalvideofilename></originalvideofilename>
							<originalaudiofilename></originalaudiofilename>
						</logginginfo>
						<colorinfo>
							<lut></lut>
							<lut1></lut1>
							<asc_sop></asc_sop>
							<asc_sat></asc_sat>
							<lut2></lut2>
						</colorinfo>
						<labels>
							<label2>Green</label2>
						</labels>
					</clipitem>
					<clipitem id="clipitem-18">
						<masterclipid>masterclip-16</masterclipid>
						<name>CMP_JS2D1S3_v001_left.3000.png</name>
						<enabled>TRUE</enabled>
						<duration>3199</duration>
						<rate>
							<timebase>30</timebase>
							<ntsc>TRUE</ntsc>
						</rate>
						<start>17897</start>
						<end>20180</end>
						<in>796</in>
						<out>3079</out>
						<pproTicksIn>6746631091200</pproTicksIn>
						<pproTicksOut>26096579308800</pproTicksOut>
						<alphatype>none</alphatype>
						<pixelaspectratio>square</pixelaspectratio>
						<anamorphic>FALSE</anamorphic>
						<file id="file-16">
							<name>CMP_JS2D1S3_v001_left.3000.png</name>
							<pathurl>file://localhost/G%3a/Departments/_Post/__Projects/033_Chimps_CMP/6.VFX/CMP_JS2D1S3/CMP_JS2D1S3_v001/Prerenders/Left/CMP_JS2D1S3_v001_left.3000.png</pathurl>
							<rate>
								<timebase>30</timebase>
								<ntsc>TRUE</ntsc>
							</rate>
							<duration>3199</duration>
							<timecode>
								<rate>
									<timebase>30</timebase>
									<ntsc>TRUE</ntsc>
								</rate>
								<string>00:00:00:00</string>
								<frame>0</frame>
								<displayformat>NDF</displayformat>
							</timecode>
							<media>
								<video>
									<samplecharacteristics>
										<rate>
											<timebase>30</timebase>
											<ntsc>TRUE</ntsc>
										</rate>
										<width>4096</width>
										<height>2048</height>
										<anamorphic>FALSE</anamorphic>
										<pixelaspectratio>square</pixelaspectratio>
										<fielddominance>none</fielddominance>
									</samplecharacteristics>
								</video>
							</media>
						</file>
						<filter>
							<effect>
								<name>Basic Motion</name>
								<effectid>basic</effectid>
								<effectcategory>motion</effectcategory>
								<effecttype>motion</effecttype>
								<mediatype>video</mediatype>
								<pproBypass>false</pproBypass>
								<parameter authoringApp="PremierePro">
									<parameterid>scale</parameterid>
									<name>Scale</name>
									<valuemin>0</valuemin>
									<valuemax>1000</valuemax>
									<value>140.7</value>
								</parameter>
								<parameter authoringApp="PremierePro">
									<parameterid>rotation</parameterid>
									<name>Rotation</name>
									<valuemin>-8640</valuemin>
									<valuemax>8640</valuemax>
									<value>0</value>
								</parameter>
								<parameter authoringApp="PremierePro">
									<parameterid>center</parameterid>
									<name>Center</name>
									<value>
										<horiz>0</horiz>
										<vert>-0.703125</vert>
									</value>
								</parameter>
								<parameter authoringApp="PremierePro">
									<parameterid>centerOffset</parameterid>
									<name>Anchor Point</name>
									<value>
										<horiz>0</horiz>
										<vert>0</vert>
									</value>
								</parameter>
								<parameter authoringApp="PremierePro">
									<parameterid>antiflicker</parameterid>
									<name>Anti-flicker Filter</name>
									<valuemin>0.0</valuemin>
									<valuemax>1.0</valuemax>
									<value>0</value>
								</parameter>
							</effect>
						</filter>
						<filter>
							<effect>
								<name>Opacity</name>
								<effectid>opacity</effectid>
								<effectcategory>motion</effectcategory>
								<effecttype>motion</effecttype>
								<mediatype>video</mediatype>
								<pproBypass>false</pproBypass>
								<parameter authoringApp="PremierePro">
									<parameterid>opacity</parameterid>
									<name>opacity</name>
									<valuemin>0</valuemin>
									<valuemax>100</valuemax>
									<value>100</value>
									<keyframe>
										<when>2897</when>
										<value>100</value>
									</keyframe>
									<keyframe>
										<when>3079</when>
										<value>0</value>
									</keyframe>
									<keyframe>
										<when>3797</when>
										<value>100</value>
									</keyframe>
									<keyframe>
										<when>3977</when>
										<value>0</value>
									</keyframe>
								</parameter>
							</effect>
						</filter>
						<logginginfo>
							<description></description>
							<scene></scene>
							<shottake></shottake>
							<lognote></lognote>
							<good></good>
							<originalvideofilename></originalvideofilename>
							<originalaudiofilename></originalaudiofilename>
						</logginginfo>
						<colorinfo>
							<lut></lut>
							<lut1></lut1>
							<asc_sop></asc_sop>
							<asc_sat></asc_sat>
							<lut2></lut2>
						</colorinfo>
						<labels>
							<label2>Green</label2>
						</labels>
					</clipitem>
					<enabled>TRUE</enabled>
					<locked>FALSE</locked>
				</track>
				<track TL.SQTrackShy="0" TL.SQTrackExpandedHeight="47" TL.SQTrackExpanded="0" MZ.TrackTargeted="1">
					<transitionitem>
						<start>20197</start>
						<end>20227</end>
						<alignment>start-black</alignment>
						<cutPointTicks>0</cutPointTicks>
						<rate>
							<timebase>30</timebase>
							<ntsc>TRUE</ntsc>
						</rate>
						<effect>
							<name>Cross Dissolve</name>
							<effectid>Cross Dissolve</effectid>
							<effectcategory>Dissolve</effectcategory>
							<effecttype>transition</effecttype>
							<mediatype>video</mediatype>
							<wipecode>0</wipecode>
							<wipeaccuracy>100</wipeaccuracy>
							<startratio>0</startratio>
							<endratio>1</endratio>
							<reverse>FALSE</reverse>
						</effect>
					</transitionitem>
					<clipitem id="clipitem-19">
						<masterclipid>masterclip-17</masterclipid>
						<name>Project-Chimps-logo.png</name>
						<enabled>TRUE</enabled>
						<duration>1294705</duration>
						<rate>
							<timebase>30</timebase>
							<ntsc>TRUE</ntsc>
						</rate>
						<start>-1</start>
						<end>20234</end>
						<in>107892</in>
						<out>107929</out>
						<pproTicksIn>914456685542400</pproTicksIn>
						<pproTicksOut>914770285228800</pproTicksOut>
						<alphatype>none</alphatype>
						<pixelaspectratio>square</pixelaspectratio>
						<anamorphic>FALSE</anamorphic>
						<file id="file-17">
							<name>Project-Chimps-logo.png</name>
							<pathurl>file://localhost/G%3a/Departments/_Post/__Projects/033_Chimps_CMP/4.Graphics/Logos/Project-Chimps-logo.png</pathurl>
							<rate>
								<timebase>30</timebase>
								<ntsc>TRUE</ntsc>
							</rate>
							<duration>1294705</duration>
							<timecode>
								<rate>
									<timebase>30</timebase>
									<ntsc>TRUE</ntsc>
								</rate>
								<string>00:00:00:00</string>
								<frame>0</frame>
								<displayformat>NDF</displayformat>
							</timecode>
							<media>
								<video>
									<samplecharacteristics>
										<rate>
											<timebase>30</timebase>
											<ntsc>TRUE</ntsc>
										</rate>
										<width>825</width>
										<height>1154</height>
										<anamorphic>FALSE</anamorphic>
										<pixelaspectratio>square</pixelaspectratio>
										<fielddominance>none</fielddominance>
									</samplecharacteristics>
								</video>
							</media>
						</file>
						<logginginfo>
							<description></description>
							<scene></scene>
							<shottake></shottake>
							<lognote></lognote>
							<good></good>
							<originalvideofilename></originalvideofilename>
							<originalaudiofilename></originalaudiofilename>
						</logginginfo>
						<colorinfo>
							<lut></lut>
							<lut1></lut1>
							<asc_sop></asc_sop>
							<asc_sat></asc_sat>
							<lut2></lut2>
						</colorinfo>
						<labels>
							<label2>Purple</label2>
						</labels>
					</clipitem>
					<clipitem id="clipitem-20">
						<masterclipid>masterclip-17</masterclipid>
						<name>Project-Chimps-logo.png</name>
						<enabled>TRUE</enabled>
						<duration>1294705</duration>
						<rate>
							<timebase>30</timebase>
							<ntsc>TRUE</ntsc>
						</rate>
						<start>20234</start>
						<end>20239</end>
						<in>107946</in>
						<out>107951</out>
						<pproTicksIn>914914371571200</pproTicksIn>
						<pproTicksOut>914956749907200</pproTicksOut>
						<alphatype>none</alphatype>
						<file id="file-17"/>
						<logginginfo>
							<description></description>
							<scene></scene>
							<shottake></shottake>
							<lognote></lognote>
							<good></good>
							<originalvideofilename></originalvideofilename>
							<originalaudiofilename></originalaudiofilename>
						</logginginfo>
						<colorinfo>
							<lut></lut>
							<lut1></lut1>
							<asc_sop></asc_sop>
							<asc_sat></asc_sat>
							<lut2></lut2>
						</colorinfo>
						<labels>
							<label2>Purple</label2>
						</labels>
					</clipitem>
					<clipitem id="clipitem-21">
						<masterclipid>masterclip-17</masterclipid>
						<name>Project-Chimps-logo.png</name>
						<enabled>TRUE</enabled>
						<duration>1294705</duration>
						<rate>
							<timebase>30</timebase>
							<ntsc>TRUE</ntsc>
						</rate>
						<start>20239</start>
						<end>-1</end>
						<in>107951</in>
						<out>107996</out>
						<pproTicksIn>914956749907200</pproTicksIn>
						<pproTicksOut>915338154931200</pproTicksOut>
						<alphatype>none</alphatype>
						<file id="file-17"/>
						<logginginfo>
							<description></description>
							<scene></scene>
							<shottake></shottake>
							<lognote></lognote>
							<good></good>
							<originalvideofilename></originalvideofilename>
							<originalaudiofilename></originalaudiofilename>
						</logginginfo>
						<colorinfo>
							<lut></lut>
							<lut1></lut1>
							<asc_sop></asc_sop>
							<asc_sat></asc_sat>
							<lut2></lut2>
						</colorinfo>
						<labels>
							<label2>Purple</label2>
						</labels>
					</clipitem>
					<transitionitem>
						<start>20251</start>
						<end>20284</end>
						<alignment>end-black</alignment>
						<cutPointTicks>279697017600</cutPointTicks>
						<rate>
							<timebase>30</timebase>
							<ntsc>TRUE</ntsc>
						</rate>
						<effect>
							<name>Cross Dissolve</name>
							<effectid>Cross Dissolve</effectid>
							<effectcategory>Dissolve</effectcategory>
							<effecttype>transition</effecttype>
							<mediatype>video</mediatype>
							<wipecode>0</wipecode>
							<wipeaccuracy>100</wipeaccuracy>
							<startratio>0</startratio>
							<endratio>1</endratio>
							<reverse>FALSE</reverse>
						</effect>
					</transitionitem>
					<clipitem id="clipitem-22">
						<masterclipid>masterclip-10</masterclipid>
						<name>logo_swipe/logo.aep</name>
						<enabled>TRUE</enabled>
						<duration>899</duration>
						<rate>
							<timebase>30</timebase>
							<ntsc>TRUE</ntsc>
						</rate>
						<start>20294</start>
						<end>-1</end>
						<in>0</in>
						<out>85</out>
						<pproTicksIn>0</pproTicksIn>
						<pproTicksOut>720431712000</pproTicksOut>
						<alphatype>none</alphatype>
						<file id="file-10"/>
						<logginginfo>
							<description></description>
							<scene></scene>
							<shottake></shottake>
							<lognote></lognote>
							<good></good>
							<originalvideofilename></originalvideofilename>
							<originalaudiofilename></originalaudiofilename>
						</logginginfo>
						<colorinfo>
							<lut></lut>
							<lut1></lut1>
							<asc_sop></asc_sop>
							<asc_sat></asc_sat>
							<lut2></lut2>
						</colorinfo>
						<labels>
							<label2>Purple</label2>
						</labels>
					</clipitem>
					<transitionitem>
						<start>20329</start>
						<end>20379</end>
						<alignment>end-black</alignment>
						<cutPointTicks>423783360000</cutPointTicks>
						<rate>
							<timebase>30</timebase>
							<ntsc>TRUE</ntsc>
						</rate>
						<effect>
							<name>Cross Dissolve</name>
							<effectid>Cross Dissolve</effectid>
							<effectcategory>Dissolve</effectcategory>
							<effecttype>transition</effecttype>
							<mediatype>video</mediatype>
							<wipecode>0</wipecode>
							<wipeaccuracy>100</wipeaccuracy>
							<startratio>0</startratio>
							<endratio>1</endratio>
							<reverse>FALSE</reverse>
						</effect>
					</transitionitem>
					<enabled>TRUE</enabled>
					<locked>FALSE</locked>
				</track>
			</video>
			<audio>
				<numOutputChannels>16</numOutputChannels>
				<format>
					<samplecharacteristics>
						<depth>16</depth>
						<samplerate>48000</samplerate>
					</samplecharacteristics>
				</format>
				<outputs>
					<group>
						<index>1</index>
						<numchannels>1</numchannels>
						<downmix>0</downmix>
						<channel>
							<index>1</index>
						</channel>
					</group>
					<group>
						<index>2</index>
						<numchannels>1</numchannels>
						<downmix>0</downmix>
						<channel>
							<index>2</index>
						</channel>
					</group>
					<group>
						<index>3</index>
						<numchannels>1</numchannels>
						<downmix>0</downmix>
						<channel>
							<index>3</index>
						</channel>
					</group>
					<group>
						<index>4</index>
						<numchannels>1</numchannels>
						<downmix>0</downmix>
						<channel>
							<index>4</index>
						</channel>
					</group>
					<group>
						<index>5</index>
						<numchannels>1</numchannels>
						<downmix>0</downmix>
						<channel>
							<index>5</index>
						</channel>
					</group>
					<group>
						<index>6</index>
						<numchannels>1</numchannels>
						<downmix>0</downmix>
						<channel>
							<index>6</index>
						</channel>
					</group>
					<group>
						<index>7</index>
						<numchannels>1</numchannels>
						<downmix>0</downmix>
						<channel>
							<index>7</index>
						</channel>
					</group>
					<group>
						<index>8</index>
						<numchannels>1</numchannels>
						<downmix>0</downmix>
						<channel>
							<index>8</index>
						</channel>
					</group>
					<group>
						<index>9</index>
						<numchannels>1</numchannels>
						<downmix>0</downmix>
						<channel>
							<index>9</index>
						</channel>
					</group>
					<group>
						<index>10</index>
						<numchannels>1</numchannels>
						<downmix>0</downmix>
						<channel>
							<index>10</index>
						</channel>
					</group>
					<group>
						<index>11</index>
						<numchannels>1</numchannels>
						<downmix>0</downmix>
						<channel>
							<index>11</index>
						</channel>
					</group>
					<group>
						<index>12</index>
						<numchannels>1</numchannels>
						<downmix>0</downmix>
						<channel>
							<index>12</index>
						</channel>
					</group>
					<group>
						<index>13</index>
						<numchannels>1</numchannels>
						<downmix>0</downmix>
						<channel>
							<index>13</index>
						</channel>
					</group>
					<group>
						<index>14</index>
						<numchannels>1</numchannels>
						<downmix>0</downmix>
						<channel>
							<index>14</index>
						</channel>
					</group>
					<group>
						<index>15</index>
						<numchannels>1</numchannels>
						<downmix>0</downmix>
						<channel>
							<index>15</index>
						</channel>
					</group>
					<group>
						<index>16</index>
						<numchannels>1</numchannels>
						<downmix>0</downmix>
						<channel>
							<index>16</index>
						</channel>
					</group>
				</outputs>
				<track TL.SQTrackAudioKeyframeStyle="0" TL.SQTrackShy="0" TL.SQTrackExpandedHeight="15" TL.SQTrackExpanded="0" MZ.TrackTargeted="1" PannerCurrentValue="0.5" PannerStartKeyframe="-91445760000000000,0.5,0,0,0,0,0,0" PannerName="Pan" currentExplodedTrackIndex="0" totalExplodedTrackCount="1" premiereTrackType="SixteenChannel">
					<clipitem id="clipitem-23" premiereChannelType="adaptive">
						<masterclipid>masterclip-18</masterclipid>
						<name>SR001_ambiX.wav</name>
						<enabled>TRUE</enabled>
						<duration>55910</duration>
						<rate>
							<timebase>30</timebase>
							<ntsc>TRUE</ntsc>
						</rate>
						<start>326</start>
						<end>1711</end>
						<in>15784</in>
						<out>17169</out>
						<pproTicksIn>133779931084800</pproTicksIn>
						<pproTicksOut>145518730156800</pproTicksOut>
						<file id="file-18">
							<name>SR001_ambiX.wav</name>
							<pathurl>file://Gladiator/hd/Departments/_Post/__Projects/033_Chimps_CMP/3.Audio/Processed/20180313_ambix/Brahma_01_morning/SR001_ambiX.wav</pathurl>
							<rate>
								<timebase>30</timebase>
								<ntsc>TRUE</ntsc>
							</rate>
							<duration>55910</duration>
							<timecode>
								<rate>
									<timebase>30</timebase>
									<ntsc>TRUE</ntsc>
								</rate>
								<string>05;49;52;00</string>
								<frame>629130</frame>
								<displayformat>DF</displayformat>
							</timecode>
							<media>
								<audio>
									<samplecharacteristics>
										<depth>16</depth>
										<samplerate>48000</samplerate>
									</samplecharacteristics>
									<channelcount>1</channelcount>
									<audiochannel>
										<sourcechannel>1</sourcechannel>
									</audiochannel>
								</audio>
							</media>
						</file>
						<sourcetrack>
							<mediatype>audio</mediatype>
							<trackindex>1</trackindex>
						</sourcetrack>
						<logginginfo>
							<description></description>
							<scene></scene>
							<shottake></shottake>
							<lognote></lognote>
							<good></good>
							<originalvideofilename></originalvideofilename>
							<originalaudiofilename></originalaudiofilename>
						</logginginfo>
						<colorinfo>
							<lut></lut>
							<lut1></lut1>
							<asc_sop></asc_sop>
							<asc_sat></asc_sat>
							<lut2></lut2>
						</colorinfo>
						<labels>
							<label2>Violet</label2>
						</labels>
					</clipitem>
					<clipitem id="clipitem-24" premiereChannelType="adaptive">
						<masterclipid>masterclip-18</masterclipid>
						<name>SR001_ambiX.wav</name>
						<enabled>TRUE</enabled>
						<duration>55910</duration>
						<rate>
							<timebase>30</timebase>
							<ntsc>TRUE</ntsc>
						</rate>
						<start>1711</start>
						<end>2132</end>
						<in>17169</in>
						<out>17590</out>
						<pproTicksIn>145518730156800</pproTicksIn>
						<pproTicksOut>149086986048000</pproTicksOut>
						<file id="file-18"/>
						<sourcetrack>
							<mediatype>audio</mediatype>
							<trackindex>1</trackindex>
						</sourcetrack>
						<logginginfo>
							<description></description>
							<scene></scene>
							<shottake></shottake>
							<lognote></lognote>
							<good></good>
							<originalvideofilename></originalvideofilename>
							<originalaudiofilename></originalaudiofilename>
						</logginginfo>
						<colorinfo>
							<lut></lut>
							<lut1></lut1>
							<asc_sop></asc_sop>
							<asc_sat></asc_sat>
							<lut2></lut2>
						</colorinfo>
						<labels>
							<label2>Violet</label2>
						</labels>
					</clipitem>
					<transitionitem>
						<start>5423</start>
						<end>5425</end>
						<alignment>start-black</alignment>
						<cutPointTicks>0</cutPointTicks>
						<rate>
							<timebase>30</timebase>
							<ntsc>TRUE</ntsc>
						</rate>
						<effect>
							<name>Cross Fade (+3dB)</name>
							<effectid>KGAudioTransCrossFade3dB</effectid>
							<effecttype>transition</effecttype>
							<mediatype>audio</mediatype>
							<wipecode>0</wipecode>
							<wipeaccuracy>100</wipeaccuracy>
							<startratio>0</startratio>
							<endratio>1</endratio>
							<reverse>FALSE</reverse>
						</effect>
					</transitionitem>
					<clipitem id="clipitem-25" premiereChannelType="adaptive">
						<masterclipid>masterclip-18</masterclipid>
						<name>SR001_ambiX.wav</name>
						<enabled>TRUE</enabled>
						<duration>55910</duration>
						<rate>
							<timebase>30</timebase>
							<ntsc>TRUE</ntsc>
						</rate>
						<start>-1</start>
						<end>-1</end>
						<in>18444</in>
						<out>21900</out>
						<pproTicksIn>156325205836800</pproTicksIn>
						<pproTicksOut>185617111680000</pproTicksOut>
						<file id="file-18"/>
						<sourcetrack>
							<mediatype>audio</mediatype>
							<trackindex>1</trackindex>
						</sourcetrack>
						<logginginfo>
							<description></description>
							<scene></scene>
							<shottake></shottake>
							<lognote></lognote>
							<good></good>
							<originalvideofilename></originalvideofilename>
							<originalaudiofilename></originalaudiofilename>
						</logginginfo>
						<colorinfo>
							<lut></lut>
							<lut1></lut1>
							<asc_sop></asc_sop>
							<asc_sat></asc_sat>
							<lut2></lut2>
						</colorinfo>
						<labels>
							<label2>Mango</label2>
						</labels>
					</clipitem>
					<transitionitem>
						<start>8877</start>
						<end>8879</end>
						<alignment>end-black</alignment>
						<cutPointTicks>16951334400</cutPointTicks>
						<rate>
							<timebase>30</timebase>
							<ntsc>TRUE</ntsc>
						</rate>
						<effect>
							<name>Cross Fade (+3dB)</name>
							<effectid>KGAudioTransCrossFade3dB</effectid>
							<effecttype>transition</effecttype>
							<mediatype>audio</mediatype>
							<wipecode>0</wipecode>
							<wipeaccuracy>100</wipeaccuracy>
							<startratio>0</startratio>
							<endratio>1</endratio>
							<reverse>FALSE</reverse>
						</effect>
					</transitionitem>
					<clipitem id="clipitem-26" premiereChannelType="adaptive">
						<masterclipid>masterclip-18</masterclipid>
						<name>SR001_ambiX.wav</name>
						<enabled>TRUE</enabled>
						<duration>55910</duration>
						<rate>
							<timebase>30</timebase>
							<ntsc>TRUE</ntsc>
						</rate>
						<start>9562</start>
						<end>9751</end>
						<in>22364</in>
						<out>22553</out>
						<pproTicksIn>189549821260800</pproTicksIn>
						<pproTicksOut>191151722361600</pproTicksOut>
						<file id="file-18"/>
						<sourcetrack>
							<mediatype>audio</mediatype>
							<trackindex>1</trackindex>
						</sourcetrack>
						<logginginfo>
							<description></description>
							<scene></scene>
							<shottake></shottake>
							<lognote></lognote>
							<good></good>
							<originalvideofilename></originalvideofilename>
							<originalaudiofilename></originalaudiofilename>
						</logginginfo>
						<colorinfo>
							<lut></lut>
							<lut1></lut1>
							<asc_sop></asc_sop>
							<asc_sat></asc_sat>
							<lut2></lut2>
						</colorinfo>
						<labels>
							<label2>Caribbean</label2>
						</labels>
					</clipitem>
					<transitionitem>
						<start>11447</start>
						<end>11449</end>
						<alignment>start-black</alignment>
						<cutPointTicks>0</cutPointTicks>
						<rate>
							<timebase>30</timebase>
							<ntsc>TRUE</ntsc>
						</rate>
						<effect>
							<name>Cross Fade (+3dB)</name>
							<effectid>KGAudioTransCrossFade3dB</effectid>
							<effecttype>transition</effecttype>
							<mediatype>audio</mediatype>
							<wipecode>0</wipecode>
							<wipeaccuracy>100</wipeaccuracy>
							<startratio>0</startratio>
							<endratio>1</endratio>
							<reverse>FALSE</reverse>
						</effect>
					</transitionitem>
					<clipitem id="clipitem-27" premiereChannelType="adaptive">
						<masterclipid>masterclip-18</masterclipid>
						<name>SR001_ambiX.wav</name>
						<enabled>TRUE</enabled>
						<duration>55910</duration>
						<rate>
							<timebase>30</timebase>
							<ntsc>TRUE</ntsc>
						</rate>
						<start>-1</start>
						<end>-1</end>
						<in>26080</in>
						<out>26202</out>
						<pproTicksIn>221045400576000</pproTicksIn>
						<pproTicksOut>222079431974400</pproTicksOut>
						<file id="file-18"/>
						<sourcetrack>
							<mediatype>audio</mediatype>
							<trackindex>1</trackindex>
						</sourcetrack>
						<logginginfo>
							<description></description>
							<scene></scene>
							<shottake></shottake>
							<lognote></lognote>
							<good></good>
							<originalvideofilename></originalvideofilename>
							<originalaudiofilename></originalaudiofilename>
						</logginginfo>
						<colorinfo>
							<lut></lut>
							<lut1></lut1>
							<asc_sop></asc_sop>
							<asc_sat></asc_sat>
							<lut2></lut2>
						</colorinfo>
						<labels>
							<label2>Violet</label2>
						</labels>
					</clipitem>
					<transitionitem>
						<start>11567</start>
						<end>11569</end>
						<alignment>center</alignment>
						<cutPointTicks>8475667200</cutPointTicks>
						<rate>
							<timebase>30</timebase>
							<ntsc>TRUE</ntsc>
						</rate>
						<effect>
							<name>Cross Fade (+3dB)</name>
							<effectid>KGAudioTransCrossFade3dB</effectid>
							<effecttype>transition</effecttype>
							<mediatype>audio</mediatype>
							<wipecode>0</wipecode>
							<wipeaccuracy>100</wipeaccuracy>
							<startratio>0</startratio>
							<endratio>1</endratio>
							<reverse>FALSE</reverse>
						</effect>
					</transitionitem>
					<clipitem id="clipitem-28" premiereChannelType="adaptive">
						<masterclipid>masterclip-18</masterclipid>
						<name>SR001_ambiX.wav</name>
						<enabled>TRUE</enabled>
						<duration>55910</duration>
						<rate>
							<timebase>30</timebase>
							<ntsc>TRUE</ntsc>
						</rate>
						<start>-1</start>
						<end>-1</end>
						<in>26304</in>
						<out>26391</out>
						<pproTicksIn>222943950028800</pproTicksIn>
						<pproTicksOut>223681333075200</pproTicksOut>
						<file id="file-18"/>
						<sourcetrack>
							<mediatype>audio</mediatype>
							<trackindex>1</trackindex>
						</sourcetrack>
						<logginginfo>
							<description></description>
							<scene></scene>
							<shottake></shottake>
							<lognote></lognote>
							<good></good>
							<originalvideofilename></originalvideofilename>
							<originalaudiofilename></originalaudiofilename>
						</logginginfo>
						<colorinfo>
							<lut></lut>
							<lut1></lut1>
							<asc_sop></asc_sop>
							<asc_sat></asc_sat>
							<lut2></lut2>
						</colorinfo>
						<labels>
							<label2>Violet</label2>
						</labels>
					</clipitem>
					<transitionitem>
						<start>11652</start>
						<end>11654</end>
						<alignment>center</alignment>
						<cutPointTicks>8475667200</cutPointTicks>
						<rate>
							<timebase>30</timebase>
							<ntsc>TRUE</ntsc>
						</rate>
						<effect>
							<name>Cross Fade (+3dB)</name>
							<effectid>KGAudioTransCrossFade3dB</effectid>
							<effecttype>transition</effecttype>
							<mediatype>audio</mediatype>
							<wipecode>0</wipecode>
							<wipeaccuracy>100</wipeaccuracy>
							<startratio>0</startratio>
							<endratio>1</endratio>
							<reverse>FALSE</reverse>
						</effect>
					</transitionitem>
					<clipitem id="clipitem-29" premiereChannelType="adaptive">
						<masterclipid>masterclip-18</masterclipid>
						<name>SR001_ambiX.wav</name>
						<enabled>TRUE</enabled>
						<duration>55910</duration>
						<rate>
							<timebase>30</timebase>
							<ntsc>TRUE</ntsc>
						</rate>
						<start>-1</start>
						<end>11850</end>
						<in>28235</in>
						<out>28433</out>
						<pproTicksIn>239310463392000</pproTicksIn>
						<pproTicksOut>240988645497600</pproTicksOut>
						<file id="file-18"/>
						<sourcetrack>
							<mediatype>audio</mediatype>
							<trackindex>1</trackindex>
						</sourcetrack>
						<logginginfo>
							<description></description>
							<scene></scene>
							<shottake></shottake>
							<lognote></lognote>
							<good></good>
							<originalvideofilename></originalvideofilename>
							<originalaudiofilename></originalaudiofilename>
						</logginginfo>
						<colorinfo>
							<lut></lut>
							<lut1></lut1>
							<asc_sop></asc_sop>
							<asc_sat></asc_sat>
							<lut2></lut2>
						</colorinfo>
						<labels>
							<label2>Violet</label2>
						</labels>
					</clipitem>
					<clipitem id="clipitem-30" premiereChannelType="adaptive">
						<masterclipid>masterclip-18</masterclipid>
						<name>SR001_ambiX.wav</name>
						<enabled>TRUE</enabled>
						<duration>55910</duration>
						<rate>
							<timebase>30</timebase>
							<ntsc>TRUE</ntsc>
						</rate>
						<start>11850</start>
						<end>-1</end>
						<in>38378</in>
						<out>38531</out>
						<pproTicksIn>325279155801600</pproTicksIn>
						<pproTicksOut>326575932883200</pproTicksOut>
						<file id="file-18"/>
						<sourcetrack>
							<mediatype>audio</mediatype>
							<trackindex>1</trackindex>
						</sourcetrack>
						<logginginfo>
							<description></description>
							<scene></scene>
							<shottake></shottake>
							<lognote></lognote>
							<good></good>
							<originalvideofilename></originalvideofilename>
							<originalaudiofilename></originalaudiofilename>
						</logginginfo>
						<colorinfo>
							<lut></lut>
							<lut1></lut1>
							<asc_sop></asc_sop>
							<asc_sat></asc_sat>
							<lut2></lut2>
						</colorinfo>
						<labels>
							<label2>Violet</label2>
						</labels>
					</clipitem>
					<transitionitem>
						<start>12001</start>
						<end>12003</end>
						<alignment>end-black</alignment>
						<cutPointTicks>16951334400</cutPointTicks>
						<rate>
							<timebase>30</timebase>
							<ntsc>TRUE</ntsc>
						</rate>
						<effect>
							<name>Cross Fade (+3dB)</name>
							<effectid>KGAudioTransCrossFade3dB</effectid>
							<effecttype>transition</effecttype>
							<mediatype>audio</mediatype>
							<wipecode>0</wipecode>
							<wipeaccuracy>100</wipeaccuracy>
							<startratio>0</startratio>
							<endratio>1</endratio>
							<reverse>FALSE</reverse>
						</effect>
					</transitionitem>
					<clipitem id="clipitem-31" premiereChannelType="adaptive">
						<masterclipid>masterclip-19</masterclipid>
						<name>SR002_ambiX.wav</name>
						<enabled>TRUE</enabled>
						<duration>31041</duration>
						<rate>
							<timebase>30</timebase>
							<ntsc>TRUE</ntsc>
						</rate>
						<start>12442</start>
						<end>13704</end>
						<in>2085</in>
						<out>3347</out>
						<pproTicksIn>17671766112000</pproTicksIn>
						<pproTicksOut>28368058118400</pproTicksOut>
						<file id="file-19">
							<name>SR002_ambiX.wav</name>
							<pathurl>file://Gladiator/hd/Departments/_Post/__Projects/033_Chimps_CMP/3.Audio/Processed/20180313_ambix/Brahma_01_morning/SR002_ambiX.wav</pathurl>
							<rate>
								<timebase>30</timebase>
								<ntsc>TRUE</ntsc>
							</rate>
							<duration>31041</duration>
							<timecode>
								<rate>
									<timebase>30</timebase>
									<ntsc>TRUE</ntsc>
								</rate>
								<string>06;23;59;29</string>
								<frame>690509</frame>
								<displayformat>DF</displayformat>
							</timecode>
							<media>
								<audio>
									<samplecharacteristics>
										<depth>16</depth>
										<samplerate>48000</samplerate>
									</samplecharacteristics>
									<channelcount>1</channelcount>
									<audiochannel>
										<sourcechannel>1</sourcechannel>
									</audiochannel>
								</audio>
							</media>
						</file>
						<sourcetrack>
							<mediatype>audio</mediatype>
							<trackindex>1</trackindex>
						</sourcetrack>
						<logginginfo>
							<description></description>
							<scene></scene>
							<shottake></shottake>
							<lognote></lognote>
							<good></good>
							<originalvideofilename></originalvideofilename>
							<originalaudiofilename></originalaudiofilename>
						</logginginfo>
						<colorinfo>
							<lut></lut>
							<lut1></lut1>
							<asc_sop></asc_sop>
							<asc_sat></asc_sat>
							<lut2></lut2>
						</colorinfo>
						<labels>
							<label2>Caribbean</label2>
						</labels>
					</clipitem>
					<clipitem id="clipitem-32" premiereChannelType="adaptive">
						<masterclipid>masterclip-19</masterclipid>
						<name>SR002_ambiX.wav</name>
						<enabled>TRUE</enabled>
						<duration>31041</duration>
						<rate>
							<timebase>30</timebase>
							<ntsc>TRUE</ntsc>
						</rate>
						<start>13707</start>
						<end>15207</end>
						<in>3347</in>
						<out>4847</out>
						<pproTicksIn>28368058118400</pproTicksIn>
						<pproTicksOut>41081558918400</pproTicksOut>
						<file id="file-19"/>
						<sourcetrack>
							<mediatype>audio</mediatype>
							<trackindex>1</trackindex>
						</sourcetrack>
						<logginginfo>
							<description></description>
							<scene></scene>
							<shottake></shottake>
							<lognote></lognote>
							<good></good>
							<originalvideofilename></originalvideofilename>
							<originalaudiofilename></originalaudiofilename>
						</logginginfo>
						<colorinfo>
							<lut></lut>
							<lut1></lut1>
							<asc_sop></asc_sop>
							<asc_sat></asc_sat>
							<lut2></lut2>
						</colorinfo>
						<labels>
							<label2>Caribbean</label2>
						</labels>
					</clipitem>
					<clipitem id="clipitem-33" premiereChannelType="adaptive">
						<masterclipid>masterclip-19</masterclipid>
						<name>SR002_ambiX.wav</name>
						<enabled>TRUE</enabled>
						<duration>31041</duration>
						<rate>
							<timebase>30</timebase>
							<ntsc>TRUE</ntsc>
						</rate>
						<start>15207</start>
						<end>17766</end>
						<in>4847</in>
						<out>7406</out>
						<pproTicksIn>41081558918400</pproTicksIn>
						<pproTicksOut>62770791283200</pproTicksOut>
						<file id="file-19"/>
						<sourcetrack>
							<mediatype>audio</mediatype>
							<trackindex>1</trackindex>
						</sourcetrack>
						<logginginfo>
							<description></description>
							<scene></scene>
							<shottake></shottake>
							<lognote></lognote>
							<good></good>
							<originalvideofilename></originalvideofilename>
							<originalaudiofilename></originalaudiofilename>
						</logginginfo>
						<colorinfo>
							<lut></lut>
							<lut1></lut1>
							<asc_sop></asc_sop>
							<asc_sat></asc_sat>
							<lut2></lut2>
						</colorinfo>
						<labels>
							<label2>Caribbean</label2>
						</labels>
					</clipitem>
					<enabled>TRUE</enabled>
					<locked>FALSE</locked>
					<outputchannelindex>1</outputchannelindex>
				</track>
				<track TL.SQTrackAudioKeyframeStyle="0" TL.SQTrackShy="0" TL.SQTrackExpandedHeight="15" TL.SQTrackExpanded="0" MZ.TrackTargeted="1" PannerCurrentValue="0.5" PannerStartKeyframe="-91445760000000000,0.5,0,0,0,0,0,0" PannerName="Pan" currentExplodedTrackIndex="0" totalExplodedTrackCount="2" premiereTrackType="SixteenChannel">
					<transitionitem>
						<start>9</start>
						<end>11</end>
						<alignment>start-black</alignment>
						<cutPointTicks>0</cutPointTicks>
						<rate>
							<timebase>30</timebase>
							<ntsc>TRUE</ntsc>
						</rate>
						<effect>
							<name>Cross Fade (+3dB)</name>
							<effectid>KGAudioTransCrossFade3dB</effectid>
							<effecttype>transition</effecttype>
							<mediatype>audio</mediatype>
							<wipecode>0</wipecode>
							<wipeaccuracy>100</wipeaccuracy>
							<startratio>0</startratio>
							<endratio>1</endratio>
							<reverse>FALSE</reverse>
						</effect>
					</transitionitem>
					<clipitem id="clipitem-34" premiereChannelType="stereo">
						<masterclipid>masterclip-20</masterclipid>
						<name>ID Tag_1_BinauralVerb.wav</name>
						<enabled>TRUE</enabled>
						<duration>307</duration>
						<rate>
							<timebase>30</timebase>
							<ntsc>TRUE</ntsc>
						</rate>
						<start>-1</start>
						<end>-1</end>
						<in>21</in>
						<out>83</out>
						<pproTicksIn>177989011200</pproTicksIn>
						<pproTicksOut>703480377600</pproTicksOut>
						<file id="file-20">
							<name>ID Tag_1_BinauralVerb.wav</name>
							<pathurl>file://localhost/D%3a/Audio%20R&amp;D/ID%20Tag_1_BinauralVerb.wav</pathurl>
							<rate>
								<timebase>30</timebase>
								<ntsc>TRUE</ntsc>
							</rate>
							<duration>307</duration>
							<timecode>
								<rate>
									<timebase>30</timebase>
									<ntsc>TRUE</ntsc>
								</rate>
								<string>00;09;28;23</string>
								<frame>17045</frame>
								<displayformat>DF</displayformat>
							</timecode>
							<media>
								<audio>
									<samplecharacteristics>
										<depth>16</depth>
										<samplerate>48000</samplerate>
									</samplecharacteristics>
									<channelcount>2</channelcount>
								</audio>
							</media>
						</file>
						<sourcetrack>
							<mediatype>audio</mediatype>
							<trackindex>1</trackindex>
						</sourcetrack>
						<link>
							<linkclipref>clipitem-34</linkclipref>
							<mediatype>audio</mediatype>
							<trackindex>2</trackindex>
							<clipindex>2</clipindex>
							<groupindex>1</groupindex>
						</link>
						<link>
							<linkclipref>clipitem-52</linkclipref>
							<mediatype>audio</mediatype>
							<trackindex>3</trackindex>
							<clipindex>2</clipindex>
							<groupindex>1</groupindex>
						</link>
						<logginginfo>
							<description></description>
							<scene></scene>
							<shottake></shottake>
							<lognote></lognote>
							<good></good>
							<originalvideofilename></originalvideofilename>
							<originalaudiofilename></originalaudiofilename>
						</logginginfo>
						<colorinfo>
							<lut></lut>
							<lut1></lut1>
							<asc_sop></asc_sop>
							<asc_sat></asc_sat>
							<lut2></lut2>
						</colorinfo>
						<labels>
							<label2>Caribbean</label2>
						</labels>
					</clipitem>
					<transitionitem>
						<start>69</start>
						<end>71</end>
						<alignment>center</alignment>
						<cutPointTicks>8475667200</cutPointTicks>
						<rate>
							<timebase>30</timebase>
							<ntsc>TRUE</ntsc>
						</rate>
						<effect>
							<name>Cross Fade (+3dB)</name>
							<effectid>KGAudioTransCrossFade3dB</effectid>
							<effecttype>transition</effecttype>
							<mediatype>audio</mediatype>
							<wipecode>0</wipecode>
							<wipeaccuracy>100</wipeaccuracy>
							<startratio>0</startratio>
							<endratio>1</endratio>
							<reverse>FALSE</reverse>
						</effect>
					</transitionitem>
					<clipitem id="clipitem-35" premiereChannelType="stereo">
						<masterclipid>masterclip-20</masterclipid>
						<name>ID Tag_1_BinauralVerb.wav</name>
						<enabled>TRUE</enabled>
						<duration>307</duration>
						<rate>
							<timebase>30</timebase>
							<ntsc>TRUE</ntsc>
						</rate>
						<start>-1</start>
						<end>-1</end>
						<in>152</in>
						<out>307</out>
						<pproTicksIn>1288301414400</pproTicksIn>
						<pproTicksOut>2602029830400</pproTicksOut>
						<file id="file-20"/>
						<sourcetrack>
							<mediatype>audio</mediatype>
							<trackindex>1</trackindex>
						</sourcetrack>
						<link>
							<linkclipref>clipitem-35</linkclipref>
							<mediatype>audio</mediatype>
							<trackindex>2</trackindex>
							<clipindex>4</clipindex>
							<groupindex>1</groupindex>
						</link>
						<link>
							<linkclipref>clipitem-53</linkclipref>
							<mediatype>audio</mediatype>
							<trackindex>3</trackindex>
							<clipindex>4</clipindex>
							<groupindex>1</groupindex>
						</link>
						<logginginfo>
							<description></description>
							<scene></scene>
							<shottake></shottake>
							<lognote></lognote>
							<good></good>
							<originalvideofilename></originalvideofilename>
							<originalaudiofilename></originalaudiofilename>
						</logginginfo>
						<colorinfo>
							<lut></lut>
							<lut1></lut1>
							<asc_sop></asc_sop>
							<asc_sat></asc_sat>
							<lut2></lut2>
						</colorinfo>
						<labels>
							<label2>Caribbean</label2>
						</labels>
					</clipitem>
					<transitionitem>
						<start>179</start>
						<end>224</end>
						<alignment>end-black</alignment>
						<cutPointTicks>381405024000</cutPointTicks>
						<rate>
							<timebase>30</timebase>
							<ntsc>TRUE</ntsc>
						</rate>
						<effect>
							<name>Cross Fade (+3dB)</name>
							<effectid>KGAudioTransCrossFade3dB</effectid>
							<effecttype>transition</effecttype>
							<mediatype>audio</mediatype>
							<wipecode>0</wipecode>
							<wipeaccuracy>100</wipeaccuracy>
							<startratio>0</startratio>
							<endratio>1</endratio>
							<reverse>FALSE</reverse>
						</effect>
					</transitionitem>
					<transitionitem>
						<start>6814</start>
						<end>6816</end>
						<alignment>start-black</alignment>
						<cutPointTicks>0</cutPointTicks>
						<rate>
							<timebase>30</timebase>
							<ntsc>TRUE</ntsc>
						</rate>
						<effect>
							<name>Cross Fade (+3dB)</name>
							<effectid>KGAudioTransCrossFade3dB</effectid>
							<effecttype>transition</effecttype>
							<mediatype>audio</mediatype>
							<wipecode>0</wipecode>
							<wipeaccuracy>100</wipeaccuracy>
							<startratio>0</startratio>
							<endratio>1</endratio>
							<reverse>FALSE</reverse>
						</effect>
					</transitionitem>
					<clipitem id="clipitem-36" premiereChannelType="stereo">
						<masterclipid>masterclip-21</masterclipid>
						<name>ZOOM0001.WAV</name>
						<enabled>TRUE</enabled>
						<duration>65051</duration>
						<rate>
							<timebase>30</timebase>
							<ntsc>TRUE</ntsc>
						</rate>
						<start>-1</start>
						<end>-1</end>
						<in>44194</in>
						<out>46259</out>
						<pproTicksIn>374573636236800</pproTicksIn>
						<pproTicksOut>392075889004800</pproTicksOut>
						<file id="file-21">
							<name>ZOOM0001.WAV</name>
							<pathurl>file://Gladiator/hd/Departments/_Post/__Projects/033_Chimps_CMP/3.Audio/Raw/20180313/H1_01_01_morning/STEREO/FOLDER01/ZOOM0001.WAV</pathurl>
							<rate>
								<timebase>30</timebase>
								<ntsc>TRUE</ntsc>
							</rate>
							<duration>65051</duration>
							<timecode>
								<rate>
									<timebase>30</timebase>
									<ntsc>TRUE</ntsc>
								</rate>
								<string>20;01;41;01</string>
								<frame>2160869</frame>
								<displayformat>DF</displayformat>
							</timecode>
							<media>
								<audio>
									<samplecharacteristics>
										<depth>16</depth>
										<samplerate>48000</samplerate>
									</samplecharacteristics>
									<channelcount>2</channelcount>
								</audio>
							</media>
						</file>
						<sourcetrack>
							<mediatype>audio</mediatype>
							<trackindex>1</trackindex>
						</sourcetrack>
						<link>
							<linkclipref>clipitem-36</linkclipref>
							<mediatype>audio</mediatype>
							<trackindex>2</trackindex>
							<clipindex>7</clipindex>
							<groupindex>1</groupindex>
						</link>
						<link>
							<linkclipref>clipitem-54</linkclipref>
							<mediatype>audio</mediatype>
							<trackindex>3</trackindex>
							<clipindex>7</clipindex>
							<groupindex>1</groupindex>
						</link>
						<logginginfo>
							<description></description>
							<scene></scene>
							<shottake></shottake>
							<lognote></lognote>
							<good></good>
							<originalvideofilename></originalvideofilename>
							<originalaudiofilename></originalaudiofilename>
						</logginginfo>
						<colorinfo>
							<lut></lut>
							<lut1></lut1>
							<asc_sop></asc_sop>
							<asc_sat></asc_sat>
							<lut2></lut2>
						</colorinfo>
						<labels>
							<label2>Mango</label2>
						</labels>
					</clipitem>
					<transitionitem>
						<start>8877</start>
						<end>8879</end>
						<alignment>end-black</alignment>
						<cutPointTicks>16951334400</cutPointTicks>
						<rate>
							<timebase>30</timebase>
							<ntsc>TRUE</ntsc>
						</rate>
						<effect>
							<name>Cross Fade (+3dB)</name>
							<effectid>KGAudioTransCrossFade3dB</effectid>
							<effecttype>transition</effecttype>
							<mediatype>audio</mediatype>
							<wipecode>0</wipecode>
							<wipeaccuracy>100</wipeaccuracy>
							<startratio>0</startratio>
							<endratio>1</endratio>
							<reverse>FALSE</reverse>
						</effect>
					</transitionitem>
					<transitionitem>
						<start>8904</start>
						<end>8906</end>
						<alignment>start-black</alignment>
						<cutPointTicks>0</cutPointTicks>
						<rate>
							<timebase>30</timebase>
							<ntsc>TRUE</ntsc>
						</rate>
						<effect>
							<name>Cross Fade (+3dB)</name>
							<effectid>KGAudioTransCrossFade3dB</effectid>
							<effecttype>transition</effecttype>
							<mediatype>audio</mediatype>
							<wipecode>0</wipecode>
							<wipeaccuracy>100</wipeaccuracy>
							<startratio>0</startratio>
							<endratio>1</endratio>
							<reverse>FALSE</reverse>
						</effect>
					</transitionitem>
					<clipitem id="clipitem-37" premiereChannelType="stereo">
						<masterclipid>masterclip-22</masterclipid>
						<name>C01_0010482.MP4</name>
						<enabled>TRUE</enabled>
						<duration>13440</duration>
						<rate>
							<timebase>30</timebase>
							<ntsc>TRUE</ntsc>
						</rate>
						<start>-1</start>
						<end>-1</end>
						<in>1159</in>
						<out>1193</out>
						<pproTicksIn>9823298284800</pproTicksIn>
						<pproTicksOut>10111470969600</pproTicksOut>
						<pixelaspectratio>square</pixelaspectratio>
						<anamorphic>FALSE</anamorphic>
						<file id="file-22">
							<name>C01_0010482.MP4</name>
							<pathurl>file://Gladiator/hd/Departments/_Post/__Projects/033_Chimps_CMP/1.Raw/Ingest/20180313/js2_01_morning/CAM_01/C01_0010482.MP4</pathurl>
							<rate>
								<timebase>30</timebase>
								<ntsc>TRUE</ntsc>
							</rate>
							<duration>13440</duration>
							<timecode>
								<rate>
									<timebase>30</timebase>
									<ntsc>TRUE</ntsc>
								</rate>
								<string>09:24:03:16</string>
								<frame>1015306</frame>
								<displayformat>NDF</displayformat>
							</timecode>
							<media>
								<video>
									<samplecharacteristics>
										<rate>
											<timebase>30</timebase>
											<ntsc>TRUE</ntsc>
										</rate>
										<width>2704</width>
										<height>2032</height>
										<anamorphic>FALSE</anamorphic>
										<pixelaspectratio>square</pixelaspectratio>
										<fielddominance>none</fielddominance>
									</samplecharacteristics>
								</video>
								<audio>
									<samplecharacteristics>
										<depth>16</depth>
										<samplerate>48000</samplerate>
									</samplecharacteristics>
									<channelcount>2</channelcount>
								</audio>
							</media>
						</file>
						<sourcetrack>
							<mediatype>audio</mediatype>
							<trackindex>1</trackindex>
						</sourcetrack>
						<link>
							<linkclipref>clipitem-37</linkclipref>
							<mediatype>audio</mediatype>
							<trackindex>2</trackindex>
							<clipindex>10</clipindex>
							<groupindex>1</groupindex>
						</link>
						<link>
							<linkclipref>clipitem-55</linkclipref>
							<mediatype>audio</mediatype>
							<trackindex>3</trackindex>
							<clipindex>10</clipindex>
							<groupindex>1</groupindex>
						</link>
						<logginginfo>
							<description></description>
							<scene></scene>
							<shottake></shottake>
							<lognote></lognote>
							<good></good>
							<originalvideofilename></originalvideofilename>
							<originalaudiofilename></originalaudiofilename>
						</logginginfo>
						<colorinfo>
							<lut></lut>
							<lut1></lut1>
							<asc_sop></asc_sop>
							<asc_sat></asc_sat>
							<lut2></lut2>
						</colorinfo>
						<labels>
							<label2>Forest</label2>
						</labels>
					</clipitem>
					<transitionitem>
						<start>8936</start>
						<end>8938</end>
						<alignment>center</alignment>
						<cutPointTicks>8475667200</cutPointTicks>
						<rate>
							<timebase>30</timebase>
							<ntsc>TRUE</ntsc>
						</rate>
						<effect>
							<name>Cross Fade (+3dB)</name>
							<effectid>KGAudioTransCrossFade3dB</effectid>
							<effecttype>transition</effecttype>
							<mediatype>audio</mediatype>
							<wipecode>0</wipecode>
							<wipeaccuracy>100</wipeaccuracy>
							<startratio>0</startratio>
							<endratio>1</endratio>
							<reverse>FALSE</reverse>
						</effect>
					</transitionitem>
					<clipitem id="clipitem-38" premiereChannelType="stereo">
						<masterclipid>masterclip-22</masterclipid>
						<name>C01_0010482.MP4</name>
						<enabled>TRUE</enabled>
						<duration>13440</duration>
						<rate>
							<timebase>30</timebase>
							<ntsc>TRUE</ntsc>
						</rate>
						<start>-1</start>
						<end>-1</end>
						<in>1158</in>
						<out>1199</out>
						<pproTicksIn>9814822617600</pproTicksIn>
						<pproTicksOut>10162324972800</pproTicksOut>
						<file id="file-22"/>
						<sourcetrack>
							<mediatype>audio</mediatype>
							<trackindex>1</trackindex>
						</sourcetrack>
						<link>
							<linkclipref>clipitem-38</linkclipref>
							<mediatype>audio</mediatype>
							<trackindex>2</trackindex>
							<clipindex>12</clipindex>
							<groupindex>1</groupindex>
						</link>
						<link>
							<linkclipref>clipitem-56</linkclipref>
							<mediatype>audio</mediatype>
							<trackindex>3</trackindex>
							<clipindex>12</clipindex>
							<groupindex>1</groupindex>
						</link>
						<logginginfo>
							<description></description>
							<scene></scene>
							<shottake></shottake>
							<lognote></lognote>
							<good></good>
							<originalvideofilename></originalvideofilename>
							<originalaudiofilename></originalaudiofilename>
						</logginginfo>
						<colorinfo>
							<lut></lut>
							<lut1></lut1>
							<asc_sop></asc_sop>
							<asc_sat></asc_sat>
							<lut2></lut2>
						</colorinfo>
						<labels>
							<label2>Forest</label2>
						</labels>
					</clipitem>
					<transitionitem>
						<start>8975</start>
						<end>8977</end>
						<alignment>center</alignment>
						<cutPointTicks>8475667200</cutPointTicks>
						<rate>
							<timebase>30</timebase>
							<ntsc>TRUE</ntsc>
						</rate>
						<effect>
							<name>Cross Fade (+3dB)</name>
							<effectid>KGAudioTransCrossFade3dB</effectid>
							<effecttype>transition</effecttype>
							<mediatype>audio</mediatype>
							<wipecode>0</wipecode>
							<wipeaccuracy>100</wipeaccuracy>
							<startratio>0</startratio>
							<endratio>1</endratio>
							<reverse>FALSE</reverse>
						</effect>
					</transitionitem>
					<clipitem id="clipitem-39" premiereChannelType="stereo">
						<masterclipid>masterclip-22</masterclipid>
						<name>C01_0010482.MP4</name>
						<enabled>TRUE</enabled>
						<duration>13440</duration>
						<rate>
							<timebase>30</timebase>
							<ntsc>TRUE</ntsc>
						</rate>
						<start>-1</start>
						<end>-1</end>
						<in>1173</in>
						<out>1186</out>
						<pproTicksIn>9941957625600</pproTicksIn>
						<pproTicksOut>10052141299200</pproTicksOut>
						<file id="file-22"/>
						<sourcetrack>
							<mediatype>audio</mediatype>
							<trackindex>1</trackindex>
						</sourcetrack>
						<link>
							<linkclipref>clipitem-39</linkclipref>
							<mediatype>audio</mediatype>
							<trackindex>2</trackindex>
							<clipindex>14</clipindex>
							<groupindex>1</groupindex>
						</link>
						<link>
							<linkclipref>clipitem-57</linkclipref>
							<mediatype>audio</mediatype>
							<trackindex>3</trackindex>
							<clipindex>14</clipindex>
							<groupindex>1</groupindex>
						</link>
						<logginginfo>
							<description></description>
							<scene></scene>
							<shottake></shottake>
							<lognote></lognote>
							<good></good>
							<originalvideofilename></originalvideofilename>
							<originalaudiofilename></originalaudiofilename>
						</logginginfo>
						<colorinfo>
							<lut></lut>
							<lut1></lut1>
							<asc_sop></asc_sop>
							<asc_sat></asc_sat>
							<lut2></lut2>
						</colorinfo>
						<labels>
							<label2>Forest</label2>
						</labels>
					</clipitem>
					<transitionitem>
						<start>8986</start>
						<end>8988</end>
						<alignment>center</alignment>
						<cutPointTicks>8475667200</cutPointTicks>
						<rate>
							<timebase>30</timebase>
							<ntsc>TRUE</ntsc>
						</rate>
						<effect>
							<name>Cross Fade (+3dB)</name>
							<effectid>KGAudioTransCrossFade3dB</effectid>
							<effecttype>transition</effecttype>
							<mediatype>audio</mediatype>
							<wipecode>0</wipecode>
							<wipeaccuracy>100</wipeaccuracy>
							<startratio>0</startratio>
							<endratio>1</endratio>
							<reverse>FALSE</reverse>
						</effect>
					</transitionitem>
					<clipitem id="clipitem-40" premiereChannelType="stereo">
						<masterclipid>masterclip-22</masterclipid>
						<name>C01_0010482.MP4</name>
						<enabled>TRUE</enabled>
						<duration>13440</duration>
						<rate>
							<timebase>30</timebase>
							<ntsc>TRUE</ntsc>
						</rate>
						<start>-1</start>
						<end>-1</end>
						<in>1173</in>
						<out>1196</out>
						<pproTicksIn>9941957625600</pproTicksIn>
						<pproTicksOut>10136897971200</pproTicksOut>
						<file id="file-22"/>
						<sourcetrack>
							<mediatype>audio</mediatype>
							<trackindex>1</trackindex>
						</sourcetrack>
						<link>
							<linkclipref>clipitem-40</linkclipref>
							<mediatype>audio</mediatype>
							<trackindex>2</trackindex>
							<clipindex>16</clipindex>
							<groupindex>1</groupindex>
						</link>
						<link>
							<linkclipref>clipitem-58</linkclipref>
							<mediatype>audio</mediatype>
							<trackindex>3</trackindex>
							<clipindex>16</clipindex>
							<groupindex>1</groupindex>
						</link>
						<logginginfo>
							<description></description>
							<scene></scene>
							<shottake></shottake>
							<lognote></lognote>
							<good></good>
							<originalvideofilename></originalvideofilename>
							<originalaudiofilename></originalaudiofilename>
						</logginginfo>
						<colorinfo>
							<lut></lut>
							<lut1></lut1>
							<asc_sop></asc_sop>
							<asc_sat></asc_sat>
							<lut2></lut2>
						</colorinfo>
						<labels>
							<label2>Forest</label2>
						</labels>
					</clipitem>
					<transitionitem>
						<start>9007</start>
						<end>9009</end>
						<alignment>center</alignment>
						<cutPointTicks>8475667200</cutPointTicks>
						<rate>
							<timebase>30</timebase>
							<ntsc>TRUE</ntsc>
						</rate>
						<effect>
							<name>Cross Fade (+3dB)</name>
							<effectid>KGAudioTransCrossFade3dB</effectid>
							<effecttype>transition</effecttype>
							<mediatype>audio</mediatype>
							<wipecode>0</wipecode>
							<wipeaccuracy>100</wipeaccuracy>
							<startratio>0</startratio>
							<endratio>1</endratio>
							<reverse>FALSE</reverse>
						</effect>
					</transitionitem>
					<clipitem id="clipitem-41" premiereChannelType="stereo">
						<masterclipid>masterclip-22</masterclipid>
						<name>C01_0010482.MP4</name>
						<enabled>TRUE</enabled>
						<duration>13440</duration>
						<rate>
							<timebase>30</timebase>
							<ntsc>TRUE</ntsc>
						</rate>
						<start>-1</start>
						<end>-1</end>
						<in>1374</in>
						<out>1430</out>
						<pproTicksIn>11645566732800</pproTicksIn>
						<pproTicksOut>12120204096000</pproTicksOut>
						<file id="file-22"/>
						<sourcetrack>
							<mediatype>audio</mediatype>
							<trackindex>1</trackindex>
						</sourcetrack>
						<link>
							<linkclipref>clipitem-41</linkclipref>
							<mediatype>audio</mediatype>
							<trackindex>2</trackindex>
							<clipindex>18</clipindex>
							<groupindex>1</groupindex>
						</link>
						<link>
							<linkclipref>clipitem-59</linkclipref>
							<mediatype>audio</mediatype>
							<trackindex>3</trackindex>
							<clipindex>18</clipindex>
							<groupindex>1</groupindex>
						</link>
						<logginginfo>
							<description></description>
							<scene></scene>
							<shottake></shottake>
							<lognote></lognote>
							<good></good>
							<originalvideofilename></originalvideofilename>
							<originalaudiofilename></originalaudiofilename>
						</logginginfo>
						<colorinfo>
							<lut></lut>
							<lut1></lut1>
							<asc_sop></asc_sop>
							<asc_sat></asc_sat>
							<lut2></lut2>
						</colorinfo>
						<labels>
							<label2>Forest</label2>
						</labels>
					</clipitem>
					<transitionitem>
						<start>9061</start>
						<end>9063</end>
						<alignment>center</alignment>
						<cutPointTicks>8475667200</cutPointTicks>
						<rate>
							<timebase>30</timebase>
							<ntsc>TRUE</ntsc>
						</rate>
						<effect>
							<name>Cross Fade (+3dB)</name>
							<effectid>KGAudioTransCrossFade3dB</effectid>
							<effecttype>transition</effecttype>
							<mediatype>audio</mediatype>
							<wipecode>0</wipecode>
							<wipeaccuracy>100</wipeaccuracy>
							<startratio>0</startratio>
							<endratio>1</endratio>
							<reverse>FALSE</reverse>
						</effect>
					</transitionitem>
					<clipitem id="clipitem-42" premiereChannelType="stereo">
						<masterclipid>masterclip-22</masterclipid>
						<name>C01_0010482.MP4</name>
						<enabled>TRUE</enabled>
						<duration>13440</duration>
						<rate>
							<timebase>30</timebase>
							<ntsc>TRUE</ntsc>
						</rate>
						<start>-1</start>
						<end>-1</end>
						<in>1372</in>
						<out>1436</out>
						<pproTicksIn>11628615398400</pproTicksIn>
						<pproTicksOut>12171058099200</pproTicksOut>
						<file id="file-22"/>
						<sourcetrack>
							<mediatype>audio</mediatype>
							<trackindex>1</trackindex>
						</sourcetrack>
						<link>
							<linkclipref>clipitem-42</linkclipref>
							<mediatype>audio</mediatype>
							<trackindex>2</trackindex>
							<clipindex>20</clipindex>
							<groupindex>1</groupindex>
						</link>
						<link>
							<linkclipref>clipitem-60</linkclipref>
							<mediatype>audio</mediatype>
							<trackindex>3</trackindex>
							<clipindex>20</clipindex>
							<groupindex>1</groupindex>
						</link>
						<logginginfo>
							<description></description>
							<scene></scene>
							<shottake></shottake>
							<lognote></lognote>
							<good></good>
							<originalvideofilename></originalvideofilename>
							<originalaudiofilename></originalaudiofilename>
						</logginginfo>
						<colorinfo>
							<lut></lut>
							<lut1></lut1>
							<asc_sop></asc_sop>
							<asc_sat></asc_sat>
							<lut2></lut2>
						</colorinfo>
						<labels>
							<label2>Forest</label2>
						</labels>
					</clipitem>
					<transitionitem>
						<start>9123</start>
						<end>9125</end>
						<alignment>center</alignment>
						<cutPointTicks>8475667200</cutPointTicks>
						<rate>
							<timebase>30</timebase>
							<ntsc>TRUE</ntsc>
						</rate>
						<effect>
							<name>Cross Fade (+3dB)</name>
							<effectid>KGAudioTransCrossFade3dB</effectid>
							<effecttype>transition</effecttype>
							<mediatype>audio</mediatype>
							<wipecode>0</wipecode>
							<wipeaccuracy>100</wipeaccuracy>
							<startratio>0</startratio>
							<endratio>1</endratio>
							<reverse>FALSE</reverse>
						</effect>
					</transitionitem>
					<clipitem id="clipitem-43" premiereChannelType="stereo">
						<masterclipid>masterclip-22</masterclipid>
						<name>C01_0010482.MP4</name>
						<enabled>TRUE</enabled>
						<duration>13440</duration>
						<rate>
							<timebase>30</timebase>
							<ntsc>TRUE</ntsc>
						</rate>
						<start>-1</start>
						<end>-1</end>
						<in>1171</in>
						<out>1200</out>
						<pproTicksIn>9925006291200</pproTicksIn>
						<pproTicksOut>10170800640000</pproTicksOut>
						<file id="file-22"/>
						<sourcetrack>
							<mediatype>audio</mediatype>
							<trackindex>1</trackindex>
						</sourcetrack>
						<link>
							<linkclipref>clipitem-43</linkclipref>
							<mediatype>audio</mediatype>
							<trackindex>2</trackindex>
							<clipindex>22</clipindex>
							<groupindex>1</groupindex>
						</link>
						<link>
							<linkclipref>clipitem-61</linkclipref>
							<mediatype>audio</mediatype>
							<trackindex>3</trackindex>
							<clipindex>22</clipindex>
							<groupindex>1</groupindex>
						</link>
						<logginginfo>
							<description></description>
							<scene></scene>
							<shottake></shottake>
							<lognote></lognote>
							<good></good>
							<originalvideofilename></originalvideofilename>
							<originalaudiofilename></originalaudiofilename>
						</logginginfo>
						<colorinfo>
							<lut></lut>
							<lut1></lut1>
							<asc_sop></asc_sop>
							<asc_sat></asc_sat>
							<lut2></lut2>
						</colorinfo>
						<labels>
							<label2>Forest</label2>
						</labels>
					</clipitem>
					<transitionitem>
						<start>9150</start>
						<end>9152</end>
						<alignment>center</alignment>
						<cutPointTicks>8475667200</cutPointTicks>
						<rate>
							<timebase>30</timebase>
							<ntsc>TRUE</ntsc>
						</rate>
						<effect>
							<name>Cross Fade (+3dB)</name>
							<effectid>KGAudioTransCrossFade3dB</effectid>
							<effecttype>transition</effecttype>
							<mediatype>audio</mediatype>
							<wipecode>0</wipecode>
							<wipeaccuracy>100</wipeaccuracy>
							<startratio>0</startratio>
							<endratio>1</endratio>
							<reverse>FALSE</reverse>
						</effect>
					</transitionitem>
					<clipitem id="clipitem-44" premiereChannelType="stereo">
						<masterclipid>masterclip-22</masterclipid>
						<name>C01_0010482.MP4</name>
						<enabled>TRUE</enabled>
						<duration>13440</duration>
						<rate>
							<timebase>30</timebase>
							<ntsc>TRUE</ntsc>
						</rate>
						<start>-1</start>
						<end>-1</end>
						<in>1171</in>
						<out>1192</out>
						<pproTicksIn>9925006291200</pproTicksIn>
						<pproTicksOut>10102995302400</pproTicksOut>
						<file id="file-22"/>
						<sourcetrack>
							<mediatype>audio</mediatype>
							<trackindex>1</trackindex>
						</sourcetrack>
						<link>
							<linkclipref>clipitem-44</linkclipref>
							<mediatype>audio</mediatype>
							<trackindex>2</trackindex>
							<clipindex>24</clipindex>
							<groupindex>1</groupindex>
						</link>
						<link>
							<linkclipref>clipitem-62</linkclipref>
							<mediatype>audio</mediatype>
							<trackindex>3</trackindex>
							<clipindex>24</clipindex>
							<groupindex>1</groupindex>
						</link>
						<logginginfo>
							<description></description>
							<scene></scene>
							<shottake></shottake>
							<lognote></lognote>
							<good></good>
							<originalvideofilename></originalvideofilename>
							<originalaudiofilename></originalaudiofilename>
						</logginginfo>
						<colorinfo>
							<lut></lut>
							<lut1></lut1>
							<asc_sop></asc_sop>
							<asc_sat></asc_sat>
							<lut2></lut2>
						</colorinfo>
						<labels>
							<label2>Forest</label2>
						</labels>
					</clipitem>
					<transitionitem>
						<start>9169</start>
						<end>9171</end>
						<alignment>center</alignment>
						<cutPointTicks>8475667200</cutPointTicks>
						<rate>
							<timebase>30</timebase>
							<ntsc>TRUE</ntsc>
						</rate>
						<effect>
							<name>Cross Fade (+3dB)</name>
							<effectid>KGAudioTransCrossFade3dB</effectid>
							<effecttype>transition</effecttype>
							<mediatype>audio</mediatype>
							<wipecode>0</wipecode>
							<wipeaccuracy>100</wipeaccuracy>
							<startratio>0</startratio>
							<endratio>1</endratio>
							<reverse>FALSE</reverse>
						</effect>
					</transitionitem>
					<clipitem id="clipitem-45" premiereChannelType="stereo">
						<masterclipid>masterclip-22</masterclipid>
						<name>C01_0010482.MP4</name>
						<enabled>TRUE</enabled>
						<duration>13440</duration>
						<rate>
							<timebase>30</timebase>
							<ntsc>TRUE</ntsc>
						</rate>
						<start>-1</start>
						<end>-1</end>
						<in>1171</in>
						<out>1202</out>
						<pproTicksIn>9925006291200</pproTicksIn>
						<pproTicksOut>10187751974400</pproTicksOut>
						<file id="file-22"/>
						<sourcetrack>
							<mediatype>audio</mediatype>
							<trackindex>1</trackindex>
						</sourcetrack>
						<link>
							<linkclipref>clipitem-45</linkclipref>
							<mediatype>audio</mediatype>
							<trackindex>2</trackindex>
							<clipindex>26</clipindex>
							<groupindex>1</groupindex>
						</link>
						<link>
							<linkclipref>clipitem-63</linkclipref>
							<mediatype>audio</mediatype>
							<trackindex>3</trackindex>
							<clipindex>26</clipindex>
							<groupindex>1</groupindex>
						</link>
						<logginginfo>
							<description></description>
							<scene></scene>
							<shottake></shottake>
							<lognote></lognote>
							<good></good>
							<originalvideofilename></originalvideofilename>
							<originalaudiofilename></originalaudiofilename>
						</logginginfo>
						<colorinfo>
							<lut></lut>
							<lut1></lut1>
							<asc_sop></asc_sop>
							<asc_sat></asc_sat>
							<lut2></lut2>
						</colorinfo>
						<labels>
							<label2>Forest</label2>
						</labels>
					</clipitem>
					<transitionitem>
						<start>9198</start>
						<end>9200</end>
						<alignment>center</alignment>
						<cutPointTicks>8475667200</cutPointTicks>
						<rate>
							<timebase>30</timebase>
							<ntsc>TRUE</ntsc>
						</rate>
						<effect>
							<name>Cross Fade (+3dB)</name>
							<effectid>KGAudioTransCrossFade3dB</effectid>
							<effecttype>transition</effecttype>
							<mediatype>audio</mediatype>
							<wipecode>0</wipecode>
							<wipeaccuracy>100</wipeaccuracy>
							<startratio>0</startratio>
							<endratio>1</endratio>
							<reverse>FALSE</reverse>
						</effect>
					</transitionitem>
					<clipitem id="clipitem-46" premiereChannelType="stereo">
						<masterclipid>masterclip-22</masterclipid>
						<name>C01_0010482.MP4</name>
						<enabled>TRUE</enabled>
						<duration>13440</duration>
						<rate>
							<timebase>30</timebase>
							<ntsc>TRUE</ntsc>
						</rate>
						<start>-1</start>
						<end>-1</end>
						<in>1387</in>
						<out>1455</out>
						<pproTicksIn>11755750406400</pproTicksIn>
						<pproTicksOut>12332095776000</pproTicksOut>
						<file id="file-22"/>
						<sourcetrack>
							<mediatype>audio</mediatype>
							<trackindex>1</trackindex>
						</sourcetrack>
						<link>
							<linkclipref>clipitem-46</linkclipref>
							<mediatype>audio</mediatype>
							<trackindex>2</trackindex>
							<clipindex>28</clipindex>
							<groupindex>1</groupindex>
						</link>
						<link>
							<linkclipref>clipitem-64</linkclipref>
							<mediatype>audio</mediatype>
							<trackindex>3</trackindex>
							<clipindex>28</clipindex>
							<groupindex>1</groupindex>
						</link>
						<logginginfo>
							<description></description>
							<scene></scene>
							<shottake></shottake>
							<lognote></lognote>
							<good></good>
							<originalvideofilename></originalvideofilename>
							<originalaudiofilename></originalaudiofilename>
						</logginginfo>
						<colorinfo>
							<lut></lut>
							<lut1></lut1>
							<asc_sop></asc_sop>
							<asc_sat></asc_sat>
							<lut2></lut2>
						</colorinfo>
						<labels>
							<label2>Forest</label2>
						</labels>
					</clipitem>
					<transitionitem>
						<start>9249</start>
						<end>9266</end>
						<alignment>end-black</alignment>
						<cutPointTicks>144086342400</cutPointTicks>
						<rate>
							<timebase>30</timebase>
							<ntsc>TRUE</ntsc>
						</rate>
						<effect>
							<name>Cross Fade (+3dB)</name>
							<effectid>KGAudioTransCrossFade3dB</effectid>
							<effecttype>transition</effecttype>
							<mediatype>audio</mediatype>
							<wipecode>0</wipecode>
							<wipeaccuracy>100</wipeaccuracy>
							<startratio>0</startratio>
							<endratio>1</endratio>
							<reverse>FALSE</reverse>
						</effect>
					</transitionitem>
					<clipitem id="clipitem-47" premiereChannelType="stereo">
						<masterclipid>masterclip-22</masterclipid>
						<name>C01_0010482.MP4</name>
						<enabled>TRUE</enabled>
						<duration>13440</duration>
						<rate>
							<timebase>30</timebase>
							<ntsc>TRUE</ntsc>
						</rate>
						<start>9562</start>
						<end>11251</end>
						<in>1469</in>
						<out>3158</out>
						<pproTicksIn>12450755116800</pproTicksIn>
						<pproTicksOut>26766157017600</pproTicksOut>
						<file id="file-22"/>
						<sourcetrack>
							<mediatype>audio</mediatype>
							<trackindex>1</trackindex>
						</sourcetrack>
						<link>
							<linkclipref>clipitem-47</linkclipref>
							<mediatype>audio</mediatype>
							<trackindex>2</trackindex>
							<clipindex>30</clipindex>
							<groupindex>1</groupindex>
						</link>
						<link>
							<linkclipref>clipitem-65</linkclipref>
							<mediatype>audio</mediatype>
							<trackindex>3</trackindex>
							<clipindex>30</clipindex>
							<groupindex>1</groupindex>
						</link>
						<logginginfo>
							<description></description>
							<scene></scene>
							<shottake></shottake>
							<lognote></lognote>
							<good></good>
							<originalvideofilename></originalvideofilename>
							<originalaudiofilename></originalaudiofilename>
						</logginginfo>
						<colorinfo>
							<lut></lut>
							<lut1></lut1>
							<asc_sop></asc_sop>
							<asc_sat></asc_sat>
							<lut2></lut2>
						</colorinfo>
						<labels>
							<label2>Forest</label2>
						</labels>
					</clipitem>
					<clipitem id="clipitem-48" premiereChannelType="stereo">
						<masterclipid>masterclip-23</masterclipid>
						<name>C01_0010485.MP4</name>
						<enabled>TRUE</enabled>
						<duration>13440</duration>
						<rate>
							<timebase>30</timebase>
							<ntsc>TRUE</ntsc>
						</rate>
						<start>12477</start>
						<end>17454</end>
						<in>1179</in>
						<out>6156</out>
						<pproTicksIn>9992811628800</pproTicksIn>
						<pproTicksOut>52176207283200</pproTicksOut>
						<pixelaspectratio>square</pixelaspectratio>
						<anamorphic>FALSE</anamorphic>
						<file id="file-23">
							<name>C01_0010485.MP4</name>
							<pathurl>file://Gladiator/hd/Departments/_Post/__Projects/033_Chimps_CMP/1.Raw/Ingest/20180313/js2_01_morning/CAM_01/C01_0010485.MP4</pathurl>
							<rate>
								<timebase>30</timebase>
								<ntsc>TRUE</ntsc>
							</rate>
							<duration>13440</duration>
							<timecode>
								<rate>
									<timebase>30</timebase>
									<ntsc>TRUE</ntsc>
								</rate>
								<string>09:46:27:16</string>
								<frame>1055626</frame>
								<displayformat>NDF</displayformat>
							</timecode>
							<media>
								<video>
									<samplecharacteristics>
										<rate>
											<timebase>30</timebase>
											<ntsc>TRUE</ntsc>
										</rate>
										<width>2704</width>
										<height>2032</height>
										<anamorphic>FALSE</anamorphic>
										<pixelaspectratio>square</pixelaspectratio>
										<fielddominance>none</fielddominance>
									</samplecharacteristics>
								</video>
								<audio>
									<samplecharacteristics>
										<depth>16</depth>
										<samplerate>48000</samplerate>
									</samplecharacteristics>
									<channelcount>2</channelcount>
								</audio>
							</media>
						</file>
						<sourcetrack>
							<mediatype>audio</mediatype>
							<trackindex>1</trackindex>
						</sourcetrack>
						<link>
							<linkclipref>clipitem-48</linkclipref>
							<mediatype>audio</mediatype>
							<trackindex>2</trackindex>
							<clipindex>31</clipindex>
							<groupindex>1</groupindex>
						</link>
						<link>
							<linkclipref>clipitem-66</linkclipref>
							<mediatype>audio</mediatype>
							<trackindex>3</trackindex>
							<clipindex>31</clipindex>
							<groupindex>1</groupindex>
						</link>
						<logginginfo>
							<description></description>
							<scene></scene>
							<shottake></shottake>
							<lognote></lognote>
							<good></good>
							<originalvideofilename></originalvideofilename>
							<originalaudiofilename></originalaudiofilename>
						</logginginfo>
						<colorinfo>
							<lut></lut>
							<lut1></lut1>
							<asc_sop></asc_sop>
							<asc_sat></asc_sat>
							<lut2></lut2>
						</colorinfo>
						<labels>
							<label2>Forest</label2>
						</labels>
					</clipitem>
					<transitionitem>
						<start>17809</start>
						<end>17811</end>
						<alignment>start-black</alignment>
						<cutPointTicks>0</cutPointTicks>
						<rate>
							<timebase>30</timebase>
							<ntsc>TRUE</ntsc>
						</rate>
						<effect>
							<name>Cross Fade (+3dB)</name>
							<effectid>KGAudioTransCrossFade3dB</effectid>
							<effecttype>transition</effecttype>
							<mediatype>audio</mediatype>
							<wipecode>0</wipecode>
							<wipeaccuracy>100</wipeaccuracy>
							<startratio>0</startratio>
							<endratio>1</endratio>
							<reverse>FALSE</reverse>
						</effect>
					</transitionitem>
					<clipitem id="clipitem-49" premiereChannelType="stereo">
						<masterclipid>masterclip-24</masterclipid>
						<name>C01_0010483.MP4</name>
						<enabled>TRUE</enabled>
						<duration>13440</duration>
						<rate>
							<timebase>30</timebase>
							<ntsc>TRUE</ntsc>
						</rate>
						<start>-1</start>
						<end>-1</end>
						<in>3708</in>
						<out>4815</out>
						<pproTicksIn>31427773977600</pproTicksIn>
						<pproTicksOut>40810337568000</pproTicksOut>
						<pixelaspectratio>square</pixelaspectratio>
						<anamorphic>FALSE</anamorphic>
						<file id="file-24">
							<name>C01_0010483.MP4</name>
							<pathurl>file://Gladiator/hd/Departments/_Post/__Projects/033_Chimps_CMP/1.Raw/Ingest/20180313/js2_01_morning/CAM_01/C01_0010483.MP4</pathurl>
							<rate>
								<timebase>30</timebase>
								<ntsc>TRUE</ntsc>
							</rate>
							<duration>13440</duration>
							<timecode>
								<rate>
									<timebase>30</timebase>
									<ntsc>TRUE</ntsc>
								</rate>
								<string>09:31:31:16</string>
								<frame>1028746</frame>
								<displayformat>NDF</displayformat>
							</timecode>
							<media>
								<video>
									<samplecharacteristics>
										<rate>
											<timebase>30</timebase>
											<ntsc>TRUE</ntsc>
										</rate>
										<width>2704</width>
										<height>2032</height>
										<anamorphic>FALSE</anamorphic>
										<pixelaspectratio>square</pixelaspectratio>
										<fielddominance>none</fielddominance>
									</samplecharacteristics>
								</video>
								<audio>
									<samplecharacteristics>
										<depth>16</depth>
										<samplerate>48000</samplerate>
									</samplecharacteristics>
									<channelcount>2</channelcount>
								</audio>
							</media>
						</file>
						<sourcetrack>
							<mediatype>audio</mediatype>
							<trackindex>1</trackindex>
						</sourcetrack>
						<link>
							<linkclipref>clipitem-49</linkclipref>
							<mediatype>audio</mediatype>
							<trackindex>2</trackindex>
							<clipindex>33</clipindex>
							<groupindex>1</groupindex>
						</link>
						<link>
							<linkclipref>clipitem-67</linkclipref>
							<mediatype>audio</mediatype>
							<trackindex>3</trackindex>
							<clipindex>33</clipindex>
							<groupindex>1</groupindex>
						</link>
						<logginginfo>
							<description></description>
							<scene></scene>
							<shottake></shottake>
							<lognote></lognote>
							<good></good>
							<originalvideofilename></originalvideofilename>
							<originalaudiofilename></originalaudiofilename>
						</logginginfo>
						<colorinfo>
							<lut></lut>
							<lut1></lut1>
							<asc_sop></asc_sop>
							<asc_sat></asc_sat>
							<lut2></lut2>
						</colorinfo>
						<labels>
							<label2>Forest</label2>
						</labels>
					</clipitem>
					<transitionitem>
						<start>18914</start>
						<end>18916</end>
						<alignment>center</alignment>
						<cutPointTicks>8475667200</cutPointTicks>
						<rate>
							<timebase>30</timebase>
							<ntsc>TRUE</ntsc>
						</rate>
						<effect>
							<name>Cross Fade (+3dB)</name>
							<effectid>KGAudioTransCrossFade3dB</effectid>
							<effecttype>transition</effecttype>
							<mediatype>audio</mediatype>
							<wipecode>0</wipecode>
							<wipeaccuracy>100</wipeaccuracy>
							<startratio>0</startratio>
							<endratio>1</endratio>
							<reverse>FALSE</reverse>
						</effect>
					</transitionitem>
					<clipitem id="clipitem-50" premiereChannelType="stereo">
						<masterclipid>masterclip-24</masterclipid>
						<name>C01_0010483.MP4</name>
						<enabled>TRUE</enabled>
						<duration>13440</duration>
						<rate>
							<timebase>30</timebase>
							<ntsc>TRUE</ntsc>
						</rate>
						<start>-1</start>
						<end>-1</end>
						<in>4624</in>
						<out>4671</out>
						<pproTicksIn>39191485132800</pproTicksIn>
						<pproTicksOut>39589841491200</pproTicksOut>
						<file id="file-24"/>
						<sourcetrack>
							<mediatype>audio</mediatype>
							<trackindex>1</trackindex>
						</sourcetrack>
						<link>
							<linkclipref>clipitem-50</linkclipref>
							<mediatype>audio</mediatype>
							<trackindex>2</trackindex>
							<clipindex>35</clipindex>
							<groupindex>1</groupindex>
						</link>
						<link>
							<linkclipref>clipitem-68</linkclipref>
							<mediatype>audio</mediatype>
							<trackindex>3</trackindex>
							<clipindex>35</clipindex>
							<groupindex>1</groupindex>
						</link>
						<logginginfo>
							<description></description>
							<scene></scene>
							<shottake></shottake>
							<lognote></lognote>
							<good></good>
							<originalvideofilename></originalvideofilename>
							<originalaudiofilename></originalaudiofilename>
						</logginginfo>
						<colorinfo>
							<lut></lut>
							<lut1></lut1>
							<asc_sop></asc_sop>
							<asc_sat></asc_sat>
							<lut2></lut2>
						</colorinfo>
						<labels>
							<label2>Forest</label2>
						</labels>
					</clipitem>
					<transitionitem>
						<start>18959</start>
						<end>18961</end>
						<alignment>center</alignment>
						<cutPointTicks>8475667200</cutPointTicks>
						<rate>
							<timebase>30</timebase>
							<ntsc>TRUE</ntsc>
						</rate>
						<effect>
							<name>Cross Fade (+3dB)</name>
							<effectid>KGAudioTransCrossFade3dB</effectid>
							<effecttype>transition</effecttype>
							<mediatype>audio</mediatype>
							<wipecode>0</wipecode>
							<wipeaccuracy>100</wipeaccuracy>
							<startratio>0</startratio>
							<endratio>1</endratio>
							<reverse>FALSE</reverse>
						</effect>
					</transitionitem>
					<clipitem id="clipitem-51" premiereChannelType="stereo">
						<masterclipid>masterclip-24</masterclipid>
						<name>C01_0010483.MP4</name>
						<enabled>TRUE</enabled>
						<duration>13440</duration>
						<rate>
							<timebase>30</timebase>
							<ntsc>TRUE</ntsc>
						</rate>
						<start>-1</start>
						<end>-1</end>
						<in>4858</in>
						<out>6079</out>
						<pproTicksIn>41174791257600</pproTicksIn>
						<pproTicksOut>51523580908800</pproTicksOut>
						<file id="file-24"/>
						<sourcetrack>
							<mediatype>audio</mediatype>
							<trackindex>1</trackindex>
						</sourcetrack>
						<link>
							<linkclipref>clipitem-51</linkclipref>
							<mediatype>audio</mediatype>
							<trackindex>2</trackindex>
							<clipindex>37</clipindex>
							<groupindex>1</groupindex>
						</link>
						<link>
							<linkclipref>clipitem-69</linkclipref>
							<mediatype>audio</mediatype>
							<trackindex>3</trackindex>
							<clipindex>37</clipindex>
							<groupindex>1</groupindex>
						</link>
						<logginginfo>
							<description></description>
							<scene></scene>
							<shottake></shottake>
							<lognote></lognote>
							<good></good>
							<originalvideofilename></originalvideofilename>
							<originalaudiofilename></originalaudiofilename>
						</logginginfo>
						<colorinfo>
							<lut></lut>
							<lut1></lut1>
							<asc_sop></asc_sop>
							<asc_sat></asc_sat>
							<lut2></lut2>
						</colorinfo>
						<labels>
							<label2>Forest</label2>
						</labels>
					</clipitem>
					<transitionitem>
						<start>20178</start>
						<end>20180</end>
						<alignment>end-black</alignment>
						<cutPointTicks>16951334400</cutPointTicks>
						<rate>
							<timebase>30</timebase>
							<ntsc>TRUE</ntsc>
						</rate>
						<effect>
							<name>Cross Fade (+3dB)</name>
							<effectid>KGAudioTransCrossFade3dB</effectid>
							<effecttype>transition</effecttype>
							<mediatype>audio</mediatype>
							<wipecode>0</wipecode>
							<wipeaccuracy>100</wipeaccuracy>
							<startratio>0</startratio>
							<endratio>1</endratio>
							<reverse>FALSE</reverse>
						</effect>
					</transitionitem>
					<enabled>TRUE</enabled>
					<locked>FALSE</locked>
					<outputchannelindex>2</outputchannelindex>
				</track>
				<track TL.SQTrackAudioKeyframeStyle="0" TL.SQTrackShy="0" TL.SQTrackExpandedHeight="15" TL.SQTrackExpanded="0" MZ.TrackTargeted="1" PannerCurrentValue="0.5" PannerStartKeyframe="-91445760000000000,0.5,0,0,0,0,0,0" PannerName="Pan" currentExplodedTrackIndex="1" totalExplodedTrackCount="2" premiereTrackType="SixteenChannel">
					<transitionitem>
						<start>9</start>
						<end>11</end>
						<alignment>start-black</alignment>
						<cutPointTicks>0</cutPointTicks>
						<rate>
							<timebase>30</timebase>
							<ntsc>TRUE</ntsc>
						</rate>
						<effect>
							<name>Cross Fade (+3dB)</name>
							<effectid>KGAudioTransCrossFade3dB</effectid>
							<effecttype>transition</effecttype>
							<mediatype>audio</mediatype>
							<wipecode>0</wipecode>
							<wipeaccuracy>100</wipeaccuracy>
							<startratio>0</startratio>
							<endratio>1</endratio>
							<reverse>FALSE</reverse>
						</effect>
					</transitionitem>
					<clipitem id="clipitem-52" premiereChannelType="stereo">
						<masterclipid>masterclip-20</masterclipid>
						<name>ID Tag_1_BinauralVerb.wav</name>
						<enabled>TRUE</enabled>
						<duration>307</duration>
						<rate>
							<timebase>30</timebase>
							<ntsc>TRUE</ntsc>
						</rate>
						<start>-1</start>
						<end>-1</end>
						<in>21</in>
						<out>83</out>
						<pproTicksIn>177989011200</pproTicksIn>
						<pproTicksOut>703480377600</pproTicksOut>
						<file id="file-20"/>
						<sourcetrack>
							<mediatype>audio</mediatype>
							<trackindex>2</trackindex>
						</sourcetrack>
						<link>
							<linkclipref>clipitem-34</linkclipref>
							<mediatype>audio</mediatype>
							<trackindex>2</trackindex>
							<clipindex>2</clipindex>
							<groupindex>1</groupindex>
						</link>
						<link>
							<linkclipref>clipitem-52</linkclipref>
							<mediatype>audio</mediatype>
							<trackindex>3</trackindex>
							<clipindex>2</clipindex>
							<groupindex>1</groupindex>
						</link>
						<logginginfo>
							<description></description>
							<scene></scene>
							<shottake></shottake>
							<lognote></lognote>
							<good></good>
							<originalvideofilename></originalvideofilename>
							<originalaudiofilename></originalaudiofilename>
						</logginginfo>
						<colorinfo>
							<lut></lut>
							<lut1></lut1>
							<asc_sop></asc_sop>
							<asc_sat></asc_sat>
							<lut2></lut2>
						</colorinfo>
						<labels>
							<label2>Caribbean</label2>
						</labels>
					</clipitem>
					<transitionitem>
						<start>69</start>
						<end>71</end>
						<alignment>center</alignment>
						<cutPointTicks>8475667200</cutPointTicks>
						<rate>
							<timebase>30</timebase>
							<ntsc>TRUE</ntsc>
						</rate>
						<effect>
							<name>Cross Fade (+3dB)</name>
							<effectid>KGAudioTransCrossFade3dB</effectid>
							<effecttype>transition</effecttype>
							<mediatype>audio</mediatype>
							<wipecode>0</wipecode>
							<wipeaccuracy>100</wipeaccuracy>
							<startratio>0</startratio>
							<endratio>1</endratio>
							<reverse>FALSE</reverse>
						</effect>
					</transitionitem>
					<clipitem id="clipitem-53" premiereChannelType="stereo">
						<masterclipid>masterclip-20</masterclipid>
						<name>ID Tag_1_BinauralVerb.wav</name>
						<enabled>TRUE</enabled>
						<duration>307</duration>
						<rate>
							<timebase>30</timebase>
							<ntsc>TRUE</ntsc>
						</rate>
						<start>-1</start>
						<end>-1</end>
						<in>152</in>
						<out>307</out>
						<pproTicksIn>1288301414400</pproTicksIn>
						<pproTicksOut>2602029830400</pproTicksOut>
						<file id="file-20"/>
						<sourcetrack>
							<mediatype>audio</mediatype>
							<trackindex>2</trackindex>
						</sourcetrack>
						<link>
							<linkclipref>clipitem-35</linkclipref>
							<mediatype>audio</mediatype>
							<trackindex>2</trackindex>
							<clipindex>4</clipindex>
							<groupindex>1</groupindex>
						</link>
						<link>
							<linkclipref>clipitem-53</linkclipref>
							<mediatype>audio</mediatype>
							<trackindex>3</trackindex>
							<clipindex>4</clipindex>
							<groupindex>1</groupindex>
						</link>
						<logginginfo>
							<description></description>
							<scene></scene>
							<shottake></shottake>
							<lognote></lognote>
							<good></good>
							<originalvideofilename></originalvideofilename>
							<originalaudiofilename></originalaudiofilename>
						</logginginfo>
						<colorinfo>
							<lut></lut>
							<lut1></lut1>
							<asc_sop></asc_sop>
							<asc_sat></asc_sat>
							<lut2></lut2>
						</colorinfo>
						<labels>
							<label2>Caribbean</label2>
						</labels>
					</clipitem>
					<transitionitem>
						<start>179</start>
						<end>224</end>
						<alignment>end-black</alignment>
						<cutPointTicks>381405024000</cutPointTicks>
						<rate>
							<timebase>30</timebase>
							<ntsc>TRUE</ntsc>
						</rate>
						<effect>
							<name>Cross Fade (+3dB)</name>
							<effectid>KGAudioTransCrossFade3dB</effectid>
							<effecttype>transition</effecttype>
							<mediatype>audio</mediatype>
							<wipecode>0</wipecode>
							<wipeaccuracy>100</wipeaccuracy>
							<startratio>0</startratio>
							<endratio>1</endratio>
							<reverse>FALSE</reverse>
						</effect>
					</transitionitem>
					<transitionitem>
						<start>6814</start>
						<end>6816</end>
						<alignment>start-black</alignment>
						<cutPointTicks>0</cutPointTicks>
						<rate>
							<timebase>30</timebase>
							<ntsc>TRUE</ntsc>
						</rate>
						<effect>
							<name>Cross Fade (+3dB)</name>
							<effectid>KGAudioTransCrossFade3dB</effectid>
							<effecttype>transition</effecttype>
							<mediatype>audio</mediatype>
							<wipecode>0</wipecode>
							<wipeaccuracy>100</wipeaccuracy>
							<startratio>0</startratio>
							<endratio>1</endratio>
							<reverse>FALSE</reverse>
						</effect>
					</transitionitem>
					<clipitem id="clipitem-54" premiereChannelType="stereo">
						<masterclipid>masterclip-21</masterclipid>
						<name>ZOOM0001.WAV</name>
						<enabled>TRUE</enabled>
						<duration>65051</duration>
						<rate>
							<timebase>30</timebase>
							<ntsc>TRUE</ntsc>
						</rate>
						<start>-1</start>
						<end>-1</end>
						<in>44194</in>
						<out>46259</out>
						<pproTicksIn>374573636236800</pproTicksIn>
						<pproTicksOut>392075889004800</pproTicksOut>
						<file id="file-21"/>
						<sourcetrack>
							<mediatype>audio</mediatype>
							<trackindex>2</trackindex>
						</sourcetrack>
						<link>
							<linkclipref>clipitem-36</linkclipref>
							<mediatype>audio</mediatype>
							<trackindex>2</trackindex>
							<clipindex>7</clipindex>
							<groupindex>1</groupindex>
						</link>
						<link>
							<linkclipref>clipitem-54</linkclipref>
							<mediatype>audio</mediatype>
							<trackindex>3</trackindex>
							<clipindex>7</clipindex>
							<groupindex>1</groupindex>
						</link>
						<logginginfo>
							<description></description>
							<scene></scene>
							<shottake></shottake>
							<lognote></lognote>
							<good></good>
							<originalvideofilename></originalvideofilename>
							<originalaudiofilename></originalaudiofilename>
						</logginginfo>
						<colorinfo>
							<lut></lut>
							<lut1></lut1>
							<asc_sop></asc_sop>
							<asc_sat></asc_sat>
							<lut2></lut2>
						</colorinfo>
						<labels>
							<label2>Mango</label2>
						</labels>
					</clipitem>
					<transitionitem>
						<start>8877</start>
						<end>8879</end>
						<alignment>end-black</alignment>
						<cutPointTicks>16951334400</cutPointTicks>
						<rate>
							<timebase>30</timebase>
							<ntsc>TRUE</ntsc>
						</rate>
						<effect>
							<name>Cross Fade (+3dB)</name>
							<effectid>KGAudioTransCrossFade3dB</effectid>
							<effecttype>transition</effecttype>
							<mediatype>audio</mediatype>
							<wipecode>0</wipecode>
							<wipeaccuracy>100</wipeaccuracy>
							<startratio>0</startratio>
							<endratio>1</endratio>
							<reverse>FALSE</reverse>
						</effect>
					</transitionitem>
					<transitionitem>
						<start>8904</start>
						<end>8906</end>
						<alignment>start-black</alignment>
						<cutPointTicks>0</cutPointTicks>
						<rate>
							<timebase>30</timebase>
							<ntsc>TRUE</ntsc>
						</rate>
						<effect>
							<name>Cross Fade (+3dB)</name>
							<effectid>KGAudioTransCrossFade3dB</effectid>
							<effecttype>transition</effecttype>
							<mediatype>audio</mediatype>
							<wipecode>0</wipecode>
							<wipeaccuracy>100</wipeaccuracy>
							<startratio>0</startratio>
							<endratio>1</endratio>
							<reverse>FALSE</reverse>
						</effect>
					</transitionitem>
					<clipitem id="clipitem-55" premiereChannelType="stereo">
						<masterclipid>masterclip-22</masterclipid>
						<name>C01_0010482.MP4</name>
						<enabled>TRUE</enabled>
						<duration>13440</duration>
						<rate>
							<timebase>30</timebase>
							<ntsc>TRUE</ntsc>
						</rate>
						<start>-1</start>
						<end>-1</end>
						<in>1159</in>
						<out>1193</out>
						<pproTicksIn>9823298284800</pproTicksIn>
						<pproTicksOut>10111470969600</pproTicksOut>
						<file id="file-22"/>
						<sourcetrack>
							<mediatype>audio</mediatype>
							<trackindex>2</trackindex>
						</sourcetrack>
						<link>
							<linkclipref>clipitem-37</linkclipref>
							<mediatype>audio</mediatype>
							<trackindex>2</trackindex>
							<clipindex>10</clipindex>
							<groupindex>1</groupindex>
						</link>
						<link>
							<linkclipref>clipitem-55</linkclipref>
							<mediatype>audio</mediatype>
							<trackindex>3</trackindex>
							<clipindex>10</clipindex>
							<groupindex>1</groupindex>
						</link>
						<logginginfo>
							<description></description>
							<scene></scene>
							<shottake></shottake>
							<lognote></lognote>
							<good></good>
							<originalvideofilename></originalvideofilename>
							<originalaudiofilename></originalaudiofilename>
						</logginginfo>
						<colorinfo>
							<lut></lut>
							<lut1></lut1>
							<asc_sop></asc_sop>
							<asc_sat></asc_sat>
							<lut2></lut2>
						</colorinfo>
						<labels>
							<label2>Forest</label2>
						</labels>
					</clipitem>
					<transitionitem>
						<start>8936</start>
						<end>8938</end>
						<alignment>center</alignment>
						<cutPointTicks>8475667200</cutPointTicks>
						<rate>
							<timebase>30</timebase>
							<ntsc>TRUE</ntsc>
						</rate>
						<effect>
							<name>Cross Fade (+3dB)</name>
							<effectid>KGAudioTransCrossFade3dB</effectid>
							<effecttype>transition</effecttype>
							<mediatype>audio</mediatype>
							<wipecode>0</wipecode>
							<wipeaccuracy>100</wipeaccuracy>
							<startratio>0</startratio>
							<endratio>1</endratio>
							<reverse>FALSE</reverse>
						</effect>
					</transitionitem>
					<clipitem id="clipitem-56" premiereChannelType="stereo">
						<masterclipid>masterclip-22</masterclipid>
						<name>C01_0010482.MP4</name>
						<enabled>TRUE</enabled>
						<duration>13440</duration>
						<rate>
							<timebase>30</timebase>
							<ntsc>TRUE</ntsc>
						</rate>
						<start>-1</start>
						<end>-1</end>
						<in>1158</in>
						<out>1199</out>
						<pproTicksIn>9814822617600</pproTicksIn>
						<pproTicksOut>10162324972800</pproTicksOut>
						<file id="file-22"/>
						<sourcetrack>
							<mediatype>audio</mediatype>
							<trackindex>2</trackindex>
						</sourcetrack>
						<link>
							<linkclipref>clipitem-38</linkclipref>
							<mediatype>audio</mediatype>
							<trackindex>2</trackindex>
							<clipindex>12</clipindex>
							<groupindex>1</groupindex>
						</link>
						<link>
							<linkclipref>clipitem-56</linkclipref>
							<mediatype>audio</mediatype>
							<trackindex>3</trackindex>
							<clipindex>12</clipindex>
							<groupindex>1</groupindex>
						</link>
						<logginginfo>
							<description></description>
							<scene></scene>
							<shottake></shottake>
							<lognote></lognote>
							<good></good>
							<originalvideofilename></originalvideofilename>
							<originalaudiofilename></originalaudiofilename>
						</logginginfo>
						<colorinfo>
							<lut></lut>
							<lut1></lut1>
							<asc_sop></asc_sop>
							<asc_sat></asc_sat>
							<lut2></lut2>
						</colorinfo>
						<labels>
							<label2>Forest</label2>
						</labels>
					</clipitem>
					<transitionitem>
						<start>8975</start>
						<end>8977</end>
						<alignment>center</alignment>
						<cutPointTicks>8475667200</cutPointTicks>
						<rate>
							<timebase>30</timebase>
							<ntsc>TRUE</ntsc>
						</rate>
						<effect>
							<name>Cross Fade (+3dB)</name>
							<effectid>KGAudioTransCrossFade3dB</effectid>
							<effecttype>transition</effecttype>
							<mediatype>audio</mediatype>
							<wipecode>0</wipecode>
							<wipeaccuracy>100</wipeaccuracy>
							<startratio>0</startratio>
							<endratio>1</endratio>
							<reverse>FALSE</reverse>
						</effect>
					</transitionitem>
					<clipitem id="clipitem-57" premiereChannelType="stereo">
						<masterclipid>masterclip-22</masterclipid>
						<name>C01_0010482.MP4</name>
						<enabled>TRUE</enabled>
						<duration>13440</duration>
						<rate>
							<timebase>30</timebase>
							<ntsc>TRUE</ntsc>
						</rate>
						<start>-1</start>
						<end>-1</end>
						<in>1173</in>
						<out>1186</out>
						<pproTicksIn>9941957625600</pproTicksIn>
						<pproTicksOut>10052141299200</pproTicksOut>
						<file id="file-22"/>
						<sourcetrack>
							<mediatype>audio</mediatype>
							<trackindex>2</trackindex>
						</sourcetrack>
						<link>
							<linkclipref>clipitem-39</linkclipref>
							<mediatype>audio</mediatype>
							<trackindex>2</trackindex>
							<clipindex>14</clipindex>
							<groupindex>1</groupindex>
						</link>
						<link>
							<linkclipref>clipitem-57</linkclipref>
							<mediatype>audio</mediatype>
							<trackindex>3</trackindex>
							<clipindex>14</clipindex>
							<groupindex>1</groupindex>
						</link>
						<logginginfo>
							<description></description>
							<scene></scene>
							<shottake></shottake>
							<lognote></lognote>
							<good></good>
							<originalvideofilename></originalvideofilename>
							<originalaudiofilename></originalaudiofilename>
						</logginginfo>
						<colorinfo>
							<lut></lut>
							<lut1></lut1>
							<asc_sop></asc_sop>
							<asc_sat></asc_sat>
							<lut2></lut2>
						</colorinfo>
						<labels>
							<label2>Forest</label2>
						</labels>
					</clipitem>
					<transitionitem>
						<start>8986</start>
						<end>8988</end>
						<alignment>center</alignment>
						<cutPointTicks>8475667200</cutPointTicks>
						<rate>
							<timebase>30</timebase>
							<ntsc>TRUE</ntsc>
						</rate>
						<effect>
							<name>Cross Fade (+3dB)</name>
							<effectid>KGAudioTransCrossFade3dB</effectid>
							<effecttype>transition</effecttype>
							<mediatype>audio</mediatype>
							<wipecode>0</wipecode>
							<wipeaccuracy>100</wipeaccuracy>
							<startratio>0</startratio>
							<endratio>1</endratio>
							<reverse>FALSE</reverse>
						</effect>
					</transitionitem>
					<clipitem id="clipitem-58" premiereChannelType="stereo">
						<masterclipid>masterclip-22</masterclipid>
						<name>C01_0010482.MP4</name>
						<enabled>TRUE</enabled>
						<duration>13440</duration>
						<rate>
							<timebase>30</timebase>
							<ntsc>TRUE</ntsc>
						</rate>
						<start>-1</start>
						<end>-1</end>
						<in>1173</in>
						<out>1196</out>
						<pproTicksIn>9941957625600</pproTicksIn>
						<pproTicksOut>10136897971200</pproTicksOut>
						<file id="file-22"/>
						<sourcetrack>
							<mediatype>audio</mediatype>
							<trackindex>2</trackindex>
						</sourcetrack>
						<link>
							<linkclipref>clipitem-40</linkclipref>
							<mediatype>audio</mediatype>
							<trackindex>2</trackindex>
							<clipindex>16</clipindex>
							<groupindex>1</groupindex>
						</link>
						<link>
							<linkclipref>clipitem-58</linkclipref>
							<mediatype>audio</mediatype>
							<trackindex>3</trackindex>
							<clipindex>16</clipindex>
							<groupindex>1</groupindex>
						</link>
						<logginginfo>
							<description></description>
							<scene></scene>
							<shottake></shottake>
							<lognote></lognote>
							<good></good>
							<originalvideofilename></originalvideofilename>
							<originalaudiofilename></originalaudiofilename>
						</logginginfo>
						<colorinfo>
							<lut></lut>
							<lut1></lut1>
							<asc_sop></asc_sop>
							<asc_sat></asc_sat>
							<lut2></lut2>
						</colorinfo>
						<labels>
							<label2>Forest</label2>
						</labels>
					</clipitem>
					<transitionitem>
						<start>9007</start>
						<end>9009</end>
						<alignment>center</alignment>
						<cutPointTicks>8475667200</cutPointTicks>
						<rate>
							<timebase>30</timebase>
							<ntsc>TRUE</ntsc>
						</rate>
						<effect>
							<name>Cross Fade (+3dB)</name>
							<effectid>KGAudioTransCrossFade3dB</effectid>
							<effecttype>transition</effecttype>
							<mediatype>audio</mediatype>
							<wipecode>0</wipecode>
							<wipeaccuracy>100</wipeaccuracy>
							<startratio>0</startratio>
							<endratio>1</endratio>
							<reverse>FALSE</reverse>
						</effect>
					</transitionitem>
					<clipitem id="clipitem-59" premiereChannelType="stereo">
						<masterclipid>masterclip-22</masterclipid>
						<name>C01_0010482.MP4</name>
						<enabled>TRUE</enabled>
						<duration>13440</duration>
						<rate>
							<timebase>30</timebase>
							<ntsc>TRUE</ntsc>
						</rate>
						<start>-1</start>
						<end>-1</end>
						<in>1374</in>
						<out>1430</out>
						<pproTicksIn>11645566732800</pproTicksIn>
						<pproTicksOut>12120204096000</pproTicksOut>
						<file id="file-22"/>
						<sourcetrack>
							<mediatype>audio</mediatype>
							<trackindex>2</trackindex>
						</sourcetrack>
						<link>
							<linkclipref>clipitem-41</linkclipref>
							<mediatype>audio</mediatype>
							<trackindex>2</trackindex>
							<clipindex>18</clipindex>
							<groupindex>1</groupindex>
						</link>
						<link>
							<linkclipref>clipitem-59</linkclipref>
							<mediatype>audio</mediatype>
							<trackindex>3</trackindex>
							<clipindex>18</clipindex>
							<groupindex>1</groupindex>
						</link>
						<logginginfo>
							<description></description>
							<scene></scene>
							<shottake></shottake>
							<lognote></lognote>
							<good></good>
							<originalvideofilename></originalvideofilename>
							<originalaudiofilename></originalaudiofilename>
						</logginginfo>
						<colorinfo>
							<lut></lut>
							<lut1></lut1>
							<asc_sop></asc_sop>
							<asc_sat></asc_sat>
							<lut2></lut2>
						</colorinfo>
						<labels>
							<label2>Forest</label2>
						</labels>
					</clipitem>
					<transitionitem>
						<start>9061</start>
						<end>9063</end>
						<alignment>center</alignment>
						<cutPointTicks>8475667200</cutPointTicks>
						<rate>
							<timebase>30</timebase>
							<ntsc>TRUE</ntsc>
						</rate>
						<effect>
							<name>Cross Fade (+3dB)</name>
							<effectid>KGAudioTransCrossFade3dB</effectid>
							<effecttype>transition</effecttype>
							<mediatype>audio</mediatype>
							<wipecode>0</wipecode>
							<wipeaccuracy>100</wipeaccuracy>
							<startratio>0</startratio>
							<endratio>1</endratio>
							<reverse>FALSE</reverse>
						</effect>
					</transitionitem>
					<clipitem id="clipitem-60" premiereChannelType="stereo">
						<masterclipid>masterclip-22</masterclipid>
						<name>C01_0010482.MP4</name>
						<enabled>TRUE</enabled>
						<duration>13440</duration>
						<rate>
							<timebase>30</timebase>
							<ntsc>TRUE</ntsc>
						</rate>
						<start>-1</start>
						<end>-1</end>
						<in>1372</in>
						<out>1436</out>
						<pproTicksIn>11628615398400</pproTicksIn>
						<pproTicksOut>12171058099200</pproTicksOut>
						<file id="file-22"/>
						<sourcetrack>
							<mediatype>audio</mediatype>
							<trackindex>2</trackindex>
						</sourcetrack>
						<link>
							<linkclipref>clipitem-42</linkclipref>
							<mediatype>audio</mediatype>
							<trackindex>2</trackindex>
							<clipindex>20</clipindex>
							<groupindex>1</groupindex>
						</link>
						<link>
							<linkclipref>clipitem-60</linkclipref>
							<mediatype>audio</mediatype>
							<trackindex>3</trackindex>
							<clipindex>20</clipindex>
							<groupindex>1</groupindex>
						</link>
						<logginginfo>
							<description></description>
							<scene></scene>
							<shottake></shottake>
							<lognote></lognote>
							<good></good>
							<originalvideofilename></originalvideofilename>
							<originalaudiofilename></originalaudiofilename>
						</logginginfo>
						<colorinfo>
							<lut></lut>
							<lut1></lut1>
							<asc_sop></asc_sop>
							<asc_sat></asc_sat>
							<lut2></lut2>
						</colorinfo>
						<labels>
							<label2>Forest</label2>
						</labels>
					</clipitem>
					<transitionitem>
						<start>9123</start>
						<end>9125</end>
						<alignment>center</alignment>
						<cutPointTicks>8475667200</cutPointTicks>
						<rate>
							<timebase>30</timebase>
							<ntsc>TRUE</ntsc>
						</rate>
						<effect>
							<name>Cross Fade (+3dB)</name>
							<effectid>KGAudioTransCrossFade3dB</effectid>
							<effecttype>transition</effecttype>
							<mediatype>audio</mediatype>
							<wipecode>0</wipecode>
							<wipeaccuracy>100</wipeaccuracy>
							<startratio>0</startratio>
							<endratio>1</endratio>
							<reverse>FALSE</reverse>
						</effect>
					</transitionitem>
					<clipitem id="clipitem-61" premiereChannelType="stereo">
						<masterclipid>masterclip-22</masterclipid>
						<name>C01_0010482.MP4</name>
						<enabled>TRUE</enabled>
						<duration>13440</duration>
						<rate>
							<timebase>30</timebase>
							<ntsc>TRUE</ntsc>
						</rate>
						<start>-1</start>
						<end>-1</end>
						<in>1171</in>
						<out>1200</out>
						<pproTicksIn>9925006291200</pproTicksIn>
						<pproTicksOut>10170800640000</pproTicksOut>
						<file id="file-22"/>
						<sourcetrack>
							<mediatype>audio</mediatype>
							<trackindex>2</trackindex>
						</sourcetrack>
						<link>
							<linkclipref>clipitem-43</linkclipref>
							<mediatype>audio</mediatype>
							<trackindex>2</trackindex>
							<clipindex>22</clipindex>
							<groupindex>1</groupindex>
						</link>
						<link>
							<linkclipref>clipitem-61</linkclipref>
							<mediatype>audio</mediatype>
							<trackindex>3</trackindex>
							<clipindex>22</clipindex>
							<groupindex>1</groupindex>
						</link>
						<logginginfo>
							<description></description>
							<scene></scene>
							<shottake></shottake>
							<lognote></lognote>
							<good></good>
							<originalvideofilename></originalvideofilename>
							<originalaudiofilename></originalaudiofilename>
						</logginginfo>
						<colorinfo>
							<lut></lut>
							<lut1></lut1>
							<asc_sop></asc_sop>
							<asc_sat></asc_sat>
							<lut2></lut2>
						</colorinfo>
						<labels>
							<label2>Forest</label2>
						</labels>
					</clipitem>
					<transitionitem>
						<start>9150</start>
						<end>9152</end>
						<alignment>center</alignment>
						<cutPointTicks>8475667200</cutPointTicks>
						<rate>
							<timebase>30</timebase>
							<ntsc>TRUE</ntsc>
						</rate>
						<effect>
							<name>Cross Fade (+3dB)</name>
							<effectid>KGAudioTransCrossFade3dB</effectid>
							<effecttype>transition</effecttype>
							<mediatype>audio</mediatype>
							<wipecode>0</wipecode>
							<wipeaccuracy>100</wipeaccuracy>
							<startratio>0</startratio>
							<endratio>1</endratio>
							<reverse>FALSE</reverse>
						</effect>
					</transitionitem>
					<clipitem id="clipitem-62" premiereChannelType="stereo">
						<masterclipid>masterclip-22</masterclipid>
						<name>C01_0010482.MP4</name>
						<enabled>TRUE</enabled>
						<duration>13440</duration>
						<rate>
							<timebase>30</timebase>
							<ntsc>TRUE</ntsc>
						</rate>
						<start>-1</start>
						<end>-1</end>
						<in>1171</in>
						<out>1192</out>
						<pproTicksIn>9925006291200</pproTicksIn>
						<pproTicksOut>10102995302400</pproTicksOut>
						<file id="file-22"/>
						<sourcetrack>
							<mediatype>audio</mediatype>
							<trackindex>2</trackindex>
						</sourcetrack>
						<link>
							<linkclipref>clipitem-44</linkclipref>
							<mediatype>audio</mediatype>
							<trackindex>2</trackindex>
							<clipindex>24</clipindex>
							<groupindex>1</groupindex>
						</link>
						<link>
							<linkclipref>clipitem-62</linkclipref>
							<mediatype>audio</mediatype>
							<trackindex>3</trackindex>
							<clipindex>24</clipindex>
							<groupindex>1</groupindex>
						</link>
						<logginginfo>
							<description></description>
							<scene></scene>
							<shottake></shottake>
							<lognote></lognote>
							<good></good>
							<originalvideofilename></originalvideofilename>
							<originalaudiofilename></originalaudiofilename>
						</logginginfo>
						<colorinfo>
							<lut></lut>
							<lut1></lut1>
							<asc_sop></asc_sop>
							<asc_sat></asc_sat>
							<lut2></lut2>
						</colorinfo>
						<labels>
							<label2>Forest</label2>
						</labels>
					</clipitem>
					<transitionitem>
						<start>9169</start>
						<end>9171</end>
						<alignment>center</alignment>
						<cutPointTicks>8475667200</cutPointTicks>
						<rate>
							<timebase>30</timebase>
							<ntsc>TRUE</ntsc>
						</rate>
						<effect>
							<name>Cross Fade (+3dB)</name>
							<effectid>KGAudioTransCrossFade3dB</effectid>
							<effecttype>transition</effecttype>
							<mediatype>audio</mediatype>
							<wipecode>0</wipecode>
							<wipeaccuracy>100</wipeaccuracy>
							<startratio>0</startratio>
							<endratio>1</endratio>
							<reverse>FALSE</reverse>
						</effect>
					</transitionitem>
					<clipitem id="clipitem-63" premiereChannelType="stereo">
						<masterclipid>masterclip-22</masterclipid>
						<name>C01_0010482.MP4</name>
						<enabled>TRUE</enabled>
						<duration>13440</duration>
						<rate>
							<timebase>30</timebase>
							<ntsc>TRUE</ntsc>
						</rate>
						<start>-1</start>
						<end>-1</end>
						<in>1171</in>
						<out>1202</out>
						<pproTicksIn>9925006291200</pproTicksIn>
						<pproTicksOut>10187751974400</pproTicksOut>
						<file id="file-22"/>
						<sourcetrack>
							<mediatype>audio</mediatype>
							<trackindex>2</trackindex>
						</sourcetrack>
						<link>
							<linkclipref>clipitem-45</linkclipref>
							<mediatype>audio</mediatype>
							<trackindex>2</trackindex>
							<clipindex>26</clipindex>
							<groupindex>1</groupindex>
						</link>
						<link>
							<linkclipref>clipitem-63</linkclipref>
							<mediatype>audio</mediatype>
							<trackindex>3</trackindex>
							<clipindex>26</clipindex>
							<groupindex>1</groupindex>
						</link>
						<logginginfo>
							<description></description>
							<scene></scene>
							<shottake></shottake>
							<lognote></lognote>
							<good></good>
							<originalvideofilename></originalvideofilename>
							<originalaudiofilename></originalaudiofilename>
						</logginginfo>
						<colorinfo>
							<lut></lut>
							<lut1></lut1>
							<asc_sop></asc_sop>
							<asc_sat></asc_sat>
							<lut2></lut2>
						</colorinfo>
						<labels>
							<label2>Forest</label2>
						</labels>
					</clipitem>
					<transitionitem>
						<start>9198</start>
						<end>9200</end>
						<alignment>center</alignment>
						<cutPointTicks>8475667200</cutPointTicks>
						<rate>
							<timebase>30</timebase>
							<ntsc>TRUE</ntsc>
						</rate>
						<effect>
							<name>Cross Fade (+3dB)</name>
							<effectid>KGAudioTransCrossFade3dB</effectid>
							<effecttype>transition</effecttype>
							<mediatype>audio</mediatype>
							<wipecode>0</wipecode>
							<wipeaccuracy>100</wipeaccuracy>
							<startratio>0</startratio>
							<endratio>1</endratio>
							<reverse>FALSE</reverse>
						</effect>
					</transitionitem>
					<clipitem id="clipitem-64" premiereChannelType="stereo">
						<masterclipid>masterclip-22</masterclipid>
						<name>C01_0010482.MP4</name>
						<enabled>TRUE</enabled>
						<duration>13440</duration>
						<rate>
							<timebase>30</timebase>
							<ntsc>TRUE</ntsc>
						</rate>
						<start>-1</start>
						<end>-1</end>
						<in>1387</in>
						<out>1455</out>
						<pproTicksIn>11755750406400</pproTicksIn>
						<pproTicksOut>12332095776000</pproTicksOut>
						<file id="file-22"/>
						<sourcetrack>
							<mediatype>audio</mediatype>
							<trackindex>2</trackindex>
						</sourcetrack>
						<link>
							<linkclipref>clipitem-46</linkclipref>
							<mediatype>audio</mediatype>
							<trackindex>2</trackindex>
							<clipindex>28</clipindex>
							<groupindex>1</groupindex>
						</link>
						<link>
							<linkclipref>clipitem-64</linkclipref>
							<mediatype>audio</mediatype>
							<trackindex>3</trackindex>
							<clipindex>28</clipindex>
							<groupindex>1</groupindex>
						</link>
						<logginginfo>
							<description></description>
							<scene></scene>
							<shottake></shottake>
							<lognote></lognote>
							<good></good>
							<originalvideofilename></originalvideofilename>
							<originalaudiofilename></originalaudiofilename>
						</logginginfo>
						<colorinfo>
							<lut></lut>
							<lut1></lut1>
							<asc_sop></asc_sop>
							<asc_sat></asc_sat>
							<lut2></lut2>
						</colorinfo>
						<labels>
							<label2>Forest</label2>
						</labels>
					</clipitem>
					<transitionitem>
						<start>9249</start>
						<end>9266</end>
						<alignment>end-black</alignment>
						<cutPointTicks>144086342400</cutPointTicks>
						<rate>
							<timebase>30</timebase>
							<ntsc>TRUE</ntsc>
						</rate>
						<effect>
							<name>Cross Fade (+3dB)</name>
							<effectid>KGAudioTransCrossFade3dB</effectid>
							<effecttype>transition</effecttype>
							<mediatype>audio</mediatype>
							<wipecode>0</wipecode>
							<wipeaccuracy>100</wipeaccuracy>
							<startratio>0</startratio>
							<endratio>1</endratio>
							<reverse>FALSE</reverse>
						</effect>
					</transitionitem>
					<clipitem id="clipitem-65" premiereChannelType="stereo">
						<masterclipid>masterclip-22</masterclipid>
						<name>C01_0010482.MP4</name>
						<enabled>TRUE</enabled>
						<duration>13440</duration>
						<rate>
							<timebase>30</timebase>
							<ntsc>TRUE</ntsc>
						</rate>
						<start>9562</start>
						<end>11251</end>
						<in>1469</in>
						<out>3158</out>
						<pproTicksIn>12450755116800</pproTicksIn>
						<pproTicksOut>26766157017600</pproTicksOut>
						<file id="file-22"/>
						<sourcetrack>
							<mediatype>audio</mediatype>
							<trackindex>2</trackindex>
						</sourcetrack>
						<link>
							<linkclipref>clipitem-47</linkclipref>
							<mediatype>audio</mediatype>
							<trackindex>2</trackindex>
							<clipindex>30</clipindex>
							<groupindex>1</groupindex>
						</link>
						<link>
							<linkclipref>clipitem-65</linkclipref>
							<mediatype>audio</mediatype>
							<trackindex>3</trackindex>
							<clipindex>30</clipindex>
							<groupindex>1</groupindex>
						</link>
						<logginginfo>
							<description></description>
							<scene></scene>
							<shottake></shottake>
							<lognote></lognote>
							<good></good>
							<originalvideofilename></originalvideofilename>
							<originalaudiofilename></originalaudiofilename>
						</logginginfo>
						<colorinfo>
							<lut></lut>
							<lut1></lut1>
							<asc_sop></asc_sop>
							<asc_sat></asc_sat>
							<lut2></lut2>
						</colorinfo>
						<labels>
							<label2>Forest</label2>
						</labels>
					</clipitem>
					<clipitem id="clipitem-66" premiereChannelType="stereo">
						<masterclipid>masterclip-23</masterclipid>
						<name>C01_0010485.MP4</name>
						<enabled>TRUE</enabled>
						<duration>13440</duration>
						<rate>
							<timebase>30</timebase>
							<ntsc>TRUE</ntsc>
						</rate>
						<start>12477</start>
						<end>17454</end>
						<in>1179</in>
						<out>6156</out>
						<pproTicksIn>9992811628800</pproTicksIn>
						<pproTicksOut>52176207283200</pproTicksOut>
						<file id="file-23"/>
						<sourcetrack>
							<mediatype>audio</mediatype>
							<trackindex>2</trackindex>
						</sourcetrack>
						<link>
							<linkclipref>clipitem-48</linkclipref>
							<mediatype>audio</mediatype>
							<trackindex>2</trackindex>
							<clipindex>31</clipindex>
							<groupindex>1</groupindex>
						</link>
						<link>
							<linkclipref>clipitem-66</linkclipref>
							<mediatype>audio</mediatype>
							<trackindex>3</trackindex>
							<clipindex>31</clipindex>
							<groupindex>1</groupindex>
						</link>
						<logginginfo>
							<description></description>
							<scene></scene>
							<shottake></shottake>
							<lognote></lognote>
							<good></good>
							<originalvideofilename></originalvideofilename>
							<originalaudiofilename></originalaudiofilename>
						</logginginfo>
						<colorinfo>
							<lut></lut>
							<lut1></lut1>
							<asc_sop></asc_sop>
							<asc_sat></asc_sat>
							<lut2></lut2>
						</colorinfo>
						<labels>
							<label2>Forest</label2>
						</labels>
					</clipitem>
					<transitionitem>
						<start>17809</start>
						<end>17811</end>
						<alignment>start-black</alignment>
						<cutPointTicks>0</cutPointTicks>
						<rate>
							<timebase>30</timebase>
							<ntsc>TRUE</ntsc>
						</rate>
						<effect>
							<name>Cross Fade (+3dB)</name>
							<effectid>KGAudioTransCrossFade3dB</effectid>
							<effecttype>transition</effecttype>
							<mediatype>audio</mediatype>
							<wipecode>0</wipecode>
							<wipeaccuracy>100</wipeaccuracy>
							<startratio>0</startratio>
							<endratio>1</endratio>
							<reverse>FALSE</reverse>
						</effect>
					</transitionitem>
					<clipitem id="clipitem-67" premiereChannelType="stereo">
						<masterclipid>masterclip-24</masterclipid>
						<name>C01_0010483.MP4</name>
						<enabled>TRUE</enabled>
						<duration>13440</duration>
						<rate>
							<timebase>30</timebase>
							<ntsc>TRUE</ntsc>
						</rate>
						<start>-1</start>
						<end>-1</end>
						<in>3708</in>
						<out>4815</out>
						<pproTicksIn>31427773977600</pproTicksIn>
						<pproTicksOut>40810337568000</pproTicksOut>
						<file id="file-24"/>
						<sourcetrack>
							<mediatype>audio</mediatype>
							<trackindex>2</trackindex>
						</sourcetrack>
						<link>
							<linkclipref>clipitem-49</linkclipref>
							<mediatype>audio</mediatype>
							<trackindex>2</trackindex>
							<clipindex>33</clipindex>
							<groupindex>1</groupindex>
						</link>
						<link>
							<linkclipref>clipitem-67</linkclipref>
							<mediatype>audio</mediatype>
							<trackindex>3</trackindex>
							<clipindex>33</clipindex>
							<groupindex>1</groupindex>
						</link>
						<logginginfo>
							<description></description>
							<scene></scene>
							<shottake></shottake>
							<lognote></lognote>
							<good></good>
							<originalvideofilename></originalvideofilename>
							<originalaudiofilename></originalaudiofilename>
						</logginginfo>
						<colorinfo>
							<lut></lut>
							<lut1></lut1>
							<asc_sop></asc_sop>
							<asc_sat></asc_sat>
							<lut2></lut2>
						</colorinfo>
						<labels>
							<label2>Forest</label2>
						</labels>
					</clipitem>
					<transitionitem>
						<start>18914</start>
						<end>18916</end>
						<alignment>center</alignment>
						<cutPointTicks>8475667200</cutPointTicks>
						<rate>
							<timebase>30</timebase>
							<ntsc>TRUE</ntsc>
						</rate>
						<effect>
							<name>Cross Fade (+3dB)</name>
							<effectid>KGAudioTransCrossFade3dB</effectid>
							<effecttype>transition</effecttype>
							<mediatype>audio</mediatype>
							<wipecode>0</wipecode>
							<wipeaccuracy>100</wipeaccuracy>
							<startratio>0</startratio>
							<endratio>1</endratio>
							<reverse>FALSE</reverse>
						</effect>
					</transitionitem>
					<clipitem id="clipitem-68" premiereChannelType="stereo">
						<masterclipid>masterclip-24</masterclipid>
						<name>C01_0010483.MP4</name>
						<enabled>TRUE</enabled>
						<duration>13440</duration>
						<rate>
							<timebase>30</timebase>
							<ntsc>TRUE</ntsc>
						</rate>
						<start>-1</start>
						<end>-1</end>
						<in>4624</in>
						<out>4671</out>
						<pproTicksIn>39191485132800</pproTicksIn>
						<pproTicksOut>39589841491200</pproTicksOut>
						<file id="file-24"/>
						<sourcetrack>
							<mediatype>audio</mediatype>
							<trackindex>2</trackindex>
						</sourcetrack>
						<link>
							<linkclipref>clipitem-50</linkclipref>
							<mediatype>audio</mediatype>
							<trackindex>2</trackindex>
							<clipindex>35</clipindex>
							<groupindex>1</groupindex>
						</link>
						<link>
							<linkclipref>clipitem-68</linkclipref>
							<mediatype>audio</mediatype>
							<trackindex>3</trackindex>
							<clipindex>35</clipindex>
							<groupindex>1</groupindex>
						</link>
						<logginginfo>
							<description></description>
							<scene></scene>
							<shottake></shottake>
							<lognote></lognote>
							<good></good>
							<originalvideofilename></originalvideofilename>
							<originalaudiofilename></originalaudiofilename>
						</logginginfo>
						<colorinfo>
							<lut></lut>
							<lut1></lut1>
							<asc_sop></asc_sop>
							<asc_sat></asc_sat>
							<lut2></lut2>
						</colorinfo>
						<labels>
							<label2>Forest</label2>
						</labels>
					</clipitem>
					<transitionitem>
						<start>18959</start>
						<end>18961</end>
						<alignment>center</alignment>
						<cutPointTicks>8475667200</cutPointTicks>
						<rate>
							<timebase>30</timebase>
							<ntsc>TRUE</ntsc>
						</rate>
						<effect>
							<name>Cross Fade (+3dB)</name>
							<effectid>KGAudioTransCrossFade3dB</effectid>
							<effecttype>transition</effecttype>
							<mediatype>audio</mediatype>
							<wipecode>0</wipecode>
							<wipeaccuracy>100</wipeaccuracy>
							<startratio>0</startratio>
							<endratio>1</endratio>
							<reverse>FALSE</reverse>
						</effect>
					</transitionitem>
					<clipitem id="clipitem-69" premiereChannelType="stereo">
						<masterclipid>masterclip-24</masterclipid>
						<name>C01_0010483.MP4</name>
						<enabled>TRUE</enabled>
						<duration>13440</duration>
						<rate>
							<timebase>30</timebase>
							<ntsc>TRUE</ntsc>
						</rate>
						<start>-1</start>
						<end>-1</end>
						<in>4858</in>
						<out>6079</out>
						<pproTicksIn>41174791257600</pproTicksIn>
						<pproTicksOut>51523580908800</pproTicksOut>
						<file id="file-24"/>
						<sourcetrack>
							<mediatype>audio</mediatype>
							<trackindex>2</trackindex>
						</sourcetrack>
						<link>
							<linkclipref>clipitem-51</linkclipref>
							<mediatype>audio</mediatype>
							<trackindex>2</trackindex>
							<clipindex>37</clipindex>
							<groupindex>1</groupindex>
						</link>
						<link>
							<linkclipref>clipitem-69</linkclipref>
							<mediatype>audio</mediatype>
							<trackindex>3</trackindex>
							<clipindex>37</clipindex>
							<groupindex>1</groupindex>
						</link>
						<logginginfo>
							<description></description>
							<scene></scene>
							<shottake></shottake>
							<lognote></lognote>
							<good></good>
							<originalvideofilename></originalvideofilename>
							<originalaudiofilename></originalaudiofilename>
						</logginginfo>
						<colorinfo>
							<lut></lut>
							<lut1></lut1>
							<asc_sop></asc_sop>
							<asc_sat></asc_sat>
							<lut2></lut2>
						</colorinfo>
						<labels>
							<label2>Forest</label2>
						</labels>
					</clipitem>
					<transitionitem>
						<start>20178</start>
						<end>20180</end>
						<alignment>end-black</alignment>
						<cutPointTicks>16951334400</cutPointTicks>
						<rate>
							<timebase>30</timebase>
							<ntsc>TRUE</ntsc>
						</rate>
						<effect>
							<name>Cross Fade (+3dB)</name>
							<effectid>KGAudioTransCrossFade3dB</effectid>
							<effecttype>transition</effecttype>
							<mediatype>audio</mediatype>
							<wipecode>0</wipecode>
							<wipeaccuracy>100</wipeaccuracy>
							<startratio>0</startratio>
							<endratio>1</endratio>
							<reverse>FALSE</reverse>
						</effect>
					</transitionitem>
					<enabled>TRUE</enabled>
					<locked>FALSE</locked>
					<outputchannelindex>2</outputchannelindex>
				</track>
				<track TL.SQTrackAudioKeyframeStyle="0" TL.SQTrackShy="0" TL.SQTrackExpandedHeight="15" TL.SQTrackExpanded="0" MZ.TrackTargeted="1" PannerCurrentValue="0" PannerStartKeyframe="-91445760000000000,0.,0,0,0,0,0,0" PannerName="Balance" currentExplodedTrackIndex="0" totalExplodedTrackCount="2" premiereTrackType="Stereo">
					<clipitem id="clipitem-70" premiereChannelType="stereo">
						<masterclipid>masterclip-25</masterclipid>
						<name>ZOOM0001.WAV</name>
						<enabled>TRUE</enabled>
						<duration>140485</duration>
						<rate>
							<timebase>30</timebase>
							<ntsc>TRUE</ntsc>
						</rate>
						<start>5423</start>
						<end>-1</end>
						<in>50099</in>
						<out>51199</out>
						<pproTicksIn>424622451052800</pproTicksIn>
						<pproTicksOut>433945684972800</pproTicksOut>
						<file id="file-25">
							<name>ZOOM0001.WAV</name>
							<pathurl>file://Gladiator/hd/Departments/_Post/__Projects/033_Chimps_CMP/3.Audio/Raw/20180313/H1_02_02_morning/ZOOM0001.WAV</pathurl>
							<rate>
								<timebase>30</timebase>
								<ntsc>TRUE</ntsc>
							</rate>
							<duration>140485</duration>
							<timecode>
								<rate>
									<timebase>30</timebase>
									<ntsc>TRUE</ntsc>
								</rate>
								<string>23;42;58;01</string>
								<frame>2558781</frame>
								<displayformat>DF</displayformat>
							</timecode>
							<media>
								<audio>
									<samplecharacteristics>
										<depth>16</depth>
										<samplerate>48000</samplerate>
									</samplecharacteristics>
									<channelcount>2</channelcount>
								</audio>
							</media>
						</file>
						<sourcetrack>
							<mediatype>audio</mediatype>
							<trackindex>1</trackindex>
						</sourcetrack>
						<link>
							<linkclipref>clipitem-70</linkclipref>
							<mediatype>audio</mediatype>
							<trackindex>4</trackindex>
							<clipindex>1</clipindex>
							<groupindex>1</groupindex>
						</link>
						<link>
							<linkclipref>clipitem-83</linkclipref>
							<mediatype>audio</mediatype>
							<trackindex>5</trackindex>
							<clipindex>1</clipindex>
							<groupindex>1</groupindex>
						</link>
						<logginginfo>
							<description></description>
							<scene></scene>
							<shottake></shottake>
							<lognote></lognote>
							<good></good>
							<originalvideofilename></originalvideofilename>
							<originalaudiofilename></originalaudiofilename>
						</logginginfo>
						<colorinfo>
							<lut></lut>
							<lut1></lut1>
							<asc_sop></asc_sop>
							<asc_sat></asc_sat>
							<lut2></lut2>
						</colorinfo>
						<labels>
							<label2>Mango</label2>
						</labels>
					</clipitem>
					<transitionitem>
						<start>6496</start>
						<end>6523</end>
						<alignment>end-black</alignment>
						<cutPointTicks>228843014400</cutPointTicks>
						<rate>
							<timebase>30</timebase>
							<ntsc>TRUE</ntsc>
						</rate>
						<effect>
							<name>Cross Fade (+3dB)</name>
							<effectid>KGAudioTransCrossFade3dB</effectid>
							<effecttype>transition</effecttype>
							<mediatype>audio</mediatype>
							<wipecode>0</wipecode>
							<wipeaccuracy>100</wipeaccuracy>
							<startratio>0</startratio>
							<endratio>1</endratio>
							<reverse>FALSE</reverse>
						</effect>
					</transitionitem>
					<transitionitem>
						<start>6753</start>
						<end>6777</end>
						<alignment>start-black</alignment>
						<cutPointTicks>0</cutPointTicks>
						<rate>
							<timebase>30</timebase>
							<ntsc>TRUE</ntsc>
						</rate>
						<effect>
							<name>Cross Fade (+3dB)</name>
							<effectid>KGAudioTransCrossFade3dB</effectid>
							<effecttype>transition</effecttype>
							<mediatype>audio</mediatype>
							<wipecode>0</wipecode>
							<wipeaccuracy>100</wipeaccuracy>
							<startratio>0</startratio>
							<endratio>1</endratio>
							<reverse>FALSE</reverse>
						</effect>
					</transitionitem>
					<clipitem id="clipitem-71" premiereChannelType="stereo">
						<masterclipid>masterclip-25</masterclipid>
						<name>ZOOM0001.WAV</name>
						<enabled>TRUE</enabled>
						<duration>140485</duration>
						<rate>
							<timebase>30</timebase>
							<ntsc>TRUE</ntsc>
						</rate>
						<start>-1</start>
						<end>-1</end>
						<in>51429</in>
						<out>52035</out>
						<pproTicksIn>435895088428800</pproTicksIn>
						<pproTicksOut>441031342752000</pproTicksOut>
						<file id="file-25"/>
						<sourcetrack>
							<mediatype>audio</mediatype>
							<trackindex>1</trackindex>
						</sourcetrack>
						<link>
							<linkclipref>clipitem-71</linkclipref>
							<mediatype>audio</mediatype>
							<trackindex>4</trackindex>
							<clipindex>4</clipindex>
							<groupindex>1</groupindex>
						</link>
						<link>
							<linkclipref>clipitem-84</linkclipref>
							<mediatype>audio</mediatype>
							<trackindex>5</trackindex>
							<clipindex>4</clipindex>
							<groupindex>1</groupindex>
						</link>
						<logginginfo>
							<description></description>
							<scene></scene>
							<shottake></shottake>
							<lognote></lognote>
							<good></good>
							<originalvideofilename></originalvideofilename>
							<originalaudiofilename></originalaudiofilename>
						</logginginfo>
						<colorinfo>
							<lut></lut>
							<lut1></lut1>
							<asc_sop></asc_sop>
							<asc_sat></asc_sat>
							<lut2></lut2>
						</colorinfo>
						<labels>
							<label2>Mango</label2>
						</labels>
					</clipitem>
					<transitionitem>
						<start>7357</start>
						<end>7359</end>
						<alignment>end-black</alignment>
						<cutPointTicks>16951334400</cutPointTicks>
						<rate>
							<timebase>30</timebase>
							<ntsc>TRUE</ntsc>
						</rate>
						<effect>
							<name>Cross Fade (+3dB)</name>
							<effectid>KGAudioTransCrossFade3dB</effectid>
							<effecttype>transition</effecttype>
							<mediatype>audio</mediatype>
							<wipecode>0</wipecode>
							<wipeaccuracy>100</wipeaccuracy>
							<startratio>0</startratio>
							<endratio>1</endratio>
							<reverse>FALSE</reverse>
						</effect>
					</transitionitem>
					<transitionitem>
						<start>7656</start>
						<end>7658</end>
						<alignment>start-black</alignment>
						<cutPointTicks>0</cutPointTicks>
						<rate>
							<timebase>30</timebase>
							<ntsc>TRUE</ntsc>
						</rate>
						<effect>
							<name>Cross Fade (+3dB)</name>
							<effectid>KGAudioTransCrossFade3dB</effectid>
							<effecttype>transition</effecttype>
							<mediatype>audio</mediatype>
							<wipecode>0</wipecode>
							<wipeaccuracy>100</wipeaccuracy>
							<startratio>0</startratio>
							<endratio>1</endratio>
							<reverse>FALSE</reverse>
						</effect>
					</transitionitem>
					<clipitem id="clipitem-72" premiereChannelType="stereo">
						<masterclipid>masterclip-25</masterclipid>
						<name>ZOOM0001.WAV</name>
						<enabled>TRUE</enabled>
						<duration>140485</duration>
						<rate>
							<timebase>30</timebase>
							<ntsc>TRUE</ntsc>
						</rate>
						<start>-1</start>
						<end>-1</end>
						<in>52332</in>
						<out>53555</out>
						<pproTicksIn>443548615910400</pproTicksIn>
						<pproTicksOut>453914356896000</pproTicksOut>
						<file id="file-25"/>
						<sourcetrack>
							<mediatype>audio</mediatype>
							<trackindex>1</trackindex>
						</sourcetrack>
						<link>
							<linkclipref>clipitem-72</linkclipref>
							<mediatype>audio</mediatype>
							<trackindex>4</trackindex>
							<clipindex>7</clipindex>
							<groupindex>1</groupindex>
						</link>
						<link>
							<linkclipref>clipitem-85</linkclipref>
							<mediatype>audio</mediatype>
							<trackindex>5</trackindex>
							<clipindex>7</clipindex>
							<groupindex>1</groupindex>
						</link>
						<logginginfo>
							<description></description>
							<scene></scene>
							<shottake></shottake>
							<lognote></lognote>
							<good></good>
							<originalvideofilename></originalvideofilename>
							<originalaudiofilename></originalaudiofilename>
						</logginginfo>
						<colorinfo>
							<lut></lut>
							<lut1></lut1>
							<asc_sop></asc_sop>
							<asc_sat></asc_sat>
							<lut2></lut2>
						</colorinfo>
						<labels>
							<label2>Mango</label2>
						</labels>
					</clipitem>
					<transitionitem>
						<start>8877</start>
						<end>8879</end>
						<alignment>end-black</alignment>
						<cutPointTicks>16951334400</cutPointTicks>
						<rate>
							<timebase>30</timebase>
							<ntsc>TRUE</ntsc>
						</rate>
						<effect>
							<name>Cross Fade (+3dB)</name>
							<effectid>KGAudioTransCrossFade3dB</effectid>
							<effecttype>transition</effecttype>
							<mediatype>audio</mediatype>
							<wipecode>0</wipecode>
							<wipeaccuracy>100</wipeaccuracy>
							<startratio>0</startratio>
							<endratio>1</endratio>
							<reverse>FALSE</reverse>
						</effect>
					</transitionitem>
					<clipitem id="clipitem-73" premiereChannelType="stereo">
						<masterclipid>masterclip-25</masterclipid>
						<name>ZOOM0001.WAV</name>
						<enabled>TRUE</enabled>
						<duration>140485</duration>
						<rate>
							<timebase>30</timebase>
							<ntsc>TRUE</ntsc>
						</rate>
						<start>11140</start>
						<end>-1</end>
						<in>55597</in>
						<out>55795</out>
						<pproTicksIn>471221669318400</pproTicksIn>
						<pproTicksOut>472899851424000</pproTicksOut>
						<file id="file-25"/>
						<sourcetrack>
							<mediatype>audio</mediatype>
							<trackindex>1</trackindex>
						</sourcetrack>
						<filter>
							<effect>
								<name>Audio Levels</name>
								<effectid>audiolevels</effectid>
								<effectcategory>audiolevels</effectcategory>
								<effecttype>audiolevels</effecttype>
								<mediatype>audio</mediatype>
								<pproBypass>false</pproBypass>
								<parameter authoringApp="PremierePro">
									<parameterid>level</parameterid>
									<name>Level</name>
									<valuemin>0</valuemin>
									<valuemax>3.98109</valuemax>
									<value>0</value>
								</parameter>
							</effect>
						</filter>
						<link>
							<linkclipref>clipitem-73</linkclipref>
							<mediatype>audio</mediatype>
							<trackindex>4</trackindex>
							<clipindex>9</clipindex>
							<groupindex>1</groupindex>
						</link>
						<link>
							<linkclipref>clipitem-86</linkclipref>
							<mediatype>audio</mediatype>
							<trackindex>5</trackindex>
							<clipindex>9</clipindex>
							<groupindex>1</groupindex>
						</link>
						<logginginfo>
							<description></description>
							<scene></scene>
							<shottake></shottake>
							<lognote></lognote>
							<good></good>
							<originalvideofilename></originalvideofilename>
							<originalaudiofilename></originalaudiofilename>
						</logginginfo>
						<colorinfo>
							<lut></lut>
							<lut1></lut1>
							<asc_sop></asc_sop>
							<asc_sat></asc_sat>
							<lut2></lut2>
						</colorinfo>
						<labels>
							<label2>Violet</label2>
						</labels>
					</clipitem>
					<transitionitem>
						<start>11336</start>
						<end>11338</end>
						<alignment>center</alignment>
						<cutPointTicks>8475667200</cutPointTicks>
						<rate>
							<timebase>30</timebase>
							<ntsc>TRUE</ntsc>
						</rate>
						<effect>
							<name>Cross Fade (+3dB)</name>
							<effectid>KGAudioTransCrossFade3dB</effectid>
							<effecttype>transition</effecttype>
							<mediatype>audio</mediatype>
							<wipecode>0</wipecode>
							<wipeaccuracy>100</wipeaccuracy>
							<startratio>0</startratio>
							<endratio>1</endratio>
							<reverse>FALSE</reverse>
						</effect>
					</transitionitem>
					<clipitem id="clipitem-74" premiereChannelType="stereo">
						<masterclipid>masterclip-25</masterclipid>
						<name>ZOOM0001.WAV</name>
						<enabled>TRUE</enabled>
						<duration>140485</duration>
						<rate>
							<timebase>30</timebase>
							<ntsc>TRUE</ntsc>
						</rate>
						<start>-1</start>
						<end>-1</end>
						<in>55856</in>
						<out>55908</out>
						<pproTicksIn>473416867123200</pproTicksIn>
						<pproTicksOut>473857601817600</pproTicksOut>
						<file id="file-25"/>
						<sourcetrack>
							<mediatype>audio</mediatype>
							<trackindex>1</trackindex>
						</sourcetrack>
						<filter>
							<effect>
								<name>Audio Levels</name>
								<effectid>audiolevels</effectid>
								<effectcategory>audiolevels</effectcategory>
								<effecttype>audiolevels</effecttype>
								<mediatype>audio</mediatype>
								<pproBypass>false</pproBypass>
								<parameter authoringApp="PremierePro">
									<parameterid>level</parameterid>
									<name>Level</name>
									<valuemin>0</valuemin>
									<valuemax>3.98109</valuemax>
									<value>0</value>
								</parameter>
							</effect>
						</filter>
						<link>
							<linkclipref>clipitem-74</linkclipref>
							<mediatype>audio</mediatype>
							<trackindex>4</trackindex>
							<clipindex>11</clipindex>
							<groupindex>1</groupindex>
						</link>
						<link>
							<linkclipref>clipitem-87</linkclipref>
							<mediatype>audio</mediatype>
							<trackindex>5</trackindex>
							<clipindex>11</clipindex>
							<groupindex>1</groupindex>
						</link>
						<logginginfo>
							<description></description>
							<scene></scene>
							<shottake></shottake>
							<lognote></lognote>
							<good></good>
							<originalvideofilename></originalvideofilename>
							<originalaudiofilename></originalaudiofilename>
						</logginginfo>
						<colorinfo>
							<lut></lut>
							<lut1></lut1>
							<asc_sop></asc_sop>
							<asc_sat></asc_sat>
							<lut2></lut2>
						</colorinfo>
						<labels>
							<label2>Violet</label2>
						</labels>
					</clipitem>
					<transitionitem>
						<start>11386</start>
						<end>11388</end>
						<alignment>end-black</alignment>
						<cutPointTicks>16951334400</cutPointTicks>
						<rate>
							<timebase>30</timebase>
							<ntsc>TRUE</ntsc>
						</rate>
						<effect>
							<name>Cross Fade (+3dB)</name>
							<effectid>KGAudioTransCrossFade3dB</effectid>
							<effecttype>transition</effecttype>
							<mediatype>audio</mediatype>
							<wipecode>0</wipecode>
							<wipeaccuracy>100</wipeaccuracy>
							<startratio>0</startratio>
							<endratio>1</endratio>
							<reverse>FALSE</reverse>
						</effect>
					</transitionitem>
					<transitionitem>
						<start>17396</start>
						<end>17398</end>
						<alignment>start-black</alignment>
						<cutPointTicks>0</cutPointTicks>
						<rate>
							<timebase>30</timebase>
							<ntsc>TRUE</ntsc>
						</rate>
						<effect>
							<name>Cross Fade (+3dB)</name>
							<effectid>KGAudioTransCrossFade3dB</effectid>
							<effecttype>transition</effecttype>
							<mediatype>audio</mediatype>
							<wipecode>0</wipecode>
							<wipeaccuracy>100</wipeaccuracy>
							<startratio>0</startratio>
							<endratio>1</endratio>
							<reverse>FALSE</reverse>
						</effect>
					</transitionitem>
					<clipitem id="clipitem-75" premiereChannelType="stereo">
						<masterclipid>masterclip-26</masterclipid>
						<name>ZCAM0050_0000_201803130940.MOV</name>
						<enabled>TRUE</enabled>
						<duration>9000</duration>
						<rate>
							<timebase>30</timebase>
							<ntsc>TRUE</ntsc>
						</rate>
						<start>-1</start>
						<end>-1</end>
						<in>5644</in>
						<out>5711</out>
						<pproTicksIn>47836665676800</pproTicksIn>
						<pproTicksOut>48404535379200</pproTicksOut>
						<pixelaspectratio>square</pixelaspectratio>
						<anamorphic>FALSE</anamorphic>
						<file id="file-26">
							<name>ZCAM0050_0000_201803130940.MOV</name>
							<pathurl>file://Gladiator/hd/Departments/_Post/__Projects/033_Chimps_CMP/1.Raw/Ingest/20180313/k1_01_morning/01/ZCAM0050_0000_201803130940.MOV</pathurl>
							<rate>
								<timebase>30</timebase>
								<ntsc>TRUE</ntsc>
							</rate>
							<duration>9000</duration>
							<timecode>
								<rate>
									<timebase>30</timebase>
									<ntsc>TRUE</ntsc>
								</rate>
								<string>00:05:00:00</string>
								<frame>9000</frame>
								<displayformat>NDF</displayformat>
								<reel>
									<name>TheReelID</name>
								</reel>
							</timecode>
							<media>
								<video>
									<samplecharacteristics>
										<rate>
											<timebase>30</timebase>
											<ntsc>TRUE</ntsc>
										</rate>
										<width>2880</width>
										<height>2880</height>
										<anamorphic>FALSE</anamorphic>
										<pixelaspectratio>square</pixelaspectratio>
										<fielddominance>none</fielddominance>
									</samplecharacteristics>
								</video>
								<audio>
									<samplecharacteristics>
										<depth>16</depth>
										<samplerate>48000</samplerate>
									</samplecharacteristics>
									<channelcount>2</channelcount>
								</audio>
							</media>
						</file>
						<sourcetrack>
							<mediatype>audio</mediatype>
							<trackindex>1</trackindex>
						</sourcetrack>
						<link>
							<linkclipref>clipitem-75</linkclipref>
							<mediatype>audio</mediatype>
							<trackindex>4</trackindex>
							<clipindex>14</clipindex>
							<groupindex>1</groupindex>
						</link>
						<link>
							<linkclipref>clipitem-88</linkclipref>
							<mediatype>audio</mediatype>
							<trackindex>5</trackindex>
							<clipindex>14</clipindex>
							<groupindex>1</groupindex>
						</link>
						<logginginfo>
							<description></description>
							<scene></scene>
							<shottake></shottake>
							<lognote></lognote>
							<good></good>
							<originalvideofilename></originalvideofilename>
							<originalaudiofilename></originalaudiofilename>
						</logginginfo>
						<colorinfo>
							<lut></lut>
							<lut1></lut1>
							<asc_sop></asc_sop>
							<asc_sat></asc_sat>
							<lut2></lut2>
						</colorinfo>
						<labels>
							<label2>Iris</label2>
						</labels>
					</clipitem>
					<transitionitem>
						<start>17455</start>
						<end>17463</end>
						<alignment>center</alignment>
						<cutPointTicks>33902668800</cutPointTicks>
						<rate>
							<timebase>30</timebase>
							<ntsc>TRUE</ntsc>
						</rate>
						<effect>
							<name>Cross Fade (+3dB)</name>
							<effectid>KGAudioTransCrossFade3dB</effectid>
							<effecttype>transition</effecttype>
							<mediatype>audio</mediatype>
							<wipecode>0</wipecode>
							<wipeaccuracy>100</wipeaccuracy>
							<startratio>0</startratio>
							<endratio>1</endratio>
							<reverse>FALSE</reverse>
						</effect>
					</transitionitem>
					<clipitem id="clipitem-76" premiereChannelType="stereo">
						<masterclipid>masterclip-26</masterclipid>
						<name>ZCAM0050_0000_201803130940.MOV</name>
						<enabled>TRUE</enabled>
						<duration>9000</duration>
						<rate>
							<timebase>30</timebase>
							<ntsc>TRUE</ntsc>
						</rate>
						<start>-1</start>
						<end>-1</end>
						<in>6259</in>
						<out>6390</out>
						<pproTicksIn>53049201004800</pproTicksIn>
						<pproTicksOut>54159513408000</pproTicksOut>
						<file id="file-26"/>
						<sourcetrack>
							<mediatype>audio</mediatype>
							<trackindex>1</trackindex>
						</sourcetrack>
						<link>
							<linkclipref>clipitem-76</linkclipref>
							<mediatype>audio</mediatype>
							<trackindex>4</trackindex>
							<clipindex>16</clipindex>
							<groupindex>1</groupindex>
						</link>
						<link>
							<linkclipref>clipitem-89</linkclipref>
							<mediatype>audio</mediatype>
							<trackindex>5</trackindex>
							<clipindex>16</clipindex>
							<groupindex>1</groupindex>
						</link>
						<logginginfo>
							<description></description>
							<scene></scene>
							<shottake></shottake>
							<lognote></lognote>
							<good></good>
							<originalvideofilename></originalvideofilename>
							<originalaudiofilename></originalaudiofilename>
						</logginginfo>
						<colorinfo>
							<lut></lut>
							<lut1></lut1>
							<asc_sop></asc_sop>
							<asc_sat></asc_sat>
							<lut2></lut2>
						</colorinfo>
						<labels>
							<label2>Iris</label2>
						</labels>
					</clipitem>
					<transitionitem>
						<start>17584</start>
						<end>17586</end>
						<alignment>center</alignment>
						<cutPointTicks>8475667200</cutPointTicks>
						<rate>
							<timebase>30</timebase>
							<ntsc>TRUE</ntsc>
						</rate>
						<effect>
							<name>Cross Fade (+3dB)</name>
							<effectid>KGAudioTransCrossFade3dB</effectid>
							<effecttype>transition</effecttype>
							<mediatype>audio</mediatype>
							<wipecode>0</wipecode>
							<wipeaccuracy>100</wipeaccuracy>
							<startratio>0</startratio>
							<endratio>1</endratio>
							<reverse>FALSE</reverse>
						</effect>
					</transitionitem>
					<clipitem id="clipitem-77" premiereChannelType="stereo">
						<masterclipid>masterclip-26</masterclipid>
						<name>ZCAM0050_0000_201803130940.MOV</name>
						<enabled>TRUE</enabled>
						<duration>9000</duration>
						<rate>
							<timebase>30</timebase>
							<ntsc>TRUE</ntsc>
						</rate>
						<start>-1</start>
						<end>-1</end>
						<in>6676</in>
						<out>6946</out>
						<pproTicksIn>56583554227200</pproTicksIn>
						<pproTicksOut>58871984371200</pproTicksOut>
						<file id="file-26"/>
						<sourcetrack>
							<mediatype>audio</mediatype>
							<trackindex>1</trackindex>
						</sourcetrack>
						<link>
							<linkclipref>clipitem-77</linkclipref>
							<mediatype>audio</mediatype>
							<trackindex>4</trackindex>
							<clipindex>18</clipindex>
							<groupindex>1</groupindex>
						</link>
						<link>
							<linkclipref>clipitem-90</linkclipref>
							<mediatype>audio</mediatype>
							<trackindex>5</trackindex>
							<clipindex>18</clipindex>
							<groupindex>1</groupindex>
						</link>
						<logginginfo>
							<description></description>
							<scene></scene>
							<shottake></shottake>
							<lognote></lognote>
							<good></good>
							<originalvideofilename></originalvideofilename>
							<originalaudiofilename></originalaudiofilename>
						</logginginfo>
						<colorinfo>
							<lut></lut>
							<lut1></lut1>
							<asc_sop></asc_sop>
							<asc_sat></asc_sat>
							<lut2></lut2>
						</colorinfo>
						<labels>
							<label2>Iris</label2>
						</labels>
					</clipitem>
					<transitionitem>
						<start>17852</start>
						<end>17854</end>
						<alignment>start</alignment>
						<cutPointTicks>0</cutPointTicks>
						<rate>
							<timebase>30</timebase>
							<ntsc>TRUE</ntsc>
						</rate>
						<effect>
							<name>Cross Fade (+3dB)</name>
							<effectid>KGAudioTransCrossFade3dB</effectid>
							<effecttype>transition</effecttype>
							<mediatype>audio</mediatype>
							<wipecode>0</wipecode>
							<wipeaccuracy>100</wipeaccuracy>
							<startratio>0</startratio>
							<endratio>1</endratio>
							<reverse>FALSE</reverse>
						</effect>
					</transitionitem>
					<clipitem id="clipitem-78" premiereChannelType="stereo">
						<masterclipid>masterclip-26</masterclipid>
						<name>ZCAM0050_0000_201803130940.MOV</name>
						<enabled>TRUE</enabled>
						<duration>9000</duration>
						<rate>
							<timebase>30</timebase>
							<ntsc>TRUE</ntsc>
						</rate>
						<start>-1</start>
						<end>-1</end>
						<in>7078</in>
						<out>7171</out>
						<pproTicksIn>59990772441600</pproTicksIn>
						<pproTicksOut>60779009491200</pproTicksOut>
						<file id="file-26"/>
						<sourcetrack>
							<mediatype>audio</mediatype>
							<trackindex>1</trackindex>
						</sourcetrack>
						<link>
							<linkclipref>clipitem-78</linkclipref>
							<mediatype>audio</mediatype>
							<trackindex>4</trackindex>
							<clipindex>20</clipindex>
							<groupindex>1</groupindex>
						</link>
						<link>
							<linkclipref>clipitem-91</linkclipref>
							<mediatype>audio</mediatype>
							<trackindex>5</trackindex>
							<clipindex>20</clipindex>
							<groupindex>1</groupindex>
						</link>
						<logginginfo>
							<description></description>
							<scene></scene>
							<shottake></shottake>
							<lognote></lognote>
							<good></good>
							<originalvideofilename></originalvideofilename>
							<originalaudiofilename></originalaudiofilename>
						</logginginfo>
						<colorinfo>
							<lut></lut>
							<lut1></lut1>
							<asc_sop></asc_sop>
							<asc_sat></asc_sat>
							<lut2></lut2>
						</colorinfo>
						<labels>
							<label2>Iris</label2>
						</labels>
					</clipitem>
					<transitionitem>
						<start>17943</start>
						<end>17945</end>
						<alignment>end-black</alignment>
						<cutPointTicks>16951334400</cutPointTicks>
						<rate>
							<timebase>30</timebase>
							<ntsc>TRUE</ntsc>
						</rate>
						<effect>
							<name>Cross Fade (+3dB)</name>
							<effectid>KGAudioTransCrossFade3dB</effectid>
							<effecttype>transition</effecttype>
							<mediatype>audio</mediatype>
							<wipecode>0</wipecode>
							<wipeaccuracy>100</wipeaccuracy>
							<startratio>0</startratio>
							<endratio>1</endratio>
							<reverse>FALSE</reverse>
						</effect>
					</transitionitem>
					<clipitem id="clipitem-79" premiereChannelType="stereo">
						<masterclipid>masterclip-21</masterclipid>
						<name>ZOOM0001.WAV</name>
						<enabled>TRUE</enabled>
						<duration>65051</duration>
						<rate>
							<timebase>30</timebase>
							<ntsc>TRUE</ntsc>
						</rate>
						<start>18008</start>
						<end>18045</end>
						<in>62601</in>
						<out>62638</out>
						<pproTicksIn>530585242387200</pproTicksIn>
						<pproTicksOut>530898842073600</pproTicksOut>
						<file id="file-21"/>
						<sourcetrack>
							<mediatype>audio</mediatype>
							<trackindex>1</trackindex>
						</sourcetrack>
						<link>
							<linkclipref>clipitem-79</linkclipref>
							<mediatype>audio</mediatype>
							<trackindex>4</trackindex>
							<clipindex>22</clipindex>
							<groupindex>1</groupindex>
						</link>
						<link>
							<linkclipref>clipitem-92</linkclipref>
							<mediatype>audio</mediatype>
							<trackindex>5</trackindex>
							<clipindex>22</clipindex>
							<groupindex>1</groupindex>
						</link>
						<logginginfo>
							<description></description>
							<scene></scene>
							<shottake></shottake>
							<lognote></lognote>
							<good></good>
							<originalvideofilename></originalvideofilename>
							<originalaudiofilename></originalaudiofilename>
						</logginginfo>
						<colorinfo>
							<lut></lut>
							<lut1></lut1>
							<asc_sop></asc_sop>
							<asc_sat></asc_sat>
							<lut2></lut2>
						</colorinfo>
						<labels>
							<label2>Violet</label2>
						</labels>
					</clipitem>
					<clipitem id="clipitem-80" premiereChannelType="stereo">
						<masterclipid>masterclip-21</masterclipid>
						<name>ZOOM0001.WAV</name>
						<enabled>TRUE</enabled>
						<duration>65051</duration>
						<rate>
							<timebase>30</timebase>
							<ntsc>TRUE</ntsc>
						</rate>
						<start>18540</start>
						<end>18583</end>
						<in>63510</in>
						<out>63553</out>
						<pproTicksIn>538289623872000</pproTicksIn>
						<pproTicksOut>538654077561600</pproTicksOut>
						<file id="file-21"/>
						<sourcetrack>
							<mediatype>audio</mediatype>
							<trackindex>1</trackindex>
						</sourcetrack>
						<link>
							<linkclipref>clipitem-80</linkclipref>
							<mediatype>audio</mediatype>
							<trackindex>4</trackindex>
							<clipindex>23</clipindex>
							<groupindex>1</groupindex>
						</link>
						<link>
							<linkclipref>clipitem-93</linkclipref>
							<mediatype>audio</mediatype>
							<trackindex>5</trackindex>
							<clipindex>23</clipindex>
							<groupindex>1</groupindex>
						</link>
						<logginginfo>
							<description></description>
							<scene></scene>
							<shottake></shottake>
							<lognote></lognote>
							<good></good>
							<originalvideofilename></originalvideofilename>
							<originalaudiofilename></originalaudiofilename>
						</logginginfo>
						<colorinfo>
							<lut></lut>
							<lut1></lut1>
							<asc_sop></asc_sop>
							<asc_sat></asc_sat>
							<lut2></lut2>
						</colorinfo>
						<labels>
							<label2>Violet</label2>
						</labels>
					</clipitem>
					<clipitem id="clipitem-81" premiereChannelType="stereo">
						<masterclipid>masterclip-21</masterclipid>
						<name>ZOOM0001.WAV</name>
						<enabled>TRUE</enabled>
						<duration>65051</duration>
						<rate>
							<timebase>30</timebase>
							<ntsc>TRUE</ntsc>
						</rate>
						<start>18960</start>
						<end>19277</end>
						<in>63553</in>
						<out>63870</out>
						<pproTicksIn>538654077561600</pproTicksIn>
						<pproTicksOut>541340864064000</pproTicksOut>
						<file id="file-21"/>
						<sourcetrack>
							<mediatype>audio</mediatype>
							<trackindex>1</trackindex>
						</sourcetrack>
						<link>
							<linkclipref>clipitem-81</linkclipref>
							<mediatype>audio</mediatype>
							<trackindex>4</trackindex>
							<clipindex>24</clipindex>
							<groupindex>1</groupindex>
						</link>
						<link>
							<linkclipref>clipitem-94</linkclipref>
							<mediatype>audio</mediatype>
							<trackindex>5</trackindex>
							<clipindex>24</clipindex>
							<groupindex>1</groupindex>
						</link>
						<logginginfo>
							<description></description>
							<scene></scene>
							<shottake></shottake>
							<lognote></lognote>
							<good></good>
							<originalvideofilename></originalvideofilename>
							<originalaudiofilename></originalaudiofilename>
						</logginginfo>
						<colorinfo>
							<lut></lut>
							<lut1></lut1>
							<asc_sop></asc_sop>
							<asc_sat></asc_sat>
							<lut2></lut2>
						</colorinfo>
						<labels>
							<label2>Violet</label2>
						</labels>
					</clipitem>
					<clipitem id="clipitem-82" premiereChannelType="stereo">
						<masterclipid>masterclip-21</masterclipid>
						<name>ZOOM0001.WAV</name>
						<enabled>TRUE</enabled>
						<duration>65051</duration>
						<rate>
							<timebase>30</timebase>
							<ntsc>TRUE</ntsc>
						</rate>
						<start>19782</start>
						<end>-1</end>
						<in>52080</in>
						<out>52286</out>
						<pproTicksIn>441412747776000</pproTicksIn>
						<pproTicksOut>443158735219200</pproTicksOut>
						<file id="file-21"/>
						<sourcetrack>
							<mediatype>audio</mediatype>
							<trackindex>1</trackindex>
						</sourcetrack>
						<link>
							<linkclipref>clipitem-82</linkclipref>
							<mediatype>audio</mediatype>
							<trackindex>4</trackindex>
							<clipindex>25</clipindex>
							<groupindex>1</groupindex>
						</link>
						<link>
							<linkclipref>clipitem-95</linkclipref>
							<mediatype>audio</mediatype>
							<trackindex>5</trackindex>
							<clipindex>25</clipindex>
							<groupindex>1</groupindex>
						</link>
						<logginginfo>
							<description></description>
							<scene></scene>
							<shottake></shottake>
							<lognote></lognote>
							<good></good>
							<originalvideofilename></originalvideofilename>
							<originalaudiofilename></originalaudiofilename>
						</logginginfo>
						<colorinfo>
							<lut></lut>
							<lut1></lut1>
							<asc_sop></asc_sop>
							<asc_sat></asc_sat>
							<lut2></lut2>
						</colorinfo>
						<labels>
							<label2>Cerulean</label2>
						</labels>
					</clipitem>
					<transitionitem>
						<start>19986</start>
						<end>19988</end>
						<alignment>end-black</alignment>
						<cutPointTicks>16951334400</cutPointTicks>
						<rate>
							<timebase>30</timebase>
							<ntsc>TRUE</ntsc>
						</rate>
						<effect>
							<name>Cross Fade (+3dB)</name>
							<effectid>KGAudioTransCrossFade3dB</effectid>
							<effecttype>transition</effecttype>
							<mediatype>audio</mediatype>
							<wipecode>0</wipecode>
							<wipeaccuracy>100</wipeaccuracy>
							<startratio>0</startratio>
							<endratio>1</endratio>
							<reverse>FALSE</reverse>
						</effect>
					</transitionitem>
					<enabled>TRUE</enabled>
					<locked>FALSE</locked>
					<outputchannelindex>1</outputchannelindex>
				</track>
				<track TL.SQTrackAudioKeyframeStyle="0" TL.SQTrackShy="0" TL.SQTrackExpandedHeight="15" TL.SQTrackExpanded="0" MZ.TrackTargeted="1" PannerCurrentValue="0" PannerStartKeyframe="-91445760000000000,0.,0,0,0,0,0,0" PannerName="Balance" currentExplodedTrackIndex="1" totalExplodedTrackCount="2" premiereTrackType="Stereo">
					<clipitem id="clipitem-83" premiereChannelType="stereo">
						<masterclipid>masterclip-25</masterclipid>
						<name>ZOOM0001.WAV</name>
						<enabled>TRUE</enabled>
						<duration>140485</duration>
						<rate>
							<timebase>30</timebase>
							<ntsc>TRUE</ntsc>
						</rate>
						<start>5423</start>
						<end>-1</end>
						<in>50099</in>
						<out>51199</out>
						<pproTicksIn>424622451052800</pproTicksIn>
						<pproTicksOut>433945684972800</pproTicksOut>
						<file id="file-25"/>
						<sourcetrack>
							<mediatype>audio</mediatype>
							<trackindex>2</trackindex>
						</sourcetrack>
						<link>
							<linkclipref>clipitem-70</linkclipref>
							<mediatype>audio</mediatype>
							<trackindex>4</trackindex>
							<clipindex>1</clipindex>
							<groupindex>1</groupindex>
						</link>
						<link>
							<linkclipref>clipitem-83</linkclipref>
							<mediatype>audio</mediatype>
							<trackindex>5</trackindex>
							<clipindex>1</clipindex>
							<groupindex>1</groupindex>
						</link>
						<logginginfo>
							<description></description>
							<scene></scene>
							<shottake></shottake>
							<lognote></lognote>
							<good></good>
							<originalvideofilename></originalvideofilename>
							<originalaudiofilename></originalaudiofilename>
						</logginginfo>
						<colorinfo>
							<lut></lut>
							<lut1></lut1>
							<asc_sop></asc_sop>
							<asc_sat></asc_sat>
							<lut2></lut2>
						</colorinfo>
						<labels>
							<label2>Mango</label2>
						</labels>
					</clipitem>
					<transitionitem>
						<start>6496</start>
						<end>6523</end>
						<alignment>end-black</alignment>
						<cutPointTicks>228843014400</cutPointTicks>
						<rate>
							<timebase>30</timebase>
							<ntsc>TRUE</ntsc>
						</rate>
						<effect>
							<name>Cross Fade (+3dB)</name>
							<effectid>KGAudioTransCrossFade3dB</effectid>
							<effecttype>transition</effecttype>
							<mediatype>audio</mediatype>
							<wipecode>0</wipecode>
							<wipeaccuracy>100</wipeaccuracy>
							<startratio>0</startratio>
							<endratio>1</endratio>
							<reverse>FALSE</reverse>
						</effect>
					</transitionitem>
					<transitionitem>
						<start>6753</start>
						<end>6777</end>
						<alignment>start-black</alignment>
						<cutPointTicks>0</cutPointTicks>
						<rate>
							<timebase>30</timebase>
							<ntsc>TRUE</ntsc>
						</rate>
						<effect>
							<name>Cross Fade (+3dB)</name>
							<effectid>KGAudioTransCrossFade3dB</effectid>
							<effecttype>transition</effecttype>
							<mediatype>audio</mediatype>
							<wipecode>0</wipecode>
							<wipeaccuracy>100</wipeaccuracy>
							<startratio>0</startratio>
							<endratio>1</endratio>
							<reverse>FALSE</reverse>
						</effect>
					</transitionitem>
					<clipitem id="clipitem-84" premiereChannelType="stereo">
						<masterclipid>masterclip-25</masterclipid>
						<name>ZOOM0001.WAV</name>
						<enabled>TRUE</enabled>
						<duration>140485</duration>
						<rate>
							<timebase>30</timebase>
							<ntsc>TRUE</ntsc>
						</rate>
						<start>-1</start>
						<end>-1</end>
						<in>51429</in>
						<out>52035</out>
						<pproTicksIn>435895088428800</pproTicksIn>
						<pproTicksOut>441031342752000</pproTicksOut>
						<file id="file-25"/>
						<sourcetrack>
							<mediatype>audio</mediatype>
							<trackindex>2</trackindex>
						</sourcetrack>
						<link>
							<linkclipref>clipitem-71</linkclipref>
							<mediatype>audio</mediatype>
							<trackindex>4</trackindex>
							<clipindex>4</clipindex>
							<groupindex>1</groupindex>
						</link>
						<link>
							<linkclipref>clipitem-84</linkclipref>
							<mediatype>audio</mediatype>
							<trackindex>5</trackindex>
							<clipindex>4</clipindex>
							<groupindex>1</groupindex>
						</link>
						<logginginfo>
							<description></description>
							<scene></scene>
							<shottake></shottake>
							<lognote></lognote>
							<good></good>
							<originalvideofilename></originalvideofilename>
							<originalaudiofilename></originalaudiofilename>
						</logginginfo>
						<colorinfo>
							<lut></lut>
							<lut1></lut1>
							<asc_sop></asc_sop>
							<asc_sat></asc_sat>
							<lut2></lut2>
						</colorinfo>
						<labels>
							<label2>Mango</label2>
						</labels>
					</clipitem>
					<transitionitem>
						<start>7357</start>
						<end>7359</end>
						<alignment>end-black</alignment>
						<cutPointTicks>16951334400</cutPointTicks>
						<rate>
							<timebase>30</timebase>
							<ntsc>TRUE</ntsc>
						</rate>
						<effect>
							<name>Cross Fade (+3dB)</name>
							<effectid>KGAudioTransCrossFade3dB</effectid>
							<effecttype>transition</effecttype>
							<mediatype>audio</mediatype>
							<wipecode>0</wipecode>
							<wipeaccuracy>100</wipeaccuracy>
							<startratio>0</startratio>
							<endratio>1</endratio>
							<reverse>FALSE</reverse>
						</effect>
					</transitionitem>
					<transitionitem>
						<start>7656</start>
						<end>7658</end>
						<alignment>start-black</alignment>
						<cutPointTicks>0</cutPointTicks>
						<rate>
							<timebase>30</timebase>
							<ntsc>TRUE</ntsc>
						</rate>
						<effect>
							<name>Cross Fade (+3dB)</name>
							<effectid>KGAudioTransCrossFade3dB</effectid>
							<effecttype>transition</effecttype>
							<mediatype>audio</mediatype>
							<wipecode>0</wipecode>
							<wipeaccuracy>100</wipeaccuracy>
							<startratio>0</startratio>
							<endratio>1</endratio>
							<reverse>FALSE</reverse>
						</effect>
					</transitionitem>
					<clipitem id="clipitem-85" premiereChannelType="stereo">
						<masterclipid>masterclip-25</masterclipid>
						<name>ZOOM0001.WAV</name>
						<enabled>TRUE</enabled>
						<duration>140485</duration>
						<rate>
							<timebase>30</timebase>
							<ntsc>TRUE</ntsc>
						</rate>
						<start>-1</start>
						<end>-1</end>
						<in>52332</in>
						<out>53555</out>
						<pproTicksIn>443548615910400</pproTicksIn>
						<pproTicksOut>453914356896000</pproTicksOut>
						<file id="file-25"/>
						<sourcetrack>
							<mediatype>audio</mediatype>
							<trackindex>2</trackindex>
						</sourcetrack>
						<link>
							<linkclipref>clipitem-72</linkclipref>
							<mediatype>audio</mediatype>
							<trackindex>4</trackindex>
							<clipindex>7</clipindex>
							<groupindex>1</groupindex>
						</link>
						<link>
							<linkclipref>clipitem-85</linkclipref>
							<mediatype>audio</mediatype>
							<trackindex>5</trackindex>
							<clipindex>7</clipindex>
							<groupindex>1</groupindex>
						</link>
						<logginginfo>
							<description></description>
							<scene></scene>
							<shottake></shottake>
							<lognote></lognote>
							<good></good>
							<originalvideofilename></originalvideofilename>
							<originalaudiofilename></originalaudiofilename>
						</logginginfo>
						<colorinfo>
							<lut></lut>
							<lut1></lut1>
							<asc_sop></asc_sop>
							<asc_sat></asc_sat>
							<lut2></lut2>
						</colorinfo>
						<labels>
							<label2>Mango</label2>
						</labels>
					</clipitem>
					<transitionitem>
						<start>8877</start>
						<end>8879</end>
						<alignment>end-black</alignment>
						<cutPointTicks>16951334400</cutPointTicks>
						<rate>
							<timebase>30</timebase>
							<ntsc>TRUE</ntsc>
						</rate>
						<effect>
							<name>Cross Fade (+3dB)</name>
							<effectid>KGAudioTransCrossFade3dB</effectid>
							<effecttype>transition</effecttype>
							<mediatype>audio</mediatype>
							<wipecode>0</wipecode>
							<wipeaccuracy>100</wipeaccuracy>
							<startratio>0</startratio>
							<endratio>1</endratio>
							<reverse>FALSE</reverse>
						</effect>
					</transitionitem>
					<clipitem id="clipitem-86" premiereChannelType="stereo">
						<masterclipid>masterclip-25</masterclipid>
						<name>ZOOM0001.WAV</name>
						<enabled>TRUE</enabled>
						<duration>140485</duration>
						<rate>
							<timebase>30</timebase>
							<ntsc>TRUE</ntsc>
						</rate>
						<start>11140</start>
						<end>-1</end>
						<in>55597</in>
						<out>55795</out>
						<pproTicksIn>471221669318400</pproTicksIn>
						<pproTicksOut>472899851424000</pproTicksOut>
						<file id="file-25"/>
						<sourcetrack>
							<mediatype>audio</mediatype>
							<trackindex>2</trackindex>
						</sourcetrack>
						<filter>
							<effect>
								<name>Audio Levels</name>
								<effectid>audiolevels</effectid>
								<effectcategory>audiolevels</effectcategory>
								<effecttype>audiolevels</effecttype>
								<mediatype>audio</mediatype>
								<pproBypass>false</pproBypass>
								<parameter authoringApp="PremierePro">
									<parameterid>level</parameterid>
									<name>Level</name>
									<valuemin>0</valuemin>
									<valuemax>3.98109</valuemax>
									<value>0</value>
								</parameter>
							</effect>
						</filter>
						<link>
							<linkclipref>clipitem-73</linkclipref>
							<mediatype>audio</mediatype>
							<trackindex>4</trackindex>
							<clipindex>9</clipindex>
							<groupindex>1</groupindex>
						</link>
						<link>
							<linkclipref>clipitem-86</linkclipref>
							<mediatype>audio</mediatype>
							<trackindex>5</trackindex>
							<clipindex>9</clipindex>
							<groupindex>1</groupindex>
						</link>
						<logginginfo>
							<description></description>
							<scene></scene>
							<shottake></shottake>
							<lognote></lognote>
							<good></good>
							<originalvideofilename></originalvideofilename>
							<originalaudiofilename></originalaudiofilename>
						</logginginfo>
						<colorinfo>
							<lut></lut>
							<lut1></lut1>
							<asc_sop></asc_sop>
							<asc_sat></asc_sat>
							<lut2></lut2>
						</colorinfo>
						<labels>
							<label2>Violet</label2>
						</labels>
					</clipitem>
					<transitionitem>
						<start>11336</start>
						<end>11338</end>
						<alignment>center</alignment>
						<cutPointTicks>8475667200</cutPointTicks>
						<rate>
							<timebase>30</timebase>
							<ntsc>TRUE</ntsc>
						</rate>
						<effect>
							<name>Cross Fade (+3dB)</name>
							<effectid>KGAudioTransCrossFade3dB</effectid>
							<effecttype>transition</effecttype>
							<mediatype>audio</mediatype>
							<wipecode>0</wipecode>
							<wipeaccuracy>100</wipeaccuracy>
							<startratio>0</startratio>
							<endratio>1</endratio>
							<reverse>FALSE</reverse>
						</effect>
					</transitionitem>
					<clipitem id="clipitem-87" premiereChannelType="stereo">
						<masterclipid>masterclip-25</masterclipid>
						<name>ZOOM0001.WAV</name>
						<enabled>TRUE</enabled>
						<duration>140485</duration>
						<rate>
							<timebase>30</timebase>
							<ntsc>TRUE</ntsc>
						</rate>
						<start>-1</start>
						<end>-1</end>
						<in>55856</in>
						<out>55908</out>
						<pproTicksIn>473416867123200</pproTicksIn>
						<pproTicksOut>473857601817600</pproTicksOut>
						<file id="file-25"/>
						<sourcetrack>
							<mediatype>audio</mediatype>
							<trackindex>2</trackindex>
						</sourcetrack>
						<filter>
							<effect>
								<name>Audio Levels</name>
								<effectid>audiolevels</effectid>
								<effectcategory>audiolevels</effectcategory>
								<effecttype>audiolevels</effecttype>
								<mediatype>audio</mediatype>
								<pproBypass>false</pproBypass>
								<parameter authoringApp="PremierePro">
									<parameterid>level</parameterid>
									<name>Level</name>
									<valuemin>0</valuemin>
									<valuemax>3.98109</valuemax>
									<value>0</value>
								</parameter>
							</effect>
						</filter>
						<link>
							<linkclipref>clipitem-74</linkclipref>
							<mediatype>audio</mediatype>
							<trackindex>4</trackindex>
							<clipindex>11</clipindex>
							<groupindex>1</groupindex>
						</link>
						<link>
							<linkclipref>clipitem-87</linkclipref>
							<mediatype>audio</mediatype>
							<trackindex>5</trackindex>
							<clipindex>11</clipindex>
							<groupindex>1</groupindex>
						</link>
						<logginginfo>
							<description></description>
							<scene></scene>
							<shottake></shottake>
							<lognote></lognote>
							<good></good>
							<originalvideofilename></originalvideofilename>
							<originalaudiofilename></originalaudiofilename>
						</logginginfo>
						<colorinfo>
							<lut></lut>
							<lut1></lut1>
							<asc_sop></asc_sop>
							<asc_sat></asc_sat>
							<lut2></lut2>
						</colorinfo>
						<labels>
							<label2>Violet</label2>
						</labels>
					</clipitem>
					<transitionitem>
						<start>11386</start>
						<end>11388</end>
						<alignment>end-black</alignment>
						<cutPointTicks>16951334400</cutPointTicks>
						<rate>
							<timebase>30</timebase>
							<ntsc>TRUE</ntsc>
						</rate>
						<effect>
							<name>Cross Fade (+3dB)</name>
							<effectid>KGAudioTransCrossFade3dB</effectid>
							<effecttype>transition</effecttype>
							<mediatype>audio</mediatype>
							<wipecode>0</wipecode>
							<wipeaccuracy>100</wipeaccuracy>
							<startratio>0</startratio>
							<endratio>1</endratio>
							<reverse>FALSE</reverse>
						</effect>
					</transitionitem>
					<transitionitem>
						<start>17396</start>
						<end>17398</end>
						<alignment>start-black</alignment>
						<cutPointTicks>0</cutPointTicks>
						<rate>
							<timebase>30</timebase>
							<ntsc>TRUE</ntsc>
						</rate>
						<effect>
							<name>Cross Fade (+3dB)</name>
							<effectid>KGAudioTransCrossFade3dB</effectid>
							<effecttype>transition</effecttype>
							<mediatype>audio</mediatype>
							<wipecode>0</wipecode>
							<wipeaccuracy>100</wipeaccuracy>
							<startratio>0</startratio>
							<endratio>1</endratio>
							<reverse>FALSE</reverse>
						</effect>
					</transitionitem>
					<clipitem id="clipitem-88" premiereChannelType="stereo">
						<masterclipid>masterclip-26</masterclipid>
						<name>ZCAM0050_0000_201803130940.MOV</name>
						<enabled>TRUE</enabled>
						<duration>9000</duration>
						<rate>
							<timebase>30</timebase>
							<ntsc>TRUE</ntsc>
						</rate>
						<start>-1</start>
						<end>-1</end>
						<in>5644</in>
						<out>5711</out>
						<pproTicksIn>47836665676800</pproTicksIn>
						<pproTicksOut>48404535379200</pproTicksOut>
						<file id="file-26"/>
						<sourcetrack>
							<mediatype>audio</mediatype>
							<trackindex>2</trackindex>
						</sourcetrack>
						<link>
							<linkclipref>clipitem-75</linkclipref>
							<mediatype>audio</mediatype>
							<trackindex>4</trackindex>
							<clipindex>14</clipindex>
							<groupindex>1</groupindex>
						</link>
						<link>
							<linkclipref>clipitem-88</linkclipref>
							<mediatype>audio</mediatype>
							<trackindex>5</trackindex>
							<clipindex>14</clipindex>
							<groupindex>1</groupindex>
						</link>
						<logginginfo>
							<description></description>
							<scene></scene>
							<shottake></shottake>
							<lognote></lognote>
							<good></good>
							<originalvideofilename></originalvideofilename>
							<originalaudiofilename></originalaudiofilename>
						</logginginfo>
						<colorinfo>
							<lut></lut>
							<lut1></lut1>
							<asc_sop></asc_sop>
							<asc_sat></asc_sat>
							<lut2></lut2>
						</colorinfo>
						<labels>
							<label2>Iris</label2>
						</labels>
					</clipitem>
					<transitionitem>
						<start>17455</start>
						<end>17463</end>
						<alignment>center</alignment>
						<cutPointTicks>33902668800</cutPointTicks>
						<rate>
							<timebase>30</timebase>
							<ntsc>TRUE</ntsc>
						</rate>
						<effect>
							<name>Cross Fade (+3dB)</name>
							<effectid>KGAudioTransCrossFade3dB</effectid>
							<effecttype>transition</effecttype>
							<mediatype>audio</mediatype>
							<wipecode>0</wipecode>
							<wipeaccuracy>100</wipeaccuracy>
							<startratio>0</startratio>
							<endratio>1</endratio>
							<reverse>FALSE</reverse>
						</effect>
					</transitionitem>
					<clipitem id="clipitem-89" premiereChannelType="stereo">
						<masterclipid>masterclip-26</masterclipid>
						<name>ZCAM0050_0000_201803130940.MOV</name>
						<enabled>TRUE</enabled>
						<duration>9000</duration>
						<rate>
							<timebase>30</timebase>
							<ntsc>TRUE</ntsc>
						</rate>
						<start>-1</start>
						<end>-1</end>
						<in>6259</in>
						<out>6390</out>
						<pproTicksIn>53049201004800</pproTicksIn>
						<pproTicksOut>54159513408000</pproTicksOut>
						<file id="file-26"/>
						<sourcetrack>
							<mediatype>audio</mediatype>
							<trackindex>2</trackindex>
						</sourcetrack>
						<link>
							<linkclipref>clipitem-76</linkclipref>
							<mediatype>audio</mediatype>
							<trackindex>4</trackindex>
							<clipindex>16</clipindex>
							<groupindex>1</groupindex>
						</link>
						<link>
							<linkclipref>clipitem-89</linkclipref>
							<mediatype>audio</mediatype>
							<trackindex>5</trackindex>
							<clipindex>16</clipindex>
							<groupindex>1</groupindex>
						</link>
						<logginginfo>
							<description></description>
							<scene></scene>
							<shottake></shottake>
							<lognote></lognote>
							<good></good>
							<originalvideofilename></originalvideofilename>
							<originalaudiofilename></originalaudiofilename>
						</logginginfo>
						<colorinfo>
							<lut></lut>
							<lut1></lut1>
							<asc_sop></asc_sop>
							<asc_sat></asc_sat>
							<lut2></lut2>
						</colorinfo>
						<labels>
							<label2>Iris</label2>
						</labels>
					</clipitem>
					<transitionitem>
						<start>17584</start>
						<end>17586</end>
						<alignment>center</alignment>
						<cutPointTicks>8475667200</cutPointTicks>
						<rate>
							<timebase>30</timebase>
							<ntsc>TRUE</ntsc>
						</rate>
						<effect>
							<name>Cross Fade (+3dB)</name>
							<effectid>KGAudioTransCrossFade3dB</effectid>
							<effecttype>transition</effecttype>
							<mediatype>audio</mediatype>
							<wipecode>0</wipecode>
							<wipeaccuracy>100</wipeaccuracy>
							<startratio>0</startratio>
							<endratio>1</endratio>
							<reverse>FALSE</reverse>
						</effect>
					</transitionitem>
					<clipitem id="clipitem-90" premiereChannelType="stereo">
						<masterclipid>masterclip-26</masterclipid>
						<name>ZCAM0050_0000_201803130940.MOV</name>
						<enabled>TRUE</enabled>
						<duration>9000</duration>
						<rate>
							<timebase>30</timebase>
							<ntsc>TRUE</ntsc>
						</rate>
						<start>-1</start>
						<end>-1</end>
						<in>6676</in>
						<out>6946</out>
						<pproTicksIn>56583554227200</pproTicksIn>
						<pproTicksOut>58871984371200</pproTicksOut>
						<file id="file-26"/>
						<sourcetrack>
							<mediatype>audio</mediatype>
							<trackindex>2</trackindex>
						</sourcetrack>
						<link>
							<linkclipref>clipitem-77</linkclipref>
							<mediatype>audio</mediatype>
							<trackindex>4</trackindex>
							<clipindex>18</clipindex>
							<groupindex>1</groupindex>
						</link>
						<link>
							<linkclipref>clipitem-90</linkclipref>
							<mediatype>audio</mediatype>
							<trackindex>5</trackindex>
							<clipindex>18</clipindex>
							<groupindex>1</groupindex>
						</link>
						<logginginfo>
							<description></description>
							<scene></scene>
							<shottake></shottake>
							<lognote></lognote>
							<good></good>
							<originalvideofilename></originalvideofilename>
							<originalaudiofilename></originalaudiofilename>
						</logginginfo>
						<colorinfo>
							<lut></lut>
							<lut1></lut1>
							<asc_sop></asc_sop>
							<asc_sat></asc_sat>
							<lut2></lut2>
						</colorinfo>
						<labels>
							<label2>Iris</label2>
						</labels>
					</clipitem>
					<transitionitem>
						<start>17852</start>
						<end>17854</end>
						<alignment>start</alignment>
						<cutPointTicks>0</cutPointTicks>
						<rate>
							<timebase>30</timebase>
							<ntsc>TRUE</ntsc>
						</rate>
						<effect>
							<name>Cross Fade (+3dB)</name>
							<effectid>KGAudioTransCrossFade3dB</effectid>
							<effecttype>transition</effecttype>
							<mediatype>audio</mediatype>
							<wipecode>0</wipecode>
							<wipeaccuracy>100</wipeaccuracy>
							<startratio>0</startratio>
							<endratio>1</endratio>
							<reverse>FALSE</reverse>
						</effect>
					</transitionitem>
					<clipitem id="clipitem-91" premiereChannelType="stereo">
						<masterclipid>masterclip-26</masterclipid>
						<name>ZCAM0050_0000_201803130940.MOV</name>
						<enabled>TRUE</enabled>
						<duration>9000</duration>
						<rate>
							<timebase>30</timebase>
							<ntsc>TRUE</ntsc>
						</rate>
						<start>-1</start>
						<end>-1</end>
						<in>7078</in>
						<out>7171</out>
						<pproTicksIn>59990772441600</pproTicksIn>
						<pproTicksOut>60779009491200</pproTicksOut>
						<file id="file-26"/>
						<sourcetrack>
							<mediatype>audio</mediatype>
							<trackindex>2</trackindex>
						</sourcetrack>
						<link>
							<linkclipref>clipitem-78</linkclipref>
							<mediatype>audio</mediatype>
							<trackindex>4</trackindex>
							<clipindex>20</clipindex>
							<groupindex>1</groupindex>
						</link>
						<link>
							<linkclipref>clipitem-91</linkclipref>
							<mediatype>audio</mediatype>
							<trackindex>5</trackindex>
							<clipindex>20</clipindex>
							<groupindex>1</groupindex>
						</link>
						<logginginfo>
							<description></description>
							<scene></scene>
							<shottake></shottake>
							<lognote></lognote>
							<good></good>
							<originalvideofilename></originalvideofilename>
							<originalaudiofilename></originalaudiofilename>
						</logginginfo>
						<colorinfo>
							<lut></lut>
							<lut1></lut1>
							<asc_sop></asc_sop>
							<asc_sat></asc_sat>
							<lut2></lut2>
						</colorinfo>
						<labels>
							<label2>Iris</label2>
						</labels>
					</clipitem>
					<transitionitem>
						<start>17943</start>
						<end>17945</end>
						<alignment>end-black</alignment>
						<cutPointTicks>16951334400</cutPointTicks>
						<rate>
							<timebase>30</timebase>
							<ntsc>TRUE</ntsc>
						</rate>
						<effect>
							<name>Cross Fade (+3dB)</name>
							<effectid>KGAudioTransCrossFade3dB</effectid>
							<effecttype>transition</effecttype>
							<mediatype>audio</mediatype>
							<wipecode>0</wipecode>
							<wipeaccuracy>100</wipeaccuracy>
							<startratio>0</startratio>
							<endratio>1</endratio>
							<reverse>FALSE</reverse>
						</effect>
					</transitionitem>
					<clipitem id="clipitem-92" premiereChannelType="stereo">
						<masterclipid>masterclip-21</masterclipid>
						<name>ZOOM0001.WAV</name>
						<enabled>TRUE</enabled>
						<duration>65051</duration>
						<rate>
							<timebase>30</timebase>
							<ntsc>TRUE</ntsc>
						</rate>
						<start>18008</start>
						<end>18045</end>
						<in>62601</in>
						<out>62638</out>
						<pproTicksIn>530585242387200</pproTicksIn>
						<pproTicksOut>530898842073600</pproTicksOut>
						<file id="file-21"/>
						<sourcetrack>
							<mediatype>audio</mediatype>
							<trackindex>2</trackindex>
						</sourcetrack>
						<link>
							<linkclipref>clipitem-79</linkclipref>
							<mediatype>audio</mediatype>
							<trackindex>4</trackindex>
							<clipindex>22</clipindex>
							<groupindex>1</groupindex>
						</link>
						<link>
							<linkclipref>clipitem-92</linkclipref>
							<mediatype>audio</mediatype>
							<trackindex>5</trackindex>
							<clipindex>22</clipindex>
							<groupindex>1</groupindex>
						</link>
						<logginginfo>
							<description></description>
							<scene></scene>
							<shottake></shottake>
							<lognote></lognote>
							<good></good>
							<originalvideofilename></originalvideofilename>
							<originalaudiofilename></originalaudiofilename>
						</logginginfo>
						<colorinfo>
							<lut></lut>
							<lut1></lut1>
							<asc_sop></asc_sop>
							<asc_sat></asc_sat>
							<lut2></lut2>
						</colorinfo>
						<labels>
							<label2>Violet</label2>
						</labels>
					</clipitem>
					<clipitem id="clipitem-93" premiereChannelType="stereo">
						<masterclipid>masterclip-21</masterclipid>
						<name>ZOOM0001.WAV</name>
						<enabled>TRUE</enabled>
						<duration>65051</duration>
						<rate>
							<timebase>30</timebase>
							<ntsc>TRUE</ntsc>
						</rate>
						<start>18540</start>
						<end>18583</end>
						<in>63510</in>
						<out>63553</out>
						<pproTicksIn>538289623872000</pproTicksIn>
						<pproTicksOut>538654077561600</pproTicksOut>
						<file id="file-21"/>
						<sourcetrack>
							<mediatype>audio</mediatype>
							<trackindex>2</trackindex>
						</sourcetrack>
						<link>
							<linkclipref>clipitem-80</linkclipref>
							<mediatype>audio</mediatype>
							<trackindex>4</trackindex>
							<clipindex>23</clipindex>
							<groupindex>1</groupindex>
						</link>
						<link>
							<linkclipref>clipitem-93</linkclipref>
							<mediatype>audio</mediatype>
							<trackindex>5</trackindex>
							<clipindex>23</clipindex>
							<groupindex>1</groupindex>
						</link>
						<logginginfo>
							<description></description>
							<scene></scene>
							<shottake></shottake>
							<lognote></lognote>
							<good></good>
							<originalvideofilename></originalvideofilename>
							<originalaudiofilename></originalaudiofilename>
						</logginginfo>
						<colorinfo>
							<lut></lut>
							<lut1></lut1>
							<asc_sop></asc_sop>
							<asc_sat></asc_sat>
							<lut2></lut2>
						</colorinfo>
						<labels>
							<label2>Violet</label2>
						</labels>
					</clipitem>
					<clipitem id="clipitem-94" premiereChannelType="stereo">
						<masterclipid>masterclip-21</masterclipid>
						<name>ZOOM0001.WAV</name>
						<enabled>TRUE</enabled>
						<duration>65051</duration>
						<rate>
							<timebase>30</timebase>
							<ntsc>TRUE</ntsc>
						</rate>
						<start>18960</start>
						<end>19277</end>
						<in>63553</in>
						<out>63870</out>
						<pproTicksIn>538654077561600</pproTicksIn>
						<pproTicksOut>541340864064000</pproTicksOut>
						<file id="file-21"/>
						<sourcetrack>
							<mediatype>audio</mediatype>
							<trackindex>2</trackindex>
						</sourcetrack>
						<link>
							<linkclipref>clipitem-81</linkclipref>
							<mediatype>audio</mediatype>
							<trackindex>4</trackindex>
							<clipindex>24</clipindex>
							<groupindex>1</groupindex>
						</link>
						<link>
							<linkclipref>clipitem-94</linkclipref>
							<mediatype>audio</mediatype>
							<trackindex>5</trackindex>
							<clipindex>24</clipindex>
							<groupindex>1</groupindex>
						</link>
						<logginginfo>
							<description></description>
							<scene></scene>
							<shottake></shottake>
							<lognote></lognote>
							<good></good>
							<originalvideofilename></originalvideofilename>
							<originalaudiofilename></originalaudiofilename>
						</logginginfo>
						<colorinfo>
							<lut></lut>
							<lut1></lut1>
							<asc_sop></asc_sop>
							<asc_sat></asc_sat>
							<lut2></lut2>
						</colorinfo>
						<labels>
							<label2>Violet</label2>
						</labels>
					</clipitem>
					<clipitem id="clipitem-95" premiereChannelType="stereo">
						<masterclipid>masterclip-21</masterclipid>
						<name>ZOOM0001.WAV</name>
						<enabled>TRUE</enabled>
						<duration>65051</duration>
						<rate>
							<timebase>30</timebase>
							<ntsc>TRUE</ntsc>
						</rate>
						<start>19782</start>
						<end>-1</end>
						<in>52080</in>
						<out>52286</out>
						<pproTicksIn>441412747776000</pproTicksIn>
						<pproTicksOut>443158735219200</pproTicksOut>
						<file id="file-21"/>
						<sourcetrack>
							<mediatype>audio</mediatype>
							<trackindex>2</trackindex>
						</sourcetrack>
						<link>
							<linkclipref>clipitem-82</linkclipref>
							<mediatype>audio</mediatype>
							<trackindex>4</trackindex>
							<clipindex>25</clipindex>
							<groupindex>1</groupindex>
						</link>
						<link>
							<linkclipref>clipitem-95</linkclipref>
							<mediatype>audio</mediatype>
							<trackindex>5</trackindex>
							<clipindex>25</clipindex>
							<groupindex>1</groupindex>
						</link>
						<logginginfo>
							<description></description>
							<scene></scene>
							<shottake></shottake>
							<lognote></lognote>
							<good></good>
							<originalvideofilename></originalvideofilename>
							<originalaudiofilename></originalaudiofilename>
						</logginginfo>
						<colorinfo>
							<lut></lut>
							<lut1></lut1>
							<asc_sop></asc_sop>
							<asc_sat></asc_sat>
							<lut2></lut2>
						</colorinfo>
						<labels>
							<label2>Cerulean</label2>
						</labels>
					</clipitem>
					<transitionitem>
						<start>19986</start>
						<end>19988</end>
						<alignment>end-black</alignment>
						<cutPointTicks>16951334400</cutPointTicks>
						<rate>
							<timebase>30</timebase>
							<ntsc>TRUE</ntsc>
						</rate>
						<effect>
							<name>Cross Fade (+3dB)</name>
							<effectid>KGAudioTransCrossFade3dB</effectid>
							<effecttype>transition</effecttype>
							<mediatype>audio</mediatype>
							<wipecode>0</wipecode>
							<wipeaccuracy>100</wipeaccuracy>
							<startratio>0</startratio>
							<endratio>1</endratio>
							<reverse>FALSE</reverse>
						</effect>
					</transitionitem>
					<enabled>TRUE</enabled>
					<locked>FALSE</locked>
					<outputchannelindex>2</outputchannelindex>
				</track>
				<track TL.SQTrackAudioKeyframeStyle="0" TL.SQTrackShy="0" TL.SQTrackExpandedHeight="15" TL.SQTrackExpanded="0" MZ.TrackTargeted="1" PannerCurrentValue="0" PannerStartKeyframe="-91445760000000000,0.,0,0,0,0,0,0" PannerName="Balance" currentExplodedTrackIndex="0" totalExplodedTrackCount="2" premiereTrackType="Stereo">
					<clipitem id="clipitem-96" premiereChannelType="stereo">
						<masterclipid>masterclip-27</masterclipid>
						<name>ZCAM0049_0000_201803130940.MOV</name>
						<enabled>TRUE</enabled>
						<duration>9000</duration>
						<rate>
							<timebase>30</timebase>
							<ntsc>TRUE</ntsc>
						</rate>
						<start>324</start>
						<end>2208</end>
						<in>6158</in>
						<out>8042</out>
						<pproTicksIn>52193158617600</pproTicksIn>
						<pproTicksOut>68161315622400</pproTicksOut>
						<pixelaspectratio>square</pixelaspectratio>
						<anamorphic>FALSE</anamorphic>
						<file id="file-27">
							<name>ZCAM0049_0000_201803130940.MOV</name>
							<pathurl>file://Gladiator/hd/Departments/_Post/__Projects/033_Chimps_CMP/1.Raw/Ingest/20180313/k1_01_morning/01/ZCAM0049_0000_201803130940.MOV</pathurl>
							<rate>
								<timebase>30</timebase>
								<ntsc>TRUE</ntsc>
							</rate>
							<duration>9000</duration>
							<timecode>
								<rate>
									<timebase>30</timebase>
									<ntsc>TRUE</ntsc>
								</rate>
								<string>00:00:00:00</string>
								<frame>0</frame>
								<displayformat>NDF</displayformat>
							</timecode>
							<media>
								<video>
									<samplecharacteristics>
										<rate>
											<timebase>30</timebase>
											<ntsc>TRUE</ntsc>
										</rate>
										<width>2880</width>
										<height>2880</height>
										<anamorphic>FALSE</anamorphic>
										<pixelaspectratio>square</pixelaspectratio>
										<fielddominance>none</fielddominance>
									</samplecharacteristics>
								</video>
								<audio>
									<samplecharacteristics>
										<depth>16</depth>
										<samplerate>48000</samplerate>
									</samplecharacteristics>
									<channelcount>2</channelcount>
								</audio>
							</media>
						</file>
						<sourcetrack>
							<mediatype>audio</mediatype>
							<trackindex>1</trackindex>
						</sourcetrack>
						<link>
							<linkclipref>clipitem-96</linkclipref>
							<mediatype>audio</mediatype>
							<trackindex>6</trackindex>
							<clipindex>1</clipindex>
							<groupindex>1</groupindex>
						</link>
						<link>
							<linkclipref>clipitem-112</linkclipref>
							<mediatype>audio</mediatype>
							<trackindex>7</trackindex>
							<clipindex>1</clipindex>
							<groupindex>1</groupindex>
						</link>
						<logginginfo>
							<description></description>
							<scene></scene>
							<shottake></shottake>
							<lognote></lognote>
							<good></good>
							<originalvideofilename></originalvideofilename>
							<originalaudiofilename></originalaudiofilename>
						</logginginfo>
						<colorinfo>
							<lut></lut>
							<lut1></lut1>
							<asc_sop></asc_sop>
							<asc_sat></asc_sat>
							<lut2></lut2>
						</colorinfo>
						<labels>
							<label2>Iris</label2>
						</labels>
					</clipitem>
					<clipitem id="clipitem-97" premiereChannelType="stereo">
						<masterclipid>masterclip-27</masterclipid>
						<name>ZCAM0049_0000_201803130940.MOV</name>
						<enabled>TRUE</enabled>
						<duration>9000</duration>
						<rate>
							<timebase>30</timebase>
							<ntsc>TRUE</ntsc>
						</rate>
						<start>2208</start>
						<end>2282</end>
						<in>8042</in>
						<out>8116</out>
						<pproTicksIn>68161315622400</pproTicksIn>
						<pproTicksOut>68788514995200</pproTicksOut>
						<file id="file-27"/>
						<sourcetrack>
							<mediatype>audio</mediatype>
							<trackindex>1</trackindex>
						</sourcetrack>
						<link>
							<linkclipref>clipitem-97</linkclipref>
							<mediatype>audio</mediatype>
							<trackindex>6</trackindex>
							<clipindex>2</clipindex>
							<groupindex>1</groupindex>
						</link>
						<link>
							<linkclipref>clipitem-113</linkclipref>
							<mediatype>audio</mediatype>
							<trackindex>7</trackindex>
							<clipindex>2</clipindex>
							<groupindex>1</groupindex>
						</link>
						<logginginfo>
							<description></description>
							<scene></scene>
							<shottake></shottake>
							<lognote></lognote>
							<good></good>
							<originalvideofilename></originalvideofilename>
							<originalaudiofilename></originalaudiofilename>
						</logginginfo>
						<colorinfo>
							<lut></lut>
							<lut1></lut1>
							<asc_sop></asc_sop>
							<asc_sat></asc_sat>
							<lut2></lut2>
						</colorinfo>
						<labels>
							<label2>Iris</label2>
						</labels>
					</clipitem>
					<clipitem id="clipitem-98" premiereChannelType="stereo">
						<masterclipid>masterclip-27</masterclipid>
						<name>ZCAM0049_0000_201803130940.MOV</name>
						<enabled>TRUE</enabled>
						<duration>9000</duration>
						<rate>
							<timebase>30</timebase>
							<ntsc>TRUE</ntsc>
						</rate>
						<start>2282</start>
						<end>-1</end>
						<in>8116</in>
						<out>8234</out>
						<pproTicksIn>68788514995200</pproTicksIn>
						<pproTicksOut>69788643724800</pproTicksOut>
						<file id="file-27"/>
						<sourcetrack>
							<mediatype>audio</mediatype>
							<trackindex>1</trackindex>
						</sourcetrack>
						<link>
							<linkclipref>clipitem-98</linkclipref>
							<mediatype>audio</mediatype>
							<trackindex>6</trackindex>
							<clipindex>3</clipindex>
							<groupindex>1</groupindex>
						</link>
						<link>
							<linkclipref>clipitem-114</linkclipref>
							<mediatype>audio</mediatype>
							<trackindex>7</trackindex>
							<clipindex>3</clipindex>
							<groupindex>1</groupindex>
						</link>
						<logginginfo>
							<description></description>
							<scene></scene>
							<shottake></shottake>
							<lognote></lognote>
							<good></good>
							<originalvideofilename></originalvideofilename>
							<originalaudiofilename></originalaudiofilename>
						</logginginfo>
						<colorinfo>
							<lut></lut>
							<lut1></lut1>
							<asc_sop></asc_sop>
							<asc_sat></asc_sat>
							<lut2></lut2>
						</colorinfo>
						<labels>
							<label2>Iris</label2>
						</labels>
					</clipitem>
					<transitionitem>
						<start>2398</start>
						<end>2400</end>
						<alignment>center</alignment>
						<cutPointTicks>8475667200</cutPointTicks>
						<rate>
							<timebase>30</timebase>
							<ntsc>TRUE</ntsc>
						</rate>
						<effect>
							<name>Cross Fade (+3dB)</name>
							<effectid>KGAudioTransCrossFade3dB</effectid>
							<effecttype>transition</effecttype>
							<mediatype>audio</mediatype>
							<wipecode>0</wipecode>
							<wipeaccuracy>100</wipeaccuracy>
							<startratio>0</startratio>
							<endratio>1</endratio>
							<reverse>FALSE</reverse>
						</effect>
					</transitionitem>
					<clipitem id="clipitem-99" premiereChannelType="stereo">
						<masterclipid>masterclip-27</masterclipid>
						<name>ZCAM0049_0000_201803130940.MOV</name>
						<enabled>TRUE</enabled>
						<duration>9000</duration>
						<rate>
							<timebase>30</timebase>
							<ntsc>TRUE</ntsc>
						</rate>
						<start>-1</start>
						<end>-1</end>
						<in>8012</in>
						<out>8117</out>
						<pproTicksIn>67907045606400</pproTicksIn>
						<pproTicksOut>68796990662400</pproTicksOut>
						<file id="file-27"/>
						<sourcetrack>
							<mediatype>audio</mediatype>
							<trackindex>1</trackindex>
						</sourcetrack>
						<link>
							<linkclipref>clipitem-99</linkclipref>
							<mediatype>audio</mediatype>
							<trackindex>6</trackindex>
							<clipindex>5</clipindex>
							<groupindex>1</groupindex>
						</link>
						<link>
							<linkclipref>clipitem-115</linkclipref>
							<mediatype>audio</mediatype>
							<trackindex>7</trackindex>
							<clipindex>5</clipindex>
							<groupindex>1</groupindex>
						</link>
						<logginginfo>
							<description></description>
							<scene></scene>
							<shottake></shottake>
							<lognote></lognote>
							<good></good>
							<originalvideofilename></originalvideofilename>
							<originalaudiofilename></originalaudiofilename>
						</logginginfo>
						<colorinfo>
							<lut></lut>
							<lut1></lut1>
							<asc_sop></asc_sop>
							<asc_sat></asc_sat>
							<lut2></lut2>
						</colorinfo>
						<labels>
							<label2>Iris</label2>
						</labels>
					</clipitem>
					<transitionitem>
						<start>2501</start>
						<end>2503</end>
						<alignment>center</alignment>
						<cutPointTicks>8475667200</cutPointTicks>
						<rate>
							<timebase>30</timebase>
							<ntsc>TRUE</ntsc>
						</rate>
						<effect>
							<name>Cross Fade (+3dB)</name>
							<effectid>KGAudioTransCrossFade3dB</effectid>
							<effecttype>transition</effecttype>
							<mediatype>audio</mediatype>
							<wipecode>0</wipecode>
							<wipeaccuracy>100</wipeaccuracy>
							<startratio>0</startratio>
							<endratio>1</endratio>
							<reverse>FALSE</reverse>
						</effect>
					</transitionitem>
					<clipitem id="clipitem-100" premiereChannelType="stereo">
						<masterclipid>masterclip-27</masterclipid>
						<name>ZCAM0049_0000_201803130940.MOV</name>
						<enabled>TRUE</enabled>
						<duration>9000</duration>
						<rate>
							<timebase>30</timebase>
							<ntsc>TRUE</ntsc>
						</rate>
						<start>-1</start>
						<end>2561</end>
						<in>8335</in>
						<out>8395</out>
						<pproTicksIn>70644686112000</pproTicksIn>
						<pproTicksOut>71153226144000</pproTicksOut>
						<file id="file-27"/>
						<sourcetrack>
							<mediatype>audio</mediatype>
							<trackindex>1</trackindex>
						</sourcetrack>
						<link>
							<linkclipref>clipitem-100</linkclipref>
							<mediatype>audio</mediatype>
							<trackindex>6</trackindex>
							<clipindex>7</clipindex>
							<groupindex>1</groupindex>
						</link>
						<link>
							<linkclipref>clipitem-116</linkclipref>
							<mediatype>audio</mediatype>
							<trackindex>7</trackindex>
							<clipindex>7</clipindex>
							<groupindex>1</groupindex>
						</link>
						<logginginfo>
							<description></description>
							<scene></scene>
							<shottake></shottake>
							<lognote></lognote>
							<good></good>
							<originalvideofilename></originalvideofilename>
							<originalaudiofilename></originalaudiofilename>
						</logginginfo>
						<colorinfo>
							<lut></lut>
							<lut1></lut1>
							<asc_sop></asc_sop>
							<asc_sat></asc_sat>
							<lut2></lut2>
						</colorinfo>
						<labels>
							<label2>Iris</label2>
						</labels>
					</clipitem>
					<clipitem id="clipitem-101" premiereChannelType="stereo">
						<masterclipid>masterclip-27</masterclipid>
						<name>ZCAM0049_0000_201803130940.MOV</name>
						<enabled>TRUE</enabled>
						<duration>9000</duration>
						<rate>
							<timebase>30</timebase>
							<ntsc>TRUE</ntsc>
						</rate>
						<start>2561</start>
						<end>2640</end>
						<in>8395</in>
						<out>8474</out>
						<pproTicksIn>71153226144000</pproTicksIn>
						<pproTicksOut>71822803852800</pproTicksOut>
						<file id="file-27"/>
						<sourcetrack>
							<mediatype>audio</mediatype>
							<trackindex>1</trackindex>
						</sourcetrack>
						<link>
							<linkclipref>clipitem-101</linkclipref>
							<mediatype>audio</mediatype>
							<trackindex>6</trackindex>
							<clipindex>8</clipindex>
							<groupindex>1</groupindex>
						</link>
						<link>
							<linkclipref>clipitem-117</linkclipref>
							<mediatype>audio</mediatype>
							<trackindex>7</trackindex>
							<clipindex>8</clipindex>
							<groupindex>1</groupindex>
						</link>
						<logginginfo>
							<description></description>
							<scene></scene>
							<shottake></shottake>
							<lognote></lognote>
							<good></good>
							<originalvideofilename></originalvideofilename>
							<originalaudiofilename></originalaudiofilename>
						</logginginfo>
						<colorinfo>
							<lut></lut>
							<lut1></lut1>
							<asc_sop></asc_sop>
							<asc_sat></asc_sat>
							<lut2></lut2>
						</colorinfo>
						<labels>
							<label2>Iris</label2>
						</labels>
					</clipitem>
					<clipitem id="clipitem-102" premiereChannelType="stereo">
						<masterclipid>masterclip-27</masterclipid>
						<name>ZCAM0049_0000_201803130940.MOV</name>
						<enabled>TRUE</enabled>
						<duration>9000</duration>
						<rate>
							<timebase>30</timebase>
							<ntsc>TRUE</ntsc>
						</rate>
						<start>2640</start>
						<end>3166</end>
						<in>8474</in>
						<out>9000</out>
						<pproTicksIn>71822803852800</pproTicksIn>
						<pproTicksOut>76281004800000</pproTicksOut>
						<file id="file-27"/>
						<sourcetrack>
							<mediatype>audio</mediatype>
							<trackindex>1</trackindex>
						</sourcetrack>
						<link>
							<linkclipref>clipitem-102</linkclipref>
							<mediatype>audio</mediatype>
							<trackindex>6</trackindex>
							<clipindex>9</clipindex>
							<groupindex>1</groupindex>
						</link>
						<link>
							<linkclipref>clipitem-118</linkclipref>
							<mediatype>audio</mediatype>
							<trackindex>7</trackindex>
							<clipindex>9</clipindex>
							<groupindex>1</groupindex>
						</link>
						<logginginfo>
							<description></description>
							<scene></scene>
							<shottake></shottake>
							<lognote></lognote>
							<good></good>
							<originalvideofilename></originalvideofilename>
							<originalaudiofilename></originalaudiofilename>
						</logginginfo>
						<colorinfo>
							<lut></lut>
							<lut1></lut1>
							<asc_sop></asc_sop>
							<asc_sat></asc_sat>
							<lut2></lut2>
						</colorinfo>
						<labels>
							<label2>Iris</label2>
						</labels>
					</clipitem>
					<clipitem id="clipitem-103" premiereChannelType="stereo">
						<masterclipid>masterclip-26</masterclipid>
						<name>ZCAM0050_0000_201803130940.MOV</name>
						<enabled>TRUE</enabled>
						<duration>9000</duration>
						<rate>
							<timebase>30</timebase>
							<ntsc>TRUE</ntsc>
						</rate>
						<start>3166</start>
						<end>5546</end>
						<in>0</in>
						<out>2380</out>
						<pproTicksIn>0</pproTicksIn>
						<pproTicksOut>20172087936000</pproTicksOut>
						<file id="file-26"/>
						<sourcetrack>
							<mediatype>audio</mediatype>
							<trackindex>1</trackindex>
						</sourcetrack>
						<link>
							<linkclipref>clipitem-103</linkclipref>
							<mediatype>audio</mediatype>
							<trackindex>6</trackindex>
							<clipindex>10</clipindex>
							<groupindex>1</groupindex>
						</link>
						<link>
							<linkclipref>clipitem-119</linkclipref>
							<mediatype>audio</mediatype>
							<trackindex>7</trackindex>
							<clipindex>10</clipindex>
							<groupindex>1</groupindex>
						</link>
						<logginginfo>
							<description></description>
							<scene></scene>
							<shottake></shottake>
							<lognote></lognote>
							<good></good>
							<originalvideofilename></originalvideofilename>
							<originalaudiofilename></originalaudiofilename>
						</logginginfo>
						<colorinfo>
							<lut></lut>
							<lut1></lut1>
							<asc_sop></asc_sop>
							<asc_sat></asc_sat>
							<lut2></lut2>
						</colorinfo>
						<labels>
							<label2>Iris</label2>
						</labels>
					</clipitem>
					<transitionitem>
						<start>9274</start>
						<end>9276</end>
						<alignment>start-black</alignment>
						<cutPointTicks>0</cutPointTicks>
						<rate>
							<timebase>30</timebase>
							<ntsc>TRUE</ntsc>
						</rate>
						<effect>
							<name>Cross Fade (+3dB)</name>
							<effectid>KGAudioTransCrossFade3dB</effectid>
							<effecttype>transition</effecttype>
							<mediatype>audio</mediatype>
							<wipecode>0</wipecode>
							<wipeaccuracy>100</wipeaccuracy>
							<startratio>0</startratio>
							<endratio>1</endratio>
							<reverse>FALSE</reverse>
						</effect>
					</transitionitem>
					<clipitem id="clipitem-104" premiereChannelType="stereo">
						<masterclipid>masterclip-26</masterclipid>
						<name>ZCAM0050_0000_201803130940.MOV</name>
						<enabled>TRUE</enabled>
						<duration>9000</duration>
						<rate>
							<timebase>30</timebase>
							<ntsc>TRUE</ntsc>
						</rate>
						<start>-1</start>
						<end>-1</end>
						<in>3598</in>
						<out>3971</out>
						<pproTicksIn>30495450585600</pproTicksIn>
						<pproTicksOut>33656874451200</pproTicksOut>
						<file id="file-26"/>
						<sourcetrack>
							<mediatype>audio</mediatype>
							<trackindex>1</trackindex>
						</sourcetrack>
						<link>
							<linkclipref>clipitem-104</linkclipref>
							<mediatype>audio</mediatype>
							<trackindex>6</trackindex>
							<clipindex>12</clipindex>
							<groupindex>1</groupindex>
						</link>
						<link>
							<linkclipref>clipitem-120</linkclipref>
							<mediatype>audio</mediatype>
							<trackindex>7</trackindex>
							<clipindex>12</clipindex>
							<groupindex>1</groupindex>
						</link>
						<logginginfo>
							<description></description>
							<scene></scene>
							<shottake></shottake>
							<lognote></lognote>
							<good></good>
							<originalvideofilename></originalvideofilename>
							<originalaudiofilename></originalaudiofilename>
						</logginginfo>
						<colorinfo>
							<lut></lut>
							<lut1></lut1>
							<asc_sop></asc_sop>
							<asc_sat></asc_sat>
							<lut2></lut2>
						</colorinfo>
						<labels>
							<label2>Iris</label2>
						</labels>
					</clipitem>
					<transitionitem>
						<start>9645</start>
						<end>9647</end>
						<alignment>end-black</alignment>
						<cutPointTicks>16951334400</cutPointTicks>
						<rate>
							<timebase>30</timebase>
							<ntsc>TRUE</ntsc>
						</rate>
						<effect>
							<name>Cross Fade (+3dB)</name>
							<effectid>KGAudioTransCrossFade3dB</effectid>
							<effecttype>transition</effecttype>
							<mediatype>audio</mediatype>
							<wipecode>0</wipecode>
							<wipeaccuracy>100</wipeaccuracy>
							<startratio>0</startratio>
							<endratio>1</endratio>
							<reverse>FALSE</reverse>
						</effect>
					</transitionitem>
					<transitionitem>
						<start>10206</start>
						<end>10208</end>
						<alignment>start-black</alignment>
						<cutPointTicks>0</cutPointTicks>
						<rate>
							<timebase>30</timebase>
							<ntsc>TRUE</ntsc>
						</rate>
						<effect>
							<name>Cross Fade (+3dB)</name>
							<effectid>KGAudioTransCrossFade3dB</effectid>
							<effecttype>transition</effecttype>
							<mediatype>audio</mediatype>
							<wipecode>0</wipecode>
							<wipeaccuracy>100</wipeaccuracy>
							<startratio>0</startratio>
							<endratio>1</endratio>
							<reverse>FALSE</reverse>
						</effect>
					</transitionitem>
					<clipitem id="clipitem-105" premiereChannelType="stereo">
						<masterclipid>masterclip-26</masterclipid>
						<name>ZCAM0050_0000_201803130940.MOV</name>
						<enabled>TRUE</enabled>
						<duration>9000</duration>
						<rate>
							<timebase>30</timebase>
							<ntsc>TRUE</ntsc>
						</rate>
						<start>-1</start>
						<end>11338</end>
						<in>4384</in>
						<out>5516</out>
						<pproTicksIn>37157325004800</pproTicksIn>
						<pproTicksOut>46751780275200</pproTicksOut>
						<file id="file-26"/>
						<sourcetrack>
							<mediatype>audio</mediatype>
							<trackindex>1</trackindex>
						</sourcetrack>
						<link>
							<linkclipref>clipitem-105</linkclipref>
							<mediatype>audio</mediatype>
							<trackindex>6</trackindex>
							<clipindex>15</clipindex>
							<groupindex>1</groupindex>
						</link>
						<link>
							<linkclipref>clipitem-121</linkclipref>
							<mediatype>audio</mediatype>
							<trackindex>7</trackindex>
							<clipindex>15</clipindex>
							<groupindex>1</groupindex>
						</link>
						<logginginfo>
							<description></description>
							<scene></scene>
							<shottake></shottake>
							<lognote></lognote>
							<good></good>
							<originalvideofilename></originalvideofilename>
							<originalaudiofilename></originalaudiofilename>
						</logginginfo>
						<colorinfo>
							<lut></lut>
							<lut1></lut1>
							<asc_sop></asc_sop>
							<asc_sat></asc_sat>
							<lut2></lut2>
						</colorinfo>
						<labels>
							<label2>Iris</label2>
						</labels>
					</clipitem>
					<clipitem id="clipitem-106" premiereChannelType="stereo">
						<masterclipid>masterclip-28</masterclipid>
						<name>Shot7.mp4</name>
						<enabled>TRUE</enabled>
						<duration>9000</duration>
						<rate>
							<timebase>30</timebase>
							<ntsc>TRUE</ntsc>
						</rate>
						<start>12477</start>
						<end>-1</end>
						<in>7770</in>
						<out>8643</out>
						<pproTicksIn>65855934144000</pproTicksIn>
						<pproTicksOut>73255191609600</pproTicksOut>
						<pixelaspectratio>square</pixelaspectratio>
						<anamorphic>FALSE</anamorphic>
						<file id="file-28">
							<name>Shot7.mp4</name>
							<pathurl>file://Gladiator/hd/Departments/_Post/__Projects/033_Chimps_CMP/5.Stitches/Preview%20Stitch/20180313/k1_01/Shot7/Shot7.mp4</pathurl>
							<rate>
								<timebase>30</timebase>
								<ntsc>TRUE</ntsc>
							</rate>
							<duration>9000</duration>
							<timecode>
								<rate>
									<timebase>30</timebase>
									<ntsc>TRUE</ntsc>
								</rate>
								<string>00:00:00:00</string>
								<frame>0</frame>
								<displayformat>NDF</displayformat>
							</timecode>
							<media>
								<video>
									<samplecharacteristics>
										<rate>
											<timebase>30</timebase>
											<ntsc>TRUE</ntsc>
										</rate>
										<width>5760</width>
										<height>2880</height>
										<anamorphic>FALSE</anamorphic>
										<pixelaspectratio>square</pixelaspectratio>
										<fielddominance>none</fielddominance>
									</samplecharacteristics>
								</video>
								<audio>
									<samplecharacteristics>
										<depth>16</depth>
										<samplerate>48000</samplerate>
									</samplecharacteristics>
									<channelcount>2</channelcount>
								</audio>
							</media>
						</file>
						<sourcetrack>
							<mediatype>audio</mediatype>
							<trackindex>1</trackindex>
						</sourcetrack>
						<link>
							<linkclipref>clipitem-106</linkclipref>
							<mediatype>audio</mediatype>
							<trackindex>6</trackindex>
							<clipindex>16</clipindex>
							<groupindex>1</groupindex>
						</link>
						<link>
							<linkclipref>clipitem-122</linkclipref>
							<mediatype>audio</mediatype>
							<trackindex>7</trackindex>
							<clipindex>16</clipindex>
							<groupindex>1</groupindex>
						</link>
						<logginginfo>
							<description></description>
							<scene></scene>
							<shottake></shottake>
							<lognote></lognote>
							<good></good>
							<originalvideofilename></originalvideofilename>
							<originalaudiofilename></originalaudiofilename>
						</logginginfo>
						<colorinfo>
							<lut></lut>
							<lut1></lut1>
							<asc_sop></asc_sop>
							<asc_sat></asc_sat>
							<lut2></lut2>
						</colorinfo>
						<labels>
							<label2>Iris</label2>
						</labels>
					</clipitem>
					<transitionitem>
						<start>13348</start>
						<end>13350</end>
						<alignment>end-black</alignment>
						<cutPointTicks>16951334400</cutPointTicks>
						<rate>
							<timebase>30</timebase>
							<ntsc>TRUE</ntsc>
						</rate>
						<effect>
							<name>Cross Fade (+3dB)</name>
							<effectid>KGAudioTransCrossFade3dB</effectid>
							<effecttype>transition</effecttype>
							<mediatype>audio</mediatype>
							<wipecode>0</wipecode>
							<wipeaccuracy>100</wipeaccuracy>
							<startratio>0</startratio>
							<endratio>1</endratio>
							<reverse>FALSE</reverse>
						</effect>
					</transitionitem>
					<clipitem id="clipitem-107" premiereChannelType="stereo">
						<masterclipid>masterclip-25</masterclipid>
						<name>ZOOM0001.WAV</name>
						<enabled>TRUE</enabled>
						<duration>140485</duration>
						<rate>
							<timebase>30</timebase>
							<ntsc>TRUE</ntsc>
						</rate>
						<start>17897</start>
						<end>18045</end>
						<in>69786</in>
						<out>69934</out>
						<pproTicksIn>591482911219200</pproTicksIn>
						<pproTicksOut>592737309964800</pproTicksOut>
						<file id="file-25"/>
						<sourcetrack>
							<mediatype>audio</mediatype>
							<trackindex>1</trackindex>
						</sourcetrack>
						<link>
							<linkclipref>clipitem-107</linkclipref>
							<mediatype>audio</mediatype>
							<trackindex>6</trackindex>
							<clipindex>18</clipindex>
							<groupindex>1</groupindex>
						</link>
						<link>
							<linkclipref>clipitem-123</linkclipref>
							<mediatype>audio</mediatype>
							<trackindex>7</trackindex>
							<clipindex>18</clipindex>
							<groupindex>1</groupindex>
						</link>
						<logginginfo>
							<description></description>
							<scene></scene>
							<shottake></shottake>
							<lognote></lognote>
							<good></good>
							<originalvideofilename></originalvideofilename>
							<originalaudiofilename></originalaudiofilename>
						</logginginfo>
						<colorinfo>
							<lut></lut>
							<lut1></lut1>
							<asc_sop></asc_sop>
							<asc_sat></asc_sat>
							<lut2></lut2>
						</colorinfo>
						<labels>
							<label2>Violet</label2>
						</labels>
					</clipitem>
					<transitionitem>
						<start>18055</start>
						<end>18057</end>
						<alignment>start-black</alignment>
						<cutPointTicks>0</cutPointTicks>
						<rate>
							<timebase>30</timebase>
							<ntsc>TRUE</ntsc>
						</rate>
						<effect>
							<name>Cross Fade (+3dB)</name>
							<effectid>KGAudioTransCrossFade3dB</effectid>
							<effecttype>transition</effecttype>
							<mediatype>audio</mediatype>
							<wipecode>0</wipecode>
							<wipeaccuracy>100</wipeaccuracy>
							<startratio>0</startratio>
							<endratio>1</endratio>
							<reverse>FALSE</reverse>
						</effect>
					</transitionitem>
					<clipitem id="clipitem-108" premiereChannelType="stereo">
						<masterclipid>masterclip-25</masterclipid>
						<name>ZOOM0001.WAV</name>
						<enabled>TRUE</enabled>
						<duration>140485</duration>
						<rate>
							<timebase>30</timebase>
							<ntsc>TRUE</ntsc>
						</rate>
						<start>-1</start>
						<end>-1</end>
						<in>56828</in>
						<out>56945</out>
						<pproTicksIn>481655215641600</pproTicksIn>
						<pproTicksOut>482646868704000</pproTicksOut>
						<file id="file-25"/>
						<sourcetrack>
							<mediatype>audio</mediatype>
							<trackindex>1</trackindex>
						</sourcetrack>
						<link>
							<linkclipref>clipitem-108</linkclipref>
							<mediatype>audio</mediatype>
							<trackindex>6</trackindex>
							<clipindex>20</clipindex>
							<groupindex>1</groupindex>
						</link>
						<link>
							<linkclipref>clipitem-124</linkclipref>
							<mediatype>audio</mediatype>
							<trackindex>7</trackindex>
							<clipindex>20</clipindex>
							<groupindex>1</groupindex>
						</link>
						<logginginfo>
							<description></description>
							<scene></scene>
							<shottake></shottake>
							<lognote></lognote>
							<good></good>
							<originalvideofilename></originalvideofilename>
							<originalaudiofilename></originalaudiofilename>
						</logginginfo>
						<colorinfo>
							<lut></lut>
							<lut1></lut1>
							<asc_sop></asc_sop>
							<asc_sat></asc_sat>
							<lut2></lut2>
						</colorinfo>
						<labels>
							<label2>Mango</label2>
						</labels>
					</clipitem>
					<transitionitem>
						<start>18170</start>
						<end>18172</end>
						<alignment>end-black</alignment>
						<cutPointTicks>16951334400</cutPointTicks>
						<rate>
							<timebase>30</timebase>
							<ntsc>TRUE</ntsc>
						</rate>
						<effect>
							<name>Cross Fade (+3dB)</name>
							<effectid>KGAudioTransCrossFade3dB</effectid>
							<effecttype>transition</effecttype>
							<mediatype>audio</mediatype>
							<wipecode>0</wipecode>
							<wipeaccuracy>100</wipeaccuracy>
							<startratio>0</startratio>
							<endratio>1</endratio>
							<reverse>FALSE</reverse>
						</effect>
					</transitionitem>
					<clipitem id="clipitem-109" premiereChannelType="stereo">
						<masterclipid>masterclip-25</masterclipid>
						<name>ZOOM0001.WAV</name>
						<enabled>TRUE</enabled>
						<duration>140485</duration>
						<rate>
							<timebase>30</timebase>
							<ntsc>TRUE</ntsc>
						</rate>
						<start>18540</start>
						<end>18583</end>
						<in>70806</in>
						<out>70849</out>
						<pproTicksIn>600128091763200</pproTicksIn>
						<pproTicksOut>600492545452800</pproTicksOut>
						<file id="file-25"/>
						<sourcetrack>
							<mediatype>audio</mediatype>
							<trackindex>1</trackindex>
						</sourcetrack>
						<link>
							<linkclipref>clipitem-109</linkclipref>
							<mediatype>audio</mediatype>
							<trackindex>6</trackindex>
							<clipindex>22</clipindex>
							<groupindex>1</groupindex>
						</link>
						<link>
							<linkclipref>clipitem-125</linkclipref>
							<mediatype>audio</mediatype>
							<trackindex>7</trackindex>
							<clipindex>22</clipindex>
							<groupindex>1</groupindex>
						</link>
						<logginginfo>
							<description></description>
							<scene></scene>
							<shottake></shottake>
							<lognote></lognote>
							<good></good>
							<originalvideofilename></originalvideofilename>
							<originalaudiofilename></originalaudiofilename>
						</logginginfo>
						<colorinfo>
							<lut></lut>
							<lut1></lut1>
							<asc_sop></asc_sop>
							<asc_sat></asc_sat>
							<lut2></lut2>
						</colorinfo>
						<labels>
							<label2>Violet</label2>
						</labels>
					</clipitem>
					<clipitem id="clipitem-110" premiereChannelType="stereo">
						<masterclipid>masterclip-25</masterclipid>
						<name>ZOOM0001.WAV</name>
						<enabled>TRUE</enabled>
						<duration>140485</duration>
						<rate>
							<timebase>30</timebase>
							<ntsc>TRUE</ntsc>
						</rate>
						<start>18960</start>
						<end>19277</end>
						<in>70849</in>
						<out>71166</out>
						<pproTicksIn>600492545452800</pproTicksIn>
						<pproTicksOut>603179331955200</pproTicksOut>
						<file id="file-25"/>
						<sourcetrack>
							<mediatype>audio</mediatype>
							<trackindex>1</trackindex>
						</sourcetrack>
						<link>
							<linkclipref>clipitem-110</linkclipref>
							<mediatype>audio</mediatype>
							<trackindex>6</trackindex>
							<clipindex>23</clipindex>
							<groupindex>1</groupindex>
						</link>
						<link>
							<linkclipref>clipitem-126</linkclipref>
							<mediatype>audio</mediatype>
							<trackindex>7</trackindex>
							<clipindex>23</clipindex>
							<groupindex>1</groupindex>
						</link>
						<logginginfo>
							<description></description>
							<scene></scene>
							<shottake></shottake>
							<lognote></lognote>
							<good></good>
							<originalvideofilename></originalvideofilename>
							<originalaudiofilename></originalaudiofilename>
						</logginginfo>
						<colorinfo>
							<lut></lut>
							<lut1></lut1>
							<asc_sop></asc_sop>
							<asc_sat></asc_sat>
							<lut2></lut2>
						</colorinfo>
						<labels>
							<label2>Violet</label2>
						</labels>
					</clipitem>
					<clipitem id="clipitem-111" premiereChannelType="stereo">
						<masterclipid>masterclip-25</masterclipid>
						<name>ZOOM0001.WAV</name>
						<enabled>TRUE</enabled>
						<duration>140485</duration>
						<rate>
							<timebase>30</timebase>
							<ntsc>TRUE</ntsc>
						</rate>
						<start>19782</start>
						<end>-1</end>
						<in>59376</in>
						<out>59582</out>
						<pproTicksIn>503251215667200</pproTicksIn>
						<pproTicksOut>504997203110400</pproTicksOut>
						<file id="file-25"/>
						<sourcetrack>
							<mediatype>audio</mediatype>
							<trackindex>1</trackindex>
						</sourcetrack>
						<link>
							<linkclipref>clipitem-111</linkclipref>
							<mediatype>audio</mediatype>
							<trackindex>6</trackindex>
							<clipindex>24</clipindex>
							<groupindex>1</groupindex>
						</link>
						<link>
							<linkclipref>clipitem-127</linkclipref>
							<mediatype>audio</mediatype>
							<trackindex>7</trackindex>
							<clipindex>24</clipindex>
							<groupindex>1</groupindex>
						</link>
						<logginginfo>
							<description></description>
							<scene></scene>
							<shottake></shottake>
							<lognote></lognote>
							<good></good>
							<originalvideofilename></originalvideofilename>
							<originalaudiofilename></originalaudiofilename>
						</logginginfo>
						<colorinfo>
							<lut></lut>
							<lut1></lut1>
							<asc_sop></asc_sop>
							<asc_sat></asc_sat>
							<lut2></lut2>
						</colorinfo>
						<labels>
							<label2>Cerulean</label2>
						</labels>
					</clipitem>
					<transitionitem>
						<start>19986</start>
						<end>19988</end>
						<alignment>end-black</alignment>
						<cutPointTicks>16951334400</cutPointTicks>
						<rate>
							<timebase>30</timebase>
							<ntsc>TRUE</ntsc>
						</rate>
						<effect>
							<name>Cross Fade (+3dB)</name>
							<effectid>KGAudioTransCrossFade3dB</effectid>
							<effecttype>transition</effecttype>
							<mediatype>audio</mediatype>
							<wipecode>0</wipecode>
							<wipeaccuracy>100</wipeaccuracy>
							<startratio>0</startratio>
							<endratio>1</endratio>
							<reverse>FALSE</reverse>
						</effect>
					</transitionitem>
					<enabled>TRUE</enabled>
					<locked>FALSE</locked>
					<outputchannelindex>1</outputchannelindex>
				</track>
				<track TL.SQTrackAudioKeyframeStyle="0" TL.SQTrackShy="0" TL.SQTrackExpandedHeight="15" TL.SQTrackExpanded="0" MZ.TrackTargeted="1" PannerCurrentValue="0" PannerStartKeyframe="-91445760000000000,0.,0,0,0,0,0,0" PannerName="Balance" currentExplodedTrackIndex="1" totalExplodedTrackCount="2" premiereTrackType="Stereo">
					<clipitem id="clipitem-112" premiereChannelType="stereo">
						<masterclipid>masterclip-27</masterclipid>
						<name>ZCAM0049_0000_201803130940.MOV</name>
						<enabled>TRUE</enabled>
						<duration>9000</duration>
						<rate>
							<timebase>30</timebase>
							<ntsc>TRUE</ntsc>
						</rate>
						<start>324</start>
						<end>2208</end>
						<in>6158</in>
						<out>8042</out>
						<pproTicksIn>52193158617600</pproTicksIn>
						<pproTicksOut>68161315622400</pproTicksOut>
						<file id="file-27"/>
						<sourcetrack>
							<mediatype>audio</mediatype>
							<trackindex>2</trackindex>
						</sourcetrack>
						<link>
							<linkclipref>clipitem-96</linkclipref>
							<mediatype>audio</mediatype>
							<trackindex>6</trackindex>
							<clipindex>1</clipindex>
							<groupindex>1</groupindex>
						</link>
						<link>
							<linkclipref>clipitem-112</linkclipref>
							<mediatype>audio</mediatype>
							<trackindex>7</trackindex>
							<clipindex>1</clipindex>
							<groupindex>1</groupindex>
						</link>
						<logginginfo>
							<description></description>
							<scene></scene>
							<shottake></shottake>
							<lognote></lognote>
							<good></good>
							<originalvideofilename></originalvideofilename>
							<originalaudiofilename></originalaudiofilename>
						</logginginfo>
						<colorinfo>
							<lut></lut>
							<lut1></lut1>
							<asc_sop></asc_sop>
							<asc_sat></asc_sat>
							<lut2></lut2>
						</colorinfo>
						<labels>
							<label2>Iris</label2>
						</labels>
					</clipitem>
					<clipitem id="clipitem-113" premiereChannelType="stereo">
						<masterclipid>masterclip-27</masterclipid>
						<name>ZCAM0049_0000_201803130940.MOV</name>
						<enabled>TRUE</enabled>
						<duration>9000</duration>
						<rate>
							<timebase>30</timebase>
							<ntsc>TRUE</ntsc>
						</rate>
						<start>2208</start>
						<end>2282</end>
						<in>8042</in>
						<out>8116</out>
						<pproTicksIn>68161315622400</pproTicksIn>
						<pproTicksOut>68788514995200</pproTicksOut>
						<file id="file-27"/>
						<sourcetrack>
							<mediatype>audio</mediatype>
							<trackindex>2</trackindex>
						</sourcetrack>
						<link>
							<linkclipref>clipitem-97</linkclipref>
							<mediatype>audio</mediatype>
							<trackindex>6</trackindex>
							<clipindex>2</clipindex>
							<groupindex>1</groupindex>
						</link>
						<link>
							<linkclipref>clipitem-113</linkclipref>
							<mediatype>audio</mediatype>
							<trackindex>7</trackindex>
							<clipindex>2</clipindex>
							<groupindex>1</groupindex>
						</link>
						<logginginfo>
							<description></description>
							<scene></scene>
							<shottake></shottake>
							<lognote></lognote>
							<good></good>
							<originalvideofilename></originalvideofilename>
							<originalaudiofilename></originalaudiofilename>
						</logginginfo>
						<colorinfo>
							<lut></lut>
							<lut1></lut1>
							<asc_sop></asc_sop>
							<asc_sat></asc_sat>
							<lut2></lut2>
						</colorinfo>
						<labels>
							<label2>Iris</label2>
						</labels>
					</clipitem>
					<clipitem id="clipitem-114" premiereChannelType="stereo">
						<masterclipid>masterclip-27</masterclipid>
						<name>ZCAM0049_0000_201803130940.MOV</name>
						<enabled>TRUE</enabled>
						<duration>9000</duration>
						<rate>
							<timebase>30</timebase>
							<ntsc>TRUE</ntsc>
						</rate>
						<start>2282</start>
						<end>-1</end>
						<in>8116</in>
						<out>8234</out>
						<pproTicksIn>68788514995200</pproTicksIn>
						<pproTicksOut>69788643724800</pproTicksOut>
						<file id="file-27"/>
						<sourcetrack>
							<mediatype>audio</mediatype>
							<trackindex>2</trackindex>
						</sourcetrack>
						<link>
							<linkclipref>clipitem-98</linkclipref>
							<mediatype>audio</mediatype>
							<trackindex>6</trackindex>
							<clipindex>3</clipindex>
							<groupindex>1</groupindex>
						</link>
						<link>
							<linkclipref>clipitem-114</linkclipref>
							<mediatype>audio</mediatype>
							<trackindex>7</trackindex>
							<clipindex>3</clipindex>
							<groupindex>1</groupindex>
						</link>
						<logginginfo>
							<description></description>
							<scene></scene>
							<shottake></shottake>
							<lognote></lognote>
							<good></good>
							<originalvideofilename></originalvideofilename>
							<originalaudiofilename></originalaudiofilename>
						</logginginfo>
						<colorinfo>
							<lut></lut>
							<lut1></lut1>
							<asc_sop></asc_sop>
							<asc_sat></asc_sat>
							<lut2></lut2>
						</colorinfo>
						<labels>
							<label2>Iris</label2>
						</labels>
					</clipitem>
					<transitionitem>
						<start>2398</start>
						<end>2400</end>
						<alignment>center</alignment>
						<cutPointTicks>8475667200</cutPointTicks>
						<rate>
							<timebase>30</timebase>
							<ntsc>TRUE</ntsc>
						</rate>
						<effect>
							<name>Cross Fade (+3dB)</name>
							<effectid>KGAudioTransCrossFade3dB</effectid>
							<effecttype>transition</effecttype>
							<mediatype>audio</mediatype>
							<wipecode>0</wipecode>
							<wipeaccuracy>100</wipeaccuracy>
							<startratio>0</startratio>
							<endratio>1</endratio>
							<reverse>FALSE</reverse>
						</effect>
					</transitionitem>
					<clipitem id="clipitem-115" premiereChannelType="stereo">
						<masterclipid>masterclip-27</masterclipid>
						<name>ZCAM0049_0000_201803130940.MOV</name>
						<enabled>TRUE</enabled>
						<duration>9000</duration>
						<rate>
							<timebase>30</timebase>
							<ntsc>TRUE</ntsc>
						</rate>
						<start>-1</start>
						<end>-1</end>
						<in>8012</in>
						<out>8117</out>
						<pproTicksIn>67907045606400</pproTicksIn>
						<pproTicksOut>68796990662400</pproTicksOut>
						<file id="file-27"/>
						<sourcetrack>
							<mediatype>audio</mediatype>
							<trackindex>2</trackindex>
						</sourcetrack>
						<link>
							<linkclipref>clipitem-99</linkclipref>
							<mediatype>audio</mediatype>
							<trackindex>6</trackindex>
							<clipindex>5</clipindex>
							<groupindex>1</groupindex>
						</link>
						<link>
							<linkclipref>clipitem-115</linkclipref>
							<mediatype>audio</mediatype>
							<trackindex>7</trackindex>
							<clipindex>5</clipindex>
							<groupindex>1</groupindex>
						</link>
						<logginginfo>
							<description></description>
							<scene></scene>
							<shottake></shottake>
							<lognote></lognote>
							<good></good>
							<originalvideofilename></originalvideofilename>
							<originalaudiofilename></originalaudiofilename>
						</logginginfo>
						<colorinfo>
							<lut></lut>
							<lut1></lut1>
							<asc_sop></asc_sop>
							<asc_sat></asc_sat>
							<lut2></lut2>
						</colorinfo>
						<labels>
							<label2>Iris</label2>
						</labels>
					</clipitem>
					<transitionitem>
						<start>2501</start>
						<end>2503</end>
						<alignment>center</alignment>
						<cutPointTicks>8475667200</cutPointTicks>
						<rate>
							<timebase>30</timebase>
							<ntsc>TRUE</ntsc>
						</rate>
						<effect>
							<name>Cross Fade (+3dB)</name>
							<effectid>KGAudioTransCrossFade3dB</effectid>
							<effecttype>transition</effecttype>
							<mediatype>audio</mediatype>
							<wipecode>0</wipecode>
							<wipeaccuracy>100</wipeaccuracy>
							<startratio>0</startratio>
							<endratio>1</endratio>
							<reverse>FALSE</reverse>
						</effect>
					</transitionitem>
					<clipitem id="clipitem-116" premiereChannelType="stereo">
						<masterclipid>masterclip-27</masterclipid>
						<name>ZCAM0049_0000_201803130940.MOV</name>
						<enabled>TRUE</enabled>
						<duration>9000</duration>
						<rate>
							<timebase>30</timebase>
							<ntsc>TRUE</ntsc>
						</rate>
						<start>-1</start>
						<end>2561</end>
						<in>8335</in>
						<out>8395</out>
						<pproTicksIn>70644686112000</pproTicksIn>
						<pproTicksOut>71153226144000</pproTicksOut>
						<file id="file-27"/>
						<sourcetrack>
							<mediatype>audio</mediatype>
							<trackindex>2</trackindex>
						</sourcetrack>
						<link>
							<linkclipref>clipitem-100</linkclipref>
							<mediatype>audio</mediatype>
							<trackindex>6</trackindex>
							<clipindex>7</clipindex>
							<groupindex>1</groupindex>
						</link>
						<link>
							<linkclipref>clipitem-116</linkclipref>
							<mediatype>audio</mediatype>
							<trackindex>7</trackindex>
							<clipindex>7</clipindex>
							<groupindex>1</groupindex>
						</link>
						<logginginfo>
							<description></description>
							<scene></scene>
							<shottake></shottake>
							<lognote></lognote>
							<good></good>
							<originalvideofilename></originalvideofilename>
							<originalaudiofilename></originalaudiofilename>
						</logginginfo>
						<colorinfo>
							<lut></lut>
							<lut1></lut1>
							<asc_sop></asc_sop>
							<asc_sat></asc_sat>
							<lut2></lut2>
						</colorinfo>
						<labels>
							<label2>Iris</label2>
						</labels>
					</clipitem>
					<clipitem id="clipitem-117" premiereChannelType="stereo">
						<masterclipid>masterclip-27</masterclipid>
						<name>ZCAM0049_0000_201803130940.MOV</name>
						<enabled>TRUE</enabled>
						<duration>9000</duration>
						<rate>
							<timebase>30</timebase>
							<ntsc>TRUE</ntsc>
						</rate>
						<start>2561</start>
						<end>2640</end>
						<in>8395</in>
						<out>8474</out>
						<pproTicksIn>71153226144000</pproTicksIn>
						<pproTicksOut>71822803852800</pproTicksOut>
						<file id="file-27"/>
						<sourcetrack>
							<mediatype>audio</mediatype>
							<trackindex>2</trackindex>
						</sourcetrack>
						<link>
							<linkclipref>clipitem-101</linkclipref>
							<mediatype>audio</mediatype>
							<trackindex>6</trackindex>
							<clipindex>8</clipindex>
							<groupindex>1</groupindex>
						</link>
						<link>
							<linkclipref>clipitem-117</linkclipref>
							<mediatype>audio</mediatype>
							<trackindex>7</trackindex>
							<clipindex>8</clipindex>
							<groupindex>1</groupindex>
						</link>
						<logginginfo>
							<description></description>
							<scene></scene>
							<shottake></shottake>
							<lognote></lognote>
							<good></good>
							<originalvideofilename></originalvideofilename>
							<originalaudiofilename></originalaudiofilename>
						</logginginfo>
						<colorinfo>
							<lut></lut>
							<lut1></lut1>
							<asc_sop></asc_sop>
							<asc_sat></asc_sat>
							<lut2></lut2>
						</colorinfo>
						<labels>
							<label2>Iris</label2>
						</labels>
					</clipitem>
					<clipitem id="clipitem-118" premiereChannelType="stereo">
						<masterclipid>masterclip-27</masterclipid>
						<name>ZCAM0049_0000_201803130940.MOV</name>
						<enabled>TRUE</enabled>
						<duration>9000</duration>
						<rate>
							<timebase>30</timebase>
							<ntsc>TRUE</ntsc>
						</rate>
						<start>2640</start>
						<end>3166</end>
						<in>8474</in>
						<out>9000</out>
						<pproTicksIn>71822803852800</pproTicksIn>
						<pproTicksOut>76281004800000</pproTicksOut>
						<file id="file-27"/>
						<sourcetrack>
							<mediatype>audio</mediatype>
							<trackindex>2</trackindex>
						</sourcetrack>
						<link>
							<linkclipref>clipitem-102</linkclipref>
							<mediatype>audio</mediatype>
							<trackindex>6</trackindex>
							<clipindex>9</clipindex>
							<groupindex>1</groupindex>
						</link>
						<link>
							<linkclipref>clipitem-118</linkclipref>
							<mediatype>audio</mediatype>
							<trackindex>7</trackindex>
							<clipindex>9</clipindex>
							<groupindex>1</groupindex>
						</link>
						<logginginfo>
							<description></description>
							<scene></scene>
							<shottake></shottake>
							<lognote></lognote>
							<good></good>
							<originalvideofilename></originalvideofilename>
							<originalaudiofilename></originalaudiofilename>
						</logginginfo>
						<colorinfo>
							<lut></lut>
							<lut1></lut1>
							<asc_sop></asc_sop>
							<asc_sat></asc_sat>
							<lut2></lut2>
						</colorinfo>
						<labels>
							<label2>Iris</label2>
						</labels>
					</clipitem>
					<clipitem id="clipitem-119" premiereChannelType="stereo">
						<masterclipid>masterclip-26</masterclipid>
						<name>ZCAM0050_0000_201803130940.MOV</name>
						<enabled>TRUE</enabled>
						<duration>9000</duration>
						<rate>
							<timebase>30</timebase>
							<ntsc>TRUE</ntsc>
						</rate>
						<start>3166</start>
						<end>5546</end>
						<in>0</in>
						<out>2380</out>
						<pproTicksIn>0</pproTicksIn>
						<pproTicksOut>20172087936000</pproTicksOut>
						<file id="file-26"/>
						<sourcetrack>
							<mediatype>audio</mediatype>
							<trackindex>2</trackindex>
						</sourcetrack>
						<link>
							<linkclipref>clipitem-103</linkclipref>
							<mediatype>audio</mediatype>
							<trackindex>6</trackindex>
							<clipindex>10</clipindex>
							<groupindex>1</groupindex>
						</link>
						<link>
							<linkclipref>clipitem-119</linkclipref>
							<mediatype>audio</mediatype>
							<trackindex>7</trackindex>
							<clipindex>10</clipindex>
							<groupindex>1</groupindex>
						</link>
						<logginginfo>
							<description></description>
							<scene></scene>
							<shottake></shottake>
							<lognote></lognote>
							<good></good>
							<originalvideofilename></originalvideofilename>
							<originalaudiofilename></originalaudiofilename>
						</logginginfo>
						<colorinfo>
							<lut></lut>
							<lut1></lut1>
							<asc_sop></asc_sop>
							<asc_sat></asc_sat>
							<lut2></lut2>
						</colorinfo>
						<labels>
							<label2>Iris</label2>
						</labels>
					</clipitem>
					<transitionitem>
						<start>9274</start>
						<end>9276</end>
						<alignment>start-black</alignment>
						<cutPointTicks>0</cutPointTicks>
						<rate>
							<timebase>30</timebase>
							<ntsc>TRUE</ntsc>
						</rate>
						<effect>
							<name>Cross Fade (+3dB)</name>
							<effectid>KGAudioTransCrossFade3dB</effectid>
							<effecttype>transition</effecttype>
							<mediatype>audio</mediatype>
							<wipecode>0</wipecode>
							<wipeaccuracy>100</wipeaccuracy>
							<startratio>0</startratio>
							<endratio>1</endratio>
							<reverse>FALSE</reverse>
						</effect>
					</transitionitem>
					<clipitem id="clipitem-120" premiereChannelType="stereo">
						<masterclipid>masterclip-26</masterclipid>
						<name>ZCAM0050_0000_201803130940.MOV</name>
						<enabled>TRUE</enabled>
						<duration>9000</duration>
						<rate>
							<timebase>30</timebase>
							<ntsc>TRUE</ntsc>
						</rate>
						<start>-1</start>
						<end>-1</end>
						<in>3598</in>
						<out>3971</out>
						<pproTicksIn>30495450585600</pproTicksIn>
						<pproTicksOut>33656874451200</pproTicksOut>
						<file id="file-26"/>
						<sourcetrack>
							<mediatype>audio</mediatype>
							<trackindex>2</trackindex>
						</sourcetrack>
						<link>
							<linkclipref>clipitem-104</linkclipref>
							<mediatype>audio</mediatype>
							<trackindex>6</trackindex>
							<clipindex>12</clipindex>
							<groupindex>1</groupindex>
						</link>
						<link>
							<linkclipref>clipitem-120</linkclipref>
							<mediatype>audio</mediatype>
							<trackindex>7</trackindex>
							<clipindex>12</clipindex>
							<groupindex>1</groupindex>
						</link>
						<logginginfo>
							<description></description>
							<scene></scene>
							<shottake></shottake>
							<lognote></lognote>
							<good></good>
							<originalvideofilename></originalvideofilename>
							<originalaudiofilename></originalaudiofilename>
						</logginginfo>
						<colorinfo>
							<lut></lut>
							<lut1></lut1>
							<asc_sop></asc_sop>
							<asc_sat></asc_sat>
							<lut2></lut2>
						</colorinfo>
						<labels>
							<label2>Iris</label2>
						</labels>
					</clipitem>
					<transitionitem>
						<start>9645</start>
						<end>9647</end>
						<alignment>end-black</alignment>
						<cutPointTicks>16951334400</cutPointTicks>
						<rate>
							<timebase>30</timebase>
							<ntsc>TRUE</ntsc>
						</rate>
						<effect>
							<name>Cross Fade (+3dB)</name>
							<effectid>KGAudioTransCrossFade3dB</effectid>
							<effecttype>transition</effecttype>
							<mediatype>audio</mediatype>
							<wipecode>0</wipecode>
							<wipeaccuracy>100</wipeaccuracy>
							<startratio>0</startratio>
							<endratio>1</endratio>
							<reverse>FALSE</reverse>
						</effect>
					</transitionitem>
					<transitionitem>
						<start>10206</start>
						<end>10208</end>
						<alignment>start-black</alignment>
						<cutPointTicks>0</cutPointTicks>
						<rate>
							<timebase>30</timebase>
							<ntsc>TRUE</ntsc>
						</rate>
						<effect>
							<name>Cross Fade (+3dB)</name>
							<effectid>KGAudioTransCrossFade3dB</effectid>
							<effecttype>transition</effecttype>
							<mediatype>audio</mediatype>
							<wipecode>0</wipecode>
							<wipeaccuracy>100</wipeaccuracy>
							<startratio>0</startratio>
							<endratio>1</endratio>
							<reverse>FALSE</reverse>
						</effect>
					</transitionitem>
					<clipitem id="clipitem-121" premiereChannelType="stereo">
						<masterclipid>masterclip-26</masterclipid>
						<name>ZCAM0050_0000_201803130940.MOV</name>
						<enabled>TRUE</enabled>
						<duration>9000</duration>
						<rate>
							<timebase>30</timebase>
							<ntsc>TRUE</ntsc>
						</rate>
						<start>-1</start>
						<end>11338</end>
						<in>4384</in>
						<out>5516</out>
						<pproTicksIn>37157325004800</pproTicksIn>
						<pproTicksOut>46751780275200</pproTicksOut>
						<file id="file-26"/>
						<sourcetrack>
							<mediatype>audio</mediatype>
							<trackindex>2</trackindex>
						</sourcetrack>
						<link>
							<linkclipref>clipitem-105</linkclipref>
							<mediatype>audio</mediatype>
							<trackindex>6</trackindex>
							<clipindex>15</clipindex>
							<groupindex>1</groupindex>
						</link>
						<link>
							<linkclipref>clipitem-121</linkclipref>
							<mediatype>audio</mediatype>
							<trackindex>7</trackindex>
							<clipindex>15</clipindex>
							<groupindex>1</groupindex>
						</link>
						<logginginfo>
							<description></description>
							<scene></scene>
							<shottake></shottake>
							<lognote></lognote>
							<good></good>
							<originalvideofilename></originalvideofilename>
							<originalaudiofilename></originalaudiofilename>
						</logginginfo>
						<colorinfo>
							<lut></lut>
							<lut1></lut1>
							<asc_sop></asc_sop>
							<asc_sat></asc_sat>
							<lut2></lut2>
						</colorinfo>
						<labels>
							<label2>Iris</label2>
						</labels>
					</clipitem>
					<clipitem id="clipitem-122" premiereChannelType="stereo">
						<masterclipid>masterclip-28</masterclipid>
						<name>Shot7.mp4</name>
						<enabled>TRUE</enabled>
						<duration>9000</duration>
						<rate>
							<timebase>30</timebase>
							<ntsc>TRUE</ntsc>
						</rate>
						<start>12477</start>
						<end>-1</end>
						<in>7770</in>
						<out>8643</out>
						<pproTicksIn>65855934144000</pproTicksIn>
						<pproTicksOut>73255191609600</pproTicksOut>
						<file id="file-28"/>
						<sourcetrack>
							<mediatype>audio</mediatype>
							<trackindex>2</trackindex>
						</sourcetrack>
						<link>
							<linkclipref>clipitem-106</linkclipref>
							<mediatype>audio</mediatype>
							<trackindex>6</trackindex>
							<clipindex>16</clipindex>
							<groupindex>1</groupindex>
						</link>
						<link>
							<linkclipref>clipitem-122</linkclipref>
							<mediatype>audio</mediatype>
							<trackindex>7</trackindex>
							<clipindex>16</clipindex>
							<groupindex>1</groupindex>
						</link>
						<logginginfo>
							<description></description>
							<scene></scene>
							<shottake></shottake>
							<lognote></lognote>
							<good></good>
							<originalvideofilename></originalvideofilename>
							<originalaudiofilename></originalaudiofilename>
						</logginginfo>
						<colorinfo>
							<lut></lut>
							<lut1></lut1>
							<asc_sop></asc_sop>
							<asc_sat></asc_sat>
							<lut2></lut2>
						</colorinfo>
						<labels>
							<label2>Iris</label2>
						</labels>
					</clipitem>
					<transitionitem>
						<start>13348</start>
						<end>13350</end>
						<alignment>end-black</alignment>
						<cutPointTicks>16951334400</cutPointTicks>
						<rate>
							<timebase>30</timebase>
							<ntsc>TRUE</ntsc>
						</rate>
						<effect>
							<name>Cross Fade (+3dB)</name>
							<effectid>KGAudioTransCrossFade3dB</effectid>
							<effecttype>transition</effecttype>
							<mediatype>audio</mediatype>
							<wipecode>0</wipecode>
							<wipeaccuracy>100</wipeaccuracy>
							<startratio>0</startratio>
							<endratio>1</endratio>
							<reverse>FALSE</reverse>
						</effect>
					</transitionitem>
					<clipitem id="clipitem-123" premiereChannelType="stereo">
						<masterclipid>masterclip-25</masterclipid>
						<name>ZOOM0001.WAV</name>
						<enabled>TRUE</enabled>
						<duration>140485</duration>
						<rate>
							<timebase>30</timebase>
							<ntsc>TRUE</ntsc>
						</rate>
						<start>17897</start>
						<end>18045</end>
						<in>69786</in>
						<out>69934</out>
						<pproTicksIn>591482911219200</pproTicksIn>
						<pproTicksOut>592737309964800</pproTicksOut>
						<file id="file-25"/>
						<sourcetrack>
							<mediatype>audio</mediatype>
							<trackindex>2</trackindex>
						</sourcetrack>
						<link>
							<linkclipref>clipitem-107</linkclipref>
							<mediatype>audio</mediatype>
							<trackindex>6</trackindex>
							<clipindex>18</clipindex>
							<groupindex>1</groupindex>
						</link>
						<link>
							<linkclipref>clipitem-123</linkclipref>
							<mediatype>audio</mediatype>
							<trackindex>7</trackindex>
							<clipindex>18</clipindex>
							<groupindex>1</groupindex>
						</link>
						<logginginfo>
							<description></description>
							<scene></scene>
							<shottake></shottake>
							<lognote></lognote>
							<good></good>
							<originalvideofilename></originalvideofilename>
							<originalaudiofilename></originalaudiofilename>
						</logginginfo>
						<colorinfo>
							<lut></lut>
							<lut1></lut1>
							<asc_sop></asc_sop>
							<asc_sat></asc_sat>
							<lut2></lut2>
						</colorinfo>
						<labels>
							<label2>Violet</label2>
						</labels>
					</clipitem>
					<transitionitem>
						<start>18055</start>
						<end>18057</end>
						<alignment>start-black</alignment>
						<cutPointTicks>0</cutPointTicks>
						<rate>
							<timebase>30</timebase>
							<ntsc>TRUE</ntsc>
						</rate>
						<effect>
							<name>Cross Fade (+3dB)</name>
							<effectid>KGAudioTransCrossFade3dB</effectid>
							<effecttype>transition</effecttype>
							<mediatype>audio</mediatype>
							<wipecode>0</wipecode>
							<wipeaccuracy>100</wipeaccuracy>
							<startratio>0</startratio>
							<endratio>1</endratio>
							<reverse>FALSE</reverse>
						</effect>
					</transitionitem>
					<clipitem id="clipitem-124" premiereChannelType="stereo">
						<masterclipid>masterclip-25</masterclipid>
						<name>ZOOM0001.WAV</name>
						<enabled>TRUE</enabled>
						<duration>140485</duration>
						<rate>
							<timebase>30</timebase>
							<ntsc>TRUE</ntsc>
						</rate>
						<start>-1</start>
						<end>-1</end>
						<in>56828</in>
						<out>56945</out>
						<pproTicksIn>481655215641600</pproTicksIn>
						<pproTicksOut>482646868704000</pproTicksOut>
						<file id="file-25"/>
						<sourcetrack>
							<mediatype>audio</mediatype>
							<trackindex>2</trackindex>
						</sourcetrack>
						<link>
							<linkclipref>clipitem-108</linkclipref>
							<mediatype>audio</mediatype>
							<trackindex>6</trackindex>
							<clipindex>20</clipindex>
							<groupindex>1</groupindex>
						</link>
						<link>
							<linkclipref>clipitem-124</linkclipref>
							<mediatype>audio</mediatype>
							<trackindex>7</trackindex>
							<clipindex>20</clipindex>
							<groupindex>1</groupindex>
						</link>
						<logginginfo>
							<description></description>
							<scene></scene>
							<shottake></shottake>
							<lognote></lognote>
							<good></good>
							<originalvideofilename></originalvideofilename>
							<originalaudiofilename></originalaudiofilename>
						</logginginfo>
						<colorinfo>
							<lut></lut>
							<lut1></lut1>
							<asc_sop></asc_sop>
							<asc_sat></asc_sat>
							<lut2></lut2>
						</colorinfo>
						<labels>
							<label2>Mango</label2>
						</labels>
					</clipitem>
					<transitionitem>
						<start>18170</start>
						<end>18172</end>
						<alignment>end-black</alignment>
						<cutPointTicks>16951334400</cutPointTicks>
						<rate>
							<timebase>30</timebase>
							<ntsc>TRUE</ntsc>
						</rate>
						<effect>
							<name>Cross Fade (+3dB)</name>
							<effectid>KGAudioTransCrossFade3dB</effectid>
							<effecttype>transition</effecttype>
							<mediatype>audio</mediatype>
							<wipecode>0</wipecode>
							<wipeaccuracy>100</wipeaccuracy>
							<startratio>0</startratio>
							<endratio>1</endratio>
							<reverse>FALSE</reverse>
						</effect>
					</transitionitem>
					<clipitem id="clipitem-125" premiereChannelType="stereo">
						<masterclipid>masterclip-25</masterclipid>
						<name>ZOOM0001.WAV</name>
						<enabled>TRUE</enabled>
						<duration>140485</duration>
						<rate>
							<timebase>30</timebase>
							<ntsc>TRUE</ntsc>
						</rate>
						<start>18540</start>
						<end>18583</end>
						<in>70806</in>
						<out>70849</out>
						<pproTicksIn>600128091763200</pproTicksIn>
						<pproTicksOut>600492545452800</pproTicksOut>
						<file id="file-25"/>
						<sourcetrack>
							<mediatype>audio</mediatype>
							<trackindex>2</trackindex>
						</sourcetrack>
						<link>
							<linkclipref>clipitem-109</linkclipref>
							<mediatype>audio</mediatype>
							<trackindex>6</trackindex>
							<clipindex>22</clipindex>
							<groupindex>1</groupindex>
						</link>
						<link>
							<linkclipref>clipitem-125</linkclipref>
							<mediatype>audio</mediatype>
							<trackindex>7</trackindex>
							<clipindex>22</clipindex>
							<groupindex>1</groupindex>
						</link>
						<logginginfo>
							<description></description>
							<scene></scene>
							<shottake></shottake>
							<lognote></lognote>
							<good></good>
							<originalvideofilename></originalvideofilename>
							<originalaudiofilename></originalaudiofilename>
						</logginginfo>
						<colorinfo>
							<lut></lut>
							<lut1></lut1>
							<asc_sop></asc_sop>
							<asc_sat></asc_sat>
							<lut2></lut2>
						</colorinfo>
						<labels>
							<label2>Violet</label2>
						</labels>
					</clipitem>
					<clipitem id="clipitem-126" premiereChannelType="stereo">
						<masterclipid>masterclip-25</masterclipid>
						<name>ZOOM0001.WAV</name>
						<enabled>TRUE</enabled>
						<duration>140485</duration>
						<rate>
							<timebase>30</timebase>
							<ntsc>TRUE</ntsc>
						</rate>
						<start>18960</start>
						<end>19277</end>
						<in>70849</in>
						<out>71166</out>
						<pproTicksIn>600492545452800</pproTicksIn>
						<pproTicksOut>603179331955200</pproTicksOut>
						<file id="file-25"/>
						<sourcetrack>
							<mediatype>audio</mediatype>
							<trackindex>2</trackindex>
						</sourcetrack>
						<link>
							<linkclipref>clipitem-110</linkclipref>
							<mediatype>audio</mediatype>
							<trackindex>6</trackindex>
							<clipindex>23</clipindex>
							<groupindex>1</groupindex>
						</link>
						<link>
							<linkclipref>clipitem-126</linkclipref>
							<mediatype>audio</mediatype>
							<trackindex>7</trackindex>
							<clipindex>23</clipindex>
							<groupindex>1</groupindex>
						</link>
						<logginginfo>
							<description></description>
							<scene></scene>
							<shottake></shottake>
							<lognote></lognote>
							<good></good>
							<originalvideofilename></originalvideofilename>
							<originalaudiofilename></originalaudiofilename>
						</logginginfo>
						<colorinfo>
							<lut></lut>
							<lut1></lut1>
							<asc_sop></asc_sop>
							<asc_sat></asc_sat>
							<lut2></lut2>
						</colorinfo>
						<labels>
							<label2>Violet</label2>
						</labels>
					</clipitem>
					<clipitem id="clipitem-127" premiereChannelType="stereo">
						<masterclipid>masterclip-25</masterclipid>
						<name>ZOOM0001.WAV</name>
						<enabled>TRUE</enabled>
						<duration>140485</duration>
						<rate>
							<timebase>30</timebase>
							<ntsc>TRUE</ntsc>
						</rate>
						<start>19782</start>
						<end>-1</end>
						<in>59376</in>
						<out>59582</out>
						<pproTicksIn>503251215667200</pproTicksIn>
						<pproTicksOut>504997203110400</pproTicksOut>
						<file id="file-25"/>
						<sourcetrack>
							<mediatype>audio</mediatype>
							<trackindex>2</trackindex>
						</sourcetrack>
						<link>
							<linkclipref>clipitem-111</linkclipref>
							<mediatype>audio</mediatype>
							<trackindex>6</trackindex>
							<clipindex>24</clipindex>
							<groupindex>1</groupindex>
						</link>
						<link>
							<linkclipref>clipitem-127</linkclipref>
							<mediatype>audio</mediatype>
							<trackindex>7</trackindex>
							<clipindex>24</clipindex>
							<groupindex>1</groupindex>
						</link>
						<logginginfo>
							<description></description>
							<scene></scene>
							<shottake></shottake>
							<lognote></lognote>
							<good></good>
							<originalvideofilename></originalvideofilename>
							<originalaudiofilename></originalaudiofilename>
						</logginginfo>
						<colorinfo>
							<lut></lut>
							<lut1></lut1>
							<asc_sop></asc_sop>
							<asc_sat></asc_sat>
							<lut2></lut2>
						</colorinfo>
						<labels>
							<label2>Cerulean</label2>
						</labels>
					</clipitem>
					<transitionitem>
						<start>19986</start>
						<end>19988</end>
						<alignment>end-black</alignment>
						<cutPointTicks>16951334400</cutPointTicks>
						<rate>
							<timebase>30</timebase>
							<ntsc>TRUE</ntsc>
						</rate>
						<effect>
							<name>Cross Fade (+3dB)</name>
							<effectid>KGAudioTransCrossFade3dB</effectid>
							<effecttype>transition</effecttype>
							<mediatype>audio</mediatype>
							<wipecode>0</wipecode>
							<wipeaccuracy>100</wipeaccuracy>
							<startratio>0</startratio>
							<endratio>1</endratio>
							<reverse>FALSE</reverse>
						</effect>
					</transitionitem>
					<enabled>TRUE</enabled>
					<locked>FALSE</locked>
					<outputchannelindex>2</outputchannelindex>
				</track>
				<track TL.SQTrackAudioKeyframeStyle="0" TL.SQTrackShy="0" TL.SQTrackExpandedHeight="15" TL.SQTrackExpanded="0" MZ.TrackTargeted="1" PannerCurrentValue="0" PannerStartKeyframe="-91445760000000000,0.,0,0,0,0,0,0" PannerName="Balance" currentExplodedTrackIndex="0" totalExplodedTrackCount="2" premiereTrackType="Stereo">
					<clipitem id="clipitem-128" premiereChannelType="stereo">
						<masterclipid>masterclip-29</masterclipid>
						<name>ZCAM0054_0000_201803130940.MOV</name>
						<enabled>TRUE</enabled>
						<duration>9000</duration>
						<rate>
							<timebase>30</timebase>
							<ntsc>TRUE</ntsc>
						</rate>
						<start>11251</start>
						<end>-1</end>
						<in>6591</in>
						<out>7943</out>
						<pproTicksIn>55863122515200</pproTicksIn>
						<pproTicksOut>67322224569600</pproTicksOut>
						<pixelaspectratio>square</pixelaspectratio>
						<anamorphic>FALSE</anamorphic>
						<file id="file-29">
							<name>ZCAM0054_0000_201803130940.MOV</name>
							<pathurl>file://Gladiator/hd/Departments/_Post/__Projects/033_Chimps_CMP/1.Raw/Ingest/20180313/k1_01_morning/01/ZCAM0054_0000_201803130940.MOV</pathurl>
							<rate>
								<timebase>30</timebase>
								<ntsc>TRUE</ntsc>
							</rate>
							<duration>9000</duration>
							<timecode>
								<rate>
									<timebase>30</timebase>
									<ntsc>TRUE</ntsc>
								</rate>
								<string>00:25:00:00</string>
								<frame>45000</frame>
								<displayformat>NDF</displayformat>
								<reel>
									<name>TheReelID</name>
								</reel>
							</timecode>
							<media>
								<video>
									<samplecharacteristics>
										<rate>
											<timebase>30</timebase>
											<ntsc>TRUE</ntsc>
										</rate>
										<width>2880</width>
										<height>2880</height>
										<anamorphic>FALSE</anamorphic>
										<pixelaspectratio>square</pixelaspectratio>
										<fielddominance>none</fielddominance>
									</samplecharacteristics>
								</video>
								<audio>
									<samplecharacteristics>
										<depth>16</depth>
										<samplerate>48000</samplerate>
									</samplecharacteristics>
									<channelcount>2</channelcount>
								</audio>
							</media>
						</file>
						<sourcetrack>
							<mediatype>audio</mediatype>
							<trackindex>1</trackindex>
						</sourcetrack>
						<link>
							<linkclipref>clipitem-128</linkclipref>
							<mediatype>audio</mediatype>
							<trackindex>8</trackindex>
							<clipindex>1</clipindex>
							<groupindex>1</groupindex>
						</link>
						<link>
							<linkclipref>clipitem-129</linkclipref>
							<mediatype>audio</mediatype>
							<trackindex>9</trackindex>
							<clipindex>1</clipindex>
							<groupindex>1</groupindex>
						</link>
						<logginginfo>
							<description></description>
							<scene></scene>
							<shottake></shottake>
							<lognote></lognote>
							<good></good>
							<originalvideofilename></originalvideofilename>
							<originalaudiofilename></originalaudiofilename>
						</logginginfo>
						<colorinfo>
							<lut></lut>
							<lut1></lut1>
							<asc_sop></asc_sop>
							<asc_sat></asc_sat>
							<lut2></lut2>
						</colorinfo>
						<labels>
							<label2>Iris</label2>
						</labels>
					</clipitem>
					<transitionitem>
						<start>12601</start>
						<end>12603</end>
						<alignment>end-black</alignment>
						<cutPointTicks>16951334400</cutPointTicks>
						<rate>
							<timebase>30</timebase>
							<ntsc>TRUE</ntsc>
						</rate>
						<effect>
							<name>Cross Fade (+3dB)</name>
							<effectid>KGAudioTransCrossFade3dB</effectid>
							<effecttype>transition</effecttype>
							<mediatype>audio</mediatype>
							<wipecode>0</wipecode>
							<wipeaccuracy>100</wipeaccuracy>
							<startratio>0</startratio>
							<endratio>1</endratio>
							<reverse>FALSE</reverse>
						</effect>
					</transitionitem>
					<enabled>TRUE</enabled>
					<locked>FALSE</locked>
					<outputchannelindex>1</outputchannelindex>
				</track>
				<track TL.SQTrackAudioKeyframeStyle="0" TL.SQTrackShy="0" TL.SQTrackExpandedHeight="15" TL.SQTrackExpanded="0" MZ.TrackTargeted="1" PannerCurrentValue="0" PannerStartKeyframe="-91445760000000000,0.,0,0,0,0,0,0" PannerName="Balance" currentExplodedTrackIndex="1" totalExplodedTrackCount="2" premiereTrackType="Stereo">
					<clipitem id="clipitem-129" premiereChannelType="stereo">
						<masterclipid>masterclip-29</masterclipid>
						<name>ZCAM0054_0000_201803130940.MOV</name>
						<enabled>TRUE</enabled>
						<duration>9000</duration>
						<rate>
							<timebase>30</timebase>
							<ntsc>TRUE</ntsc>
						</rate>
						<start>11251</start>
						<end>-1</end>
						<in>6591</in>
						<out>7943</out>
						<pproTicksIn>55863122515200</pproTicksIn>
						<pproTicksOut>67322224569600</pproTicksOut>
						<file id="file-29"/>
						<sourcetrack>
							<mediatype>audio</mediatype>
							<trackindex>2</trackindex>
						</sourcetrack>
						<link>
							<linkclipref>clipitem-128</linkclipref>
							<mediatype>audio</mediatype>
							<trackindex>8</trackindex>
							<clipindex>1</clipindex>
							<groupindex>1</groupindex>
						</link>
						<link>
							<linkclipref>clipitem-129</linkclipref>
							<mediatype>audio</mediatype>
							<trackindex>9</trackindex>
							<clipindex>1</clipindex>
							<groupindex>1</groupindex>
						</link>
						<logginginfo>
							<description></description>
							<scene></scene>
							<shottake></shottake>
							<lognote></lognote>
							<good></good>
							<originalvideofilename></originalvideofilename>
							<originalaudiofilename></originalaudiofilename>
						</logginginfo>
						<colorinfo>
							<lut></lut>
							<lut1></lut1>
							<asc_sop></asc_sop>
							<asc_sat></asc_sat>
							<lut2></lut2>
						</colorinfo>
						<labels>
							<label2>Iris</label2>
						</labels>
					</clipitem>
					<transitionitem>
						<start>12601</start>
						<end>12603</end>
						<alignment>end-black</alignment>
						<cutPointTicks>16951334400</cutPointTicks>
						<rate>
							<timebase>30</timebase>
							<ntsc>TRUE</ntsc>
						</rate>
						<effect>
							<name>Cross Fade (+3dB)</name>
							<effectid>KGAudioTransCrossFade3dB</effectid>
							<effecttype>transition</effecttype>
							<mediatype>audio</mediatype>
							<wipecode>0</wipecode>
							<wipeaccuracy>100</wipeaccuracy>
							<startratio>0</startratio>
							<endratio>1</endratio>
							<reverse>FALSE</reverse>
						</effect>
					</transitionitem>
					<enabled>TRUE</enabled>
					<locked>FALSE</locked>
					<outputchannelindex>2</outputchannelindex>
				</track>
				<track TL.SQTrackAudioKeyframeStyle="0" TL.SQTrackShy="0" TL.SQTrackExpandedHeight="15" TL.SQTrackExpanded="0" MZ.TrackTargeted="1" PannerCurrentValue="0" PannerStartKeyframe="-91445760000000000,0.,0,0,0,0,0,0" PannerName="Balance" currentExplodedTrackIndex="0" totalExplodedTrackCount="2" premiereTrackType="Stereo">
					<transitionitem>
						<start>9572</start>
						<end>9574</end>
						<alignment>start-black</alignment>
						<cutPointTicks>0</cutPointTicks>
						<rate>
							<timebase>30</timebase>
							<ntsc>TRUE</ntsc>
						</rate>
						<effect>
							<name>Cross Fade (+3dB)</name>
							<effectid>KGAudioTransCrossFade3dB</effectid>
							<effecttype>transition</effecttype>
							<mediatype>audio</mediatype>
							<wipecode>0</wipecode>
							<wipeaccuracy>100</wipeaccuracy>
							<startratio>0</startratio>
							<endratio>1</endratio>
							<reverse>FALSE</reverse>
						</effect>
					</transitionitem>
					<clipitem id="clipitem-130" premiereChannelType="stereo">
						<masterclipid>masterclip-21</masterclipid>
						<name>ZOOM0001.WAV</name>
						<enabled>TRUE</enabled>
						<duration>65051</duration>
						<rate>
							<timebase>30</timebase>
							<ntsc>TRUE</ntsc>
						</rate>
						<start>-1</start>
						<end>9710</end>
						<in>46733</in>
						<out>46871</out>
						<pproTicksIn>396093355257600</pproTicksIn>
						<pproTicksOut>397262997331200</pproTicksOut>
						<file id="file-21"/>
						<sourcetrack>
							<mediatype>audio</mediatype>
							<trackindex>1</trackindex>
						</sourcetrack>
						<link>
							<linkclipref>clipitem-130</linkclipref>
							<mediatype>audio</mediatype>
							<trackindex>10</trackindex>
							<clipindex>2</clipindex>
							<groupindex>1</groupindex>
						</link>
						<link>
							<linkclipref>clipitem-136</linkclipref>
							<mediatype>audio</mediatype>
							<trackindex>11</trackindex>
							<clipindex>2</clipindex>
							<groupindex>1</groupindex>
						</link>
						<logginginfo>
							<description></description>
							<scene></scene>
							<shottake></shottake>
							<lognote></lognote>
							<good></good>
							<originalvideofilename></originalvideofilename>
							<originalaudiofilename></originalaudiofilename>
						</logginginfo>
						<colorinfo>
							<lut></lut>
							<lut1></lut1>
							<asc_sop></asc_sop>
							<asc_sat></asc_sat>
							<lut2></lut2>
						</colorinfo>
						<labels>
							<label2>Violet</label2>
						</labels>
					</clipitem>
					<transitionitem>
						<start>11447</start>
						<end>11449</end>
						<alignment>start-black</alignment>
						<cutPointTicks>0</cutPointTicks>
						<rate>
							<timebase>30</timebase>
							<ntsc>TRUE</ntsc>
						</rate>
						<effect>
							<name>Cross Fade (+3dB)</name>
							<effectid>KGAudioTransCrossFade3dB</effectid>
							<effecttype>transition</effecttype>
							<mediatype>audio</mediatype>
							<wipecode>0</wipecode>
							<wipeaccuracy>100</wipeaccuracy>
							<startratio>0</startratio>
							<endratio>1</endratio>
							<reverse>FALSE</reverse>
						</effect>
					</transitionitem>
					<clipitem id="clipitem-131" premiereChannelType="stereo">
						<masterclipid>masterclip-21</masterclipid>
						<name>ZOOM0001.WAV</name>
						<enabled>TRUE</enabled>
						<duration>65051</duration>
						<rate>
							<timebase>30</timebase>
							<ntsc>TRUE</ntsc>
						</rate>
						<start>-1</start>
						<end>-1</end>
						<in>50439</in>
						<out>50561</out>
						<pproTicksIn>427504177900800</pproTicksIn>
						<pproTicksOut>428538209299200</pproTicksOut>
						<file id="file-21"/>
						<sourcetrack>
							<mediatype>audio</mediatype>
							<trackindex>1</trackindex>
						</sourcetrack>
						<link>
							<linkclipref>clipitem-131</linkclipref>
							<mediatype>audio</mediatype>
							<trackindex>10</trackindex>
							<clipindex>4</clipindex>
							<groupindex>1</groupindex>
						</link>
						<link>
							<linkclipref>clipitem-137</linkclipref>
							<mediatype>audio</mediatype>
							<trackindex>11</trackindex>
							<clipindex>4</clipindex>
							<groupindex>1</groupindex>
						</link>
						<logginginfo>
							<description></description>
							<scene></scene>
							<shottake></shottake>
							<lognote></lognote>
							<good></good>
							<originalvideofilename></originalvideofilename>
							<originalaudiofilename></originalaudiofilename>
						</logginginfo>
						<colorinfo>
							<lut></lut>
							<lut1></lut1>
							<asc_sop></asc_sop>
							<asc_sat></asc_sat>
							<lut2></lut2>
						</colorinfo>
						<labels>
							<label2>Violet</label2>
						</labels>
					</clipitem>
					<transitionitem>
						<start>11567</start>
						<end>11569</end>
						<alignment>center</alignment>
						<cutPointTicks>8475667200</cutPointTicks>
						<rate>
							<timebase>30</timebase>
							<ntsc>TRUE</ntsc>
						</rate>
						<effect>
							<name>Cross Fade (+3dB)</name>
							<effectid>KGAudioTransCrossFade3dB</effectid>
							<effecttype>transition</effecttype>
							<mediatype>audio</mediatype>
							<wipecode>0</wipecode>
							<wipeaccuracy>100</wipeaccuracy>
							<startratio>0</startratio>
							<endratio>1</endratio>
							<reverse>FALSE</reverse>
						</effect>
					</transitionitem>
					<clipitem id="clipitem-132" premiereChannelType="stereo">
						<masterclipid>masterclip-21</masterclipid>
						<name>ZOOM0001.WAV</name>
						<enabled>TRUE</enabled>
						<duration>65051</duration>
						<rate>
							<timebase>30</timebase>
							<ntsc>TRUE</ntsc>
						</rate>
						<start>-1</start>
						<end>-1</end>
						<in>50663</in>
						<out>50750</out>
						<pproTicksIn>429402727353600</pproTicksIn>
						<pproTicksOut>430140110400000</pproTicksOut>
						<file id="file-21"/>
						<sourcetrack>
							<mediatype>audio</mediatype>
							<trackindex>1</trackindex>
						</sourcetrack>
						<link>
							<linkclipref>clipitem-132</linkclipref>
							<mediatype>audio</mediatype>
							<trackindex>10</trackindex>
							<clipindex>6</clipindex>
							<groupindex>1</groupindex>
						</link>
						<link>
							<linkclipref>clipitem-138</linkclipref>
							<mediatype>audio</mediatype>
							<trackindex>11</trackindex>
							<clipindex>6</clipindex>
							<groupindex>1</groupindex>
						</link>
						<logginginfo>
							<description></description>
							<scene></scene>
							<shottake></shottake>
							<lognote></lognote>
							<good></good>
							<originalvideofilename></originalvideofilename>
							<originalaudiofilename></originalaudiofilename>
						</logginginfo>
						<colorinfo>
							<lut></lut>
							<lut1></lut1>
							<asc_sop></asc_sop>
							<asc_sat></asc_sat>
							<lut2></lut2>
						</colorinfo>
						<labels>
							<label2>Violet</label2>
						</labels>
					</clipitem>
					<transitionitem>
						<start>11652</start>
						<end>11654</end>
						<alignment>center</alignment>
						<cutPointTicks>8475667200</cutPointTicks>
						<rate>
							<timebase>30</timebase>
							<ntsc>TRUE</ntsc>
						</rate>
						<effect>
							<name>Cross Fade (+3dB)</name>
							<effectid>KGAudioTransCrossFade3dB</effectid>
							<effecttype>transition</effecttype>
							<mediatype>audio</mediatype>
							<wipecode>0</wipecode>
							<wipeaccuracy>100</wipeaccuracy>
							<startratio>0</startratio>
							<endratio>1</endratio>
							<reverse>FALSE</reverse>
						</effect>
					</transitionitem>
					<clipitem id="clipitem-133" premiereChannelType="stereo">
						<masterclipid>masterclip-21</masterclipid>
						<name>ZOOM0001.WAV</name>
						<enabled>TRUE</enabled>
						<duration>65051</duration>
						<rate>
							<timebase>30</timebase>
							<ntsc>TRUE</ntsc>
						</rate>
						<start>-1</start>
						<end>11850</end>
						<in>52594</in>
						<out>52792</out>
						<pproTicksIn>445769240716800</pproTicksIn>
						<pproTicksOut>447447422822400</pproTicksOut>
						<file id="file-21"/>
						<sourcetrack>
							<mediatype>audio</mediatype>
							<trackindex>1</trackindex>
						</sourcetrack>
						<link>
							<linkclipref>clipitem-133</linkclipref>
							<mediatype>audio</mediatype>
							<trackindex>10</trackindex>
							<clipindex>8</clipindex>
							<groupindex>1</groupindex>
						</link>
						<link>
							<linkclipref>clipitem-139</linkclipref>
							<mediatype>audio</mediatype>
							<trackindex>11</trackindex>
							<clipindex>8</clipindex>
							<groupindex>1</groupindex>
						</link>
						<logginginfo>
							<description></description>
							<scene></scene>
							<shottake></shottake>
							<lognote></lognote>
							<good></good>
							<originalvideofilename></originalvideofilename>
							<originalaudiofilename></originalaudiofilename>
						</logginginfo>
						<colorinfo>
							<lut></lut>
							<lut1></lut1>
							<asc_sop></asc_sop>
							<asc_sat></asc_sat>
							<lut2></lut2>
						</colorinfo>
						<labels>
							<label2>Violet</label2>
						</labels>
					</clipitem>
					<clipitem id="clipitem-134" premiereChannelType="stereo">
						<masterclipid>masterclip-21</masterclipid>
						<name>ZOOM0001.WAV</name>
						<enabled>TRUE</enabled>
						<duration>65051</duration>
						<rate>
							<timebase>30</timebase>
							<ntsc>TRUE</ntsc>
						</rate>
						<start>11850</start>
						<end>-1</end>
						<in>62737</in>
						<out>62890</out>
						<pproTicksIn>531737933126400</pproTicksIn>
						<pproTicksOut>533034710208000</pproTicksOut>
						<file id="file-21"/>
						<sourcetrack>
							<mediatype>audio</mediatype>
							<trackindex>1</trackindex>
						</sourcetrack>
						<link>
							<linkclipref>clipitem-134</linkclipref>
							<mediatype>audio</mediatype>
							<trackindex>10</trackindex>
							<clipindex>9</clipindex>
							<groupindex>1</groupindex>
						</link>
						<link>
							<linkclipref>clipitem-140</linkclipref>
							<mediatype>audio</mediatype>
							<trackindex>11</trackindex>
							<clipindex>9</clipindex>
							<groupindex>1</groupindex>
						</link>
						<logginginfo>
							<description></description>
							<scene></scene>
							<shottake></shottake>
							<lognote></lognote>
							<good></good>
							<originalvideofilename></originalvideofilename>
							<originalaudiofilename></originalaudiofilename>
						</logginginfo>
						<colorinfo>
							<lut></lut>
							<lut1></lut1>
							<asc_sop></asc_sop>
							<asc_sat></asc_sat>
							<lut2></lut2>
						</colorinfo>
						<labels>
							<label2>Violet</label2>
						</labels>
					</clipitem>
					<transitionitem>
						<start>12001</start>
						<end>12003</end>
						<alignment>end-black</alignment>
						<cutPointTicks>16951334400</cutPointTicks>
						<rate>
							<timebase>30</timebase>
							<ntsc>TRUE</ntsc>
						</rate>
						<effect>
							<name>Cross Fade (+3dB)</name>
							<effectid>KGAudioTransCrossFade3dB</effectid>
							<effecttype>transition</effecttype>
							<mediatype>audio</mediatype>
							<wipecode>0</wipecode>
							<wipeaccuracy>100</wipeaccuracy>
							<startratio>0</startratio>
							<endratio>1</endratio>
							<reverse>FALSE</reverse>
						</effect>
					</transitionitem>
					<transitionitem>
						<start>18214</start>
						<end>18216</end>
						<alignment>start-black</alignment>
						<cutPointTicks>0</cutPointTicks>
						<rate>
							<timebase>30</timebase>
							<ntsc>TRUE</ntsc>
						</rate>
						<effect>
							<name>Cross Fade (+3dB)</name>
							<effectid>KGAudioTransCrossFade3dB</effectid>
							<effecttype>transition</effecttype>
							<mediatype>audio</mediatype>
							<wipecode>0</wipecode>
							<wipeaccuracy>100</wipeaccuracy>
							<startratio>0</startratio>
							<endratio>1</endratio>
							<reverse>FALSE</reverse>
						</effect>
					</transitionitem>
					<clipitem id="clipitem-135" premiereChannelType="stereo">
						<masterclipid>masterclip-21</masterclipid>
						<name>ZOOM0001.WAV</name>
						<enabled>TRUE</enabled>
						<duration>65051</duration>
						<rate>
							<timebase>30</timebase>
							<ntsc>TRUE</ntsc>
						</rate>
						<start>-1</start>
						<end>-1</end>
						<in>58292</in>
						<out>58405</out>
						<pproTicksIn>494063592422400</pproTicksIn>
						<pproTicksOut>495021342816000</pproTicksOut>
						<file id="file-21"/>
						<sourcetrack>
							<mediatype>audio</mediatype>
							<trackindex>1</trackindex>
						</sourcetrack>
						<link>
							<linkclipref>clipitem-135</linkclipref>
							<mediatype>audio</mediatype>
							<trackindex>10</trackindex>
							<clipindex>12</clipindex>
							<groupindex>1</groupindex>
						</link>
						<link>
							<linkclipref>clipitem-141</linkclipref>
							<mediatype>audio</mediatype>
							<trackindex>11</trackindex>
							<clipindex>12</clipindex>
							<groupindex>1</groupindex>
						</link>
						<logginginfo>
							<description></description>
							<scene></scene>
							<shottake></shottake>
							<lognote></lognote>
							<good></good>
							<originalvideofilename></originalvideofilename>
							<originalaudiofilename></originalaudiofilename>
						</logginginfo>
						<colorinfo>
							<lut></lut>
							<lut1></lut1>
							<asc_sop></asc_sop>
							<asc_sat></asc_sat>
							<lut2></lut2>
						</colorinfo>
						<labels>
							<label2>Mango</label2>
						</labels>
					</clipitem>
					<transitionitem>
						<start>18325</start>
						<end>18327</end>
						<alignment>end-black</alignment>
						<cutPointTicks>16951334400</cutPointTicks>
						<rate>
							<timebase>30</timebase>
							<ntsc>TRUE</ntsc>
						</rate>
						<effect>
							<name>Cross Fade (+3dB)</name>
							<effectid>KGAudioTransCrossFade3dB</effectid>
							<effecttype>transition</effecttype>
							<mediatype>audio</mediatype>
							<wipecode>0</wipecode>
							<wipeaccuracy>100</wipeaccuracy>
							<startratio>0</startratio>
							<endratio>1</endratio>
							<reverse>FALSE</reverse>
						</effect>
					</transitionitem>
					<enabled>TRUE</enabled>
					<locked>FALSE</locked>
					<outputchannelindex>1</outputchannelindex>
				</track>
				<track TL.SQTrackAudioKeyframeStyle="0" TL.SQTrackShy="0" TL.SQTrackExpandedHeight="15" TL.SQTrackExpanded="0" MZ.TrackTargeted="1" PannerCurrentValue="0" PannerStartKeyframe="-91445760000000000,0.,0,0,0,0,0,0" PannerName="Balance" currentExplodedTrackIndex="1" totalExplodedTrackCount="2" premiereTrackType="Stereo">
					<transitionitem>
						<start>9572</start>
						<end>9574</end>
						<alignment>start-black</alignment>
						<cutPointTicks>0</cutPointTicks>
						<rate>
							<timebase>30</timebase>
							<ntsc>TRUE</ntsc>
						</rate>
						<effect>
							<name>Cross Fade (+3dB)</name>
							<effectid>KGAudioTransCrossFade3dB</effectid>
							<effecttype>transition</effecttype>
							<mediatype>audio</mediatype>
							<wipecode>0</wipecode>
							<wipeaccuracy>100</wipeaccuracy>
							<startratio>0</startratio>
							<endratio>1</endratio>
							<reverse>FALSE</reverse>
						</effect>
					</transitionitem>
					<clipitem id="clipitem-136" premiereChannelType="stereo">
						<masterclipid>masterclip-21</masterclipid>
						<name>ZOOM0001.WAV</name>
						<enabled>TRUE</enabled>
						<duration>65051</duration>
						<rate>
							<timebase>30</timebase>
							<ntsc>TRUE</ntsc>
						</rate>
						<start>-1</start>
						<end>9710</end>
						<in>46733</in>
						<out>46871</out>
						<pproTicksIn>396093355257600</pproTicksIn>
						<pproTicksOut>397262997331200</pproTicksOut>
						<file id="file-21"/>
						<sourcetrack>
							<mediatype>audio</mediatype>
							<trackindex>2</trackindex>
						</sourcetrack>
						<link>
							<linkclipref>clipitem-130</linkclipref>
							<mediatype>audio</mediatype>
							<trackindex>10</trackindex>
							<clipindex>2</clipindex>
							<groupindex>1</groupindex>
						</link>
						<link>
							<linkclipref>clipitem-136</linkclipref>
							<mediatype>audio</mediatype>
							<trackindex>11</trackindex>
							<clipindex>2</clipindex>
							<groupindex>1</groupindex>
						</link>
						<logginginfo>
							<description></description>
							<scene></scene>
							<shottake></shottake>
							<lognote></lognote>
							<good></good>
							<originalvideofilename></originalvideofilename>
							<originalaudiofilename></originalaudiofilename>
						</logginginfo>
						<colorinfo>
							<lut></lut>
							<lut1></lut1>
							<asc_sop></asc_sop>
							<asc_sat></asc_sat>
							<lut2></lut2>
						</colorinfo>
						<labels>
							<label2>Violet</label2>
						</labels>
					</clipitem>
					<transitionitem>
						<start>11447</start>
						<end>11449</end>
						<alignment>start-black</alignment>
						<cutPointTicks>0</cutPointTicks>
						<rate>
							<timebase>30</timebase>
							<ntsc>TRUE</ntsc>
						</rate>
						<effect>
							<name>Cross Fade (+3dB)</name>
							<effectid>KGAudioTransCrossFade3dB</effectid>
							<effecttype>transition</effecttype>
							<mediatype>audio</mediatype>
							<wipecode>0</wipecode>
							<wipeaccuracy>100</wipeaccuracy>
							<startratio>0</startratio>
							<endratio>1</endratio>
							<reverse>FALSE</reverse>
						</effect>
					</transitionitem>
					<clipitem id="clipitem-137" premiereChannelType="stereo">
						<masterclipid>masterclip-21</masterclipid>
						<name>ZOOM0001.WAV</name>
						<enabled>TRUE</enabled>
						<duration>65051</duration>
						<rate>
							<timebase>30</timebase>
							<ntsc>TRUE</ntsc>
						</rate>
						<start>-1</start>
						<end>-1</end>
						<in>50439</in>
						<out>50561</out>
						<pproTicksIn>427504177900800</pproTicksIn>
						<pproTicksOut>428538209299200</pproTicksOut>
						<file id="file-21"/>
						<sourcetrack>
							<mediatype>audio</mediatype>
							<trackindex>2</trackindex>
						</sourcetrack>
						<link>
							<linkclipref>clipitem-131</linkclipref>
							<mediatype>audio</mediatype>
							<trackindex>10</trackindex>
							<clipindex>4</clipindex>
							<groupindex>1</groupindex>
						</link>
						<link>
							<linkclipref>clipitem-137</linkclipref>
							<mediatype>audio</mediatype>
							<trackindex>11</trackindex>
							<clipindex>4</clipindex>
							<groupindex>1</groupindex>
						</link>
						<logginginfo>
							<description></description>
							<scene></scene>
							<shottake></shottake>
							<lognote></lognote>
							<good></good>
							<originalvideofilename></originalvideofilename>
							<originalaudiofilename></originalaudiofilename>
						</logginginfo>
						<colorinfo>
							<lut></lut>
							<lut1></lut1>
							<asc_sop></asc_sop>
							<asc_sat></asc_sat>
							<lut2></lut2>
						</colorinfo>
						<labels>
							<label2>Violet</label2>
						</labels>
					</clipitem>
					<transitionitem>
						<start>11567</start>
						<end>11569</end>
						<alignment>center</alignment>
						<cutPointTicks>8475667200</cutPointTicks>
						<rate>
							<timebase>30</timebase>
							<ntsc>TRUE</ntsc>
						</rate>
						<effect>
							<name>Cross Fade (+3dB)</name>
							<effectid>KGAudioTransCrossFade3dB</effectid>
							<effecttype>transition</effecttype>
							<mediatype>audio</mediatype>
							<wipecode>0</wipecode>
							<wipeaccuracy>100</wipeaccuracy>
							<startratio>0</startratio>
							<endratio>1</endratio>
							<reverse>FALSE</reverse>
						</effect>
					</transitionitem>
					<clipitem id="clipitem-138" premiereChannelType="stereo">
						<masterclipid>masterclip-21</masterclipid>
						<name>ZOOM0001.WAV</name>
						<enabled>TRUE</enabled>
						<duration>65051</duration>
						<rate>
							<timebase>30</timebase>
							<ntsc>TRUE</ntsc>
						</rate>
						<start>-1</start>
						<end>-1</end>
						<in>50663</in>
						<out>50750</out>
						<pproTicksIn>429402727353600</pproTicksIn>
						<pproTicksOut>430140110400000</pproTicksOut>
						<file id="file-21"/>
						<sourcetrack>
							<mediatype>audio</mediatype>
							<trackindex>2</trackindex>
						</sourcetrack>
						<link>
							<linkclipref>clipitem-132</linkclipref>
							<mediatype>audio</mediatype>
							<trackindex>10</trackindex>
							<clipindex>6</clipindex>
							<groupindex>1</groupindex>
						</link>
						<link>
							<linkclipref>clipitem-138</linkclipref>
							<mediatype>audio</mediatype>
							<trackindex>11</trackindex>
							<clipindex>6</clipindex>
							<groupindex>1</groupindex>
						</link>
						<logginginfo>
							<description></description>
							<scene></scene>
							<shottake></shottake>
							<lognote></lognote>
							<good></good>
							<originalvideofilename></originalvideofilename>
							<originalaudiofilename></originalaudiofilename>
						</logginginfo>
						<colorinfo>
							<lut></lut>
							<lut1></lut1>
							<asc_sop></asc_sop>
							<asc_sat></asc_sat>
							<lut2></lut2>
						</colorinfo>
						<labels>
							<label2>Violet</label2>
						</labels>
					</clipitem>
					<transitionitem>
						<start>11652</start>
						<end>11654</end>
						<alignment>center</alignment>
						<cutPointTicks>8475667200</cutPointTicks>
						<rate>
							<timebase>30</timebase>
							<ntsc>TRUE</ntsc>
						</rate>
						<effect>
							<name>Cross Fade (+3dB)</name>
							<effectid>KGAudioTransCrossFade3dB</effectid>
							<effecttype>transition</effecttype>
							<mediatype>audio</mediatype>
							<wipecode>0</wipecode>
							<wipeaccuracy>100</wipeaccuracy>
							<startratio>0</startratio>
							<endratio>1</endratio>
							<reverse>FALSE</reverse>
						</effect>
					</transitionitem>
					<clipitem id="clipitem-139" premiereChannelType="stereo">
						<masterclipid>masterclip-21</masterclipid>
						<name>ZOOM0001.WAV</name>
						<enabled>TRUE</enabled>
						<duration>65051</duration>
						<rate>
							<timebase>30</timebase>
							<ntsc>TRUE</ntsc>
						</rate>
						<start>-1</start>
						<end>11850</end>
						<in>52594</in>
						<out>52792</out>
						<pproTicksIn>445769240716800</pproTicksIn>
						<pproTicksOut>447447422822400</pproTicksOut>
						<file id="file-21"/>
						<sourcetrack>
							<mediatype>audio</mediatype>
							<trackindex>2</trackindex>
						</sourcetrack>
						<link>
							<linkclipref>clipitem-133</linkclipref>
							<mediatype>audio</mediatype>
							<trackindex>10</trackindex>
							<clipindex>8</clipindex>
							<groupindex>1</groupindex>
						</link>
						<link>
							<linkclipref>clipitem-139</linkclipref>
							<mediatype>audio</mediatype>
							<trackindex>11</trackindex>
							<clipindex>8</clipindex>
							<groupindex>1</groupindex>
						</link>
						<logginginfo>
							<description></description>
							<scene></scene>
							<shottake></shottake>
							<lognote></lognote>
							<good></good>
							<originalvideofilename></originalvideofilename>
							<originalaudiofilename></originalaudiofilename>
						</logginginfo>
						<colorinfo>
							<lut></lut>
							<lut1></lut1>
							<asc_sop></asc_sop>
							<asc_sat></asc_sat>
							<lut2></lut2>
						</colorinfo>
						<labels>
							<label2>Violet</label2>
						</labels>
					</clipitem>
					<clipitem id="clipitem-140" premiereChannelType="stereo">
						<masterclipid>masterclip-21</masterclipid>
						<name>ZOOM0001.WAV</name>
						<enabled>TRUE</enabled>
						<duration>65051</duration>
						<rate>
							<timebase>30</timebase>
							<ntsc>TRUE</ntsc>
						</rate>
						<start>11850</start>
						<end>-1</end>
						<in>62737</in>
						<out>62890</out>
						<pproTicksIn>531737933126400</pproTicksIn>
						<pproTicksOut>533034710208000</pproTicksOut>
						<file id="file-21"/>
						<sourcetrack>
							<mediatype>audio</mediatype>
							<trackindex>2</trackindex>
						</sourcetrack>
						<link>
							<linkclipref>clipitem-134</linkclipref>
							<mediatype>audio</mediatype>
							<trackindex>10</trackindex>
							<clipindex>9</clipindex>
							<groupindex>1</groupindex>
						</link>
						<link>
							<linkclipref>clipitem-140</linkclipref>
							<mediatype>audio</mediatype>
							<trackindex>11</trackindex>
							<clipindex>9</clipindex>
							<groupindex>1</groupindex>
						</link>
						<logginginfo>
							<description></description>
							<scene></scene>
							<shottake></shottake>
							<lognote></lognote>
							<good></good>
							<originalvideofilename></originalvideofilename>
							<originalaudiofilename></originalaudiofilename>
						</logginginfo>
						<colorinfo>
							<lut></lut>
							<lut1></lut1>
							<asc_sop></asc_sop>
							<asc_sat></asc_sat>
							<lut2></lut2>
						</colorinfo>
						<labels>
							<label2>Violet</label2>
						</labels>
					</clipitem>
					<transitionitem>
						<start>12001</start>
						<end>12003</end>
						<alignment>end-black</alignment>
						<cutPointTicks>16951334400</cutPointTicks>
						<rate>
							<timebase>30</timebase>
							<ntsc>TRUE</ntsc>
						</rate>
						<effect>
							<name>Cross Fade (+3dB)</name>
							<effectid>KGAudioTransCrossFade3dB</effectid>
							<effecttype>transition</effecttype>
							<mediatype>audio</mediatype>
							<wipecode>0</wipecode>
							<wipeaccuracy>100</wipeaccuracy>
							<startratio>0</startratio>
							<endratio>1</endratio>
							<reverse>FALSE</reverse>
						</effect>
					</transitionitem>
					<transitionitem>
						<start>18214</start>
						<end>18216</end>
						<alignment>start-black</alignment>
						<cutPointTicks>0</cutPointTicks>
						<rate>
							<timebase>30</timebase>
							<ntsc>TRUE</ntsc>
						</rate>
						<effect>
							<name>Cross Fade (+3dB)</name>
							<effectid>KGAudioTransCrossFade3dB</effectid>
							<effecttype>transition</effecttype>
							<mediatype>audio</mediatype>
							<wipecode>0</wipecode>
							<wipeaccuracy>100</wipeaccuracy>
							<startratio>0</startratio>
							<endratio>1</endratio>
							<reverse>FALSE</reverse>
						</effect>
					</transitionitem>
					<clipitem id="clipitem-141" premiereChannelType="stereo">
						<masterclipid>masterclip-21</masterclipid>
						<name>ZOOM0001.WAV</name>
						<enabled>TRUE</enabled>
						<duration>65051</duration>
						<rate>
							<timebase>30</timebase>
							<ntsc>TRUE</ntsc>
						</rate>
						<start>-1</start>
						<end>-1</end>
						<in>58292</in>
						<out>58405</out>
						<pproTicksIn>494063592422400</pproTicksIn>
						<pproTicksOut>495021342816000</pproTicksOut>
						<file id="file-21"/>
						<sourcetrack>
							<mediatype>audio</mediatype>
							<trackindex>2</trackindex>
						</sourcetrack>
						<link>
							<linkclipref>clipitem-135</linkclipref>
							<mediatype>audio</mediatype>
							<trackindex>10</trackindex>
							<clipindex>12</clipindex>
							<groupindex>1</groupindex>
						</link>
						<link>
							<linkclipref>clipitem-141</linkclipref>
							<mediatype>audio</mediatype>
							<trackindex>11</trackindex>
							<clipindex>12</clipindex>
							<groupindex>1</groupindex>
						</link>
						<logginginfo>
							<description></description>
							<scene></scene>
							<shottake></shottake>
							<lognote></lognote>
							<good></good>
							<originalvideofilename></originalvideofilename>
							<originalaudiofilename></originalaudiofilename>
						</logginginfo>
						<colorinfo>
							<lut></lut>
							<lut1></lut1>
							<asc_sop></asc_sop>
							<asc_sat></asc_sat>
							<lut2></lut2>
						</colorinfo>
						<labels>
							<label2>Mango</label2>
						</labels>
					</clipitem>
					<transitionitem>
						<start>18325</start>
						<end>18327</end>
						<alignment>end-black</alignment>
						<cutPointTicks>16951334400</cutPointTicks>
						<rate>
							<timebase>30</timebase>
							<ntsc>TRUE</ntsc>
						</rate>
						<effect>
							<name>Cross Fade (+3dB)</name>
							<effectid>KGAudioTransCrossFade3dB</effectid>
							<effecttype>transition</effecttype>
							<mediatype>audio</mediatype>
							<wipecode>0</wipecode>
							<wipeaccuracy>100</wipeaccuracy>
							<startratio>0</startratio>
							<endratio>1</endratio>
							<reverse>FALSE</reverse>
						</effect>
					</transitionitem>
					<enabled>TRUE</enabled>
					<locked>FALSE</locked>
					<outputchannelindex>2</outputchannelindex>
				</track>
				<track TL.SQTrackAudioKeyframeStyle="0" TL.SQTrackShy="0" TL.SQTrackExpandedHeight="15" TL.SQTrackExpanded="0" MZ.TrackTargeted="1" PannerCurrentValue="0" PannerStartKeyframe="-91445760000000000,0.,0,0,0,0,0,0" PannerName="Balance" currentExplodedTrackIndex="0" totalExplodedTrackCount="2" premiereTrackType="Stereo">
					<transitionitem>
						<start>9572</start>
						<end>9574</end>
						<alignment>start-black</alignment>
						<cutPointTicks>0</cutPointTicks>
						<rate>
							<timebase>30</timebase>
							<ntsc>TRUE</ntsc>
						</rate>
						<effect>
							<name>Cross Fade (+3dB)</name>
							<effectid>KGAudioTransCrossFade3dB</effectid>
							<effecttype>transition</effecttype>
							<mediatype>audio</mediatype>
							<wipecode>0</wipecode>
							<wipeaccuracy>100</wipeaccuracy>
							<startratio>0</startratio>
							<endratio>1</endratio>
							<reverse>FALSE</reverse>
						</effect>
					</transitionitem>
					<clipitem id="clipitem-142" premiereChannelType="stereo">
						<masterclipid>masterclip-25</masterclipid>
						<name>ZOOM0001.WAV</name>
						<enabled>TRUE</enabled>
						<duration>140485</duration>
						<rate>
							<timebase>30</timebase>
							<ntsc>TRUE</ntsc>
						</rate>
						<start>-1</start>
						<end>9751</end>
						<in>54029</in>
						<out>54208</out>
						<pproTicksIn>457931823148800</pproTicksIn>
						<pproTicksOut>459448967577600</pproTicksOut>
						<file id="file-25"/>
						<sourcetrack>
							<mediatype>audio</mediatype>
							<trackindex>1</trackindex>
						</sourcetrack>
						<link>
							<linkclipref>clipitem-142</linkclipref>
							<mediatype>audio</mediatype>
							<trackindex>12</trackindex>
							<clipindex>2</clipindex>
							<groupindex>1</groupindex>
						</link>
						<link>
							<linkclipref>clipitem-149</linkclipref>
							<mediatype>audio</mediatype>
							<trackindex>13</trackindex>
							<clipindex>2</clipindex>
							<groupindex>1</groupindex>
						</link>
						<logginginfo>
							<description></description>
							<scene></scene>
							<shottake></shottake>
							<lognote></lognote>
							<good></good>
							<originalvideofilename></originalvideofilename>
							<originalaudiofilename></originalaudiofilename>
						</logginginfo>
						<colorinfo>
							<lut></lut>
							<lut1></lut1>
							<asc_sop></asc_sop>
							<asc_sat></asc_sat>
							<lut2></lut2>
						</colorinfo>
						<labels>
							<label2>Violet</label2>
						</labels>
					</clipitem>
					<transitionitem>
						<start>11447</start>
						<end>11449</end>
						<alignment>start-black</alignment>
						<cutPointTicks>0</cutPointTicks>
						<rate>
							<timebase>30</timebase>
							<ntsc>TRUE</ntsc>
						</rate>
						<effect>
							<name>Cross Fade (+3dB)</name>
							<effectid>KGAudioTransCrossFade3dB</effectid>
							<effecttype>transition</effecttype>
							<mediatype>audio</mediatype>
							<wipecode>0</wipecode>
							<wipeaccuracy>100</wipeaccuracy>
							<startratio>0</startratio>
							<endratio>1</endratio>
							<reverse>FALSE</reverse>
						</effect>
					</transitionitem>
					<clipitem id="clipitem-143" premiereChannelType="stereo">
						<masterclipid>masterclip-25</masterclipid>
						<name>ZOOM0001.WAV</name>
						<enabled>TRUE</enabled>
						<duration>140485</duration>
						<rate>
							<timebase>30</timebase>
							<ntsc>TRUE</ntsc>
						</rate>
						<start>-1</start>
						<end>-1</end>
						<in>57735</in>
						<out>57857</out>
						<pproTicksIn>489342645792000</pproTicksIn>
						<pproTicksOut>490376677190400</pproTicksOut>
						<file id="file-25"/>
						<sourcetrack>
							<mediatype>audio</mediatype>
							<trackindex>1</trackindex>
						</sourcetrack>
						<link>
							<linkclipref>clipitem-143</linkclipref>
							<mediatype>audio</mediatype>
							<trackindex>12</trackindex>
							<clipindex>4</clipindex>
							<groupindex>1</groupindex>
						</link>
						<link>
							<linkclipref>clipitem-150</linkclipref>
							<mediatype>audio</mediatype>
							<trackindex>13</trackindex>
							<clipindex>4</clipindex>
							<groupindex>1</groupindex>
						</link>
						<logginginfo>
							<description></description>
							<scene></scene>
							<shottake></shottake>
							<lognote></lognote>
							<good></good>
							<originalvideofilename></originalvideofilename>
							<originalaudiofilename></originalaudiofilename>
						</logginginfo>
						<colorinfo>
							<lut></lut>
							<lut1></lut1>
							<asc_sop></asc_sop>
							<asc_sat></asc_sat>
							<lut2></lut2>
						</colorinfo>
						<labels>
							<label2>Violet</label2>
						</labels>
					</clipitem>
					<transitionitem>
						<start>11567</start>
						<end>11569</end>
						<alignment>center</alignment>
						<cutPointTicks>8475667200</cutPointTicks>
						<rate>
							<timebase>30</timebase>
							<ntsc>TRUE</ntsc>
						</rate>
						<effect>
							<name>Cross Fade (+3dB)</name>
							<effectid>KGAudioTransCrossFade3dB</effectid>
							<effecttype>transition</effecttype>
							<mediatype>audio</mediatype>
							<wipecode>0</wipecode>
							<wipeaccuracy>100</wipeaccuracy>
							<startratio>0</startratio>
							<endratio>1</endratio>
							<reverse>FALSE</reverse>
						</effect>
					</transitionitem>
					<clipitem id="clipitem-144" premiereChannelType="stereo">
						<masterclipid>masterclip-25</masterclipid>
						<name>ZOOM0001.WAV</name>
						<enabled>TRUE</enabled>
						<duration>140485</duration>
						<rate>
							<timebase>30</timebase>
							<ntsc>TRUE</ntsc>
						</rate>
						<start>-1</start>
						<end>-1</end>
						<in>57959</in>
						<out>58046</out>
						<pproTicksIn>491241195244800</pproTicksIn>
						<pproTicksOut>491978578291200</pproTicksOut>
						<file id="file-25"/>
						<sourcetrack>
							<mediatype>audio</mediatype>
							<trackindex>1</trackindex>
						</sourcetrack>
						<link>
							<linkclipref>clipitem-144</linkclipref>
							<mediatype>audio</mediatype>
							<trackindex>12</trackindex>
							<clipindex>6</clipindex>
							<groupindex>1</groupindex>
						</link>
						<link>
							<linkclipref>clipitem-151</linkclipref>
							<mediatype>audio</mediatype>
							<trackindex>13</trackindex>
							<clipindex>6</clipindex>
							<groupindex>1</groupindex>
						</link>
						<logginginfo>
							<description></description>
							<scene></scene>
							<shottake></shottake>
							<lognote></lognote>
							<good></good>
							<originalvideofilename></originalvideofilename>
							<originalaudiofilename></originalaudiofilename>
						</logginginfo>
						<colorinfo>
							<lut></lut>
							<lut1></lut1>
							<asc_sop></asc_sop>
							<asc_sat></asc_sat>
							<lut2></lut2>
						</colorinfo>
						<labels>
							<label2>Violet</label2>
						</labels>
					</clipitem>
					<transitionitem>
						<start>11652</start>
						<end>11654</end>
						<alignment>center</alignment>
						<cutPointTicks>8475667200</cutPointTicks>
						<rate>
							<timebase>30</timebase>
							<ntsc>TRUE</ntsc>
						</rate>
						<effect>
							<name>Cross Fade (+3dB)</name>
							<effectid>KGAudioTransCrossFade3dB</effectid>
							<effecttype>transition</effecttype>
							<mediatype>audio</mediatype>
							<wipecode>0</wipecode>
							<wipeaccuracy>100</wipeaccuracy>
							<startratio>0</startratio>
							<endratio>1</endratio>
							<reverse>FALSE</reverse>
						</effect>
					</transitionitem>
					<clipitem id="clipitem-145" premiereChannelType="stereo">
						<masterclipid>masterclip-25</masterclipid>
						<name>ZOOM0001.WAV</name>
						<enabled>TRUE</enabled>
						<duration>140485</duration>
						<rate>
							<timebase>30</timebase>
							<ntsc>TRUE</ntsc>
						</rate>
						<start>-1</start>
						<end>11850</end>
						<in>59890</in>
						<out>60088</out>
						<pproTicksIn>507607708608000</pproTicksIn>
						<pproTicksOut>509285890713600</pproTicksOut>
						<file id="file-25"/>
						<sourcetrack>
							<mediatype>audio</mediatype>
							<trackindex>1</trackindex>
						</sourcetrack>
						<link>
							<linkclipref>clipitem-145</linkclipref>
							<mediatype>audio</mediatype>
							<trackindex>12</trackindex>
							<clipindex>8</clipindex>
							<groupindex>1</groupindex>
						</link>
						<link>
							<linkclipref>clipitem-152</linkclipref>
							<mediatype>audio</mediatype>
							<trackindex>13</trackindex>
							<clipindex>8</clipindex>
							<groupindex>1</groupindex>
						</link>
						<logginginfo>
							<description></description>
							<scene></scene>
							<shottake></shottake>
							<lognote></lognote>
							<good></good>
							<originalvideofilename></originalvideofilename>
							<originalaudiofilename></originalaudiofilename>
						</logginginfo>
						<colorinfo>
							<lut></lut>
							<lut1></lut1>
							<asc_sop></asc_sop>
							<asc_sat></asc_sat>
							<lut2></lut2>
						</colorinfo>
						<labels>
							<label2>Violet</label2>
						</labels>
					</clipitem>
					<clipitem id="clipitem-146" premiereChannelType="stereo">
						<masterclipid>masterclip-25</masterclipid>
						<name>ZOOM0001.WAV</name>
						<enabled>TRUE</enabled>
						<duration>140485</duration>
						<rate>
							<timebase>30</timebase>
							<ntsc>TRUE</ntsc>
						</rate>
						<start>11850</start>
						<end>-1</end>
						<in>70033</in>
						<out>70187</out>
						<pproTicksIn>593576401017600</pproTicksIn>
						<pproTicksOut>594881653766400</pproTicksOut>
						<file id="file-25"/>
						<sourcetrack>
							<mediatype>audio</mediatype>
							<trackindex>1</trackindex>
						</sourcetrack>
						<link>
							<linkclipref>clipitem-146</linkclipref>
							<mediatype>audio</mediatype>
							<trackindex>12</trackindex>
							<clipindex>9</clipindex>
							<groupindex>1</groupindex>
						</link>
						<link>
							<linkclipref>clipitem-153</linkclipref>
							<mediatype>audio</mediatype>
							<trackindex>13</trackindex>
							<clipindex>9</clipindex>
							<groupindex>1</groupindex>
						</link>
						<logginginfo>
							<description></description>
							<scene></scene>
							<shottake></shottake>
							<lognote></lognote>
							<good></good>
							<originalvideofilename></originalvideofilename>
							<originalaudiofilename></originalaudiofilename>
						</logginginfo>
						<colorinfo>
							<lut></lut>
							<lut1></lut1>
							<asc_sop></asc_sop>
							<asc_sat></asc_sat>
							<lut2></lut2>
						</colorinfo>
						<labels>
							<label2>Violet</label2>
						</labels>
					</clipitem>
					<transitionitem>
						<start>12002</start>
						<end>12004</end>
						<alignment>center</alignment>
						<cutPointTicks>8475667200</cutPointTicks>
						<rate>
							<timebase>30</timebase>
							<ntsc>TRUE</ntsc>
						</rate>
						<effect>
							<name>Cross Fade (+3dB)</name>
							<effectid>KGAudioTransCrossFade3dB</effectid>
							<effecttype>transition</effecttype>
							<mediatype>audio</mediatype>
							<wipecode>0</wipecode>
							<wipeaccuracy>100</wipeaccuracy>
							<startratio>0</startratio>
							<endratio>1</endratio>
							<reverse>FALSE</reverse>
						</effect>
					</transitionitem>
					<clipitem id="clipitem-147" premiereChannelType="stereo">
						<masterclipid>masterclip-25</masterclipid>
						<name>ZOOM0001.WAV</name>
						<enabled>TRUE</enabled>
						<duration>140485</duration>
						<rate>
							<timebase>30</timebase>
							<ntsc>TRUE</ntsc>
						</rate>
						<start>-1</start>
						<end>-1</end>
						<in>72314</in>
						<out>72382</out>
						<pproTicksIn>612909397900800</pproTicksIn>
						<pproTicksOut>613485743270400</pproTicksOut>
						<file id="file-25"/>
						<sourcetrack>
							<mediatype>audio</mediatype>
							<trackindex>1</trackindex>
						</sourcetrack>
						<link>
							<linkclipref>clipitem-147</linkclipref>
							<mediatype>audio</mediatype>
							<trackindex>12</trackindex>
							<clipindex>11</clipindex>
							<groupindex>1</groupindex>
						</link>
						<link>
							<linkclipref>clipitem-154</linkclipref>
							<mediatype>audio</mediatype>
							<trackindex>13</trackindex>
							<clipindex>11</clipindex>
							<groupindex>1</groupindex>
						</link>
						<logginginfo>
							<description></description>
							<scene></scene>
							<shottake></shottake>
							<lognote></lognote>
							<good></good>
							<originalvideofilename></originalvideofilename>
							<originalaudiofilename></originalaudiofilename>
						</logginginfo>
						<colorinfo>
							<lut></lut>
							<lut1></lut1>
							<asc_sop></asc_sop>
							<asc_sat></asc_sat>
							<lut2></lut2>
						</colorinfo>
						<labels>
							<label2>Violet</label2>
						</labels>
					</clipitem>
					<transitionitem>
						<start>12068</start>
						<end>12070</end>
						<alignment>end-black</alignment>
						<cutPointTicks>16951334400</cutPointTicks>
						<rate>
							<timebase>30</timebase>
							<ntsc>TRUE</ntsc>
						</rate>
						<effect>
							<name>Cross Fade (+3dB)</name>
							<effectid>KGAudioTransCrossFade3dB</effectid>
							<effecttype>transition</effecttype>
							<mediatype>audio</mediatype>
							<wipecode>0</wipecode>
							<wipeaccuracy>100</wipeaccuracy>
							<startratio>0</startratio>
							<endratio>1</endratio>
							<reverse>FALSE</reverse>
						</effect>
					</transitionitem>
					<transitionitem>
						<start>18214</start>
						<end>18216</end>
						<alignment>start-black</alignment>
						<cutPointTicks>0</cutPointTicks>
						<rate>
							<timebase>30</timebase>
							<ntsc>TRUE</ntsc>
						</rate>
						<effect>
							<name>Cross Fade (+3dB)</name>
							<effectid>KGAudioTransCrossFade3dB</effectid>
							<effecttype>transition</effecttype>
							<mediatype>audio</mediatype>
							<wipecode>0</wipecode>
							<wipeaccuracy>100</wipeaccuracy>
							<startratio>0</startratio>
							<endratio>1</endratio>
							<reverse>FALSE</reverse>
						</effect>
					</transitionitem>
					<clipitem id="clipitem-148" premiereChannelType="stereo">
						<masterclipid>masterclip-25</masterclipid>
						<name>ZOOM0001.WAV</name>
						<enabled>TRUE</enabled>
						<duration>140485</duration>
						<rate>
							<timebase>30</timebase>
							<ntsc>TRUE</ntsc>
						</rate>
						<start>-1</start>
						<end>-1</end>
						<in>65588</in>
						<out>65701</out>
						<pproTicksIn>555902060313600</pproTicksIn>
						<pproTicksOut>556859810707200</pproTicksOut>
						<file id="file-25"/>
						<sourcetrack>
							<mediatype>audio</mediatype>
							<trackindex>1</trackindex>
						</sourcetrack>
						<link>
							<linkclipref>clipitem-148</linkclipref>
							<mediatype>audio</mediatype>
							<trackindex>12</trackindex>
							<clipindex>14</clipindex>
							<groupindex>1</groupindex>
						</link>
						<link>
							<linkclipref>clipitem-155</linkclipref>
							<mediatype>audio</mediatype>
							<trackindex>13</trackindex>
							<clipindex>14</clipindex>
							<groupindex>1</groupindex>
						</link>
						<logginginfo>
							<description></description>
							<scene></scene>
							<shottake></shottake>
							<lognote></lognote>
							<good></good>
							<originalvideofilename></originalvideofilename>
							<originalaudiofilename></originalaudiofilename>
						</logginginfo>
						<colorinfo>
							<lut></lut>
							<lut1></lut1>
							<asc_sop></asc_sop>
							<asc_sat></asc_sat>
							<lut2></lut2>
						</colorinfo>
						<labels>
							<label2>Mango</label2>
						</labels>
					</clipitem>
					<transitionitem>
						<start>18325</start>
						<end>18327</end>
						<alignment>end-black</alignment>
						<cutPointTicks>16951334400</cutPointTicks>
						<rate>
							<timebase>30</timebase>
							<ntsc>TRUE</ntsc>
						</rate>
						<effect>
							<name>Cross Fade (+3dB)</name>
							<effectid>KGAudioTransCrossFade3dB</effectid>
							<effecttype>transition</effecttype>
							<mediatype>audio</mediatype>
							<wipecode>0</wipecode>
							<wipeaccuracy>100</wipeaccuracy>
							<startratio>0</startratio>
							<endratio>1</endratio>
							<reverse>FALSE</reverse>
						</effect>
					</transitionitem>
					<enabled>TRUE</enabled>
					<locked>FALSE</locked>
					<outputchannelindex>1</outputchannelindex>
				</track>
				<track TL.SQTrackAudioKeyframeStyle="0" TL.SQTrackShy="0" TL.SQTrackExpandedHeight="15" TL.SQTrackExpanded="0" MZ.TrackTargeted="1" PannerCurrentValue="0" PannerStartKeyframe="-91445760000000000,0.,0,0,0,0,0,0" PannerName="Balance" currentExplodedTrackIndex="1" totalExplodedTrackCount="2" premiereTrackType="Stereo">
					<transitionitem>
						<start>9572</start>
						<end>9574</end>
						<alignment>start-black</alignment>
						<cutPointTicks>0</cutPointTicks>
						<rate>
							<timebase>30</timebase>
							<ntsc>TRUE</ntsc>
						</rate>
						<effect>
							<name>Cross Fade (+3dB)</name>
							<effectid>KGAudioTransCrossFade3dB</effectid>
							<effecttype>transition</effecttype>
							<mediatype>audio</mediatype>
							<wipecode>0</wipecode>
							<wipeaccuracy>100</wipeaccuracy>
							<startratio>0</startratio>
							<endratio>1</endratio>
							<reverse>FALSE</reverse>
						</effect>
					</transitionitem>
					<clipitem id="clipitem-149" premiereChannelType="stereo">
						<masterclipid>masterclip-25</masterclipid>
						<name>ZOOM0001.WAV</name>
						<enabled>TRUE</enabled>
						<duration>140485</duration>
						<rate>
							<timebase>30</timebase>
							<ntsc>TRUE</ntsc>
						</rate>
						<start>-1</start>
						<end>9751</end>
						<in>54029</in>
						<out>54208</out>
						<pproTicksIn>457931823148800</pproTicksIn>
						<pproTicksOut>459448967577600</pproTicksOut>
						<file id="file-25"/>
						<sourcetrack>
							<mediatype>audio</mediatype>
							<trackindex>2</trackindex>
						</sourcetrack>
						<link>
							<linkclipref>clipitem-142</linkclipref>
							<mediatype>audio</mediatype>
							<trackindex>12</trackindex>
							<clipindex>2</clipindex>
							<groupindex>1</groupindex>
						</link>
						<link>
							<linkclipref>clipitem-149</linkclipref>
							<mediatype>audio</mediatype>
							<trackindex>13</trackindex>
							<clipindex>2</clipindex>
							<groupindex>1</groupindex>
						</link>
						<logginginfo>
							<description></description>
							<scene></scene>
							<shottake></shottake>
							<lognote></lognote>
							<good></good>
							<originalvideofilename></originalvideofilename>
							<originalaudiofilename></originalaudiofilename>
						</logginginfo>
						<colorinfo>
							<lut></lut>
							<lut1></lut1>
							<asc_sop></asc_sop>
							<asc_sat></asc_sat>
							<lut2></lut2>
						</colorinfo>
						<labels>
							<label2>Violet</label2>
						</labels>
					</clipitem>
					<transitionitem>
						<start>11447</start>
						<end>11449</end>
						<alignment>start-black</alignment>
						<cutPointTicks>0</cutPointTicks>
						<rate>
							<timebase>30</timebase>
							<ntsc>TRUE</ntsc>
						</rate>
						<effect>
							<name>Cross Fade (+3dB)</name>
							<effectid>KGAudioTransCrossFade3dB</effectid>
							<effecttype>transition</effecttype>
							<mediatype>audio</mediatype>
							<wipecode>0</wipecode>
							<wipeaccuracy>100</wipeaccuracy>
							<startratio>0</startratio>
							<endratio>1</endratio>
							<reverse>FALSE</reverse>
						</effect>
					</transitionitem>
					<clipitem id="clipitem-150" premiereChannelType="stereo">
						<masterclipid>masterclip-25</masterclipid>
						<name>ZOOM0001.WAV</name>
						<enabled>TRUE</enabled>
						<duration>140485</duration>
						<rate>
							<timebase>30</timebase>
							<ntsc>TRUE</ntsc>
						</rate>
						<start>-1</start>
						<end>-1</end>
						<in>57735</in>
						<out>57857</out>
						<pproTicksIn>489342645792000</pproTicksIn>
						<pproTicksOut>490376677190400</pproTicksOut>
						<file id="file-25"/>
						<sourcetrack>
							<mediatype>audio</mediatype>
							<trackindex>2</trackindex>
						</sourcetrack>
						<link>
							<linkclipref>clipitem-143</linkclipref>
							<mediatype>audio</mediatype>
							<trackindex>12</trackindex>
							<clipindex>4</clipindex>
							<groupindex>1</groupindex>
						</link>
						<link>
							<linkclipref>clipitem-150</linkclipref>
							<mediatype>audio</mediatype>
							<trackindex>13</trackindex>
							<clipindex>4</clipindex>
							<groupindex>1</groupindex>
						</link>
						<logginginfo>
							<description></description>
							<scene></scene>
							<shottake></shottake>
							<lognote></lognote>
							<good></good>
							<originalvideofilename></originalvideofilename>
							<originalaudiofilename></originalaudiofilename>
						</logginginfo>
						<colorinfo>
							<lut></lut>
							<lut1></lut1>
							<asc_sop></asc_sop>
							<asc_sat></asc_sat>
							<lut2></lut2>
						</colorinfo>
						<labels>
							<label2>Violet</label2>
						</labels>
					</clipitem>
					<transitionitem>
						<start>11567</start>
						<end>11569</end>
						<alignment>center</alignment>
						<cutPointTicks>8475667200</cutPointTicks>
						<rate>
							<timebase>30</timebase>
							<ntsc>TRUE</ntsc>
						</rate>
						<effect>
							<name>Cross Fade (+3dB)</name>
							<effectid>KGAudioTransCrossFade3dB</effectid>
							<effecttype>transition</effecttype>
							<mediatype>audio</mediatype>
							<wipecode>0</wipecode>
							<wipeaccuracy>100</wipeaccuracy>
							<startratio>0</startratio>
							<endratio>1</endratio>
							<reverse>FALSE</reverse>
						</effect>
					</transitionitem>
					<clipitem id="clipitem-151" premiereChannelType="stereo">
						<masterclipid>masterclip-25</masterclipid>
						<name>ZOOM0001.WAV</name>
						<enabled>TRUE</enabled>
						<duration>140485</duration>
						<rate>
							<timebase>30</timebase>
							<ntsc>TRUE</ntsc>
						</rate>
						<start>-1</start>
						<end>-1</end>
						<in>57959</in>
						<out>58046</out>
						<pproTicksIn>491241195244800</pproTicksIn>
						<pproTicksOut>491978578291200</pproTicksOut>
						<file id="file-25"/>
						<sourcetrack>
							<mediatype>audio</mediatype>
							<trackindex>2</trackindex>
						</sourcetrack>
						<link>
							<linkclipref>clipitem-144</linkclipref>
							<mediatype>audio</mediatype>
							<trackindex>12</trackindex>
							<clipindex>6</clipindex>
							<groupindex>1</groupindex>
						</link>
						<link>
							<linkclipref>clipitem-151</linkclipref>
							<mediatype>audio</mediatype>
							<trackindex>13</trackindex>
							<clipindex>6</clipindex>
							<groupindex>1</groupindex>
						</link>
						<logginginfo>
							<description></description>
							<scene></scene>
							<shottake></shottake>
							<lognote></lognote>
							<good></good>
							<originalvideofilename></originalvideofilename>
							<originalaudiofilename></originalaudiofilename>
						</logginginfo>
						<colorinfo>
							<lut></lut>
							<lut1></lut1>
							<asc_sop></asc_sop>
							<asc_sat></asc_sat>
							<lut2></lut2>
						</colorinfo>
						<labels>
							<label2>Violet</label2>
						</labels>
					</clipitem>
					<transitionitem>
						<start>11652</start>
						<end>11654</end>
						<alignment>center</alignment>
						<cutPointTicks>8475667200</cutPointTicks>
						<rate>
							<timebase>30</timebase>
							<ntsc>TRUE</ntsc>
						</rate>
						<effect>
							<name>Cross Fade (+3dB)</name>
							<effectid>KGAudioTransCrossFade3dB</effectid>
							<effecttype>transition</effecttype>
							<mediatype>audio</mediatype>
							<wipecode>0</wipecode>
							<wipeaccuracy>100</wipeaccuracy>
							<startratio>0</startratio>
							<endratio>1</endratio>
							<reverse>FALSE</reverse>
						</effect>
					</transitionitem>
					<clipitem id="clipitem-152" premiereChannelType="stereo">
						<masterclipid>masterclip-25</masterclipid>
						<name>ZOOM0001.WAV</name>
						<enabled>TRUE</enabled>
						<duration>140485</duration>
						<rate>
							<timebase>30</timebase>
							<ntsc>TRUE</ntsc>
						</rate>
						<start>-1</start>
						<end>11850</end>
						<in>59890</in>
						<out>60088</out>
						<pproTicksIn>507607708608000</pproTicksIn>
						<pproTicksOut>509285890713600</pproTicksOut>
						<file id="file-25"/>
						<sourcetrack>
							<mediatype>audio</mediatype>
							<trackindex>2</trackindex>
						</sourcetrack>
						<link>
							<linkclipref>clipitem-145</linkclipref>
							<mediatype>audio</mediatype>
							<trackindex>12</trackindex>
							<clipindex>8</clipindex>
							<groupindex>1</groupindex>
						</link>
						<link>
							<linkclipref>clipitem-152</linkclipref>
							<mediatype>audio</mediatype>
							<trackindex>13</trackindex>
							<clipindex>8</clipindex>
							<groupindex>1</groupindex>
						</link>
						<logginginfo>
							<description></description>
							<scene></scene>
							<shottake></shottake>
							<lognote></lognote>
							<good></good>
							<originalvideofilename></originalvideofilename>
							<originalaudiofilename></originalaudiofilename>
						</logginginfo>
						<colorinfo>
							<lut></lut>
							<lut1></lut1>
							<asc_sop></asc_sop>
							<asc_sat></asc_sat>
							<lut2></lut2>
						</colorinfo>
						<labels>
							<label2>Violet</label2>
						</labels>
					</clipitem>
					<clipitem id="clipitem-153" premiereChannelType="stereo">
						<masterclipid>masterclip-25</masterclipid>
						<name>ZOOM0001.WAV</name>
						<enabled>TRUE</enabled>
						<duration>140485</duration>
						<rate>
							<timebase>30</timebase>
							<ntsc>TRUE</ntsc>
						</rate>
						<start>11850</start>
						<end>-1</end>
						<in>70033</in>
						<out>70187</out>
						<pproTicksIn>593576401017600</pproTicksIn>
						<pproTicksOut>594881653766400</pproTicksOut>
						<file id="file-25"/>
						<sourcetrack>
							<mediatype>audio</mediatype>
							<trackindex>2</trackindex>
						</sourcetrack>
						<link>
							<linkclipref>clipitem-146</linkclipref>
							<mediatype>audio</mediatype>
							<trackindex>12</trackindex>
							<clipindex>9</clipindex>
							<groupindex>1</groupindex>
						</link>
						<link>
							<linkclipref>clipitem-153</linkclipref>
							<mediatype>audio</mediatype>
							<trackindex>13</trackindex>
							<clipindex>9</clipindex>
							<groupindex>1</groupindex>
						</link>
						<logginginfo>
							<description></description>
							<scene></scene>
							<shottake></shottake>
							<lognote></lognote>
							<good></good>
							<originalvideofilename></originalvideofilename>
							<originalaudiofilename></originalaudiofilename>
						</logginginfo>
						<colorinfo>
							<lut></lut>
							<lut1></lut1>
							<asc_sop></asc_sop>
							<asc_sat></asc_sat>
							<lut2></lut2>
						</colorinfo>
						<labels>
							<label2>Violet</label2>
						</labels>
					</clipitem>
					<transitionitem>
						<start>12002</start>
						<end>12004</end>
						<alignment>center</alignment>
						<cutPointTicks>8475667200</cutPointTicks>
						<rate>
							<timebase>30</timebase>
							<ntsc>TRUE</ntsc>
						</rate>
						<effect>
							<name>Cross Fade (+3dB)</name>
							<effectid>KGAudioTransCrossFade3dB</effectid>
							<effecttype>transition</effecttype>
							<mediatype>audio</mediatype>
							<wipecode>0</wipecode>
							<wipeaccuracy>100</wipeaccuracy>
							<startratio>0</startratio>
							<endratio>1</endratio>
							<reverse>FALSE</reverse>
						</effect>
					</transitionitem>
					<clipitem id="clipitem-154" premiereChannelType="stereo">
						<masterclipid>masterclip-25</masterclipid>
						<name>ZOOM0001.WAV</name>
						<enabled>TRUE</enabled>
						<duration>140485</duration>
						<rate>
							<timebase>30</timebase>
							<ntsc>TRUE</ntsc>
						</rate>
						<start>-1</start>
						<end>-1</end>
						<in>72314</in>
						<out>72382</out>
						<pproTicksIn>612909397900800</pproTicksIn>
						<pproTicksOut>613485743270400</pproTicksOut>
						<file id="file-25"/>
						<sourcetrack>
							<mediatype>audio</mediatype>
							<trackindex>2</trackindex>
						</sourcetrack>
						<link>
							<linkclipref>clipitem-147</linkclipref>
							<mediatype>audio</mediatype>
							<trackindex>12</trackindex>
							<clipindex>11</clipindex>
							<groupindex>1</groupindex>
						</link>
						<link>
							<linkclipref>clipitem-154</linkclipref>
							<mediatype>audio</mediatype>
							<trackindex>13</trackindex>
							<clipindex>11</clipindex>
							<groupindex>1</groupindex>
						</link>
						<logginginfo>
							<description></description>
							<scene></scene>
							<shottake></shottake>
							<lognote></lognote>
							<good></good>
							<originalvideofilename></originalvideofilename>
							<originalaudiofilename></originalaudiofilename>
						</logginginfo>
						<colorinfo>
							<lut></lut>
							<lut1></lut1>
							<asc_sop></asc_sop>
							<asc_sat></asc_sat>
							<lut2></lut2>
						</colorinfo>
						<labels>
							<label2>Violet</label2>
						</labels>
					</clipitem>
					<transitionitem>
						<start>12068</start>
						<end>12070</end>
						<alignment>end-black</alignment>
						<cutPointTicks>16951334400</cutPointTicks>
						<rate>
							<timebase>30</timebase>
							<ntsc>TRUE</ntsc>
						</rate>
						<effect>
							<name>Cross Fade (+3dB)</name>
							<effectid>KGAudioTransCrossFade3dB</effectid>
							<effecttype>transition</effecttype>
							<mediatype>audio</mediatype>
							<wipecode>0</wipecode>
							<wipeaccuracy>100</wipeaccuracy>
							<startratio>0</startratio>
							<endratio>1</endratio>
							<reverse>FALSE</reverse>
						</effect>
					</transitionitem>
					<transitionitem>
						<start>18214</start>
						<end>18216</end>
						<alignment>start-black</alignment>
						<cutPointTicks>0</cutPointTicks>
						<rate>
							<timebase>30</timebase>
							<ntsc>TRUE</ntsc>
						</rate>
						<effect>
							<name>Cross Fade (+3dB)</name>
							<effectid>KGAudioTransCrossFade3dB</effectid>
							<effecttype>transition</effecttype>
							<mediatype>audio</mediatype>
							<wipecode>0</wipecode>
							<wipeaccuracy>100</wipeaccuracy>
							<startratio>0</startratio>
							<endratio>1</endratio>
							<reverse>FALSE</reverse>
						</effect>
					</transitionitem>
					<clipitem id="clipitem-155" premiereChannelType="stereo">
						<masterclipid>masterclip-25</masterclipid>
						<name>ZOOM0001.WAV</name>
						<enabled>TRUE</enabled>
						<duration>140485</duration>
						<rate>
							<timebase>30</timebase>
							<ntsc>TRUE</ntsc>
						</rate>
						<start>-1</start>
						<end>-1</end>
						<in>65588</in>
						<out>65701</out>
						<pproTicksIn>555902060313600</pproTicksIn>
						<pproTicksOut>556859810707200</pproTicksOut>
						<file id="file-25"/>
						<sourcetrack>
							<mediatype>audio</mediatype>
							<trackindex>2</trackindex>
						</sourcetrack>
						<link>
							<linkclipref>clipitem-148</linkclipref>
							<mediatype>audio</mediatype>
							<trackindex>12</trackindex>
							<clipindex>14</clipindex>
							<groupindex>1</groupindex>
						</link>
						<link>
							<linkclipref>clipitem-155</linkclipref>
							<mediatype>audio</mediatype>
							<trackindex>13</trackindex>
							<clipindex>14</clipindex>
							<groupindex>1</groupindex>
						</link>
						<logginginfo>
							<description></description>
							<scene></scene>
							<shottake></shottake>
							<lognote></lognote>
							<good></good>
							<originalvideofilename></originalvideofilename>
							<originalaudiofilename></originalaudiofilename>
						</logginginfo>
						<colorinfo>
							<lut></lut>
							<lut1></lut1>
							<asc_sop></asc_sop>
							<asc_sat></asc_sat>
							<lut2></lut2>
						</colorinfo>
						<labels>
							<label2>Mango</label2>
						</labels>
					</clipitem>
					<transitionitem>
						<start>18325</start>
						<end>18327</end>
						<alignment>end-black</alignment>
						<cutPointTicks>16951334400</cutPointTicks>
						<rate>
							<timebase>30</timebase>
							<ntsc>TRUE</ntsc>
						</rate>
						<effect>
							<name>Cross Fade (+3dB)</name>
							<effectid>KGAudioTransCrossFade3dB</effectid>
							<effecttype>transition</effecttype>
							<mediatype>audio</mediatype>
							<wipecode>0</wipecode>
							<wipeaccuracy>100</wipeaccuracy>
							<startratio>0</startratio>
							<endratio>1</endratio>
							<reverse>FALSE</reverse>
						</effect>
					</transitionitem>
					<enabled>TRUE</enabled>
					<locked>FALSE</locked>
					<outputchannelindex>2</outputchannelindex>
				</track>
				<track TL.SQTrackAudioKeyframeStyle="0" TL.SQTrackShy="0" TL.SQTrackExpandedHeight="15" TL.SQTrackExpanded="0" MZ.TrackTargeted="1" PannerCurrentValue="0.5" PannerStartKeyframe="-91445760000000000,0.5,0,0,0,0,0,0" PannerName="Pan" currentExplodedTrackIndex="0" totalExplodedTrackCount="2" premiereTrackType="SixteenChannel">
					<transitionitem>
						<start>324</start>
						<end>326</end>
						<alignment>start-black</alignment>
						<cutPointTicks>0</cutPointTicks>
						<rate>
							<timebase>30</timebase>
							<ntsc>TRUE</ntsc>
						</rate>
						<effect>
							<name>Cross Fade (+3dB)</name>
							<effectid>KGAudioTransCrossFade3dB</effectid>
							<effecttype>transition</effecttype>
							<mediatype>audio</mediatype>
							<wipecode>0</wipecode>
							<wipeaccuracy>100</wipeaccuracy>
							<startratio>0</startratio>
							<endratio>1</endratio>
							<reverse>FALSE</reverse>
						</effect>
					</transitionitem>
					<clipitem id="clipitem-156" premiereChannelType="stereo">
						<masterclipid>masterclip-30</masterclipid>
						<name>Ambience Nature Trail 180 01.wav</name>
						<enabled>TRUE</enabled>
						<duration>2700</duration>
						<rate>
							<timebase>30</timebase>
							<ntsc>TRUE</ntsc>
						</rate>
						<start>-1</start>
						<end>-1</end>
						<in>1706</in>
						<out>2677</out>
						<pproTicksIn>14459488243200</pproTicksIn>
						<pproTicksOut>22689361094400</pproTicksOut>
						<file id="file-30">
							<name>Ambience Nature Trail 180 01.wav</name>
							<pathurl>file://Gladiator/hd/Departments/_Post/Library/SFX/ambience_2/Ambience%20Nature%20Trail%20180%2001.wav</pathurl>
							<rate>
								<timebase>30</timebase>
								<ntsc>TRUE</ntsc>
							</rate>
							<duration>2700</duration>
							<timecode>
								<rate>
									<timebase>30</timebase>
									<ntsc>TRUE</ntsc>
								</rate>
								<string>00;00;00;00</string>
								<frame>0</frame>
								<displayformat>DF</displayformat>
							</timecode>
							<media>
								<audio>
									<samplecharacteristics>
										<depth>16</depth>
										<samplerate>48000</samplerate>
									</samplecharacteristics>
									<channelcount>2</channelcount>
								</audio>
							</media>
						</file>
						<sourcetrack>
							<mediatype>audio</mediatype>
							<trackindex>1</trackindex>
						</sourcetrack>
						<link>
							<linkclipref>clipitem-156</linkclipref>
							<mediatype>audio</mediatype>
							<trackindex>14</trackindex>
							<clipindex>2</clipindex>
							<groupindex>1</groupindex>
						</link>
						<link>
							<linkclipref>clipitem-167</linkclipref>
							<mediatype>audio</mediatype>
							<trackindex>15</trackindex>
							<clipindex>2</clipindex>
							<groupindex>1</groupindex>
						</link>
						<logginginfo>
							<description></description>
							<scene></scene>
							<shottake></shottake>
							<lognote></lognote>
							<good></good>
							<originalvideofilename></originalvideofilename>
							<originalaudiofilename></originalaudiofilename>
						</logginginfo>
						<colorinfo>
							<lut></lut>
							<lut1></lut1>
							<asc_sop></asc_sop>
							<asc_sat></asc_sat>
							<lut2></lut2>
						</colorinfo>
						<labels>
							<label2>Caribbean</label2>
						</labels>
					</clipitem>
					<transitionitem>
						<start>1293</start>
						<end>1295</end>
						<alignment>center</alignment>
						<cutPointTicks>8475667200</cutPointTicks>
						<rate>
							<timebase>30</timebase>
							<ntsc>TRUE</ntsc>
						</rate>
						<effect>
							<name>Cross Fade (+3dB)</name>
							<effectid>KGAudioTransCrossFade3dB</effectid>
							<effecttype>transition</effecttype>
							<mediatype>audio</mediatype>
							<wipecode>0</wipecode>
							<wipeaccuracy>100</wipeaccuracy>
							<startratio>0</startratio>
							<endratio>1</endratio>
							<reverse>FALSE</reverse>
						</effect>
					</transitionitem>
					<clipitem id="clipitem-157" premiereChannelType="stereo">
						<masterclipid>masterclip-30</masterclipid>
						<name>Ambience Nature Trail 180 01.wav</name>
						<enabled>TRUE</enabled>
						<duration>2700</duration>
						<rate>
							<timebase>30</timebase>
							<ntsc>TRUE</ntsc>
						</rate>
						<start>-1</start>
						<end>-1</end>
						<in>136</in>
						<out>2458</out>
						<pproTicksIn>1152690739200</pproTicksIn>
						<pproTicksOut>20833189977600</pproTicksOut>
						<file id="file-30"/>
						<sourcetrack>
							<mediatype>audio</mediatype>
							<trackindex>1</trackindex>
						</sourcetrack>
						<link>
							<linkclipref>clipitem-157</linkclipref>
							<mediatype>audio</mediatype>
							<trackindex>14</trackindex>
							<clipindex>4</clipindex>
							<groupindex>1</groupindex>
						</link>
						<link>
							<linkclipref>clipitem-168</linkclipref>
							<mediatype>audio</mediatype>
							<trackindex>15</trackindex>
							<clipindex>4</clipindex>
							<groupindex>1</groupindex>
						</link>
						<logginginfo>
							<description></description>
							<scene></scene>
							<shottake></shottake>
							<lognote></lognote>
							<good></good>
							<originalvideofilename></originalvideofilename>
							<originalaudiofilename></originalaudiofilename>
						</logginginfo>
						<colorinfo>
							<lut></lut>
							<lut1></lut1>
							<asc_sop></asc_sop>
							<asc_sat></asc_sat>
							<lut2></lut2>
						</colorinfo>
						<labels>
							<label2>Caribbean</label2>
						</labels>
					</clipitem>
					<transitionitem>
						<start>3537</start>
						<end>3615</end>
						<alignment>center</alignment>
						<cutPointTicks>330551020800</cutPointTicks>
						<rate>
							<timebase>30</timebase>
							<ntsc>TRUE</ntsc>
						</rate>
						<effect>
							<name>Cross Fade (+3dB)</name>
							<effectid>KGAudioTransCrossFade3dB</effectid>
							<effecttype>transition</effecttype>
							<mediatype>audio</mediatype>
							<wipecode>0</wipecode>
							<wipeaccuracy>100</wipeaccuracy>
							<startratio>0</startratio>
							<endratio>1</endratio>
							<reverse>FALSE</reverse>
						</effect>
					</transitionitem>
					<clipitem id="clipitem-158" premiereChannelType="stereo">
						<masterclipid>masterclip-30</masterclipid>
						<name>Ambience Nature Trail 180 01.wav</name>
						<enabled>TRUE</enabled>
						<duration>2700</duration>
						<rate>
							<timebase>30</timebase>
							<ntsc>TRUE</ntsc>
						</rate>
						<start>-1</start>
						<end>5546</end>
						<in>98</in>
						<out>2107</out>
						<pproTicksIn>830615385600</pproTicksIn>
						<pproTicksOut>17858230790400</pproTicksOut>
						<file id="file-30"/>
						<sourcetrack>
							<mediatype>audio</mediatype>
							<trackindex>1</trackindex>
						</sourcetrack>
						<link>
							<linkclipref>clipitem-158</linkclipref>
							<mediatype>audio</mediatype>
							<trackindex>14</trackindex>
							<clipindex>6</clipindex>
							<groupindex>1</groupindex>
						</link>
						<link>
							<linkclipref>clipitem-169</linkclipref>
							<mediatype>audio</mediatype>
							<trackindex>15</trackindex>
							<clipindex>6</clipindex>
							<groupindex>1</groupindex>
						</link>
						<logginginfo>
							<description></description>
							<scene></scene>
							<shottake></shottake>
							<lognote></lognote>
							<good></good>
							<originalvideofilename></originalvideofilename>
							<originalaudiofilename></originalaudiofilename>
						</logginginfo>
						<colorinfo>
							<lut></lut>
							<lut1></lut1>
							<asc_sop></asc_sop>
							<asc_sat></asc_sat>
							<lut2></lut2>
						</colorinfo>
						<labels>
							<label2>Caribbean</label2>
						</labels>
					</clipitem>
					<clipitem id="clipitem-159" premiereChannelType="stereo">
						<masterclipid>masterclip-30</masterclipid>
						<name>Ambience Nature Trail 180 01.wav</name>
						<enabled>TRUE</enabled>
						<duration>2700</duration>
						<rate>
							<timebase>30</timebase>
							<ntsc>TRUE</ntsc>
						</rate>
						<start>5583</start>
						<end>-1</end>
						<in>573</in>
						<out>2458</out>
						<pproTicksIn>4856557305600</pproTicksIn>
						<pproTicksOut>20833189977600</pproTicksOut>
						<file id="file-30"/>
						<sourcetrack>
							<mediatype>audio</mediatype>
							<trackindex>1</trackindex>
						</sourcetrack>
						<link>
							<linkclipref>clipitem-159</linkclipref>
							<mediatype>audio</mediatype>
							<trackindex>14</trackindex>
							<clipindex>7</clipindex>
							<groupindex>1</groupindex>
						</link>
						<link>
							<linkclipref>clipitem-170</linkclipref>
							<mediatype>audio</mediatype>
							<trackindex>15</trackindex>
							<clipindex>7</clipindex>
							<groupindex>1</groupindex>
						</link>
						<logginginfo>
							<description></description>
							<scene></scene>
							<shottake></shottake>
							<lognote></lognote>
							<good></good>
							<originalvideofilename></originalvideofilename>
							<originalaudiofilename></originalaudiofilename>
						</logginginfo>
						<colorinfo>
							<lut></lut>
							<lut1></lut1>
							<asc_sop></asc_sop>
							<asc_sat></asc_sat>
							<lut2></lut2>
						</colorinfo>
						<labels>
							<label2>Caribbean</label2>
						</labels>
					</clipitem>
					<transitionitem>
						<start>7390</start>
						<end>7468</end>
						<alignment>center</alignment>
						<cutPointTicks>330551020800</cutPointTicks>
						<rate>
							<timebase>30</timebase>
							<ntsc>TRUE</ntsc>
						</rate>
						<effect>
							<name>Cross Fade (+3dB)</name>
							<effectid>KGAudioTransCrossFade3dB</effectid>
							<effecttype>transition</effecttype>
							<mediatype>audio</mediatype>
							<wipecode>0</wipecode>
							<wipeaccuracy>100</wipeaccuracy>
							<startratio>0</startratio>
							<endratio>1</endratio>
							<reverse>FALSE</reverse>
						</effect>
					</transitionitem>
					<clipitem id="clipitem-160" premiereChannelType="stereo">
						<masterclipid>masterclip-30</masterclipid>
						<name>Ambience Nature Trail 180 01.wav</name>
						<enabled>TRUE</enabled>
						<duration>2700</duration>
						<rate>
							<timebase>30</timebase>
							<ntsc>TRUE</ntsc>
						</rate>
						<start>-1</start>
						<end>8881</end>
						<in>98</in>
						<out>1589</out>
						<pproTicksIn>830615385600</pproTicksIn>
						<pproTicksOut>13467835180800</pproTicksOut>
						<file id="file-30"/>
						<sourcetrack>
							<mediatype>audio</mediatype>
							<trackindex>1</trackindex>
						</sourcetrack>
						<link>
							<linkclipref>clipitem-160</linkclipref>
							<mediatype>audio</mediatype>
							<trackindex>14</trackindex>
							<clipindex>9</clipindex>
							<groupindex>1</groupindex>
						</link>
						<link>
							<linkclipref>clipitem-171</linkclipref>
							<mediatype>audio</mediatype>
							<trackindex>15</trackindex>
							<clipindex>9</clipindex>
							<groupindex>1</groupindex>
						</link>
						<logginginfo>
							<description></description>
							<scene></scene>
							<shottake></shottake>
							<lognote></lognote>
							<good></good>
							<originalvideofilename></originalvideofilename>
							<originalaudiofilename></originalaudiofilename>
						</logginginfo>
						<colorinfo>
							<lut></lut>
							<lut1></lut1>
							<asc_sop></asc_sop>
							<asc_sat></asc_sat>
							<lut2></lut2>
						</colorinfo>
						<labels>
							<label2>Caribbean</label2>
						</labels>
					</clipitem>
					<clipitem id="clipitem-161" premiereChannelType="stereo">
						<masterclipid>masterclip-30</masterclipid>
						<name>Ambience Nature Trail 180 01.wav</name>
						<enabled>TRUE</enabled>
						<duration>2700</duration>
						<rate>
							<timebase>30</timebase>
							<ntsc>TRUE</ntsc>
						</rate>
						<start>8881</start>
						<end>-1</end>
						<in>2004</in>
						<out>2675</out>
						<pproTicksIn>16985237068800</pproTicksIn>
						<pproTicksOut>22672409760000</pproTicksOut>
						<file id="file-30"/>
						<sourcetrack>
							<mediatype>audio</mediatype>
							<trackindex>1</trackindex>
						</sourcetrack>
						<link>
							<linkclipref>clipitem-161</linkclipref>
							<mediatype>audio</mediatype>
							<trackindex>14</trackindex>
							<clipindex>10</clipindex>
							<groupindex>1</groupindex>
						</link>
						<link>
							<linkclipref>clipitem-172</linkclipref>
							<mediatype>audio</mediatype>
							<trackindex>15</trackindex>
							<clipindex>10</clipindex>
							<groupindex>1</groupindex>
						</link>
						<logginginfo>
							<description></description>
							<scene></scene>
							<shottake></shottake>
							<lognote></lognote>
							<good></good>
							<originalvideofilename></originalvideofilename>
							<originalaudiofilename></originalaudiofilename>
						</logginginfo>
						<colorinfo>
							<lut></lut>
							<lut1></lut1>
							<asc_sop></asc_sop>
							<asc_sat></asc_sat>
							<lut2></lut2>
						</colorinfo>
						<labels>
							<label2>Caribbean</label2>
						</labels>
					</clipitem>
					<transitionitem>
						<start>9550</start>
						<end>9552</end>
						<alignment>center</alignment>
						<cutPointTicks>8475667200</cutPointTicks>
						<rate>
							<timebase>30</timebase>
							<ntsc>TRUE</ntsc>
						</rate>
						<effect>
							<name>Cross Fade (+3dB)</name>
							<effectid>KGAudioTransCrossFade3dB</effectid>
							<effecttype>transition</effecttype>
							<mediatype>audio</mediatype>
							<wipecode>0</wipecode>
							<wipeaccuracy>100</wipeaccuracy>
							<startratio>0</startratio>
							<endratio>1</endratio>
							<reverse>FALSE</reverse>
						</effect>
					</transitionitem>
					<clipitem id="clipitem-162" premiereChannelType="stereo">
						<masterclipid>masterclip-30</masterclipid>
						<name>Ambience Nature Trail 180 01.wav</name>
						<enabled>TRUE</enabled>
						<duration>2700</duration>
						<rate>
							<timebase>30</timebase>
							<ntsc>TRUE</ntsc>
						</rate>
						<start>-1</start>
						<end>-1</end>
						<in>136</in>
						<out>2458</out>
						<pproTicksIn>1152690739200</pproTicksIn>
						<pproTicksOut>20833189977600</pproTicksOut>
						<file id="file-30"/>
						<sourcetrack>
							<mediatype>audio</mediatype>
							<trackindex>1</trackindex>
						</sourcetrack>
						<link>
							<linkclipref>clipitem-162</linkclipref>
							<mediatype>audio</mediatype>
							<trackindex>14</trackindex>
							<clipindex>12</clipindex>
							<groupindex>1</groupindex>
						</link>
						<link>
							<linkclipref>clipitem-173</linkclipref>
							<mediatype>audio</mediatype>
							<trackindex>15</trackindex>
							<clipindex>12</clipindex>
							<groupindex>1</groupindex>
						</link>
						<logginginfo>
							<description></description>
							<scene></scene>
							<shottake></shottake>
							<lognote></lognote>
							<good></good>
							<originalvideofilename></originalvideofilename>
							<originalaudiofilename></originalaudiofilename>
						</logginginfo>
						<colorinfo>
							<lut></lut>
							<lut1></lut1>
							<asc_sop></asc_sop>
							<asc_sat></asc_sat>
							<lut2></lut2>
						</colorinfo>
						<labels>
							<label2>Caribbean</label2>
						</labels>
					</clipitem>
					<transitionitem>
						<start>11794</start>
						<end>11872</end>
						<alignment>center</alignment>
						<cutPointTicks>330551020800</cutPointTicks>
						<rate>
							<timebase>30</timebase>
							<ntsc>TRUE</ntsc>
						</rate>
						<effect>
							<name>Cross Fade (+3dB)</name>
							<effectid>KGAudioTransCrossFade3dB</effectid>
							<effecttype>transition</effecttype>
							<mediatype>audio</mediatype>
							<wipecode>0</wipecode>
							<wipeaccuracy>100</wipeaccuracy>
							<startratio>0</startratio>
							<endratio>1</endratio>
							<reverse>FALSE</reverse>
						</effect>
					</transitionitem>
					<clipitem id="clipitem-163" premiereChannelType="stereo">
						<masterclipid>masterclip-30</masterclipid>
						<name>Ambience Nature Trail 180 01.wav</name>
						<enabled>TRUE</enabled>
						<duration>2700</duration>
						<rate>
							<timebase>30</timebase>
							<ntsc>TRUE</ntsc>
						</rate>
						<start>-1</start>
						<end>-1</end>
						<in>98</in>
						<out>2676</out>
						<pproTicksIn>830615385600</pproTicksIn>
						<pproTicksOut>22680885427200</pproTicksOut>
						<file id="file-30"/>
						<sourcetrack>
							<mediatype>audio</mediatype>
							<trackindex>1</trackindex>
						</sourcetrack>
						<link>
							<linkclipref>clipitem-163</linkclipref>
							<mediatype>audio</mediatype>
							<trackindex>14</trackindex>
							<clipindex>14</clipindex>
							<groupindex>1</groupindex>
						</link>
						<link>
							<linkclipref>clipitem-174</linkclipref>
							<mediatype>audio</mediatype>
							<trackindex>15</trackindex>
							<clipindex>14</clipindex>
							<groupindex>1</groupindex>
						</link>
						<logginginfo>
							<description></description>
							<scene></scene>
							<shottake></shottake>
							<lognote></lognote>
							<good></good>
							<originalvideofilename></originalvideofilename>
							<originalaudiofilename></originalaudiofilename>
						</logginginfo>
						<colorinfo>
							<lut></lut>
							<lut1></lut1>
							<asc_sop></asc_sop>
							<asc_sat></asc_sat>
							<lut2></lut2>
						</colorinfo>
						<labels>
							<label2>Caribbean</label2>
						</labels>
					</clipitem>
					<transitionitem>
						<start>14370</start>
						<end>14372</end>
						<alignment>end-black</alignment>
						<cutPointTicks>16951334400</cutPointTicks>
						<rate>
							<timebase>30</timebase>
							<ntsc>TRUE</ntsc>
						</rate>
						<effect>
							<name>Cross Fade (+3dB)</name>
							<effectid>KGAudioTransCrossFade3dB</effectid>
							<effecttype>transition</effecttype>
							<mediatype>audio</mediatype>
							<wipecode>0</wipecode>
							<wipeaccuracy>100</wipeaccuracy>
							<startratio>0</startratio>
							<endratio>1</endratio>
							<reverse>FALSE</reverse>
						</effect>
					</transitionitem>
					<clipitem id="clipitem-164" premiereChannelType="stereo">
						<masterclipid>masterclip-30</masterclipid>
						<name>Ambience Nature Trail 180 01.wav</name>
						<enabled>TRUE</enabled>
						<duration>2700</duration>
						<rate>
							<timebase>30</timebase>
							<ntsc>TRUE</ntsc>
						</rate>
						<start>14372</start>
						<end>-1</end>
						<in>137</in>
						<out>2458</out>
						<pproTicksIn>1161166406400</pproTicksIn>
						<pproTicksOut>20833189977600</pproTicksOut>
						<file id="file-30"/>
						<sourcetrack>
							<mediatype>audio</mediatype>
							<trackindex>1</trackindex>
						</sourcetrack>
						<link>
							<linkclipref>clipitem-164</linkclipref>
							<mediatype>audio</mediatype>
							<trackindex>14</trackindex>
							<clipindex>16</clipindex>
							<groupindex>1</groupindex>
						</link>
						<link>
							<linkclipref>clipitem-175</linkclipref>
							<mediatype>audio</mediatype>
							<trackindex>15</trackindex>
							<clipindex>16</clipindex>
							<groupindex>1</groupindex>
						</link>
						<logginginfo>
							<description></description>
							<scene></scene>
							<shottake></shottake>
							<lognote></lognote>
							<good></good>
							<originalvideofilename></originalvideofilename>
							<originalaudiofilename></originalaudiofilename>
						</logginginfo>
						<colorinfo>
							<lut></lut>
							<lut1></lut1>
							<asc_sop></asc_sop>
							<asc_sat></asc_sat>
							<lut2></lut2>
						</colorinfo>
						<labels>
							<label2>Caribbean</label2>
						</labels>
					</clipitem>
					<transitionitem>
						<start>16615</start>
						<end>16693</end>
						<alignment>center</alignment>
						<cutPointTicks>330551020800</cutPointTicks>
						<rate>
							<timebase>30</timebase>
							<ntsc>TRUE</ntsc>
						</rate>
						<effect>
							<name>Cross Fade (+3dB)</name>
							<effectid>KGAudioTransCrossFade3dB</effectid>
							<effecttype>transition</effecttype>
							<mediatype>audio</mediatype>
							<wipecode>0</wipecode>
							<wipeaccuracy>100</wipeaccuracy>
							<startratio>0</startratio>
							<endratio>1</endratio>
							<reverse>FALSE</reverse>
						</effect>
					</transitionitem>
					<clipitem id="clipitem-165" premiereChannelType="stereo">
						<masterclipid>masterclip-30</masterclipid>
						<name>Ambience Nature Trail 180 01.wav</name>
						<enabled>TRUE</enabled>
						<duration>2700</duration>
						<rate>
							<timebase>30</timebase>
							<ntsc>TRUE</ntsc>
						</rate>
						<start>-1</start>
						<end>-1</end>
						<in>98</in>
						<out>2677</out>
						<pproTicksIn>830615385600</pproTicksIn>
						<pproTicksOut>22689361094400</pproTicksOut>
						<file id="file-30"/>
						<sourcetrack>
							<mediatype>audio</mediatype>
							<trackindex>1</trackindex>
						</sourcetrack>
						<link>
							<linkclipref>clipitem-165</linkclipref>
							<mediatype>audio</mediatype>
							<trackindex>14</trackindex>
							<clipindex>18</clipindex>
							<groupindex>1</groupindex>
						</link>
						<link>
							<linkclipref>clipitem-176</linkclipref>
							<mediatype>audio</mediatype>
							<trackindex>15</trackindex>
							<clipindex>18</clipindex>
							<groupindex>1</groupindex>
						</link>
						<logginginfo>
							<description></description>
							<scene></scene>
							<shottake></shottake>
							<lognote></lognote>
							<good></good>
							<originalvideofilename></originalvideofilename>
							<originalaudiofilename></originalaudiofilename>
						</logginginfo>
						<colorinfo>
							<lut></lut>
							<lut1></lut1>
							<asc_sop></asc_sop>
							<asc_sat></asc_sat>
							<lut2></lut2>
						</colorinfo>
						<labels>
							<label2>Caribbean</label2>
						</labels>
					</clipitem>
					<transitionitem>
						<start>19192</start>
						<end>19194</end>
						<alignment>center</alignment>
						<cutPointTicks>8475667200</cutPointTicks>
						<rate>
							<timebase>30</timebase>
							<ntsc>TRUE</ntsc>
						</rate>
						<effect>
							<name>Cross Fade (+3dB)</name>
							<effectid>KGAudioTransCrossFade3dB</effectid>
							<effecttype>transition</effecttype>
							<mediatype>audio</mediatype>
							<wipecode>0</wipecode>
							<wipeaccuracy>100</wipeaccuracy>
							<startratio>0</startratio>
							<endratio>1</endratio>
							<reverse>FALSE</reverse>
						</effect>
					</transitionitem>
					<clipitem id="clipitem-166" premiereChannelType="stereo">
						<masterclipid>masterclip-30</masterclipid>
						<name>Ambience Nature Trail 180 01.wav</name>
						<enabled>TRUE</enabled>
						<duration>2700</duration>
						<rate>
							<timebase>30</timebase>
							<ntsc>TRUE</ntsc>
						</rate>
						<start>-1</start>
						<end>20379</end>
						<in>136</in>
						<out>1323</out>
						<pproTicksIn>1152690739200</pproTicksIn>
						<pproTicksOut>11213307705600</pproTicksOut>
						<file id="file-30"/>
						<sourcetrack>
							<mediatype>audio</mediatype>
							<trackindex>1</trackindex>
						</sourcetrack>
						<link>
							<linkclipref>clipitem-166</linkclipref>
							<mediatype>audio</mediatype>
							<trackindex>14</trackindex>
							<clipindex>20</clipindex>
							<groupindex>1</groupindex>
						</link>
						<link>
							<linkclipref>clipitem-177</linkclipref>
							<mediatype>audio</mediatype>
							<trackindex>15</trackindex>
							<clipindex>20</clipindex>
							<groupindex>1</groupindex>
						</link>
						<logginginfo>
							<description></description>
							<scene></scene>
							<shottake></shottake>
							<lognote></lognote>
							<good></good>
							<originalvideofilename></originalvideofilename>
							<originalaudiofilename></originalaudiofilename>
						</logginginfo>
						<colorinfo>
							<lut></lut>
							<lut1></lut1>
							<asc_sop></asc_sop>
							<asc_sat></asc_sat>
							<lut2></lut2>
						</colorinfo>
						<labels>
							<label2>Caribbean</label2>
						</labels>
					</clipitem>
					<enabled>TRUE</enabled>
					<locked>FALSE</locked>
					<outputchannelindex>1</outputchannelindex>
				</track>
				<track TL.SQTrackAudioKeyframeStyle="0" TL.SQTrackShy="0" TL.SQTrackExpandedHeight="15" TL.SQTrackExpanded="0" MZ.TrackTargeted="1" PannerCurrentValue="0.5" PannerStartKeyframe="-91445760000000000,0.5,0,0,0,0,0,0" PannerName="Pan" currentExplodedTrackIndex="1" totalExplodedTrackCount="2" premiereTrackType="SixteenChannel">
					<transitionitem>
						<start>324</start>
						<end>326</end>
						<alignment>start-black</alignment>
						<cutPointTicks>0</cutPointTicks>
						<rate>
							<timebase>30</timebase>
							<ntsc>TRUE</ntsc>
						</rate>
						<effect>
							<name>Cross Fade (+3dB)</name>
							<effectid>KGAudioTransCrossFade3dB</effectid>
							<effecttype>transition</effecttype>
							<mediatype>audio</mediatype>
							<wipecode>0</wipecode>
							<wipeaccuracy>100</wipeaccuracy>
							<startratio>0</startratio>
							<endratio>1</endratio>
							<reverse>FALSE</reverse>
						</effect>
					</transitionitem>
					<clipitem id="clipitem-167" premiereChannelType="stereo">
						<masterclipid>masterclip-30</masterclipid>
						<name>Ambience Nature Trail 180 01.wav</name>
						<enabled>TRUE</enabled>
						<duration>2700</duration>
						<rate>
							<timebase>30</timebase>
							<ntsc>TRUE</ntsc>
						</rate>
						<start>-1</start>
						<end>-1</end>
						<in>1706</in>
						<out>2677</out>
						<pproTicksIn>14459488243200</pproTicksIn>
						<pproTicksOut>22689361094400</pproTicksOut>
						<file id="file-30"/>
						<sourcetrack>
							<mediatype>audio</mediatype>
							<trackindex>2</trackindex>
						</sourcetrack>
						<link>
							<linkclipref>clipitem-156</linkclipref>
							<mediatype>audio</mediatype>
							<trackindex>14</trackindex>
							<clipindex>2</clipindex>
							<groupindex>1</groupindex>
						</link>
						<link>
							<linkclipref>clipitem-167</linkclipref>
							<mediatype>audio</mediatype>
							<trackindex>15</trackindex>
							<clipindex>2</clipindex>
							<groupindex>1</groupindex>
						</link>
						<logginginfo>
							<description></description>
							<scene></scene>
							<shottake></shottake>
							<lognote></lognote>
							<good></good>
							<originalvideofilename></originalvideofilename>
							<originalaudiofilename></originalaudiofilename>
						</logginginfo>
						<colorinfo>
							<lut></lut>
							<lut1></lut1>
							<asc_sop></asc_sop>
							<asc_sat></asc_sat>
							<lut2></lut2>
						</colorinfo>
						<labels>
							<label2>Caribbean</label2>
						</labels>
					</clipitem>
					<transitionitem>
						<start>1293</start>
						<end>1295</end>
						<alignment>center</alignment>
						<cutPointTicks>8475667200</cutPointTicks>
						<rate>
							<timebase>30</timebase>
							<ntsc>TRUE</ntsc>
						</rate>
						<effect>
							<name>Cross Fade (+3dB)</name>
							<effectid>KGAudioTransCrossFade3dB</effectid>
							<effecttype>transition</effecttype>
							<mediatype>audio</mediatype>
							<wipecode>0</wipecode>
							<wipeaccuracy>100</wipeaccuracy>
							<startratio>0</startratio>
							<endratio>1</endratio>
							<reverse>FALSE</reverse>
						</effect>
					</transitionitem>
					<clipitem id="clipitem-168" premiereChannelType="stereo">
						<masterclipid>masterclip-30</masterclipid>
						<name>Ambience Nature Trail 180 01.wav</name>
						<enabled>TRUE</enabled>
						<duration>2700</duration>
						<rate>
							<timebase>30</timebase>
							<ntsc>TRUE</ntsc>
						</rate>
						<start>-1</start>
						<end>-1</end>
						<in>136</in>
						<out>2458</out>
						<pproTicksIn>1152690739200</pproTicksIn>
						<pproTicksOut>20833189977600</pproTicksOut>
						<file id="file-30"/>
						<sourcetrack>
							<mediatype>audio</mediatype>
							<trackindex>2</trackindex>
						</sourcetrack>
						<link>
							<linkclipref>clipitem-157</linkclipref>
							<mediatype>audio</mediatype>
							<trackindex>14</trackindex>
							<clipindex>4</clipindex>
							<groupindex>1</groupindex>
						</link>
						<link>
							<linkclipref>clipitem-168</linkclipref>
							<mediatype>audio</mediatype>
							<trackindex>15</trackindex>
							<clipindex>4</clipindex>
							<groupindex>1</groupindex>
						</link>
						<logginginfo>
							<description></description>
							<scene></scene>
							<shottake></shottake>
							<lognote></lognote>
							<good></good>
							<originalvideofilename></originalvideofilename>
							<originalaudiofilename></originalaudiofilename>
						</logginginfo>
						<colorinfo>
							<lut></lut>
							<lut1></lut1>
							<asc_sop></asc_sop>
							<asc_sat></asc_sat>
							<lut2></lut2>
						</colorinfo>
						<labels>
							<label2>Caribbean</label2>
						</labels>
					</clipitem>
					<transitionitem>
						<start>3537</start>
						<end>3615</end>
						<alignment>center</alignment>
						<cutPointTicks>330551020800</cutPointTicks>
						<rate>
							<timebase>30</timebase>
							<ntsc>TRUE</ntsc>
						</rate>
						<effect>
							<name>Cross Fade (+3dB)</name>
							<effectid>KGAudioTransCrossFade3dB</effectid>
							<effecttype>transition</effecttype>
							<mediatype>audio</mediatype>
							<wipecode>0</wipecode>
							<wipeaccuracy>100</wipeaccuracy>
							<startratio>0</startratio>
							<endratio>1</endratio>
							<reverse>FALSE</reverse>
						</effect>
					</transitionitem>
					<clipitem id="clipitem-169" premiereChannelType="stereo">
						<masterclipid>masterclip-30</masterclipid>
						<name>Ambience Nature Trail 180 01.wav</name>
						<enabled>TRUE</enabled>
						<duration>2700</duration>
						<rate>
							<timebase>30</timebase>
							<ntsc>TRUE</ntsc>
						</rate>
						<start>-1</start>
						<end>5546</end>
						<in>98</in>
						<out>2107</out>
						<pproTicksIn>830615385600</pproTicksIn>
						<pproTicksOut>17858230790400</pproTicksOut>
						<file id="file-30"/>
						<sourcetrack>
							<mediatype>audio</mediatype>
							<trackindex>2</trackindex>
						</sourcetrack>
						<link>
							<linkclipref>clipitem-158</linkclipref>
							<mediatype>audio</mediatype>
							<trackindex>14</trackindex>
							<clipindex>6</clipindex>
							<groupindex>1</groupindex>
						</link>
						<link>
							<linkclipref>clipitem-169</linkclipref>
							<mediatype>audio</mediatype>
							<trackindex>15</trackindex>
							<clipindex>6</clipindex>
							<groupindex>1</groupindex>
						</link>
						<logginginfo>
							<description></description>
							<scene></scene>
							<shottake></shottake>
							<lognote></lognote>
							<good></good>
							<originalvideofilename></originalvideofilename>
							<originalaudiofilename></originalaudiofilename>
						</logginginfo>
						<colorinfo>
							<lut></lut>
							<lut1></lut1>
							<asc_sop></asc_sop>
							<asc_sat></asc_sat>
							<lut2></lut2>
						</colorinfo>
						<labels>
							<label2>Caribbean</label2>
						</labels>
					</clipitem>
					<clipitem id="clipitem-170" premiereChannelType="stereo">
						<masterclipid>masterclip-30</masterclipid>
						<name>Ambience Nature Trail 180 01.wav</name>
						<enabled>TRUE</enabled>
						<duration>2700</duration>
						<rate>
							<timebase>30</timebase>
							<ntsc>TRUE</ntsc>
						</rate>
						<start>5583</start>
						<end>-1</end>
						<in>573</in>
						<out>2458</out>
						<pproTicksIn>4856557305600</pproTicksIn>
						<pproTicksOut>20833189977600</pproTicksOut>
						<file id="file-30"/>
						<sourcetrack>
							<mediatype>audio</mediatype>
							<trackindex>2</trackindex>
						</sourcetrack>
						<link>
							<linkclipref>clipitem-159</linkclipref>
							<mediatype>audio</mediatype>
							<trackindex>14</trackindex>
							<clipindex>7</clipindex>
							<groupindex>1</groupindex>
						</link>
						<link>
							<linkclipref>clipitem-170</linkclipref>
							<mediatype>audio</mediatype>
							<trackindex>15</trackindex>
							<clipindex>7</clipindex>
							<groupindex>1</groupindex>
						</link>
						<logginginfo>
							<description></description>
							<scene></scene>
							<shottake></shottake>
							<lognote></lognote>
							<good></good>
							<originalvideofilename></originalvideofilename>
							<originalaudiofilename></originalaudiofilename>
						</logginginfo>
						<colorinfo>
							<lut></lut>
							<lut1></lut1>
							<asc_sop></asc_sop>
							<asc_sat></asc_sat>
							<lut2></lut2>
						</colorinfo>
						<labels>
							<label2>Caribbean</label2>
						</labels>
					</clipitem>
					<transitionitem>
						<start>7390</start>
						<end>7468</end>
						<alignment>center</alignment>
						<cutPointTicks>330551020800</cutPointTicks>
						<rate>
							<timebase>30</timebase>
							<ntsc>TRUE</ntsc>
						</rate>
						<effect>
							<name>Cross Fade (+3dB)</name>
							<effectid>KGAudioTransCrossFade3dB</effectid>
							<effecttype>transition</effecttype>
							<mediatype>audio</mediatype>
							<wipecode>0</wipecode>
							<wipeaccuracy>100</wipeaccuracy>
							<startratio>0</startratio>
							<endratio>1</endratio>
							<reverse>FALSE</reverse>
						</effect>
					</transitionitem>
					<clipitem id="clipitem-171" premiereChannelType="stereo">
						<masterclipid>masterclip-30</masterclipid>
						<name>Ambience Nature Trail 180 01.wav</name>
						<enabled>TRUE</enabled>
						<duration>2700</duration>
						<rate>
							<timebase>30</timebase>
							<ntsc>TRUE</ntsc>
						</rate>
						<start>-1</start>
						<end>8881</end>
						<in>98</in>
						<out>1589</out>
						<pproTicksIn>830615385600</pproTicksIn>
						<pproTicksOut>13467835180800</pproTicksOut>
						<file id="file-30"/>
						<sourcetrack>
							<mediatype>audio</mediatype>
							<trackindex>2</trackindex>
						</sourcetrack>
						<link>
							<linkclipref>clipitem-160</linkclipref>
							<mediatype>audio</mediatype>
							<trackindex>14</trackindex>
							<clipindex>9</clipindex>
							<groupindex>1</groupindex>
						</link>
						<link>
							<linkclipref>clipitem-171</linkclipref>
							<mediatype>audio</mediatype>
							<trackindex>15</trackindex>
							<clipindex>9</clipindex>
							<groupindex>1</groupindex>
						</link>
						<logginginfo>
							<description></description>
							<scene></scene>
							<shottake></shottake>
							<lognote></lognote>
							<good></good>
							<originalvideofilename></originalvideofilename>
							<originalaudiofilename></originalaudiofilename>
						</logginginfo>
						<colorinfo>
							<lut></lut>
							<lut1></lut1>
							<asc_sop></asc_sop>
							<asc_sat></asc_sat>
							<lut2></lut2>
						</colorinfo>
						<labels>
							<label2>Caribbean</label2>
						</labels>
					</clipitem>
					<clipitem id="clipitem-172" premiereChannelType="stereo">
						<masterclipid>masterclip-30</masterclipid>
						<name>Ambience Nature Trail 180 01.wav</name>
						<enabled>TRUE</enabled>
						<duration>2700</duration>
						<rate>
							<timebase>30</timebase>
							<ntsc>TRUE</ntsc>
						</rate>
						<start>8881</start>
						<end>-1</end>
						<in>2004</in>
						<out>2675</out>
						<pproTicksIn>16985237068800</pproTicksIn>
						<pproTicksOut>22672409760000</pproTicksOut>
						<file id="file-30"/>
						<sourcetrack>
							<mediatype>audio</mediatype>
							<trackindex>2</trackindex>
						</sourcetrack>
						<link>
							<linkclipref>clipitem-161</linkclipref>
							<mediatype>audio</mediatype>
							<trackindex>14</trackindex>
							<clipindex>10</clipindex>
							<groupindex>1</groupindex>
						</link>
						<link>
							<linkclipref>clipitem-172</linkclipref>
							<mediatype>audio</mediatype>
							<trackindex>15</trackindex>
							<clipindex>10</clipindex>
							<groupindex>1</groupindex>
						</link>
						<logginginfo>
							<description></description>
							<scene></scene>
							<shottake></shottake>
							<lognote></lognote>
							<good></good>
							<originalvideofilename></originalvideofilename>
							<originalaudiofilename></originalaudiofilename>
						</logginginfo>
						<colorinfo>
							<lut></lut>
							<lut1></lut1>
							<asc_sop></asc_sop>
							<asc_sat></asc_sat>
							<lut2></lut2>
						</colorinfo>
						<labels>
							<label2>Caribbean</label2>
						</labels>
					</clipitem>
					<transitionitem>
						<start>9550</start>
						<end>9552</end>
						<alignment>center</alignment>
						<cutPointTicks>8475667200</cutPointTicks>
						<rate>
							<timebase>30</timebase>
							<ntsc>TRUE</ntsc>
						</rate>
						<effect>
							<name>Cross Fade (+3dB)</name>
							<effectid>KGAudioTransCrossFade3dB</effectid>
							<effecttype>transition</effecttype>
							<mediatype>audio</mediatype>
							<wipecode>0</wipecode>
							<wipeaccuracy>100</wipeaccuracy>
							<startratio>0</startratio>
							<endratio>1</endratio>
							<reverse>FALSE</reverse>
						</effect>
					</transitionitem>
					<clipitem id="clipitem-173" premiereChannelType="stereo">
						<masterclipid>masterclip-30</masterclipid>
						<name>Ambience Nature Trail 180 01.wav</name>
						<enabled>TRUE</enabled>
						<duration>2700</duration>
						<rate>
							<timebase>30</timebase>
							<ntsc>TRUE</ntsc>
						</rate>
						<start>-1</start>
						<end>-1</end>
						<in>136</in>
						<out>2458</out>
						<pproTicksIn>1152690739200</pproTicksIn>
						<pproTicksOut>20833189977600</pproTicksOut>
						<file id="file-30"/>
						<sourcetrack>
							<mediatype>audio</mediatype>
							<trackindex>2</trackindex>
						</sourcetrack>
						<link>
							<linkclipref>clipitem-162</linkclipref>
							<mediatype>audio</mediatype>
							<trackindex>14</trackindex>
							<clipindex>12</clipindex>
							<groupindex>1</groupindex>
						</link>
						<link>
							<linkclipref>clipitem-173</linkclipref>
							<mediatype>audio</mediatype>
							<trackindex>15</trackindex>
							<clipindex>12</clipindex>
							<groupindex>1</groupindex>
						</link>
						<logginginfo>
							<description></description>
							<scene></scene>
							<shottake></shottake>
							<lognote></lognote>
							<good></good>
							<originalvideofilename></originalvideofilename>
							<originalaudiofilename></originalaudiofilename>
						</logginginfo>
						<colorinfo>
							<lut></lut>
							<lut1></lut1>
							<asc_sop></asc_sop>
							<asc_sat></asc_sat>
							<lut2></lut2>
						</colorinfo>
						<labels>
							<label2>Caribbean</label2>
						</labels>
					</clipitem>
					<transitionitem>
						<start>11794</start>
						<end>11872</end>
						<alignment>center</alignment>
						<cutPointTicks>330551020800</cutPointTicks>
						<rate>
							<timebase>30</timebase>
							<ntsc>TRUE</ntsc>
						</rate>
						<effect>
							<name>Cross Fade (+3dB)</name>
							<effectid>KGAudioTransCrossFade3dB</effectid>
							<effecttype>transition</effecttype>
							<mediatype>audio</mediatype>
							<wipecode>0</wipecode>
							<wipeaccuracy>100</wipeaccuracy>
							<startratio>0</startratio>
							<endratio>1</endratio>
							<reverse>FALSE</reverse>
						</effect>
					</transitionitem>
					<clipitem id="clipitem-174" premiereChannelType="stereo">
						<masterclipid>masterclip-30</masterclipid>
						<name>Ambience Nature Trail 180 01.wav</name>
						<enabled>TRUE</enabled>
						<duration>2700</duration>
						<rate>
							<timebase>30</timebase>
							<ntsc>TRUE</ntsc>
						</rate>
						<start>-1</start>
						<end>-1</end>
						<in>98</in>
						<out>2676</out>
						<pproTicksIn>830615385600</pproTicksIn>
						<pproTicksOut>22680885427200</pproTicksOut>
						<file id="file-30"/>
						<sourcetrack>
							<mediatype>audio</mediatype>
							<trackindex>2</trackindex>
						</sourcetrack>
						<link>
							<linkclipref>clipitem-163</linkclipref>
							<mediatype>audio</mediatype>
							<trackindex>14</trackindex>
							<clipindex>14</clipindex>
							<groupindex>1</groupindex>
						</link>
						<link>
							<linkclipref>clipitem-174</linkclipref>
							<mediatype>audio</mediatype>
							<trackindex>15</trackindex>
							<clipindex>14</clipindex>
							<groupindex>1</groupindex>
						</link>
						<logginginfo>
							<description></description>
							<scene></scene>
							<shottake></shottake>
							<lognote></lognote>
							<good></good>
							<originalvideofilename></originalvideofilename>
							<originalaudiofilename></originalaudiofilename>
						</logginginfo>
						<colorinfo>
							<lut></lut>
							<lut1></lut1>
							<asc_sop></asc_sop>
							<asc_sat></asc_sat>
							<lut2></lut2>
						</colorinfo>
						<labels>
							<label2>Caribbean</label2>
						</labels>
					</clipitem>
					<transitionitem>
						<start>14370</start>
						<end>14372</end>
						<alignment>end-black</alignment>
						<cutPointTicks>16951334400</cutPointTicks>
						<rate>
							<timebase>30</timebase>
							<ntsc>TRUE</ntsc>
						</rate>
						<effect>
							<name>Cross Fade (+3dB)</name>
							<effectid>KGAudioTransCrossFade3dB</effectid>
							<effecttype>transition</effecttype>
							<mediatype>audio</mediatype>
							<wipecode>0</wipecode>
							<wipeaccuracy>100</wipeaccuracy>
							<startratio>0</startratio>
							<endratio>1</endratio>
							<reverse>FALSE</reverse>
						</effect>
					</transitionitem>
					<clipitem id="clipitem-175" premiereChannelType="stereo">
						<masterclipid>masterclip-30</masterclipid>
						<name>Ambience Nature Trail 180 01.wav</name>
						<enabled>TRUE</enabled>
						<duration>2700</duration>
						<rate>
							<timebase>30</timebase>
							<ntsc>TRUE</ntsc>
						</rate>
						<start>14372</start>
						<end>-1</end>
						<in>137</in>
						<out>2458</out>
						<pproTicksIn>1161166406400</pproTicksIn>
						<pproTicksOut>20833189977600</pproTicksOut>
						<file id="file-30"/>
						<sourcetrack>
							<mediatype>audio</mediatype>
							<trackindex>2</trackindex>
						</sourcetrack>
						<link>
							<linkclipref>clipitem-164</linkclipref>
							<mediatype>audio</mediatype>
							<trackindex>14</trackindex>
							<clipindex>16</clipindex>
							<groupindex>1</groupindex>
						</link>
						<link>
							<linkclipref>clipitem-175</linkclipref>
							<mediatype>audio</mediatype>
							<trackindex>15</trackindex>
							<clipindex>16</clipindex>
							<groupindex>1</groupindex>
						</link>
						<logginginfo>
							<description></description>
							<scene></scene>
							<shottake></shottake>
							<lognote></lognote>
							<good></good>
							<originalvideofilename></originalvideofilename>
							<originalaudiofilename></originalaudiofilename>
						</logginginfo>
						<colorinfo>
							<lut></lut>
							<lut1></lut1>
							<asc_sop></asc_sop>
							<asc_sat></asc_sat>
							<lut2></lut2>
						</colorinfo>
						<labels>
							<label2>Caribbean</label2>
						</labels>
					</clipitem>
					<transitionitem>
						<start>16615</start>
						<end>16693</end>
						<alignment>center</alignment>
						<cutPointTicks>330551020800</cutPointTicks>
						<rate>
							<timebase>30</timebase>
							<ntsc>TRUE</ntsc>
						</rate>
						<effect>
							<name>Cross Fade (+3dB)</name>
							<effectid>KGAudioTransCrossFade3dB</effectid>
							<effecttype>transition</effecttype>
							<mediatype>audio</mediatype>
							<wipecode>0</wipecode>
							<wipeaccuracy>100</wipeaccuracy>
							<startratio>0</startratio>
							<endratio>1</endratio>
							<reverse>FALSE</reverse>
						</effect>
					</transitionitem>
					<clipitem id="clipitem-176" premiereChannelType="stereo">
						<masterclipid>masterclip-30</masterclipid>
						<name>Ambience Nature Trail 180 01.wav</name>
						<enabled>TRUE</enabled>
						<duration>2700</duration>
						<rate>
							<timebase>30</timebase>
							<ntsc>TRUE</ntsc>
						</rate>
						<start>-1</start>
						<end>-1</end>
						<in>98</in>
						<out>2677</out>
						<pproTicksIn>830615385600</pproTicksIn>
						<pproTicksOut>22689361094400</pproTicksOut>
						<file id="file-30"/>
						<sourcetrack>
							<mediatype>audio</mediatype>
							<trackindex>2</trackindex>
						</sourcetrack>
						<link>
							<linkclipref>clipitem-165</linkclipref>
							<mediatype>audio</mediatype>
							<trackindex>14</trackindex>
							<clipindex>18</clipindex>
							<groupindex>1</groupindex>
						</link>
						<link>
							<linkclipref>clipitem-176</linkclipref>
							<mediatype>audio</mediatype>
							<trackindex>15</trackindex>
							<clipindex>18</clipindex>
							<groupindex>1</groupindex>
						</link>
						<logginginfo>
							<description></description>
							<scene></scene>
							<shottake></shottake>
							<lognote></lognote>
							<good></good>
							<originalvideofilename></originalvideofilename>
							<originalaudiofilename></originalaudiofilename>
						</logginginfo>
						<colorinfo>
							<lut></lut>
							<lut1></lut1>
							<asc_sop></asc_sop>
							<asc_sat></asc_sat>
							<lut2></lut2>
						</colorinfo>
						<labels>
							<label2>Caribbean</label2>
						</labels>
					</clipitem>
					<transitionitem>
						<start>19192</start>
						<end>19194</end>
						<alignment>center</alignment>
						<cutPointTicks>8475667200</cutPointTicks>
						<rate>
							<timebase>30</timebase>
							<ntsc>TRUE</ntsc>
						</rate>
						<effect>
							<name>Cross Fade (+3dB)</name>
							<effectid>KGAudioTransCrossFade3dB</effectid>
							<effecttype>transition</effecttype>
							<mediatype>audio</mediatype>
							<wipecode>0</wipecode>
							<wipeaccuracy>100</wipeaccuracy>
							<startratio>0</startratio>
							<endratio>1</endratio>
							<reverse>FALSE</reverse>
						</effect>
					</transitionitem>
					<clipitem id="clipitem-177" premiereChannelType="stereo">
						<masterclipid>masterclip-30</masterclipid>
						<name>Ambience Nature Trail 180 01.wav</name>
						<enabled>TRUE</enabled>
						<duration>2700</duration>
						<rate>
							<timebase>30</timebase>
							<ntsc>TRUE</ntsc>
						</rate>
						<start>-1</start>
						<end>20379</end>
						<in>136</in>
						<out>1323</out>
						<pproTicksIn>1152690739200</pproTicksIn>
						<pproTicksOut>11213307705600</pproTicksOut>
						<file id="file-30"/>
						<sourcetrack>
							<mediatype>audio</mediatype>
							<trackindex>2</trackindex>
						</sourcetrack>
						<link>
							<linkclipref>clipitem-166</linkclipref>
							<mediatype>audio</mediatype>
							<trackindex>14</trackindex>
							<clipindex>20</clipindex>
							<groupindex>1</groupindex>
						</link>
						<link>
							<linkclipref>clipitem-177</linkclipref>
							<mediatype>audio</mediatype>
							<trackindex>15</trackindex>
							<clipindex>20</clipindex>
							<groupindex>1</groupindex>
						</link>
						<logginginfo>
							<description></description>
							<scene></scene>
							<shottake></shottake>
							<lognote></lognote>
							<good></good>
							<originalvideofilename></originalvideofilename>
							<originalaudiofilename></originalaudiofilename>
						</logginginfo>
						<colorinfo>
							<lut></lut>
							<lut1></lut1>
							<asc_sop></asc_sop>
							<asc_sat></asc_sat>
							<lut2></lut2>
						</colorinfo>
						<labels>
							<label2>Caribbean</label2>
						</labels>
					</clipitem>
					<enabled>TRUE</enabled>
					<locked>FALSE</locked>
					<outputchannelindex>2</outputchannelindex>
				</track>
			</audio>
		</media>
		<timecode>
			<rate>
				<timebase>30</timebase>
				<ntsc>TRUE</ntsc>
			</rate>
			<string>00;00;00;00</string>
			<frame>0</frame>
			<displayformat>DF</displayformat>
		</timecode>
			<marker>
				<comment></comment>
				<name>SEAM!!!</name>
				<in>18867</in>
				<out>19087</out>
				<pproColor>4281740498</pproColor>
			</marker>
			<marker>
				<comment></comment>
				<name></name>
				<in>126</in>
				<out>-1</out>
			</marker>
			<marker>
				<comment></comment>
				<name></name>
				<in>5795</in>
				<out>-1</out>
			</marker>
			<marker>
				<comment></comment>
				<name></name>
				<in>5353</in>
				<out>-1</out>
			</marker>
			<marker>
				<comment></comment>
				<name></name>
				<in>2705</in>
				<out>-1</out>
			</marker>
			<marker>
				<comment></comment>
				<name></name>
				<in>5399</in>
				<out>-1</out>
			</marker>
			<marker>
				<comment></comment>
				<name></name>
				<in>456</in>
				<out>-1</out>
			</marker>
			<marker>
				<comment></comment>
				<name>GFX_  ID TAGS SECTION</name>
				<in>6444</in>
				<out>10568</out>
				<pproColor>4281740498</pproColor>
			</marker>
			<marker>
				<comment></comment>
				<name></name>
				<in>2801</in>
				<out>-1</out>
			</marker>
			<marker>
				<comment></comment>
				<name></name>
				<in>7595</in>
				<out>-1</out>
			</marker>
			<marker>
				<comment></comment>
				<name></name>
				<in>2696</in>
				<out>-1</out>
			</marker>
			<marker>
				<comment></comment>
				<name></name>
				<in>5386</in>
				<out>-1</out>
			</marker>
			<marker>
				<comment></comment>
				<name>END of Offset KEYFRAMES</name>
				<in>12808</in>
				<out>-1</out>
			</marker>
		<labels>
			<label2>Forest</label2>
		</labels>
	</sequence>
</xmeml>
